<?xml version="1.0" encoding="utf-8"?>
<!-- Generator: Adobe Illustrator 22.0.0, SVG Export Plug-In . SVG Version: 6.00 Build 0)  -->
<svg version="1.1" id="レイヤー_1" xmlns="http://www.w3.org/2000/svg" xmlns:xlink="http://www.w3.org/1999/xlink" x="0px"
	 y="0px" viewBox="0 0 102.256 39.092" style="enable-background:new 0 0 102.256 39.092;" xml:space="preserve">
<style type="text/css">
	.st0{fill:#151519;}
	.st1{fill:url(#SVGID_1_);}
</style>
<path class="st0" d="M12.896,16.765c-1.371-0.14-3.135,0.14-4.76,0.42c0.029,0.671-0.167,1.596-0.924,2.967
	c-1.68,3.053-4.06,6.973-6.244,12.096c-0.113,0.28-0.253,0.28-0.447,0.084c-0.393-0.364-0.729-1.204-0.365-2.547
	c0.645-2.296,3.669-8.373,6.273-12.32c-0.644,0.111-1.204,0.167-1.707,0.196c-1.68,0.055-2.885-0.56-3.193-1.596
	c-0.084-0.253,0.027-0.393,0.307-0.364c2.493,0.195,7.14-0.84,8.736-0.785c1.176,0.029,2.24,0.336,2.66,1.429
	C13.316,16.569,13.261,16.792,12.896,16.765L12.896,16.765z M27.961,29.841c-1.036,1.904-2.94,2.827-4.929,2.967
	c-1.736,0.113-2.94-0.167-3.92-1.064c-0.531-0.504-0.84-1.12-0.896-1.82c-1.455,2.66-3.024,5.796-4.395,8.931
	c-0.113,0.253-0.309,0.336-0.449,0.085c-0.42-0.56-0.587-1.373-0.056-3.08c0.56-1.793,2.94-6.525,4.956-10.193
	c-0.756,0.56-1.651,0.813-2.631,0.727c-0.589,2.409-2.325,5.32-4.425,5.993c-1.035,0.336-2.38,0.253-3.527-1.204
	c-1.26-1.624-0.784-4.089,0.447-6.3c1.065-1.904,2.8-3.529,4.48-3.64c0.84-0.056,1.316,0.196,1.876,0.951
	c0.644,0.869,1.484,1.009,1.344,3.08c0,0.14-0.055,0.309-0.084,0.449c1.793-0.029,3.584-2.044,5.069-4.34
	c0.251-0.364,0.531-0.309,0.671,0.056c0.14,0.335,0.253,0.727,0.224,1.26c1.205-1.093,2.913-1.96,4.089-0.645
	c1.287,1.429,0.7,3.893-0.364,6.16c-0.869,1.849-1.849,3.165-2.885,3.809c2.689-0.14,4.369-2.129,5.265-4.004
	c0.167-0.393,0.475-0.28,0.56,0C28.465,28.272,28.436,28.945,27.961,29.841L27.961,29.841z M11.972,23.316
	c-0.727,0.645-1.511,1.569-2.156,2.66c-1.204,2.1-1.595,4.705-0.895,5.293c0.784,0.673,2.491-0.364,3.864-2.884
	c0.476-0.869,0.811-1.68,1.036-2.409C12.812,25.445,12.001,24.409,11.972,23.316L11.972,23.316z M14.185,23.316
	c-0.113-0.895-0.7-0.755-0.84,0.085c-0.113,0.587,0.14,1.4,0.671,1.875C14.212,24.465,14.241,23.821,14.185,23.316L14.185,23.316z
	 M23.705,27.236c1.091-2.267,1.371-4.591,0.671-4.871s-2.324,1.036-3.64,3.191c-0.307,0.533-0.671,1.093-1.035,1.68
	c-0.645,1.709-0.785,3.333-0.029,3.949C20.596,31.941,22.416,29.896,23.705,27.236L23.705,27.236z M35.241,21.189
	c-0.365,0.393-1.149,0.307-1.569-0.42c-0.447-0.756-0.307-1.596,0.14-2.073c0.449-0.475,1.26-0.14,1.624,0.616
	C35.801,20.041,35.605,20.796,35.241,21.189L35.241,21.189z M33.225,24.576c-0.589,1.233-1.764,3.136-2.353,4.536
	c-0.671,1.624-0.616,2.716,0.28,2.66c1.26-0.056,2.8-1.904,3.64-3.836c0.14-0.251,0.336-0.224,0.449,0
	c0.224,0.449,0.14,1.036-0.196,1.736c-0.84,1.736-2.604,2.913-4.173,2.913c-2.127,0-2.66-1.793-1.876-4.089
	c0.7-2.044,2.549-5.347,3.585-6.804c0.251-0.336,0.447-0.42,0.671-0.167C33.672,21.972,33.896,23.176,33.225,24.576L33.225,24.576z
	 M45.301,29.532c-1.065,1.653-3.276,3.024-5.405,3.053c-3.555,0.056-4.76-3.416-2.94-7.029c1.793-3.527,4.62-5.04,6.02-4.2
	c0.756,0.449,1.205,0.896,1.54,1.54c0.589,1.176-0.531,2.66-1.091,4.173c-0.113,0.336-0.224,0.42-0.589,0.224
	c-0.671-0.336-1.064-1.176-0.671-2.436c0.307-1.007,1.147-2.211,0.756-2.52c-0.476-0.391-2.576,1.4-3.836,3.949
	c-1.54,3.164-0.953,5.487,0.7,5.516c2.351,0.027,4.367-2.213,5.516-3.976c0.14-0.224,0.391-0.253,0.504,0.027
	C45.888,28.076,45.776,28.776,45.301,29.532L45.301,29.532z"/>
<linearGradient id="SVGID_1_" gradientUnits="userSpaceOnUse" x1="87.4318" y1="191.9506" x2="67.9733" y2="158.2477" gradientTransform="matrix(1 0 0 1 0 -158)">
	<stop  offset="0" style="stop-color:#5674AF"/>
	<stop  offset="0.3328" style="stop-color:#438DBC"/>
	<stop  offset="0.6764" style="stop-color:#339FB9"/>
	<stop  offset="1" style="stop-color:#24B1B4"/>
</linearGradient>
<path class="st1" d="M75.027,21.788c-3.835,7.938-10.044,14.364-16.956,12.151c-4.158-1.351-6.047-5.076-6.102-9.235
	C51.807,13.633,61.041,3.482,66.657,1.106c2.915-1.242,5.453-0.756,6.858,0.702C79.832,4.184,78.59,14.444,75.027,21.788
	L75.027,21.788z M72.543,2.995c-2.484-0.864-8.802,3.133-13.393,11.016c-4.644,7.993-4.589,16.687-1.08,18.036
	c3.295,1.296,9.289-3.24,13.231-11.395C75.676,11.635,75.35,3.968,72.543,2.995L72.543,2.995z M100.108,11.15
	c-1.349,1.782-4.104,4.051-7.344,5.4c0.918,0.216,1.836,0.54,2.484,1.08c2.755,2.322,1.998,6.967-1.998,11.88
	c-4.589,5.616-11.069,5.725-14.525,3.456c-3.725-2.429-3.564-6.425-2.755-8.369c0.918-2.269,2.809-3.511,4.429-3.511
	c0.54,0,0.702,0.324,0.431,0.756c-2.7,4.32-2.755,8.155-0.809,9.396c2.7,1.673,7.182-0.487,10.098-4.158
	c2.591-3.24,4.211-7.075,2.484-8.262c-2.215-1.513-5.671,1.782-8.478-1.62c-0.324-0.378-0.216-0.811,0.485-1.027
	c11.502-3.402,16.525-10.855,14.202-13.284c-1.996-2.105-5.291,0.973-7.829,4.158c-1.729,2.16-3.618,3.456-5.833,3.024
	c-0.702-0.107-0.809-0.431-0.54-0.973c1.62-3.24,5.238-7.02,7.884-8.315c2.647-1.296,6.104-0.973,7.938,0.918
	C102.756,4.075,103.079,7.208,100.108,11.15L100.108,11.15z"/>
</svg>
