<?xml version="1.0" encoding="utf-8"?>
<!-- Generator: Adobe Illustrator 22.0.0, SVG Export Plug-In . SVG Version: 6.00 Build 0)  -->
<svg version="1.1" id="レイヤー_1" xmlns="http://www.w3.org/2000/svg" xmlns:xlink="http://www.w3.org/1999/xlink" x="0px"
	 y="0px" viewBox="0 0 20 19.998" style="enable-background:new 0 0 20 19.998;" xml:space="preserve">
<style type="text/css">
	.st0{fill-rule:evenodd;clip-rule:evenodd;fill:url(#SVGID_1_);}
</style>
<linearGradient id="SVGID_1_" gradientUnits="userSpaceOnUse" x1="19.3497" y1="19.3487" x2="0.6503" y2="0.6494">
	<stop  offset="0" style="stop-color:#5674AF"/>
	<stop  offset="0.3328" style="stop-color:#438DBC"/>
	<stop  offset="0.6764" style="stop-color:#339FB9"/>
	<stop  offset="1" style="stop-color:#24B1B4"/>
</linearGradient>
<path class="st0" d="M17.782,12.229c-1.225,0-2.22-0.998-2.22-2.229c0-1.231,0.995-2.229,2.22-2.229C19.005,7.771,20,8.769,20,10
	C20,11.231,19.005,12.229,17.782,12.229L17.782,12.229z M17.782,4.438c-1.225,0-2.22-0.995-2.22-2.22
	c0-1.226,0.995-2.218,2.22-2.218C19.005,0,20,0.993,20,2.218C20,3.444,19.005,4.438,17.782,4.438L17.782,4.438z M10,19.998
	c-1.231,0-2.229-0.993-2.229-2.218S8.769,15.562,10,15.562c1.231,0,2.229,0.993,2.229,2.218S11.231,19.998,10,19.998L10,19.998z
	 M10,12.229c-1.231,0-2.229-0.998-2.229-2.229c0-1.231,0.998-2.229,2.229-2.229c1.231,0,2.229,0.998,2.229,2.229
	C12.229,11.231,11.231,12.229,10,12.229L10,12.229z M10,4.438c-1.231,0-2.229-0.995-2.229-2.22C7.771,0.993,8.769,0,10,0
	c1.231,0,2.229,0.993,2.229,2.218C12.229,3.444,11.231,4.438,10,4.438L10,4.438z M2.218,19.998C0.995,19.998,0,19.005,0,17.78
	s0.995-2.218,2.218-2.218c1.225,0,2.22,0.993,2.22,2.218S3.444,19.998,2.218,19.998L2.218,19.998z M2.218,12.229
	C0.995,12.229,0,11.231,0,10c0-1.231,0.995-2.229,2.218-2.229c1.225,0,2.22,0.998,2.22,2.229
	C4.438,11.231,3.444,12.229,2.218,12.229L2.218,12.229z M2.218,4.438C0.995,4.438,0,3.444,0,2.218C0,0.993,0.995,0,2.218,0
	c1.225,0,2.22,0.993,2.22,2.218C4.438,3.444,3.444,4.438,2.218,4.438L2.218,4.438z M17.782,15.562c1.224,0,2.218,0.993,2.218,2.218
	s-0.995,2.218-2.218,2.218c-1.225,0-2.22-0.993-2.22-2.218S16.556,15.562,17.782,15.562L17.782,15.562z"/>
</svg>
