<svg xmlns="http://www.w3.org/2000/svg" xmlns:xlink="http://www.w3.org/1999/xlink" width="320" height="320" viewBox="0 0 320 320">
  <defs>
    <style>
      .cls-1 {
        fill: url(#名称未設定グラデーション_10);
      }
    </style>
    <linearGradient id="名称未設定グラデーション_10" data-name="名称未設定グラデーション 10" x1="215.657" y1="256.401" x2="104.343" y2="63.599" gradientUnits="userSpaceOnUse">
      <stop offset="0" stop-color="#5674af"/>
      <stop offset="0.159" stop-color="#4f7db4"/>
      <stop offset="0.33" stop-color="#438dbc"/>
      <stop offset="0.66" stop-color="#339fb9"/>
      <stop offset="0.994" stop-color="#24b1b4"/>
    </linearGradient>
  </defs>
  <title>welfare03</title>
  <g id="welfare03">
    <path class="cls-1" d="M162,266v5a2,2,0,0,1-4,0v-5a2,2,0,0,1,4,0ZM160,56a2,2,0,0,0,2-2V49a2,2,0,0,0-4,0v5A2,2,0,0,0,160,56ZM124.43,257.729a2,2,0,0,0-2.563,1.194l-1.711,4.7a2,2,0,0,0,1.2,2.564,1.972,1.972,0,0,0,.684.122,2,2,0,0,0,1.879-1.317l1.71-4.7a1.995,1.995,0,0,0-1.195-2.563ZM195.57,62.271a1.973,1.973,0,0,0,.684.123,2,2,0,0,0,1.879-1.317l1.711-4.7a2,2,0,0,0-3.759-1.369l-1.71,4.7a1.995,1.995,0,0,0,1.195,2.563ZM90.333,239.915l-3.214,3.83a2,2,0,1,0,3.063,2.572l3.215-3.83a2,2,0,0,0-3.064-2.572ZM229.818,73.683l-3.215,3.83a2,2,0,0,0,3.064,2.572l3.214-3.83a2,2,0,1,0-3.063-2.572ZM67.2,211.268l-4.33,2.5a2,2,0,1,0,2,3.464l4.33-2.5a2,2,0,0,0-2-3.464Zm187.928-108.5-4.33,2.5a2,2,0,1,0,2,3.464l4.33-2.5a2,2,0,1,0-2-3.464ZM55.263,176.437l-4.924.869a2,2,0,0,0,.345,3.969,1.978,1.978,0,0,0,.35-.03l4.924-.869a2,2,0,0,0-.7-3.939Zm209.124-32.843a1.98,1.98,0,0,0,.35-.031l4.924-.869a2,2,0,1,0-.695-3.939l-4.924.869a2,2,0,0,0,.345,3.97Zm-208.429-3.97-4.924-.869a2,2,0,1,0-.7,3.939l4.924.869a1.98,1.98,0,0,0,.35.031,2,2,0,0,0,.345-3.97Zm213.7,37.682-4.924-.869a2,2,0,1,0-.7,3.939l4.924.869a1.978,1.978,0,0,0,.35.03,2,2,0,0,0,.345-3.969ZM69.2,105.268l-4.33-2.5a2,2,0,1,0-2,3.464l4.33,2.5a2,2,0,1,0,2-3.464Zm187.928,108.5-4.33-2.5a2,2,0,1,0-2,3.464l4.33,2.5a2,2,0,1,0,2-3.464ZM90.182,73.683a2,2,0,1,0-3.063,2.572l3.214,3.83A2,2,0,0,0,93.4,77.513ZM229.667,239.915a2,2,0,0,0-3.064,2.572l3.215,3.83a2,2,0,1,0,3.063-2.572ZM121.867,61.077a2,2,0,0,0,1.879,1.317,1.977,1.977,0,0,0,.684-.123,1.995,1.995,0,0,0,1.195-2.563l-1.71-4.7a2,2,0,1,0-3.759,1.369Zm76.266,197.846a2,2,0,1,0-3.758,1.369l1.71,4.7a2,2,0,0,0,1.879,1.317,1.976,1.976,0,0,0,.684-.122,2,2,0,0,0,1.2-2.564ZM174,181v30a2,2,0,0,1-2,2h-1.429l-1.255,18.138a2,2,0,0,1-2,1.862H162.1a2,2,0,0,1-1.973-1.67,2,2,0,0,1-1.972,1.67H152.93a2,2,0,0,1-2-1.862L149.68,213H148a2,2,0,0,1-2-2V181a9.01,9.01,0,0,1,9-9h10A9.01,9.01,0,0,1,174,181Zm-24,16h20V181a5.006,5.006,0,0,0-5-5H155a5.006,5.006,0,0,0-5,5Zm20,12v-8H150v8h1.547a2,2,0,0,1,2,1.862L154.8,229h1.491l1.254-18.138a2,2,0,0,1,2-1.862h1.179a2,2,0,0,1,2,1.862L163.965,229h1.49l1.254-18.138a2,2,0,0,1,2-1.862Zm-9.632-47.129.861-.755a5.327,5.327,0,0,0,3.271,1.251,2,2,0,0,0,0-4c-.438,0-1.189-.673-1.528-1.143a2,2,0,0,0-2.959-.361l-1.557,1.365a4.046,4.046,0,0,1-1.372-1.082,2,2,0,0,0-3.176,2.432c.217.285,2.206,2.789,5.141,2.789A2.006,2.006,0,0,0,160.368,161.871ZM149,160a11,11,0,1,1,11,11A11.013,11.013,0,0,1,149,160Zm4,0a7,7,0,1,0,7-7A7.008,7.008,0,0,0,153,160Zm50.98-15.55a1.817,1.817,0,0,0-.25-.3,1.488,1.488,0,0,0-.3-.25,2.461,2.461,0,0,0-.35-.189,1.732,1.732,0,0,0-.37-.11,2.047,2.047,0,0,0-.78,0,1.657,1.657,0,0,0-.38.11,1.921,1.921,0,0,0-.34.189,1.545,1.545,0,0,0-.31.25,2.5,2.5,0,0,0-.25.3,2.211,2.211,0,0,0-.18.34,1.657,1.657,0,0,0-.11.38,1.722,1.722,0,0,0-.04.39,2.581,2.581,0,0,0,.03.39,2.4,2.4,0,0,0,.12.38,2.211,2.211,0,0,0,.18.34,1.852,1.852,0,0,0,.25.3,2.022,2.022,0,0,0,.65.44,2,2,0,0,0,2.18-.44,1.852,1.852,0,0,0,.25-.3,2.211,2.211,0,0,0,.18-.34,2.4,2.4,0,0,0,.12-.38,2.55,2.55,0,0,0,0-.78,2.4,2.4,0,0,0-.12-.38A2.211,2.211,0,0,0,203.98,144.45Zm-.25,7.039a1.686,1.686,0,0,0-.19-.34,1.561,1.561,0,0,0-.55-.549,1.633,1.633,0,0,0-.34-.19,1.7,1.7,0,0,0-.38-.11,2.016,2.016,0,0,0-1.8.54,1.783,1.783,0,0,0-.25.309,2.371,2.371,0,0,0-.19.34,1.651,1.651,0,0,0-.11.381,1.722,1.722,0,0,0-.04.39,1.983,1.983,0,0,0,.59,1.41,1.425,1.425,0,0,0,.3.25,1.652,1.652,0,0,0,.35.189,2,2,0,0,0,.37.111,2.714,2.714,0,0,0,.39.04,2,2,0,0,0,2-2,1.722,1.722,0,0,0-.04-.39A1.651,1.651,0,0,0,203.73,151.489ZM202.362,141a2.017,2.017,0,0,0,.5-.064c.273-.07,6.739-1.788,10.2-6.975a2,2,0,1,0-3.328-2.219c-2.075,3.112-5.828,4.641-7.276,5.135a4.63,4.63,0,0,1-2.9-4.027,2,2,0,0,0-2-2h0a2,2,0,0,0-2,2c.007,6,5.94,7.97,6.192,8.051A1.984,1.984,0,0,0,202.362,141Zm11.9,26.425a3.816,3.816,0,0,1,.488,5.374l-2.364,2.835a4.729,4.729,0,0,1-6.654.6l-.3-.254a4.178,4.178,0,0,1-.532-5.885l2.711-3.252a3.817,3.817,0,0,1,5.376-.489Zm-2.7,2.954-1-.831-2.595,3.111a.2.2,0,0,0,.023.253l.3.254a.723.723,0,0,0,1.019-.094ZM191.792,109a13,13,0,0,1,6.579-11.29,4.567,4.567,0,0,1-.579-2.21c0-3.084,3.074-5.5,7-5.5s7,2.416,7,5.5a4.568,4.568,0,0,1-.58,2.21A12.995,12.995,0,1,1,191.792,109Zm21.766,2.008a8.835,8.835,0,0,1-6.836-3.792,14.491,14.491,0,0,1-10.034,5.35l-.113,0c-.015,0-.029,0-.044,0a8.993,8.993,0,0,0,17.027-1.557ZM201.792,95.5a1.082,1.082,0,0,0,.489.748,12.831,12.831,0,0,1,5.021,0,1.084,1.084,0,0,0,.49-.748c0-.6-1.2-1.5-3-1.5S201.792,94.9,201.792,95.5Zm-5.987,13.232a1.985,1.985,0,0,1,.661-.16c5.528-.306,8.636-5.893,8.667-5.95.008-.014.019-.025.027-.039a1.746,1.746,0,0,1,.131-.191c.032-.044.063-.091.1-.131a2.025,2.025,0,0,1,.156-.151c.043-.04.085-.082.131-.117s.112-.074.17-.11.108-.068.166-.1c.017-.009.032-.021.05-.029.044-.02.091-.029.136-.046.061-.023.122-.045.185-.062a1.855,1.855,0,0,1,.192-.037c.065-.01.129-.02.2-.024s.122,0,.184,0a1.784,1.784,0,0,1,.206.015,1.728,1.728,0,0,1,.174.035,1.826,1.826,0,0,1,.2.054c.062.021.12.049.18.076.043.019.088.031.13.054.016.009.028.021.044.031a1.931,1.931,0,0,1,.172.117c.05.037.1.071.149.112s.089.09.133.137.094.1.135.151.062.1.093.145a2.224,2.224,0,0,1,.113.194c.007.015.018.027.024.042,1.775,3.908,4.2,4.249,4.856,4.268a8.991,8.991,0,0,0-17.76,1.712ZM106.792,99.5a13.5,13.5,0,1,1,13.5,13.5A13.515,13.515,0,0,1,106.792,99.5Zm4,0c0,.112.012.222.016.333A1.994,1.994,0,0,1,112.792,98c1.095,0,2.629-1.956,3.17-2.953a2,2,0,0,1,3.255-.374l2.818,3.176a7.718,7.718,0,0,0,3.035-2.868,2,2,0,1,1,3.443,2.038c-.3.509-3.068,4.981-7.243,4.981a2,2,0,0,1-1.5-.673l-1.88-2.119a7.1,7.1,0,0,1-5.1,2.792,2,2,0,0,1-1.954-1.577,9.49,9.49,0,1,0-.046-.923Zm31.959,31.029c2.49,6,2.706,11.3.62,15.763a14.77,14.77,0,0,1-1.438,2.391L140.622,175.1a6.2,6.2,0,0,1-4.259,5.588l-1.938,50.385a2,2,0,0,1-2,1.923h-9a2,2,0,0,1-2-1.923l-1.137-29.549-1.136,29.549a2,2,0,0,1-2,1.923h-9a2,2,0,0,1-2-1.923l-1.938-50.385a6.2,6.2,0,0,1-4.259-5.588l-.738-14.868a15.523,15.523,0,0,1-2.335-4.722c-1.314-4.352-.663-8.748,1.532-11.469l-.626-12.62A17.286,17.286,0,0,1,114.961,114h10.661A17.247,17.247,0,0,1,142.751,130.529Zm-3,14.068a13.022,13.022,0,0,0,.615-8.539,14.818,14.818,0,0,1-11.857,6.172h-.135c-5.5,0-6.666-5.164-7.293-7.949-.091-.4-.208-.925-.328-1.351l-6.146,4.3.094.134a3.939,3.939,0,0,1-.955,5.49h0l-5,3.514a3.792,3.792,0,0,1-2.193.7,3.828,3.828,0,0,1-3.137-1.626l-.183-.258-1,.7c-1.92,1.344-2.573,4.988-1.52,8.478,1.217,4.027,4.309,6.811,6.782,6.12l15.16-5.717a4.235,4.235,0,0,1,2.9-4.136l4.934-1.671a3.883,3.883,0,0,1,2.988.2,3.924,3.924,0,0,1,1.133.854A12.658,12.658,0,0,0,139.748,144.6Zm-12.907,9.816a.295.295,0,0,0-.185.373l.288.852a.871.871,0,0,0,.438.5.861.861,0,0,0,.663.043l4.309-1.458-.662-1.953Zm-20.622-11.937.368.521,4.806-3.38-.368-.523a1.227,1.227,0,0,0-.8-.506,1.311,1.311,0,0,0-.215-.019,1.221,1.221,0,0,0-.708.226l-2.785,1.959A1.239,1.239,0,0,0,106.219,142.476ZM135.9,132.064a5.81,5.81,0,0,0-10.724.5,5.854,5.854,0,0,0-.205.807l.008.036c.808,3.589,1.421,4.849,3.465,4.827a10.541,10.541,0,0,0,7.99-3.695A5.756,5.756,0,0,0,135.9,132.064Zm-34.109-.738.444,8.952a5.191,5.191,0,0,1,1.981-2.8L107,135.523a5.2,5.2,0,0,1,3.91-.876c.1.018.191.058.289.081l4.385-3.067-4.4-8.28a2,2,0,0,1,3.532-1.877l4.176,7.853a3.834,3.834,0,0,1,3-.747l3.988-7.142a2,2,0,1,1,3.492,1.949l-.862,1.543A9.808,9.808,0,0,1,138.53,128.7,13.232,13.232,0,0,0,125.622,118H114.961A13.263,13.263,0,0,0,101.792,131.326Zm34.834,43.58,1.1-22.156c-.516.353-1.022.659-1.518.937a3.909,3.909,0,0,1-2.488,4.8l-4.392,1.487a4.848,4.848,0,0,1-5.27-1.464l-15.22,5.739c-.042.017-.084.03-.127.044a6.9,6.9,0,0,1-2,.3,7.753,7.753,0,0,1-3.309-.783l.551,11.1a2.2,2.2,0,0,0,2.2,2.094,2,2,0,0,1,2,1.923L110.081,229h5.151l1.926-50.077a2,2,0,0,1,2-1.923h2.27a2,2,0,0,1,2,1.923L125.351,229H130.5l1.926-50.077a2,2,0,0,1,2-1.923A2.2,2.2,0,0,0,136.626,174.906ZM226.79,204h-9.7l-2.7,27.19a2,2,0,0,1-1.99,1.8h-4.921a2,2,0,0,1-2-2V204h-1.217V231a2,2,0,0,1-2,2h-5.208a2,2,0,0,1-1.99-1.8L192.37,204h-9.7a2,2,0,0,1-1.99-2.2l1.612-15.88a20.565,20.565,0,0,1-1.544-24.795,3.681,3.681,0,0,1-.254-.379l-.166-.288a5.105,5.105,0,0,1,1.866-6.965l2.107-1.217a5.116,5.116,0,0,1,1.463-.544l1.342-13.212a16.863,16.863,0,0,1,16.76-15.025H205.6a16.86,16.86,0,0,1,16.758,15l6.418,63.3a2,2,0,0,1-1.99,2.2Zm-43-45.543.039.068,4.013-2.315-.041-.07a1.1,1.1,0,0,0-.953-.549,1.1,1.1,0,0,0-.548.147l-2.107,1.217A1.1,1.1,0,0,0,183.794,158.459ZM224.577,200l-6.193-61.078A12.856,12.856,0,0,0,205.6,127.5h-1.736a12.862,12.862,0,0,0-12.783,11.449l-1.375,13.545a5.064,5.064,0,0,1,1.56,1.654l.11.191a3.864,3.864,0,0,1-1.413,5.271h0l-4.35,2.511a3.761,3.761,0,0,1-.973.39,16.668,16.668,0,0,0,1.185,21.4c.016.017.026.036.041.053a2.1,2.1,0,0,1,.127.167c.036.052.074.1.1.156s.056.114.083.172.055.12.076.182a1.848,1.848,0,0,1,.047.181,1.909,1.909,0,0,1,.04.2c.008.059.009.12.012.181s0,.143,0,.215c0,.022,0,.043,0,.066L184.885,200h9.3a2,2,0,0,1,1.99,1.8l2.7,27.19h1.4V202a2,2,0,0,1,2-2h5.217a2,2,0,0,1,2,2V229h1.109l2.7-27.19a2,2,0,0,1,1.99-1.8Z"/>
  </g>
</svg>
