<svg xmlns="http://www.w3.org/2000/svg" xmlns:xlink="http://www.w3.org/1999/xlink" width="320" height="320" viewBox="0 0 320 320">
  <defs>
    <style>
      .cls-1 {
        fill: url(#名称未設定グラデーション_10);
      }
    </style>
    <linearGradient id="名称未設定グラデーション_10" data-name="名称未設定グラデーション 10" x1="244.772" y1="288.356" x2="107.765" y2="51.052" gradientUnits="userSpaceOnUse">
      <stop offset="0" stop-color="#5674af"/>
      <stop offset="0.159" stop-color="#4f7db4"/>
      <stop offset="0.33" stop-color="#438dbc"/>
      <stop offset="0.66" stop-color="#339fb9"/>
      <stop offset="0.994" stop-color="#24b1b4"/>
    </linearGradient>
  </defs>
  <title>welfare05</title>
  <g id="welfare05">
    <path class="cls-1" d="M96,116.667V59a2,2,0,0,1,2-2H260a2,2,0,0,1,2,2v95a2,2,0,0,1-2,2H123.667a2,2,0,0,1,0-4H258V61H100v55.667a2,2,0,0,1-4,0ZM85,138.5A13.5,13.5,0,1,1,98.5,152,13.515,13.515,0,0,1,85,138.5Zm23,0c0-.034,0-.067,0-.1a2,2,0,0,1-1.96,1.6c-3.546,0-6.634-2.038-8.529-3.659a11.856,11.856,0,0,1-2.585,3.315A1.991,1.991,0,0,1,93.8,140H90.965a2,2,0,0,1-1.96-1.6c0,.034,0,.067,0,.1a9.5,9.5,0,0,0,19,0Zm-18.929-1.115A1.994,1.994,0,0,1,90.965,136h1.97a41.633,41.633,0,0,0,2.376-3.857,2,2,0,0,1,3.289-.317c.032.038,3.557,4.174,7.435,4.174a1.994,1.994,0,0,1,1.894,1.385,9.494,9.494,0,0,0-18.858,0ZM119.183,207l-.551,11.1a2,2,0,0,1-2,1.9h-2.082l-1.92,46.083a2,2,0,0,1-2,1.917h-9a2,2,0,0,1-2-1.917L98.5,238.808l-1.137,27.275a2,2,0,0,1-2,1.917h-9a2,2,0,0,1-2-1.917L82.447,220H80.365a2,2,0,0,1-2-1.9L77.817,207H49a2,2,0,0,1-2-2V189a2,2,0,0,1,2-2H76.825L76,170.425A17.287,17.287,0,0,1,93.17,153h10.66A17.268,17.268,0,0,1,121,170.326c0,.033,0,.067,0,.1L120.175,187h8.088A8.008,8.008,0,0,1,136,181V169h-1.277A1.994,1.994,0,0,1,133,170h-4a2,2,0,0,1-2-2v-2a2,2,0,0,1,2-2h4a1.994,1.994,0,0,1,1.723,1H138a2,2,0,0,1,2,2v14a8.008,8.008,0,0,1,7.737,6H159a2,2,0,0,1,2,2v16a2,2,0,0,1-2,2Zm13.354-20h10.926A4,4,0,0,0,140,185h-4A4,4,0,0,0,132.537,187Zm-22.029-28.14c.007.017.018.031.026.047l2.446,5.709a2,2,0,0,1-.424,2.2l-3.12,3.121,1.913,4.465a2,2,0,0,1-.211,1.95L103.534,187H116.17l.83-16.722A13.351,13.351,0,0,0,110.508,158.86ZM97.6,187h1.8a1.988,1.988,0,0,1,.329-1.551l7.5-10.5-2-4.674a2,2,0,0,1,.424-2.2l3.121-3.121-1.914-4.464a1.956,1.956,0,0,1,1.335-2.716c-.389-.139-.786-.258-1.191-.36l-6.755,22.608a2,2,0,0,1-1.917,1.427h-.013a2,2,0,0,1-1.911-1.453l-6.424-22.577q-.6.151-1.174.356a1.887,1.887,0,0,1,.286.089,2,2,0,0,1,1.05,2.626l-1.914,4.464,3.121,3.121a2,2,0,0,1,.424,2.2l-2,4.674,7.5,10.5A1.988,1.988,0,0,1,97.6,187Zm.774-14.7,4.571-15.3H94.023ZM80.828,187H93.466l-7.6-10.646a2,2,0,0,1-.211-1.95l1.913-4.465-3.12-3.121a2,2,0,0,1-.424-2.2l2.446-5.709c.008-.016.019-.03.026-.047A13.351,13.351,0,0,0,80,170.326ZM51,203H157V191H51Zm64.178,4H81.822l.447,9h2.1a2,2,0,0,1,2,1.917L88.284,264h5.163l1.92-46.083a2,2,0,0,1,2-1.917h2.27a2,2,0,0,1,2,1.917L103.553,264h5.163l1.921-46.083a2,2,0,0,1,2-1.917h2.1ZM153.172,98.945a6.334,6.334,0,0,0,1.009-1.2,7.128,7.128,0,0,0-.5-1.521c-.5-1.273-1.131-2.856-.484-4.416.656-1.581,2.235-2.262,3.5-2.809a6.264,6.264,0,0,0,1.416-.735,7.146,7.146,0,0,0,.122-1.574c.022-1.375.049-3.085,1.251-4.287s2.913-1.229,4.287-1.252a6.21,6.21,0,0,0,1.608-.143,7.265,7.265,0,0,0,.7-1.394c.547-1.268,1.227-2.847,2.809-3.5,1.559-.644,3.144-.018,4.415.485a7.035,7.035,0,0,0,1.563.486,7.335,7.335,0,0,0,1.157-1c1-.967,2.237-2.171,3.966-2.171s2.969,1.2,3.966,2.171a6.339,6.339,0,0,0,1.2,1.01,8.423,8.423,0,0,0,1.522-.5c1.272-.5,2.855-1.129,4.416-.485,1.581.656,2.262,2.235,2.809,3.5a6.286,6.286,0,0,0,.735,1.416,7.153,7.153,0,0,0,1.573.121c1.375.023,3.086.05,4.287,1.252s1.229,2.912,1.252,4.287A6.235,6.235,0,0,0,201.9,88.3a7.194,7.194,0,0,0,1.393.7c1.268.547,2.848,1.228,3.5,2.81.647,1.56.02,3.143-.484,4.416a6.137,6.137,0,0,0-.486,1.562,7.38,7.38,0,0,0,1,1.157c.967,1,2.171,2.238,2.171,3.966s-1.2,2.97-2.172,3.967a6.333,6.333,0,0,0-1.009,1.2,7.133,7.133,0,0,0,.5,1.522c.5,1.272,1.131,2.855.484,4.416-.656,1.581-2.235,2.261-3.5,2.808a6.221,6.221,0,0,0-1.416.736,7.136,7.136,0,0,0-.122,1.573,6.077,6.077,0,0,1-1.119,4.13l5.339,9.247a2,2,0,0,1-1.8,3l-7.648-.268L192.936,142a2,2,0,0,1-1.731,1.062h-.036a2,2,0,0,1-1.731-1l-6.547-11.339A4.541,4.541,0,0,1,180,131.912a4.312,4.312,0,0,1-2.6-.964l-6.414,11.109a2,2,0,0,1-1.732,1h-.035A2,2,0,0,1,167.492,142l-3.592-6.756-7.648.268a1.975,1.975,0,0,1-1.784-.969,2,2,0,0,1-.017-2.03l5.181-8.974c-.045-.041-.094-.072-.138-.116-1.2-1.2-1.229-2.912-1.252-4.287a6.243,6.243,0,0,0-.144-1.608,7.194,7.194,0,0,0-1.393-.7c-1.268-.547-2.848-1.227-3.5-2.809-.647-1.561-.02-3.144.484-4.416a6.142,6.142,0,0,0,.486-1.563,7.336,7.336,0,0,0-1-1.156c-.967-1-2.171-2.237-2.171-3.966S152.2,99.942,153.172,98.945ZM173.91,129c-.213.078-.425.158-.6.226-1.272.5-2.855,1.131-4.416.484-1.581-.655-2.262-2.234-2.809-3.5a6.286,6.286,0,0,0-.735-1.416,7.22,7.22,0,0,0-1.574-.121l-.183,0-3.878,6.718,5.291-.186h.07a2,2,0,0,1,1.766,1.062l2.485,4.674Zm26.8,2.383-3.884-6.728c-.207.007-.411.012-.606.015a6.254,6.254,0,0,0-1.608.143,7.265,7.265,0,0,0-.7,1.394c-.547,1.269-1.227,2.848-2.809,3.5-1.559.647-3.143.021-4.415-.484l-.049-.019,4.46,7.725,2.485-4.674a1.981,1.981,0,0,1,1.836-1.061Zm-45.683-28.471a7.977,7.977,0,0,0,1.016,1.181,6.612,6.612,0,0,1,2.056,3.179,6.762,6.762,0,0,1-.693,3.8,7.881,7.881,0,0,0-.476,1.438,12.525,12.525,0,0,0,1.359.641,5.193,5.193,0,0,1,3.954,5.918,8.565,8.565,0,0,0,.105,1.5,8.656,8.656,0,0,0,1.5.106,5.192,5.192,0,0,1,5.918,3.953,8.389,8.389,0,0,0,.675,1.356,8.646,8.646,0,0,0,1.4-.472,8.335,8.335,0,0,1,3.017-.769,4.087,4.087,0,0,1,.78.075,6.61,6.61,0,0,1,3.18,2.057A8.037,8.037,0,0,0,180,127.886a8.037,8.037,0,0,0,1.181-1.016,6.611,6.611,0,0,1,3.179-2.057,6.8,6.8,0,0,1,3.8.694,7.863,7.863,0,0,0,1.437.475,12.471,12.471,0,0,0,.642-1.358,5.19,5.19,0,0,1,5.918-3.954,8.45,8.45,0,0,0,1.5-.106,8.443,8.443,0,0,0,.106-1.5,5.194,5.194,0,0,1,3.954-5.919,8.337,8.337,0,0,0,1.355-.674,8.654,8.654,0,0,0-.472-1.405,6.762,6.762,0,0,1-.693-3.8,6.617,6.617,0,0,1,2.056-3.179,7.877,7.877,0,0,0,1.016-1.181,7.918,7.918,0,0,0-1.016-1.181,6.613,6.613,0,0,1-2.056-3.18,6.766,6.766,0,0,1,.693-3.8,7.881,7.881,0,0,0,.476-1.438,12.525,12.525,0,0,0-1.359-.641,6.692,6.692,0,0,1-3.144-2.166,6.717,6.717,0,0,1-.81-3.752,8.45,8.45,0,0,0-.106-1.5,8.539,8.539,0,0,0-1.5-.107,5.192,5.192,0,0,1-5.918-3.953,8.335,8.335,0,0,0-.675-1.355,8.635,8.635,0,0,0-1.4.471,6.756,6.756,0,0,1-3.8.694,6.62,6.62,0,0,1-3.18-2.056A7.977,7.977,0,0,0,180,77.938a7.977,7.977,0,0,0-1.181,1.016,6.622,6.622,0,0,1-3.179,2.056,6.761,6.761,0,0,1-3.8-.694,7.863,7.863,0,0,0-1.437-.475,12.471,12.471,0,0,0-.642,1.358,5.19,5.19,0,0,1-5.918,3.954,8.45,8.45,0,0,0-1.5.106,8.45,8.45,0,0,0-.106,1.5,6.71,6.71,0,0,1-.81,3.753,6.692,6.692,0,0,1-3.144,2.166,8.336,8.336,0,0,0-1.355.675,8.646,8.646,0,0,0,.472,1.4,6.766,6.766,0,0,1,.693,3.8,6.617,6.617,0,0,1-2.056,3.179A7.93,7.93,0,0,0,155.026,102.912Zm10.1-2.581a2,2,0,0,1,1.108-3.412l8.276-1.2,3.7-7.5a2,2,0,0,1,3.586,0l3.7,7.5,8.276,1.2a2,2,0,0,1,1.108,3.412l-5.988,5.837,1.414,8.242a2,2,0,0,1-2.9,2.109l-7.4-3.892-7.4,3.892a2,2,0,0,1-2.9-2.109l1.414-8.242Zm5.693-.036,3.84,3.742a2,2,0,0,1,.575,1.771l-.906,5.284,4.745-2.5a2,2,0,0,1,1.862,0l4.745,2.5-.906-5.284a2,2,0,0,1,.575-1.771l3.84-3.742-5.307-.771a2,2,0,0,1-1.5-1.094L180,93.623l-2.373,4.807a2,2,0,0,1-1.5,1.094ZM273,270.9a2,2,0,0,1-4,0A18.925,18.925,0,0,0,250.1,252H248.9A18.925,18.925,0,0,0,230,270.9a2,2,0,0,1-4,0A18.925,18.925,0,0,0,207.1,252H205.9A18.925,18.925,0,0,0,187,270.9a2,2,0,0,1-4,0A18.925,18.925,0,0,0,164.1,252H162.9A18.925,18.925,0,0,0,144,270.9a2,2,0,0,1-4,0,22.941,22.941,0,0,1,16.384-21.952,13.5,13.5,0,1,1,14.232,0A23.008,23.008,0,0,1,185,261.545a23.008,23.008,0,0,1,14.384-12.594,13.5,13.5,0,1,1,14.232,0A23.008,23.008,0,0,1,228,261.545a23.008,23.008,0,0,1,14.384-12.594,13.5,13.5,0,1,1,14.232,0A22.941,22.941,0,0,1,273,270.9ZM154,237.5a9.5,9.5,0,1,0,9.5-9.5A9.511,9.511,0,0,0,154,237.5Zm43,0a9.5,9.5,0,1,0,9.5-9.5A9.511,9.511,0,0,0,197,237.5Zm43,0a9.5,9.5,0,1,0,9.5-9.5A9.511,9.511,0,0,0,240,237.5Z"/>
  </g>
</svg>
