<svg xmlns="http://www.w3.org/2000/svg" xmlns:xlink="http://www.w3.org/1999/xlink" width="320" height="320" viewBox="0 0 320 320">
  <defs>
    <style>
      .cls-1 {
        fill: url(#名称未設定グラデーション_10);
      }
    </style>
    <linearGradient id="名称未設定グラデーション_10" data-name="名称未設定グラデーション 10" x1="232.286" y1="291.043" x2="89.261" y2="43.316" gradientUnits="userSpaceOnUse">
      <stop offset="0" stop-color="#5674af"/>
      <stop offset="0.159" stop-color="#4f7db4"/>
      <stop offset="0.33" stop-color="#438dbc"/>
      <stop offset="0.66" stop-color="#339fb9"/>
      <stop offset="0.994" stop-color="#24b1b4"/>
    </linearGradient>
  </defs>
  <title>welfare04</title>
  <g id="welfare04">
    <path class="cls-1" d="M64.39,194.853a2,2,0,0,1,3.818-1.194q.291.933.6,1.859a2,2,0,1,1-3.792,1.273Q64.694,195.825,64.39,194.853Zm12.855-82.629a2,2,0,0,0,2.775-.549q.54-.808,1.1-1.606a2,2,0,0,0-3.279-2.291q-.579.829-1.143,1.671A2,2,0,0,0,77.245,112.224Zm-4.091,98.542a2,2,0,0,0-.776,2.72q.495.888,1,1.765a2,2,0,1,0,3.456-2.014c-.327-.561-.649-1.128-.965-1.7A2,2,0,0,0,73.154,210.766Zm37.565,36.7q-.835-.5-1.659-1.013a2,2,0,0,0-2.118,3.395q.858.534,1.727,1.053a2,2,0,0,0,2.05-3.435Zm4.34-167.628a1.99,1.99,0,0,0,.914-.222q.865-.447,1.743-.875a2,2,0,1,0-1.757-3.594q-.914.447-1.817.913a2,2,0,0,0,.917,3.778ZM103.042,244.866a2,2,0,0,1-2.8.413l-.045-.034a8.814,8.814,0,0,1-.931,1.1L73.882,271.729a4.849,4.849,0,0,1-3.448,1.427h-.017a4.881,4.881,0,0,1-3.458-1.44L48.441,253.2a4.895,4.895,0,0,1-.014-6.923l25.386-25.385a8.464,8.464,0,0,1,5.3-2.406,5.509,5.509,0,0,1,5.459-6.089,5.413,5.413,0,0,1,3.519,1.317c3.188-2.908,7.029-3.481,11.692-1.727l.434-.433a5.883,5.883,0,0,1,8.12-.274,5.686,5.686,0,0,1,1.854,4.119,6.141,6.141,0,0,1-1.789,4.473l-.366.367c1.787,4.72,1.244,8.583-1.648,11.762a5.454,5.454,0,0,1-.224,7.452,5.549,5.549,0,0,1-3.933,1.643c-.155,0-.308-.031-.463-.045-.01.113-.021.226-.036.339.3.228.6.458.9.682A2,2,0,0,1,103.042,244.866Zm-12.076-28.34,12.594,12.6c1.885-2.21,1.978-4.8.292-8.53a2,2,0,0,1,.408-2.238l1.312-1.313a2.129,2.129,0,0,0,.619-1.551,1.737,1.737,0,0,0-.546-1.252,1.868,1.868,0,0,0-2.6.141l-1.379,1.379a2,2,0,0,1-2.238.408C95.758,214.508,93.189,214.621,90.966,216.526Zm-7.911,1.382a1.455,1.455,0,0,0,.429,1.035l17.728,17.729a1.5,1.5,0,0,0,2.122-2.121L85.605,216.822a1.463,1.463,0,0,0-2.07,0A1.506,1.506,0,0,0,83.055,217.908ZM97.374,238.49,81.8,222.92a4.5,4.5,0,0,0-5.162.8L51.255,249.1a.9.9,0,0,0,.014,1.266l18.519,18.519a.912.912,0,0,0,.642.269.875.875,0,0,0,.624-.256L96.44,243.515A4.372,4.372,0,0,0,97.374,238.49ZM70.614,124.4a2,2,0,0,0-2.629,1.044q-.4.927-.782,1.865a2,2,0,1,0,3.7,1.507q.366-.9.75-1.788A2,2,0,0,0,70.614,124.4Zm184.334,8.7a2,2,0,0,0-3.791,1.278q.312.923.6,1.856a2,2,0,1,0,3.817-1.2Q255.274,134.072,254.948,133.106Zm2.738,9.77a2,2,0,1,0-3.9.883q.214.948.409,1.9a2,2,0,0,0,1.958,1.6,2.052,2.052,0,0,0,.4-.04,2,2,0,0,0,1.559-2.361Q257.909,143.864,257.686,142.876Zm-2.246,10.469q.117.965.214,1.935a2,2,0,0,0,1.988,1.8,1.979,1.979,0,0,0,.2-.01,2,2,0,0,0,1.79-2.19q-.1-1.011-.223-2.016a2,2,0,1,0-3.971.481Zm-8.875-38.687a2,2,0,0,0-3.456,2.014q.492.843.967,1.7a2,2,0,1,0,3.494-1.947Q247.077,115.535,246.565,114.658Zm4.662,9.007a2,2,0,0,0-3.642,1.656q.4.888.79,1.785a2,2,0,1,0,3.675-1.58Q251.648,124.59,251.227,123.665ZM75.183,115.59a2,2,0,0,0-2.722.773q-.492.883-.966,1.776a2,2,0,0,0,3.531,1.879q.458-.86.93-1.707A2,2,0,0,0,75.183,115.59ZM60.376,154.772q-.1,1.008-.184,2.02a2,2,0,0,0,1.831,2.155c.056,0,.11.007.165.007a2,2,0,0,0,1.991-1.838c.052-.647.112-1.3.177-1.939a2,2,0,1,0-3.98-.405Zm58.932,97.246q-.88-.411-1.751-.838a2,2,0,0,0-1.764,3.59q.907.444,1.824.873a2,2,0,0,0,1.691-3.625ZM62.8,178.776a2,2,0,0,0,1.748-2.223c-.077-.645-.148-1.289-.212-1.936a2,2,0,1,0-3.98.4q.1,1.011.221,2.015a2,2,0,0,0,1.983,1.763A2.174,2.174,0,0,0,62.8,178.776Zm-.508,8.242a2,2,0,0,0,3.9-.875q-.213-.951-.408-1.906a2,2,0,0,0-3.92.8Q62.069,186.03,62.291,187.018Zm-2.413-20.1a2,2,0,0,0,2,1.963h.039a2,2,0,0,0,1.961-2.037c-.011-.615-.017-1.23-.017-1.818V164.9a1.956,1.956,0,0,0-2-1.948,2.046,2.046,0,0,0-2,2.052Q59.86,165.963,59.878,166.92Zm2.032-22.166q-.205.992-.389,1.991a2,2,0,0,0,1.6,2.329,1.974,1.974,0,0,0,.365.033,2,2,0,0,0,1.964-1.637q.177-.959.373-1.911a2,2,0,1,0-3.918-.805Zm2.545-9.813q-.3.966-.59,1.942A2,2,0,1,0,67.705,138q.273-.934.565-1.861a2,2,0,0,0-3.815-1.2Zm4.274,71.3a2,2,0,0,0,3.643-1.652q-.4-.887-.788-1.785a2,2,0,0,0-3.676,1.576Q68.31,205.312,68.729,206.237ZM124.848,75.606q.909-.355,1.828-.695a2,2,0,1,0-1.385-3.752q-.956.353-1.9.723a2,2,0,1,0,1.458,3.724Zm70.208,178.825q-.91.355-1.827.692a2,2,0,1,0,1.38,3.754q.956-.351,1.9-.722a2,2,0,1,0-1.457-3.724Zm64.557-79.1q.1-1.008.186-2.019a2,2,0,1,0-3.986-.33q-.081.973-.18,1.941a2,2,0,0,0,1.786,2.193,1.8,1.8,0,0,0,.206.011A2,2,0,0,0,259.613,175.334Zm-1.544,10.016q.205-.992.39-1.989a2,2,0,0,0-3.932-.732q-.178.96-.375,1.912a2,2,0,0,0,1.554,2.363,1.942,1.942,0,0,0,.406.041A2,2,0,0,0,258.069,185.35ZM260.14,165q0-1.017-.021-2.027a2,2,0,1,0-4,.08q.019.97.02,1.947v.209a2,2,0,0,0,4,0Zm-15.376,49.5a2,2,0,0,0,2.722-.769q.494-.882.97-1.776a2,2,0,0,0-3.531-1.881q-.456.859-.93,1.7A2,2,0,0,0,244.764,214.5Zm8.843-17.94a2,2,0,0,0,1.907-1.4q.3-.965.591-1.94a2,2,0,1,0-3.838-1.129q-.276.938-.568,1.864a2,2,0,0,0,1.908,2.6Zm-4.264,9.134a2,2,0,0,0,2.63-1.042q.4-.927.783-1.864a2,2,0,0,0-3.7-1.512q-.368.9-.752,1.788A2,2,0,0,0,249.343,205.693ZM143.236,70.421a1.991,1.991,0,0,0,.342-.029q.957-.165,1.92-.31a2,2,0,1,0-.595-3.955q-1,.151-2,.323a2,2,0,0,0,.337,3.971Zm3.99,189.742q-.968-.129-1.928-.275a2,2,0,0,0-.6,3.955q1,.151,2.008.285a1.963,1.963,0,0,0,.264.018,2,2,0,0,0,.259-3.983Zm9.7.789q-.975-.03-1.944-.08a2,2,0,1,0-.207,3.994q1.011.053,2.028.084h.063a2,2,0,0,0,.06-4ZM153.1,69.237c.047,0,.094,0,.141,0q.967-.066,1.942-.114a2,2,0,0,0-.194-4q-1.016.05-2.026.12a2,2,0,0,0,.137,3.995Zm38.488,5.052q.921.319,1.832.656a2,2,0,1,0,1.388-3.752q-.951-.351-1.911-.683a2,2,0,1,0-1.309,3.779ZM137.658,258.4q-.949-.224-1.889-.468a2,2,0,0,0-1,3.873q.981.253,1.969.488a2.06,2.06,0,0,0,.464.054,2,2,0,0,0,.46-3.947ZM133.545,72.594a2.071,2.071,0,0,0,.536-.073q.938-.261,1.883-.5a2,2,0,0,0-1-3.875q-.983.254-1.957.522a2,2,0,0,0,.533,3.929Zm-5.228,183.082q-.92-.321-1.831-.658a2,2,0,0,0-1.393,3.75q.951.353,1.91.685a2,2,0,1,0,1.314-3.777Zm53.926-184.1q.948.225,1.889.467a2,2,0,1,0,1-3.873q-.981-.253-1.97-.486a2,2,0,1,0-.917,3.892Zm-5.921,188.05q-.959.163-1.924.309a2,2,0,0,0,.3,3.977,2.039,2.039,0,0,0,.3-.022q1.005-.151,2-.321a2,2,0,1,0-.673-3.943Zm9.5-2.118q-.939.258-1.884.5a2,2,0,0,0,.493,3.937,1.977,1.977,0,0,0,.5-.062q.982-.25,1.957-.521a2,2,0,1,0-1.062-3.855ZM162.97,69.044q.977.03,1.947.078l.1,0a2,2,0,0,0,.1-4c-.674-.034-1.348-.062-2.026-.082h-.062a2,2,0,0,0-.061,4Zm9.7.781q.966.126,1.926.273a2.079,2.079,0,0,0,.3.022,2,2,0,0,0,.3-3.977q-1-.153-2.011-.285a2,2,0,0,0-.517,3.967ZM166.66,260.774q-.97.066-1.946.113a2,2,0,0,0,.1,4l.1,0q1.013-.049,2.023-.118a2,2,0,1,0-.272-3.991Zm105.905-25.019A2,2,0,0,1,271,239h-6v32a2,2,0,0,1-2,2H206a2,2,0,0,1-2-2V254.87l-.057.028a2,2,0,0,1-2.673-.921,2,2,0,0,1,.921-2.674q.876-.428,1.744-.872c.021-.011.044-.016.065-.026V239h-7a2,2,0,0,1-1.565-3.245l14.315-18a2,2,0,0,1,1.566-.755h45.368a2,2,0,0,1,1.566.755ZM250,269V247H238v22Zm11-30H208v30h26V245a2,2,0,0,1,2-2h16a2,2,0,0,1,2,2v24h7Zm5.854-4-11.135-14H212.281l-11.135,14ZM214,256V246a2,2,0,0,1,2-2h10a2,2,0,0,1,2,2v10a2,2,0,0,1-2,2H216A2,2,0,0,1,214,256Zm4-2h6v-6h-6Zm-25.99-68.812a18.942,18.942,0,0,1-4.247,5.5c-.255.23-.514.455-.782.673a23.927,23.927,0,0,1-7.6,4.132c-.361.121-.728.234-1.1.342a29.851,29.851,0,0,1-5.955,1.064c-.837.066-1.7.1-2.564.1H151.335a31.371,31.371,0,0,1-13.166-2.685,24.23,24.23,0,0,1-4.357-2.565,21.524,21.524,0,0,1-2.414-2.086,18.638,18.638,0,0,1-3.537-4.905,15.964,15.964,0,0,1-1.69-7.114v-.222a18.2,18.2,0,0,1,6.157-13.7v-4.945c0-11.14,7.6-19.371,19.053-21.4a5.689,5.689,0,0,1-.036-.615,5.751,5.751,0,0,1,5.72-5.769,5.633,5.633,0,0,1,3.144.961,5.651,5.651,0,0,1,3.155-.961,5.766,5.766,0,0,1,5.679,6.452c11.25,2.137,18.684,10.309,18.684,21.329V163.8a18.178,18.178,0,0,1,3.894,4.9q.264.486.5.991a18.206,18.206,0,0,1,1.672,6.559c.024.387.037.776.037,1.171v.222a16.621,16.621,0,0,1-.118,1.969c-.039.324-.088.645-.146.966a16.835,16.835,0,0,1-1.138,3.726Q192.232,184.752,192.01,185.188Zm-30.366-48.419c0,.043.009.084.012.127h1.365c.693,0,1.372.026,2.044.066a1.719,1.719,0,1,0-3.421-.193Zm-6.3,0a1.6,1.6,0,0,0,.017.171c.551-.026,1.106-.044,1.671-.044h.62c0-.043-.009-.084-.009-.127a5.811,5.811,0,0,1,.217-1.559,1.669,1.669,0,0,0-.8-.21A1.746,1.746,0,0,0,155.345,136.769ZM136.328,161a13.724,13.724,0,0,0,3.33-2.051c.2-9.346,6.981-14.895,18.237-14.895h4.264c11.267,0,18.055,5.559,18.238,14.9a13.7,13.7,0,0,0,3.33,2.05v-2.214c0-10.7-8.321-17.885-20.706-17.885h-5.988c-12.385,0-20.7,7.187-20.7,17.885Zm53.5,16.428c0-.309-.01-.614-.029-.918h0a14.2,14.2,0,0,0-1.305-5.121q-.184-.395-.391-.775a14.391,14.391,0,0,0-6.071-5.927,6.009,6.009,0,0,1-.626-.373c-2.243-1.13-4.507-2.456-4.96-4.517a2.057,2.057,0,0,1-.046-.429c0-9.847-8.923-11.313-14.242-11.313H157.9c-5.319,0-14.242,1.466-14.242,11.286a2.254,2.254,0,0,1-.046.456c-.477,2.173-2.968,3.528-5.325,4.7-.092.054-.178.116-.274.164a14.419,14.419,0,0,0-7.837,12.77v.222a12,12,0,0,0,1.278,5.345,14.672,14.672,0,0,0,2.785,3.854,17.659,17.659,0,0,0,1.965,1.7,20.353,20.353,0,0,0,3.637,2.14,27.437,27.437,0,0,0,11.5,2.32h18.426c.76,0,1.518-.029,2.253-.087a25.792,25.792,0,0,0,5.153-.918c.315-.092.631-.189.941-.293a19.942,19.942,0,0,0,6.339-3.433c.218-.179.429-.361.635-.547a14.964,14.964,0,0,0,3.359-4.339c.113-.224.22-.45.321-.68a12.792,12.792,0,0,0,.867-2.835c.044-.24.081-.485.11-.731a12.421,12.421,0,0,0,.09-1.492ZM172,169v6a2,2,0,0,1-2,2h-5v5a2,2,0,0,1-2,2h-6a2,2,0,0,1-2-2v-5h-5a2,2,0,0,1-2-2v-6a2,2,0,0,1,2-2h5v-5a2,2,0,0,1,2-2h6a2,2,0,0,1,2,2v5h5A2,2,0,0,1,172,169Zm-4,2h-5a2,2,0,0,1-2-2v-5h-2v5a2,2,0,0,1-2,2h-5v2h5a2,2,0,0,1,2,2v5h2v-5a2,2,0,0,1,2-2h5ZM77.5,229.929a2,2,0,0,0-2.829,2.828l4.951,4.95a2,2,0,1,0,2.828-2.828ZM70.428,237a2,2,0,1,0-2.828,2.828l4.949,4.95a2,2,0,0,0,2.828-2.828Zm-7.072,7.071a2,2,0,0,0-2.828,2.828l4.95,4.95a2,2,0,1,0,2.828-2.828ZM221,65V58a2,2,0,0,1,2-2h7a2,2,0,0,1,2,2v7a2,2,0,0,1-2,2h-7A2,2,0,0,1,221,65Zm4-2h3V60h-3Zm10,2V58a2,2,0,0,1,2-2h7a2,2,0,0,1,2,2v7a2,2,0,0,1-2,2h-7A2,2,0,0,1,235,65Zm4-2h3V60h-3ZM221,79V72a2,2,0,0,1,2-2h7a2,2,0,0,1,2,2v7a2,2,0,0,1-2,2h-7A2,2,0,0,1,221,79Zm4-2h3V74h-3Zm10,2V72a2,2,0,0,1,2-2h7a2,2,0,0,1,2,2v7a2,2,0,0,1-2,2h-7A2,2,0,0,1,235,79Zm4-2h3V74h-3ZM221,93V86a2,2,0,0,1,2-2h7a2,2,0,0,1,2,2v7a2,2,0,0,1-2,2h-7A2,2,0,0,1,221,93Zm4-2h3V88h-3Zm10,2V86a2,2,0,0,1,2-2h7a2,2,0,0,1,2,2v7a2,2,0,0,1-2,2h-7A2,2,0,0,1,235,93Zm4-2h3V88h-3Zm-42,17h2V75a2,2,0,0,1,2-2h11V50a2,2,0,0,1,2-2h39a2,2,0,0,1,2,2V81h12a2,2,0,0,1,2,2v25h2a2,2,0,0,1,0,4H197a2,2,0,0,1,0-4Zm58-23v23h10V85ZM216,75v33h35V52H216Zm-13,33h9V77h-9Zm-90-2h-1v3a5.006,5.006,0,0,1-5,5h-2a5.006,5.006,0,0,1-5-5v-3H65v3a5.006,5.006,0,0,1-5,5H58a5.006,5.006,0,0,1-5-5v-3H52a5.009,5.009,0,0,1-5-5.01V89.5a10.044,10.044,0,0,1,6.637-9.411l3.315-14.112a10.972,10.972,0,0,1,10.716-8.484H98.056a10.972,10.972,0,0,1,10.716,8.481l3.395,14.441A9.961,9.961,0,0,1,118,89.5v11.493A5.009,5.009,0,0,1,113,106Zm-61-4h2.959c.013,0,.026,0,.039,0h8c.013,0,.026,0,.039,0h38.922c.013,0,.026,0,.039,0h8c.013,0,.026,0,.039,0H113a1,1,0,0,0,1-1.01V89.5a5.982,5.982,0,0,0-4.153-5.712l-.017-.007a2.039,2.039,0,0,1-.342-.15c-.026-.014-.049-.033-.075-.049a2.054,2.054,0,0,1-.224-.158c-.034-.028-.065-.059-.1-.09a1.825,1.825,0,0,1-.161-.168c-.029-.035-.056-.07-.083-.107a1.952,1.952,0,0,1-.124-.2c-.023-.04-.045-.079-.064-.12a1.818,1.818,0,0,1-.083-.209c-.017-.047-.034-.093-.047-.141,0-.018-.012-.034-.016-.051l-3.633-15.451a6.987,6.987,0,0,0-6.823-5.4H67.673a6.988,6.988,0,0,0-6.823,5.4l-3.58,15.24c-.01.042-.029.079-.041.12a2.1,2.1,0,0,1-.076.219c-.024.055-.054.107-.083.159s-.066.121-.1.179-.072.092-.109.137-.092.11-.144.161c-.037.036-.077.067-.117.1a2.046,2.046,0,0,1-.189.144c-.04.025-.082.046-.124.069a1.835,1.835,0,0,1-.218.107c-.051.021-.1.034-.157.051s-.109.041-.168.054A6.018,6.018,0,0,0,51.005,89.5v11.493A1,1,0,0,0,52,102Zm9,4H57v3a1,1,0,0,0,1,1h2a1,1,0,0,0,1-1Zm47,0h-4v3a1,1,0,0,0,1,1h2a1,1,0,0,0,1-1ZM62.925,81.837a2,2,0,0,1-.366-1.712L65.432,68.5A5.47,5.47,0,0,1,70.8,64.4H94.2a5.47,5.47,0,0,1,5.369,4.1l2.873,11.625A2,2,0,0,1,100.5,82.6h-36A2,2,0,0,1,62.925,81.837Zm4.13-3.233h30.89l-2.26-9.145A1.5,1.5,0,0,0,94.2,68.4H70.8a1.5,1.5,0,0,0-1.486,1.063ZM53,91.5A6.5,6.5,0,1,1,59.5,98,6.508,6.508,0,0,1,53,91.5Zm4,0A2.5,2.5,0,1,0,59.5,89,2.5,2.5,0,0,0,57,91.5ZM105.5,85A6.5,6.5,0,1,1,99,91.5,6.508,6.508,0,0,1,105.5,85ZM103,91.5a2.5,2.5,0,1,0,2.5-2.5A2.5,2.5,0,0,0,103,91.5Z"/>
  </g>
</svg>
