<svg xmlns="http://www.w3.org/2000/svg" xmlns:xlink="http://www.w3.org/1999/xlink" width="320" height="320" viewBox="0 0 320 320">
  <defs>
    <style>
      .cls-1 {
        fill: url(#名称未設定グラデーション_10);
      }
    </style>
    <linearGradient id="名称未設定グラデーション_10" data-name="名称未設定グラデーション 10" x1="217.189" y1="295.618" x2="93.759" y2="81.831" gradientUnits="userSpaceOnUse">
      <stop offset="0" stop-color="#5674af"/>
      <stop offset="0.159" stop-color="#4f7db4"/>
      <stop offset="0.33" stop-color="#438dbc"/>
      <stop offset="0.66" stop-color="#339fb9"/>
      <stop offset="0.994" stop-color="#24b1b4"/>
    </linearGradient>
  </defs>
  <title>welfare01</title>
  <g id="welfare01">
    <path class="cls-1" d="M105.945,89.4a2,2,0,0,1,.56-2.772q.84-.558,1.7-1.1a2,2,0,1,1,2.136,3.381q-.817.517-1.621,1.05a2,2,0,0,1-2.772-.56Zm19.218-8.1a1.985,1.985,0,0,0,.712-.133q.9-.344,1.813-.669a2,2,0,0,0-1.344-3.768q-.952.341-1.895.7a2,2,0,0,0,.714,3.869ZM99.723,96.236a1.994,1.994,0,0,0,1.3-.478q.732-.624,1.482-1.233a2,2,0,1,0-2.521-3.105c-.525.427-1.044.857-1.557,1.3a2,2,0,0,0,1.3,3.521Zm16.416-10.922a2,2,0,0,0,.908-.218q.86-.44,1.732-.862a2,2,0,1,0-1.745-3.6q-.91.441-1.806.9a2,2,0,0,0,.911,3.781Zm16.491-8.521a2,2,0,0,1,1.389-2.436c-.007-.251-.019-.5-.019-.754a26,26,0,1,1,52,0c0,.255-.012.508-.019.761a1.981,1.981,0,0,1-.4,3.866,25.993,25.993,0,0,1-51.153.028A1.989,1.989,0,0,1,132.63,76.793ZM138,73.6a22,22,0,1,0,22-22A22.025,22.025,0,0,0,138,73.6ZM92.624,103.1a2,2,0,0,0,1.48-.655q.645-.71,1.313-1.406a2,2,0,0,0-2.889-2.767q-.7.734-1.383,1.482a2,2,0,0,0,1.479,3.346ZM80.615,119.137a2,2,0,0,0,2.677-.912q.421-.858.87-1.7a2,2,0,1,0-3.537-1.87q-.474.9-.922,1.808A2,2,0,0,0,80.615,119.137Zm4.739-8.658a2,2,0,0,0,2.781-.515q.544-.789,1.111-1.568a2,2,0,0,0-3.233-2.355q-.6.822-1.174,1.657A2,2,0,0,0,85.354,110.479Zm146.481-.558a2,2,0,1,0,3.293-2.272q-.576-.835-1.178-1.66a2,2,0,1,0-3.23,2.36Q231.29,109.128,231.835,109.921Zm4.852,8.262a2,2,0,1,0,3.59-1.766q-.45-.913-.928-1.815a2,2,0,1,0-3.535,1.873Q236.264,117.323,236.687,118.183ZM225.856,102.4a2,2,0,1,0,2.953-2.7q-.682-.747-1.385-1.479a2,2,0,1,0-2.883,2.771Q225.209,101.689,225.856,102.4Zm-33.6-21.915q.912.326,1.813.668a2,2,0,1,0,1.426-3.736q-.942-.36-1.9-.7a2,2,0,0,0-1.343,3.767Zm25.2,14q.75.608,1.48,1.23a2,2,0,1,0,2.6-3.043q-.771-.659-1.561-1.3a2,2,0,1,0-2.515,3.109ZM201.166,84.208q.873.422,1.73.859a2,2,0,1,0,1.819-3.562q-.9-.459-1.81-.9a2,2,0,1,0-1.739,3.6Zm8.444,4.673q.817.516,1.621,1.047a2,2,0,1,0,2.209-3.334q-.841-.558-1.7-1.1a2,2,0,1,0-2.131,3.385ZM73,175.987a25.987,25.987,0,1,1,3.469-51.739c.032-.093.061-.187.093-.28a1.995,1.995,0,0,1,3.827,1.109A25.989,25.989,0,0,1,73,175.987Zm-15.557-10.43a21.989,21.989,0,1,0,0-31.114A22.028,22.028,0,0,0,57.443,165.557ZM273,150a26,26,0,1,1-33.394-24.923,1.995,1.995,0,0,1,3.816-1.154c.037.105.069.211.1.316A25.958,25.958,0,0,1,273,150Zm-4,0a22,22,0,1,0-22,22A22.025,22.025,0,0,0,269,150ZM134,164.5v-9a2,2,0,0,1,2-2h9a2,2,0,0,1,2,2v9a2,2,0,0,1-2,2h-9A2,2,0,0,1,134,164.5Zm4-2h5v-5h-5Zm11,2v-9a2,2,0,0,1,2-2h9a2,2,0,0,1,2,2v9a2,2,0,0,1-2,2h-9A2,2,0,0,1,149,164.5Zm4-2h5v-5h-5Zm-8,39v-9a2,2,0,0,1,2-2h9a2,2,0,0,1,2,2v9a2,2,0,0,1-2,2h-9A2,2,0,0,1,145,201.5Zm4-2h5v-5h-5Zm-19,2v-9a2,2,0,0,1,2-2h9a2,2,0,0,1,2,2v9a2,2,0,0,1-2,2h-9A2,2,0,0,1,130,201.5Zm4-2h5v-5h-5Zm-5.931-67.286a2,2,0,0,1,1.531-.714h60.8a2,2,0,0,1,1.531.714l12.6,15A2,2,0,0,1,203,150.5h-8v18h5.053a2,2,0,0,1,1.6.805l8.948,12A2,2,0,0,1,209,184.5h-7v30a2,2,0,0,1-2,2H120a2,2,0,0,1-2-2v-30h-7a2,2,0,0,1-1.6-3.195l8.948-12a2,2,0,0,1,1.6-.805H125v-18h-8a2,2,0,0,1-1.531-3.286ZM183,212.5v-19H172v19Zm15-28H122v28h46v-21a2,2,0,0,1,2-2h15a2,2,0,0,1,2,2v21h11Zm1.049-12h-78.1l-5.965,8h90.028ZM191,150.5H129v18h62Zm-69.708-4h77.416l-9.24-11H130.532ZM228.079,263h-136a2,2,0,0,0,0,4h136a2,2,0,0,0,0-4Zm-162,2a2,2,0,0,0-2-2H62.75l2.243-2.243a2,2,0,1,0-2.828-2.828l-5.658,5.657a2,2,0,0,0,0,2.828l5.658,5.657a2,2,0,1,0,2.828-2.828L62.75,267h1.329A2,2,0,0,0,66.079,265Zm8-2h-2a2,2,0,0,0,0,4h2a2,2,0,1,0,0-4Zm10,0h-2a2,2,0,0,0,0,4h2a2,2,0,1,0,0-4Zm153.842,0h-2a2,2,0,0,0,0,4h2a2,2,0,0,0,0-4Zm10,0h-2a2,2,0,0,0,0,4h2a2,2,0,1,0,0-4Zm9.914-5.071a2,2,0,1,0-2.828,2.828L257.25,263h-1.329a2,2,0,0,0,0,4h1.329l-2.243,2.243a2,2,0,1,0,2.828,2.828l5.658-5.657a2,2,0,0,0,0-2.828ZM180,201a2,2,0,1,0,2,2A2,2,0,0,0,180,201Zm69-51.828V137.25a2,2,0,0,0-4,0V150a2,2,0,0,0,.586,1.414l7.071,7.071a2,2,0,1,0,2.828-2.828ZM160,75.6h10a2,2,0,0,0,0-4h-8v-11a2,2,0,0,0-4,0v13A2,2,0,0,0,160,75.6ZM75,162V150a2,2,0,0,0-.586-1.414l-7.071-7.071a2,2,0,1,0-2.828,2.828L71,150.828V162a2,2,0,0,0,4,0Zm42.735,72.58a.619.619,0,0,1,.837.433l.782,2.078c.109.324.028.621-.512.782-1.269.405-4.859,1.648-5.426,4.428a7.761,7.761,0,0,1,2.564-.54c2.539,0,5.373,1.862,5.373,5.857a6.216,6.216,0,0,1-6.182,6.181c-4.184,0-6.505-3.131-6.505-7.342C108.666,238.521,115.414,235.31,117.735,234.58Zm-2.618,15.494a2.605,2.605,0,1,0-2.592-2.592A2.609,2.609,0,0,0,115.117,250.074Zm19.361-14.927a.529.529,0,0,1,.512-.512h3a.53.53,0,0,1,.513.512v7.936a5.739,5.739,0,0,1,2.511-.621c3.4,0,5.155,2.673,5.155,5.669v4.886a.531.531,0,0,1-.513.512h-2.861a.512.512,0,0,1-.513-.512v-4.94a1.989,1.989,0,0,0-1.97-2.133c-.865,0-1.809.487-1.809,2.133v4.94c0,.35-.135.512-.594.512H134.99a.53.53,0,0,1-.512-.512Zm22.867,7.315a5.669,5.669,0,1,1-5.615,5.642A5.686,5.686,0,0,1,157.345,242.462Zm0,7.855a2.174,2.174,0,0,0,2.133-2.213,2.133,2.133,0,1,0-4.266,0A2.173,2.173,0,0,0,157.345,250.317Zm10.693-7.072a.513.513,0,0,1,.513-.513h2.888a.513.513,0,0,1,.513.513v4.993a1.852,1.852,0,0,0,1.728,2.079A1.765,1.765,0,0,0,175.3,248.4v-5.155c0-.432.3-.513.567-.513h2.753a.513.513,0,0,1,.513.513v9.772a.531.531,0,0,1-.513.512h-1.268a.589.589,0,0,1-.513-.378l-.405-1a4.6,4.6,0,0,1-3.644,1.647c-3.213,0-4.751-2.591-4.751-5.668Zm17.253,0a.512.512,0,0,1,.513-.513h1.268a.491.491,0,0,1,.486.324l.486,1.188a3.722,3.722,0,0,1,2.942-1.782c1.485,0,2.537.54,2.16,1.161l-1.323,2.159a.459.459,0,0,1-.594.243,1.97,1.97,0,0,0-.648-.134,1.434,1.434,0,0,0-1.431,1.538v5.588c0,.324-.162.512-.593.512H185.8a.53.53,0,0,1-.513-.512Zm13.067,9.1.946-1.863a.463.463,0,0,1,.566-.216,5.969,5.969,0,0,0,2.43.7.474.474,0,0,0,.512-.486c0-.27-.162-.648-1.539-1.133-2.1-.73-3.022-1.944-3.022-3.617,0-1.809,1.295-3.267,4.211-3.267a7.143,7.143,0,0,1,3.59.837c.242.162.431.405.269.675l-1,1.836a.475.475,0,0,1-.566.162,6.209,6.209,0,0,0-2.294-.621c-.352,0-.595.081-.595.378,0,.269.3.54,1.215.863,2.187.756,3.7,1.62,3.7,3.779,0,1.89-1.511,3.428-4.561,3.428a6.488,6.488,0,0,1-3.671-.891C198.358,252.746,198.224,252.585,198.358,252.342Z"/>
  </g>
</svg>
