<svg xmlns="http://www.w3.org/2000/svg" xmlns:xlink="http://www.w3.org/1999/xlink" width="58.14" height="13.58" viewBox="0 0 58.14 13.58"><defs><style>.cls-1{fill:url(#名称未設定グラデーション_3);}</style><linearGradient id="名称未設定グラデーション_3" x1="44.04" y1="25.04" x2="12.57" y2="-6.43" gradientUnits="userSpaceOnUse"><stop offset="0" stop-color="#5674af"/><stop offset="0.33" stop-color="#438dbc"/><stop offset="0.68" stop-color="#339fb9"/><stop offset="1" stop-color="#24b1b4"/></linearGradient></defs><title>ttl-headline0</title><g id="レイヤー_2" data-name="レイヤー 2"><g id="レイヤー_1-2" data-name="レイヤー 1"><path class="cls-1" d="M9.82,8.49c0,.17,0,.27-.23.23a4.79,4.79,0,0,0-1.17-.06C7.7,10,7,11.53,6.28,13.11c-.09.21-.24.23-.36,0-.29-.42-.48-1-.06-2.31a19.39,19.39,0,0,1,.88-2c-1.53.19-3.15.47-4.14.47C2,10.59,1.3,12,.69,13.38c-.08.21-.25.27-.38.08-.31-.44-.46-1-.1-2.31A22,22,0,0,1,1.11,9,1.34,1.34,0,0,1,.4,8.34C.27,8.09.31,8,.67,8s.61.06.88.06A76.11,76.11,0,0,1,5.71.45c.19-.26.38-.21.5,0,.32.59.25,1.61-.52,3.1C5.08,4.75,4.22,6.24,3.29,8,4.74,7.8,6,7.44,7.43,7.35A69.73,69.73,0,0,1,11.48.19c.21-.27.4-.25.53,0,.29.6.23,1.59-.65,3.17C10.73,4.52,9.91,5.93,9,7.56A1.33,1.33,0,0,1,9.82,8.49ZM43.13,4.92a1.28,1.28,0,0,0,.15-1.41C43,3,42.4,2.69,42.06,3.05A1.3,1.3,0,0,0,42,4.6C42.27,5.15,42.86,5.21,43.13,4.92Zm14.62,6.3a5.37,5.37,0,0,1-4.12,2.27,2.59,2.59,0,0,1-2.71-1.88A3.82,3.82,0,0,1,48,13.53c-1.78,0-2.2-1.3-1.59-3.13C47.1,8.34,49,6.12,48.57,6c-.21-.09-1.43.5-2.77,2a21.07,21.07,0,0,0-3.07,5.33c-.08.19-.21.28-.4.09a1.39,1.39,0,0,1-.36-.75,3.37,3.37,0,0,1-2.11.87,1.47,1.47,0,0,1-1.64-1.31,3.93,3.93,0,0,1-2.67,1.27,1.73,1.73,0,0,1-1.84-1.63A3.55,3.55,0,0,1,31,13.51a1.59,1.59,0,0,1-1.7-1.68,3.71,3.71,0,0,1-2.6,1.61,1.58,1.58,0,0,1-1.59-1.22,3.32,3.32,0,0,1-2.4,1.31A1.63,1.63,0,0,1,21,11.81a3.69,3.69,0,0,1-2.63,1.63c-1,0-1.62-.74-1.7-1.82a5.32,5.32,0,0,1-3.8,1.87c-2.67,0-3.59-2.59-2.23-5.3S14.11,4.39,15.16,5A4.1,4.1,0,0,1,16.4,6.09c.38.51.21,1.79-.67,2.86-1,1.26-2.44,1.81-3.91.61-.67,1.93-.17,3.25.95,3.32,1.67.08,3.14-1.47,4.06-2.82a6.64,6.64,0,0,1,.89-1.82c1.7-2.48,3.36-3.43,4.41-3.43a1.29,1.29,0,0,1,1.28,1.52A14.33,14.33,0,0,1,24.17,5c.19-.27.35-.31.5-.12a2.28,2.28,0,0,1,0,2.33c-.46.94-1.51,2.52-2,3.63s-.54,2.08.17,2S24.3,12,25,11a6.07,6.07,0,0,1,1.08-2.72c1.66-2.44,3.34-3.38,4.39-3.38A1.25,1.25,0,0,1,31.71,6.3c1.13-2.16,2.73-5,3.48-6.08.21-.3.4-.28.51,0,.29.69.23,1.59-.65,3.17-1,1.8-3,5.27-4.08,7.49-.57,1.22-.59,2.08.13,2s2-1.45,2.73-2.9h0A22,22,0,0,1,39.12.43c.32-.34.61-.38.9-.11a2.16,2.16,0,0,1,.49,2.31A12.15,12.15,0,0,1,35.63,9c-.84,2.06-1.07,3.8-.12,3.88s2.09-1.05,2.93-2.4a0,0,0,0,1,0,0,25.51,25.51,0,0,1,2.69-5.1c.18-.26.33-.32.5-.13a2.22,2.22,0,0,1,0,2.29c-.44.92-1.32,2.35-1.76,3.4-.51,1.22-.47,2,.2,2s1.44-.74,2.06-1.65v0A33.17,33.17,0,0,1,45.48,5c.15-.23.32-.21.44,0A2.48,2.48,0,0,1,46,7c.94-1,2.37-2.17,3.06-2.06a1.51,1.51,0,0,1,.82,2.22c-.44.93-1.47,2.48-1.95,3.57s-.42,2.21.33,2.17S50,11.6,50.8,10.23a5.8,5.8,0,0,1,.6-2C52.77,5.49,54.91,4.39,56,5A4,4,0,0,1,57.2,6.09c.38.51.21,1.79-.67,2.86-1,1.26-2.44,1.81-3.91.61-.67,1.93-.17,3.25,1,3.32,1.74.08,3.27-1.6,4.18-3a.18.18,0,0,1,.35,0A1.7,1.7,0,0,1,57.75,11.22ZM52.81,9.1c1,.65,1.89-.26,2.5-1s1.13-2,.84-2.21S54,6.75,53,8.74C52.92,8.87,52.85,9,52.81,9.1ZM36,8.05c2.88-2.33,4.05-5.69,3.78-5.86S38,4.35,36.52,7C36.33,7.38,36.16,7.71,36,8.05Zm-24,1c1,.65,1.89-.26,2.5-1s1.13-2,.84-2.21-2.19.91-3.17,2.9A2.84,2.84,0,0,0,12,9.1Zm9.58.48c1.32-2.31,1.51-3.61.9-3.67s-2.21,1.3-3.36,3.17-1.39,3.65-.57,3.67S20.51,11.43,21.59,9.58Zm8.27,0C31.08,7.29,31.39,6,30.78,6S28.6,7.25,27.44,9.1s-1.36,3.63-.54,3.65S28.87,11.53,29.86,9.62Z"/></g></g></svg>