<?xml version="1.0" encoding="utf-8"?>
<!-- Generator: Adobe Illustrator 22.0.0, SVG Export Plug-In . SVG Version: 6.00 Build 0)  -->
<svg version="1.1" id="レイヤー_1" xmlns="http://www.w3.org/2000/svg" xmlns:xlink="http://www.w3.org/1999/xlink" x="0px"
	 y="0px" viewBox="0 0 65.703 40" style="enable-background:new 0 0 65.703 40;" xml:space="preserve">
<style type="text/css">
	.st0{fill:#FFFFFF;}
</style>
<path class="st0" d="M19.627,13.397c-2.784,4.384-5.791,10.4-6.624,13.311c-0.48,1.727-0.16,2.687,0.289,3.167
	c0.224,0.225,0.384,0.225,0.511-0.095c1.12-2.656,2.08-4.769,2.976-6.529c0.544,0.32,1.247,0.449,1.984,0.32
	c4.193-0.8,7.647-3.198,9.247-5.695c1.089-1.696,1.633-3.553,0.96-5.473c-0.767-2.207-2.176-2.718-3.807-2.655
	c-2.176,0.096-4.576,1.44-7.231,1.727c-0.416,0.033-0.48,0.224-0.32,0.576C17.933,12.724,18.54,13.269,19.627,13.397L19.627,13.397z
	 M17.707,21.46c0.96-1.793,1.856-3.264,2.689-4.736c0.895-1.535,1.215-2.655,1.215-3.52c2.113-0.607,5.313-2.271,5.984-0.511
	C28.46,14.933,24.877,20.117,17.707,21.46L17.707,21.46z"/>
<path class="st0" d="M34.375,25.26c-0.415,1.045-1.458,1.802-2.413,1.765c-1.296-0.055-1.818-1.242-1.369-2.593
	c0.396-1.189,1.44-2.467,2.162-3.295c-0.793,0.522-1.567,0.684-2.107,0.684c-0.684,1.26-2.413,3.816-2.755,5.456
	c-0.036,0.162-0.144,0.251-0.307,0.089c-0.522-0.54-0.522-1.369-0.035-2.287c0.413-0.791,1.62-2.484,2.285-3.438
	c-1.025-0.665,0.54-2.791,1.207-2.809c0.558-0.018,0.415,1.027-0.036,2.16c0.576-0.071,1.189-0.36,1.855-0.827
	c0.216-0.144,0.36-0.18,0.485-0.036c0.344,0.378,0.775,1.171,0.253,1.765c-0.811,0.918-1.693,2.053-1.98,2.987
	c-0.289,0.936-0.073,1.64,0.449,1.658c0.702,0.035,1.567-1.082,2.144-2.378c0.071-0.144,0.18-0.162,0.251-0.018
	C34.555,24.342,34.573,24.775,34.375,25.26L34.375,25.26z M41.575,22.813c-0.127,0.144-0.307,0.215-0.487,0.233
	c-0.378,1.531-1.513,3.349-2.844,3.8c-0.649,0.216-1.549,0.144-2.269-0.793c-0.793-1.044-0.522-2.611,0.287-4.051
	c0.685-1.224,1.784-2.269,2.864-2.34c0.558-0.036,0.864,0.125,1.224,0.611c0.415,0.558,0.955,0.685,0.847,1.982
	c-0.018,0.144-0.018,0.269-0.036,0.413c0.107,0,0.216-0.035,0.36-0.035C41.646,22.633,41.646,22.722,41.575,22.813L41.575,22.813z
	 M38.729,21.011c-0.485,0.415-1.009,1.009-1.387,1.693c-0.755,1.369-1.025,3.025-0.558,3.422c0.505,0.414,1.604-0.216,2.485-1.873
	c0.271-0.504,0.485-1.009,0.631-1.44c-0.127-0.055-0.235-0.127-0.342-0.216C39.18,22.308,38.747,21.679,38.729,21.011L38.729,21.011
	z M40.169,20.993c-0.089-0.575-0.449-0.467-0.54,0.055c-0.089,0.487,0.109,1.009,0.396,1.278
	C40.169,21.768,40.224,21.319,40.169,20.993L40.169,20.993z M47.693,18.22c-0.738,1.225-1.98,3.26-2.953,5.151
	c0.685,0.215,0.955,0.9,0.936,2.087c0,0.198-0.018,0.396-0.036,0.613c0.685-0.449,1.405-1.351,1.873-2.287
	c0.109-0.215,0.289-0.233,0.378,0.018c0.091,0.271-0.018,0.667-0.18,1.08c-0.18,0.433-1.08,1.495-2.16,1.873
	c-0.289,1.82-1.08,3.818-1.945,4.898c-0.611,0.756-1.062,0.829-1.602,0.36c-0.451-0.378-0.991-1.08-0.793-2.611
	c0.505-4.015,4.645-10.911,6.644-13.9c0.145-0.216,0.378-0.198,0.451,0.018C48.522,16.133,48.467,16.906,47.693,18.22L47.693,18.22z
	 M43.444,26.162c-1.007,2.395-1.656,4.627-1.242,5.149c0.396,0.522,1.747-1.964,2.34-4.429C44.02,26.828,43.66,26.593,43.444,26.162
	L43.444,26.162z M44.524,23.893c-0.18,0.071-0.342,1.025-0.36,1.44c-0.018,0.576,0.145,0.955,0.487,1.027
	c0.089-0.433,0.144-0.884,0.162-1.296C44.831,24.397,44.651,23.839,44.524,23.893L44.524,23.893z M52.733,19.626
	c-0.235,0.251-0.738,0.198-1.007-0.271c-0.289-0.485-0.198-1.025,0.089-1.333c0.289-0.305,0.811-0.089,1.044,0.396
	C53.093,18.888,52.967,19.373,52.733,19.626L52.733,19.626z M51.437,21.804c-0.378,0.793-1.135,2.016-1.513,2.916
	c-0.431,1.045-0.396,1.747,0.18,1.711c0.811-0.036,1.802-1.224,2.342-2.467c0.089-0.162,0.216-0.144,0.287,0
	c0.144,0.289,0.091,0.667-0.125,1.116c-0.54,1.116-1.675,1.873-2.684,1.873c-1.367,0-1.711-1.151-1.205-2.627
	c0.449-1.315,1.638-3.44,2.304-4.376c0.162-0.216,0.289-0.269,0.433-0.107C51.726,20.13,51.869,20.904,51.437,21.804L51.437,21.804z
	 M59.682,17.662c-0.558,2.215-2.574,4.376-4.178,5.42c-0.72,1.765-0.918,3.26-0.107,3.331c0.864,0.073,2.124-1.224,2.827-2.611
	c0.125-0.233,0.324-0.251,0.395,0c0.091,0.289,0.018,0.685-0.18,1.116c-0.251,0.54-1.565,2.035-3.005,2
	c-1.244-0.036-1.909-0.902-1.495-2.845c0.665-3.133,2.718-6.393,4.555-8.3c0.271-0.289,0.522-0.325,0.775-0.091
	C59.789,16.151,59.898,16.817,59.682,17.662L59.682,17.662z M59.069,17.284c-0.235-0.144-1.567,1.855-2.809,4.16
	c-0.162,0.287-0.305,0.576-0.431,0.864C58.295,20.31,59.304,17.43,59.069,17.284L59.069,17.284z M65.369,25.028
	c-0.756,1.098-2.142,1.926-3.529,1.944c-2.287,0.036-3.078-2.215-1.909-4.536c1.171-2.324,3.007-3.26,3.907-2.738
	c0.451,0.271,0.775,0.542,1.064,0.936c0.324,0.433,0.18,1.531-0.576,2.449c-0.884,1.08-2.089,1.549-3.349,0.522
	c-0.576,1.656-0.144,2.791,0.809,2.845c1.495,0.073,2.809-1.369,3.584-2.556c0.091-0.144,0.235-0.144,0.305,0.018
	C65.747,24.055,65.693,24.559,65.369,25.028L65.369,25.028z M63.28,22.308c0.576-0.756,0.973-1.693,0.72-1.889
	c-0.376-0.307-1.871,0.773-2.718,2.484c-0.055,0.109-0.107,0.216-0.144,0.307C62.02,23.768,62.758,22.993,63.28,22.308L63.28,22.308
	z"/>
<polygon class="st0" points="37.333,29.333 37.333,31.164 28.523,37.333 2.667,37.333 2.667,8.836 11.477,2.667 37.333,2.667 
	37.333,16.667 40,16.667 40,0 10.636,0 0,7.447 0,40 29.364,40 40,32.553 40,29.333 "/>
</svg>
