<?xml version="1.0" encoding="utf-8"?>
<!-- Generator: Adobe Illustrator 22.0.0, SVG Export Plug-In . SVG Version: 6.00 Build 0)  -->
<svg version="1.1" id="レイヤー_1" xmlns="http://www.w3.org/2000/svg" xmlns:xlink="http://www.w3.org/1999/xlink" x="0px"
	 y="0px" viewBox="0 0 122 106" style="enable-background:new 0 0 122 106;" xml:space="preserve">
<style type="text/css">
	.st0{fill:url(#SVGID_1_);}
</style>
<g>
	
		<linearGradient id="SVGID_1_" gradientUnits="userSpaceOnUse" x1="92.5295" y1="-11.8532" x2="29.4474" y2="97.4081" gradientTransform="matrix(1 0 0 -1 0 108)">
		<stop  offset="0" style="stop-color:#5470A7"/>
		<stop  offset="0.3328" style="stop-color:#4486B2"/>
		<stop  offset="0.6764" style="stop-color:#3798AF"/>
		<stop  offset="1" style="stop-color:#2AA8AA"/>
	</linearGradient>
	<path class="st0" d="M72.25,3C78.729,3,84,8.271,84,14.75v2.5c0,0.965-0.785,1.75-1.75,1.75h-2.5C78.785,19,78,18.215,78,17.25
		C78,12.701,74.299,9,69.75,9h-17.5C47.701,9,44,12.701,44,17.25c0,0.965-0.785,1.75-1.75,1.75h-2.5C38.785,19,38,18.215,38,17.25
		v-2.5C38,8.271,43.271,3,49.75,3H72.25 M117.25,27.485c0.965,0,1.75,0.785,1.75,1.75v5.79c0,4.997-5.996,9.512-16.884,12.713
		c-10.443,3.07-24.636,4.761-39.963,4.761C28.43,52.498,3,44.741,3,34.455v-5.22c0-0.965,0.785-1.75,1.75-1.75L117.25,27.485
		 M4.715,52.45L4.715,52.45c0.265,0,0.527,0.067,0.778,0.198C17.995,59.185,37.057,62.5,62.15,62.5
		c10.551,0,36.958-0.906,54.258-9.295c0.273-0.132,0.557-0.2,0.843-0.2c0.859,0,1.748,0.643,1.748,1.719v46.525
		c0,0.965-0.785,1.75-1.75,1.75H4.75C3.785,103,3,102.215,3,101.25V54.21c0-0.622,0.285-1.03,0.523-1.263
		C3.847,52.631,4.282,52.45,4.715,52.45 M61,85.5c5.514,0,10-4.429,10-9.872v-2.729c0-1.874-1.525-3.399-3.399-3.399H54.388
		C52.52,69.5,51,71.02,51,72.888v2.74C51,81.071,55.486,85.5,61,85.5 M72.25,1h-22.5C42.156,1,36,7.156,36,14.75v2.5
		c0,2.071,1.679,3.75,3.75,3.75h2.5c2.071,0,3.75-1.679,3.75-3.75l0,0c0-3.452,2.798-6.25,6.25-6.25h17.5
		c3.452,0,6.25,2.798,6.25,6.25l0,0c0,2.071,1.679,3.75,3.75,3.75h2.5c2.071,0,3.75-1.679,3.75-3.75v-2.5C86,7.156,79.844,1,72.25,1
		L72.25,1z M117.25,25.485H4.75c-2.071,0-3.75,1.679-3.75,3.75v5.22c0,13.286,30.773,20.043,61.153,20.043
		c29.611,0,58.847-6.42,58.847-19.473v-5.79C121,27.164,119.321,25.485,117.25,25.485L117.25,25.485z M4.716,50.45
		C2.765,50.449,1,52.038,1,54.21v47.04c0,2.071,1.679,3.75,3.75,3.75h112.5c2.071,0,3.75-1.679,3.75-3.75V54.725
		c0-2.185-1.772-3.719-3.748-3.719c-0.567,0-1.151,0.126-1.716,0.4C98.668,59.585,72.669,60.5,62.15,60.5
		c-28.321,0-45.422-4.235-55.729-9.625C5.863,50.583,5.281,50.45,4.716,50.45L4.716,50.45z M61,83.5c-4.416,0-8-3.524-8-7.872v-2.74
		c0-0.766,0.621-1.388,1.388-1.388h13.214c0.772,0,1.399,0.626,1.399,1.399v2.729C69,79.976,65.416,83.5,61,83.5L61,83.5z"/>
</g>
</svg>
