<?xml version="1.0" encoding="utf-8"?>
<!-- Generator: Adobe Illustrator 22.0.0, SVG Export Plug-In . SVG Version: 6.00 Build 0)  -->
<svg height="30px" width="200px" version="1.1" id="レイヤー_1" xmlns="http://www.w3.org/2000/svg" xmlns:xlink="http://www.w3.org/1999/xlink" x="0px"
	 y="0px" viewBox="0 0 332.4 46.2" style="enable-background:new 0 0 332.4 46.2;" xml:space="preserve">
<style type="text/css">
	.st0{fill:#24282A;}
	.st1{fill:#6A6E71;}
	.st2{fill:#9DA0A4;}
	.st3{fill:#00A4BB;}
</style>
<g>
	<g>
		<rect x="163.5" y="17.9" class="st0" width="7.7" height="28.3"/>
		<rect x="153.1" y="10.2" class="st1" width="28.4" height="7.7"/>
	</g>
	<g>
		<rect x="270.4" y="38.5" class="st1" width="28.4" height="7.7"/>
		<rect x="270.4" y="10.2" class="st0" width="7.7" height="28.3"/>
	</g>
	<g>
		<rect x="228.8" y="17.9" class="st0" width="7.7" height="28.3"/>
		<path class="st1" d="M243.7,10.2h-14.9v7.7h14.9v0c5.7,0,10.3,4.6,10.3,10.3c0,5.7-4.6,10.3-10.3,10.3v0h-7.1v7.7h7.1
			c9.9,0,18-8.1,18-18C261.7,18.3,253.6,10.2,243.7,10.2z"/>
	</g>
	<g>
		<polygon class="st2" points="78.4,37.5 81.6,29.8 89.4,29.8 92.6,37.5 		"/>
		<polygon class="st0" points="85.5,20.4 81.3,10.3 66.4,46.2 74.7,46.2 		"/>
		<polygon class="st1" points="89.6,10.2 81.4,10.2 81.3,10.3 96.3,46.2 104.6,46.2 		"/>
	</g>
	<g>
		<polygon class="st1" points="323.6,10.2 310.3,33.9 310.9,34.9 310.9,46.2 312.3,46.2 332.4,10.2 		"/>
		<polygon class="st2" points="312.3,46.2 318.6,46.2 318.6,34.9 		"/>
		<polygon class="st0" points="314.8,26 310.9,19 306,10.2 297.1,10.2 310.3,33.9 		"/>
	</g>
	<g>
		<polygon class="st1" points="136.7,10.2 136.7,33.5 144.4,43.6 144.4,10.2 		"/>
		<polygon class="st2" points="136.7,33.5 118.8,10.2 118.8,22.9 136.7,46.2 144.4,46.2 144.4,43.6 		"/>
		<rect x="111.1" y="10.2" class="st0" width="7.7" height="36"/>
	</g>
	<g>
		<rect x="190.1" y="10.2" class="st1" width="28.4" height="7.7"/>
		<rect x="197.8" y="24.4" class="st2" width="18.8" height="7.7"/>
		<polygon class="st0" points="197.8,38.5 197.8,17.9 190.1,17.9 190.1,46.2 218.5,46.2 218.5,38.5 		"/>
	</g>
	<polygon class="st3" points="69.1,0 58.4,0 44.6,33.2 39.9,22.1 49.1,0 38.4,0 34.6,9.2 30.7,0 20,0 29.2,22.1 24.5,33.2 10.7,0 
		0,0 19.2,46.2 29.9,46.2 34.6,35 39.2,46.2 49.9,46.2 	"/>
</g>
</svg>
