<?xml version="1.0" encoding="utf-8"?>
<!-- Generator: Adobe Illustrator 22.0.0, SVG Export Plug-In . SVG Version: 6.00 Build 0)  -->
<svg version="1.1" id="iconmonstr" xmlns="http://www.w3.org/2000/svg" xmlns:xlink="http://www.w3.org/1999/xlink" x="0px" y="0px"
	 viewBox="0 0 23.681 26" style="enable-background:new 0 0 23.681 26;" xml:space="preserve">
    <style type="text/css">
	#user-6{fill:silver;}
    </style>
    <path id="user-6" d="M10.492,2.179c3.796-1.004,7.179,2.379,6.174,6.177c-0.441,1.669-1.79,3.02-3.458,3.464
	c-3.804,1.014-7.197-2.383-6.18-6.185C7.474,3.967,8.824,2.62,10.492,2.179z M13.211,0.129C8.283-0.802,4.044,3.437,4.975,8.367
	c0.52,2.756,2.741,4.979,5.497,5.503c4.936,0.938,9.184-3.312,8.242-8.247C18.189,2.869,15.966,0.65,13.211,0.129z M18.215,15.352
	c-0.497,0.498-1.057,0.931-1.658,1.302c2.872,1.874,4.378,5.083,4.972,7.346H2.142c0.572-2.29,2.058-5.503,4.973-7.358
	c-0.603-0.374-1.162-0.811-1.658-1.313c-3.397,2.453-4.945,6.408-5.432,9.005C-0.139,25.203,0.538,26,1.422,26h20.835
	c0.889,0,1.569-0.806,1.396-1.678C23.141,21.739,21.548,17.811,18.215,15.352z"/>
</svg>
