<?xml version="1.0" encoding="utf-8"?>
<!-- Generator: Adobe Illustrator 22.0.0, SVG Export Plug-In . SVG Version: 6.00 Build 0)  -->
<svg version="1.1" id="iconmonstr" xmlns="http://www.w3.org/2000/svg" xmlns:xlink="http://www.w3.org/1999/xlink" x="0px" y="0px"
	 viewBox="0 0 24 24" style="enable-background:new 0 0 24 24;" xml:space="preserve">
	<style type="text/css">
	#computer-1{fill:silver;}
    </style>
<path id="computer-1" d="M0,1.418v16.163C0,18.365,0.635,19,1.418,19h21.163C23.365,19,24,18.365,24,17.582V1.418
	C24,0.635,23.365,0,22.582,0H1.418C0.635,0,0,0.635,0,1.418z M22,17H2.002C2.001,17,2,16.999,2,16.998V2h20V17z M15.826,21.49
	l0.142,0.163C16.763,22.572,16.11,24,14.895,24h-5.79c-1.215,0-1.868-1.428-1.072-2.347l0.142-0.163C8.444,21.179,8.835,21,9.246,21
	h5.507C15.165,21,15.556,21.179,15.826,21.49z"/>
</svg>
