<?xml version="1.0" encoding="utf-8"?>
<!-- Generator: Adobe Illustrator 22.0.0, SVG Export Plug-In . SVG Version: 6.00 Build 0)  -->
<svg version="1.1" id="レイヤー_1" xmlns="http://www.w3.org/2000/svg" xmlns:xlink="http://www.w3.org/1999/xlink" x="0px"
	 y="0px" viewBox="0 0 159.995 23.995" style="enable-background:new 0 0 159.995 23.995;" xml:space="preserve">
<style type="text/css">
	.st0{fill:url(#SVGID_1_);}
	.st1{fill:#FFFFFF;}
</style>
<linearGradient id="SVGID_1_" gradientUnits="userSpaceOnUse" x1="102.5775" y1="-21.1077" x2="57.4168" y2="57.1129" gradientTransform="matrix(1 0 0 -1 0 30)">
	<stop  offset="0" style="stop-color:#5674AF"/>
	<stop  offset="0.3328" style="stop-color:#438DBC"/>
	<stop  offset="0.6764" style="stop-color:#339FB9"/>
	<stop  offset="1" style="stop-color:#24B1B4"/>
</linearGradient>
<polygon class="st0" points="159.995,11.998 149.538,23.995 10.456,23.995 0,11.998 10.456,0 149.538,0 "/>
<g>
	<path class="st1" d="M120.95,16.118c-0.526,1.134-1.408,2.394-2.815,2.918c0.756-0.504,0.903-1.386,0.945-2.204
		c0.064-1.449-0.336-3.087-0.189-5.018c0.084-0.147,0.147-0.273,0.231-0.4c0.272-0.482,0.378-0.713,0.167-0.924
		c-0.189-0.189-0.671-0.104-1.133,0.316c-0.441,0.398-0.651,0.796-0.756,1.616c-0.61,1.071-1.553,2.435-2.415,3.611
		c-0.02-0.168-0.02-0.337-0.042-0.504c-0.022-0.336-0.189-0.42-0.442-0.211c-0.336,0.277-0.522,0.733-0.579,1.234
		c-0.824,1.042-1.935,2.1-3.579,2.922c0.882-2.036,2.204-4.578,2.835-5.836c0.524-1.029,0.357-1.933,0.042-2.311
		c-0.147-0.189-0.358-0.168-0.525,0.127c-0.209,0.357-0.442,0.735-0.693,1.155c0.02-0.736-0.398-1.385-1.238-1.385
		c-1.071,0-2.773,0.944-4.409,3.38c-1.702,2.519-1.324,5.144,0.607,5.144c0.778,0,1.513-0.442,2.122-1.049
		c-0.211,0.482-0.4,0.985-0.609,1.447c-2.032,0.78-3.796,2.028-4.443,3.849h1.238c0.519-1.003,1.439-2.164,2.848-2.986
		c-0.493,1.152-1.024,2.17-1.514,2.986h1.699c0.609-1.149,1.167-2.452,1.663-3.66c1.72-0.621,3.213-1.449,4.038-2.702
		c0.055,0.211,0.125,0.417,0.225,0.603c0.714,1.301,1.891,1.618,3.107,1.576c1.491-0.064,2.92-0.862,3.716-2.311
		c0.358-0.651,0.378-1.196,0.297-1.383C121.265,15.951,121.054,15.887,120.95,16.118z M107.215,19.098
		c-0.84-0.022-0.61-1.87,0.525-3.675c1.154-1.827,2.687-3.171,3.338-3.129c0.609,0.043,0.42,1.345-0.903,3.655
		C109.104,17.796,108.033,19.118,107.215,19.098z M116.788,19.034c-0.692,0.211-1.302-0.651-1.616-1.867
		c0.799-1.135,1.575-2.289,2.184-3.402C117.44,15.445,117.755,18.741,116.788,19.034z"/>
	<path class="st1" d="M39.31,14.666c-0.545,0.127-1.154,0.714-1.385,1.618c-0.483,1.805,0.42,3.252,1.995,3.527
		c1.7,0.293,3.444-0.211,5.06-2.898c1.155-1.911,3.191-6.089,3.884-7.727c0.525-1.238,0.42-2.161,0.147-2.623
		c-0.148-0.253-0.337-0.273-0.504-0.022c-0.673,1.029-2.478,4.62-3.611,6.951c-1.407,2.918-2.94,6.109-4.829,5.669
		c-0.651-0.148-1.471-1.093-0.442-4.075C39.75,14.73,39.605,14.604,39.31,14.666z"/>
	<path class="st1" d="M77.854,11.625c-0.776,1.091-2.163,3.569-2.687,5.102c-0.589,1.721-0.189,3.065,1.407,3.065
		c1.174,0,2.498-0.882,3.127-2.184c0.024-0.049,0.037-0.094,0.057-0.142c0.054,0.271,0.144,0.534,0.27,0.77
		c0.714,1.301,1.891,1.618,3.107,1.576c1.477-0.063,2.891-0.849,3.691-2.272c0.008,1.381,0.861,2.22,1.869,2.25
		c1.142,0.043,2.138-0.795,2.751-1.529c0.057,0.918,0.577,1.531,1.648,1.531c0.963,0,2.022-0.6,2.72-1.532
		c-0.076,0.637,0.069,1.097,0.378,1.405c0.189,0.189,0.314,0.103,0.398-0.084c0.903-1.975,1.827-3.991,3.065-5.335
		c1.344-1.469,2.562-2.057,2.773-1.973c0.378,0.167-1.471,2.393-2.164,4.451c-0.609,1.827-0.189,3.129,1.596,3.129
		c1.218,0,2.54-1.071,3.107-2.247c0.295-0.609,0.337-1.09,0.189-1.321c-0.105-0.169-0.252-0.169-0.356,0.02
		c-0.798,1.469-1.827,2.856-2.687,2.898c-0.756,0.042-0.881-0.946-0.336-2.164c0.482-1.091,1.511-2.645,1.953-3.569
		c0.524-1.09-0.127-2.12-0.82-2.225c-0.692-0.106-2.12,1.049-3.065,2.058c0.231-0.757,0.253-1.471-0.062-1.995
		c-0.127-0.211-0.295-0.231-0.442,0c-1.039,1.535-2.251,3.656-2.93,5.139c-0.014-0.047-0.021-0.097-0.043-0.141
		c-0.083-0.167-0.231-0.189-0.336,0c-0.629,1.449-1.784,2.834-2.729,2.876c-0.673,0.041-0.714-0.777-0.209-1.995
		c0.44-1.049,1.322-2.478,1.764-3.402c0.504-1.049,0.335-1.953,0.02-2.285c-0.168-0.19-0.315-0.128-0.504,0.125
		c-0.667,0.938-1.784,2.9-2.417,4.407c-0.057,0.032-0.112,0.082-0.155,0.167c-0.776,1.575-1.973,3.066-2.918,3.024
		c-0.882-0.041-1.113-1.343-0.42-2.876c0.798-1.763,1.995-3.8,2.813-5.207c0.525-0.084,1.176-0.148,1.638-0.084
		c0.314,0,0.399-0.148,0.252-0.399c-0.169-0.273-0.484-0.651-1.302-0.631c0.504-1.091,0.504-1.784,0.273-2.373
		c-0.106-0.251-0.315-0.273-0.504,0c-0.358,0.462-0.945,1.449-1.596,2.604c-0.567,0.064-1.155,0.106-1.742,0.084
		c-0.316-0.02-0.442,0.127-0.231,0.42c0.168,0.231,0.651,0.547,1.364,0.547c-0.901,1.658-1.783,3.422-2.225,4.471
		c-0.042,0.102-0.06,0.192-0.095,0.291c-0.097-0.124-0.267-0.155-0.359,0.048c-0.526,1.134-1.408,2.394-2.815,2.918
		c0.756-0.504,0.903-1.386,0.945-2.204c0.064-1.449-0.336-3.087-0.189-5.018c0.084-0.147,0.147-0.273,0.231-0.4
		c0.272-0.482,0.378-0.713,0.167-0.924c-0.189-0.189-0.671-0.104-1.133,0.316c-0.441,0.398-0.651,0.796-0.756,1.616
		c-0.61,1.071-1.553,2.435-2.415,3.611c-0.02-0.168-0.02-0.337-0.042-0.504c-0.022-0.336-0.189-0.42-0.442-0.211
		c-0.259,0.214-0.429,0.534-0.521,0.897c-0.082-0.073-0.188-0.054-0.268,0.091c-0.629,1.449-1.784,2.834-2.729,2.876
		c-0.673,0.041-0.714-0.777-0.209-1.995c0.44-1.049,1.322-2.478,1.764-3.402c0.504-1.049,0.335-1.953,0.02-2.285
		C78.19,11.31,78.043,11.372,77.854,11.625z M83.156,13.765c0.084,1.68,0.399,4.976-0.568,5.269
		c-0.692,0.211-1.301-0.651-1.616-1.867C81.771,16.032,82.547,14.878,83.156,13.765z"/>
	<path class="st1" d="M74.828,6.753c-2.142,2.225-4.535,6.025-5.311,9.678c-0.483,2.269,0.293,3.276,1.742,3.318
		c1.68,0.042,3.212-1.7,3.507-2.331c0.231-0.504,0.314-0.966,0.209-1.302c-0.084-0.295-0.315-0.273-0.462,0
		c-0.818,1.616-2.289,3.129-3.296,3.045c-0.946-0.085-0.715-1.827,0.125-3.885c1.869-1.218,4.222-3.736,4.871-6.32
		c0.252-0.986,0.127-1.764-0.481-2.308C75.437,6.375,75.144,6.417,74.828,6.753z M71.72,14.374c0.148-0.336,0.315-0.673,0.504-1.009
		c1.449-2.687,3.003-5.018,3.276-4.849C75.773,8.683,74.596,12.043,71.72,14.374z"/>
	<path class="st1" d="M53.519,12.002c-0.42-0.568-0.776-0.757-1.427-0.715c-1.26,0.084-2.542,1.302-3.34,2.729
		c-0.944,1.68-1.259,3.507-0.335,4.725c0.84,1.091,1.889,1.175,2.645,0.924c1.552-0.526,2.876-2.646,3.316-4.431
		c0.211-0.02,0.42-0.106,0.567-0.273c0.084-0.105,0.084-0.209-0.063-0.208c-0.167,0-0.293,0.042-0.42,0.042
		c0.022-0.169,0.022-0.317,0.044-0.484C54.632,12.8,54.001,12.653,53.519,12.002z M52.258,16.641
		c-1.029,1.931-2.309,2.666-2.898,2.184c-0.545-0.462-0.231-2.394,0.651-3.989c0.442-0.799,1.051-1.491,1.618-1.975
		c0.02,0.778,0.524,1.513,0.966,1.847c0.125,0.106,0.251,0.189,0.398,0.253C52.825,15.465,52.573,16.054,52.258,16.641z
		 M53.14,14.394c-0.337-0.315-0.567-0.924-0.462-1.491c0.105-0.609,0.525-0.735,0.629-0.062
		C53.371,13.219,53.307,13.743,53.14,14.394z"/>
	<path class="st1" d="M96.369,11.245c0.273-0.295,0.42-0.86,0.147-1.408c-0.273-0.566-0.882-0.818-1.218-0.462
		c-0.336,0.359-0.44,0.988-0.105,1.555C95.509,11.476,96.096,11.54,96.369,11.245z"/>
	<path class="st1" d="M62.051,5.848c-0.167-0.293-0.336-0.293-0.525-0.02c-1.449,2.015-5.564,9.784-6.131,11.526
		c-0.42,1.282-0.21,1.891,0.105,2.311c0.125,0.167,0.252,0.147,0.336-0.064c0.189-0.44,0.42-0.945,0.609-1.385
		c0.377,0.924,1.091,1.491,2.204,1.491c1.218,0,2.52-1.197,3.507-3.402c1.155-2.562,1.071-5.039-0.714-5.039
		c-0.545,0-1.196,0.335-1.805,0.882c0.651-1.157,1.553-2.604,1.869-3.193C62.366,7.381,62.366,6.437,62.051,5.848z M61.127,12.126
		c0.482,0.042,0.735,1.324-0.462,3.694c-1.218,2.436-2.183,3.065-2.918,2.898c-0.567-0.125-0.84-0.798-0.882-1.407
		c0.776-1.616,1.784-3.358,2.729-4.345C60.223,12.315,60.685,12.084,61.127,12.126z"/>
	<path class="st1" d="M79.849,11.245c0.273-0.295,0.42-0.86,0.147-1.408c-0.273-0.566-0.882-0.818-1.218-0.462
		c-0.336,0.359-0.44,0.988-0.105,1.555C78.989,11.476,79.576,11.54,79.849,11.245z"/>
</g>
</svg>
