<?xml version="1.0" encoding="utf-8"?>
<!-- Generator: Adobe Illustrator 22.1.0, SVG Export Plug-In . SVG Version: 6.00 Build 0)  -->
<svg version="1.1" id="レイヤー_1" xmlns="http://www.w3.org/2000/svg" xmlns:xlink="http://www.w3.org/1999/xlink" x="0px"
	 y="0px" width="160px" height="24px" viewBox="0 0 160 24" style="enable-background:new 0 0 160 24;" xml:space="preserve">
<style type="text/css">
	.st0{fill:url(#SVGID_1_);}
	.st1{fill:#FEFEFE;}
</style>
<linearGradient id="SVGID_1_" gradientUnits="userSpaceOnUse" x1="102.5775" y1="856.4977" x2="57.4168" y2="778.2772" gradientTransform="matrix(1 0 0 1 0 -805.39)">
	<stop  offset="0" style="stop-color:#5674AF"/>
	<stop  offset="0.3328" style="stop-color:#438DBC"/>
	<stop  offset="0.6764" style="stop-color:#339FB9"/>
	<stop  offset="1" style="stop-color:#24B1B4"/>
</linearGradient>
<polygon class="st0" points="160,12 149.5,24 10.5,24 0,12 10.5,0 149.5,0 "/>
<g>
	<path class="st1" d="M21,14.2c-0.6,1.1-1.2,2.1-1.6,3.1c-0.1,0.2-0.3,0.2-0.4,0c-0.3-0.3-0.3-1,0.1-2.2c0.1-0.3,0.3-0.7,0.6-1.2
		c-0.5-0.3-0.6-0.6-0.7-0.7c-0.1-0.3-0.1-0.4,0.3-0.3c0.3,0,0.6,0.1,1,0.1c1.7-2.9,4.6-7.1,6.9-9c0.3-0.3,0.6-0.3,0.8,0
		c0.2,0.3,0.3,0.3,0.5,0.9c0.2,0.5,0.2,1,0,1.6c-0.6,1.7-1.2,3.9-1.6,6.2c0.6,0.2,0.9,0.6,1,1.1c0,0.2,0,0.3-0.2,0.2
		c-0.3-0.1-0.6-0.1-0.9-0.1c-0.1,1.1-0.3,2.3-0.3,3.4c0,0.2-0.1,0.3-0.3,0.2c-0.4-0.2-0.8-0.7-0.8-1.9c0-0.4,0-1,0.1-1.6
		C23.7,13.9,22,14.2,21,14.2z M25.4,12.5c0.3-2.2,0.9-4.9,1.6-6.6c-1.6,1.8-3.6,4.4-5.2,7C23.1,12.8,24.4,12.5,25.4,12.5z"/>
	<path class="st1" d="M32,17.4c-1.1,0-1.9-0.6-2.2-1.5c-0.2,0.4-0.4,1-0.6,1.4c-0.1,0.2-0.2,0.2-0.3,0.1c-0.3-0.4-0.5-1-0.1-2.4
		c0.6-1.8,4.8-9.7,6.2-11.7c0.2-0.3,0.4-0.3,0.5,0c0.3,0.6,0.3,1.6-0.6,3.2c-0.3,0.6-1.2,2.1-1.9,3.3c0.6-0.6,1.3-0.9,1.8-0.9
		c1.8,0,1.9,2.5,0.7,5.1C34.5,16.2,33.2,17.4,32,17.4z M32.9,10.6c-1,1-2,2.8-2.8,4.4c0,0.6,0.3,1.3,0.9,1.4c0.7,0.2,1.7-0.5,3-3
		c1.2-2.4,1-3.7,0.5-3.8C34,9.7,33.6,9.9,32.9,10.6z"/>
	<path class="st1" d="M51,17.5c-1.4,0-1.9-0.9-1.8-2.1c-0.7,1-1.8,2.1-3.1,2c-1.5-0.1-1.6-1.7-1.1-3.1c0.2-0.5,0.4-1.2,0.8-1.8
		c-0.6,0.3-1.3,0.4-1.9,0.4c-0.5,1.8-1.8,3.9-3.3,4.4c-0.8,0.3-1.9,0.2-2.7-0.9c-0.9-1.3-0.6-3.1,0.3-4.8c0.8-1.5,2.1-2.7,3.4-2.8
		c0.6,0,1,0.1,1.5,0.7c0.5,0.6,1.1,0.8,1,2.4c0,0.1,0,0.3,0,0.4c1.2,0,2.4-1,3.1-2.2c0.2-0.3,0.6-0.8,0.8-1.2c0.2-0.2,0.4-0.2,0.5,0
		c0.5,0.7,0.4,1.6-0.4,2.9c-0.8,1.3-1.3,2.1-1.7,3.1c-0.4,1-0.4,1.8,0.1,1.8c0.8,0.1,2-1.4,3.2-3.3c1.3-2.2,1.9-3.6,2.6-4.6
		c0.2-0.3,0.4-0.3,0.5-0.1c0.3,0.4,0.5,1.3,0,2.4c-0.5,1-1.5,2.5-2,3.6c-0.6,1.2-0.5,2.1,0.3,2.1c0.9,0,2-1.5,2.8-3
		c0.1-0.2,0.3-0.2,0.4,0s0.1,0.7-0.2,1.3C53.5,16.5,52.2,17.5,51,17.5z M41.2,10.4c-0.6,0.5-1.2,1.2-1.7,2c-0.9,1.6-1.2,3.6-0.6,4
		c0.6,0.5,1.9-0.3,3-2.2c0.3-0.6,0.6-1.2,0.7-1.7C41.8,12.1,41.2,11.3,41.2,10.4z M42.2,10.4c-0.1,0.6,0.1,1.1,0.5,1.5
		c0.2-0.6,0.2-1.2,0.1-1.5C42.8,9.7,42.3,9.8,42.2,10.4z"/>
	<path class="st1" d="M55.7,8.3C55.5,8,55.7,7.9,56,7.9c0.6,0,1.2,0,1.8-0.1c0.7-1.2,1.3-2.2,1.6-2.7c0.2-0.3,0.4-0.3,0.5,0
		c0.2,0.6,0.2,1.3-0.3,2.4c0.8,0,1.2,0.4,1.3,0.6c0.1,0.3,0.1,0.4-0.3,0.4c-0.5-0.1-1.1,0-1.7,0.1c-0.8,1.4-2.1,3.5-2.9,5.3
		c-0.7,1.6-0.5,2.9,0.4,2.9c1,0,2.2-1.5,3-3.1c0.1-0.3,0.4-0.3,0.4,0c0.1,0.3,0,0.7-0.2,1.2c-0.3,0.6-1.7,2.5-3.4,2.4
		c-1.4,0-2.5-1.6-1.5-4.1c0.4-1.1,1.3-2.9,2.3-4.6C56.4,8.9,55.9,8.5,55.7,8.3z"/>
	<path class="st1" d="M71.2,17.3c-1,0.3-2.4,0.5-3.6-0.4c-0.8-0.6-1.4-1.5-1.4-3.3c0-4.6,4.3-8.7,6.7-9.5C74,3.8,75,3.7,75.7,4.3
		c0.6,0.4,0.9,1,1.1,1.5C77,6.4,77,7,76.7,7.6c-0.3,0.6-0.6,1.4-0.8,2.1c-0.1,0.2-0.2,0.3-0.4,0.1c-0.5-0.3-0.8-1-0.6-2
		c0.3-1.1,1.1-2.3,0.6-2.7c-0.7-0.7-4.2,1.1-6.2,4.2c-2,3-1.9,6.3-1.1,7.1c1.2,1.1,3.7-0.5,5-3.1c-0.7,0.1-1.4,0.3-1.9,0.3
		c-1.1,0.1-1.7-0.3-2.1-1c-0.1-0.2,0-0.3,0.2-0.3c1.7,0,3.3-0.6,4.6-0.6c1.1,0,1.7,0.4,1.9,1.1c0.1,0.2,0.1,0.4-0.2,0.3
		c-0.4,0-0.9,0-1.5,0C74.8,15.1,72.2,17,71.2,17.3z"/>
	<path class="st1" d="M79.5,14.2c-0.6,1.1-1.2,2.1-1.6,3.1c-0.1,0.2-0.3,0.2-0.4,0c-0.3-0.3-0.3-1,0.1-2.2c0.1-0.3,0.3-0.7,0.6-1.2
		c-0.5-0.3-0.6-0.6-0.7-0.7c-0.1-0.3-0.1-0.4,0.3-0.3c0.3,0,0.6,0.1,1,0.1c1.7-2.9,4.6-7.1,6.9-9c0.3-0.3,0.6-0.3,0.8,0
		c0.2,0.3,0.3,0.3,0.5,0.9c0.2,0.5,0.2,1,0,1.6c-0.6,1.7-1.2,3.9-1.6,6.2c0.6,0.2,0.9,0.6,1,1.1c0,0.2,0,0.3-0.2,0.2
		c-0.3-0.1-0.6-0.1-0.9-0.1c-0.1,1.1-0.3,2.3-0.3,3.4c0,0.2-0.1,0.3-0.3,0.2c-0.4-0.2-0.8-0.7-0.8-1.9c0-0.4,0-1,0.1-1.6
		C82.2,13.9,80.5,14.2,79.5,14.2z M83.9,12.5c0.3-2.2,0.9-4.9,1.6-6.6c-1.6,1.8-3.6,4.4-5.2,7C81.6,12.8,82.9,12.5,83.9,12.5z"/>
	<path class="st1" d="M93.4,17.3c-0.1,0.2-0.2,0.3-0.4,0.1c-0.4-0.4-0.5-1.2-0.1-2.4c1-2.9,3.9-8,5.5-10.8C98.6,3.9,98.8,3.9,99,4
		c0.8,0.6,1,1.2,0.7,2.7c-0.3,2-0.6,4.7-0.7,7.7c1.5-3.3,3.9-7.8,5.5-10.2c0.2-0.3,0.4-0.2,0.5,0c0.3,0.6,0.3,1.5-0.7,3.1
		c-1.3,2.1-4,7.2-5.2,10.1c-0.1,0.2-0.2,0.3-0.4,0.1c-0.6-0.3-0.9-0.9-1-2.2c-0.1-1.3,0-4.2,0.4-7.2C96.4,10.8,94.2,14.7,93.4,17.3z
		"/>
	<path class="st1" d="M107.3,4.9c0-0.2,0-0.3,0.2-0.3c1.8,0.1,4.1-0.5,5.3-0.5c0.9,0,1.4,0.3,1.6,1c0.1,0.2,0,0.3-0.2,0.3
		c-1.5,0-3,0.4-4.3,0.6c-0.9,1.3-1.9,3.1-3,5c0.6-0.1,1.1-0.1,1.5-0.2c1.1,0,1.5,0.3,1.8,1c0.1,0.2,0.1,0.3-0.2,0.3
		c-1.2,0-2.8,0.3-4,0.6c-0.6,1.2-1.2,2.4-1.6,3.4c1-0.3,2.4-0.6,3.3-0.7c1,0,1.6,0.3,1.8,0.9c0.1,0.2,0,0.3-0.2,0.3
		c-1.2,0-3.5,0.5-4.7,0.9c-0.4,0.1-0.6,0.1-0.9-0.2c-0.2-0.2-0.3-0.5-0.4-0.8c-0.2-0.4-0.2-0.6,0-1.2c1-2.6,3.1-6.6,4.9-9.4
		C107.7,5.7,107.5,5.3,107.3,4.9z"/>
	<path class="st1" d="M123.2,4.1c0.3-0.2,0.4-0.1,0.5,0.1c0.1,0.6-0.1,1.7-1.4,3c-1,0.9-2.3,2.2-3.7,3.6c0.3,2.4,0.8,5.1,1.6,6.4
		c0.1,0.2,0,0.4-0.2,0.4c-0.8-0.1-1.7-0.6-2.2-2.7c-0.2-0.8-0.4-1.7-0.5-2.6c-1.7,1.8-3.4,3.6-4.6,5.2c-0.1,0.2-0.3,0.1-0.3,0
		c-0.2-0.5-0.2-1.2,0.5-2.2c0.6-0.9,2.2-2.8,4.1-4.8c-0.3-2.1-0.6-4.2-1.1-6c0-0.2,0.1-0.3,0.3-0.3c0.5,0.1,1.2,0.5,1.6,1.9
		c0.2,0.6,0.3,1.7,0.5,3C120.1,7,122,5.1,123.2,4.1z"/>
	<path class="st1" d="M121.9,13.6c0.6-2.4,3-6.4,5-9.4c0.2-0.3,0.4-0.2,0.5,0c0.3,0.5,0.4,1.4-0.4,3c-1,2-3.2,5.2-3.7,7.5
		c-0.3,1.1-0.2,1.9,0.4,2.1c1.3,0.5,3-1.4,4.5-4.3c1.2-2.3,3.5-6.5,4.7-8.4c0.2-0.3,0.4-0.2,0.5,0c0.3,0.4,0.3,1.4-0.3,2.7
		c-0.7,1.6-3.4,6.6-4.8,8.6c-1.5,2.1-3.4,2.6-4.9,2C122.3,17,121.3,15.9,121.9,13.6z"/>
	<path class="st1" d="M133.7,14.8c0.9,0.7,2.3,1.8,3.7,1.8c0.6,0,1-0.2,1.3-0.4c0.4-0.4,0.3-0.9,0-1.1c-1.1-1-4.5-2.3-4.5-4.5
		c0-2.9,3.3-5.4,5.2-6.2c1-0.4,2.1-0.6,2.8,0c0.5,0.5,0.9,1.2,1.1,1.8c0.2,0.9-0.3,1.7-0.6,2.1c-0.6,0.7-1.2,1.8-1.5,2.4
		c-0.1,0.2-0.2,0.3-0.5,0.1c-0.4-0.4-0.7-1.1-0.2-2.1c0.4-1,2.1-2.8,1.5-3.3c-0.7-0.7-6,2.5-6.1,5.2c-0.1,1.4,2.7,2.5,3.9,3.4
		c0.8,0.6,0.7,1.6-0.2,2.7c-1.3,1.5-5,1.9-8-1.8c-0.2-0.3-0.1-0.4,0-0.5C132.2,14.1,133.1,14.3,133.7,14.8z"/>
</g>
</svg>
