<?xml version="1.0" encoding="utf-8"?>
<!-- Generator: Adobe Illustrator 22.1.0, SVG Export Plug-In . SVG Version: 6.00 Build 0)  -->
<svg version="1.1" id="レイヤー_1" xmlns="http://www.w3.org/2000/svg" xmlns:xlink="http://www.w3.org/1999/xlink" x="0px"
	 y="0px" width="320px" height="320px" viewBox="0 0 320 320" style="enable-background:new 0 0 320 320;" xml:space="preserve">
<style type="text/css">
	.st0{fill:none;}
	.st1{fill:url(#SVGID_1_);}
	.st2{fill:url(#SVGID_2_);}
	.st3{fill:url(#SVGID_3_);}
	.st4{fill:url(#SVGID_4_);}
	.st5{fill:url(#SVGID_5_);}
	.st6{fill:url(#SVGID_6_);}
	.st7{fill:url(#SVGID_7_);}
	.st8{fill:url(#SVGID_8_);}
	.st9{fill:url(#SVGID_9_);}
	.st10{fill:url(#SVGID_10_);}
	.st11{fill:url(#SVGID_11_);}
	.st12{fill:url(#SVGID_12_);}
	.st13{fill:url(#SVGID_13_);}
	.st14{fill:url(#SVGID_14_);}
	.st15{fill:url(#SVGID_15_);}
	.st16{fill:url(#SVGID_16_);}
	.st17{fill:url(#SVGID_17_);}
	.st18{fill:url(#SVGID_18_);}
	.st19{fill:url(#SVGID_19_);}
	.st20{fill:url(#SVGID_20_);}
	.st21{fill:url(#SVGID_21_);}
	.st22{fill:url(#SVGID_22_);}
	.st23{fill:url(#SVGID_23_);}
	.st24{fill:url(#SVGID_24_);}
</style>
<g>
	<path class="st0" d="M176.9,149.5h-37.1v27.9h37.1V149.5z M169.9,170.5h-22.7c-1.5,0-2.8-1.2-2.8-2.8c0-1.5,1.2-2.8,2.8-2.8h22.7
		c1.5,0,2.8,1.2,2.8,2.8C172.7,169.2,171.4,170.5,169.9,170.5z M169.9,160.9h-22.7c-1.5,0-2.8-1.2-2.8-2.8s1.2-2.8,2.8-2.8h22.7
		c1.5,0,2.8,1.2,2.8,2.8S171.4,160.9,169.9,160.9z"/>
	<path class="st0" d="M173.7,115.3l34.6,13.2l13.1-34.4l-34.6-13.2L173.7,115.3z M207.2,118.7c-0.5,1.1-1.5,1.8-2.6,1.8
		c-0.3,0-0.7-0.1-1-0.2l-21.3-8.1c-1.5-0.5-2.1-2.1-1.6-3.6s2.1-2.1,3.6-1.6l21.3,8.1C207.1,115.7,207.7,117.3,207.2,118.7z
		 M210.7,109.6c-0.5,1.1-1.5,1.8-2.6,1.8c-0.3,0-0.7-0.1-1-0.2l-21.3-8.1c-1.5-0.5-2.1-2.1-1.6-3.6c0.5-1.5,2.1-2.1,3.6-1.6
		l21.3,8.1C210.5,106.5,211.3,108.1,210.7,109.6z M187.7,90.6c0.5-1.5,2.1-2.1,3.6-1.6l21.2,8c1.5,0.5,2.1,2.1,1.6,3.6
		c-0.5,1.1-1.5,1.8-2.6,1.8c-0.3,0-0.7-0.1-1-0.2l-21.3-8.1C187.8,93.6,187.1,91.9,187.7,90.6z"/>
	<path class="st0" d="M205.2,165.4h-22.8v12.2h2.1c1.5,0,2.8,1.2,2.8,2.8s-1.2,2.8-2.8,2.8h-52.2c-1.5,0-2.8-1.2-2.8-2.8
		s1.2-2.8,2.8-2.8h1.9v-12.2h-22l-13.7,31.8h120.3L205.2,165.4z"/>
	<path class="st0" d="M142.9,127.4L129.8,93l-34.6,13.3l13.2,34.4L142.9,127.4z M136,120.7c0.5,1.5-0.2,3.1-1.6,3.6l-21.3,8.1
		c-0.3,0.2-0.7,0.2-1,0.2c-1.1,0-2.1-0.7-2.6-1.8c-0.5-1.5,0.2-3.1,1.6-3.6l21.3-8.1C133.8,118.6,135.4,119.4,136,120.7z
		 M102.6,112.8c-0.5-1.5,0.2-3.1,1.6-3.6l21.3-8.1c1.5-0.5,3.1,0.2,3.6,1.6s-0.2,3.1-1.6,3.6l-21.3,8.1c-0.3,0.2-0.7,0.2-1,0.2
		C104,114.5,103,113.9,102.6,112.8z M106,121.7c-0.5-1.5,0.2-3.1,1.6-3.6l21.2-8.1c1.5-0.5,3.1,0.2,3.6,1.6s-0.2,3.1-1.6,3.6
		l-21.3,8.1c-0.3,0.2-0.7,0.2-1,0.2C107.5,123.5,106.4,122.8,106,121.7z"/>
	<rect x="97" y="202.7" class="st0" width="123.2" height="60.4"/>
	
		<linearGradient id="SVGID_1_" gradientUnits="userSpaceOnUse" x1="280.958" y1="85.611" x2="145.4231" y2="285.5647" gradientTransform="matrix(1 0 0 -1 0 321.39)">
		<stop  offset="0" style="stop-color:#536FA5"/>
		<stop  offset="0.159" style="stop-color:#4C77AA"/>
		<stop  offset="0.33" style="stop-color:#4385B1"/>
		<stop  offset="0.66" style="stop-color:#3596AE"/>
		<stop  offset="0.994" style="stop-color:#27A7A9"/>
	</linearGradient>
	<path class="st1" d="M160,65c1.5,0,2.8-1.3,2.8-2.8v-9.6c0-1.5-1.3-2.8-2.8-2.8s-2.8,1.3-2.8,2.8v9.6C157.1,63.6,158.5,65,160,65z"
		/>
	
		<linearGradient id="SVGID_2_" gradientUnits="userSpaceOnUse" x1="305.0341" y1="101.9305" x2="169.4992" y2="301.8843" gradientTransform="matrix(1 0 0 -1 0 321.39)">
		<stop  offset="0" style="stop-color:#536FA5"/>
		<stop  offset="0.159" style="stop-color:#4C77AA"/>
		<stop  offset="0.33" style="stop-color:#4385B1"/>
		<stop  offset="0.66" style="stop-color:#3596AE"/>
		<stop  offset="0.994" style="stop-color:#27A7A9"/>
	</linearGradient>
	<path class="st2" d="M197.3,71.5c0.4,0.2,0.5,0.2,0.9,0.2c1.1,0,2.3-0.8,2.7-1.9l3.2-9c0.5-1.3-0.2-3.1-1.7-3.6s-3.1,0.2-3.6,1.7
		l-3.2,9C195,69.3,195.8,70.9,197.3,71.5z"/>
	
		<linearGradient id="SVGID_3_" gradientUnits="userSpaceOnUse" x1="319.7758" y1="111.9229" x2="184.241" y2="311.8767" gradientTransform="matrix(1 0 0 -1 0 321.39)">
		<stop  offset="0" style="stop-color:#536FA5"/>
		<stop  offset="0.159" style="stop-color:#4C77AA"/>
		<stop  offset="0.33" style="stop-color:#4385B1"/>
		<stop  offset="0.66" style="stop-color:#3596AE"/>
		<stop  offset="0.994" style="stop-color:#27A7A9"/>
	</linearGradient>
	<path class="st3" d="M236,79.2l-6.1,7.3c-0.9,1.1-0.8,3.1,0.4,4c1.1,0.9,3.1,0.8,4-0.4l6.1-7.3c0.9-1.1,0.8-3.1-0.4-4
		C238.8,77.8,236.9,78,236,79.2z"/>
	
		<linearGradient id="SVGID_4_" gradientUnits="userSpaceOnUse" x1="130.2995" y1="-16.51" x2="-5.2353" y2="183.4438" gradientTransform="matrix(1 0 0 -1 0 321.39)">
		<stop  offset="0" style="stop-color:#536FA5"/>
		<stop  offset="0.159" style="stop-color:#4C77AA"/>
		<stop  offset="0.33" style="stop-color:#4385B1"/>
		<stop  offset="0.66" style="stop-color:#3596AE"/>
		<stop  offset="0.994" style="stop-color:#27A7A9"/>
	</linearGradient>
	<path class="st4" d="M61.7,227.6l-8.2,4.7c-1.3,0.8-1.9,2.5-1.1,4c0.8,1.5,2.5,1.9,4,1.1l8.2-4.7c1.3-0.8,1.9-2.5,0.9-4
		C64.7,227.2,63,226.8,61.7,227.6z"/>
	
		<linearGradient id="SVGID_5_" gradientUnits="userSpaceOnUse" x1="322.9948" y1="114.1049" x2="187.4599" y2="314.0586" gradientTransform="matrix(1 0 0 -1 0 321.39)">
		<stop  offset="0" style="stop-color:#536FA5"/>
		<stop  offset="0.159" style="stop-color:#4C77AA"/>
		<stop  offset="0.33" style="stop-color:#4385B1"/>
		<stop  offset="0.66" style="stop-color:#3596AE"/>
		<stop  offset="0.994" style="stop-color:#27A7A9"/>
	</linearGradient>
	<path class="st5" d="M257,121.1c0.5,0,0.9-0.2,1.3-0.4l8.2-4.7c1.3-0.8,1.9-2.5,1.1-3.8c-0.8-1.3-2.5-1.9-4-1.1l-8.2,4.7
		c-1.3,0.8-1.9,2.5-1.1,3.8C254.9,120.4,255.9,121.1,257,121.1z"/>
	
		<linearGradient id="SVGID_6_" gradientUnits="userSpaceOnUse" x1="138.7243" y1="-10.7994" x2="3.1895" y2="189.1543" gradientTransform="matrix(1 0 0 -1 0 321.39)">
		<stop  offset="0" style="stop-color:#536FA5"/>
		<stop  offset="0.159" style="stop-color:#4C77AA"/>
		<stop  offset="0.33" style="stop-color:#4385B1"/>
		<stop  offset="0.66" style="stop-color:#3596AE"/>
		<stop  offset="0.994" style="stop-color:#27A7A9"/>
	</linearGradient>
	<path class="st6" d="M52.7,193.6c0-0.2,0-0.4,0-0.5c-0.2-1.5-1.7-2.7-3.2-2.3l-9.3,1.7c-1.5,0.2-2.7,1.7-2.3,3.2
		c0.2,1.3,1.3,2.3,2.8,2.3c0.2,0,0.4,0,0.5,0l9.3-1.7C51.7,196,52.7,194.9,52.7,193.6z"/>
	
		<linearGradient id="SVGID_7_" gradientUnits="userSpaceOnUse" x1="314.7355" y1="108.5064" x2="179.2006" y2="308.4602" gradientTransform="matrix(1 0 0 -1 0 321.39)">
		<stop  offset="0" style="stop-color:#536FA5"/>
		<stop  offset="0.159" style="stop-color:#4C77AA"/>
		<stop  offset="0.33" style="stop-color:#4385B1"/>
		<stop  offset="0.66" style="stop-color:#3596AE"/>
		<stop  offset="0.994" style="stop-color:#27A7A9"/>
	</linearGradient>
	<path class="st7" d="M267.3,154.8c0,0.2,0,0.4,0,0.5c0.2,1.3,1.3,2.3,2.8,2.3c0.2,0,0.4,0,0.5,0l9.3-1.7c1.5-0.2,2.7-1.7,2.3-3.2
		s-1.7-2.7-3.2-2.3l-9.3,1.7C268.3,152.1,267.3,153.2,267.3,154.8z"/>
	
		<linearGradient id="SVGID_8_" gradientUnits="userSpaceOnUse" x1="157.3295" y1="1.8118" x2="21.7947" y2="201.7655" gradientTransform="matrix(1 0 0 -1 0 321.39)">
		<stop  offset="0" style="stop-color:#536FA5"/>
		<stop  offset="0.159" style="stop-color:#4C77AA"/>
		<stop  offset="0.33" style="stop-color:#4385B1"/>
		<stop  offset="0.66" style="stop-color:#3596AE"/>
		<stop  offset="0.994" style="stop-color:#27A7A9"/>
	</linearGradient>
	<path class="st8" d="M39.8,155.9l9.3,1.7c0.2,0,0.4,0,0.5,0c1.3,0,2.5-0.9,2.8-2.3c0-0.2,0-0.4,0-0.5c0-1.3-0.9-2.5-2.3-2.8
		l-9.3-1.7c-1.5-0.2-3.1,0.8-3.2,2.3C37.2,154,38.3,155.5,39.8,155.9z"/>
	
		<linearGradient id="SVGID_9_" gradientUnits="userSpaceOnUse" x1="296.1719" y1="95.9235" x2="160.6371" y2="295.8772" gradientTransform="matrix(1 0 0 -1 0 321.39)">
		<stop  offset="0" style="stop-color:#536FA5"/>
		<stop  offset="0.159" style="stop-color:#4C77AA"/>
		<stop  offset="0.33" style="stop-color:#4385B1"/>
		<stop  offset="0.66" style="stop-color:#3596AE"/>
		<stop  offset="0.994" style="stop-color:#27A7A9"/>
	</linearGradient>
	<path class="st9" d="M280.2,192.4l-9.3-1.7c-1.5-0.2-3.1,0.8-3.2,2.3c0,0.2,0,0.4,0,0.5c0,1.3,0.9,2.5,2.3,2.8l9.3,1.7
		c0.2,0,0.4,0,0.5,0c1.5,0,2.8-1.3,2.8-2.8C282.5,193.7,281.5,192.6,280.2,192.4z"/>
	
		<linearGradient id="SVGID_10_" gradientUnits="userSpaceOnUse" x1="184.5914" y1="20.2907" x2="49.0565" y2="220.2445" gradientTransform="matrix(1 0 0 -1 0 321.39)">
		<stop  offset="0" style="stop-color:#536FA5"/>
		<stop  offset="0.159" style="stop-color:#4C77AA"/>
		<stop  offset="0.33" style="stop-color:#4385B1"/>
		<stop  offset="0.66" style="stop-color:#3596AE"/>
		<stop  offset="0.994" style="stop-color:#27A7A9"/>
	</linearGradient>
	<path class="st10" d="M64.5,115.7l-8.2-4.7c-1.3-0.8-3.1-0.4-3.8,1.1c-0.8,1.3-0.4,3.1,0.9,3.8l8.2,4.7c1.3,0.8,3.1,0.4,3.8-1.1
		C66.4,118.1,65.9,116.5,64.5,115.7z"/>
	
		<linearGradient id="SVGID_11_" gradientUnits="userSpaceOnUse" x1="268.794" y1="77.3658" x2="133.2591" y2="277.3196" gradientTransform="matrix(1 0 0 -1 0 321.39)">
		<stop  offset="0" style="stop-color:#536FA5"/>
		<stop  offset="0.159" style="stop-color:#4C77AA"/>
		<stop  offset="0.33" style="stop-color:#4385B1"/>
		<stop  offset="0.66" style="stop-color:#3596AE"/>
		<stop  offset="0.994" style="stop-color:#27A7A9"/>
	</linearGradient>
	<path class="st11" d="M266.6,232.4l-8.2-4.7c-1.3-0.8-3.1-0.4-4,1.1s-0.4,3.1,1.1,4l8.2,4.7c1.3,0.8,3.1,0.4,3.8-0.9
		C268.5,234.9,268.1,233.2,266.6,232.4z"/>
	
		<linearGradient id="SVGID_12_" gradientUnits="userSpaceOnUse" x1="216.857" y1="42.1614" x2="81.3221" y2="242.1151" gradientTransform="matrix(1 0 0 -1 0 321.39)">
		<stop  offset="0" style="stop-color:#536FA5"/>
		<stop  offset="0.159" style="stop-color:#4C77AA"/>
		<stop  offset="0.33" style="stop-color:#4385B1"/>
		<stop  offset="0.66" style="stop-color:#3596AE"/>
		<stop  offset="0.994" style="stop-color:#27A7A9"/>
	</linearGradient>
	<path class="st12" d="M90.2,86.4L84,79.2c-0.9-1.1-2.8-1.3-4-0.4c-1.1,0.9-1.3,2.8-0.4,4l6.1,7.3c0.9,1.1,2.8,1.3,4,0.4
		C90.9,89.5,91.2,87.6,90.2,86.4z"/>
	
		<linearGradient id="SVGID_13_" gradientUnits="userSpaceOnUse" x1="250.2761" y1="64.8138" x2="114.7413" y2="264.7676" gradientTransform="matrix(1 0 0 -1 0 321.39)">
		<stop  offset="0" style="stop-color:#536FA5"/>
		<stop  offset="0.159" style="stop-color:#4C77AA"/>
		<stop  offset="0.33" style="stop-color:#4385B1"/>
		<stop  offset="0.66" style="stop-color:#3596AE"/>
		<stop  offset="0.994" style="stop-color:#27A7A9"/>
	</linearGradient>
	<path class="st13" d="M119,70c0.4,1.1,1.5,1.9,2.7,1.9c1.5,0,2.8-1.3,2.8-2.8c0-0.4,0-0.5-0.2-0.9l-3.2-9c-0.5-1.5-2.1-2.3-3.6-1.7
		c-1.5,0.5-2.3,2.1-1.7,3.6L119,70z"/>
	
		<linearGradient id="SVGID_14_" gradientUnits="userSpaceOnUse" x1="201.6873" y1="31.8789" x2="66.1526" y2="231.8327" gradientTransform="matrix(1 0 0 -1 0 321.39)">
		<stop  offset="0" style="stop-color:#536FA5"/>
		<stop  offset="0.159" style="stop-color:#4C77AA"/>
		<stop  offset="0.33" style="stop-color:#4385B1"/>
		<stop  offset="0.66" style="stop-color:#3596AE"/>
		<stop  offset="0.994" style="stop-color:#27A7A9"/>
	</linearGradient>
	<path class="st14" d="M225.6,198.9L225.6,198.9l-15.9-37.4c-0.5-1-1.5-1.7-2.5-1.7h-24.7v-13.2c0-1.5-1.2-2.8-2.8-2.8H137
		c-1.5,0-2.8,1.2-2.8,2.8v13.2h-23.9c-1.1,0-2.1,0.7-2.5,1.7l-16.2,37.4l0,0c-0.1,0.2-0.1,0.3-0.2,0.5v0.1v0.1
		c0,0.2-0.1,0.3-0.1,0.5l0,0v66c0,1.5,1.2,2.8,2.8,2.8H223c1.5,0,2.8-1.2,2.8-2.8v-66c0-0.2,0-0.5-0.1-0.7
		C225.7,199.1,225.6,199,225.6,198.9z M139.8,149.5h37.1v27.9h-37.1V149.5z M112.2,165.4h22.1v12.2h-1.9c-1.5,0-2.8,1.2-2.8,2.8
		s1.2,2.8,2.8,2.8h52.2c1.5,0,2.8-1.2,2.8-2.8s-1.2-2.8-2.8-2.8h-2.1v-12.2h22.7l13.6,31.8H98.4L112.2,165.4z M220.2,263.1H97v-60.4
		h123.2L220.2,263.1L220.2,263.1z"/>
	
		<linearGradient id="SVGID_15_" gradientUnits="userSpaceOnUse" x1="233.1382" y1="53.1973" x2="97.6034" y2="253.1511" gradientTransform="matrix(1 0 0 -1 0 321.39)">
		<stop  offset="0" style="stop-color:#536FA5"/>
		<stop  offset="0.159" style="stop-color:#4C77AA"/>
		<stop  offset="0.33" style="stop-color:#4385B1"/>
		<stop  offset="0.66" style="stop-color:#3596AE"/>
		<stop  offset="0.994" style="stop-color:#27A7A9"/>
	</linearGradient>
	<path class="st15" d="M169.9,155.4h-22.7c-1.5,0-2.8,1.2-2.8,2.8c0,1.5,1.2,2.8,2.8,2.8h22.7c1.5,0,2.8-1.2,2.8-2.8
		C172.7,156.6,171.4,155.4,169.9,155.4z"/>
	
		<linearGradient id="SVGID_16_" gradientUnits="userSpaceOnUse" x1="228.6913" y1="50.183" x2="93.1564" y2="250.1367" gradientTransform="matrix(1 0 0 -1 0 321.39)">
		<stop  offset="0" style="stop-color:#536FA5"/>
		<stop  offset="0.159" style="stop-color:#4C77AA"/>
		<stop  offset="0.33" style="stop-color:#4385B1"/>
		<stop  offset="0.66" style="stop-color:#3596AE"/>
		<stop  offset="0.994" style="stop-color:#27A7A9"/>
	</linearGradient>
	<path class="st16" d="M169.9,164.9h-22.7c-1.5,0-2.8,1.2-2.8,2.8s1.2,2.8,2.8,2.8h22.7c1.5,0,2.8-1.2,2.8-2.8
		S171.4,164.9,169.9,164.9z"/>
	
		<linearGradient id="SVGID_17_" gradientUnits="userSpaceOnUse" x1="225.3219" y1="47.8991" x2="89.7871" y2="247.8529" gradientTransform="matrix(1 0 0 -1 0 321.39)">
		<stop  offset="0" style="stop-color:#536FA5"/>
		<stop  offset="0.159" style="stop-color:#4C77AA"/>
		<stop  offset="0.33" style="stop-color:#4385B1"/>
		<stop  offset="0.66" style="stop-color:#3596AE"/>
		<stop  offset="0.994" style="stop-color:#27A7A9"/>
	</linearGradient>
	<path class="st17" d="M106.8,147c0.3,0,0.7-0.1,1-0.2l39.8-15.2c1.5-0.5,2.1-2.1,1.6-3.6l-15.1-39.6c-0.2-0.7-0.8-1.2-1.5-1.5
		c-0.7-0.3-1.5-0.3-2.1-0.1l-39.8,15.2c-0.7,0.2-1.2,0.8-1.5,1.5s-0.3,1.5-0.1,2.1l15.1,39.6C104.6,146.3,105.6,147,106.8,147z
		 M129.8,93.1l13.1,34.4l-34.5,13.2l-13.2-34.4L129.8,93.1z"/>
	
		<linearGradient id="SVGID_18_" gradientUnits="userSpaceOnUse" x1="227.271" y1="49.2202" x2="91.7361" y2="249.174" gradientTransform="matrix(1 0 0 -1 0 321.39)">
		<stop  offset="0" style="stop-color:#536FA5"/>
		<stop  offset="0.159" style="stop-color:#4C77AA"/>
		<stop  offset="0.33" style="stop-color:#4385B1"/>
		<stop  offset="0.66" style="stop-color:#3596AE"/>
		<stop  offset="0.994" style="stop-color:#27A7A9"/>
	</linearGradient>
	<path class="st18" d="M127.4,106.3c1.5-0.5,2.1-2.1,1.6-3.6s-2.1-2.1-3.6-1.6l-21.2,8.1c-1.5,0.5-2.1,2.1-1.6,3.6
		c0.5,1.1,1.5,1.8,2.6,1.8c0.3,0,0.7-0.1,1-0.2L127.4,106.3z"/>
	
		<linearGradient id="SVGID_19_" gradientUnits="userSpaceOnUse" x1="225.4381" y1="47.9909" x2="89.9032" y2="247.9447" gradientTransform="matrix(1 0 0 -1 0 321.39)">
		<stop  offset="0" style="stop-color:#536FA5"/>
		<stop  offset="0.159" style="stop-color:#4C77AA"/>
		<stop  offset="0.33" style="stop-color:#4385B1"/>
		<stop  offset="0.66" style="stop-color:#3596AE"/>
		<stop  offset="0.994" style="stop-color:#27A7A9"/>
	</linearGradient>
	<path class="st19" d="M109.5,123.4l21.3-8.1c1.5-0.5,2.1-2.1,1.6-3.6c-0.5-1.5-2.1-2.1-3.6-1.6l-21.3,8.1c-1.5,0.5-2.1,2.1-1.6,3.6
		c0.5,1.1,1.5,1.8,2.6,1.8C108.9,123.5,109.2,123.4,109.5,123.4z"/>
	
		<linearGradient id="SVGID_20_" gradientUnits="userSpaceOnUse" x1="223.6249" y1="46.7489" x2="88.0901" y2="246.7026" gradientTransform="matrix(1 0 0 -1 0 321.39)">
		<stop  offset="0" style="stop-color:#536FA5"/>
		<stop  offset="0.159" style="stop-color:#4C77AA"/>
		<stop  offset="0.33" style="stop-color:#4385B1"/>
		<stop  offset="0.66" style="stop-color:#3596AE"/>
		<stop  offset="0.994" style="stop-color:#27A7A9"/>
	</linearGradient>
	<path class="st20" d="M111.1,127.3c-1.5,0.5-2.1,2.1-1.6,3.6c0.5,1.1,1.5,1.8,2.6,1.8c0.3,0,0.7-0.1,1-0.2l21.3-8.1
		c1.5-0.5,2.1-2.1,1.6-3.6s-2.1-2.1-3.6-1.6L111.1,127.3z"/>
	
		<linearGradient id="SVGID_21_" gradientUnits="userSpaceOnUse" x1="284.7008" y1="88.1479" x2="149.1659" y2="288.1017" gradientTransform="matrix(1 0 0 -1 0 321.39)">
		<stop  offset="0" style="stop-color:#536FA5"/>
		<stop  offset="0.159" style="stop-color:#4C77AA"/>
		<stop  offset="0.33" style="stop-color:#4385B1"/>
		<stop  offset="0.66" style="stop-color:#3596AE"/>
		<stop  offset="0.994" style="stop-color:#27A7A9"/>
	</linearGradient>
	<path class="st21" d="M226.1,89.9l-39.8-15.2c-0.7-0.2-1.5-0.2-2.1,0.1s-1.2,0.8-1.5,1.5l-15.1,39.6c-0.2,0.7-0.2,1.5,0.1,2.1
		s0.8,1.2,1.5,1.5l39.8,15.2c0.3,0.2,0.7,0.2,1,0.2c0.4,0,0.8-0.1,1.1-0.2c0.7-0.3,1.2-0.8,1.5-1.5l15.1-39.6
		C228.2,92.1,227.4,90.5,226.1,89.9z M208.4,128.5l-34.6-13.2l13.1-34.4l34.6,13.2L208.4,128.5z"/>
	
		<linearGradient id="SVGID_22_" gradientUnits="userSpaceOnUse" x1="291.254" y1="92.5899" x2="155.7192" y2="292.5437" gradientTransform="matrix(1 0 0 -1 0 321.39)">
		<stop  offset="0" style="stop-color:#536FA5"/>
		<stop  offset="0.159" style="stop-color:#4C77AA"/>
		<stop  offset="0.33" style="stop-color:#4385B1"/>
		<stop  offset="0.66" style="stop-color:#3596AE"/>
		<stop  offset="0.994" style="stop-color:#27A7A9"/>
	</linearGradient>
	<path class="st22" d="M189.3,94.1l21.3,8.1c0.3,0.2,0.7,0.2,1,0.2c1.1,0,2.1-0.7,2.6-1.8c0.5-1.5-0.2-3.1-1.6-3.6l-21.3-8.1
		c-1.5-0.5-3.1,0.2-3.6,1.6C187.1,91.9,187.8,93.6,189.3,94.1z"/>
	
		<linearGradient id="SVGID_23_" gradientUnits="userSpaceOnUse" x1="284.7184" y1="88.1599" x2="149.1835" y2="288.1137" gradientTransform="matrix(1 0 0 -1 0 321.39)">
		<stop  offset="0" style="stop-color:#536FA5"/>
		<stop  offset="0.159" style="stop-color:#4C77AA"/>
		<stop  offset="0.33" style="stop-color:#4385B1"/>
		<stop  offset="0.66" style="stop-color:#3596AE"/>
		<stop  offset="0.994" style="stop-color:#27A7A9"/>
	</linearGradient>
	<path class="st23" d="M209.1,106l-21.3-8.1c-1.5-0.5-3.1,0.2-3.6,1.6c-0.5,1.5,0.2,3.1,1.6,3.6l21.3,8.1c0.3,0.2,0.7,0.2,1,0.2
		c1.1,0,2.1-0.7,2.6-1.8C211.3,108.1,210.5,106.5,209.1,106z"/>
	
		<linearGradient id="SVGID_24_" gradientUnits="userSpaceOnUse" x1="278.0464" y1="83.6374" x2="142.5116" y2="283.5912" gradientTransform="matrix(1 0 0 -1 0 321.39)">
		<stop  offset="0" style="stop-color:#536FA5"/>
		<stop  offset="0.159" style="stop-color:#4C77AA"/>
		<stop  offset="0.33" style="stop-color:#4385B1"/>
		<stop  offset="0.66" style="stop-color:#3596AE"/>
		<stop  offset="0.994" style="stop-color:#27A7A9"/>
	</linearGradient>
	<path class="st24" d="M205.6,115.2l-21.3-8.1c-1.5-0.5-3.1,0.2-3.6,1.6c-0.5,1.5,0.2,3.1,1.6,3.6l21.3,8.1c0.3,0.2,0.7,0.2,1,0.2
		c1.1,0,2.1-0.7,2.6-1.8C207.7,117.3,207.1,115.7,205.6,115.2z"/>
</g>
</svg>
