<svg xmlns="http://www.w3.org/2000/svg" xmlns:xlink="http://www.w3.org/1999/xlink" width="320" height="320" viewBox="0 0 320 320">
  <defs>
    <style>
      .cls-1 {
        fill: url(#名称未設定グラデーション_10);
      }
    </style>
    <linearGradient id="名称未設定グラデーション_10" data-name="名称未設定グラデーション 10" x1="214.301" y1="263.545" x2="101.126" y2="67.52" gradientUnits="userSpaceOnUse">
      <stop offset="0" stop-color="#5674af"/>
      <stop offset="0.159" stop-color="#4f7db4"/>
      <stop offset="0.33" stop-color="#438dbc"/>
      <stop offset="0.66" stop-color="#339fb9"/>
      <stop offset="0.994" stop-color="#24b1b4"/>
    </linearGradient>
  </defs>
  <title>welfare02</title>
  <g id="welfare02">
    <path class="cls-1" d="M158,211.779v-1a2,2,0,0,1,4,0v1a2,2,0,0,1-4,0Zm0,10a2,2,0,0,0,4,0v-2a2,2,0,0,0-4,0Zm0,9a2,2,0,0,0,4,0v-1a2,2,0,0,0-4,0ZM241.722,206.8a2,2,0,0,0-.7-2.739l-.861-.509a2,2,0,1,0-2.035,3.443l.86.509a2,2,0,0,0,2.74-.7Zm-17.8-12.846-1.8-1.066a2,2,0,1,0-2.035,3.443l1.8,1.067a2,2,0,1,0,2.035-3.444Zm9.021,5.332-1.8-1.066a2,2,0,1,0-2.035,3.443l1.8,1.067a2,2,0,0,0,2.035-3.444ZM214.9,188.619l-1.8-1.066A2,2,0,1,0,211.06,191l1.8,1.066a2,2,0,0,0,2.035-3.443Zm-9.021-5.332-.86-.509a2,2,0,0,0-2.036,3.444l.861.508a2,2,0,1,0,2.035-3.443ZM198,140a1.984,1.984,0,0,0,1-.271l.865-.5a2,2,0,0,0-2.008-3.459l-.865.5A2,2,0,0,0,198,140Zm21.156-14.294a2,2,0,0,0-2.734-.725l-1.857,1.079a2,2,0,0,0,2.009,3.459l1.857-1.079A2,2,0,0,0,219.158,125.706Zm-9.283,5.393a2,2,0,0,0-2.733-.725l-1.857,1.079a2,2,0,1,0,2.01,3.459l1.856-1.079A2,2,0,0,0,209.875,131.1Zm18.564-10.787a2,2,0,0,0-2.733-.724l-1.857,1.078a2,2,0,1,0,2.009,3.459l1.856-1.078A2,2,0,0,0,228.439,120.312ZM234,114.771l-.865.5a2,2,0,1,0,2.008,3.459l.865-.5A2,2,0,0,0,234,114.771ZM160,91.779a2,2,0,0,0,2-2v-1a2,2,0,0,0-4,0v1A2,2,0,0,0,160,91.779Zm-2,14.944a2,2,0,1,0,4,0v-1.695a2,2,0,0,0-4,0Zm0-8.472a2,2,0,0,0,4,0V96.557a2,2,0,0,0-4,0Zm0,16.249a2,2,0,0,0,4,0v-1a2,2,0,0,0-4,0Zm-37.262,22.49a2,2,0,0,0-.748-2.728l-.869-.5a2,2,0,1,0-1.98,3.476l.869.5a2,2,0,0,0,2.728-.748Zm-7.24-4.122a2,2,0,0,0-.748-2.728l-1.593-.908a2,2,0,0,0-1.98,3.477l1.593.907a2,2,0,0,0,2.728-.748ZM97.57,123.8a2,2,0,0,0-.748-2.729l-1.593-.907a2,2,0,0,0-1.979,3.477l1.593.907a2,2,0,0,0,2.727-.748Zm7.964,4.535a2,2,0,0,0-.748-2.728l-1.592-.907a2,2,0,1,0-1.981,3.475l1.593.907a1.978,1.978,0,0,0,.988.263A2,2,0,0,0,105.534,128.334Zm-17.667-8.06a2,2,0,0,0,.992-3.738l-.869-.5a2,2,0,0,0-1.98,3.477l.869.5A2,2,0,0,0,87.867,120.274ZM115,183.77l-.865.5a2,2,0,1,0,2,3.46l.865-.5a2,2,0,1,0-2-3.46Zm-25.381,14.7-1.751,1.014a2,2,0,1,0,2.006,3.461l1.751-1.014a2,2,0,1,0-2.006-3.461Zm8.756-5.073-1.751,1.015a2,2,0,0,0,2,3.461l1.751-1.015a2,2,0,1,0-2-3.461Zm8.754-5.073-1.751,1.015a2,2,0,0,0,2.006,3.461l1.751-1.015a2,2,0,1,0-2.006-3.461ZM80.863,203.548l-.865.5a2,2,0,0,0,2,3.461l.865-.5a2,2,0,1,0-2-3.461ZM177,271v5.5a2,2,0,0,1-2,2H145a2,2,0,0,1-2-2V271a16.513,16.513,0,0,1,10.984-15.531,10,10,0,1,1,12.032,0A16.513,16.513,0,0,1,177,271Zm-23-23.5a6,6,0,1,0,6-6A6.006,6.006,0,0,0,154,247.5ZM173,271a12.514,12.514,0,0,0-12.5-12.5h-1A12.514,12.514,0,0,0,147,271v3.5h26ZM143,80.5V75a16.513,16.513,0,0,1,10.984-15.531,10,10,0,1,1,12.032,0A16.513,16.513,0,0,1,177,75v5.5a2,2,0,0,1-2,2H145A2,2,0,0,1,143,80.5Zm11-29a6,6,0,1,0,6-6A6.006,6.006,0,0,0,154,51.5Zm-7,27h26V75a12.514,12.514,0,0,0-12.5-12.5h-1A12.514,12.514,0,0,0,147,75Zm-100,51V124a16.513,16.513,0,0,1,10.984-15.531,10,10,0,1,1,12.032,0A16.513,16.513,0,0,1,81,124v5.5a2,2,0,0,1-2,2H49A2,2,0,0,1,47,129.5Zm11-29a6,6,0,1,0,6-6A6.006,6.006,0,0,0,58,100.5Zm-7,27H77V124a12.514,12.514,0,0,0-12.5-12.5h-1A12.514,12.514,0,0,0,51,124ZM273,124v5.5a2,2,0,0,1-2,2H241a2,2,0,0,1-2-2V124a16.513,16.513,0,0,1,10.984-15.531,10,10,0,1,1,12.032,0A16.513,16.513,0,0,1,273,124Zm-23-23.5a6,6,0,1,0,6-6A6.006,6.006,0,0,0,250,100.5ZM269,124a12.514,12.514,0,0,0-12.5-12.5h-1A12.514,12.514,0,0,0,243,124v3.5h26ZM81,223v5.5a2,2,0,0,1-2,2H49a2,2,0,0,1-2-2V223a16.513,16.513,0,0,1,10.984-15.531,10,10,0,1,1,12.032,0A16.513,16.513,0,0,1,81,223ZM58,199.5a6,6,0,1,0,6-6A6.006,6.006,0,0,0,58,199.5ZM77,223a12.514,12.514,0,0,0-12.5-12.5h-1A12.514,12.514,0,0,0,51,223v3.5H77Zm196,0v5.5a2,2,0,0,1-2,2H241a2,2,0,0,1-2-2V223a16.513,16.513,0,0,1,10.984-15.531,10,10,0,1,1,12.032,0A16.513,16.513,0,0,1,273,223Zm-23-23.5a6,6,0,1,0,6-6A6.006,6.006,0,0,0,250,199.5ZM269,223a12.514,12.514,0,0,0-12.5-12.5h-1A12.514,12.514,0,0,0,243,223v3.5h26ZM139.882,153.839a1.5,1.5,0,0,0-1.764,0l-5.139,3.734a1.5,1.5,0,0,0-.545,1.678l1.962,6.042a1.5,1.5,0,0,0,1.427,1.036h6.354a1.5,1.5,0,0,0,1.427-1.036l1.962-6.042a1.5,1.5,0,0,0-.545-1.678Zm5.356,25.857A19.836,19.836,0,0,1,122.9,149.272a19.81,19.81,0,0,1,32.2.009,19.618,19.618,0,0,1,3.738,11.476v.1a19.859,19.859,0,0,1-13.6,18.84Zm1.077-10.268h6a15.661,15.661,0,0,0,2.494-7.677l-4.851-3.525a1.5,1.5,0,0,1-.545-1.677l1.85-5.7a15.952,15.952,0,0,0-6.52-4.759l-4.859,3.532a1.5,1.5,0,0,1-1.764,0l-4.855-3.529a15.906,15.906,0,0,0-6.524,4.756l1.85,5.7a1.5,1.5,0,0,1-.545,1.677l-4.848,3.523a15.689,15.689,0,0,0,2.491,7.679h6a1.5,1.5,0,0,1,1.426,1.036l1.857,5.711a16.049,16.049,0,0,0,8.065,0l1.856-5.707A1.5,1.5,0,0,1,146.315,169.428ZM156,133a11,11,0,1,1,11,11A11.013,11.013,0,0,1,156,133Zm16.817,3.887a6.98,6.98,0,0,0,0-7.774A6.491,6.491,0,0,0,172.817,136.887Zm-8.554,2.555a6.992,6.992,0,0,0,5.474,0,10.5,10.5,0,0,1,0-12.884,6.992,6.992,0,0,0-5.474,0A10.5,10.5,0,0,1,164.263,139.442ZM160,133a6.957,6.957,0,0,0,1.183,3.887,6.491,6.491,0,0,0,0-7.774A6.964,6.964,0,0,0,160,133Zm42.312,32.412a21.687,21.687,0,0,1-6.434,13.391,21.442,21.442,0,0,1-14.969,6.485,17.58,17.58,0,0,1-3.088-.271,15.251,15.251,0,0,0-10,4.614l-1.192,1.191a2.993,2.993,0,0,1-.577,3.405l-11.136,11.136a4,4,0,0,1-5.657,0l-4.243-4.242a4,4,0,0,1,0-5.657l11.136-11.137a3,3,0,0,1,3.406-.577l1.191-1.19a15.236,15.236,0,0,0,4.615-10.11c-1.03-5.994,1.091-12.833,6.212-17.954a21.7,21.7,0,0,1,13.391-6.434,15.572,15.572,0,0,1,17.349,17.35Zm-39.8,26.693-4.242-4.243-10.431,10.431,4.243,4.242,0,0Zm8.99-9.717a14.9,14.9,0,0,1-1.919-1.6,14.74,14.74,0,0,1-1.591-1.922,20.493,20.493,0,0,1-4.419,6.518l-1.061,1.06,1.111,1.112.3.3,1.061-1.06A20.435,20.435,0,0,1,171.5,182.388Zm23.537-27.052a11.783,11.783,0,0,0-8.49-3.341c-.412,0-.827.018-1.249.054a17.692,17.692,0,0,0-10.9,5.275,17.183,17.183,0,0,0-5.276,13.239,1.969,1.969,0,0,1,.243.848c.013.274-.007.548-.008.822a11.135,11.135,0,0,0,8.786,8.785c.273,0,.547-.023.819-.01a1.982,1.982,0,0,1,.85.243,17.189,17.189,0,0,0,13.236-5.276,17.688,17.688,0,0,0,5.276-10.9A12.038,12.038,0,0,0,195.039,155.336Zm-2.087,4.542a2,2,0,0,0-1.217,2.553,7.336,7.336,0,0,1,.409,2.46,10.669,10.669,0,0,1-10.177,10.176,6.4,6.4,0,0,1-6.66-6.66,8.727,8.727,0,0,1,.176-1.724,2,2,0,1,0-3.921-.791,12.76,12.76,0,0,0-.255,2.515,10.4,10.4,0,0,0,10.66,10.66,14.658,14.658,0,0,0,14.177-14.176,11.31,11.31,0,0,0-.639-3.8A2,2,0,0,0,192.952,159.878Zm-15.945,2.054a2,2,0,0,0,1.414-.586,10.1,10.1,0,0,1,7.473-3.1,2,2,0,1,0,.206-3.994,14.079,14.079,0,0,0-10.507,4.27,2,2,0,0,0,1.414,3.414Z"/>
  </g>
</svg>
