<?xml version="1.0" encoding="utf-8"?>
<!-- Generator: Adobe Illustrator 22.1.0, SVG Export Plug-In . SVG Version: 6.00 Build 0)  -->
<svg version="1.1" id="レイヤー_1" xmlns="http://www.w3.org/2000/svg" xmlns:xlink="http://www.w3.org/1999/xlink" x="0px"
	 y="0px" width="320px" height="320px" viewBox="0 0 320 320" style="enable-background:new 0 0 320 320;" xml:space="preserve">
<style type="text/css">
	.st0{fill:url(#SVGID_1_);}
	.st1{enable-background:new    ;}
</style>
<linearGradient id="SVGID_1_" gradientUnits="userSpaceOnUse" x1="245.979" y1="74.0747" x2="71.181" y2="251.4508" gradientTransform="matrix(1 0 0 -1 0 321.39)">
	<stop  offset="0" style="stop-color:#5674AF"/>
	<stop  offset="0.159" style="stop-color:#4F7DB4"/>
	<stop  offset="0.33" style="stop-color:#438DBC"/>
	<stop  offset="0.66" style="stop-color:#339FB9"/>
	<stop  offset="0.994" style="stop-color:#24B1B4"/>
</linearGradient>
<path class="st0" d="M160.1,37.2c-67.8,0-122.9,55.1-122.9,123s55.1,122.9,122.9,122.9S283,227.9,283,160.2S227.9,37.2,160.1,37.2z
	 M214.2,228.9c0-29.9-24.3-54.1-54.1-54.1S106,199.1,106,228.9c0,17.5,8.4,33,21.2,42.9c-28-12.6-47.6-40.8-47.6-73.5
	c0-44.4,36.1-80.5,80.5-80.5s80.5,36.1,80.5,80.5c0,32.7-19.6,60.9-47.6,73.5C206,262,214.2,246.4,214.2,228.9z M160.1,278.9
	c-27.5,0-50-22.4-50-50s22.4-50,50-50s50,22.4,50,50C210.1,256.5,187.7,278.9,160.1,278.9z M205.3,270c23.7-15,39.5-41.5,39.5-71.6
	c0-46.7-38-84.7-84.7-84.7s-84.7,38-84.7,84.7c0,30.1,15.8,56.5,39.5,71.6c-43.2-17.8-73.6-60.3-73.6-109.8
	C41.4,94.7,94.7,41.4,160.1,41.4s118.8,53.3,118.8,118.8C278.9,209.7,248.4,252.2,205.3,270z"/>
<g>
	<g class="st1">
		<path d="M137.8,73.2l0.6-1c0.1-0.2,0.4-0.2,0.5-0.1c0.1,0,1.4,1,2.4,1c0.8,0,1.4-0.5,1.4-1.2c0-0.8-0.7-1.4-2-1.9
			c-1.5-0.6-3-1.5-3-3.4c0-1.4,1-3,3.5-3c1.6,0,2.8,0.8,3.1,1.1c0.2,0.1,0.2,0.4,0.1,0.5l-0.6,0.9c-0.1,0.2-0.4,0.3-0.6,0.2
			c-0.1-0.1-1.3-0.9-2.2-0.9c-0.9,0-1.4,0.6-1.4,1.1c0,0.7,0.6,1.2,1.9,1.8c1.5,0.6,3.3,1.5,3.3,3.6c0,1.6-1.4,3.1-3.6,3.1
			c-2,0-3.1-0.9-3.5-1.2C137.7,73.6,137.6,73.5,137.8,73.2z"/>
		<path d="M149.1,68.3c1.8,0,3.2,1.5,3.2,3.3c0,1.8-1.4,3.3-3.2,3.3s-3.2-1.5-3.2-3.3C145.9,69.9,147.3,68.3,149.1,68.3z
			 M149.1,73.2c0.8,0,1.5-0.7,1.5-1.6c0-0.9-0.7-1.6-1.5-1.6c-0.8,0-1.5,0.7-1.5,1.6C147.6,72.5,148.3,73.2,149.1,73.2z"/>
		<path d="M156.6,68.3c1,0,1.7,0.4,2.3,1.1c0.1,0.1,0.1,0.3-0.1,0.4l-0.7,0.7c-0.1,0.1-0.3,0-0.4,0c-0.3-0.3-0.6-0.5-1.1-0.5
			c-0.8,0-1.5,0.7-1.5,1.6c0,0.9,0.7,1.6,1.5,1.6c0.7,0,1-0.3,1.3-0.6c0.1-0.1,0.3-0.1,0.4,0l0.7,0.6c0.2,0.1,0.2,0.3,0.1,0.4
			c-0.5,0.8-1.4,1.3-2.5,1.3c-1.8,0-3.3-1.4-3.3-3.3C153.2,69.8,154.8,68.3,156.6,68.3z"/>
		<path d="M160.3,65.2c0-0.6,0.5-1.1,1.1-1.1c0.6,0,1.1,0.5,1.1,1.1c0,0.6-0.5,1.1-1.1,1.1C160.7,66.3,160.3,65.8,160.3,65.2z
			 M160.4,68.8c0-0.2,0.1-0.3,0.3-0.3h1.3c0.2,0,0.3,0.1,0.3,0.3v5.7c0,0.2-0.1,0.3-0.3,0.3h-1.3c-0.2,0-0.3-0.1-0.3-0.3V68.8z"/>
		<path d="M166.9,68.3c1.6,0,2.9,1.2,2.9,2.9c0,0.1,0,0.3,0,0.4c0,0.2-0.2,0.3-0.3,0.3h-4c0,0.6,0.6,1.4,1.5,1.4
			c0.5,0,0.9-0.2,1.2-0.4c0.2-0.1,0.3-0.1,0.4,0l0.6,0.7c0.1,0.1,0.1,0.3,0,0.4c-0.5,0.5-1.3,0.9-2.3,0.9c-1.9,0-3.2-1.5-3.2-3.3
			C163.7,69.9,165.1,68.3,166.9,68.3z M168,70.9c0-0.6-0.6-1.1-1.1-1.1c-0.6,0-1.1,0.5-1.2,1.1H168z"/>
		<path d="M171.5,70.2H171c-0.2,0-0.3-0.1-0.3-0.3v-1.1c0-0.2,0.1-0.3,0.3-0.3h0.5v-1.7c0-0.2,0.1-0.3,0.3-0.3l1.3,0
			c0.2,0,0.3,0.1,0.3,0.3v1.8h1.4c0.2,0,0.3,0.1,0.3,0.3v1.1c0,0.2-0.1,0.3-0.3,0.3h-1.4v2.5c0,0.4,0.2,0.5,0.5,0.5
			c0.3,0,0.6-0.1,0.8-0.2c0.2-0.1,0.3,0,0.3,0.2l0.3,1c0.1,0.2,0,0.3-0.2,0.4c-0.1,0-1.1,0.4-1.9,0.4c-1.2,0-1.7-0.8-1.7-2V70.2z"/>
		<path d="M175.8,68.9c-0.1-0.2,0-0.4,0.3-0.4h1.4c0.1,0,0.2,0.1,0.3,0.2l1.6,3.6h0l1.6-3.6c0.1-0.2,0.2-0.2,0.4-0.2h1.3
			c0.3,0,0.4,0.2,0.3,0.4L178,79.3c0,0.1-0.1,0.2-0.3,0.2h-1.4c-0.2,0-0.4-0.2-0.3-0.4l2.2-4.7L175.8,68.9z"/>
	</g>
	<g>
		<g class="st1">
			<path d="M195.7,94.9c1.6,0,2.7,0.5,3.8,1.5c0.1,0.1,0.1,0.3,0,0.4l-1,1c-0.1,0.1-0.3,0.1-0.4,0c-0.7-0.6-1.5-0.9-2.4-0.9
				c-2,0-3.5,1.7-3.5,3.7c0,2,1.5,3.6,3.5,3.6c0.9,0,1.7-0.4,2.4-0.9c0.1-0.1,0.3-0.1,0.4,0l1,1c0.1,0.1,0.1,0.3,0,0.4
				c-1.1,1-2.4,1.5-3.8,1.5c-3.1,0-5.7-2.5-5.7-5.6C190,97.4,192.5,94.9,195.7,94.9z"/>
			<path d="M203,102c0.6,0,1.1,0.2,1.1,0.2c0-0.8-0.2-1.1-0.8-1.1c-0.6,0-1.4,0.1-1.8,0.2c-0.2,0.1-0.3-0.1-0.4-0.3l-0.1-0.8
				c0-0.2,0.1-0.3,0.2-0.4c0.1,0,1.1-0.3,2.1-0.3c2,0,2.4,1,2.4,2.7v3.4c0,0.2-0.1,0.3-0.3,0.3H205c-0.1,0-0.2,0-0.3-0.2l-0.2-0.4
				c-0.4,0.3-0.9,0.8-1.9,0.8c-1.3,0-2.1-0.8-2.1-2.2C200.5,102.9,201.4,102,203,102z M203,104.8c0.5,0,1-0.4,1.1-0.6v-0.9
				c0,0-0.4-0.2-0.9-0.2c-0.6,0-1,0.3-1,0.8C202.2,104.5,202.5,104.8,203,104.8z"/>
			<path d="M207.7,100c0-0.2,0.1-0.3,0.3-0.3h0.6c0.1,0,0.2,0.1,0.3,0.2l0.2,0.6c0.2-0.3,1-0.9,2.2-0.9c2,0,2.8,1.5,2.8,3.1v3
				c0,0.2-0.1,0.3-0.3,0.3h-1.3c-0.2,0-0.3-0.1-0.3-0.3v-3.1c0-0.8-0.4-1.3-1.2-1.3c-0.8,0-1.3,0.6-1.5,1v3.5c0,0.2-0.1,0.3-0.4,0.3
				h-1.2c-0.2,0-0.3-0.1-0.3-0.3V100z"/>
			<path d="M218.4,99.6c0.6,0,1.1,0.2,1.4,0.3v-4.5c0-0.2,0.1-0.3,0.3-0.3h1.3c0.2,0,0.3,0.1,0.3,0.3v10.4c0,0.2-0.1,0.3-0.3,0.3
				h-0.6c-0.1,0-0.3-0.1-0.3-0.3l-0.2-0.5c0,0-0.7,0.9-2.1,0.9c-1.7,0-3-1.5-3-3.3C215.3,101,216.6,99.6,218.4,99.6z M218.6,104.5
				c0.8,0,1.2-0.6,1.3-1v-1.8c0,0-0.4-0.4-1.2-0.4c-0.9,0-1.5,0.7-1.5,1.6C217.2,103.8,217.8,104.5,218.6,104.5z"/>
			<path d="M223.5,96.4c0-0.6,0.5-1.1,1.1-1.1c0.6,0,1.1,0.5,1.1,1.1c0,0.6-0.5,1.1-1.1,1.1C224,97.5,223.5,97,223.5,96.4z
				 M223.7,100c0-0.2,0.1-0.3,0.3-0.3h1.3c0.2,0,0.3,0.1,0.3,0.3v5.7c0,0.2-0.1,0.3-0.3,0.3H224c-0.2,0-0.3-0.1-0.3-0.3V100z"/>
			<path d="M230.1,99.6c0.6,0,1.1,0.2,1.4,0.3v-4.5c0-0.2,0.1-0.3,0.3-0.3h1.3c0.2,0,0.3,0.1,0.3,0.3v10.4c0,0.2-0.1,0.3-0.3,0.3
				h-0.6c-0.1,0-0.3-0.1-0.3-0.3l-0.2-0.5c0,0-0.7,0.9-2.1,0.9c-1.7,0-3-1.5-3-3.3C227,101,228.2,99.6,230.1,99.6z M230.2,104.5
				c0.8,0,1.2-0.6,1.3-1v-1.8c0,0-0.4-0.4-1.2-0.4c-0.9,0-1.5,0.7-1.5,1.6C228.8,103.8,229.4,104.5,230.2,104.5z"/>
			<path d="M237.4,102c0.6,0,1.1,0.2,1.1,0.2c0-0.8-0.2-1.1-0.8-1.1c-0.6,0-1.4,0.1-1.8,0.2c-0.2,0.1-0.3-0.1-0.4-0.3l-0.1-0.8
				c0-0.2,0.1-0.3,0.2-0.4c0.1,0,1.1-0.3,2.1-0.3c2,0,2.4,1,2.4,2.7v3.4c0,0.2-0.1,0.3-0.3,0.3h-0.6c-0.1,0-0.2,0-0.3-0.2l-0.2-0.4
				c-0.4,0.3-0.9,0.8-1.9,0.8c-1.3,0-2.1-0.8-2.1-2.2C234.9,102.9,235.8,102,237.4,102z M237.4,104.8c0.5,0,1-0.4,1.1-0.6v-0.9
				c0,0-0.4-0.2-0.9-0.2c-0.6,0-1,0.3-1,0.8C236.6,104.5,236.9,104.8,237.4,104.8z"/>
			<path d="M242.4,101.4h-0.5c-0.2,0-0.3-0.1-0.3-0.3V100c0-0.2,0.1-0.3,0.3-0.3h0.5V98c0-0.2,0.1-0.3,0.3-0.3l1.3,0
				c0.2,0,0.3,0.1,0.3,0.3v1.8h1.4c0.2,0,0.3,0.1,0.3,0.3v1.1c0,0.2-0.1,0.3-0.3,0.3h-1.4v2.5c0,0.4,0.2,0.5,0.5,0.5
				c0.3,0,0.6-0.1,0.8-0.2c0.2-0.1,0.3,0,0.3,0.2l0.3,1c0.1,0.2,0,0.3-0.2,0.4c-0.1,0-1.1,0.4-1.9,0.4c-1.2,0-1.7-0.8-1.7-2V101.4z"
				/>
			<path d="M250.2,99.6c1.6,0,2.9,1.2,2.9,2.9c0,0.1,0,0.3,0,0.4c0,0.2-0.2,0.3-0.3,0.3h-4c0,0.6,0.6,1.4,1.5,1.4
				c0.5,0,0.9-0.2,1.2-0.4c0.2-0.1,0.3-0.1,0.4,0l0.6,0.7c0.1,0.1,0.1,0.3,0,0.4c-0.5,0.5-1.3,0.9-2.3,0.9c-1.9,0-3.2-1.5-3.2-3.3
				C247,101.1,248.3,99.6,250.2,99.6z M251.3,102.1c0-0.6-0.5-1.1-1.1-1.1c-0.6,0-1.1,0.5-1.2,1.1H251.3z"/>
		</g>
	</g>
	<g>
		<g class="st1">
			<path d="M76.5,94.9c1.6,0,2.7,0.5,3.8,1.5c0.1,0.1,0.1,0.3,0,0.4l-1,1c-0.1,0.1-0.3,0.1-0.4,0c-0.7-0.6-1.5-0.9-2.4-0.9
				c-2,0-3.5,1.7-3.5,3.7c0,2,1.5,3.6,3.5,3.6c0.9,0,1.7-0.4,2.4-0.9c0.1-0.1,0.3-0.1,0.4,0l1,1c0.1,0.1,0.1,0.3,0,0.4
				c-1.1,1-2.4,1.5-3.8,1.5c-3.1,0-5.7-2.5-5.7-5.6C70.9,97.4,73.4,94.9,76.5,94.9z"/>
			<path d="M81.5,100c0-0.2,0.1-0.3,0.3-0.3h1.3c0.2,0,0.3,0.1,0.3,0.3v3.1c0,0.8,0.4,1.4,1.1,1.4c0.7,0,1.2-0.6,1.3-1.2V100
				c0-0.2,0.1-0.3,0.3-0.3h1.2c0.2,0,0.3,0.1,0.3,0.3v5.7c0,0.2-0.1,0.3-0.3,0.3h-0.6c-0.2,0-0.3-0.1-0.3-0.2l-0.2-0.5
				c-0.3,0.3-0.9,0.9-2.1,0.9c-1.9,0-2.7-1.5-2.7-3.1V100z"/>
			<path d="M89.2,105.3l0.4-0.8c0.1-0.2,0.2-0.2,0.4-0.1c0,0,0.7,0.4,1.4,0.4c0.3,0,0.5-0.1,0.5-0.4c0-0.3-0.2-0.5-1.1-0.8
				c-1.2-0.5-1.8-1.1-1.8-2.1c0-1,0.7-1.9,2.3-1.9c0.9,0,1.6,0.3,1.9,0.5c0.1,0.1,0.2,0.3,0.1,0.4l-0.4,0.8
				c-0.1,0.1-0.3,0.2-0.4,0.1c0,0-0.7-0.3-1.3-0.3c-0.4,0-0.5,0.2-0.5,0.4c0,0.3,0.3,0.4,0.9,0.6c1.2,0.5,2.1,1,2.1,2.2
				c0,1-0.9,1.9-2.5,1.9c-1,0-1.8-0.3-2.1-0.6C89.2,105.5,89.1,105.4,89.2,105.3z"/>
			<path d="M95.6,101.4H95c-0.2,0-0.3-0.1-0.3-0.3V100c0-0.2,0.1-0.3,0.3-0.3h0.5V98c0-0.2,0.1-0.3,0.3-0.3l1.3,0
				c0.2,0,0.3,0.1,0.3,0.3v1.8h1.4c0.2,0,0.3,0.1,0.3,0.3v1.1c0,0.2-0.1,0.3-0.3,0.3h-1.4v2.5c0,0.4,0.2,0.5,0.5,0.5
				c0.3,0,0.6-0.1,0.8-0.2c0.2-0.1,0.3,0,0.3,0.2l0.3,1c0.1,0.2,0,0.3-0.2,0.4c-0.1,0-1.1,0.4-1.9,0.4c-1.2,0-1.7-0.8-1.7-2V101.4z"
				/>
			<path d="M103.4,99.6c1.8,0,3.2,1.5,3.2,3.3c0,1.8-1.4,3.3-3.2,3.3s-3.2-1.5-3.2-3.3C100.2,101.1,101.6,99.6,103.4,99.6z
				 M103.4,104.5c0.8,0,1.5-0.7,1.5-1.6c0-0.9-0.7-1.6-1.5-1.6c-0.8,0-1.5,0.7-1.5,1.6C101.9,103.8,102.5,104.5,103.4,104.5z"/>
			<path d="M108,100c0-0.2,0.1-0.3,0.3-0.3h0.6c0.1,0,0.2,0.1,0.3,0.2l0.2,0.6c0.3-0.3,1-0.9,2.1-0.9c0.9,0,1.5,0.3,2,1
				c0.3-0.3,1.1-1,2.2-1c2,0,2.8,1.5,2.8,3.1v3c0,0.2-0.1,0.3-0.3,0.3h-1.3c-0.2,0-0.3-0.1-0.3-0.3v-3.1c0-0.8-0.4-1.3-1.2-1.3
				c-0.9,0-1.3,0.7-1.3,0.7s0,0.3,0,0.6v3.2c0,0.2-0.1,0.3-0.3,0.3h-1.2c-0.2,0-0.3-0.1-0.3-0.3v-3.1c0-0.8-0.4-1.3-1.2-1.3
				c-0.8,0-1.2,0.6-1.3,1v3.5c0,0.2-0.1,0.3-0.3,0.3h-1.3c-0.2,0-0.3-0.1-0.3-0.3V100z"/>
			<path d="M123,99.6c1.6,0,2.9,1.2,2.9,2.9c0,0.1,0,0.3,0,0.4c0,0.2-0.2,0.3-0.3,0.3h-4c0,0.6,0.6,1.4,1.5,1.4
				c0.5,0,0.9-0.2,1.2-0.4c0.2-0.1,0.3-0.1,0.4,0l0.6,0.7c0.1,0.1,0.1,0.3,0,0.4c-0.5,0.5-1.3,0.9-2.3,0.9c-1.9,0-3.2-1.5-3.2-3.3
				C119.8,101.1,121.1,99.6,123,99.6z M124.1,102.1c0-0.6-0.6-1.1-1.1-1.1c-0.6,0-1.1,0.5-1.2,1.1H124.1z"/>
			<path d="M127.2,100c0-0.2,0.1-0.3,0.3-0.3h0.6c0.1,0,0.2,0.1,0.3,0.2l0.2,0.6c0.2-0.3,0.8-1,1.8-1c0.7,0,1.4,0.2,1.2,0.6l-0.6,1
				c-0.1,0.1-0.2,0.2-0.4,0.1c0,0-0.3-0.1-0.5-0.1c-0.6,0-1,0.4-1.1,0.6v3.8c0,0.2-0.1,0.3-0.4,0.3h-1.2c-0.2,0-0.3-0.1-0.3-0.3V100
				z"/>
		</g>
	</g>
</g>
<g>
	<g class="st1">
		<path d="M146,146.5h-2.4c-0.2,0-0.3-0.1-0.3-0.3v-1.3c0-0.2,0.1-0.3,0.3-0.3h6.9c0.2,0,0.3,0.1,0.3,0.3v1.3c0,0.2-0.1,0.3-0.3,0.3
			h-2.4v8.8c0,0.2-0.1,0.3-0.3,0.3h-1.5c-0.2,0-0.3-0.1-0.3-0.3V146.5z"/>
		<path d="M153.5,149.1c1.6,0,2.9,1.2,2.9,2.9c0,0.1,0,0.3,0,0.4c0,0.2-0.2,0.3-0.3,0.3h-4c0,0.6,0.6,1.4,1.5,1.4
			c0.5,0,0.9-0.2,1.2-0.4c0.2-0.1,0.3-0.1,0.4,0l0.6,0.7c0.1,0.1,0.1,0.3,0,0.4c-0.5,0.5-1.3,0.9-2.3,0.9c-1.9,0-3.2-1.5-3.2-3.3
			C150.2,150.7,151.6,149.1,153.5,149.1z M154.6,151.7c0-0.6-0.6-1.1-1.1-1.1c-0.6,0-1.1,0.5-1.2,1.1H154.6z"/>
		<path d="M159.8,151.6c0.6,0,1.1,0.2,1.1,0.2c0-0.8-0.2-1.1-0.8-1.1s-1.4,0.1-1.8,0.2c-0.2,0.1-0.3-0.1-0.4-0.3l-0.1-0.8
			c0-0.2,0.1-0.3,0.2-0.4c0.1,0,1.1-0.3,2.1-0.3c2,0,2.4,1,2.4,2.7v3.4c0,0.2-0.1,0.3-0.3,0.3h-0.6c-0.1,0-0.2,0-0.3-0.2l-0.2-0.4
			c-0.4,0.3-0.9,0.8-1.9,0.8c-1.3,0-2.1-0.8-2.1-2.2C157.3,152.5,158.2,151.6,159.8,151.6z M159.8,154.4c0.5,0,1-0.4,1.1-0.6v-0.9
			c0,0-0.4-0.2-0.9-0.2c-0.6,0-1,0.3-1,0.8C159,154.1,159.3,154.4,159.8,154.4z"/>
		<path d="M164.4,149.6c0-0.2,0.1-0.3,0.3-0.3h0.6c0.1,0,0.2,0.1,0.3,0.2l0.2,0.6c0.3-0.3,1-0.9,2.1-0.9c0.9,0,1.5,0.3,2,1
			c0.3-0.3,1.1-1,2.2-1c2,0,2.8,1.5,2.8,3.1v3c0,0.2-0.1,0.3-0.3,0.3h-1.3c-0.2,0-0.3-0.1-0.3-0.3v-3.1c0-0.8-0.4-1.3-1.2-1.3
			c-0.9,0-1.3,0.7-1.3,0.7s0,0.3,0,0.6v3.2c0,0.2-0.1,0.3-0.3,0.3h-1.2c-0.2,0-0.3-0.1-0.3-0.3v-3.1c0-0.8-0.4-1.3-1.2-1.3
			c-0.8,0-1.2,0.6-1.3,1v3.5c0,0.2-0.1,0.3-0.3,0.3h-1.3c-0.2,0-0.3-0.1-0.3-0.3V149.6z"/>
	</g>
</g>
<g>
	<g class="st1">
		<path d="M136.1,221.9c0-0.1,0.1-0.2,0.3-0.2h0.3c0.1,0,0.2,0.1,0.3,0.2l3.5,7.4c0,0,0,0,0,0l3.5-7.4c0-0.1,0.1-0.2,0.3-0.2h0.3
			c0.2,0,0.3,0.1,0.3,0.2l1.9,10.6c0,0.2-0.1,0.4-0.3,0.4h-1.4c-0.1,0-0.3-0.1-0.3-0.2l-0.9-6c0,0,0,0,0,0l-2.8,6.2
			c0,0.1-0.1,0.2-0.3,0.2h-0.3c-0.1,0-0.2-0.1-0.3-0.2l-2.8-6.2c0,0,0,0,0,0l-0.9,6c0,0.1-0.1,0.2-0.3,0.2h-1.4
			c-0.2,0-0.3-0.1-0.3-0.4L136.1,221.9z"/>
		<path d="M150.7,226.4c1.6,0,2.9,1.2,2.9,2.9c0,0.1,0,0.3,0,0.4c0,0.2-0.2,0.3-0.3,0.3h-4c0,0.6,0.6,1.4,1.5,1.4
			c0.5,0,0.9-0.2,1.2-0.4c0.2-0.1,0.3-0.1,0.4,0l0.6,0.7c0.1,0.1,0.1,0.3,0,0.4c-0.5,0.5-1.3,0.9-2.3,0.9c-1.9,0-3.2-1.5-3.2-3.3
			C147.5,227.9,148.9,226.4,150.7,226.4z M151.8,228.9c0-0.6-0.6-1.1-1.1-1.1c-0.6,0-1.1,0.5-1.2,1.1H151.8z"/>
		<path d="M155,226.9c0-0.2,0.1-0.3,0.3-0.3h0.6c0.1,0,0.2,0.1,0.3,0.2l0.2,0.6c0.3-0.3,1-0.9,2.1-0.9c0.9,0,1.5,0.3,2,1
			c0.3-0.3,1.1-1,2.2-1c2,0,2.8,1.5,2.8,3.1v3c0,0.2-0.1,0.3-0.3,0.3h-1.3c-0.2,0-0.3-0.1-0.3-0.3v-3.1c0-0.8-0.4-1.3-1.2-1.3
			c-0.9,0-1.3,0.7-1.3,0.7s0,0.3,0,0.6v3.2c0,0.2-0.1,0.3-0.3,0.3h-1.2c-0.2,0-0.3-0.1-0.3-0.3v-3.1c0-0.8-0.4-1.3-1.2-1.3
			c-0.8,0-1.2,0.6-1.3,1v3.5c0,0.2-0.1,0.3-0.3,0.3h-1.3c-0.2,0-0.3-0.1-0.3-0.3V226.9z"/>
		<path d="M167.2,222.2c0-0.2,0.1-0.3,0.3-0.3h1.3c0.2,0,0.3,0.1,0.3,0.3v4.5c0.3-0.1,0.8-0.3,1.4-0.3c1.9,0,3.1,1.5,3.1,3.3
			c0,1.8-1.3,3.3-3,3.3c-1.3,0-2.1-0.9-2.1-0.9l-0.2,0.5c0,0.2-0.2,0.3-0.3,0.3h-0.6c-0.2,0-0.3-0.1-0.3-0.3V222.2z M170.4,231.3
			c0.8,0,1.4-0.7,1.4-1.6s-0.6-1.6-1.5-1.6c-0.8,0-1.2,0.4-1.2,0.4v1.8C169.2,230.7,169.6,231.3,170.4,231.3z"/>
		<path d="M177.8,226.4c1.6,0,2.9,1.2,2.9,2.9c0,0.1,0,0.3,0,0.4c0,0.2-0.2,0.3-0.3,0.3h-4c0,0.6,0.6,1.4,1.5,1.4
			c0.5,0,0.9-0.2,1.2-0.4c0.2-0.1,0.3-0.1,0.4,0l0.6,0.7c0.1,0.1,0.1,0.3,0,0.4c-0.5,0.5-1.3,0.9-2.3,0.9c-1.9,0-3.2-1.5-3.2-3.3
			C174.6,227.9,176,226.4,177.8,226.4z M178.9,228.9c0-0.6-0.5-1.1-1.1-1.1c-0.6,0-1.1,0.5-1.2,1.1H178.9z"/>
		<path d="M182.1,226.9c0-0.2,0.1-0.3,0.3-0.3h0.6c0.1,0,0.2,0.1,0.3,0.2l0.2,0.6c0.2-0.3,0.8-1,1.8-1c0.7,0,1.4,0.2,1.2,0.6l-0.6,1
			c-0.1,0.1-0.2,0.2-0.4,0.1c0,0-0.3-0.1-0.5-0.1c-0.6,0-1,0.4-1.1,0.6v3.8c0,0.2-0.1,0.3-0.4,0.3h-1.2c-0.2,0-0.3-0.1-0.3-0.3
			V226.9z"/>
	</g>
</g>
</svg>
