<?xml version="1.0" encoding="utf-8"?>
<!-- Generator: Adobe Illustrator 22.1.0, SVG Export Plug-In . SVG Version: 6.00 Build 0)  -->
<svg version="1.1" id="レイヤー_1" xmlns="http://www.w3.org/2000/svg" xmlns:xlink="http://www.w3.org/1999/xlink" x="0px"
	 y="0px" width="320px" height="320px" viewBox="0 0 320 320" style="enable-background:new 0 0 320 320;" xml:space="preserve">
<style type="text/css">
	.st0{fill:#47619E;}
	.st1{fill:#3F6EA8;}
	.st2{fill:#367AAC;}
	.st3{fill:#3280AA;}
	.st4{fill:#288BA8;}
	.st5{fill:#2297A6;}
	.st6{fill:#20A2A4;}
	.st7{fill:url(#SVGID_1_);}
	.st8{fill:url(#SVGID_2_);}
	.st9{fill:url(#SVGID_3_);}
	.st10{fill:url(#SVGID_4_);}
	.st11{fill:url(#SVGID_5_);}
	.st12{fill:url(#SVGID_6_);}
	.st13{fill:url(#SVGID_7_);}
	.st14{fill:url(#SVGID_8_);}
	.st15{fill:url(#SVGID_9_);}
	.st16{fill:url(#SVGID_10_);}
	.st17{fill:url(#SVGID_11_);}
	.st18{fill:url(#SVGID_12_);}
	.st19{fill:url(#SVGID_13_);}
	.st20{fill:url(#SVGID_14_);}
	.st21{fill:url(#SVGID_15_);}
	.st22{fill:url(#SVGID_16_);}
	.st23{fill:url(#SVGID_17_);}
	.st24{fill:url(#SVGID_18_);}
	.st25{fill:url(#SVGID_19_);}
	.st26{fill:url(#SVGID_20_);}
	.st27{fill:url(#SVGID_21_);}
	.st28{fill:url(#SVGID_22_);}
	.st29{fill:url(#SVGID_23_);}
	.st30{fill:url(#SVGID_24_);}
	.st31{fill:url(#SVGID_25_);}
	.st32{fill:url(#SVGID_26_);}
	.st33{fill:url(#SVGID_27_);}
	.st34{fill:url(#SVGID_28_);}
	.st35{fill:url(#SVGID_29_);}
	.st36{fill:url(#SVGID_30_);}
	.st37{fill:url(#SVGID_31_);}
	.st38{fill:url(#SVGID_32_);}
	.st39{fill:url(#SVGID_33_);}
	.st40{fill:url(#SVGID_34_);}
	.st41{fill:url(#SVGID_35_);}
	.st42{fill:url(#SVGID_36_);}
	.st43{fill:url(#SVGID_37_);}
</style>
<g>
	<path class="st0" d="M162,137.5l17.3,10c0.5,0.3,1.1,0.3,1.6,0l5-2.9c1.1-0.6,1.1-2.1,0-2.7l-23.7-13.7c-0.7-0.4-1.4-0.5-2.1-0.5
		v9.4C160.7,136.9,161.3,137.2,162,137.5z"/>
	<path class="st1" d="M140.3,148.3c0.4-0.7,0.9-1.2,1.6-1.6l16-9.2c0.6-0.4,1.4-0.5,2-0.5v-9.4c-0.7,0-1.4,0.2-2,0.5l-24,14
		c-0.7,0.4-1.2,0.9-1.5,1.6L140.3,148.3z"/>
	<path class="st2" d="M140.3,148.3c-0.3,0.6-0.5,1.3-0.5,2v18.5c0,0.7,0.2,1.4,0.5,2c0,0.1,0.1,0.2,0.1,0.2l-8,4.7
		c-0.4-0.6-0.6-1.4-0.6-2.2v-27.7c0-0.7,0.1-1.4,0.5-2L140.3,148.3z"/>
	<path class="st3" d="M140.5,170.9c0.4,0.6,0.8,1.1,1.4,1.4l16,9.2c0.6,0.4,1.4,0.5,2,0.5v9.5c-0.8,0-1.4-0.2-2.1-0.5l-24-14
		c-0.6-0.4-1.1-0.8-1.4-1.4L140.5,170.9z"/>
	<path class="st4" d="M179.4,170.9c-0.4,0.6-0.8,1.1-1.4,1.4l-16,9.2c-0.6,0.4-1.4,0.5-2,0.5v9.5c0.8,0,1.4-0.2,2.1-0.5l24-14
		c0.6-0.4,1.1-0.8,1.4-1.4L179.4,170.9z"/>
	<path class="st5" d="M179.4,170.9l8,4.7c0.4-0.6,0.6-1.4,0.6-2.2v-21.5c0-0.5-0.3-0.9-0.7-1.1l-8,13.9c0.4,0.2,0.6,0.6,0.6,1.1v3
		C180,169.5,179.8,170.2,179.4,170.9z"/>
	<path class="st6" d="M186.1,150.8l-24.8,14.3c-0.9,0.5-1.4,1.4-1.4,2.5v5.3c0,1.1,1.1,1.7,2,1.1l16.3-9.4c0.4-0.2,0.9-0.2,1.2,0
		l8-13.9C187.1,150.6,186.5,150.6,186.1,150.8z"/>
</g>
<g>
	
		<linearGradient id="SVGID_1_" gradientUnits="userSpaceOnUse" x1="257.9904" y1="102.3344" x2="143.238" y2="277.463" gradientTransform="matrix(1 0 0 -1 0 321.39)">
		<stop  offset="0" style="stop-color:#5674AF"/>
		<stop  offset="0.159" style="stop-color:#4F7DB4"/>
		<stop  offset="0.33" style="stop-color:#438DBC"/>
		<stop  offset="0.66" style="stop-color:#339FB9"/>
		<stop  offset="0.994" style="stop-color:#24B1B4"/>
	</linearGradient>
	<path class="st7" d="M178,75.4c0-7.5-4.9-13.8-11.6-16.1c2.7-1.9,4.5-5,4.5-8.6c0-5.7-4.7-10.4-10.4-10.4s-10.4,4.7-10.4,10.4
		c0,3.6,1.8,6.8,4.6,8.6c-6.6,2.3-11.4,8.6-11.4,16.1v7.3h34.5L178,75.4z M154.4,50.8c0-3.5,2.8-6.2,6.2-6.2s6.2,2.8,6.2,6.2
		c0,3.5-2.8,6.2-6.2,6.2S154.4,54.3,154.4,50.8z M173.9,78.6h-26.3v-3.2c0-7.1,5.8-12.9,12.9-12.9h0.6c7.1,0,12.9,5.8,12.9,12.8
		L173.9,78.6z"/>
	
		<linearGradient id="SVGID_2_" gradientUnits="userSpaceOnUse" x1="302.6764" y1="131.6147" x2="187.924" y2="306.7434" gradientTransform="matrix(1 0 0 -1 0 321.39)">
		<stop  offset="0" style="stop-color:#5674AF"/>
		<stop  offset="0.159" style="stop-color:#4F7DB4"/>
		<stop  offset="0.33" style="stop-color:#438DBC"/>
		<stop  offset="0.66" style="stop-color:#339FB9"/>
		<stop  offset="0.994" style="stop-color:#24B1B4"/>
	</linearGradient>
	<path class="st8" d="M274.6,125.4c0-7.5-4.9-13.8-11.6-16.1c2.7-1.9,4.5-5,4.5-8.6c0-5.7-4.7-10.4-10.4-10.4
		c-5.7,0-10.4,4.7-10.4,10.4c0,3.6,1.8,6.8,4.6,8.6c-6.6,2.3-11.4,8.6-11.4,16.1v7.3h34.5L274.6,125.4z M250.9,100.8
		c0-3.5,2.8-6.2,6.2-6.2c3.5,0,6.2,2.8,6.2,6.2s-2.8,6.2-6.2,6.2C253.7,107,250.9,104.2,250.9,100.8z M270.5,128.5h-26.3v-3.2
		c0-7.1,5.8-12.9,12.9-12.9h0.6c7.1,0,12.9,5.8,12.9,12.8L270.5,128.5z"/>
	
		<linearGradient id="SVGID_3_" gradientUnits="userSpaceOnUse" x1="257.0509" y1="101.7187" x2="142.2985" y2="276.8474" gradientTransform="matrix(1 0 0 -1 0 321.39)">
		<stop  offset="0" style="stop-color:#5674AF"/>
		<stop  offset="0.159" style="stop-color:#4F7DB4"/>
		<stop  offset="0.33" style="stop-color:#438DBC"/>
		<stop  offset="0.66" style="stop-color:#339FB9"/>
		<stop  offset="0.994" style="stop-color:#24B1B4"/>
	</linearGradient>
	<path class="st9" d="M263,208.8c2.7-1.9,4.5-5,4.5-8.6c0-5.7-4.7-10.4-10.4-10.4c-5.7,0-10.4,4.7-10.4,10.4c0,3.6,1.8,6.8,4.6,8.6
		c-6.6,2.3-11.4,8.6-11.4,16.1v7.3h34.5v-7.3C274.7,217.3,269.8,211,263,208.8z M251,200.2c0-3.5,2.8-6.2,6.2-6.2
		c3.5,0,6.2,2.8,6.2,6.2s-2.8,6.2-6.2,6.2C253.7,206.5,251,203.7,251,200.2z M270.5,228h-26.3v-3.2c0-7.1,5.8-12.9,12.9-12.9h0.6
		c7.1,0,12.9,5.8,12.9,12.8L270.5,228z"/>
	
		<linearGradient id="SVGID_4_" gradientUnits="userSpaceOnUse" x1="168.0187" y1="43.3807" x2="53.2663" y2="218.5094" gradientTransform="matrix(1 0 0 -1 0 321.39)">
		<stop  offset="0" style="stop-color:#5674AF"/>
		<stop  offset="0.159" style="stop-color:#4F7DB4"/>
		<stop  offset="0.33" style="stop-color:#438DBC"/>
		<stop  offset="0.66" style="stop-color:#339FB9"/>
		<stop  offset="0.994" style="stop-color:#24B1B4"/>
	</linearGradient>
	<path class="st10" d="M167,256.5c2.7-1.9,4.5-5,4.5-8.6c0-5.7-4.7-10.4-10.4-10.4c-5.7,0-10.4,4.7-10.4,10.4c0,3.6,1.8,6.8,4.6,8.6
		c-6.6,2.3-11.4,8.6-11.4,16.1v7.3h34.5v-7.3C178.6,265,173.7,258.7,167,256.5z M155,247.9c0-3.5,2.8-6.2,6.2-6.2
		c3.5,0,6.2,2.8,6.2,6.2s-2.8,6.2-6.2,6.2C157.7,254.2,155,251.4,155,247.9z M174.5,275.7h-26.3v-3.2c0-7.1,5.8-12.9,12.9-12.9h0.6
		c7.1,0,12.9,5.8,12.9,12.8L174.5,275.7z"/>
	
		<linearGradient id="SVGID_5_" gradientUnits="userSpaceOnUse" x1="167.5034" y1="43.0431" x2="52.751" y2="218.1717" gradientTransform="matrix(1 0 0 -1 0 321.39)">
		<stop  offset="0" style="stop-color:#5674AF"/>
		<stop  offset="0.159" style="stop-color:#4F7DB4"/>
		<stop  offset="0.33" style="stop-color:#438DBC"/>
		<stop  offset="0.66" style="stop-color:#339FB9"/>
		<stop  offset="0.994" style="stop-color:#24B1B4"/>
	</linearGradient>
	<path class="st11" d="M81.1,124.9c0-7.5-4.9-13.8-11.6-16.1c2.7-1.9,4.5-5,4.5-8.6c0-5.7-4.7-10.4-10.4-10.4s-10.4,4.7-10.4,10.4
		c0,3.6,1.8,6.8,4.6,8.6c-6.6,2.4-11.4,8.7-11.4,16.1v7.3H81L81.1,124.9z M57.5,100.3c0-3.5,2.8-6.2,6.2-6.2c3.5,0,6.2,2.8,6.2,6.2
		c0,3.5-2.8,6.2-6.2,6.2C60.2,106.6,57.5,103.8,57.5,100.3z M77,128.1H50.6v-3.2c0-7.1,5.8-12.9,12.9-12.9h0.6
		c7.1,0,12.9,5.8,12.9,12.8L77,128.1z"/>
	
		<linearGradient id="SVGID_6_" gradientUnits="userSpaceOnUse" x1="121.4146" y1="12.8436" x2="6.6622" y2="187.9723" gradientTransform="matrix(1 0 0 -1 0 321.39)">
		<stop  offset="0" style="stop-color:#5674AF"/>
		<stop  offset="0.159" style="stop-color:#4F7DB4"/>
		<stop  offset="0.33" style="stop-color:#438DBC"/>
		<stop  offset="0.66" style="stop-color:#339FB9"/>
		<stop  offset="0.994" style="stop-color:#24B1B4"/>
	</linearGradient>
	<path class="st12" d="M69.6,209.5c2.7-1.9,4.5-5,4.5-8.6c0-5.7-4.7-10.4-10.4-10.4s-10.4,4.7-10.4,10.4c0,3.6,1.8,6.8,4.6,8.6
		c-6.6,2.3-11.4,8.6-11.4,16.1v7.3h34.5v-7.3C81.2,218.1,76.4,211.7,69.6,209.5z M57.5,200.9c0-3.5,2.8-6.2,6.2-6.2
		c3.5,0,6.2,2.8,6.2,6.2c0,3.5-2.8,6.2-6.2,6.2C60.3,207.2,57.5,204.4,57.5,200.9z M77,228.7H50.8v-3.2c0-7.1,5.8-12.9,12.9-12.9
		h0.6c7.1,0,12.9,5.8,12.9,12.8L77,228.7z"/>
	
		<linearGradient id="SVGID_7_" gradientUnits="userSpaceOnUse" x1="241.7384" y1="91.6854" x2="126.986" y2="266.814" gradientTransform="matrix(1 0 0 -1 0 321.39)">
		<stop  offset="0" style="stop-color:#5674AF"/>
		<stop  offset="0.159" style="stop-color:#4F7DB4"/>
		<stop  offset="0.33" style="stop-color:#438DBC"/>
		<stop  offset="0.66" style="stop-color:#339FB9"/>
		<stop  offset="0.994" style="stop-color:#24B1B4"/>
	</linearGradient>
	<path class="st13" d="M158.6,105.7c0,0.9,0.8,1.7,1.7,1.7c0.9,0,1.7-0.8,1.7-1.7v-0.7c0-0.9-0.8-1.7-1.7-1.7
		c-0.9,0-1.7,0.8-1.7,1.7V105.7z"/>
	
		<linearGradient id="SVGID_8_" gradientUnits="userSpaceOnUse" x1="245.5205" y1="94.1635" x2="130.7681" y2="269.2921" gradientTransform="matrix(1 0 0 -1 0 321.39)">
		<stop  offset="0" style="stop-color:#5674AF"/>
		<stop  offset="0.159" style="stop-color:#4F7DB4"/>
		<stop  offset="0.33" style="stop-color:#438DBC"/>
		<stop  offset="0.66" style="stop-color:#339FB9"/>
		<stop  offset="0.994" style="stop-color:#24B1B4"/>
	</linearGradient>
	<path class="st14" d="M158.6,97.5c0,0.9,0.8,1.7,1.7,1.7c0.9,0,1.7-0.8,1.7-1.7v-0.7c0-0.9-0.8-1.7-1.7-1.7c-0.9,0-1.7,0.8-1.7,1.7
		V97.5z"/>
	
		<linearGradient id="SVGID_9_" gradientUnits="userSpaceOnUse" x1="249.3025" y1="96.6417" x2="134.5501" y2="271.7704" gradientTransform="matrix(1 0 0 -1 0 321.39)">
		<stop  offset="0" style="stop-color:#5674AF"/>
		<stop  offset="0.159" style="stop-color:#4F7DB4"/>
		<stop  offset="0.33" style="stop-color:#438DBC"/>
		<stop  offset="0.66" style="stop-color:#339FB9"/>
		<stop  offset="0.994" style="stop-color:#24B1B4"/>
	</linearGradient>
	<path class="st15" d="M160.3,90.9c0.9,0,1.7-0.8,1.7-1.7v-0.7c0-0.9-0.8-1.7-1.7-1.7c-0.9,0-1.7,0.8-1.7,1.7v0.7
		C158.6,90.1,159.4,90.9,160.3,90.9z"/>
	
		<linearGradient id="SVGID_10_" gradientUnits="userSpaceOnUse" x1="237.922" y1="89.1846" x2="123.1696" y2="264.3133" gradientTransform="matrix(1 0 0 -1 0 321.39)">
		<stop  offset="0" style="stop-color:#5674AF"/>
		<stop  offset="0.159" style="stop-color:#4F7DB4"/>
		<stop  offset="0.33" style="stop-color:#438DBC"/>
		<stop  offset="0.66" style="stop-color:#339FB9"/>
		<stop  offset="0.994" style="stop-color:#24B1B4"/>
	</linearGradient>
	<path class="st16" d="M154.6,112.6c-0.7,0.6-0.7,1.7-0.1,2.3c0,0,0,0,0.1,0.1l4.6,4.6c0.6,0.6,1.7,0.6,2.3,0l4.6-4.6
		c0.7-0.6,0.7-1.7,0.1-2.3c-0.6-0.6-1.7-0.7-2.3-0.1c0,0,0,0-0.1,0.1l-1.8,1.8v-0.2c0-0.1,0-0.2,0-0.2v-0.7c0-0.9-0.8-1.7-1.7-1.7
		c-0.9,0-1.7,0.8-1.7,1.7v0.7c0,0.2,0,0.3,0.1,0.4l-1.8-1.8C156.2,112,155.3,111.9,154.6,112.6z"/>
	
		<linearGradient id="SVGID_11_" gradientUnits="userSpaceOnUse" x1="261.9388" y1="104.9216" x2="147.1864" y2="280.0502" gradientTransform="matrix(1 0 0 -1 0 321.39)">
		<stop  offset="0" style="stop-color:#5674AF"/>
		<stop  offset="0.159" style="stop-color:#4F7DB4"/>
		<stop  offset="0.33" style="stop-color:#438DBC"/>
		<stop  offset="0.66" style="stop-color:#339FB9"/>
		<stop  offset="0.994" style="stop-color:#24B1B4"/>
	</linearGradient>
	<path class="st17" d="M207.1,132l-0.6,0.3c-0.8,0.4-1.1,1.5-0.6,2.3c0.3,0.5,0.8,0.8,1.4,0.8c0.3,0,0.6-0.1,0.8-0.2l0.6-0.3
		c0.8-0.5,1.1-1.5,0.6-2.3C208.9,131.8,207.8,131.5,207.1,132z"/>
	
		<linearGradient id="SVGID_12_" gradientUnits="userSpaceOnUse" x1="282.6157" y1="118.47" x2="167.8633" y2="293.5986" gradientTransform="matrix(1 0 0 -1 0 321.39)">
		<stop  offset="0" style="stop-color:#5674AF"/>
		<stop  offset="0.159" style="stop-color:#4F7DB4"/>
		<stop  offset="0.33" style="stop-color:#438DBC"/>
		<stop  offset="0.66" style="stop-color:#339FB9"/>
		<stop  offset="0.994" style="stop-color:#24B1B4"/>
	</linearGradient>
	<path class="st18" d="M228.4,119.4l-0.6,0.3c-0.8,0.5-1.1,1.5-0.6,2.3c0.3,0.5,0.8,0.8,1.4,0.8c0.3,0,0.6-0.1,0.8-0.2l0.6-0.3
		c0.8-0.5,1.1-1.5,0.6-2.3C230.2,119.2,229.2,118.9,228.4,119.4z"/>
	
		<linearGradient id="SVGID_13_" gradientUnits="userSpaceOnUse" x1="275.7053" y1="113.942" x2="160.9529" y2="289.0707" gradientTransform="matrix(1 0 0 -1 0 321.39)">
		<stop  offset="0" style="stop-color:#5674AF"/>
		<stop  offset="0.159" style="stop-color:#4F7DB4"/>
		<stop  offset="0.33" style="stop-color:#438DBC"/>
		<stop  offset="0.66" style="stop-color:#339FB9"/>
		<stop  offset="0.994" style="stop-color:#24B1B4"/>
	</linearGradient>
	<path class="st19" d="M221.3,123.6l-0.6,0.3c-0.8,0.5-1.1,1.5-0.6,2.3c0.3,0.5,0.8,0.8,1.4,0.8c0.3,0,0.6-0.1,0.8-0.2l0.6-0.3
		c0.8-0.5,1.1-1.5,0.6-2.3S222.1,123.1,221.3,123.6z"/>
	
		<linearGradient id="SVGID_14_" gradientUnits="userSpaceOnUse" x1="268.8492" y1="109.4495" x2="154.0968" y2="284.5782" gradientTransform="matrix(1 0 0 -1 0 321.39)">
		<stop  offset="0" style="stop-color:#5674AF"/>
		<stop  offset="0.159" style="stop-color:#4F7DB4"/>
		<stop  offset="0.33" style="stop-color:#438DBC"/>
		<stop  offset="0.66" style="stop-color:#339FB9"/>
		<stop  offset="0.994" style="stop-color:#24B1B4"/>
	</linearGradient>
	<path class="st20" d="M214.2,127.8l-0.6,0.3c-0.8,0.5-1.1,1.5-0.6,2.3c0.3,0.5,0.8,0.8,1.4,0.8c0.3,0,0.6-0.1,0.8-0.2l0.6-0.3
		c0.8-0.5,1.1-1.5,0.6-2.3C216,127.6,215,127.3,214.2,127.8z"/>
	
		<linearGradient id="SVGID_15_" gradientUnits="userSpaceOnUse" x1="289.4932" y1="122.9765" x2="174.7408" y2="298.1052" gradientTransform="matrix(1 0 0 -1 0 321.39)">
		<stop  offset="0" style="stop-color:#5674AF"/>
		<stop  offset="0.159" style="stop-color:#4F7DB4"/>
		<stop  offset="0.33" style="stop-color:#438DBC"/>
		<stop  offset="0.66" style="stop-color:#339FB9"/>
		<stop  offset="0.994" style="stop-color:#24B1B4"/>
	</linearGradient>
	<path class="st21" d="M235.5,115.3l-0.6,0.3c-0.8,0.5-1.1,1.5-0.6,2.3c0.3,0.5,0.8,0.8,1.4,0.8c0.3,0,0.6-0.1,0.8-0.2l0.6-0.3
		c0.8-0.5,1.1-1.5,0.6-2.3C237.3,115,236.3,114.8,235.5,115.3z"/>
	
		<linearGradient id="SVGID_16_" gradientUnits="userSpaceOnUse" x1="253.3368" y1="99.2851" x2="138.5844" y2="274.4138" gradientTransform="matrix(1 0 0 -1 0 321.39)">
		<stop  offset="0" style="stop-color:#5674AF"/>
		<stop  offset="0.159" style="stop-color:#4F7DB4"/>
		<stop  offset="0.33" style="stop-color:#438DBC"/>
		<stop  offset="0.66" style="stop-color:#339FB9"/>
		<stop  offset="0.994" style="stop-color:#24B1B4"/>
	</linearGradient>
	<path class="st22" d="M204.5,142c0.2-0.8-0.3-1.7-1.1-2c0,0,0,0-0.1,0l-2.5-0.6l0,0c0.1,0,0.1-0.1,0.2-0.1l0.6-0.3
		c0.2-0.1,0.4-0.3,0.5-0.5c0.5-0.5,0.5-1.2,0.2-1.8c-0.3-0.5-0.8-0.8-1.3-0.8c-0.4-0.1-0.7,0-1.1,0.2l-0.6,0.3
		c-0.1,0-0.1,0.1-0.1,0.1l0.6-2.3c0.2-0.8-0.3-1.7-1.1-2c-0.8-0.2-1.7,0.3-2,1.1c0,0,0,0,0,0.1l-1.6,6.2c-0.2,0.8,0.3,1.7,1.1,2
		l6.2,1.6C203.3,143.3,204.2,142.9,204.5,142z"/>
	
		<linearGradient id="SVGID_17_" gradientUnits="userSpaceOnUse" x1="194.8405" y1="60.9557" x2="80.0881" y2="236.0843" gradientTransform="matrix(1 0 0 -1 0 321.39)">
		<stop  offset="0" style="stop-color:#5674AF"/>
		<stop  offset="0.159" style="stop-color:#4F7DB4"/>
		<stop  offset="0.33" style="stop-color:#438DBC"/>
		<stop  offset="0.66" style="stop-color:#339FB9"/>
		<stop  offset="0.994" style="stop-color:#24B1B4"/>
	</linearGradient>
	<path class="st23" d="M111.2,129.9l-0.6-0.3c-0.8-0.5-1.8-0.2-2.3,0.6c-0.5,0.8-0.2,1.8,0.6,2.3l0.6,0.3c0.2,0.1,0.5,0.2,0.8,0.2
		c0.6,0,1.1-0.3,1.4-0.8C112.4,131.3,112.1,130.3,111.2,129.9z"/>
	
		<linearGradient id="SVGID_18_" gradientUnits="userSpaceOnUse" x1="185.37" y1="54.7502" x2="70.6176" y2="229.8788" gradientTransform="matrix(1 0 0 -1 0 321.39)">
		<stop  offset="0" style="stop-color:#5674AF"/>
		<stop  offset="0.159" style="stop-color:#4F7DB4"/>
		<stop  offset="0.33" style="stop-color:#438DBC"/>
		<stop  offset="0.66" style="stop-color:#339FB9"/>
		<stop  offset="0.994" style="stop-color:#24B1B4"/>
	</linearGradient>
	<path class="st24" d="M87.5,120.3l0.6,0.3c0.2,0.2,0.5,0.2,0.8,0.2c0.6,0,1.1-0.3,1.4-0.8c0.5-0.8,0.2-1.8-0.6-2.3l-0.6-0.3
		c-0.8-0.5-1.8-0.2-2.3,0.6C86.4,118.9,86.7,119.8,87.5,120.3z"/>
	
		<linearGradient id="SVGID_19_" gradientUnits="userSpaceOnUse" x1="191.6598" y1="58.8716" x2="76.9074" y2="234.0002" gradientTransform="matrix(1 0 0 -1 0 321.39)">
		<stop  offset="0" style="stop-color:#5674AF"/>
		<stop  offset="0.159" style="stop-color:#4F7DB4"/>
		<stop  offset="0.33" style="stop-color:#438DBC"/>
		<stop  offset="0.66" style="stop-color:#339FB9"/>
		<stop  offset="0.994" style="stop-color:#24B1B4"/>
	</linearGradient>
	<path class="st25" d="M104,125.8l-0.6-0.3c-0.8-0.5-1.8-0.2-2.3,0.6c-0.5,0.8-0.2,1.8,0.6,2.3l0.6,0.3c0.2,0.2,0.5,0.2,0.8,0.2
		c0.6,0,1.1-0.3,1.4-0.8C105.2,127.3,104.9,126.3,104,125.8z"/>
	
		<linearGradient id="SVGID_20_" gradientUnits="userSpaceOnUse" x1="188.5149" y1="56.8108" x2="73.7625" y2="231.9395" gradientTransform="matrix(1 0 0 -1 0 321.39)">
		<stop  offset="0" style="stop-color:#5674AF"/>
		<stop  offset="0.159" style="stop-color:#4F7DB4"/>
		<stop  offset="0.33" style="stop-color:#438DBC"/>
		<stop  offset="0.66" style="stop-color:#339FB9"/>
		<stop  offset="0.994" style="stop-color:#24B1B4"/>
	</linearGradient>
	<path class="st26" d="M96.9,121.8l-0.6-0.3c-0.8-0.5-1.8-0.2-2.3,0.6c-0.5,0.8-0.2,1.8,0.6,2.3l0.6,0.3c0.2,0.2,0.5,0.2,0.8,0.2
		c0.6,0,1.1-0.3,1.4-0.8C98,123.2,97.7,122.2,96.9,121.8z"/>
	
		<linearGradient id="SVGID_21_" gradientUnits="userSpaceOnUse" x1="197.9976" y1="63.0244" x2="83.2421" y2="238.1578" gradientTransform="matrix(1 0 0 -1 0 321.39)">
		<stop  offset="0" style="stop-color:#5674AF"/>
		<stop  offset="0.159" style="stop-color:#4F7DB4"/>
		<stop  offset="0.33" style="stop-color:#438DBC"/>
		<stop  offset="0.66" style="stop-color:#339FB9"/>
		<stop  offset="0.994" style="stop-color:#24B1B4"/>
	</linearGradient>
	<path class="st27" d="M121.4,131.2C121.4,131.2,121.4,131.2,121.4,131.2c-0.2-0.9-1.1-1.4-2-1.2c-0.8,0.2-1.4,1.1-1.1,2l0.6,2.3
		c-0.2-0.2-0.2-0.2-0.5-0.4l-0.6-0.3c-0.8-0.5-1.8-0.2-2.3,0.6c-0.4,0.7-0.2,1.6,0.4,2.1c0.1,0.1,0.2,0.2,0.4,0.3l0.9,0.5l-2.5,0.6
		c0,0,0,0-0.1,0c-0.8,0.2-1.4,1.1-1.1,2c0.2,0.8,1.1,1.4,2,1.1l6.2-1.6c0.8-0.2,1.4-1.1,1.1-2L121.4,131.2z"/>
	
		<linearGradient id="SVGID_22_" gradientUnits="userSpaceOnUse" x1="188.4112" y1="56.7429" x2="73.6588" y2="231.8715" gradientTransform="matrix(1 0 0 -1 0 321.39)">
		<stop  offset="0" style="stop-color:#5674AF"/>
		<stop  offset="0.159" style="stop-color:#4F7DB4"/>
		<stop  offset="0.33" style="stop-color:#438DBC"/>
		<stop  offset="0.66" style="stop-color:#339FB9"/>
		<stop  offset="0.994" style="stop-color:#24B1B4"/>
	</linearGradient>
	<path class="st28" d="M161.9,221.4c0-0.9-0.8-1.7-1.7-1.7c-0.9,0-1.7,0.8-1.7,1.7v0.7c0,0.9,0.8,1.7,1.7,1.7c0.9,0,1.7-0.8,1.7-1.7
		V221.4z"/>
	
		<linearGradient id="SVGID_23_" gradientUnits="userSpaceOnUse" x1="184.6291" y1="54.2647" x2="69.8767" y2="229.3933" gradientTransform="matrix(1 0 0 -1 0 321.39)">
		<stop  offset="0" style="stop-color:#5674AF"/>
		<stop  offset="0.159" style="stop-color:#4F7DB4"/>
		<stop  offset="0.33" style="stop-color:#438DBC"/>
		<stop  offset="0.66" style="stop-color:#339FB9"/>
		<stop  offset="0.994" style="stop-color:#24B1B4"/>
	</linearGradient>
	<path class="st29" d="M160.3,228c-0.9,0-1.7,0.8-1.7,1.7v0.7c0,0.9,0.8,1.7,1.7,1.7c0.9,0,1.7-0.8,1.7-1.7v-0.7
		C161.9,228.7,161.2,228,160.3,228z"/>
	
		<linearGradient id="SVGID_24_" gradientUnits="userSpaceOnUse" x1="192.1589" y1="59.1985" x2="77.4065" y2="234.3272" gradientTransform="matrix(1 0 0 -1 0 321.39)">
		<stop  offset="0" style="stop-color:#5674AF"/>
		<stop  offset="0.159" style="stop-color:#4F7DB4"/>
		<stop  offset="0.33" style="stop-color:#438DBC"/>
		<stop  offset="0.66" style="stop-color:#339FB9"/>
		<stop  offset="0.994" style="stop-color:#24B1B4"/>
	</linearGradient>
	<path class="st30" d="M161.9,213.2c0-0.9-0.8-1.7-1.7-1.7c-0.9,0-1.7,0.8-1.7,1.7v0.7c0,0.9,0.8,1.7,1.7,1.7c0.9,0,1.7-0.8,1.7-1.7
		V213.2z"/>
	
		<linearGradient id="SVGID_25_" gradientUnits="userSpaceOnUse" x1="195.9066" y1="61.6542" x2="81.1542" y2="236.7829" gradientTransform="matrix(1 0 0 -1 0 321.39)">
		<stop  offset="0" style="stop-color:#5674AF"/>
		<stop  offset="0.159" style="stop-color:#4F7DB4"/>
		<stop  offset="0.33" style="stop-color:#438DBC"/>
		<stop  offset="0.66" style="stop-color:#339FB9"/>
		<stop  offset="0.994" style="stop-color:#24B1B4"/>
	</linearGradient>
	<path class="st31" d="M161.9,204.7l1.8,1.8c0,0,0,0,0.1,0.1c0.7,0.6,1.7,0.6,2.3-0.1c0.6-0.7,0.6-1.7-0.1-2.3l-4.6-4.6
		c-0.6-0.6-1.7-0.6-2.3,0l-4.6,4.6c0,0,0,0-0.1,0.1c-0.6,0.7-0.6,1.7,0.1,2.3c0.7,0.6,1.7,0.6,2.3-0.1l1.7-1.7c0,0.1,0,0.1,0,0.2
		v0.7c0,0.4,0.2,0.7,0.3,1c0.3,0.5,0.8,0.8,1.4,0.8c0.9,0,1.6-0.8,1.6-1.6v-1.1H161.9z"/>
	
		<linearGradient id="SVGID_26_" gradientUnits="userSpaceOnUse" x1="245.4348" y1="94.1073" x2="130.6824" y2="269.236" gradientTransform="matrix(1 0 0 -1 0 321.39)">
		<stop  offset="0" style="stop-color:#5674AF"/>
		<stop  offset="0.159" style="stop-color:#4F7DB4"/>
		<stop  offset="0.33" style="stop-color:#438DBC"/>
		<stop  offset="0.66" style="stop-color:#339FB9"/>
		<stop  offset="0.994" style="stop-color:#24B1B4"/>
	</linearGradient>
	<path class="st32" d="M227.4,196.8l-0.6-0.3c-0.8-0.5-1.8-0.2-2.3,0.6c-0.5,0.8-0.2,1.8,0.6,2.3l0.6,0.3c0.2,0.1,0.5,0.2,0.8,0.2
		c0.6,0,1.1-0.3,1.4-0.8C228.5,198.3,228.2,197.2,227.4,196.8z"/>
	
		<linearGradient id="SVGID_27_" gradientUnits="userSpaceOnUse" x1="248.4858" y1="96.1065" x2="133.7334" y2="271.2352" gradientTransform="matrix(1 0 0 -1 0 321.39)">
		<stop  offset="0" style="stop-color:#5674AF"/>
		<stop  offset="0.159" style="stop-color:#4F7DB4"/>
		<stop  offset="0.33" style="stop-color:#438DBC"/>
		<stop  offset="0.66" style="stop-color:#339FB9"/>
		<stop  offset="0.994" style="stop-color:#24B1B4"/>
	</linearGradient>
	<path class="st33" d="M234.5,201l-0.6-0.3c-0.8-0.5-1.8-0.2-2.3,0.6c-0.5,0.8-0.2,1.8,0.6,2.3l0.6,0.3c0.2,0.1,0.5,0.2,0.8,0.2
		c0.6,0,1.1-0.3,1.4-0.8C235.6,202.4,235.3,201.4,234.5,201z"/>
	
		<linearGradient id="SVGID_28_" gradientUnits="userSpaceOnUse" x1="242.412" y1="92.1266" x2="127.6596" y2="267.2553" gradientTransform="matrix(1 0 0 -1 0 321.39)">
		<stop  offset="0" style="stop-color:#5674AF"/>
		<stop  offset="0.159" style="stop-color:#4F7DB4"/>
		<stop  offset="0.33" style="stop-color:#438DBC"/>
		<stop  offset="0.66" style="stop-color:#339FB9"/>
		<stop  offset="0.994" style="stop-color:#24B1B4"/>
	</linearGradient>
	<path class="st34" d="M220.4,192.6l-0.6-0.3c-0.8-0.5-1.8-0.2-2.3,0.6c-0.5,0.8-0.2,1.8,0.6,2.3l0.6,0.3c0.2,0.2,0.5,0.2,0.8,0.2
		c0.6,0,1.1-0.3,1.4-0.8C221.3,194.1,221.1,193,220.4,192.6z"/>
	
		<linearGradient id="SVGID_29_" gradientUnits="userSpaceOnUse" x1="239.3493" y1="90.1199" x2="124.5968" y2="265.2485" gradientTransform="matrix(1 0 0 -1 0 321.39)">
		<stop  offset="0" style="stop-color:#5674AF"/>
		<stop  offset="0.159" style="stop-color:#4F7DB4"/>
		<stop  offset="0.33" style="stop-color:#438DBC"/>
		<stop  offset="0.66" style="stop-color:#339FB9"/>
		<stop  offset="0.994" style="stop-color:#24B1B4"/>
	</linearGradient>
	<path class="st35" d="M213.2,188.4l-0.6-0.3c-0.8-0.5-1.8-0.2-2.3,0.6c-0.5,0.8-0.2,1.8,0.6,2.3l0.6,0.3c0.2,0.1,0.5,0.2,0.8,0.2
		c0.6,0,1.1-0.3,1.4-0.8C214.3,189.9,214,188.9,213.2,188.4z"/>
	
		<linearGradient id="SVGID_30_" gradientUnits="userSpaceOnUse" x1="251.5012" y1="98.0824" x2="136.7488" y2="273.211" gradientTransform="matrix(1 0 0 -1 0 321.39)">
		<stop  offset="0" style="stop-color:#5674AF"/>
		<stop  offset="0.159" style="stop-color:#4F7DB4"/>
		<stop  offset="0.33" style="stop-color:#438DBC"/>
		<stop  offset="0.66" style="stop-color:#339FB9"/>
		<stop  offset="0.994" style="stop-color:#24B1B4"/>
	</linearGradient>
	<path class="st36" d="M242.2,207.4c0.5-0.8,0.2-1.8-0.6-2.3l-0.6-0.3c-0.8-0.5-1.8-0.2-2.3,0.6c-0.5,0.8-0.2,1.8,0.6,2.3l0.6,0.3
		c0.2,0.2,0.5,0.2,0.8,0.2C241.4,208.3,241.9,208,242.2,207.4z"/>
	
		<linearGradient id="SVGID_31_" gradientUnits="userSpaceOnUse" x1="236.3407" y1="88.1485" x2="121.5883" y2="263.2772" gradientTransform="matrix(1 0 0 -1 0 321.39)">
		<stop  offset="0" style="stop-color:#5674AF"/>
		<stop  offset="0.159" style="stop-color:#4F7DB4"/>
		<stop  offset="0.33" style="stop-color:#438DBC"/>
		<stop  offset="0.66" style="stop-color:#339FB9"/>
		<stop  offset="0.994" style="stop-color:#24B1B4"/>
	</linearGradient>
	<path class="st37" d="M206.9,180.1l-6.2,1.6c-0.8,0.2-1.4,1.1-1.1,2l1.6,6.2c0,0,0,0,0,0.1c0.2,0.8,1.1,1.4,2,1.1
		c0.8-0.2,1.4-1.1,1.1-2l-0.6-2.5l0.1,0.1c0.2,0.2,0.2,0.2,0.4,0.4l0.2,0.1c0.3,0.2,0.5,0.2,0.8,0.2c0.6,0,1.1-0.3,1.4-0.8
		c0.5-0.8,0.2-1.8-0.6-2.3l-0.2-0.2c-0.1-0.1-0.2-0.1-0.3-0.1l-0.4-0.2l2.5-0.6c0,0,0,0,0.1,0c0.8-0.2,1.4-1.1,1.1-2
		C208.6,180.3,207.8,179.8,206.9,180.1z"/>
	
		<linearGradient id="SVGID_32_" gradientUnits="userSpaceOnUse" x1="167.7877" y1="43.2295" x2="53.0353" y2="218.3581" gradientTransform="matrix(1 0 0 -1 0 321.39)">
		<stop  offset="0" style="stop-color:#5674AF"/>
		<stop  offset="0.159" style="stop-color:#4F7DB4"/>
		<stop  offset="0.33" style="stop-color:#438DBC"/>
		<stop  offset="0.66" style="stop-color:#339FB9"/>
		<stop  offset="0.994" style="stop-color:#24B1B4"/>
	</linearGradient>
	<path class="st38" d="M109.2,188l-0.6,0.4c-0.8,0.5-1.1,1.5-0.5,2.3c0.3,0.5,0.8,0.8,1.4,0.8c0.3,0,0.6-0.1,0.8-0.2l0.6-0.4
		c0.8-0.5,1.1-1.5,0.5-2.3C111,187.8,110,187.5,109.2,188z"/>
	
		<linearGradient id="SVGID_33_" gradientUnits="userSpaceOnUse" x1="160.8955" y1="38.7133" x2="46.1431" y2="213.8419" gradientTransform="matrix(1 0 0 -1 0 321.39)">
		<stop  offset="0" style="stop-color:#5674AF"/>
		<stop  offset="0.159" style="stop-color:#4F7DB4"/>
		<stop  offset="0.33" style="stop-color:#438DBC"/>
		<stop  offset="0.66" style="stop-color:#339FB9"/>
		<stop  offset="0.994" style="stop-color:#24B1B4"/>
	</linearGradient>
	<path class="st39" d="M102.2,192.3l-0.6,0.4c-0.8,0.5-1.1,1.5-0.5,2.3c0.3,0.5,0.8,0.8,1.4,0.8c0.3,0,0.6-0.1,0.8-0.2l0.6-0.4
		c0.8-0.5,1.1-1.5,0.5-2.3C104,192.1,103,191.8,102.2,192.3z"/>
	
		<linearGradient id="SVGID_34_" gradientUnits="userSpaceOnUse" x1="147.1111" y1="29.6811" x2="32.3587" y2="204.8098" gradientTransform="matrix(1 0 0 -1 0 321.39)">
		<stop  offset="0" style="stop-color:#5674AF"/>
		<stop  offset="0.159" style="stop-color:#4F7DB4"/>
		<stop  offset="0.33" style="stop-color:#438DBC"/>
		<stop  offset="0.66" style="stop-color:#339FB9"/>
		<stop  offset="0.994" style="stop-color:#24B1B4"/>
	</linearGradient>
	<path class="st40" d="M88.1,200.8l-0.6,0.4c-0.8,0.5-1.1,1.5-0.5,2.3c0.3,0.5,0.8,0.8,1.4,0.8c0.3,0,0.6-0.1,0.8-0.2l0.6-0.4
		c0.8-0.5,1.1-1.5,0.5-2.3C89.9,200.6,88.9,200.3,88.1,200.8z"/>
	
		<linearGradient id="SVGID_35_" gradientUnits="userSpaceOnUse" x1="140.2531" y1="25.1874" x2="25.5007" y2="200.3161" gradientTransform="matrix(1 0 0 -1 0 321.39)">
		<stop  offset="0" style="stop-color:#5674AF"/>
		<stop  offset="0.159" style="stop-color:#4F7DB4"/>
		<stop  offset="0.33" style="stop-color:#438DBC"/>
		<stop  offset="0.66" style="stop-color:#339FB9"/>
		<stop  offset="0.994" style="stop-color:#24B1B4"/>
	</linearGradient>
	<path class="st41" d="M81,205l-0.6,0.4c-0.8,0.5-1.1,1.5-0.5,2.3c0.3,0.5,0.8,0.8,1.4,0.8c0.3,0,0.6-0.1,0.8-0.2l0.6-0.4
		c0.8-0.5,1.1-1.5,0.5-2.3C82.8,204.8,81.8,204.6,81,205z"/>
	
		<linearGradient id="SVGID_36_" gradientUnits="userSpaceOnUse" x1="154.0033" y1="34.1973" x2="39.2509" y2="209.3259" gradientTransform="matrix(1 0 0 -1 0 321.39)">
		<stop  offset="0" style="stop-color:#5674AF"/>
		<stop  offset="0.159" style="stop-color:#4F7DB4"/>
		<stop  offset="0.33" style="stop-color:#438DBC"/>
		<stop  offset="0.66" style="stop-color:#339FB9"/>
		<stop  offset="0.994" style="stop-color:#24B1B4"/>
	</linearGradient>
	<path class="st42" d="M95.1,196.6l-0.6,0.4c-0.8,0.5-1.1,1.5-0.5,2.3c0.3,0.5,0.8,0.8,1.4,0.8c0.3,0,0.6-0.1,0.8-0.2l0.6-0.4
		c0.8-0.5,1.1-1.5,0.5-2.3C96.9,196.3,95.9,196,95.1,196.6z"/>
	
		<linearGradient id="SVGID_37_" gradientUnits="userSpaceOnUse" x1="176.4206" y1="48.8861" x2="61.6682" y2="224.0147" gradientTransform="matrix(1 0 0 -1 0 321.39)">
		<stop  offset="0" style="stop-color:#5674AF"/>
		<stop  offset="0.159" style="stop-color:#4F7DB4"/>
		<stop  offset="0.33" style="stop-color:#438DBC"/>
		<stop  offset="0.66" style="stop-color:#339FB9"/>
		<stop  offset="0.994" style="stop-color:#24B1B4"/>
	</linearGradient>
	<path class="st43" d="M121,181.5l-6.2-1.6c-0.8-0.2-1.7,0.3-2,1.1c-0.2,0.8,0.3,1.7,1.1,2c0,0,0,0,0.1,0l2.5,0.6l0,0
		c-0.1,0-0.2,0.1-0.3,0.2l-0.5,0.3c-0.2,0.1-0.2,0.2-0.3,0.2c-0.6,0.5-0.8,1.4-0.3,2c0.2,0.4,0.6,0.7,1.1,0.8c0.1,0,0.2,0,0.2,0l0,0
		c0.1,0,0.2,0,0.2,0c0.3,0,0.6-0.1,0.8-0.2l0.5-0.3c0.1-0.1,0.2-0.1,0.2-0.2l-0.6,2.3c-0.2,0.8,0.3,1.7,1.1,2c0.8,0.2,1.7-0.3,2-1.1
		c0,0,0,0,0-0.1l1.6-6.2C122.4,182.5,121.9,181.6,121,181.5z"/>
</g>
</svg>
