<?xml version="1.0" encoding="utf-8"?>
<!-- Generator: Adobe Illustrator 22.1.0, SVG Export Plug-In . SVG Version: 6.00 Build 0)  -->
<svg version="1.1" id="レイヤー_1" xmlns="http://www.w3.org/2000/svg" xmlns:xlink="http://www.w3.org/1999/xlink" x="0px"
	 y="0px" width="320px" height="320px" viewBox="0 0 320 320" style="enable-background:new 0 0 320 320;" xml:space="preserve">
<style type="text/css">
	.st0{fill:url(#SVGID_1_);}
	.st1{fill:url(#SVGID_2_);}
	.st2{fill:url(#SVGID_3_);}
	.st3{fill:url(#SVGID_4_);}
	.st4{fill:url(#SVGID_5_);}
	.st5{fill:url(#SVGID_6_);}
	.st6{fill:url(#SVGID_7_);}
	.st7{fill:url(#SVGID_8_);}
	.st8{fill:url(#SVGID_9_);}
	.st9{fill:url(#SVGID_10_);}
	.st10{fill:url(#SVGID_11_);}
	.st11{fill:url(#SVGID_12_);}
	.st12{fill:url(#SVGID_13_);}
	.st13{fill:url(#SVGID_14_);}
	.st14{fill:url(#SVGID_15_);}
	.st15{fill:url(#SVGID_16_);}
	.st16{fill:url(#SVGID_17_);}
	.st17{fill:url(#SVGID_18_);}
</style>
<g>
	
		<linearGradient id="SVGID_1_" gradientUnits="userSpaceOnUse" x1="291.7267" y1="88.9967" x2="129.8073" y2="301.8627" gradientTransform="matrix(1 0 0 -1 0 321.39)">
		<stop  offset="0" style="stop-color:#536FA5"/>
		<stop  offset="0.159" style="stop-color:#4C77AA"/>
		<stop  offset="0.33" style="stop-color:#4385B1"/>
		<stop  offset="0.66" style="stop-color:#3596AE"/>
		<stop  offset="0.994" style="stop-color:#27A7A9"/>
	</linearGradient>
	<path class="st0" d="M157.2,63.8v-9.4c0-1.5,1.3-2.8,2.8-2.8s2.8,1.3,2.8,2.8v9.5c0,1.5-1.3,2.8-2.8,2.8S157.2,65.4,157.2,63.8z"/>
	
		<linearGradient id="SVGID_2_" gradientUnits="userSpaceOnUse" x1="313.3611" y1="105.4533" x2="151.4418" y2="318.3192" gradientTransform="matrix(1 0 0 -1 0 321.39)">
		<stop  offset="0" style="stop-color:#536FA5"/>
		<stop  offset="0.159" style="stop-color:#4C77AA"/>
		<stop  offset="0.33" style="stop-color:#4385B1"/>
		<stop  offset="0.66" style="stop-color:#3596AE"/>
		<stop  offset="0.994" style="stop-color:#27A7A9"/>
	</linearGradient>
	<path class="st1" d="M201.9,59c-1.5-0.5-3,0.2-3.6,1.7l0,0l-3.2,8.9c-0.5,1.5,0.2,3,1.7,3.6l0,0c0.4,0.2,0.5,0.2,0.9,0.2
		c1.1,0,2.3-0.8,2.6-1.9l3.2-8.9C204.1,61.2,203.4,59.5,201.9,59L201.9,59L201.9,59z"/>
	
		<linearGradient id="SVGID_3_" gradientUnits="userSpaceOnUse" x1="325.6425" y1="114.7952" x2="163.7231" y2="327.6612" gradientTransform="matrix(1 0 0 -1 0 321.39)">
		<stop  offset="0" style="stop-color:#536FA5"/>
		<stop  offset="0.159" style="stop-color:#4C77AA"/>
		<stop  offset="0.33" style="stop-color:#4385B1"/>
		<stop  offset="0.66" style="stop-color:#3596AE"/>
		<stop  offset="0.994" style="stop-color:#27A7A9"/>
	</linearGradient>
	<path class="st2" d="M234.8,80.6l-6.1,7.2c-0.9,1.1-0.8,3,0.4,3.9c1.1,0.9,3,0.8,3.9-0.4l6.1-7.2c0.9-1.1,0.8-3-0.4-3.9
		C237.7,79.4,235.8,79.5,234.8,80.6z"/>
	
		<linearGradient id="SVGID_4_" gradientUnits="userSpaceOnUse" x1="231.9866" y1="43.5546" x2="70.0673" y2="256.4205" gradientTransform="matrix(1 0 0 -1 0 321.39)">
		<stop  offset="0" style="stop-color:#536FA5"/>
		<stop  offset="0.159" style="stop-color:#4C77AA"/>
		<stop  offset="0.33" style="stop-color:#4385B1"/>
		<stop  offset="0.66" style="stop-color:#3596AE"/>
		<stop  offset="0.994" style="stop-color:#27A7A9"/>
	</linearGradient>
	<path class="st3" d="M85.2,80.6c-0.9-1.1-2.8-1.3-3.9-0.4s-1.3,2.8-0.4,3.9l6.1,7.2c0.9,1.1,2.8,1.3,3.9,0.4
		c1.1-0.9,1.3-2.8,0.4-3.9L85.2,80.6z"/>
	
		<linearGradient id="SVGID_5_" gradientUnits="userSpaceOnUse" x1="263.5013" y1="67.5267" x2="101.582" y2="280.3926" gradientTransform="matrix(1 0 0 -1 0 321.39)">
		<stop  offset="0" style="stop-color:#536FA5"/>
		<stop  offset="0.159" style="stop-color:#4C77AA"/>
		<stop  offset="0.33" style="stop-color:#4385B1"/>
		<stop  offset="0.66" style="stop-color:#3596AE"/>
		<stop  offset="0.994" style="stop-color:#27A7A9"/>
	</linearGradient>
	<path class="st4" d="M119.7,71.6c0.4,1.1,1.5,1.9,2.6,1.9c1.5,0,2.8-1.3,2.8-2.8c0-0.4,0-0.5-0.2-0.9l-3.2-8.9
		c-0.5-1.5-2-2.3-3.6-1.7c-1.5,0.6-2.3,2-1.7,3.6l0,0L119.7,71.6z"/>
</g>
<g>
	
		<linearGradient id="SVGID_6_" gradientUnits="userSpaceOnUse" x1="218.6376" y1="33.0742" x2="56.7182" y2="245.9402" gradientTransform="matrix(1 0 0 -1 0 321.39)">
		<stop  offset="0" style="stop-color:#536FA5"/>
		<stop  offset="0.159" style="stop-color:#4C77AA"/>
		<stop  offset="0.33" style="stop-color:#4385B1"/>
		<stop  offset="0.66" style="stop-color:#3596AE"/>
		<stop  offset="0.994" style="stop-color:#27A7A9"/>
	</linearGradient>
	<path class="st5" d="M269.6,219.2l11-53.9c0.2-1-0.5-2-1.4-2.2c-1-0.2-2,0.5-2.2,1.4l-10.7,52.4H261l0,0c0.2-0.2,0.5-0.3,0.6-0.5
		c3.9-4.4,5.8-10.3,5.4-16.2l-0.9-37.1c0-13.1-7.6-23.9-16.8-24c-0.1,0-0.1,0-0.2,0c-11.2,0-22.2,17.5-26,24.1l-6-5.1
		c-0.7-0.5-1.6-0.7-2.3-0.2l-5.1,2.9c-0.5,0.3-0.9,0.8-1,1.4c-0.2,0.6,0,1.2,0.4,1.7l12.6,17.1c0.4,0.5,1,0.8,1.7,0.8l0,0
		c0.7,0,1.3-0.3,1.7-0.8l8.8-11.7l-0.2,19.1c-0.3,3.1-1.4,6.1-3.3,8.6l-41.8,32.2l-2.3-14.8h18.7c1.1,0,2-0.9,2-2v-14.2
		c0-1.1-0.9-2-2-2h-8.3v-36.3c0-1.1-0.8-1.9-1.9-1.9h-6.1l-0.2,3.8h4.4V183h-5.5h-5.1h-10.4c-0.5,0-1.1,0.2-1.4,0.6
		c-0.4,0.4-0.6,0.9-0.6,1.5c0.2,4.5,2,8.5,4.9,11h-29.4c2.9-2.6,4.8-6.5,4.9-11c0-0.5-0.2-1.1-0.6-1.5c-0.4-0.5-0.9-0.6-1.4-0.6
		h-10.4h-5.1h-5.1v-21.3h4l-0.1-1.7c1.2,0.5,2.5,0.7,3.8,0.8c0.5,0.1,1,0.1,1.4,0.1l0,0c2.2,0,4.3-0.5,6.1-1.4
		c2.3-1.2,3.9-3.2,4-5.4c0.1-0.5,0-1-0.1-1.4c2.2-0.9,4.2-2.6,5.6-4.6c1.7-2.3,2.6-5.3,2.7-8.5c0-0.5-0.2-1.1-0.6-1.5
		c-0.4-0.4-0.9-0.6-1.4-0.6h-3.8H145h-8.3h-5.4c-0.5,0-1.1,0.2-1.4,0.6c-0.4,0.4-0.6,0.9-0.6,1.5c0.1,2.3,0.6,4.6,1.6,6.6
		c-0.7,0.2-1.3,0.5-1.8,0.8c-2.3,1.2-3.9,3.2-4,5.4c-0.2,2.1,0.8,4.2,2.7,5.8h-2.2c-1.1,0-1.9,0.8-1.9,1.9v36.3h-8.6
		c-1.1,0-2,0.9-2,2v14.2c0,0.2,0,0.4,0.1,0.6l-22.3-17.3c-1.8-2.5-3-5.5-3.3-8.6l-0.2-19.1l8.7,11.7c0.4,0.5,1,0.8,1.7,0.8l0,0
		c0.7,0,1.3-0.3,1.7-0.8l12.6-17.1c0.4-0.5,0.5-1.1,0.4-1.7c-0.2-0.6-0.5-1.1-1-1.4l-5.1-2.9c-0.8-0.5-1.7-0.3-2.3,0.2l-6,5.1
		c-3.8-6.7-14.9-24.2-26.1-24.1c-9.3,0.2-16.8,10.9-16.8,23.9L54,199c-0.4,5.8,1.6,11.7,5.4,16.2c0.2,0.2,0.4,0.4,0.6,0.5l0,0h-5.3
		l-10.9-52.4c-0.2-1-1.2-1.7-2.2-1.4c-1,0.2-1.7,1.2-1.4,2.2l11,53.9c0.2,0.9,1,1.5,1.8,1.5h5.1l-8.3,51.7c-0.2,1.1,0.5,2,1.6,2.1
		c0.1,0,0.2,0,0.3,0c0.9,0,1.7-0.7,1.8-1.6l8.4-52.3H67l19.7,10.3l5.8,35.9l-2.1,4.9c-0.3,0.6-0.2,1.4,0.2,2s1.1,0.9,1.7,0.9h3
		c0.1,0,0.1,0,0.2,0c0.1,0,0.2,0,0.3,0h4.1c0.8,0,1.4-0.4,1.8-1.1l21.8-40h7.9l-5.9,39c-0.2,1.1,0.5,2,1.6,2.1c0.1,0,0.2,0,0.3,0
		c0.9,0,1.7-0.7,1.8-1.6l8.6-57.2h1.7h5.7h11.7h1.1v4v36.4v14.8h-12.3h-2.6c-1.1,0-2,0.9-2,2s0.9,2,2,2h34c1.1,0,2-0.9,2-2
		c0-0.2,0-0.3-0.1-0.5c-0.2-0.9-1-1.6-2-1.6h-4.4h-10.5v-0.2v-6.8v-30v-18.2h3h11.3h4.6h1.7l8.6,57.2c0.2,0.9,0.9,1.6,1.8,1.6
		c0.1,0,0.2,0,0.3,0c1.1-0.2,1.7-1.1,1.6-2.1l-5.7-37.7h0.1h8.4l21.8,40c0.4,0.7,1.1,1.1,1.8,1.1h4.1c0.1,0,0.2,0,0.3,0
		c0.1,0,0.1,0,0.2,0h3c0.7,0,1.4-0.4,1.7-0.9c0.4-0.6,0.5-1.3,0.2-2l-2.1-4.9l5.8-35.9l19.6-10.2h5.1l8.4,52.3
		c0.2,0.9,0.9,1.6,1.8,1.6c0.1,0,0.2,0,0.3,0c1.1-0.2,1.7-1.1,1.6-2.1l-8.3-51.7h5.1C268.6,220.7,269.4,220.1,269.6,219.2z
		 M150.4,141.6c-0.8,3.6-3,6.4-5.9,7.5c-1.8-1.9-4.7-3.2-8.2-3.5c-0.5-0.1-0.8,0-1.3,0c-0.8-1.1-1.3-2.5-1.6-3.9L150.4,141.6
		L150.4,141.6z M130.8,150.6c1.1-0.6,2.6-0.9,4.2-0.9c0.4,0,0.7,0,1.1,0.1c3.9,0.4,6.6,2.5,6.4,4.2c-0.1,0.8-0.8,1.5-1.8,2
		c-1.4,0.7-3.3,1.1-5.2,0.8c-2-0.2-3.8-0.8-5-1.7c-1-0.8-1.5-1.6-1.4-2.3C129,151.8,129.7,151.1,130.8,150.6z M174,187.2H191
		c-0.9,4.6-4.4,7.9-8.5,7.9C178.3,195.2,174.9,191.8,174,187.2z M192.8,193.4v2.9h-2.4C191.3,195.4,192.1,194.4,192.8,193.4z
		 M145.8,187.2c-0.9,4.6-4.4,7.9-8.5,7.9s-7.6-3.3-8.5-7.9H145.8z M127.3,193.8c0.6,0.9,1.4,1.7,2.1,2.4h-2.1V193.8z M95.2,258.9
		l-4.4-27.2l0.4,0.2c0.3,0.2,0.6,0.2,1,0.2h14.3L95.2,258.9z M122.1,228c-0.8,0-1.4,0.4-1.8,1.1l-21.8,40h-3.1l16.1-38.2
		c0.3-0.6,0.2-1.4-0.2-2c-0.4-0.6-1.1-0.9-1.7-0.9H92.7l-30.5-15.9c-3-3.6-4.5-8.2-4.2-12.9v-0.1l0.9-37.2
		c0-10.9,5.8-19.8,12.8-19.9h0.1c8.9,0,20.1,17.4,23.6,24.1c0.3,0.5,0.8,0.9,1.4,1.1s1.2-0.1,1.7-0.5l6.8-5.8l1.9,1.1l-9.7,13.1
		l-10.8-14.4c-0.5-0.7-1.4-1-2.3-0.7c-0.8,0.3-1.4,1.1-1.4,2l0.2,25.3c0,0.1,0,0.2,0,0.2c0.4,3.9,1.8,7.7,4.2,11
		c0.1,0.2,0.2,0.3,0.4,0.4l37.8,29.2L122.1,228L122.1,228z M131.9,227.7l-17-13.2c0,0,0,0,0.1,0h18.9L131.9,227.7z M116.9,210.4
		v-10.1h85.9v10.1H116.9z M225.6,260.2l-11.3-26.7h14.3c0.3,0,0.7-0.1,1-0.2l0.4-0.2L225.6,260.2z M258.7,213.5l-30.5,15.9h-16.9
		c-0.7,0-1.4,0.4-1.7,0.9c-0.4,0.6-0.5,1.3-0.2,2l16.1,38.2h-3.1l-21.8-40c-0.4-0.7-1.1-1.1-1.8-1.1h-3.6l37.8-29.2
		c0.2-0.2,0.3-0.2,0.4-0.4c2.3-3.2,3.8-7,4.2-11c0-0.1,0-0.2,0-0.2l0.2-25.3c0-0.9-0.5-1.7-1.4-2c-0.8-0.3-1.7,0-2.3,0.7l-10.8,14.5
		l-9.6-13l1.9-1.1l6.8,5.8c0.5,0.4,1.1,0.5,1.7,0.5c0.6-0.2,1.1-0.5,1.4-1.1c3.6-6.7,14.7-24.1,23.6-24.1h0.1
		c7,0.1,12.8,9,12.8,19.9l0.9,37.2v0.1C263.2,205.2,261.6,209.9,258.7,213.5z"/>
	
		<linearGradient id="SVGID_7_" gradientUnits="userSpaceOnUse" x1="321.0129" y1="110.9474" x2="159.0936" y2="323.8134" gradientTransform="matrix(1 0 0 -1 0 321.39)">
		<stop  offset="0" style="stop-color:#536FA5"/>
		<stop  offset="0.159" style="stop-color:#4C77AA"/>
		<stop  offset="0.33" style="stop-color:#4385B1"/>
		<stop  offset="0.66" style="stop-color:#3596AE"/>
		<stop  offset="0.994" style="stop-color:#27A7A9"/>
	</linearGradient>
	<path class="st6" d="M247.6,137.2c9.2,0,16.8-7.6,16.8-16.8c0-4.3-1.7-8.2-4.3-11.2c1.7-0.7,3.1-1.9,3.7-3.5
		c1.4-3.7-1.4-8.2-6.4-10.1c-5-1.9-10.1-0.5-11.4,3.3c-0.6,1.5-0.5,3.2,0.2,4.7c-8.6,0.8-15.4,7.9-15.4,16.7
		C230.8,129.6,238.3,137.2,247.6,137.2z M250.1,100.5c0.2-0.6,1.3-1.1,2.8-1.1c0.8,0,1.7,0.2,2.7,0.5c2.9,1.1,4.1,3.2,3.8,4.2
		c-0.2,0.7-1.2,0.9-1.6,1.1c-1.1,0.2-2.6,0.2-4-0.4C251.1,103.6,249.8,101.4,250.1,100.5z M247.6,108.1c6.7,0,12.3,5.5,12.3,12.3
		c0,1.8-0.4,3.5-1.1,5c-12.5-4.3-15.6-12.7-16.4-16C243.9,108.5,245.7,108.1,247.6,108.1z M238.4,112.2c1.6,4.8,5.9,12.6,17.6,16.9
		c-2.2,2.1-5.1,3.4-8.4,3.4c-6.7,0-12.3-5.5-12.3-12.3C235.3,117.2,236.5,114.4,238.4,112.2z"/>
	
		<linearGradient id="SVGID_8_" gradientUnits="userSpaceOnUse" x1="266.6132" y1="69.5675" x2="104.6939" y2="282.4335" gradientTransform="matrix(1 0 0 -1 0 321.39)">
		<stop  offset="0" style="stop-color:#536FA5"/>
		<stop  offset="0.159" style="stop-color:#4C77AA"/>
		<stop  offset="0.33" style="stop-color:#4385B1"/>
		<stop  offset="0.66" style="stop-color:#3596AE"/>
		<stop  offset="0.994" style="stop-color:#27A7A9"/>
	</linearGradient>
	<path class="st7" d="M159.9,128.9c9.6,0,17.4-7.8,17.4-17.4s-7.8-17.4-17.4-17.4c-9.6,0-17.4,7.8-17.4,17.4
		S150.3,128.9,159.9,128.9z M147.6,111.5c0-6.7,5.5-12.3,12.3-12.3s12.3,5.5,12.3,12.3c0,0.2,0,0.3,0,0.5c-0.1-1.4-1.2-2.3-2.6-2.3
		c-1.3,0-3.3-2.2-4.1-3.8c-0.2-0.2-0.3-0.5-0.5-0.7c-1.1-1-2.7-0.8-3.6,0.2l-3.6,4.1c-1.6-0.8-3-2.1-3.9-3.7
		c-0.8-1.2-2.3-1.7-3.6-0.9c-1.2,0.8-1.7,2.3-0.9,3.6c0.4,0.7,3.9,6.4,9.4,6.4c0.8,0,1.4-0.3,2-0.8l2.4-2.7c1.6,2.1,4,3.4,6.6,3.6
		c1.2,0,2.3-0.8,2.5-2c-0.6,6.3-5.9,11-12.2,11C153.1,123.8,147.6,118.2,147.6,111.5L147.6,111.5z"/>
	
		<linearGradient id="SVGID_9_" gradientUnits="userSpaceOnUse" x1="214.7142" y1="30.0899" x2="52.7949" y2="242.9558" gradientTransform="matrix(1 0 0 -1 0 321.39)">
		<stop  offset="0" style="stop-color:#536FA5"/>
		<stop  offset="0.159" style="stop-color:#4C77AA"/>
		<stop  offset="0.33" style="stop-color:#4385B1"/>
		<stop  offset="0.66" style="stop-color:#3596AE"/>
		<stop  offset="0.994" style="stop-color:#27A7A9"/>
	</linearGradient>
	<polygon class="st8" points="157.8,214.6 156.7,214.6 157.8,218.5 	"/>
	
		<linearGradient id="SVGID_10_" gradientUnits="userSpaceOnUse" x1="214.3862" y1="29.8404" x2="52.4668" y2="242.7063" gradientTransform="matrix(1 0 0 -1 0 321.39)">
		<stop  offset="0" style="stop-color:#536FA5"/>
		<stop  offset="0.159" style="stop-color:#4C77AA"/>
		<stop  offset="0.33" style="stop-color:#4385B1"/>
		<stop  offset="0.66" style="stop-color:#3596AE"/>
		<stop  offset="0.994" style="stop-color:#27A7A9"/>
	</linearGradient>
	<path class="st9" d="M184,266.2h-6.7l-14.7-51.7l-0.8,0.1v18.2l1.5,5.1l8.9,30.9c0,0.3,0.1,0.6,0.2,0.8h4.4c1,0,1.8,0.7,2,1.6h7.6
		l0,0c1.4,0,2.5-1.1,2.6-2.5l-8.2-54.3h-4.6L184,266.2z"/>
	
		<linearGradient id="SVGID_11_" gradientUnits="userSpaceOnUse" x1="253.6742" y1="59.7254" x2="91.7549" y2="272.5912" gradientTransform="matrix(1 0 0 -1 0 321.39)">
		<stop  offset="0" style="stop-color:#536FA5"/>
		<stop  offset="0.159" style="stop-color:#4C77AA"/>
		<stop  offset="0.33" style="stop-color:#4385B1"/>
		<stop  offset="0.66" style="stop-color:#3596AE"/>
		<stop  offset="0.994" style="stop-color:#27A7A9"/>
	</linearGradient>
	<path class="st10" d="M148.5,136l0.5,1.5h3.8c0.5,0,1.1,0.2,1.4,0.6c0.4,0.4,0.6,0.9,0.6,1.5c-0.1,3.3-1.1,6.2-2.7,8.5l2.9,9.9
		l1.1,3.8l1.1,3.9c0.3,1.1,1.3,1.8,2.5,1.9l0,0c1.1,0,2.1-0.8,2.5-1.8l1.2-3.9l1.1-3.8l6.7-22c7.4,2.1,12.5,8.9,12.5,16.5l-0.3,5.5
		l-0.2,3.8l-1.1,21.3h5.1l1.1-21.3l0.2-3.8l0.3-5.3v-0.2c0.1-12.3-9.8-22.3-22.2-22.4h-13.8l0,0c-6.4,0.1-12.3,2.9-16.3,7.3h8.2
		C146,136.9,147.2,136.3,148.5,136z M166,135.3l-6.4,20.6l-6.1-20.6C153.6,135.3,166,135.3,166,135.3z"/>
	
		<linearGradient id="SVGID_12_" gradientUnits="userSpaceOnUse" x1="193.4219" y1="13.8936" x2="31.5025" y2="226.7595" gradientTransform="matrix(1 0 0 -1 0 321.39)">
		<stop  offset="0" style="stop-color:#536FA5"/>
		<stop  offset="0.159" style="stop-color:#4C77AA"/>
		<stop  offset="0.33" style="stop-color:#4385B1"/>
		<stop  offset="0.66" style="stop-color:#3596AE"/>
		<stop  offset="0.994" style="stop-color:#27A7A9"/>
	</linearGradient>
	<path class="st11" d="M161.9,262.7v6.8c0.1-0.2,0.1-0.4,0.1-0.6L161.9,262.7z"/>
	
		<linearGradient id="SVGID_13_" gradientUnits="userSpaceOnUse" x1="194.4404" y1="14.6683" x2="32.5211" y2="227.5343" gradientTransform="matrix(1 0 0 -1 0 321.39)">
		<stop  offset="0" style="stop-color:#536FA5"/>
		<stop  offset="0.159" style="stop-color:#4C77AA"/>
		<stop  offset="0.33" style="stop-color:#4385B1"/>
		<stop  offset="0.66" style="stop-color:#3596AE"/>
		<stop  offset="0.994" style="stop-color:#27A7A9"/>
	</linearGradient>
	<path class="st12" d="M157.8,254.9l-0.8,11.3h-6.7l-5.3-51.6h-5.7l6,54.3c0,0.3,0.1,0.6,0.2,0.8h12.3V254.9z"/>
	
		<linearGradient id="SVGID_14_" gradientUnits="userSpaceOnUse" x1="221.3358" y1="35.1267" x2="59.4165" y2="247.9926" gradientTransform="matrix(1 0 0 -1 0 321.39)">
		<stop  offset="0" style="stop-color:#536FA5"/>
		<stop  offset="0.159" style="stop-color:#4C77AA"/>
		<stop  offset="0.33" style="stop-color:#4385B1"/>
		<stop  offset="0.66" style="stop-color:#3596AE"/>
		<stop  offset="0.994" style="stop-color:#27A7A9"/>
	</linearGradient>
	<path class="st13" d="M136.4,160.9L136.4,160.9c-0.5,0-1,0-1.4-0.1c-1.4-0.2-2.6-0.4-3.8-0.8l0.1,1.7l1.1,21.3h5.1l-1.1-21.3V160.9
		z"/>
	
		<linearGradient id="SVGID_15_" gradientUnits="userSpaceOnUse" x1="234.5968" y1="45.2139" x2="72.6774" y2="258.0797" gradientTransform="matrix(1 0 0 -1 0 321.39)">
		<stop  offset="0" style="stop-color:#536FA5"/>
		<stop  offset="0.159" style="stop-color:#4C77AA"/>
		<stop  offset="0.33" style="stop-color:#4385B1"/>
		<stop  offset="0.66" style="stop-color:#3596AE"/>
		<stop  offset="0.994" style="stop-color:#27A7A9"/>
	</linearGradient>
	<path class="st14" d="M162.2,177L162.2,177c-0.1-0.2-0.2-0.3-0.2-0.5c-0.2-0.3-0.5-0.5-0.7-0.7c-0.2-0.1-0.3-0.2-0.5-0.2
		c-0.2-0.1-0.3-0.2-0.5-0.2c-0.8-0.2-1.7,0.1-2.3,0.7c-0.2,0.2-0.2,0.2-0.3,0.4c-0.1,0.2-0.2,0.3-0.2,0.5c-0.1,0.2-0.2,0.3-0.2,0.5
		c0,0.2-0.1,0.3-0.1,0.5c0,0.3,0.1,0.7,0.2,1c0.1,0.2,0.2,0.3,0.2,0.5c0.1,0.2,0.2,0.3,0.3,0.4c0.5,0.5,1.1,0.8,1.8,0.8
		c0.3,0,0.7-0.1,1-0.2c0.2-0.1,0.3-0.2,0.5-0.2c0.2-0.1,0.3-0.2,0.4-0.3c0.5-0.5,0.8-1.1,0.8-1.8c0-0.2,0-0.3-0.1-0.5
		C162.4,177.3,162.3,177.1,162.2,177z"/>
	
		<linearGradient id="SVGID_16_" gradientUnits="userSpaceOnUse" x1="230.2705" y1="41.923" x2="68.3512" y2="254.7889" gradientTransform="matrix(1 0 0 -1 0 321.39)">
		<stop  offset="0" style="stop-color:#536FA5"/>
		<stop  offset="0.159" style="stop-color:#4C77AA"/>
		<stop  offset="0.33" style="stop-color:#4385B1"/>
		<stop  offset="0.66" style="stop-color:#3596AE"/>
		<stop  offset="0.994" style="stop-color:#27A7A9"/>
	</linearGradient>
	<path class="st15" d="M162.2,186L162.2,186c-0.1-0.2-0.2-0.3-0.2-0.5c-0.2-0.3-0.5-0.5-0.7-0.7c-0.2-0.1-0.3-0.2-0.5-0.2
		c-0.2-0.1-0.3-0.2-0.5-0.2c-0.8-0.2-1.7,0.1-2.3,0.7c-0.2,0.2-0.2,0.2-0.3,0.4c-0.1,0.2-0.2,0.3-0.2,0.5c-0.1,0.2-0.2,0.3-0.2,0.5
		c0,0.2-0.1,0.3-0.1,0.5c0,0.4,0.1,0.7,0.2,1s0.3,0.6,0.6,0.8c1,1,2.6,1,3.6,0l0,0c0.2-0.2,0.5-0.5,0.5-0.8c0.2-0.3,0.2-0.7,0.2-1
		c0-0.2,0-0.3-0.1-0.5C162.4,186.3,162.3,186.2,162.2,186z"/>
	
		<linearGradient id="SVGID_17_" gradientUnits="userSpaceOnUse" x1="252.5153" y1="58.8438" x2="90.596" y2="271.7097" gradientTransform="matrix(1 0 0 -1 0 321.39)">
		<stop  offset="0" style="stop-color:#536FA5"/>
		<stop  offset="0.159" style="stop-color:#4C77AA"/>
		<stop  offset="0.33" style="stop-color:#4385B1"/>
		<stop  offset="0.66" style="stop-color:#3596AE"/>
		<stop  offset="0.994" style="stop-color:#27A7A9"/>
	</linearGradient>
	<path class="st16" d="M176,156h-5.1c-1.4,0-2.6,1.1-2.6,2.6s1.1,2.6,2.6,2.6h5.1c1.4,0,2.6-1.1,2.6-2.6S177.4,156,176,156z"/>
	
		<linearGradient id="SVGID_18_" gradientUnits="userSpaceOnUse" x1="202.4106" y1="20.7309" x2="40.4912" y2="233.5969" gradientTransform="matrix(1 0 0 -1 0 321.39)">
		<stop  offset="0" style="stop-color:#536FA5"/>
		<stop  offset="0.159" style="stop-color:#4C77AA"/>
		<stop  offset="0.33" style="stop-color:#4385B1"/>
		<stop  offset="0.66" style="stop-color:#3596AE"/>
		<stop  offset="0.994" style="stop-color:#27A7A9"/>
	</linearGradient>
	<path class="st17" d="M50.2,137.5c0.7,0.2,1.4,0.2,2.3,0.2c1.4,0,3-0.3,4.4-0.8c2.2-0.8,4.2-2.3,5.4-3.9c0.2-0.3,0.4-0.6,0.5-0.8
		c2.9,2.3,6.6,3.8,10.6,3.8c9.2,0,16.8-7.6,16.8-16.8s-7.6-16.8-16.8-16.8s-16.8,7.6-16.8,16.8c0,1.3,0.2,2.5,0.5,3.7
		c-1.7-0.2-3.4,0.2-5.1,0.8c-2.2,0.8-4.2,2.3-5.4,3.9c-1.4,2-1.8,4.2-1.1,6.1C46.2,135.5,47.9,136.9,50.2,137.5z M85.6,119
		c0,6.7-5.5,12.3-12.3,12.3c-3.3,0-6.2-1.3-8.4-3.4c11.7-4.5,16-12.3,17.6-16.9C84.4,113.1,85.6,115.9,85.6,119z M73.3,106.8
		c1.9,0,3.6,0.5,5.2,1.2c-0.8,3.3-3.9,11.7-16.4,16c-0.7-1.5-1.1-3.2-1.1-5C61.1,112.3,66.6,106.8,73.3,106.8z M50.2,130.2
		c0.7-1,1.9-1.8,3.3-2.3c1.4-0.5,2.8-0.7,4-0.4c0.4,0.1,1.4,0.4,1.6,1.1c0.2,0.7-0.3,1.5-0.5,1.8c-0.7,1-1.9,1.8-3.3,2.3
		c-1.4,0.5-2.8,0.7-4,0.4c-0.4-0.1-1.4-0.4-1.6-1.1C49.5,131.3,49.9,130.5,50.2,130.2z"/>
</g>
</svg>
