<?xml version="1.0" encoding="utf-8"?>
<!-- Generator: Adobe Illustrator 22.1.0, SVG Export Plug-In . SVG Version: 6.00 Build 0)  -->
<svg version="1.1" id="レイヤー_1" xmlns="http://www.w3.org/2000/svg" xmlns:xlink="http://www.w3.org/1999/xlink" x="0px"
	 y="0px" width="160px" height="24px" viewBox="0 0 160 24" style="enable-background:new 0 0 160 24;" xml:space="preserve">
<style type="text/css">
	.st0{fill:url(#SVGID_1_);}
	.st1{fill:#FEFEFE;}
</style>
<linearGradient id="SVGID_1_" gradientUnits="userSpaceOnUse" x1="102.5775" y1="856.4977" x2="57.4168" y2="778.2772" gradientTransform="matrix(1 0 0 1 0 -805.39)">
	<stop  offset="0" style="stop-color:#5674AF"/>
	<stop  offset="0.3328" style="stop-color:#438DBC"/>
	<stop  offset="0.6764" style="stop-color:#339FB9"/>
	<stop  offset="1" style="stop-color:#24B1B4"/>
</linearGradient>
<polygon class="st0" points="160,12 149.5,24 10.5,24 0,12 10.5,0 149.5,0 "/>
<g>
	<path class="st1" d="M51.4,15.3c0.8,0.7,2.3,1.8,3.6,1.8c0.6,0,1-0.1,1.3-0.4c0.4-0.4,0.3-0.8,0-1.1c-1.1-0.9-4.4-2.2-4.4-4.4
		c0-2.9,3.3-5.3,5.1-6.1c1-0.4,2-0.6,2.7,0c0.5,0.5,0.9,1.2,1,1.8c0.2,0.8-0.3,1.7-0.6,2.1c-0.5,0.7-1.2,1.8-1.4,2.3
		c-0.1,0.2-0.2,0.3-0.5,0.1c-0.4-0.4-0.7-1-0.2-2c0.4-1,2-2.8,1.5-3.3c-0.7-0.7-5.9,2.5-6,5.1c-0.1,1.4,2.6,2.5,3.8,3.3
		C58.1,15,58,16,57.1,17c-1.3,1.4-4.9,1.8-7.9-1.7c-0.2-0.3-0.1-0.4,0-0.5C49.9,14.6,50.8,14.8,51.4,15.3z"/>
	<path class="st1" d="M61.7,17.8c-0.1,0.2-0.2,0.2-0.4,0.1c-0.3-0.3-0.5-1-0.2-2.1c0.2-0.8,0.7-1.9,1.3-3c0-2.6,0.2-5.8,0.6-7.8
		c0.1-0.3,0.3-0.4,0.4-0.2c0.5,0.3,0.8,0.9,0.7,2.4c-0.1,1.2-0.2,2.5-0.3,4.1c2-2.2,4.9-5.1,6.6-6.5c0.2-0.2,0.4-0.1,0.4,0.1
		c0.2,0.6,0,1.5-1.3,2.8c-1.5,1.5-3.3,3.1-5.9,5.9C62.9,15.1,62.2,16.6,61.7,17.8z"/>
	<path class="st1" d="M70.3,15.3c0.8,0.7,2.3,1.8,3.6,1.8c0.6,0,1-0.1,1.3-0.4c0.4-0.4,0.3-0.8,0-1.1c-1.1-0.9-4.4-2.2-4.4-4.4
		c0-2.9,3.3-5.3,5.1-6.1c1-0.4,2-0.6,2.7,0c0.5,0.5,0.9,1.2,1,1.8c0.2,0.8-0.3,1.7-0.6,2.1c-0.5,0.7-1.2,1.8-1.4,2.3
		c-0.1,0.2-0.2,0.3-0.5,0.1c-0.4-0.4-0.7-1-0.2-2c0.4-1,2-2.8,1.5-3.3c-0.7-0.7-5.9,2.5-6,5.1c-0.1,1.4,2.6,2.5,3.8,3.3
		C77.1,15,77,16,76,17c-1.3,1.4-4.9,1.8-7.9-1.7c-0.2-0.3-0.1-0.4,0-0.5C68.9,14.6,69.8,14.8,70.3,15.3z"/>
	<path class="st1" d="M83.6,6.8c-1.3,0-2.2-0.4-2.4-1.2c-0.1-0.2,0-0.3,0.2-0.3c1.9,0.1,5.4-0.6,6.6-0.6c0.9,0,1.7,0.3,2,1.1
		c0.1,0.2,0,0.3-0.3,0.3c-1-0.1-2.4,0.1-3.6,0.3c0,0.5-0.1,1.2-0.7,2.2c-1.3,2.3-3,5.2-4.7,9.1c-0.1,0.2-0.2,0.2-0.3,0.1
		c-0.3-0.3-0.5-0.9-0.3-1.9c0.5-1.7,2.8-6.3,4.7-9.2C84.4,6.7,83.9,6.7,83.6,6.8z"/>
	<path class="st1" d="M92.1,5.5c0-0.2,0-0.3,0.2-0.3c1.7,0.1,4.1-0.5,5.2-0.5c0.9,0,1.3,0.3,1.6,1c0.1,0.2,0,0.3-0.2,0.3
		c-1.5,0-3,0.4-4.3,0.6c-0.8,1.3-1.9,3.1-2.9,5c0.6-0.1,1.1-0.1,1.5-0.2c1.1,0,1.5,0.3,1.7,0.9c0.1,0.2,0.1,0.3-0.2,0.3
		c-1.1,0-2.7,0.3-3.9,0.6c-0.6,1.2-1.2,2.3-1.6,3.3c1-0.3,2.4-0.6,3.3-0.7c1,0,1.6,0.3,1.8,0.9c0.1,0.2,0,0.3-0.2,0.3
		c-1.2,0-3.5,0.5-4.6,0.8c-0.4,0.1-0.6,0.1-0.9-0.2c-0.2-0.2-0.3-0.5-0.4-0.8c-0.2-0.4-0.2-0.6,0-1.2c1-2.6,3.1-6.5,4.8-9.2
		C92.4,6.4,92.2,6,92.1,5.5z"/>
	<path class="st1" d="M97.1,17.9c-0.1,0.2-0.2,0.2-0.4,0c-0.3-0.3-0.5-1,0-2.3c0.8-2,4.2-7.6,6.4-10.7c0.2-0.3,0.4-0.4,0.7-0.1
		c0.8,0.7,1,1.4,0.5,3.1c-0.7,2-1.4,4.5-2.2,7.4c2.3-3.7,5.4-6.9,7.7-10.5c0.2-0.3,0.4-0.3,0.6-0.1c0.8,0.9,0.6,2,0.1,3.1
		c-1.5,2.7-3.6,7-4.6,10c-0.1,0.2-0.2,0.2-0.3,0.1c-0.3-0.3-0.6-0.9-0.2-2.3c0.3-1.2,1.7-4.2,3-6.8c-2.4,2.9-4.8,6.1-6.3,8.9
		c-0.1,0.2-0.2,0.3-0.4,0.1c-0.7-0.5-1-1.2-0.8-2.5c0.2-1.2,0.9-4.1,1.8-6.9C100.7,11.3,98.4,15.1,97.1,17.9z"/>
</g>
</svg>
