<?xml version="1.0" encoding="utf-8"?>
<!-- Generator: Adobe Illustrator 22.1.0, SVG Export Plug-In . SVG Version: 6.00 Build 0)  -->
<svg height="20px" width="250px" version="1.1" id="Layer_1" xmlns="http://www.w3.org/2000/svg" xmlns:xlink="http://www.w3.org/1999/xlink" x="0px" y="0px"
	 viewBox="0 0 298.8 23" style="enable-background:new 0 0 298.8 23;" xml:space="preserve">
<style type="text/css">
	.st0{fill:#FFFFFF;}
	.st1{fill:#151519;}
</style>
<g>
	<g>
		<path class="st0" d="M10.9,3.6l6.2,3.6c0.2,0.1,0.4,0.1,0.5,0l1.8-1.1c0.4-0.2,0.4-0.7,0-1l-8.5-4.9C10.6,0.1,10.4,0,10.2,0v3.3
			C10.4,3.3,10.6,3.4,10.9,3.6z"/>
		<path class="st0" d="M3.1,7.5C3.2,7.2,3.4,7,3.6,6.9l5.8-3.3c0.3-0.1,0.4-0.2,0.7-0.2V0C9.8,0,9.5,0.1,9.3,0.2l-8.6,5
			C0.5,5.4,0.3,5.6,0.2,5.8L3.1,7.5z"/>
		<path class="st0" d="M3.1,7.5C3,7.6,2.9,7.9,2.9,8.2v6.6c0,0.3,0.1,0.5,0.2,0.7c0,0,0,0,0,0.1l-2.9,1.7C0.1,17,0,16.7,0,16.4v-10
			C0,6.3,0.1,6,0.2,5.8L3.1,7.5z"/>
		<path class="st0" d="M3.1,15.5c0.1,0.2,0.3,0.4,0.5,0.5l5.8,3.3c0.3,0.1,0.4,0.2,0.7,0.2V23c-0.3,0-0.5-0.1-0.7-0.2l-8.6-5
			c-0.2-0.1-0.4-0.3-0.5-0.5L3.1,15.5z"/>
		<path class="st0" d="M17.2,15.5c-0.1,0.2-0.3,0.4-0.5,0.5l-5.8,3.3c-0.3,0.1-0.4,0.2-0.7,0.2V23c0.3,0,0.5-0.1,0.7-0.2l8.6-5
			c0.2-0.1,0.4-0.3,0.5-0.5L17.2,15.5z"/>
		<path class="st0" d="M17.2,15.5l2.9,1.7c0.2-0.3,0.2-0.5,0.2-0.8V8.8c0-0.2-0.1-0.4-0.3-0.4l-2.9,4.9c0.1,0.1,0.2,0.2,0.2,0.4v1.1
			C17.3,15.1,17.2,15.4,17.2,15.5z"/>
		<path class="st0" d="M19.5,8.4l-8.9,5.1c-0.3,0.2-0.5,0.5-0.5,0.9v1.9c0,0.4,0.4,0.6,0.7,0.4l5.8-3.4c0.2-0.1,0.3-0.1,0.4,0
			l2.9-4.9C19.9,8.3,19.7,8.3,19.5,8.4z"/>
	</g>
	<g>
		<g>
			<path class="st0" d="M47.7,7.9c0.1-0.3,0.3-0.4,0.5-0.4H49c0.3,0,0.4,0.1,0.5,0.4l2.6,7.4c0.1,0.4,0,0.5-0.4,0.5h-0.5
				c-0.3,0-0.4-0.1-0.5-0.4L50,13.7h-2.9l-0.5,1.7c-0.1,0.3-0.3,0.4-0.5,0.4h-0.5c-0.4,0-0.5-0.2-0.4-0.5L47.7,7.9z M49.7,12.5
				L49,10.2C48.8,9.8,48.6,9,48.6,9l0,0c0,0-0.2,0.8-0.4,1.3l-0.7,2.2H49.7z"/>
			<path class="st0" d="M41.3,14.1c0-0.4,0,0.4,0-2.3c0-0.4-0.2-0.4-0.4-0.4h-1.7c-0.4,0-0.4,0.2-0.4,0.4v0.4c0,0.3,0.2,0.4,0.4,0.4
				H40v1c-2,1.7-4.9,0.5-4.9-2.1c0-1.6,1-3,2.8-3c0.9,0,1.5,0.3,1.9,0.5c0.3,0.2,0.5,0.2,0.7-0.1l0.2-0.4c0.2-0.3,0.2-0.4-0.1-0.7
				c-0.2,0-1.3-0.7-2.8-0.7c-2.4,0-4.3,1.9-4.3,4.3l0,0c0,4.3,5,5.5,7.5,3C41.3,14.3,41.3,14.3,41.3,14.1z"/>
		</g>
		<g>
			<path class="st0" d="M61.6,8.6h-2.2c-0.4,0-0.5-0.2-0.5-0.4V7.8c0-0.3,0.2-0.5,0.5-0.5h6c0.3,0,0.4,0.2,0.4,0.5v0.4
				c0,0.3-0.2,0.4-0.4,0.4h-2.2v6.6c0,0.4-0.2,0.5-0.5,0.5h-0.5c-0.3,0-0.4-0.2-0.4-0.5V8.6z"/>
			<path class="st0" d="M69.7,7.8c0-0.3,0.2-0.5,0.4-0.5h4c0.3,0,0.5,0.2,0.5,0.5v0.4c0,0.3-0.2,0.4-0.5,0.4h-3v2.2h2.3
				c0.3,0,0.5,0.2,0.5,0.4v0.4c0,0.4-0.2,0.5-0.5,0.5h-2.3v2.2h3.1c0.3,0,0.5,0.2,0.5,0.4v0.4c0,0.4-0.2,0.5-0.5,0.5h-4.2
				c-0.3,0-0.4-0.2-0.4-0.5V7.8z"/>
			<path class="st0" d="M82.7,7.2c1.3,0,2.2,0.5,2.7,0.8c0.3,0.2,0.3,0.4,0.1,0.7l-0.2,0.4c-0.2,0.3-0.4,0.3-0.6,0.1
				c-0.4-0.3-1-0.6-1.9-0.6c-1.8,0-2.8,1.3-2.8,2.9s1,3,2.8,3c0.9,0,1.6-0.4,2.1-0.7c0.3-0.2,0.5-0.2,0.7,0.1l0.3,0.3
				c0.2,0.3,0.2,0.4-0.1,0.7c-0.4,0.4-1.4,1-3,1c-2.6,0-4.3-1.9-4.3-4.3C78.3,9.1,80.1,7.2,82.7,7.2z"/>
			<path class="st0" d="M90.2,7.8c0-0.3,0.2-0.5,0.4-0.5h0.5c0.3,0,0.4,0.2,0.4,0.5v3.1h3.8V7.8c0-0.3,0.2-0.5,0.5-0.5h0.5
				c0.3,0,0.4,0.2,0.4,0.5v7.4c0,0.4-0.2,0.5-0.4,0.5H96c-0.4,0-0.5-0.2-0.5-0.5v-3h-3.8v3c0,0.4-0.2,0.5-0.4,0.5h-0.5
				c-0.3,0-0.4-0.2-0.4-0.5V7.8z"/>
			<path class="st0" d="M102.1,7.8c0-0.3,0.2-0.5,0.4-0.5h0.6c0.3,0,0.4,0.1,0.6,0.4l3,4.5c0.3,0.5,0.7,1.3,0.7,1.3l0,0
				c0,0-0.1-0.8-0.1-1.3V7.8c0-0.3,0.2-0.5,0.5-0.5h0.5c0.3,0,0.5,0.2,0.5,0.5v7.4c0,0.4-0.2,0.5-0.5,0.5h-0.6
				c-0.3,0-0.4-0.1-0.5-0.4l-3-4.5c-0.3-0.5-0.7-1.3-0.7-1.3l0,0c0,0,0.1,0.8,0.1,1.3v4.3c0,0.4-0.2,0.5-0.4,0.5h-0.5
				c-0.3,0-0.4-0.2-0.4-0.5V7.8H102.1z"/>
			<path class="st0" d="M117.5,7.2c2.5,0,4.3,1.9,4.3,4.2c0,2.4-1.8,4.4-4.3,4.4c-2.5,0-4.3-1.9-4.3-4.4
				C113.2,9.1,115,7.2,117.5,7.2z M117.5,14.4c1.6,0,2.8-1.3,2.8-3c0-1.6-1.2-2.9-2.8-2.9c-1.6,0-2.8,1.3-2.8,2.9
				C114.7,13.1,115.9,14.4,117.5,14.4z"/>
			<path class="st0" d="M126.3,7.8c0-0.3,0.2-0.5,0.4-0.5h0.5c0.3,0,0.4,0.2,0.4,0.5v6.6h3.1c0.4,0,0.5,0.2,0.5,0.4v0.4
				c0,0.4-0.2,0.5-0.5,0.5h-4.1c-0.3,0-0.4-0.2-0.4-0.5V7.8z"/>
			<path class="st0" d="M138.6,7.2c2.5,0,4.3,1.9,4.3,4.2c0,2.4-1.8,4.4-4.3,4.4s-4.3-1.9-4.3-4.4C134.3,9.1,136.1,7.2,138.6,7.2z
				 M138.6,14.4c1.6,0,2.8-1.3,2.8-3c0-1.6-1.2-2.9-2.8-2.9s-2.8,1.3-2.8,2.9C135.9,13.1,137,14.4,138.6,14.4z"/>
			<path class="st0" d="M158.7,7.8c0-0.3,0.2-0.5,0.4-0.5h0.5c0.3,0,0.4,0.2,0.4,0.5v7.4c0,0.4-0.2,0.5-0.4,0.5h-0.5
				c-0.3,0-0.4-0.2-0.4-0.5V7.8z"/>
			<path class="st0" d="M165,7.8c0-0.3,0.2-0.5,0.4-0.5h4c0.3,0,0.5,0.2,0.5,0.5v0.4c0,0.3-0.2,0.4-0.5,0.4h-3v2.2h2.3
				c0.3,0,0.5,0.2,0.5,0.4v0.4c0,0.4-0.2,0.5-0.5,0.5h-2.3v2.2h3.1c0.3,0,0.5,0.2,0.5,0.4v0.4c0,0.4-0.2,0.5-0.5,0.5h-4.2
				c-0.3,0-0.4-0.2-0.4-0.5V7.8z"/>
			<path class="st0" d="M174.3,14.3l0.3-0.4c0.2-0.3,0.4-0.3,0.7-0.1c0.3,0.2,0.9,0.6,1.7,0.6s1.3-0.4,1.3-1c0-1.6-3.9-1.3-3.9-3.9
				c0-1.4,1.3-2.4,2.8-2.4c1,0,1.8,0.4,2.2,0.6c0.3,0.2,0.3,0.4,0.2,0.6l-0.2,0.4c-0.2,0.4-0.4,0.3-0.6,0.2
				c-0.4-0.2-0.8-0.4-1.4-0.4c-0.8,0-1.3,0.4-1.3,0.9c0,1.5,3.9,1.2,3.9,3.8c0,1.3-1,2.4-2.8,2.4c-1.2,0-2.2-0.5-2.6-0.8
				C174.2,14.8,174.1,14.6,174.3,14.3z"/>
			<path class="st0" d="M154.4,14.1c0-0.4,0,0.4,0-2.3c0-0.4-0.2-0.4-0.4-0.4h-1.7c-0.4,0-0.4,0.2-0.4,0.4v0.4
				c0,0.3,0.2,0.4,0.4,0.4h0.8v1c-2,1.7-4.9,0.5-4.9-2.1c0-1.6,1-3,2.8-3c0.9,0,1.5,0.3,1.9,0.5c0.3,0.2,0.5,0.2,0.7-0.1l0.2-0.4
				c0.2-0.3,0.2-0.4-0.1-0.7c-0.1-0.1-1.2-0.7-2.7-0.7c-2.4,0-4.3,1.9-4.3,4.3l0,0c0,4.3,5,5.5,7.5,3
				C154.4,14.3,154.4,14.3,154.4,14.1z"/>
		</g>
	</g>
</g>
<g>
	<path class="st1" d="M202.1,12.2l1.6,3c0.1,0.2,0,0.4-0.2,0.4h-1.3c-0.1,0-0.2-0.1-0.2-0.1l-1.5-3.1h-1.3v2.9
		c0,0.1-0.1,0.2-0.2,0.2H198c-0.1,0-0.2-0.1-0.2-0.2V7.5c0-0.1,0.1-0.2,0.2-0.2h3.3c1.4,0,2.5,1.1,2.5,2.5
		C203.8,11,203,11.9,202.1,12.2L202.1,12.2z M201.1,8.7h-1.9v2.3h1.9c0.6,0,1.2-0.5,1.2-1.2C202.2,9.3,201.7,8.7,201.1,8.7
		L201.1,8.7z M212.8,14.1c0.1,0,0.2,0.1,0.2,0.2v1c0,0.1-0.1,0.2-0.2,0.2h-4.8c-0.1,0-0.2-0.1-0.2-0.2V7.5c0-0.1,0.1-0.2,0.2-0.2
		h4.8c0.1,0,0.2,0.1,0.2,0.2v1c0,0.1-0.1,0.2-0.2,0.2h-3.5v1.9h2.9c0.1,0,0.2,0.1,0.2,0.2v1c0,0.1-0.1,0.2-0.2,0.2h-2.9V14
		L212.8,14.1L212.8,14.1z M222.9,9.3c-0.1,0.1-0.2,0.1-0.3,0c-0.4-0.4-1.2-0.7-1.8-0.7c-1.5,0-2.6,1.3-2.6,2.7s1.1,2.7,2.6,2.7
		c0.7,0,1.3-0.3,1.8-0.6c0.1-0.1,0.2-0.1,0.3,0l0.7,0.7c0.1,0.1,0.1,0.3,0,0.4c-0.8,0.8-1.8,1.2-2.9,1.2c-2.3,0-4.2-1.9-4.2-4.2
		s1.9-4.2,4.2-4.2c1.2,0,2.1,0.4,2.8,1.1c0.1,0.1,0.1,0.3,0,0.4L222.9,9.3L222.9,9.3z M231.7,12.2l1.6,3c0.1,0.2,0,0.4-0.2,0.4h-1.3
		c-0.1,0-0.2-0.1-0.2-0.1l-1.5-3.1h-1.3v2.9c0,0.1-0.1,0.2-0.2,0.2h-1.1c-0.1,0-0.2-0.1-0.2-0.2V7.5c0-0.1,0.1-0.2,0.2-0.2h3.3
		c1.4,0,2.5,1.1,2.5,2.5C233.4,11,232.7,11.9,231.7,12.2L231.7,12.2z M230.7,8.7h-1.9v2.3h1.9c0.6,0,1.2-0.5,1.2-1.2
		C231.9,9.3,231.3,8.7,230.7,8.7L230.7,8.7z M240.6,15.6c-1.8,0-3.2-1.4-3.2-3.2V7.5c0-0.1,0.1-0.2,0.2-0.2h1.1
		c0.1,0,0.2,0.1,0.2,0.2v4.8c0,1,0.7,1.8,1.7,1.8c1,0,1.7-0.8,1.7-1.8V7.5c0-0.1,0.1-0.2,0.2-0.2h1.1c0.1,0,0.2,0.1,0.2,0.2v4.9
		C243.9,14.2,242.5,15.6,240.6,15.6L240.6,15.6z M249,15.5H248c-0.1,0-0.2-0.1-0.2-0.2V7.5c0-0.1,0.1-0.2,0.2-0.2h1.1
		c0.1,0,0.2,0.1,0.2,0.2v7.7C249.2,15.5,249.1,15.5,249,15.5L249,15.5z M257.9,8.7h-1.8v6.6c0,0.1-0.1,0.2-0.2,0.2h-1.1
		c-0.1,0-0.2-0.1-0.2-0.2V8.7h-1.8c-0.1,0-0.2-0.1-0.2-0.2v-1c0-0.1,0.1-0.2,0.2-0.2h5.1c0.1,0,0.2,0.1,0.2,0.2v1
		C258,8.6,257.9,8.7,257.9,8.7L257.9,8.7z M270.2,15.5h-1.1c-0.1,0-0.2-0.1-0.2-0.2l-0.7-4.4l0,0l-2.1,4.6c0,0.1-0.1,0.1-0.2,0.1
		h-0.2c-0.1,0-0.2-0.1-0.2-0.1l-2.1-4.6l0,0l-0.7,4.4c0,0.1-0.1,0.2-0.2,0.2h-1.2c-0.2,0-0.3-0.1-0.2-0.3l1.3-7.8
		c0-0.1,0.1-0.2,0.2-0.2h0.2c0.1,0,0.2,0.1,0.2,0.1l2.6,5.5l0,0l2.6-5.5c0-0.1,0.1-0.1,0.2-0.1h0.2c0.1,0,0.2,0.1,0.2,0.2l1.5,7.8
		C270.4,15.5,270.3,15.5,270.2,15.5L270.2,15.5z M278.8,14.1c0.1,0,0.2,0.1,0.2,0.2v1c0,0.1-0.1,0.2-0.2,0.2H274
		c-0.1,0-0.2-0.1-0.2-0.2V7.5c0-0.1,0.1-0.2,0.2-0.2h4.8c0.1,0,0.2,0.1,0.2,0.2v1c0,0.1-0.1,0.2-0.2,0.2h-3.4v1.9h2.9
		c0.1,0,0.2,0.1,0.2,0.2v1c0,0.1-0.1,0.2-0.2,0.2h-2.9V14L278.8,14.1L278.8,14.1z M289.7,15.6h-0.3l-4.9-5.4l0,0v5
		c0,0.1-0.1,0.2-0.2,0.2h-1.1c-0.1,0-0.2-0.1-0.2-0.2V7.5c0-0.1,0.1-0.2,0.2-0.2h0.3l4.9,5.1l0,0V7.5c0-0.1,0.1-0.2,0.2-0.2h1.1
		c0.1,0,0.2,0.1,0.2,0.2v7.9C289.9,15.5,289.8,15.6,289.7,15.6L289.7,15.6z M298.6,8.7h-1.8v6.6c0,0.1-0.1,0.2-0.2,0.2h-1.1
		c-0.1,0-0.2-0.1-0.2-0.2V8.7h-1.8c-0.1,0-0.2-0.1-0.2-0.2v-1c0-0.1,0.1-0.2,0.2-0.2h5.1c0.1,0,0.2,0.1,0.2,0.2v1
		C298.8,8.6,298.7,8.7,298.6,8.7L298.6,8.7z"/>
</g>
</svg>
