<?xml version="1.0" encoding="utf-8"?>
<!-- Generator: Adobe Illustrator 22.1.0, SVG Export Plug-In . SVG Version: 6.00 Build 0)  -->
<svg version="1.1" id="Layer_1" xmlns="http://www.w3.org/2000/svg" xmlns:xlink="http://www.w3.org/1999/xlink" x="0px" y="0px"
	 viewBox="0 0 224.6 19.7" style="enable-background:new 0 0 224.6 19.7;" xml:space="preserve">
<style type="text/css">
	.st0{fill:#4A66A9;}
	.st1{fill:#4174B4;}
	.st2{fill:#3880B7;}
	.st3{fill:#3287B4;}
	.st4{fill:#2793B2;}
	.st5{fill:#209FB0;}
	.st6{fill:#14ABAE;}
	.st7{fill:url(#SVGID_1_);}
	.st8{fill:url(#SVGID_2_);}
	.st9{fill:url(#SVGID_3_);}
	.st10{fill:url(#SVGID_4_);}
	.st11{fill:url(#SVGID_5_);}
	.st12{fill:url(#SVGID_6_);}
	.st13{fill:url(#SVGID_7_);}
	.st14{fill:url(#SVGID_8_);}
	.st15{fill:url(#SVGID_9_);}
	.st16{fill:url(#SVGID_10_);}
	.st17{fill:url(#SVGID_11_);}
	.st18{fill:url(#SVGID_12_);}
	.st19{fill:url(#SVGID_13_);}
	.st20{fill:url(#SVGID_14_);}
	.st21{fill:#151519;}
</style>
<g>
	<g>
		<path class="st0" d="M9.3,3.1l5.3,3.1c0.1,0.1,0.3,0.1,0.4,0l1.5-0.9c0.3-0.1,0.3-0.6,0-0.8L9.3,0.1C9.1,0.1,8.9,0,8.7,0v2.9
			C8.9,2.9,9.1,2.9,9.3,3.1z"/>
		<path class="st1" d="M2.6,6.4C2.8,6.2,2.9,6,3.1,6L8,3.1C8.2,3,8.4,3,8.6,3V0C8.3,0,8.1,0.1,8,0.1L0.6,4.5C0.4,4.6,0.2,4.8,0.1,5
			L2.6,6.4z"/>
		<path class="st2" d="M2.6,6.4c0,0.1-0.1,0.4-0.1,0.6v5.7c0,0.2,0.1,0.4,0.1,0.6c0,0,0,0,0,0.1l-2.5,1.5c0-0.3-0.1-0.5-0.1-0.8V5.5
			C0,5.4,0.1,5.1,0.1,5L2.6,6.4z"/>
		<path class="st3" d="M2.7,13.3c0.1,0.1,0.2,0.3,0.4,0.4l4.9,2.9c0.2,0.1,0.4,0.1,0.6,0.1v3c-0.2,0-0.4-0.1-0.6-0.1l-7.4-4.3
			c-0.1-0.1-0.3-0.2-0.4-0.4L2.7,13.3z"/>
		<path class="st4" d="M14.7,13.3c-0.1,0.1-0.2,0.3-0.4,0.4l-4.9,2.9c-0.2,0.1-0.4,0.1-0.6,0.1v3c0.2,0,0.4-0.1,0.6-0.1l7.4-4.3
			c0.1-0.1,0.3-0.2,0.4-0.4L14.7,13.3z"/>
		<path class="st5" d="M14.7,13.3l2.5,1.5c0.1-0.2,0.1-0.4,0.1-0.7V7.5c0-0.1-0.1-0.3-0.2-0.4l-2.5,4.2c0.1,0.1,0.1,0.1,0.1,0.3v0.9
			C14.9,12.9,14.8,13.2,14.7,13.3z"/>
		<path class="st6" d="M16.7,7.2l-7.6,4.4c-0.2,0.1-0.4,0.4-0.4,0.8V14c0,0.3,0.3,0.5,0.6,0.4l5-2.9c0.1-0.1,0.2-0.1,0.4,0l2.5-4.2
			C17,7.1,16.9,7.1,16.7,7.2z"/>
	</g>
	<g>
		<g>
			
				<linearGradient id="SVGID_1_" gradientUnits="userSpaceOnUse" x1="61.924" y1="237.003" x2="316.1377" y2="237.003" gradientTransform="matrix(0.4932 0 0 0.4932 -2.0272 -106.8063)">
				<stop  offset="0" style="stop-color:#14ABAE"/>
				<stop  offset="1" style="stop-color:#4B69B0"/>
			</linearGradient>
			<path class="st7" d="M40.9,6.8c0.1-0.2,0.2-0.3,0.4-0.3H42c0.2,0,0.4,0.1,0.4,0.3l2.2,6.3c0.1,0.3,0,0.4-0.3,0.4h-0.4
				c-0.2,0-0.4-0.1-0.4-0.3l-0.5-1.5h-2.5L40,13.3c-0.1,0.2-0.2,0.4-0.4,0.4h-0.4c-0.3,0-0.4-0.1-0.3-0.4L40.9,6.8z M42.6,10.7
				L42,8.8c-0.1-0.4-0.3-1.1-0.3-1.1l0,0c0,0-0.1,0.7-0.3,1.1l-0.6,1.9H42.6z"/>
			
				<linearGradient id="SVGID_2_" gradientUnits="userSpaceOnUse" x1="61.924" y1="236.42" x2="316.1377" y2="236.42" gradientTransform="matrix(0.4932 0 0 0.4932 -2.0272 -106.8063)">
				<stop  offset="0" style="stop-color:#14ABAE"/>
				<stop  offset="1" style="stop-color:#4B69B0"/>
			</linearGradient>
			<path class="st8" d="M35.5,12.1c0-0.4,0,0.3,0-2c0-0.3-0.1-0.4-0.4-0.4h-1.5c-0.3,0-0.4,0.1-0.4,0.4v0.3c0,0.2,0.1,0.4,0.4,0.4
				h0.7v0.8c-1.7,1.5-4.1,0.4-4.1-1.8c0-1.4,0.8-2.6,2.4-2.6c0.8,0,1.3,0.2,1.6,0.4c0.2,0.1,0.4,0.1,0.6-0.1l0.1-0.3
				C35,7.1,35,6.9,34.8,6.7c-0.1,0-1.1-0.6-2.4-0.6c-2.1,0-3.7,1.6-3.7,3.7l0,0c0,3.7,4.3,4.7,6.5,2.6
				C35.5,12.2,35.5,12.2,35.5,12.1z"/>
		</g>
		<g>
			
				<linearGradient id="SVGID_3_" gradientUnits="userSpaceOnUse" x1="61.924" y1="236.553" x2="316.1377" y2="236.553" gradientTransform="matrix(0.4932 0 0 0.4932 -2.0272 -106.8063)">
				<stop  offset="0" style="stop-color:#14ABAE"/>
				<stop  offset="1" style="stop-color:#4B69B0"/>
			</linearGradient>
			<path class="st9" d="M52.9,7.4h-1.9c-0.3,0-0.4-0.1-0.4-0.4V6.7c0-0.2,0.1-0.4,0.4-0.4h5.2c0.2,0,0.4,0.1,0.4,0.4V7
				c0,0.2-0.1,0.4-0.4,0.4h-1.9V13c0,0.3-0.1,0.4-0.4,0.4h-0.5c-0.2,0-0.4-0.1-0.4-0.4V7.4z"/>
			
				<linearGradient id="SVGID_4_" gradientUnits="userSpaceOnUse" x1="61.9226" y1="236.553" x2="316.1364" y2="236.553" gradientTransform="matrix(0.4932 0 0 0.4932 -2.0272 -106.8063)">
				<stop  offset="0" style="stop-color:#14ABAE"/>
				<stop  offset="1" style="stop-color:#4B69B0"/>
			</linearGradient>
			<path class="st10" d="M59.8,6.7c0-0.2,0.1-0.4,0.4-0.4h3.5c0.2,0,0.4,0.1,0.4,0.4V7c0,0.2-0.1,0.4-0.4,0.4h-2.6v1.9h2
				c0.2,0,0.4,0.1,0.4,0.4V10c0,0.3-0.1,0.4-0.4,0.4h-2v1.9h2.7c0.2,0,0.4,0.1,0.4,0.4V13c0,0.3-0.1,0.4-0.4,0.4h-3.6
				c-0.2,0-0.4-0.1-0.4-0.4V6.7z"/>
			
				<linearGradient id="SVGID_5_" gradientUnits="userSpaceOnUse" x1="61.924" y1="236.503" x2="316.1377" y2="236.503" gradientTransform="matrix(0.4932 0 0 0.4932 -2.0272 -106.8063)">
				<stop  offset="0" style="stop-color:#14ABAE"/>
				<stop  offset="1" style="stop-color:#4B69B0"/>
			</linearGradient>
			<path class="st11" d="M70.9,6.2c1.1,0,1.9,0.4,2.3,0.7c0.2,0.1,0.2,0.4,0.1,0.6l-0.1,0.3C73,8,72.9,8,72.6,7.8
				c-0.3-0.2-0.8-0.5-1.6-0.5c-1.5,0-2.4,1.1-2.4,2.5s0.8,2.6,2.4,2.6c0.8,0,1.4-0.4,1.8-0.6c0.2-0.1,0.4-0.1,0.6,0.1l0.2,0.2
				c0.1,0.2,0.1,0.4-0.1,0.6c-0.4,0.3-1.2,0.8-2.6,0.8c-2.2,0-3.7-1.6-3.7-3.7C67.2,7.8,68.8,6.2,70.9,6.2z"/>
			
				<linearGradient id="SVGID_6_" gradientUnits="userSpaceOnUse" x1="61.924" y1="236.553" x2="316.1377" y2="236.553" gradientTransform="matrix(0.4932 0 0 0.4932 -2.0272 -106.8063)">
				<stop  offset="0" style="stop-color:#14ABAE"/>
				<stop  offset="1" style="stop-color:#4B69B0"/>
			</linearGradient>
			<path class="st12" d="M77.4,6.7c0-0.2,0.1-0.4,0.4-0.4h0.4c0.2,0,0.4,0.1,0.4,0.4v2.6h3.3V6.7c0-0.2,0.1-0.4,0.4-0.4h0.4
				c0.2,0,0.4,0.1,0.4,0.4V13c0,0.3-0.1,0.4-0.4,0.4h-0.4c-0.3,0-0.4-0.1-0.4-0.4v-2.6h-3.3V13c0,0.3-0.1,0.4-0.4,0.4h-0.4
				c-0.2,0-0.4-0.1-0.4-0.4V6.7z"/>
			
				<linearGradient id="SVGID_7_" gradientUnits="userSpaceOnUse" x1="61.924" y1="236.553" x2="316.1377" y2="236.553" gradientTransform="matrix(0.4932 0 0 0.4932 -2.0272 -106.8063)">
				<stop  offset="0" style="stop-color:#14ABAE"/>
				<stop  offset="1" style="stop-color:#4B69B0"/>
			</linearGradient>
			<path class="st13" d="M87.5,6.7c0-0.2,0.1-0.4,0.4-0.4h0.5c0.2,0,0.4,0.1,0.5,0.3l2.6,3.8c0.2,0.4,0.6,1.1,0.6,1.1l0,0
				c0,0-0.1-0.7-0.1-1.1V6.7c0-0.2,0.1-0.4,0.4-0.4H93c0.2,0,0.4,0.1,0.4,0.4V13c0,0.3-0.1,0.4-0.4,0.4h-0.5c-0.2,0-0.4-0.1-0.4-0.3
				l-2.6-3.8c-0.2-0.4-0.6-1.1-0.6-1.1l0,0c0,0,0.1,0.7,0.1,1.1V13c0,0.3-0.1,0.4-0.4,0.4h-0.4c-0.2,0-0.4-0.1-0.4-0.4V6.7H87.5z"/>
			
				<linearGradient id="SVGID_8_" gradientUnits="userSpaceOnUse" x1="61.924" y1="236.553" x2="316.1377" y2="236.553" gradientTransform="matrix(0.4932 0 0 0.4932 -2.0272 -106.8063)">
				<stop  offset="0" style="stop-color:#14ABAE"/>
				<stop  offset="1" style="stop-color:#4B69B0"/>
			</linearGradient>
			<path class="st14" d="M100.8,6.2c2.2,0,3.7,1.6,3.7,3.6c0,2.1-1.5,3.8-3.7,3.8s-3.7-1.6-3.7-3.8C97.1,7.8,98.6,6.2,100.8,6.2z
				 M100.8,12.3c1.4,0,2.4-1.1,2.4-2.6c0-1.4-1-2.5-2.4-2.5s-2.4,1.1-2.4,2.5C98.4,11.2,99.4,12.3,100.8,12.3z"/>
			
				<linearGradient id="SVGID_9_" gradientUnits="userSpaceOnUse" x1="61.924" y1="236.553" x2="316.1377" y2="236.553" gradientTransform="matrix(0.4932 0 0 0.4932 -2.0272 -106.8063)">
				<stop  offset="0" style="stop-color:#14ABAE"/>
				<stop  offset="1" style="stop-color:#4B69B0"/>
			</linearGradient>
			<path class="st15" d="M108.4,6.7c0-0.2,0.1-0.4,0.4-0.4h0.4c0.2,0,0.4,0.1,0.4,0.4v5.6h2.7c0.3,0,0.4,0.1,0.4,0.4V13
				c0,0.3-0.1,0.4-0.4,0.4h-3.6c-0.2,0-0.4-0.1-0.4-0.4V6.7z"/>
			
				<linearGradient id="SVGID_10_" gradientUnits="userSpaceOnUse" x1="61.924" y1="236.553" x2="316.1377" y2="236.553" gradientTransform="matrix(0.4932 0 0 0.4932 -2.0272 -106.8063)">
				<stop  offset="0" style="stop-color:#14ABAE"/>
				<stop  offset="1" style="stop-color:#4B69B0"/>
			</linearGradient>
			<path class="st16" d="M118.9,6.2c2.2,0,3.7,1.6,3.7,3.6c0,2.1-1.5,3.8-3.7,3.8s-3.7-1.6-3.7-3.8C115.2,7.8,116.7,6.2,118.9,6.2z
				 M118.9,12.3c1.4,0,2.4-1.1,2.4-2.6c0-1.4-1-2.5-2.4-2.5s-2.4,1.1-2.4,2.5C116.6,11.2,117.5,12.3,118.9,12.3z"/>
			
				<linearGradient id="SVGID_11_" gradientUnits="userSpaceOnUse" x1="61.924" y1="236.553" x2="316.1377" y2="236.553" gradientTransform="matrix(0.4932 0 0 0.4932 -2.0272 -106.8063)">
				<stop  offset="0" style="stop-color:#14ABAE"/>
				<stop  offset="1" style="stop-color:#4B69B0"/>
			</linearGradient>
			<path class="st17" d="M136.1,6.7c0-0.2,0.1-0.4,0.4-0.4h0.4c0.2,0,0.4,0.1,0.4,0.4V13c0,0.3-0.1,0.4-0.4,0.4h-0.4
				c-0.2,0-0.4-0.1-0.4-0.4V6.7z"/>
			
				<linearGradient id="SVGID_12_" gradientUnits="userSpaceOnUse" x1="61.924" y1="236.553" x2="316.1377" y2="236.553" gradientTransform="matrix(0.4932 0 0 0.4932 -2.0272 -106.8063)">
				<stop  offset="0" style="stop-color:#14ABAE"/>
				<stop  offset="1" style="stop-color:#4B69B0"/>
			</linearGradient>
			<path class="st18" d="M141.6,6.7c0-0.2,0.1-0.4,0.4-0.4h3.5c0.2,0,0.4,0.1,0.4,0.4V7c0,0.2-0.1,0.4-0.4,0.4h-2.6v1.9h2
				c0.2,0,0.4,0.1,0.4,0.4V10c0,0.3-0.1,0.4-0.4,0.4h-2v1.9h2.7c0.2,0,0.4,0.1,0.4,0.4V13c0,0.3-0.1,0.4-0.4,0.4h-3.6
				c-0.2,0-0.4-0.1-0.4-0.4V6.7z"/>
			
				<linearGradient id="SVGID_13_" gradientUnits="userSpaceOnUse" x1="61.924" y1="236.403" x2="316.1377" y2="236.403" gradientTransform="matrix(0.4932 0 0 0.4932 -2.0272 -106.8063)">
				<stop  offset="0" style="stop-color:#14ABAE"/>
				<stop  offset="1" style="stop-color:#4B69B0"/>
			</linearGradient>
			<path class="st19" d="M149.5,12.2l0.2-0.3c0.1-0.2,0.3-0.2,0.6-0.1c0.2,0.1,0.8,0.5,1.5,0.5s1.1-0.3,1.1-0.8
				c0-1.4-3.3-1.1-3.3-3.3c0-1.2,1.1-2.1,2.4-2.1c0.8,0,1.5,0.3,1.8,0.5c0.2,0.1,0.2,0.4,0.1,0.5l-0.1,0.3c-0.1,0.3-0.4,0.2-0.5,0.1
				c-0.3-0.1-0.7-0.4-1.2-0.4c-0.7,0-1.1,0.3-1.1,0.8c0,1.3,3.3,1,3.3,3.3c0,1.1-0.8,2.1-2.4,2.1c-1,0-1.8-0.4-2.2-0.7
				C149.4,12.7,149.3,12.5,149.5,12.2z"/>
			
				<linearGradient id="SVGID_14_" gradientUnits="userSpaceOnUse" x1="61.924" y1="236.42" x2="316.1377" y2="236.42" gradientTransform="matrix(0.4932 0 0 0.4932 -2.0272 -106.8063)">
				<stop  offset="0" style="stop-color:#14ABAE"/>
				<stop  offset="1" style="stop-color:#4B69B0"/>
			</linearGradient>
			<path class="st20" d="M132.5,12.1c0-0.4,0,0.3,0-2c0-0.3-0.1-0.4-0.4-0.4h-1.5c-0.3,0-0.4,0.1-0.4,0.4v0.3c0,0.2,0.1,0.4,0.4,0.4
				h0.7v0.8c-1.7,1.5-4.1,0.4-4.1-1.8c0-1.4,0.8-2.6,2.4-2.6c0.8,0,1.3,0.2,1.6,0.4c0.2,0.1,0.4,0.1,0.6-0.1l0.1-0.3
				c0.1-0.2,0.1-0.4-0.1-0.6c-0.1-0.1-1-0.6-2.3-0.6c-2.1,0-3.7,1.6-3.7,3.7l0,0c0,3.7,4.3,4.7,6.5,2.6
				C132.5,12.2,132.5,12.2,132.5,12.1z"/>
		</g>
	</g>
</g>
<g>
	<path class="st21" d="M166.7,10.5l1,1.8c0,0.1,0,0.2-0.1,0.2h-0.7c0,0-0.1,0-0.1,0l-0.9-1.8H165v1.7c0,0,0,0.1-0.1,0.1h-0.7
		c0,0-0.1,0-0.1-0.1V7.7c0,0,0-0.1,0.1-0.1h2c0.8,0,1.5,0.6,1.5,1.5C167.7,9.8,167.2,10.3,166.7,10.5L166.7,10.5z M166.1,8.4h-1.1
		v1.4h1.1c0.4,0,0.7-0.3,0.7-0.7S166.5,8.4,166.1,8.4L166.1,8.4z M173.1,11.6C173.2,11.6,173.2,11.7,173.1,11.6l0.1,0.7
		c0,0,0,0.1-0.1,0.1h-2.9c0,0-0.1,0-0.1-0.1V7.7c0,0,0-0.1,0.1-0.1h2.9c0,0,0.1,0,0.1,0.1v0.6c0,0,0,0.1-0.1,0.1H171v1.1h1.7
		c0,0,0.1,0,0.1,0.1v0.6c0,0,0,0.1-0.1,0.1H171v1.2L173.1,11.6L173.1,11.6z M179.1,8.8c0,0-0.1,0-0.1,0c-0.2-0.2-0.7-0.4-1.1-0.4
		c-0.9,0-1.6,0.7-1.6,1.6c0,0.8,0.6,1.6,1.6,1.6c0.4,0,0.7-0.1,1.1-0.4c0,0,0.1,0,0.1,0l0.4,0.4c0,0,0,0.1,0,0.2
		c-0.5,0.5-1.1,0.7-1.7,0.7c-1.4,0-2.5-1.1-2.5-2.5s1.1-2.5,2.5-2.5c0.7,0,1.2,0.2,1.7,0.6c0,0,0,0.1,0,0.2L179.1,8.8L179.1,8.8z
		 M184.4,10.5l1,1.8c0,0.1,0,0.2-0.1,0.2h-0.7c0,0-0.1,0-0.1,0l-0.9-1.8h-0.7v1.7c0,0,0,0.1-0.1,0.1H182c0,0-0.1,0-0.1-0.1V7.7
		c0,0,0-0.1,0.1-0.1h2c0.8,0,1.5,0.6,1.5,1.5C185.4,9.8,185,10.3,184.4,10.5L184.4,10.5z M183.8,8.4h-1.1v1.4h1.1
		c0.4,0,0.7-0.3,0.7-0.7S184.2,8.4,183.8,8.4L183.8,8.4z M189.7,12.5c-1.1,0-1.9-0.8-1.9-1.9V7.7c0,0,0-0.1,0.1-0.1h0.6
		c0,0,0.1,0,0.1,0.1v2.9c0,0.6,0.4,1.1,1,1.1s1-0.5,1-1.1V7.7c0,0,0-0.1,0.1-0.1h0.6c0,0,0.1,0,0.1,0.1v2.9
		C191.7,11.7,190.9,12.5,189.7,12.5L189.7,12.5z M194.8,12.5h-0.6c0,0-0.1,0-0.1-0.1V7.7c0,0,0-0.1,0.1-0.1h0.6c0,0,0.1,0,0.1,0.1
		v4.6C194.9,12.4,194.9,12.5,194.8,12.5L194.8,12.5z M200,8.4H199v3.9c0,0,0,0.1-0.1,0.1h-0.6c0,0-0.1,0-0.1-0.1V8.4H197
		c0,0-0.1,0-0.1-0.1V7.7c0,0,0-0.1,0.1-0.1h3.1c0,0,0.1,0,0.1,0.1v0.6C200.2,8.3,200.1,8.4,200,8.4L200,8.4z M207.4,12.5h-0.6
		c0,0-0.1,0-0.1-0.1l-0.4-2.6l0,0l-1.2,2.8c0,0,0,0-0.1,0h-0.1c0,0-0.1,0-0.1,0l-1.2-2.8l0,0l-0.4,2.6c0,0,0,0.1-0.1,0.1h-0.7
		c-0.1,0-0.1,0-0.1-0.1l0.8-4.7c0,0,0-0.1,0.1-0.1h0.1c0,0,0.1,0,0.1,0l1.6,3.3l0,0l1.6-3.3c0,0,0,0,0.1,0h0.1c0,0,0.1,0,0.1,0.1
		l0.9,4.7C207.6,12.4,207.5,12.5,207.4,12.5L207.4,12.5z M212.6,11.6C212.6,11.6,212.7,11.7,212.6,11.6l0.1,0.7c0,0,0,0.1-0.1,0.1
		h-2.9c0,0-0.1,0-0.1-0.1V7.7c0,0,0-0.1,0.1-0.1h2.9c0,0,0.1,0,0.1,0.1v0.6c0,0,0,0.1-0.1,0.1h-2v1.1h1.7c0,0,0.1,0,0.1,0.1v0.6
		c0,0,0,0.1-0.1,0.1h-1.7v1.2L212.6,11.6L212.6,11.6z M219.1,12.5H219l-2.9-3.2l0,0v3c0,0,0,0.1-0.1,0.1h-0.6c0,0-0.1,0-0.1-0.1V7.6
		c0,0,0-0.1,0.1-0.1h0.1l2.9,3.1l0,0V7.7c0,0,0-0.1,0.1-0.1h0.6c0,0,0.1,0,0.1,0.1L219.1,12.5C219.3,12.5,219.2,12.5,219.1,12.5
		L219.1,12.5z M224.4,8.4h-1.1v3.9c0,0,0,0.1-0.1,0.1h-0.6c0,0-0.1,0-0.1-0.1V8.4h-1.1c0,0-0.1,0-0.1-0.1V7.7c0,0,0-0.1,0.1-0.1h3.1
		c0,0,0.1,0,0.1,0.1v0.6C224.6,8.3,224.5,8.4,224.4,8.4L224.4,8.4z"/>
</g>
</svg>
