<?xml version="1.0" encoding="utf-8"?>
<!-- Generator: Adobe Illustrator 22.1.0, SVG Export Plug-In . SVG Version: 6.00 Build 0)  -->
<svg version="1.1" id="Layer_1" xmlns="http://www.w3.org/2000/svg" xmlns:xlink="http://www.w3.org/1999/xlink" x="0px" y="0px"
	 viewBox="0 0 332.6 25.6" style="enable-background:new 0 0 332.6 25.6;" xml:space="preserve">
<style type="text/css">
	.st0{fill:#4A66A9;}
	.st1{fill:#4174B4;}
	.st2{fill:#3880B7;}
	.st3{fill:#3287B4;}
	.st4{fill:#2793B2;}
	.st5{fill:#209FB0;}
	.st6{fill:#14ABAE;}
	.st7{fill:url(#SVGID_1_);}
	.st8{fill:url(#SVGID_2_);}
	.st9{fill:url(#SVGID_3_);}
	.st10{fill:url(#SVGID_4_);}
	.st11{fill:url(#SVGID_5_);}
	.st12{fill:url(#SVGID_6_);}
	.st13{fill:url(#SVGID_7_);}
	.st14{fill:url(#SVGID_8_);}
	.st15{fill:url(#SVGID_9_);}
	.st16{fill:url(#SVGID_10_);}
	.st17{fill:url(#SVGID_11_);}
	.st18{fill:url(#SVGID_12_);}
	.st19{fill:url(#SVGID_13_);}
	.st20{fill:url(#SVGID_14_);}
	.st21{fill:#151519;}
</style>
<g>
	<g>
		<path class="st0" d="M12.1,4L19,8c0.2,0.1,0.4,0.1,0.6,0l2-1.2C22,6.6,22,6,21.6,5.7l-9.5-5.5C11.8,0.1,11.6,0,11.3,0v3.7
			C11.6,3.7,11.8,3.8,12.1,4z"/>
		<path class="st1" d="M3.4,8.3C3.6,8,3.8,7.8,4,7.7L10.4,4c0.3-0.1,0.5-0.2,0.8-0.2V0c-0.3,0-0.6,0.1-0.8,0.2L0.8,5.8
			C0.6,6,0.3,6.2,0.2,6.5L3.4,8.3z"/>
		<path class="st2" d="M3.4,8.3C3.3,8.5,3.2,8.8,3.2,9.1v7.4c0,0.3,0.1,0.6,0.2,0.8c0,0,0,0,0,0.1l-3.2,1.9c-0.1-0.4-0.2-0.7-0.2-1
			V7.2C0,7,0.1,6.7,0.2,6.5L3.4,8.3z"/>
		<path class="st3" d="M3.5,17.3c0.1,0.2,0.3,0.4,0.6,0.6l6.4,3.7c0.3,0.1,0.5,0.2,0.8,0.2v3.8c-0.3,0-0.6-0.1-0.8-0.2l-9.6-5.6
			c-0.2-0.1-0.4-0.3-0.6-0.6L3.5,17.3z"/>
		<path class="st4" d="M19.1,17.3c-0.1,0.2-0.3,0.4-0.6,0.6l-6.4,3.7c-0.3,0.1-0.5,0.2-0.8,0.2v3.8c0.3,0,0.6-0.1,0.8-0.2l9.6-5.6
			c0.2-0.1,0.4-0.3,0.6-0.6L19.1,17.3z"/>
		<path class="st5" d="M19.1,17.3l3.2,1.9c0.2-0.3,0.2-0.6,0.2-0.9V9.8c0-0.2-0.1-0.4-0.3-0.5L19,14.8c0.1,0.1,0.2,0.2,0.2,0.4v1.2
			C19.3,16.8,19.2,17.1,19.1,17.3z"/>
		<path class="st6" d="M21.7,9.3L11.8,15c-0.3,0.2-0.6,0.6-0.6,1v2.1c0,0.4,0.4,0.7,0.8,0.5l6.5-3.8c0.2-0.1,0.3-0.1,0.5,0l3.2-5.5
			C22.1,9.2,21.9,9.2,21.7,9.3z"/>
	</g>
	<g>
		<g>
			
				<linearGradient id="SVGID_1_" gradientUnits="userSpaceOnUse" x1="37.0009" y1="117.4823" x2="199.6977" y2="117.4823" gradientTransform="matrix(1 0 0 -1 0 130.5323)">
				<stop  offset="0" style="stop-color:#14ABAE"/>
				<stop  offset="1" style="stop-color:#4B69B0"/>
			</linearGradient>
			<path class="st7" d="M53.1,8.8c0.1-0.3,0.3-0.4,0.6-0.4h0.8c0.3,0,0.5,0.1,0.6,0.4L58,17c0.1,0.4,0,0.6-0.4,0.6H57
				c-0.3,0-0.5-0.1-0.6-0.4l-0.7-1.9h-3.2l-0.6,1.9c-0.1,0.3-0.3,0.5-0.6,0.5h-0.6c-0.4,0-0.6-0.2-0.4-0.6L53.1,8.8z M55.3,13.9
				l-0.8-2.5c-0.2-0.5-0.4-1.4-0.4-1.4l0,0c0,0-0.2,0.9-0.4,1.4l-0.8,2.5H55.3z"/>
			
				<linearGradient id="SVGID_2_" gradientUnits="userSpaceOnUse" x1="37.0009" y1="117.7528" x2="199.6977" y2="117.7528" gradientTransform="matrix(1 0 0 -1 0 130.5323)">
				<stop  offset="0" style="stop-color:#14ABAE"/>
				<stop  offset="1" style="stop-color:#4B69B0"/>
			</linearGradient>
			<path class="st8" d="M46,15.7c0-0.5,0,0.4,0-2.6c0-0.4-0.2-0.5-0.5-0.5h-1.9c-0.4,0-0.5,0.2-0.5,0.5v0.4c0,0.3,0.2,0.5,0.5,0.5
				h0.9v1.1c-2.2,1.9-5.4,0.6-5.4-2.3c0-1.8,1.1-3.3,3.1-3.3c1,0,1.7,0.3,2.1,0.6c0.3,0.2,0.6,0.2,0.8-0.1l0.2-0.4
				c0.2-0.3,0.2-0.5-0.1-0.8C45,8.8,43.8,8,42.1,8c-2.7,0-4.8,2.1-4.8,4.8l0,0c0,4.8,5.6,6.1,8.4,3.3C46,15.9,46,15.9,46,15.7z"/>
		</g>
		<g>
			
				<linearGradient id="SVGID_3_" gradientUnits="userSpaceOnUse" x1="37.0009" y1="117.7323" x2="199.6977" y2="117.7323" gradientTransform="matrix(1 0 0 -1 0 130.5323)">
				<stop  offset="0" style="stop-color:#14ABAE"/>
				<stop  offset="1" style="stop-color:#4B69B0"/>
			</linearGradient>
			<path class="st9" d="M68.6,9.6h-2.5c-0.4,0-0.6-0.2-0.6-0.5V8.7c0-0.3,0.2-0.6,0.6-0.6h6.7c0.3,0,0.5,0.2,0.5,0.6v0.4
				c0,0.3-0.2,0.5-0.5,0.5h-2.5v7.3c0,0.4-0.2,0.6-0.6,0.6h-0.6c-0.3,0-0.5-0.2-0.5-0.6V9.6z"/>
			
				<linearGradient id="SVGID_4_" gradientUnits="userSpaceOnUse" x1="37" y1="117.7323" x2="199.6968" y2="117.7323" gradientTransform="matrix(1 0 0 -1 0 130.5323)">
				<stop  offset="0" style="stop-color:#14ABAE"/>
				<stop  offset="1" style="stop-color:#4B69B0"/>
			</linearGradient>
			<path class="st10" d="M77.6,8.7c0-0.3,0.2-0.6,0.5-0.6h4.5c0.3,0,0.6,0.2,0.6,0.6v0.4c0,0.3-0.2,0.5-0.6,0.5h-3.3V12h2.6
				c0.3,0,0.6,0.2,0.6,0.5v0.4c0,0.4-0.2,0.6-0.6,0.6h-2.6V16h3.5c0.3,0,0.6,0.2,0.6,0.5v0.4c0,0.4-0.2,0.6-0.6,0.6h-4.7
				c-0.3,0-0.5-0.2-0.5-0.6V8.7z"/>
			
				<linearGradient id="SVGID_5_" gradientUnits="userSpaceOnUse" x1="37.0009" y1="117.7823" x2="199.6977" y2="117.7823" gradientTransform="matrix(1 0 0 -1 0 130.5323)">
				<stop  offset="0" style="stop-color:#14ABAE"/>
				<stop  offset="1" style="stop-color:#4B69B0"/>
			</linearGradient>
			<path class="st11" d="M92,8c1.5,0,2.5,0.6,3,0.9c0.3,0.2,0.3,0.5,0.1,0.8l-0.2,0.4c-0.2,0.3-0.4,0.3-0.7,0.1
				c-0.4-0.3-1.1-0.7-2.1-0.7c-2,0-3.1,1.5-3.1,3.2s1.1,3.3,3.1,3.3c1,0,1.8-0.5,2.3-0.8c0.3-0.2,0.6-0.2,0.8,0.1l0.3,0.3
				c0.2,0.3,0.2,0.5-0.1,0.8c-0.5,0.4-1.6,1.1-3.3,1.1c-2.9,0-4.8-2.1-4.8-4.8C87.2,10.1,89.2,8,92,8z"/>
			
				<linearGradient id="SVGID_6_" gradientUnits="userSpaceOnUse" x1="37.0009" y1="117.7323" x2="199.6977" y2="117.7323" gradientTransform="matrix(1 0 0 -1 0 130.5323)">
				<stop  offset="0" style="stop-color:#14ABAE"/>
				<stop  offset="1" style="stop-color:#4B69B0"/>
			</linearGradient>
			<path class="st12" d="M100.4,8.7c0-0.3,0.2-0.6,0.5-0.6h0.6c0.3,0,0.5,0.2,0.5,0.6v3.4h4.2V8.7c0-0.3,0.2-0.6,0.6-0.6h0.6
				c0.3,0,0.5,0.2,0.5,0.6v8.2c0,0.4-0.2,0.6-0.5,0.6h-0.6c-0.4,0-0.6-0.2-0.6-0.6v-3.3H102v3.3c0,0.4-0.2,0.6-0.5,0.6h-0.6
				c-0.3,0-0.5-0.2-0.5-0.6V8.7z"/>
			
				<linearGradient id="SVGID_7_" gradientUnits="userSpaceOnUse" x1="37.0009" y1="117.7323" x2="199.6977" y2="117.7323" gradientTransform="matrix(1 0 0 -1 0 130.5323)">
				<stop  offset="0" style="stop-color:#14ABAE"/>
				<stop  offset="1" style="stop-color:#4B69B0"/>
			</linearGradient>
			<path class="st13" d="M113.6,8.7c0-0.3,0.2-0.6,0.5-0.6h0.7c0.3,0,0.5,0.1,0.7,0.4l3.3,5c0.3,0.6,0.8,1.4,0.8,1.4l0,0
				c0,0-0.1-0.9-0.1-1.4V8.7c0-0.3,0.2-0.6,0.6-0.6h0.6c0.3,0,0.6,0.2,0.6,0.6v8.2c0,0.4-0.2,0.6-0.6,0.6H120
				c-0.3,0-0.5-0.1-0.6-0.4l-3.3-5c-0.3-0.6-0.8-1.4-0.8-1.4l0,0c0,0,0.1,0.9,0.1,1.4v4.8c0,0.4-0.2,0.6-0.5,0.6h-0.6
				c-0.3,0-0.5-0.2-0.5-0.6V8.7H113.6z"/>
			
				<linearGradient id="SVGID_8_" gradientUnits="userSpaceOnUse" x1="37.0009" y1="117.7323" x2="199.6977" y2="117.7323" gradientTransform="matrix(1 0 0 -1 0 130.5323)">
				<stop  offset="0" style="stop-color:#14ABAE"/>
				<stop  offset="1" style="stop-color:#4B69B0"/>
			</linearGradient>
			<path class="st14" d="M130.8,8c2.8,0,4.8,2.1,4.8,4.7c0,2.7-2,4.9-4.8,4.9s-4.8-2.1-4.8-4.9C126,10.1,128,8,130.8,8z M130.8,16
				c1.8,0,3.1-1.4,3.1-3.3c0-1.8-1.3-3.2-3.1-3.2s-3.1,1.4-3.1,3.2C127.7,14.6,129,16,130.8,16z"/>
			
				<linearGradient id="SVGID_9_" gradientUnits="userSpaceOnUse" x1="37.0009" y1="117.7323" x2="199.6977" y2="117.7323" gradientTransform="matrix(1 0 0 -1 0 130.5323)">
				<stop  offset="0" style="stop-color:#14ABAE"/>
				<stop  offset="1" style="stop-color:#4B69B0"/>
			</linearGradient>
			<path class="st15" d="M140.6,8.7c0-0.3,0.2-0.6,0.5-0.6h0.6c0.3,0,0.5,0.2,0.5,0.6V16h3.5c0.4,0,0.6,0.2,0.6,0.5v0.4
				c0,0.4-0.2,0.6-0.6,0.6h-4.6c-0.3,0-0.5-0.2-0.5-0.6V8.7z"/>
			
				<linearGradient id="SVGID_10_" gradientUnits="userSpaceOnUse" x1="37.0009" y1="117.7323" x2="199.6977" y2="117.7323" gradientTransform="matrix(1 0 0 -1 0 130.5323)">
				<stop  offset="0" style="stop-color:#14ABAE"/>
				<stop  offset="1" style="stop-color:#4B69B0"/>
			</linearGradient>
			<path class="st16" d="M154.3,8c2.8,0,4.8,2.1,4.8,4.7c0,2.7-2,4.9-4.8,4.9s-4.8-2.1-4.8-4.9C149.5,10.1,151.5,8,154.3,8z
				 M154.3,16c1.8,0,3.1-1.4,3.1-3.3c0-1.8-1.3-3.2-3.1-3.2s-3.1,1.4-3.1,3.2C151.3,14.6,152.5,16,154.3,16z"/>
			
				<linearGradient id="SVGID_11_" gradientUnits="userSpaceOnUse" x1="37.0009" y1="117.7323" x2="199.6977" y2="117.7323" gradientTransform="matrix(1 0 0 -1 0 130.5323)">
				<stop  offset="0" style="stop-color:#14ABAE"/>
				<stop  offset="1" style="stop-color:#4B69B0"/>
			</linearGradient>
			<path class="st17" d="M176.6,8.7c0-0.3,0.2-0.6,0.5-0.6h0.6c0.3,0,0.5,0.2,0.5,0.6v8.2c0,0.4-0.2,0.6-0.5,0.6h-0.6
				c-0.3,0-0.5-0.2-0.5-0.6V8.7z"/>
			
				<linearGradient id="SVGID_12_" gradientUnits="userSpaceOnUse" x1="37.0009" y1="117.7323" x2="199.6977" y2="117.7323" gradientTransform="matrix(1 0 0 -1 0 130.5323)">
				<stop  offset="0" style="stop-color:#14ABAE"/>
				<stop  offset="1" style="stop-color:#4B69B0"/>
			</linearGradient>
			<path class="st18" d="M183.7,8.7c0-0.3,0.2-0.6,0.5-0.6h4.5c0.3,0,0.6,0.2,0.6,0.6v0.4c0,0.3-0.2,0.5-0.6,0.5h-3.3V12h2.6
				c0.3,0,0.6,0.2,0.6,0.5v0.4c0,0.4-0.2,0.6-0.6,0.6h-2.6V16h3.5c0.3,0,0.6,0.2,0.6,0.5v0.4c0,0.4-0.2,0.6-0.6,0.6h-4.7
				c-0.3,0-0.5-0.2-0.5-0.6V8.7z"/>
			
				<linearGradient id="SVGID_13_" gradientUnits="userSpaceOnUse" x1="37.0009" y1="117.8323" x2="199.6977" y2="117.8323" gradientTransform="matrix(1 0 0 -1 0 130.5323)">
				<stop  offset="0" style="stop-color:#14ABAE"/>
				<stop  offset="1" style="stop-color:#4B69B0"/>
			</linearGradient>
			<path class="st19" d="M194,15.9l0.3-0.4c0.2-0.3,0.4-0.3,0.8-0.1c0.3,0.2,1,0.7,1.9,0.7s1.4-0.4,1.4-1.1c0-1.8-4.3-1.4-4.3-4.3
				c0-1.6,1.4-2.7,3.1-2.7c1.1,0,2,0.4,2.4,0.7c0.3,0.2,0.3,0.5,0.2,0.7l-0.2,0.4c-0.2,0.4-0.5,0.3-0.7,0.2
				c-0.4-0.2-0.9-0.5-1.6-0.5c-0.9,0-1.4,0.4-1.4,1c0,1.7,4.3,1.3,4.3,4.2c0,1.5-1.1,2.7-3.1,2.7c-1.3,0-2.4-0.6-2.9-0.9
				C193.9,16.5,193.8,16.2,194,15.9z"/>
			
				<linearGradient id="SVGID_14_" gradientUnits="userSpaceOnUse" x1="37.0009" y1="117.7528" x2="199.6977" y2="117.7528" gradientTransform="matrix(1 0 0 -1 0 130.5323)">
				<stop  offset="0" style="stop-color:#14ABAE"/>
				<stop  offset="1" style="stop-color:#4B69B0"/>
			</linearGradient>
			<path class="st20" d="M171.9,15.7c0-0.5,0,0.4,0-2.6c0-0.4-0.2-0.5-0.5-0.5h-1.9c-0.4,0-0.5,0.2-0.5,0.5v0.4
				c0,0.3,0.2,0.5,0.5,0.5h0.9v1.1c-2.2,1.9-5.4,0.6-5.4-2.3c0-1.8,1.1-3.3,3.1-3.3c1,0,1.7,0.3,2.1,0.6c0.3,0.2,0.6,0.2,0.8-0.1
				l0.2-0.4c0.2-0.3,0.2-0.5-0.1-0.8c-0.1-0.1-1.3-0.8-3-0.8c-2.7,0-4.8,2.1-4.8,4.8l0,0c0,4.8,5.6,6.1,8.4,3.3
				C171.9,15.9,171.9,15.9,171.9,15.7z"/>
		</g>
	</g>
</g>
<g>
	<path class="st21" d="M224.9,13.6l1.8,3.3c0.1,0.2,0,0.4-0.2,0.4h-1.4c-0.1,0-0.2-0.1-0.2-0.1l-1.7-3.4h-1.4V17
		c0,0.1-0.1,0.2-0.2,0.2h-1.2c-0.1,0-0.2-0.1-0.2-0.2V8.4c0-0.1,0.1-0.2,0.2-0.2h3.7c1.6,0,2.8,1.2,2.8,2.8
		C226.8,12.2,226,13.2,224.9,13.6L224.9,13.6z M223.8,9.7h-2.1v2.6h2.1c0.7,0,1.3-0.6,1.3-1.3C225.1,10.3,224.5,9.7,223.8,9.7
		L223.8,9.7z M236.9,15.7c0.1,0,0.2,0.1,0.2,0.2V17c0,0.1-0.1,0.2-0.2,0.2h-5.3c-0.1,0-0.2-0.1-0.2-0.2V8.4c0-0.1,0.1-0.2,0.2-0.2
		h5.3c0.1,0,0.2,0.1,0.2,0.2v1.1c0,0.1-0.1,0.2-0.2,0.2H233v2.1h3.2c0.1,0,0.2,0.1,0.2,0.2v1.1c0,0.1-0.1,0.2-0.2,0.2H233v2.3
		L236.9,15.7L236.9,15.7z M248.1,10.4c-0.1,0.1-0.2,0.1-0.3,0c-0.5-0.5-1.3-0.8-2-0.8c-1.7,0-2.9,1.4-2.9,3s1.2,3,2.9,3
		c0.8,0,1.4-0.3,2-0.7c0.1-0.1,0.2-0.1,0.3,0l0.8,0.8c0.1,0.1,0.1,0.3,0,0.4c-0.9,0.9-2,1.3-3.2,1.3c-2.6,0-4.7-2.1-4.7-4.7
		s2.1-4.7,4.7-4.7c1.3,0,2.3,0.4,3.1,1.2c0.1,0.1,0.1,0.3,0,0.4L248.1,10.4L248.1,10.4z M257.9,13.6l1.8,3.3c0.1,0.2,0,0.4-0.2,0.4
		h-1.4c-0.1,0-0.2-0.1-0.2-0.1l-1.7-3.4h-1.4V17c0,0.1-0.1,0.2-0.2,0.2h-1.2c-0.1,0-0.2-0.1-0.2-0.2V8.4c0-0.1,0.1-0.2,0.2-0.2h3.7
		c1.6,0,2.8,1.2,2.8,2.8C259.8,12.2,259,13.2,257.9,13.6L257.9,13.6z M256.8,9.7h-2.1v2.6h2.1c0.7,0,1.3-0.6,1.3-1.3
		C258.1,10.3,257.5,9.7,256.8,9.7L256.8,9.7z M267.8,17.4c-2,0-3.6-1.6-3.6-3.6V8.4c0-0.1,0.1-0.2,0.2-0.2h1.2
		c0.1,0,0.2,0.1,0.2,0.2v5.3c0,1.1,0.8,2,1.9,2s1.9-0.9,1.9-2V8.4c0-0.1,0.1-0.2,0.2-0.2h1.2c0.1,0,0.2,0.1,0.2,0.2v5.4
		C271.5,15.8,269.9,17.4,267.8,17.4L267.8,17.4z M277.2,17.3H276c-0.1,0-0.2-0.1-0.2-0.2V8.4c0-0.1,0.1-0.2,0.2-0.2h1.2
		c0.1,0,0.2,0.1,0.2,0.2V17C277.4,17.2,277.3,17.3,277.2,17.3L277.2,17.3z M287,9.7h-2V17c0,0.1-0.1,0.2-0.2,0.2h-1.2
		c-0.1,0-0.2-0.1-0.2-0.2V9.7h-2c-0.1,0-0.2-0.1-0.2-0.2V8.4c0-0.1,0.1-0.2,0.2-0.2h5.7c0.1,0,0.2,0.1,0.2,0.2v1.1
		C287.2,9.6,287.1,9.7,287,9.7L287,9.7z M300.7,17.3h-1.2c-0.1,0-0.2-0.1-0.2-0.2l-0.8-4.9l0,0l-2.3,5.1c0,0.1-0.1,0.1-0.2,0.1h-0.2
		c-0.1,0-0.2-0.1-0.2-0.1l-2.3-5.1l0,0l-0.8,4.9c0,0.1-0.1,0.2-0.2,0.2H291c-0.2,0-0.3-0.1-0.2-0.3l1.5-8.7c0-0.1,0.1-0.2,0.2-0.2
		h0.2c0.1,0,0.2,0.1,0.2,0.1l2.9,6.1l0,0l2.9-6.1c0-0.1,0.1-0.1,0.2-0.1h0.2c0.1,0,0.2,0.1,0.2,0.2L301,17
		C301,17.2,300.9,17.3,300.7,17.3L300.7,17.3z M310.3,15.7c0.1,0,0.2,0.1,0.2,0.2V17c0,0.1-0.1,0.2-0.2,0.2H305
		c-0.1,0-0.2-0.1-0.2-0.2V8.4c0-0.1,0.1-0.2,0.2-0.2h5.3c0.1,0,0.2,0.1,0.2,0.2v1.1c0,0.1-0.1,0.2-0.2,0.2h-3.8v2.1h3.2
		c0.1,0,0.2,0.1,0.2,0.2v1.1c0,0.1-0.1,0.2-0.2,0.2h-3.2v2.3L310.3,15.7L310.3,15.7z M322.5,17.4h-0.3l-5.4-6l0,0V17
		c0,0.1-0.1,0.2-0.2,0.2h-1.2c-0.1,0-0.2-0.1-0.2-0.2V8.3c0-0.1,0.1-0.2,0.2-0.2h0.3l5.4,5.7l0,0V8.4c0-0.1,0.1-0.2,0.2-0.2h1.2
		c0.1,0,0.2,0.1,0.2,0.2v8.8C322.7,17.3,322.6,17.4,322.5,17.4L322.5,17.4z M332.3,9.7h-2V17c0,0.1-0.1,0.2-0.2,0.2h-1.2
		c-0.1,0-0.2-0.1-0.2-0.2V9.7h-2c-0.1,0-0.2-0.1-0.2-0.2V8.4c0-0.1,0.1-0.2,0.2-0.2h5.7c0.1,0,0.2,0.1,0.2,0.2v1.1
		C332.6,9.6,332.5,9.7,332.3,9.7L332.3,9.7z"/>
</g>
</svg>
