<?xml version="1.0" encoding="utf-8"?>
<!-- Generator: Adobe Illustrator 22.0.0, SVG Export Plug-In . SVG Version: 6.00 Build 0)  -->
<svg width="12px" height="10px" version="1.1" id="iconmonstr" xmlns="http://www.w3.org/2000/svg" xmlns:xlink="http://www.w3.org/1999/xlink" x="0px" y="0px"
	 viewBox="0 0 24 23" style="enable-background:new 0 0 24 23;" xml:space="preserve">
<style type="text/css">
	#linkedin-1{fill:#bbbbbb}
</style>
<path id="linkedin-1" d="M4.98,2.5C4.98,3.881,3.87,5,2.5,5S0.02,3.881,0.02,2.5C0.02,1.12,1.13,0,2.5,0S4.98,1.12,4.98,2.5z M5,7H0
	v16h5V7z M12.982,7H8.014v16h4.969c0,0,0-5.935,0-8.398c0-4.67,6.029-5.053,6.029,0c0,2.304,0,8.398,0,8.398H24
	c0,0,0-5.845,0-10.131c0-7.88-8.923-7.593-11.018-3.714V7z"/>
</svg>
