<?xml version="1.0" encoding="utf-8"?>
<!-- Generator: Adobe Illustrator 22.0.0, SVG Export Plug-In . SVG Version: 6.00 Build 0)  -->
<svg width="15px" version="1.1" id="レイヤー_1" xmlns="http://www.w3.org/2000/svg" xmlns:xlink="http://www.w3.org/1999/xlink" x="0px"
	 y="0px" viewBox="0 0 12 9.752" style="enable-background:new 0 0 12 9.752;" xml:space="preserve">
<style type="text/css">
#twitter-1{fill:#bbbbbb}
</style>
<path id="twitter-1" d="M12,1.154c-0.441,0.196-0.916,0.328-1.414,0.388c0.508-0.305,0.899-0.787,1.083-1.362
	c-0.476,0.282-1.002,0.487-1.563,0.597C9.656,0.299,9.016,0,8.308,0C6.719,0,5.551,1.483,5.91,3.023
	C3.864,2.92,2.05,1.94,0.835,0.45C0.19,1.557,0.501,3.005,1.597,3.738C1.194,3.725,0.814,3.614,0.482,3.429
	C0.456,4.57,1.273,5.637,2.457,5.875C2.11,5.969,1.731,5.99,1.345,5.917c0.313,0.978,1.222,1.69,2.3,1.71
	C2.61,8.438,1.306,8.8,0,8.646c1.089,0.698,2.384,1.106,3.774,1.106c4.571,0,7.153-3.86,6.998-7.323
	C11.252,2.082,11.67,1.648,12,1.154z"/>
</svg>