<?xml version="1.0" encoding="utf-8"?>
<!-- Generator: Adobe Illustrator 22.0.0, SVG Export Plug-In . SVG Version: 6.00 Build 0)  -->
<svg width="18px" version="1.1" id="ICON" xmlns="http://www.w3.org/2000/svg" xmlns:xlink="http://www.w3.org/1999/xlink" x="0px" y="0px"
	 viewBox="0 0 104.329 99.407" style="enable-background:new 0 0 104.329 99.407;" xml:space="preserve">
	<style type="text/css">
	#line1{fill:#bbbbbb}
	</style>
<path id="line1" d="M104.329,42.332C104.329,18.99,80.928,0,52.164,0C23.403,0,0,18.99,0,42.332c0,20.926,18.558,38.451,43.626,41.765
	c1.699,0.366,4.011,1.12,4.596,2.572c0.526,1.318,0.344,3.384,0.169,4.717c0,0-0.612,3.681-0.744,4.466
	c-0.227,1.318-1.048,5.158,4.518,2.812c5.568-2.346,30.042-17.689,40.986-30.286h-0.002
	C100.707,60.087,104.329,51.674,104.329,42.332z M33.76,54.794c0,0.561-0.454,1.016-1.014,1.016H18.128h-0.002
	c-0.273,0-0.519-0.108-0.702-0.283c-0.005-0.005-0.01-0.009-0.015-0.014c-0.006-0.005-0.01-0.011-0.014-0.016
	c-0.175-0.182-0.284-0.429-0.284-0.702v-0.002V32.068c0-0.561,0.455-1.015,1.016-1.015h3.659c0.561,0,1.015,0.455,1.015,1.015
	v18.051h9.942c0.561,0,1.014,0.455,1.014,1.016V54.794z M42.582,54.796c0,0.56-0.455,1.014-1.016,1.014h-3.659
	c-0.561,0-1.016-0.454-1.016-1.014V32.067c0-0.56,0.455-1.015,1.016-1.015h3.659c0.561,0,1.016,0.455,1.016,1.015V54.796z
	 M67.766,54.796c0,0.56-0.455,1.014-1.016,1.014h-3.659c-0.091,0-0.178-0.012-0.26-0.035c-0.005-0.001-0.01-0.002-0.015-0.003
	c-0.023-0.007-0.045-0.014-0.069-0.022c-0.011-0.003-0.02-0.007-0.03-0.012c-0.017-0.007-0.033-0.014-0.049-0.021
	c-0.016-0.007-0.033-0.016-0.049-0.024c-0.01-0.005-0.019-0.01-0.029-0.016c-0.021-0.012-0.042-0.025-0.063-0.038
	c-0.003-0.003-0.007-0.006-0.011-0.008c-0.097-0.066-0.186-0.149-0.258-0.25L51.831,41.297v13.499c0,0.56-0.455,1.014-1.017,1.014
	h-3.659c-0.561,0-1.016-0.454-1.016-1.014V32.067c0-0.56,0.455-1.015,1.016-1.015h3.659c0.012,0,0.023,0.002,0.035,0.002
	c0.018,0.001,0.035,0.002,0.053,0.003c0.018,0.002,0.036,0.003,0.054,0.007c0.014,0.002,0.029,0.003,0.043,0.006
	c0.02,0.004,0.039,0.008,0.058,0.013c0.012,0.003,0.024,0.006,0.035,0.009c0.021,0.006,0.04,0.012,0.06,0.02
	c0.012,0.003,0.021,0.007,0.033,0.012c0.021,0.007,0.039,0.016,0.058,0.025c0.011,0.005,0.021,0.011,0.032,0.016
	c0.018,0.009,0.036,0.02,0.054,0.03c0.011,0.006,0.021,0.012,0.03,0.018c0.018,0.012,0.035,0.024,0.053,0.036
	c0.009,0.007,0.018,0.013,0.026,0.021c0.019,0.014,0.037,0.03,0.054,0.045c0.007,0.006,0.012,0.011,0.019,0.017
	c0.021,0.02,0.041,0.04,0.061,0.063c0.002,0.002,0.004,0.004,0.007,0.007c0.028,0.033,0.055,0.067,0.079,0.103l10.417,14.067V32.067
	c0-0.56,0.455-1.015,1.016-1.015h3.659c0.562,0,1.016,0.455,1.016,1.015V54.796z M87.971,35.728c0,0.562-0.454,1.016-1.014,1.016
	h-9.941v3.841h9.941c0.561,0,1.014,0.455,1.014,1.017v3.659c0,0.562-0.454,1.016-1.014,1.016h-9.941v3.842h9.941
	c0.561,0,1.014,0.455,1.014,1.016v3.659c0,0.561-0.454,1.016-1.014,1.016H72.34h-0.002c-0.273,0-0.52-0.109-0.702-0.284
	c-0.005-0.004-0.011-0.009-0.015-0.013c-0.005-0.005-0.01-0.011-0.014-0.016c-0.175-0.182-0.284-0.429-0.284-0.702v-0.002V32.069
	v-0.002c0-0.272,0.108-0.518,0.282-0.7c0.005-0.006,0.011-0.012,0.016-0.018c0.003-0.003,0.008-0.007,0.012-0.011
	c0.184-0.177,0.431-0.287,0.705-0.287h0.002h14.617c0.561,0,1.014,0.455,1.014,1.017V35.728z"/>
</svg>
