<?xml version="1.0" encoding="utf-8"?>
<!-- Generator: Adobe Illustrator 22.0.0, SVG Export Plug-In . SVG Version: 6.00 Build 0)  -->
<svg version="1.1" id="レイヤー_1" xmlns="http://www.w3.org/2000/svg" xmlns:xlink="http://www.w3.org/1999/xlink" x="0px"
	 y="0px" viewBox="0 0 97.361 60" style="enable-background:new 0 0 97.361 60;" xml:space="preserve">
<style type="text/css">
	.st0{fill:url(#SVGID_1_);}
	.st1{fill:#151519;}
	.st2{fill:url(#SVGID_2_);}
</style>
<linearGradient id="SVGID_1_" gradientUnits="userSpaceOnUse" x1="39.1704" y1="38.7836" x2="23.4847" y2="23.0979">
	<stop  offset="0" style="stop-color:#5674AF"/>
	<stop  offset="0.3328" style="stop-color:#438DBC"/>
	<stop  offset="0.6764" style="stop-color:#339FB9"/>
	<stop  offset="1" style="stop-color:#24B1B4"/>
</linearGradient>
<path class="st0" d="M28.352,24.202c-1.849,5.587-3.236,11.385-3.613,13.779c-0.42,2.604,0.21,4.074,1.596,5.083
	c0.336,0.251,0.546,0.126,0.756-0.294c3.026-5.629,7.899-12.056,12.688-17.853c-2.732,5.252-5.42,11.132-6.05,13.61
	c-0.713,2.773-0.21,4.033,0.463,4.579c0.336,0.294,0.504,0.294,0.671-0.126c2.102-6.049,6.302-14.535,9.242-19.996
	c1.134-2.1,1.554-4.41-0.126-6.133c-0.504-0.504-0.84-0.461-1.219,0.126c-4.62,7.185-10.753,13.443-15.332,20.92
	c1.596-5.882,3.109-10.796,4.453-14.829c1.091-3.319,0.63-4.789-1.009-6.217c-0.546-0.461-0.966-0.294-1.344,0.253
	c-4.537,6.174-11.342,17.39-12.896,21.382c-0.967,2.52-0.504,3.949,0.083,4.579c0.294,0.336,0.547,0.336,0.714-0.084
	C19.907,37.351,24.613,29.831,28.352,24.202L28.352,24.202z"/>
<path class="st1" d="M50.115,39.266c-1.007,1.465-2.856,2.569-4.704,2.593c-3.048,0.048-4.105-2.953-2.544-6.049
	c1.561-3.096,4.008-4.345,5.209-3.648c0.6,0.36,1.033,0.719,1.416,1.247c0.433,0.576,0.24,2.041-0.768,3.265
	c-1.176,1.44-2.784,2.065-4.464,0.697c-0.768,2.208-0.192,3.72,1.08,3.791c1.992,0.097,3.745-1.823,4.776-3.408
	c0.121-0.193,0.312-0.193,0.409,0.024C50.62,37.971,50.548,38.643,50.115,39.266L50.115,39.266z M47.331,35.642
	c0.768-1.007,1.297-2.256,0.961-2.52c-0.504-0.407-2.496,1.033-3.626,3.312c-0.072,0.145-0.143,0.288-0.191,0.409
	C45.651,37.586,46.636,36.555,47.331,35.642L47.331,35.642z M58.885,39.219c-0.913,1.656-2.545,2.569-4.249,2.641
	c-1.392,0.048-2.736-0.312-3.552-1.801c-0.576-1.08-0.504-2.663,0.312-3.336c0.288-0.24,0.48-0.143,0.504,0.24
	c0.024,0.193,0.024,0.385,0.048,0.576c0.985-1.344,2.065-2.903,2.76-4.128c0.121-0.935,0.361-1.392,0.865-1.847
	c0.527-0.48,1.079-0.578,1.295-0.361c0.24,0.24,0.121,0.504-0.191,1.056c-0.097,0.145-0.169,0.288-0.264,0.457
	c-0.169,2.208,0.288,4.081,0.215,5.737c-0.048,0.935-0.215,1.944-1.08,2.52c1.608-0.601,2.617-2.041,3.217-3.336
	c0.121-0.264,0.36-0.193,0.457,0C59.316,37.85,59.292,38.476,58.885,39.219L58.885,39.219z M54.659,34.947
	c-0.695,1.271-1.585,2.592-2.496,3.888c0.36,1.392,1.056,2.377,1.849,2.137C55.116,40.634,54.756,36.867,54.659,34.947
	L54.659,34.947z M66.844,39.219c-0.912,1.656-2.544,2.569-4.248,2.641c-1.392,0.048-2.736-0.312-3.553-1.801
	c-0.576-1.08-0.504-2.663,0.312-3.336c0.288-0.24,0.48-0.143,0.504,0.24c0.024,0.193,0.024,0.385,0.048,0.576
	c0.983-1.344,2.063-2.903,2.76-4.128c0.119-0.935,0.36-1.392,0.864-1.847c0.528-0.48,1.08-0.578,1.297-0.361
	c0.24,0.24,0.119,0.504-0.193,1.056c-0.095,0.145-0.169,0.288-0.264,0.457c-0.169,2.208,0.288,4.081,0.216,5.737
	c-0.048,0.935-0.216,1.944-1.08,2.52c1.608-0.601,2.615-2.041,3.217-3.336c0.119-0.264,0.36-0.193,0.455,0
	C67.277,37.85,67.251,38.476,66.844,39.219L66.844,39.219z M62.62,34.947c-0.697,1.271-1.585,2.592-2.496,3.888
	c0.36,1.392,1.055,2.377,1.847,2.137C63.075,40.634,62.715,36.867,62.62,34.947L62.62,34.947z M77.325,39.339
	c-0.625,1.32-2.137,2.639-3.457,2.568c-1.297-0.072-1.968-0.84-1.968-1.968c-0.768,0.983-1.849,1.872-3,1.872
	c-2.232,0-2.689-3.048-0.697-5.953c1.946-2.832,3.84-3.912,5.042-3.912c1.031,0,1.511,0.792,1.464,1.728
	c0.312-0.576,0.6-1.08,0.864-1.464c0.216-0.312,0.409-0.36,0.576-0.145c0.361,0.433,0.552,1.465-0.024,2.665
	c-0.528,1.08-1.728,2.88-2.304,4.152c-0.6,1.344-0.624,2.377,0.193,2.329c0.983-0.049,2.304-1.682,3.144-3.338
	c0.119-0.215,0.288-0.239,0.383-0.024C77.637,38.067,77.637,38.667,77.325,39.339L77.325,39.339z M73.651,33.194
	c-0.768-0.072-2.52,1.489-3.84,3.626c-1.271,2.063-1.583,4.176-0.647,4.2c0.985,0.024,2.232-1.513,3.455-3.624
	C74.132,34.754,74.348,33.267,73.651,33.194L73.651,33.194z M87.852,39.316c-0.935,1.464-2.665,2.423-4.657,3.144
	c-1.32,3.217-3.024,7.033-4.968,7.8c-0.48,0.193-0.959,0.121-1.392-0.503c-0.504-0.721-0.935-1.561-0.48-2.977
	c0.697-2.16,2.76-3.624,5.137-4.537c0.24-0.528,0.457-1.104,0.697-1.656c-0.697,0.697-1.537,1.201-2.425,1.201
	c-2.208,0-2.641-3-0.697-5.882c1.873-2.784,3.817-3.864,5.042-3.864c0.959,0,1.44,0.745,1.416,1.585
	c0.288-0.48,0.552-0.912,0.792-1.32c0.191-0.336,0.431-0.36,0.6-0.143c0.36,0.431,0.552,1.464-0.048,2.639
	c-0.721,1.441-2.234,4.345-3.241,6.674c2.016-1.009,3.336-2.329,4.295-3.602c0.145-0.191,0.361-0.191,0.409,0.049
	C88.38,38.138,88.261,38.667,87.852,39.316L87.852,39.316z M77.315,48.915c0.312,0.457,2.208-2.04,3.769-5.688
	C77.963,45.051,76.906,48.339,77.315,48.915L77.315,48.915z M84.468,33.267c-0.745-0.048-2.496,1.487-3.817,3.576
	c-1.297,2.063-1.561,4.176-0.6,4.2c0.935,0.024,2.16-1.487,3.384-3.6C84.948,34.802,85.163,33.315,84.468,33.267L84.468,33.267z
	 M96.915,39.266c-1.007,1.465-2.856,2.569-4.704,2.593c-3.048,0.048-4.105-2.953-2.544-6.049c1.561-3.096,4.009-4.345,5.209-3.648
	c0.6,0.36,1.033,0.719,1.416,1.247c0.433,0.576,0.24,2.041-0.768,3.265c-1.176,1.44-2.784,2.065-4.464,0.697
	c-0.768,2.208-0.192,3.72,1.08,3.791c1.992,0.097,3.745-1.823,4.776-3.408c0.121-0.193,0.313-0.193,0.409,0.024
	C97.42,37.971,97.348,38.643,96.915,39.266L96.915,39.266z M94.131,35.642c0.768-1.007,1.297-2.256,0.961-2.52
	c-0.504-0.407-2.496,1.033-3.624,3.312c-0.073,0.145-0.145,0.288-0.193,0.409C92.451,37.586,93.436,36.555,94.131,35.642
	L94.131,35.642z"/>
<linearGradient id="SVGID_2_" gradientUnits="userSpaceOnUse" x1="54.4144" y1="54.4144" x2="5.5856" y2="5.5856">
	<stop  offset="0" style="stop-color:#5674AF"/>
	<stop  offset="0.3328" style="stop-color:#438DBC"/>
	<stop  offset="0.6764" style="stop-color:#339FB9"/>
	<stop  offset="1" style="stop-color:#24B1B4"/>
</linearGradient>
<polygon class="st2" points="56,44 56,46.747 42.785,56 4,56 4,13.253 17.215,4 56,4 56,25 60,25 60,0 15.954,0 0,11.171 0,60 
	44.046,60 60,48.829 60,44 "/>
</svg>
