<?xml version="1.0" encoding="utf-8"?>
<!-- Generator: Adobe Illustrator 22.0.0, SVG Export Plug-In . SVG Version: 6.00 Build 0)  -->
<svg version="1.1" id="レイヤー_1" xmlns="http://www.w3.org/2000/svg" xmlns:xlink="http://www.w3.org/1999/xlink" x="0px"
	 y="0px" viewBox="0 0 100.092 60" style="enable-background:new 0 0 100.092 60;" xml:space="preserve">
<style type="text/css">
	.st0{fill:url(#SVGID_1_);}
	.st1{fill:#151519;}
	.st2{fill:url(#SVGID_2_);}
</style>
<linearGradient id="SVGID_1_" gradientUnits="userSpaceOnUse" x1="37.9863" y1="38.9795" x2="25.5605" y2="26.5536">
	<stop  offset="0" style="stop-color:#5674AF"/>
	<stop  offset="0.3328" style="stop-color:#438DBC"/>
	<stop  offset="0.6764" style="stop-color:#339FB9"/>
	<stop  offset="1" style="stop-color:#24B1B4"/>
</linearGradient>
<path class="st0" d="M32.184,35.879c-0.126,1.26-0.168,2.351-0.168,3.192c0.042,2.393,0.714,3.445,1.555,3.823
	c0.378,0.168,0.629,0.041,0.629-0.378c0.085-2.227,0.336-4.537,0.631-6.722c0.714,0.042,1.303,0.126,1.806,0.253
	c0.378,0.126,0.546,0,0.461-0.378c-0.168-0.882-0.629-1.723-1.89-2.142c0.797-4.622,1.974-8.906,3.067-12.226
	c0.378-1.133,0.419-2.057,0-3.065c-0.421-1.052-0.546-1.135-0.967-1.723c-0.421-0.589-0.84-0.589-1.513-0.042
	c-4.452,3.655-10.29,11.973-13.567,17.686c-0.673-0.042-1.303-0.126-1.891-0.21c-0.629-0.083-0.714,0.085-0.504,0.631
	c0.126,0.293,0.461,0.924,1.386,1.428c-0.504,0.924-0.882,1.764-1.133,2.395c-0.882,2.351-0.714,3.611-0.21,4.284
	c0.21,0.293,0.589,0.293,0.756-0.085c0.84-1.849,1.932-3.906,3.192-6.048C25.799,36.593,29.202,36.087,32.184,35.879L32.184,35.879z
	 M25.421,34.03c3.192-4.999,7.015-10.082,10.207-13.652c-1.301,3.275-2.478,8.569-3.107,12.938
	C30.547,33.358,27.984,33.82,25.421,34.03L25.421,34.03z"/>
<path class="st1" d="M48.524,37.848c-1.128,2.52-2.615,3.888-4.007,3.888c-1.273,0-2.088-0.647-2.52-1.704
	c-0.217,0.504-0.481,1.081-0.696,1.585c-0.096,0.24-0.24,0.264-0.385,0.072c-0.36-0.479-0.6-1.175-0.119-2.639
	c0.647-1.992,5.352-10.874,7.009-13.178c0.215-0.311,0.408-0.311,0.6,0.024c0.36,0.672,0.36,1.751-0.624,3.552
	c-0.36,0.672-1.392,2.328-2.136,3.647c0.696-0.623,1.44-1.008,2.064-1.008C49.748,32.088,49.845,34.92,48.524,37.848L48.524,37.848z
	 M47.349,33.073c-0.504-0.049-1.032,0.215-1.753,0.96c-1.079,1.127-2.232,3.119-3.12,4.968c0.049,0.696,0.36,1.464,1.009,1.607
	c0.84,0.192,1.943-0.527,3.336-3.311C48.188,34.584,47.901,33.12,47.349,33.073L47.349,33.073z M68.958,39.312
	c-0.696,1.369-2.16,2.569-3.577,2.569c-1.56,0-2.16-0.96-1.968-2.353c-0.841,1.104-2.064,2.377-3.433,2.256
	c-1.704-0.143-1.751-1.896-1.223-3.481c0.191-0.6,0.504-1.321,0.911-2.064c-0.672,0.311-1.417,0.504-2.16,0.432
	c-0.553,2.017-2.017,4.392-3.72,4.969c-0.889,0.287-2.113,0.191-3.049-1.056c-1.056-1.417-0.696-3.481,0.36-5.401
	c0.913-1.656,2.4-3,3.841-3.096c0.719-0.047,1.128,0.168,1.632,0.817c0.576,0.719,1.247,0.864,1.128,2.639
	c0,0.143-0.024,0.289-0.049,0.481c1.368-0.024,2.688-1.153,3.505-2.473c0.24-0.383,0.624-0.911,0.911-1.321
	c0.192-0.264,0.409-0.24,0.6-0.023c0.528,0.791,0.409,1.8-0.455,3.215c-0.864,1.417-1.417,2.377-1.873,3.505
	c-0.479,1.175-0.408,2.017,0.121,2.064c0.936,0.072,2.279-1.56,3.552-3.649c1.488-2.424,2.183-4.081,2.928-5.113
	c0.215-0.311,0.408-0.359,0.6-0.143c0.36,0.432,0.553,1.464-0.024,2.664c-0.528,1.081-1.704,2.832-2.256,4.081
	c-0.623,1.392-0.528,2.377,0.336,2.328c0.985-0.047,2.234-1.632,3.145-3.313c0.121-0.215,0.311-0.24,0.432-0.023
	C69.294,38.04,69.294,38.665,68.958,39.312L68.958,39.312z M54.413,33.864c-0.624,0.528-1.345,1.345-1.873,2.281
	c-1.008,1.8-1.343,3.984-0.719,4.537c0.624,0.551,2.111-0.313,3.311-2.496c0.385-0.696,0.624-1.345,0.841-1.945
	C55.156,35.784,54.413,34.848,54.413,33.864L54.413,33.864z M56.309,33.841c-0.096-0.768-0.649-0.6-0.721,0.072
	c-0.072,0.647,0.121,1.247,0.553,1.632C56.333,34.848,56.356,34.248,56.309,33.841L56.309,33.841z M75.941,31.849
	c-0.528-0.072-1.272,0-1.873,0.096c-0.936,1.607-2.304,3.936-3.215,5.952c-0.792,1.753-0.528,3.239,0.479,3.288
	c1.081,0.047,2.449-1.656,3.337-3.456c0.143-0.289,0.408-0.336,0.504,0c0.119,0.383,0,0.815-0.241,1.368
	c-0.311,0.696-1.896,2.809-3.815,2.736c-1.585-0.047-2.856-1.824-1.705-4.584c0.504-1.2,1.513-3.215,2.545-5.113
	c-0.817,0-1.368-0.359-1.56-0.623c-0.24-0.336-0.096-0.504,0.264-0.481c0.672,0.025,1.343-0.023,1.992-0.096
	c0.743-1.319,1.415-2.447,1.824-2.975c0.215-0.313,0.455-0.289,0.576,0c0.264,0.672,0.264,1.464-0.311,2.711
	c0.936-0.023,1.296,0.409,1.487,0.721C76.397,31.681,76.301,31.849,75.941,31.849L75.941,31.849z M91.173,39.337
	c-0.696,1.345-2.185,2.569-3.6,2.569c-1.56,0-2.185-0.985-1.992-2.377c-0.841,1.128-2.113,2.353-3.456,2.256
	c-1.705-0.121-1.753-1.896-1.224-3.481s1.753-3.936,3.313-6.12c0.191-0.264,0.432-0.24,0.623-0.024
	c0.528,0.792,0.409,1.873-0.455,3.241c-0.889,1.415-1.369,2.375-1.873,3.528c-0.504,1.175-0.432,2.039,0.121,2.088
	c0.936,0.072,2.256-1.609,3.552-3.696c1.511-2.449,2.207-4.105,2.975-5.137c0.241-0.336,0.409-0.385,0.6-0.143
	c0.36,0.432,0.553,1.487-0.023,2.687c-0.528,1.081-1.728,2.881-2.281,4.105c-0.624,1.368-0.528,2.377,0.336,2.328
	c1.008-0.047,2.232-1.632,3.169-3.313c0.119-0.215,0.336-0.24,0.432-0.023C91.484,38.016,91.509,38.665,91.173,39.337L91.173,39.337
	z M99.709,39.218c-0.913,1.655-2.545,2.568-4.249,2.639c-1.392,0.049-2.737-0.311-3.552-1.8c-0.576-1.081-0.504-2.664,0.311-3.337
	c0.289-0.24,0.481-0.143,0.504,0.241c0.024,0.191,0.024,0.383,0.049,0.575c0.985-1.343,2.064-2.904,2.76-4.128
	c0.121-0.936,0.36-1.392,0.864-1.849c0.528-0.479,1.081-0.576,1.296-0.36c0.24,0.241,0.121,0.504-0.192,1.056
	c-0.096,0.143-0.168,0.289-0.264,0.456c-0.168,2.207,0.289,4.081,0.217,5.735c-0.049,0.937-0.217,1.945-1.081,2.52
	c1.609-0.6,2.617-2.039,3.217-3.336c0.121-0.264,0.36-0.192,0.456,0C100.141,37.848,100.117,38.472,99.709,39.218L99.709,39.218z
	 M95.485,34.945c-0.696,1.272-1.585,2.592-2.498,3.888c0.36,1.392,1.056,2.377,1.849,2.136
	C95.94,40.633,95.579,36.865,95.485,34.945L95.485,34.945z"/>
<linearGradient id="SVGID_2_" gradientUnits="userSpaceOnUse" x1="54.4144" y1="54.4144" x2="5.5856" y2="5.5856">
	<stop  offset="0" style="stop-color:#5674AF"/>
	<stop  offset="0.3328" style="stop-color:#438DBC"/>
	<stop  offset="0.6764" style="stop-color:#339FB9"/>
	<stop  offset="1" style="stop-color:#24B1B4"/>
</linearGradient>
<polygon class="st2" points="56,44 56,46.747 42.785,56 4,56 4,13.253 17.215,4 56,4 56,25 60,25 60,0 15.954,0 0,11.171 0,60 
	44.046,60 60,48.829 60,44 "/>
</svg>
