<?xml version="1.0" encoding="utf-8"?>
<!-- Generator: Adobe Illustrator 22.0.0, SVG Export Plug-In . SVG Version: 6.00 Build 0)  -->
<svg height="60px" width="16px" version="1.1" id="レイヤー_1" xmlns="http://www.w3.org/2000/svg" xmlns:xlink="http://www.w3.org/1999/xlink" x="0px"
	 y="0px" viewBox="0 0 21.853 83.785" style="enable-background:new 0 0 21.853 83.785;" xml:space="preserve">
<style type="text/css">
	.st0{fill:url(#SVGID_1_);}
</style>
<linearGradient id="SVGID_1_" gradientUnits="userSpaceOnUse" x1="32.2991" y1="52.6436" x2="-4.8559" y2="31.1921">
	<stop  offset="0" style="stop-color:#5674AF"/>
	<stop  offset="0.3328" style="stop-color:#438DBC"/>
	<stop  offset="0.6764" style="stop-color:#339FB9"/>
	<stop  offset="1" style="stop-color:#24B1B4"/>
</linearGradient>
<path class="st0" d="M20.462,69.553c-4.057-0.081-8.008,0.442-11.824,1.516c-2.089-5.246-3.199-10.849-3.224-16.596
	c-0.015-3.578,0.403-7.149,1.241-10.622c0.87,3.716,1.839,7.02,6.086,5.26c4.651-1.927,8.042-8.219,8.293-12.97
	c0.237-4.493-2.384-7.701-6.95-6.643c-2.584,0.599-4.488,2.221-5.946,4.254c-0.085-1.257-0.132-2.515-0.141-3.766
	C7.926,19.55,10.613,9.421,15.59,0.278c0.275-0.505-2.445-0.308-2.869,0.47C6.463,12.245,3.883,25.506,5.654,38.436
	c-0.184,0.457-0.36,0.914-0.523,1.365C1.348,50.272,1.772,61.778,5.83,71.964c-1.701,0.615-3.373,1.337-5.009,2.182
	c-0.615,0.318-1.24,1.255-0.448,1.792c3.757,2.547,7.515,5.095,11.272,7.642c0.843,0.572,2.431-0.143,2.615-0.939
	c0.382-0.143,0.707-0.392,0.843-0.752c1.51-4,3.641-7.535,6.475-10.732C22.37,70.262,21.284,69.57,20.462,69.553z M11.725,32.395
	c2.198-1.282,5.295-1.248,6.136,1.311c0.416,1.266,0.311,2.573,0.148,3.866c-0.308,2.433-1.173,4.56-2.523,6.598
	c-0.679,1.025-3.049,4.046-4.719,3.06c-0.452-0.267-0.716-2.201-0.84-2.651c-0.61-2.228-1.062-4.514-1.377-6.819
	C9.259,35.75,10.254,33.254,11.725,32.395z M12.534,80.938c-0.015-0.01-0.031-0.021-0.046-0.031
	c0.023-0.009,0.046-0.017,0.069-0.025C12.549,80.9,12.541,80.919,12.534,80.938z M6.689,74.003c0.716,1.575,1.518,3.115,2.411,4.607
	c-1.716-1.164-3.432-2.327-5.149-3.491C4.856,74.71,5.768,74.336,6.689,74.003z M13.102,79.574c-1.37-2.068-2.568-4.225-3.584-6.455
	c2.679-0.73,5.425-1.165,8.249-1.282C15.879,74.226,14.333,76.787,13.102,79.574z"/>
</svg>
