<?xml version="1.0" encoding="utf-8"?>
<!-- Generator: Adobe Illustrator 22.0.0, SVG Export Plug-In . SVG Version: 6.00 Build 0)  -->
<svg height="60px" width="16px" version="1.1" id="レイヤー_1" xmlns="http://www.w3.org/2000/svg" xmlns:xlink="http://www.w3.org/1999/xlink" x="0px"
	 y="0px" viewBox="0 0 21.853 83.785" style="enable-background:new 0 0 21.853 83.785;" xml:space="preserve">
<style type="text/css">
	.st0{fill:url(#SVGID_1_);}
</style>
<linearGradient id="SVGID_1_" gradientUnits="userSpaceOnUse" x1="32.2991" y1="52.6436" x2="-4.8559" y2="31.1921" gradientTransform="matrix(-1 0 0 1 21.8527 0)">
	<stop  offset="0" style="stop-color:#5674AF"/>
	<stop  offset="0.3328" style="stop-color:#438DBC"/>
	<stop  offset="0.6764" style="stop-color:#339FB9"/>
	<stop  offset="1" style="stop-color:#24B1B4"/>
</linearGradient>
<path class="st0" d="M0.276,71.157c2.833,3.197,4.965,6.732,6.475,10.732c0.136,0.36,0.461,0.609,0.843,0.752
	c0.183,0.796,1.771,1.51,2.615,0.939c3.757-2.547,7.515-5.095,11.272-7.642c0.792-0.537,0.167-1.474-0.448-1.792
	c-1.636-0.845-3.309-1.567-5.009-2.182c4.058-10.185,4.482-21.692,0.699-32.163c-0.163-0.451-0.339-0.908-0.523-1.365
	c1.771-12.93-0.809-26.191-7.067-37.688C8.708-0.03,5.988-0.227,6.263,0.278c4.977,9.143,7.664,19.271,7.593,29.708
	c-0.009,1.252-0.056,2.509-0.141,3.766c-1.458-2.033-3.362-3.655-5.946-4.254c-4.565-1.058-7.187,2.151-6.95,6.643
	c0.251,4.751,3.641,11.043,8.293,12.97c4.246,1.759,5.216-1.544,6.086-5.26c0.838,3.473,1.257,7.044,1.241,10.622
	c-0.025,5.747-1.135,11.35-3.224,16.596c-3.816-1.074-7.767-1.597-11.824-1.516C0.569,69.57-0.517,70.262,0.276,71.157z
	 M13.303,37.76c-0.315,2.306-0.767,4.592-1.377,6.819c-0.123,0.449-0.388,2.384-0.84,2.651c-1.67,0.986-4.04-2.035-4.719-3.06
	c-1.35-2.038-2.214-4.165-2.523-6.598c-0.164-1.293-0.269-2.6,0.148-3.866c0.841-2.559,3.938-2.593,6.136-1.311
	C11.599,33.254,12.593,35.75,13.303,37.76z M9.296,80.881c0.022,0.009,0.046,0.017,0.069,0.025c-0.015,0.01-0.031,0.021-0.046,0.031
	C9.311,80.919,9.304,80.9,9.296,80.881z M17.901,75.12c-1.716,1.164-3.432,2.327-5.149,3.491c0.893-1.492,1.695-3.032,2.411-4.607
	C16.085,74.336,16.997,74.71,17.901,75.12z M4.085,71.836c2.824,0.118,5.57,0.552,8.249,1.282c-1.016,2.23-2.214,4.387-3.584,6.455
	C7.52,76.787,5.974,74.226,4.085,71.836z"/>
</svg>
