<?xml version="1.0" encoding="utf-8"?>
<!-- Generator: Adobe Illustrator 22.0.0, SVG Export Plug-In . SVG Version: 6.00 Build 0)  -->
<svg height="24px" width="160px" version="1.1" id="レイヤー_1" xmlns="http://www.w3.org/2000/svg" xmlns:xlink="http://www.w3.org/1999/xlink" x="0px"
	 y="0px" viewBox="0 0 160 24" style="enable-background:new 0 0 160 24;" xml:space="preserve">
<style type="text/css">
	.st0{fill:url(#SVGID_1_);}
	.st1{fill:#FFFFFF;}
</style>
<linearGradient id="SVGID_1_" gradientUnits="userSpaceOnUse" x1="102.5775" y1="-25.1077" x2="57.4168" y2="53.1129" gradientTransform="matrix(1 0 0 -1 0 26)">
	<stop  offset="0" style="stop-color:#5674AF"/>
	<stop  offset="0.3328" style="stop-color:#438DBC"/>
	<stop  offset="0.6764" style="stop-color:#339FB9"/>
	<stop  offset="1" style="stop-color:#24B1B4"/>
</linearGradient>
<polygon class="st0" points="160,12 149.5,24 10.5,24 0,12 10.5,0 149.5,0 "/>
<g>
	<path class="st1" d="M32.4,17.6c-0.1,0.2-0.2,0.2-0.3,0.1c-0.3-0.3-0.5-0.9-0.2-2.1c0.5-1.9,2.5-5.9,4.3-8.8
		c-0.7-0.1-1.1-0.4-1.3-0.8c-0.1-0.2,0-0.3,0.2-0.4c1.8-0.2,3.3-1.1,4.7-1.1c1.1,0,2,0.3,2.5,1.7c0.4,1.3,0.1,2.5-0.7,3.6
		c-1.1,1.5-3.4,2.8-5.7,3.4c0.8,1,1.6,2,2,2.9c0.3,0.6,0.4,1.3,0.1,1.7c-0.1,0.2-0.2,0.2-0.3,0c-1.4-1.9-2.5-3.3-3.5-4.3
		C33.7,14.6,33.1,15.9,32.4,17.6z M36.7,9.1c-0.6,1-1.1,1.9-1.7,2.9c4.6-1,7-4.1,6.4-5.6c-0.5-1.2-2.6-0.1-3.9,0.3
		C37.5,7.3,37.3,8,36.7,9.1z"/>
	<path class="st1" d="M44.3,17.3c1.7,0.1,3.3-1.6,4.2-3c0.1-0.2,0.3-0.2,0.4,0c0.1,0.2,0,0.8-0.4,1.3c-0.9,1.3-2.5,2.2-4.1,2.3
		c-2.7,0-3.6-2.6-2.2-5.3s3.5-3.8,4.6-3.2c0.5,0.3,0.9,0.6,1.2,1.1c0.4,0.5,0.2,1.8-0.7,2.9c-1,1.3-2.4,1.8-3.9,0.6
		C42.6,15.9,43.1,17.2,44.3,17.3z M46,12.4c0.7-0.9,1.1-2,0.8-2.2c-0.4-0.4-2.2,0.9-3.2,2.9c-0.1,0.1-0.1,0.3-0.2,0.4
		C44.5,14.1,45.4,13.2,46,12.4z"/>
	<path class="st1" d="M50.7,17.9c-2,0-2.4-2.6-0.6-5.2c1.7-2.4,3.4-3.4,4.4-3.4c0.9,0,1.3,0.7,1.3,1.5c0.4-0.6,0.7-1.2,0.9-1.3
		c0.2-0.2,0.4-0.2,0.5,0.1c0.3,0.5,0.2,1.4-0.5,2.7c-1.3,2.3-3.8,6.6-5.4,10.6C51.2,23,51,23,50.9,22.9c-0.3-0.3-0.5-0.7-0.2-1.9
		c0.3-0.9,0.8-2.2,1.5-3.6C51.7,17.6,51.2,17.9,50.7,17.9z M54.8,10.3c-0.7,0-2.2,1.3-3.4,3.1c-1.1,1.8-1.4,3.7-0.6,3.7
		c0.9,0,2-1.3,3-3.2C55.2,11.7,55.4,10.4,54.8,10.3z"/>
	<path class="st1" d="M58.7,17.8c-1.5-0.1-1.5-1.7-1.1-3c0.5-1.4,1.5-3.4,2.9-5.4c0.2-0.2,0.4-0.2,0.5,0c0.5,0.7,0.4,1.6-0.4,2.8
		c-0.8,1.2-1.2,2.1-1.6,3.1c-0.4,1-0.4,1.8,0.1,1.8c0.8,0.1,2-1.4,3.1-3.2c1.3-2.1,1.9-3.6,2.6-4.5c0.2-0.3,0.4-0.3,0.5-0.1
		c0.3,0.4,0.5,1.3,0,2.4c-0.5,0.9-1.5,2.5-2,3.6c-0.5,1.2-0.5,2.1,0.3,2c0.9,0,2-1.4,2.8-2.9c0.1-0.2,0.3-0.2,0.4,0
		c0.1,0.2,0.1,0.7-0.2,1.3c-0.6,1.2-1.9,2.2-3.2,2.2c-1.4,0-1.9-0.9-1.7-2.1C61,16.8,59.9,17.9,58.7,17.8z"/>
	<path class="st1" d="M76.8,9.5c0.3-0.2,0.5-0.3,0.6-0.1c0.4,0.4,0.9,1.4,0.3,2.1c-1,1.1-2,2.6-2.4,3.7c-0.4,1.1-0.1,2,0.5,2
		c0.8,0,1.9-1.3,2.6-2.9c0.1-0.2,0.2-0.2,0.3,0c0.1,0.2,0.1,0.8-0.1,1.4c-0.5,1.3-1.8,2.1-2.9,2.1c-1.6,0-2.2-1.5-1.7-3.2
		c0.4-1.4,1.8-3,2.7-4c-0.9,0.6-1.9,0.8-2.6,0.8c-1.3,3-3.4,6.1-5.7,6.3c-1.6,0.2-2-1.3-1.5-3c0.6-2,2.3-4.5,2.7-5.1
		c0.2-0.3,0.3-0.3,0.5-0.1c0.3,0.3,0.4,1.3,0,2.3c-0.4,0.9-1.3,2.1-1.8,3.4c-0.5,1.2-0.4,2,0.2,1.9c1.4-0.2,3.6-2.6,4.7-5.8
		c-1.6-0.6,0.4-3.5,1.3-3.5c0.7,0,0.4,1.3-0.1,2.6C75.3,10.4,76,10.1,76.8,9.5z M71.7,9.3c-0.3,0.3-0.9,0.3-1.2-0.3
		c-0.3-0.6-0.2-1.2,0.1-1.5s0.9-0.1,1.2,0.5C72.1,8.4,71.9,9,71.7,9.3z"/>
	<path class="st1" d="M82,17.3c1.7,0.1,3.3-1.6,4.2-3c0.1-0.2,0.3-0.2,0.4,0c0.1,0.2,0,0.8-0.4,1.3c-0.9,1.3-2.5,2.2-4.1,2.3
		c-2.7,0-3.6-2.6-2.2-5.3s3.5-3.8,4.6-3.2c0.5,0.3,0.9,0.6,1.2,1.1c0.4,0.5,0.2,1.8-0.7,2.9c-1,1.3-2.4,1.8-3.9,0.6
		C80.4,15.9,80.9,17.2,82,17.3z M83.7,12.4c0.7-0.9,1.1-2,0.8-2.2c-0.4-0.4-2.2,0.9-3.2,2.9c-0.1,0.1-0.1,0.3-0.2,0.4
		C82.2,14.1,83.1,13.2,83.7,12.4z"/>
	<path class="st1" d="M93.2,9.3c0.7,0,1.1,1.1,0.8,2.1c1-1,2.4-2,3.1-2c0.8,0,0.9,1.3,0.5,2.3c-0.4,0.9-1.4,2.3-1.9,3.4
		c-0.6,1.2-0.3,2.2,0.5,2.1c0.9,0,1.8-1.4,2.6-2.9c0.1-0.2,0.3-0.2,0.4,0c0.1,0.1,0,0.8-0.2,1.3c-0.6,1.2-1.9,2.2-3.1,2.2
		c-1.8,0-2.5-1.4-1.7-3.2c0.8-1.7,2.6-4.1,2.3-4.2c-0.2-0.1-0.9,0.2-2.2,1.5c-1.7,1.7-2.8,3.8-3.7,5.7c-0.1,0.3-0.3,0.3-0.5,0.1
		c-0.4-0.3-0.7-1.1,0-2.6c0.7-1.7,3-4.6,2.5-4.8c-0.3-0.1-1.3,0.5-2.6,1.9c-1.2,1.3-2.2,3.3-3.1,5.3c-0.1,0.2-0.2,0.3-0.4,0.1
		c-0.5-0.4-0.6-1.1-0.2-2.2c0.4-1.3,2-4.3,3.3-6.3c0.1-0.2,0.3-0.2,0.4,0c0.4,0.6,0.3,1.4,0,2.2C90.9,10.5,92.5,9.3,93.2,9.3z"/>
	<path class="st1" d="M102.2,17.3c1.7,0.1,3.3-1.6,4.2-3c0.1-0.2,0.3-0.2,0.4,0c0.1,0.2,0,0.8-0.4,1.3c-0.9,1.3-2.5,2.2-4.1,2.3
		c-2.7,0-3.6-2.6-2.2-5.3s3.5-3.8,4.6-3.2c0.5,0.3,0.9,0.6,1.2,1.1c0.4,0.5,0.2,1.8-0.7,2.9c-1,1.3-2.4,1.8-3.9,0.6
		C100.6,15.9,101.1,17.2,102.2,17.3z M104,12.4c0.7-0.9,1.1-2,0.8-2.2c-0.4-0.4-2.2,0.9-3.2,2.9c-0.1,0.1-0.1,0.3-0.2,0.4
		C102.5,14.1,103.4,13.2,104,12.4z"/>
	<path class="st1" d="M113.3,9.3c0.7,0.1,1.3,1.1,0.8,2.2c-0.4,0.9-1.5,2.5-2,3.6c-0.5,1.2-0.4,2.2,0.3,2.2c0.9,0,1.9-1.4,2.7-2.9
		c0.1-0.2,0.3-0.2,0.4,0c0.1,0.2,0.1,0.7-0.2,1.3c-0.6,1.2-1.9,2.2-3.1,2.2c-1.8,0-2.2-1.3-1.6-3.1c0.7-2.1,2.5-4.3,2.2-4.5
		c-0.2-0.1-1.4,0.5-2.8,2c-1.2,1.3-2.2,3.4-3.1,5.3c-0.1,0.2-0.2,0.3-0.4,0.1c-0.4-0.4-0.5-1.1-0.2-2.2c0.4-1.3,2-4.2,3.4-6.2
		c0.1-0.2,0.3-0.2,0.4,0c0.3,0.5,0.3,1.2,0.1,2C111.2,10.4,112.6,9.2,113.3,9.3z"/>
	<path class="st1" d="M117,8.8c-0.2-0.3-0.1-0.4,0.2-0.4c0.6,0,1.2,0,1.7-0.1c0.7-1.2,1.2-2.1,1.6-2.6c0.2-0.3,0.4-0.3,0.5,0
		c0.2,0.6,0.2,1.3-0.3,2.4c0.8,0,1.1,0.4,1.3,0.6c0.1,0.3,0.1,0.4-0.3,0.4c-0.5-0.1-1.1,0-1.6,0.1c-0.8,1.4-2,3.4-2.8,5.2
		c-0.7,1.5-0.5,2.8,0.4,2.9c0.9,0,2.1-1.4,2.9-3c0.1-0.3,0.4-0.3,0.4,0c0.1,0.3,0,0.7-0.2,1.2c-0.3,0.6-1.7,2.5-3.3,2.4
		c-1.4,0-2.5-1.6-1.5-4c0.4-1.1,1.3-2.8,2.2-4.5C117.6,9.4,117.2,9.1,117,8.8z"/>
	<path class="st1" d="M124.3,10.5c0.1-0.8,0.3-1.2,0.8-1.6c0.5-0.4,0.9-0.5,1.1-0.3c0.2,0.2,0.1,0.4-0.2,0.9
		c-0.1,0.1-0.1,0.3-0.2,0.4c-0.1,1.9,0.3,3.6,0.2,5c0,0.8-0.2,1.7-0.9,2.2c1.4-0.5,2.3-1.8,2.8-2.9c0.1-0.2,0.3-0.2,0.4,0
		c0.1,0.2,0.1,0.7-0.3,1.4c-0.8,1.4-2.2,2.2-3.7,2.3c-1.2,0-2.4-0.3-3.1-1.6c-0.5-0.9-0.4-2.3,0.3-2.9c0.3-0.2,0.4-0.1,0.4,0.2
		c0,0.2,0,0.3,0,0.5C122.7,12.9,123.7,11.6,124.3,10.5z M122.1,15.2c0.3,1.2,0.9,2.1,1.6,1.9c1-0.3,0.7-3.6,0.6-5.3
		C123.7,12.9,122.9,14.1,122.1,15.2z"/>
</g>
</svg>
