<?xml version="1.0" encoding="utf-8"?>
<!-- Generator: Adobe Illustrator 22.0.0, SVG Export Plug-In . SVG Version: 6.00 Build 0)  -->
<svg height="24px" width="160px" version="1.1" id="レイヤー_1" xmlns="http://www.w3.org/2000/svg" xmlns:xlink="http://www.w3.org/1999/xlink" x="0px"
	 y="0px" viewBox="0 0 160 24" style="enable-background:new 0 0 160 24;" xml:space="preserve">
<style type="text/css">
	.st0{fill:url(#SVGID_1_);}
	.st1{fill:#FFFFFF;}
</style>
<linearGradient id="SVGID_1_" gradientUnits="userSpaceOnUse" x1="102.5775" y1="-24.5615" x2="57.4168" y2="53.659" gradientTransform="matrix(1 0 0 -1 0 26.5462)">
	<stop  offset="0" style="stop-color:#5674AF"/>
	<stop  offset="0.3328" style="stop-color:#438DBC"/>
	<stop  offset="0.6764" style="stop-color:#339FB9"/>
	<stop  offset="1" style="stop-color:#24B1B4"/>
</linearGradient>
<polygon class="st0" points="160,12 149.5,24 10.5,24 0,12 10.5,0 149.5,0 "/>
<g>
	<path class="st1" d="M55.9,6.5c-0.1-0.2-0.1-0.4,0.2-0.4C57.9,6,59.4,5.1,60.9,5c1.1,0,2,0.3,2.5,1.7c0.4,1.3,0.1,2.5-0.6,3.6
		c-1,1.6-3.3,3.2-6.1,3.7c-0.5,0.1-0.9,0-1.3-0.2c-0.6,1.2-1.2,2.5-2,4.3c-0.1,0.2-0.2,0.2-0.3,0.1c-0.3-0.3-0.5-0.9-0.2-2.1
		c0.5-1.9,2.5-5.9,4.3-8.7C56.5,7.3,56.1,7,55.9,6.5z M62.5,6.9c-0.4-1.2-2.5-0.1-3.9,0.3c0,0.6-0.2,1.3-0.8,2.3
		c-0.5,1-1.1,1.9-1.8,3.1C60.7,11.8,63,8.4,62.5,6.9z"/>
	<path class="st1" d="M68.1,10.5c0.3-0.2,0.4-0.2,0.6,0c0.4,0.4,0.9,1.4,0.3,2.1c-0.9,1.1-2,2.4-2.3,3.5s-0.1,1.9,0.5,1.9
		c0.8,0,1.8-1.3,2.5-2.8c0.1-0.2,0.2-0.2,0.3,0c0.1,0.2,0.1,0.7-0.1,1.3c-0.5,1.2-1.7,2.1-2.8,2.1c-1.5-0.1-2.1-1.4-1.6-3
		c0.5-1.4,1.7-2.9,2.5-3.8c-0.9,0.6-1.8,0.8-2.5,0.8c-0.8,1.5-2.8,4.5-3.2,6.4c0,0.2-0.2,0.3-0.4,0.1c-0.6-0.6-0.6-1.6,0-2.7
		c0.5-0.9,1.9-2.9,2.7-4C63.4,11.4,65.2,9,66,8.9c0.7,0,0.5,1.2,0,2.5C66.6,11.4,67.3,11,68.1,10.5z"/>
	<path class="st1" d="M76.8,13.8c-0.4,1.8-1.8,3.9-3.3,4.4c-0.8,0.3-1.8,0.2-2.6-0.9c-0.9-1.2-0.6-3,0.3-4.7
		c0.8-1.4,2.1-2.6,3.3-2.7c0.7,0,1,0.1,1.4,0.7c0.5,0.7,1.1,0.8,1,2.3c0,0.2,0,0.3,0,0.5c0.1,0,0.3,0,0.4,0c0.1,0,0.1,0.1,0.1,0.2
		C77.3,13.7,77.1,13.8,76.8,13.8z M75.1,13.3c-0.4-0.3-0.9-1.1-1-1.8c-0.6,0.5-1.2,1.2-1.6,2c-0.9,1.6-1.2,3.5-0.7,4
		c0.6,0.5,1.9-0.3,2.9-2.2c0.3-0.6,0.6-1.2,0.7-1.7C75.3,13.5,75.2,13.4,75.1,13.3z M75.8,11.5c-0.1-0.7-0.5-0.5-0.6,0.1
		c-0.1,0.6,0.1,1.2,0.5,1.5C75.8,12.4,75.8,11.8,75.8,11.5z"/>
	<path class="st1" d="M84.4,11.1c0.4,0.9-0.4,2-0.8,3.1c-0.1,0.3-0.2,0.3-0.4,0.2c-0.5-0.3-0.8-0.9-0.5-1.8c0.2-0.8,0.9-1.7,0.6-1.9
		c-0.4-0.3-1.9,1-2.9,3c-1.2,2.4-0.7,4.1,0.5,4.1c1.8,0,3.3-1.7,4.1-3c0.1-0.2,0.3-0.2,0.4,0c0.1,0.2,0,0.7-0.4,1.3
		c-0.8,1.2-2.5,2.3-4.1,2.3c-2.7,0-3.6-2.6-2.2-5.3c1.3-2.6,3.5-3.8,4.5-3.1C83.8,10.3,84.1,10.7,84.4,11.1z"/>
	<path class="st1" d="M88.3,17.8c1.7,0.1,3.3-1.6,4.2-3c0.1-0.2,0.3-0.2,0.4,0c0.1,0.2,0,0.8-0.4,1.3c-0.9,1.3-2.5,2.2-4.1,2.3
		c-2.7,0-3.6-2.6-2.2-5.3s3.5-3.8,4.6-3.2c0.5,0.3,0.9,0.6,1.2,1.1c0.4,0.5,0.2,1.8-0.7,2.9c-1,1.3-2.4,1.8-3.9,0.6
		C86.7,16.4,87.2,17.8,88.3,17.8z M90,13c0.7-0.9,1.1-2,0.8-2.2c-0.4-0.4-2.2,0.9-3.2,2.9c-0.1,0.1-0.1,0.3-0.2,0.4
		C88.6,14.7,89.4,13.8,90,13z"/>
	<path class="st1" d="M96.1,11c0.1-0.8,0.3-1.2,0.8-1.6C97.3,9,97.8,8.9,98,9.1c0.2,0.2,0.1,0.4-0.2,0.9c-0.1,0.1-0.1,0.3-0.2,0.4
		c-0.1,1.9,0.3,3.6,0.2,5c0,0.8-0.2,1.7-0.9,2.2c1.4-0.5,2.3-1.8,2.8-2.9c0.1-0.2,0.3-0.2,0.4,0c0.1,0.2,0.1,0.7-0.3,1.4
		c-0.8,1.4-2.2,2.2-3.7,2.3c-1.2,0-2.4-0.3-3.1-1.6c-0.5-0.9-0.4-2.3,0.3-2.9c0.3-0.2,0.4-0.1,0.4,0.2c0,0.2,0,0.3,0,0.5
		C94.5,13.5,95.5,12.1,96.1,11z M93.9,15.8c0.3,1.2,0.9,2.1,1.6,1.9c1-0.3,0.7-3.6,0.6-5.3C95.4,13.5,94.7,14.6,93.9,15.8z"/>
	<path class="st1" d="M103.3,11c0.1-0.8,0.3-1.2,0.8-1.6c0.5-0.4,0.9-0.5,1.1-0.3c0.2,0.2,0.1,0.4-0.2,0.9c-0.1,0.1-0.1,0.3-0.2,0.4
		c-0.1,1.9,0.3,3.6,0.2,5c0,0.8-0.2,1.7-0.9,2.2c1.4-0.5,2.3-1.8,2.8-2.9c0.1-0.2,0.3-0.2,0.4,0c0.1,0.2,0.1,0.7-0.3,1.4
		c-0.8,1.4-2.2,2.2-3.7,2.3c-1.2,0-2.4-0.3-3.1-1.6c-0.5-0.9-0.4-2.3,0.3-2.9c0.3-0.2,0.4-0.1,0.4,0.2c0,0.2,0,0.3,0,0.5
		C101.7,13.5,102.7,12.1,103.3,11z M101.1,15.8c0.3,1.2,0.9,2.1,1.6,1.9c1-0.3,0.7-3.6,0.6-5.3C102.6,13.5,101.9,14.6,101.1,15.8z"
		/>
</g>
</svg>
