<svg xmlns="http://www.w3.org/2000/svg" xmlns:xlink="http://www.w3.org/1999/xlink" width="320" height="320" viewBox="0 0 320 320">
  <defs>
    <style>
      .cls-1 {
        fill: url(#名称未設定グラデーション_10);
      }
    </style>
    <linearGradient id="名称未設定グラデーション_10" data-name="名称未設定グラデーション 10" x1="209.694" y1="274.92" x2="78.957" y2="48.478" gradientUnits="userSpaceOnUse">
      <stop offset="0" stop-color="#5674af"/>
      <stop offset="0.159" stop-color="#4f7db4"/>
      <stop offset="0.33" stop-color="#438dbc"/>
      <stop offset="0.66" stop-color="#339fb9"/>
      <stop offset="0.994" stop-color="#24b1b4"/>
    </linearGradient>
  </defs>
  <title>engineer03</title>
  <g id="engineer03">
    <path class="cls-1" d="M271.229,145.749A9.821,9.821,0,0,0,263.484,142H225.5V130.268A4.273,4.273,0,0,0,221.232,126H153.768a4.273,4.273,0,0,0-4.268,4.268v41.464A4.273,4.273,0,0,0,153.768,176H182.5v5h-5a1.988,1.988,0,0,0-1.723,3H155.5v-.562A6.445,6.445,0,0,0,149.063,177h-3.126a6.445,6.445,0,0,0-6.437,6.438V184h-5.634a3.927,3.927,0,0,0,.134-.969v-2.539A2.5,2.5,0,0,0,131.508,178H129V145.963A3.966,3.966,0,0,0,125.038,142H76.962A3.966,3.966,0,0,0,73,145.963V178H70.492A2.5,2.5,0,0,0,68,180.492v2.539a3.927,3.927,0,0,0,.134.969H59a2,2,0,0,0-2,2v10a2,2,0,0,0,2,2h5v60a2,2,0,0,0,4,0V198h3.5v60a2,2,0,0,0,4,0V213H197.6l-2.366,10H171.5a10.5,10.5,0,0,0,0,21H199v14h-2a2,2,0,0,0-2,2v6a2,2,0,0,0,4,0v-4h12v4a2,2,0,0,0,4,0v-6a2,2,0,0,0-2-2h-2V244h14.5v14a2,2,0,0,0,4,0V244H233v14a2,2,0,0,0,4,0V244h6a6.006,6.006,0,0,0,6-6v-2.5a9.83,9.83,0,0,0,6.522-7.1l17.571-74.25A9.82,9.82,0,0,0,271.229,145.749ZM153.5,130.268a.275.275,0,0,1,.268-.268h67.464a.275.275,0,0,1,.268.268v12.167a13.2,13.2,0,0,0-9.507,9.763l-2.319,9.8H153.5ZM204.467,184h-5.244a1.988,1.988,0,0,0-1.723-3h-5v-5h13.86Zm-50.7-12a.275.275,0,0,1-.268-.268V166h55.227l-1.42,6H153.768Zm34.732,4v5h-2v-5Zm-45,7.438A2.44,2.44,0,0,1,145.937,181h3.126a2.44,2.44,0,0,1,2.437,2.438V184h-8ZM125,145.963V178H77l-.036-32ZM72,182h58v1l-58,.031Zm1.5,12H61v-6H203.521l-1.42,6Zm2,15V198H201.154l-2.6,11ZM207,258h-4V244h4Zm36-18H171.5a6.5,6.5,0,0,1,0-13h23.313a9.868,9.868,0,0,0,9.833,9H245v2A2,2,0,0,1,243,240Zm26.2-86.772-17.572,74.251A5.851,5.851,0,0,1,245.913,232H204.646a5.876,5.876,0,0,1-5.717-7.228l16.957-71.652a9.217,9.217,0,0,1,9-7.12h38.6a5.876,5.876,0,0,1,5.717,7.228ZM164,98V91a2,2,0,0,0-2-2h-9.1a1.988,1.988,0,0,0,.3-1.663l-4.682-17.472a4,4,0,0,0-4.9-2.831h0l-2.9.777a3.974,3.974,0,0,0-2.43,1.864,4.021,4.021,0,0,0-.3.656V65a4,4,0,0,0-4-4h-3a4,4,0,0,0-4,4v1.1a5,5,0,0,0-1-.1h-7a4.967,4.967,0,0,0-2,.424V60a4,4,0,0,0-4-4h-5a3.984,3.984,0,0,0-1,.142V56a4,4,0,0,0-4-4H98a4,4,0,0,0-4,4V68.424A4.967,4.967,0,0,0,92,68H84a5,5,0,0,0-1,.1V65a4,4,0,0,0-4-4H77a3.984,3.984,0,0,0-1,.142V60a4,4,0,0,0-4-4H67a4,4,0,0,0-4,4V89H49a2,2,0,0,0,0,4H160v3H49a2,2,0,0,0,0,4H162A2,2,0,0,0,164,98ZM72,89H67V60h5Zm7-16V89H77V65h2ZM93,89H83V73a1,1,0,0,1,1-1h8a1,1,0,0,1,1,1Zm10,0H98V56h5Zm10,0h-5V60h5Zm14,0h-9V71a1,1,0,0,1,1-1h7a1,1,0,0,1,1,1Zm7,0h-3V65h3Zm4,0V73.088L142.264,89Zm7.927-1.783-4.164-15.541,2.9-.778,4.164,15.542Zm73.649,27.253,1.136-4.015a2,2,0,1,1,3.849,1.09l-1.137,4.015a2,2,0,0,1-1.923,1.456,2.027,2.027,0,0,1-.546-.077A2,2,0,0,1,219.576,114.47Zm9.241,7.32a2,2,0,0,1,0-2.828l3.972-3.972a2,2,0,0,1,2.828,2.828l-3.971,3.972a2,2,0,0,1-2.829,0Zm6.23,5.393,4.015-1.137a2,2,0,1,1,1.09,3.85l-4.015,1.136a2.025,2.025,0,0,1-.546.076,2,2,0,0,1-.544-3.925ZM82,176h38a2,2,0,0,0,2-2V151a2,2,0,0,0-2-2H82a2,2,0,0,0-2,2v23A2,2,0,0,0,82,176Zm2-23h34v19H84Zm-26.045-6.6a2,2,0,0,1,1.09-3.85l4.015,1.137a2,2,0,0,1-.544,3.925,2.025,2.025,0,0,1-.546-.076Zm7.363-14.906,3.972,3.972a2,2,0,1,1-2.828,2.828l-3.972-3.972a2,2,0,1,1,2.828-2.828ZM77.4,126.955l1.137,4.015a2,2,0,0,1-1.38,2.469,1.994,1.994,0,0,1-2.469-1.379l-1.137-4.015a2,2,0,1,1,3.849-1.09Z"/>
  </g>
</svg>
