<svg xmlns="http://www.w3.org/2000/svg" xmlns:xlink="http://www.w3.org/1999/xlink" width="320" height="320" viewBox="0 0 320 320">
  <defs>
    <style>
      .cls-1 {
        fill: url(#名称未設定グラデーション_10);
      }
    </style>
    <linearGradient id="名称未設定グラデーション_10" data-name="名称未設定グラデーション 10" x1="203.733" y1="281.34" x2="86.774" y2="78.76" gradientUnits="userSpaceOnUse">
      <stop offset="0" stop-color="#5674af"/>
      <stop offset="0.159" stop-color="#4f7db4"/>
      <stop offset="0.33" stop-color="#438dbc"/>
      <stop offset="0.66" stop-color="#339fb9"/>
      <stop offset="0.994" stop-color="#24b1b4"/>
    </linearGradient>
  </defs>
  <title>engineer01</title>
  <g id="engineer01">
    <path class="cls-1" d="M57.282,235.542v9.943a.29.29,0,0,1-.279.294H55.285a.294.294,0,0,1-.295-.294v-6.969H53.5a.291.291,0,0,1-.278-.294v-.977a.436.436,0,0,1,.092-.231l2.262-1.766H57A.29.29,0,0,1,57.282,235.542Zm8.3-.294H64.161L61.9,237.014a.437.437,0,0,0-.093.231v.977a.292.292,0,0,0,.279.294h1.487v6.969a.294.294,0,0,0,.294.294h1.719a.291.291,0,0,0,.279-.294v-9.943A.291.291,0,0,0,65.586,235.248Zm7.027,2.065a1.405,1.405,0,0,0-1.4,1.416,1.391,1.391,0,0,0,1.4,1.4,1.4,1.4,0,0,0,1.416-1.4A1.419,1.419,0,0,0,72.613,237.313Zm0,4.62a1.405,1.405,0,0,0-1.4,1.416,1.39,1.39,0,0,0,1.4,1.4,1.4,1.4,0,0,0,1.416-1.4A1.419,1.419,0,0,0,72.613,241.933Zm13.7-1.419c0,3.391-1.44,5.421-3.964,5.421s-3.965-2.03-3.965-5.421,1.44-5.421,3.965-5.421S86.315,237.122,86.315,240.514Zm-2.493,0c0-2.03-.527-3.175-1.471-3.175s-1.472,1.145-1.472,3.175.527,3.174,1.472,3.174S83.822,242.558,83.822,240.514Zm13.09,0c0,3.391-1.441,5.421-3.965,5.421s-3.965-2.03-3.965-5.421,1.44-5.421,3.965-5.421S96.912,237.122,96.912,240.514Zm-2.494,0c0-2.03-.526-3.175-1.471-3.175s-1.471,1.145-1.471,3.175.526,3.174,1.471,3.174S94.418,242.558,94.418,240.514Zm131.223-5.266h-1.425l-2.262,1.766a.437.437,0,0,0-.093.231v.977a.292.292,0,0,0,.28.294h1.486v6.969a.294.294,0,0,0,.295.294h1.719a.29.29,0,0,0,.278-.294v-9.943A.29.29,0,0,0,225.641,235.248Zm12.268,7.14a3.566,3.566,0,0,1-3.547,3.547c-2.4,0-3.732-1.8-3.732-4.213,0-4.554,3.872-6.4,5.2-6.815a.354.354,0,0,1,.479.247l.45,1.194c.062.185.015.355-.294.449-.728.231-2.788.944-3.114,2.539a4.488,4.488,0,0,1,1.472-.31A3.112,3.112,0,0,1,237.909,242.388Zm-2.091-.077a1.487,1.487,0,1,0-1.487,1.486A1.5,1.5,0,0,0,235.818,242.311Zm7.973-5a1.4,1.4,0,0,0-1.4,1.416,1.39,1.39,0,0,0,1.4,1.4,1.406,1.406,0,0,0,1.416-1.4A1.421,1.421,0,0,0,243.791,237.313Zm0,4.62a1.4,1.4,0,0,0-1.4,1.416,1.389,1.389,0,0,0,1.4,1.4,1.405,1.405,0,0,0,1.416-1.4A1.421,1.421,0,0,0,243.791,241.933Zm13.578-1.419c0,3.391-1.44,5.421-3.965,5.421s-3.965-2.03-3.965-5.421,1.441-5.421,3.965-5.421S257.369,237.122,257.369,240.514Zm-2.493,0c0-2.03-.527-3.175-1.472-3.175s-1.471,1.145-1.471,3.175.526,3.174,1.471,3.174S254.876,242.558,254.876,240.514Zm13.09,0c0,3.391-1.441,5.421-3.965,5.421s-3.965-2.03-3.965-5.421,1.441-5.421,3.965-5.421S267.966,237.122,267.966,240.514Zm-2.493,0c0-2.03-.528-3.175-1.472-3.175s-1.472,1.145-1.472,3.175.527,3.174,1.472,3.174S265.473,242.558,265.473,240.514ZM94.8,179.2a28,28,0,1,1-39.6,0A27.818,27.818,0,0,1,94.8,179.2ZM99,199a24,24,0,1,0-7.029,16.971A23.847,23.847,0,0,0,99,199ZM75,183a2,2,0,0,0-2,2v7.469l-.264-.461a2,2,0,0,0-3.472,1.984l4,7A2,2,0,0,0,75,202a1.964,1.964,0,0,0,.513-.067A2,2,0,0,0,77,200V185A2,2,0,0,0,75,183Zm142,16a28,28,0,1,1,28,28A28.032,28.032,0,0,1,217,199Zm4,0a24,24,0,1,0,24-24A24.027,24.027,0,0,0,221,199Zm23.008,2.736,7,4a2,2,0,1,0,1.984-3.472L247,198.839V186a2,2,0,0,0-4,0v14A2,2,0,0,0,244.008,201.736ZM142,94a2,2,0,0,1,2,2v12a2,2,0,0,1-2,2H130a2,2,0,0,1-2-2V96a2,2,0,0,1,2-2Zm-2,4h-8v8h8Zm22-2v12a2,2,0,0,1-2,2H148a2,2,0,0,1-2-2V96a2,2,0,0,1,2-2h12A2,2,0,0,1,162,96Zm-4,2h-8v8h8Zm58.537-16.28A2,2,0,0,1,215,85H204v40a2,2,0,0,1-2,2H177.3a18.474,18.474,0,0,0-2.085-4H188V97H174v24.442a18.613,18.613,0,0,0-4-3.483V95a2,2,0,0,1,2-2h18a2,2,0,0,1,2,2v28h8V85H120v38h24.786a18.427,18.427,0,0,0-2.084,4H118a2,2,0,0,1-2-2V85H105a2,2,0,0,1-1.537-3.28l20-24A2,2,0,0,1,125,57h70a2,2,0,0,1,1.537.72ZM210.73,81,194.063,61H125.937L109.27,81H210.73ZM160,120a13.5,13.5,0,1,1-13.5,13.5A13.515,13.515,0,0,1,160,120Zm0,4a9.494,9.494,0,0,0-7.892,4.22,1.994,1.994,0,0,1,2.611.759,7.629,7.629,0,0,0,3.037,2.87l2.818-3.176a2,2,0,0,1,3.255.374C164.507,130.282,165.99,132,167,132a2,2,0,0,1,0,4,7.1,7.1,0,0,1-5.1-2.792l-1.88,2.119a2,2,0,0,1-1.5.673c-4.175,0-6.941-4.472-7.242-4.981a1.954,1.954,0,0,1-.237-.651A9.494,9.494,0,1,0,160,124Zm49.571,73.586a2,2,0,0,1,0,2.828l-5.657,5.657a2,2,0,0,1-2.828-2.828L203.329,201H181a1.949,1.949,0,0,1-.266-.027l-.4,8.131a6.2,6.2,0,0,1-4.265,5.59l-1.933,46.389a2,2,0,0,1-2,1.917h-10a2,2,0,0,1-2-1.958l-.135-6.49-.135,6.49a2,2,0,0,1-2,1.958h-10a2,2,0,0,1-2-1.917l-1.933-46.389a6.2,6.2,0,0,1-4.265-5.59l-.4-8.131A1.949,1.949,0,0,1,139,201H116.671l2.243,2.243a2,2,0,1,1-2.828,2.828l-5.657-5.657a2,2,0,0,1,0-2.828l5.657-5.657a2,2,0,0,1,2.828,2.828L116.671,197H139c.024,0,.046.006.069.007L137.5,165.425A17.287,17.287,0,0,1,154.67,148h10.66a17.268,17.268,0,0,1,17.17,17.326c0,.033,0,.067,0,.1l-1.567,31.582c.023,0,.045-.007.069-.007h22.329l-2.243-2.243a2,2,0,0,1,2.828-2.828ZM178.5,165.278A13.264,13.264,0,0,0,165.33,152H154.67a13.264,13.264,0,0,0-13.17,13.326l2.165,43.58a2.2,2.2,0,0,0,2.2,2.094,2,2,0,0,1,2,1.917L149.784,259h6.122l.96-46.042a2,2,0,0,1,2-1.958h2.27a2,2,0,0,1,2,1.958l.96,46.042h6.122l1.921-46.083a2,2,0,0,1,2-1.917,2.2,2.2,0,0,0,2.2-2.095ZM160,174a2,2,0,1,0,2,2A2,2,0,0,0,160,174Zm0,7a2,2,0,1,0,2,2A2,2,0,0,0,160,181Zm8.264-27.332a2,2,0,0,0-2.7.852l-.075.143A6.082,6.082,0,0,1,160,158h-.066a6.079,6.079,0,0,1-5.486-3.443,2,2,0,0,0-3.585,1.775A10.143,10.143,0,0,0,159.9,162h.1a10.141,10.141,0,0,0,9.039-5.49l.075-.144A2,2,0,0,0,168.264,153.668Z"/>
  </g>
</svg>
