<svg xmlns="http://www.w3.org/2000/svg" xmlns:xlink="http://www.w3.org/1999/xlink" width="320" height="320" viewBox="0 0 320 320">
  <defs>
    <style>
      .cls-1 {
        fill: url(#名称未設定グラデーション_10);
      }
    </style>
    <linearGradient id="名称未設定グラデーション_10" data-name="名称未設定グラデーション 10" x1="216.96" y1="291.891" x2="96.214" y2="82.753" gradientUnits="userSpaceOnUse">
      <stop offset="0" stop-color="#5674af"/>
      <stop offset="0.159" stop-color="#4f7db4"/>
      <stop offset="0.33" stop-color="#438dbc"/>
      <stop offset="0.66" stop-color="#339fb9"/>
      <stop offset="0.994" stop-color="#24b1b4"/>
    </linearGradient>
  </defs>
  <title>engineer04</title>
  <g id="engineer04">
    <path class="cls-1" d="M123,149.311a2,2,0,1,1,0,4h-2a2,2,0,0,1,0-4Zm-70,2a2,2,0,0,0-2-2H49a2,2,0,0,0,0,4h2A2,2,0,0,0,53,151.311Zm65.205,13.85,1.88.684a2,2,0,0,0,1.368-3.759l-1.88-.684a2,2,0,0,0-1.368,3.759ZM53.8,137.46l-1.88-.684a2,2,0,0,0-1.368,3.759l1.88.684A2,2,0,0,0,53.8,137.46Zm59.263,39.166a2,2,0,1,0,2.571-3.064l-1.532-1.286a2,2,0,1,0-2.571,3.064ZM57.9,130.345a2,2,0,1,0,2.571-3.064L58.942,126a2,2,0,0,0-2.571,3.065Zm47.329,50.276a2,2,0,0,0-3.464,2l1,1.733a2,2,0,0,0,3.464-2ZM66.768,122a2,2,0,1,0,3.464-2l-1-1.732a2,2,0,0,0-3.464,2Zm27.279,63.432a2,2,0,1,0-3.939.694l.347,1.97a2,2,0,0,0,3.94-.695ZM77.953,117.189a2,2,0,1,0,3.939-.694l-.347-1.97a2,2,0,0,0-3.94.695Zm1.275,72.529a2,2,0,0,0,2.317-1.622l.347-1.97a2,2,0,1,0-3.939-.694l-.348,1.969A2,2,0,0,0,79.228,189.718Zm12.5-70.906a2,2,0,0,0,2.317-1.623l.348-1.969a2,2,0,0,0-3.94-.695l-.347,1.97A2,2,0,0,0,91.73,118.812ZM66.5,185.085a2,2,0,0,0,2.732-.731l1-1.733a2,2,0,1,0-3.464-2l-1,1.733A2,2,0,0,0,66.5,185.085Zm36-62.353a2,2,0,0,0,2.732-.732l1-1.732a2,2,0,1,0-3.464-2l-1,1.732A2,2,0,0,0,102.5,122.732ZM60.474,175.34a2,2,0,1,0-2.571-3.064l-1.532,1.286a2,2,0,1,0,2.571,3.064ZM114.1,130.345l1.532-1.285A2,2,0,0,0,113.058,126l-1.532,1.286a2,2,0,1,0,2.571,3.064ZM52.427,161.4l-1.88.684a2,2,0,0,0,1.368,3.759l1.88-.684a2,2,0,0,0-1.368-3.759Zm67.146-20.183,1.88-.684a2,2,0,0,0-1.368-3.759l-1.88.684a2,2,0,0,0,1.368,3.759ZM160,57.311a2,2,0,0,0,2-2v-2a2,2,0,0,0-4,0v2A2,2,0,0,0,160,57.311Zm0,66a2,2,0,0,0-2,2v2a2,2,0,1,0,4,0v-2A2,2,0,0,0,160,123.311ZM171.287,59.3a2,2,0,0,0,2.563-1.2l.684-1.879a2,2,0,0,0-3.759-1.368l-.684,1.879A2,2,0,0,0,171.287,59.3ZM146.15,122.516l-.684,1.879a2,2,0,0,0,3.759,1.368l.684-1.879a2,2,0,1,0-3.759-1.368Zm37.88-57.731,1.285-1.533a2,2,0,0,0-3.064-2.571l-1.285,1.532a2,2,0,0,0,3.064,2.572ZM137.749,119.94l1.286-1.532a2,2,0,0,0-3.065-2.572l-1.285,1.533a2,2,0,0,0,3.064,2.571Zm53.562-45.4,1.732-1a2,2,0,1,0-2-3.463l-1.732,1a2,2,0,1,0,2,3.463Zm-62.622,31.537-1.732,1a2,2,0,1,0,2,3.463l1.732-1a2,2,0,1,0-2-3.463Zm63.81-21.5a2,2,0,0,0,2.317,1.622l1.969-.347a2,2,0,1,0-.694-3.939l-1.97.347A2,2,0,0,0,192.5,84.58Zm-68.59,14.125,1.97-.347a2,2,0,0,0-.7-3.94l-1.969.348a2,2,0,0,0,.694,3.939Zm74.5-1.622a2,2,0,0,0-1.623-2.317l-1.969-.348a2,2,0,0,0-.695,3.94l1.97.347A2,2,0,0,0,198.408,97.083ZM123.215,85.855l1.969.347a2,2,0,0,0,.7-3.939l-1.97-.347a2,2,0,0,0-.694,3.939Zm66.1,23.687,1.732,1a2,2,0,1,0,2-3.463l-1.732-1a2,2,0,1,0-2,3.463Zm-62.354-36,1.732,1a2,2,0,1,0,2-3.463l-1.732-1a2,2,0,1,0-2,3.463Zm55.294,46.4a2,2,0,0,0,3.064-2.571l-1.285-1.533a2,2,0,1,0-3.064,2.572ZM135.97,64.785a2,2,0,0,0,3.065-2.572l-1.286-1.532a2,2,0,0,0-3.064,2.571Zm35.317,56.535a2,2,0,0,0-1.2,2.564l.684,1.879a2,2,0,0,0,3.759-1.368l-.684-1.879A2,2,0,0,0,171.287,121.32ZM146.15,58.105a2,2,0,1,0,3.759-1.368l-.684-1.879a2,2,0,0,0-3.759,1.368ZM271,149.311h-2a2,2,0,0,0,0,4h2a2,2,0,0,0,0-4Zm-74,4h2a2,2,0,0,0,0-4h-2a2,2,0,0,0,0,4Zm72.453,8.775-1.88-.684a2,2,0,0,0-1.368,3.759l1.88.684a2,2,0,0,0,1.368-3.759Zm-72.1-24.114a2,2,0,0,0,1.195,2.563l1.88.684a2,2,0,0,0,1.368-3.759l-1.88-.684A2,2,0,0,0,197.352,137.972Zm63.706,38.654a2,2,0,1,0,2.571-3.064l-1.532-1.286a2,2,0,1,0-2.571,3.064ZM205.9,130.345a2,2,0,1,0,2.571-3.064L206.942,126a2,2,0,1,0-2.571,3.065Zm47.329,50.276a2,2,0,0,0-3.464,2l1,1.733a2,2,0,0,0,3.464-2ZM214.768,122a2,2,0,1,0,3.464-2l-1-1.732a2,2,0,0,0-3.464,2Zm27.279,63.432a2,2,0,1,0-3.939.694l.347,1.97a2,2,0,0,0,3.94-.695Zm-16.094-68.243a2,2,0,1,0,3.939-.694l-.347-1.97a2,2,0,0,0-3.94.695Zm1.275,72.529a2,2,0,0,0,2.317-1.622l.347-1.97a2,2,0,1,0-3.939-.694l-.348,1.969A2,2,0,0,0,227.228,189.718Zm12.5-70.906a2,2,0,0,0,2.317-1.623l.348-1.969a2,2,0,0,0-3.94-.695l-.347,1.97A2,2,0,0,0,239.73,118.812ZM214.5,185.085a2,2,0,0,0,2.732-.731l1-1.733a2,2,0,1,0-3.464-2l-1,1.733A2,2,0,0,0,214.5,185.085Zm36-62.353a2,2,0,0,0,2.732-.732l1-1.732a2,2,0,1,0-3.464-2l-1,1.732A2,2,0,0,0,250.5,122.732Zm-43.558,53.894,1.532-1.286a2,2,0,1,0-2.571-3.064l-1.532,1.286a2,2,0,1,0,2.571,3.064ZM262.1,130.345l1.532-1.285A2,2,0,0,0,261.058,126l-1.532,1.286a2,2,0,1,0,2.571,3.064Zm-62.182,35.5,1.88-.684a2,2,0,0,0-1.368-3.759l-1.88.684a2,2,0,0,0,1.368,3.759Zm67.658-24.626,1.88-.684a2,2,0,0,0-1.368-3.759l-1.88.684a2,2,0,0,0,1.368,3.759Zm-91.4,87.064.148-.285a2,2,0,0,0-3.551-1.842l-.147.283a13.976,13.976,0,0,1-12.614,7.667h-.151a13.98,13.98,0,0,1-12.611-7.915,2,2,0,0,0-3.585,1.774,18.143,18.143,0,0,0,16.156,10.141H160A18.144,18.144,0,0,0,176.173,228.283ZM265,263a2,2,0,0,1-2,2H228.965l1.814,3.536a2,2,0,0,1-3.078,2.434c-7.083-6.051-22.088-4.058-30.269,1.695a2,2,0,0,1-1.151.364h-4.562a2,2,0,0,1-1.151-.364c-8.182-5.753-23.185-7.746-30.269-1.695a2,2,0,0,1-3.078-2.434l6.09-11.87a2,2,0,0,1,1.012-.934,33.426,33.426,0,0,1,29.563,2.633,25.392,25.392,0,0,1,3.432-2.179A6.852,6.852,0,0,1,197,254.12v-.289a8.839,8.839,0,0,1,5.843-8.3,31.657,31.657,0,0,0-23.7-26.919,25.219,25.219,0,0,1-36.64-.367,31.574,31.574,0,0,0-24.035,21.348,9.254,9.254,0,0,1,6.58,4.514l2.909,5.039a9.241,9.241,0,0,1-.371,9.854h29.685a2,2,0,0,1,1.249,3.562l-10,8a2,2,0,0,1-1.249.438H96.182a2,2,0,0,1-1.25-3.562L97.98,265H60a2,2,0,0,1,0-4h42.98l1.952-1.562a2,2,0,0,1,1.25-.438h1.748l-1.51-2.616a10.589,10.589,0,0,1,2.23-13.292l-1.868-3.234a2,2,0,0,1,.732-2.731l3.778-2.183a2,2,0,0,1,2.733.732l.974,1.688a35.61,35.61,0,0,1,24.8-22.594,25.27,25.27,0,1,1,42.111.46,35.7,35.7,0,0,1,24.9,29.77h5.362A8.841,8.841,0,0,1,221,253.831v.289c0,.211-.013.418-.032.624.9.293,1.807.614,2.709.988a2,2,0,0,1,1.012.934l2.23,4.346c.028,0,.053-.012.081-.012h36A2,2,0,0,1,265,263ZM111.246,239.59l.771,1.335.315-.182-.771-1.335ZM151.571,263h-25.28l-.073.6a2,2,0,0,1-2.771,1.6l-3.026-1.292a10.461,10.461,0,0,1-3.221.53A10.562,10.562,0,0,1,111.87,263h-4.987l-5,4h44.688Zm-34.56-19.527a5.233,5.233,0,0,0-2.628.7l-2.087,1.205a6.59,6.59,0,0,0-2.412,9l1.593,2.759a6.588,6.588,0,0,0,9,2.411l2.087-1.2a5.273,5.273,0,0,0,1.93-7.2l-2.909-5.039A5.276,5.276,0,0,0,117.011,243.473Zm65.262-42.427A21.273,21.273,0,1,0,161,222.318,21.3,21.3,0,0,0,182.273,201.046ZM201,254.12a2.883,2.883,0,0,0,2.879,2.88h10.242A2.883,2.883,0,0,0,217,254.12v-.289A4.836,4.836,0,0,0,212.169,249h-6.337A4.836,4.836,0,0,0,201,253.831Zm23.282,10.514-2.811-5.479c-.672-.263-1.344-.487-2.016-.7A6.867,6.867,0,0,1,214.121,261H203.879a6.838,6.838,0,0,1-4.258-1.487,21.646,21.646,0,0,0-4.322,2.847,2,2,0,0,1-2.448.117,29.287,29.287,0,0,0-26.324-3.318l-2.809,5.475c8.845-2.934,20.941-.72,28.619,4.395h3.326C203.34,263.914,215.436,261.7,224.282,264.634ZM69.006,146.014v10.03a.288.288,0,0,0,.287.288h5.7a.289.289,0,0,0,.288-.288v-1.651a.289.289,0,0,0-.288-.289H71.385v-8.09a.3.3,0,0,0-.288-.288h-1.8A.287.287,0,0,0,69.006,146.014Zm12.838,5.894-1.032-2.379a.385.385,0,0,0-.315-.191H78.539a.316.316,0,0,0-.3.472l3.288,6.522a.4.4,0,0,0,.3.175h.088a.407.407,0,0,0,.3-.175l3.322-6.522a.316.316,0,0,0-.3-.472H83.47c-.245,0-.367-.018-.472.191l-1.1,2.379Zm7.706,4.575A1.458,1.458,0,0,0,91,155.06,1.475,1.475,0,0,0,89.55,153.6a1.46,1.46,0,0,0-1.425,1.456A1.442,1.442,0,0,0,89.55,156.483Zm6.4-.151h5.856a.3.3,0,0,0,.31-.294v-1.484a.3.3,0,0,0-.31-.31h-1.468V145.55a.307.307,0,0,0-.294-.31h-1.5l-2.382,1.86a.455.455,0,0,0-.1.245v1.027a.307.307,0,0,0,.294.31h1.566v5.562H95.95a.3.3,0,0,0-.31.31v1.484A.3.3,0,0,0,95.95,156.332Zm48.555-61h5.7a.289.289,0,0,0,.288-.288V93.393a.289.289,0,0,0-.288-.289H146.6v-8.09a.3.3,0,0,0-.288-.288h-1.8a.287.287,0,0,0-.287.288v10.03A.288.288,0,0,0,144.505,95.332Zm12.236,0a.4.4,0,0,0,.3.175h.087a.409.409,0,0,0,.3-.175l3.322-6.522a.316.316,0,0,0-.3-.472h-1.766c-.245,0-.368-.018-.473.191l-1.1,2.379h-.052l-1.032-2.379a.385.385,0,0,0-.315-.191H153.75a.316.316,0,0,0-.3.472Zm8.021.151a1.458,1.458,0,0,0,1.454-1.423,1.475,1.475,0,0,0-1.454-1.456,1.46,1.46,0,0,0-1.425,1.456A1.442,1.442,0,0,0,164.762,95.483Zm5.275-.151h6.525a.32.32,0,0,0,.309-.31V93.554a.32.32,0,0,0-.309-.31H173.69c.767-1.076,2.1-2.822,2.626-3.752a4.122,4.122,0,0,0,.637-2.12c0-1.81-1.37-3.3-3.7-3.3a4.689,4.689,0,0,0-3.262,1.6A.3.3,0,0,0,170,86.1l1,1.011a.317.317,0,0,0,.457,0,2.332,2.332,0,0,1,1.582-.816,1.27,1.27,0,0,1,1.436,1.175,2.4,2.4,0,0,1-.425,1.24c-.962,1.468-3.376,4.746-4.322,5.986v.326A.309.309,0,0,0,170.037,95.332Zm47.83,50.871v10.029a.288.288,0,0,0,.288.289h5.7a.288.288,0,0,0,.288-.289v-1.65a.288.288,0,0,0-.288-.289h-3.606V146.2a.3.3,0,0,0-.288-.289h-1.8A.288.288,0,0,0,217.867,146.2Zm11.491,3.324H227.4a.315.315,0,0,0-.3.471l3.287,6.523a.406.406,0,0,0,.3.174h.087a.4.4,0,0,0,.3-.174L234.4,150a.316.316,0,0,0-.3-.471h-1.766c-.245,0-.367-.017-.472.192l-1.1,2.379h-.052l-1.032-2.379A.38.38,0,0,0,229.358,149.527Zm9.053,7.145a1.459,1.459,0,0,0,1.455-1.424,1.476,1.476,0,0,0-1.455-1.455,1.459,1.459,0,0,0-1.424,1.455A1.442,1.442,0,0,0,238.411,156.672Zm8.521.012c2.251,0,3.8-1.338,3.8-3.116a3.251,3.251,0,0,0-1.974-2.74v-.049a2.937,2.937,0,0,0,1.68-2.527c0-1.828-1.631-2.986-3.523-2.986A4.8,4.8,0,0,0,243.8,146.7a.291.291,0,0,0,0,.424l.995.979a.31.31,0,0,0,.441-.016,1.855,1.855,0,0,1,1.419-.652,1.261,1.261,0,0,1,1.305,1.222c0,.7-.6,1.256-1.746,1.256H245.3a.31.31,0,0,0-.31.311v1.353a.321.321,0,0,0,.31.311h.913c1.207,0,1.941.6,1.941,1.32a1.423,1.423,0,0,1-1.419,1.307,3.916,3.916,0,0,1-1.794-.752.3.3,0,0,0-.408.033l-1.027,1.027a.322.322,0,0,0-.017.408A4.232,4.232,0,0,0,246.932,156.684Zm-69.382,41.31a2,2,0,0,0-2.74.7c-1.1,1.849-4.661,6.453-8.612,7.051l-6.528-7.357a2,2,0,0,0-3.253.371c-1.07,1.961-4.633,7.051-8.219,7.051a2,2,0,1,0,0,4c4.627,0,8.293-4.049,10.241-6.783l5.421,6.11a2.005,2.005,0,0,0,1.5.673c7.44,0,12.676-8.706,12.9-9.077A2,2,0,0,0,177.55,197.994Z"/>
  </g>
</svg>
