<svg xmlns="http://www.w3.org/2000/svg" xmlns:xlink="http://www.w3.org/1999/xlink" width="320" height="320" viewBox="0 0 320 320">
  <defs>
    <style>
      .cls-1 {
        fill: url(#名称未設定グラデーション_10);
      }
    </style>
    <linearGradient id="名称未設定グラデーション_10" data-name="名称未設定グラデーション 10" x1="196.09" y1="290.786" x2="84.881" y2="98.167" gradientUnits="userSpaceOnUse">
      <stop offset="0" stop-color="#5674af"/>
      <stop offset="0.159" stop-color="#4f7db4"/>
      <stop offset="0.33" stop-color="#438dbc"/>
      <stop offset="0.66" stop-color="#339fb9"/>
      <stop offset="0.994" stop-color="#24b1b4"/>
    </linearGradient>
  </defs>
  <title>engineer02</title>
  <g id="engineer02">
    <path class="cls-1" d="M193.43,222.7h-2a.265.265,0,0,1-.266-.266v-1.527a.265.265,0,0,1,.266-.266h6.219a.266.266,0,0,1,.266.266v1.527a.266.266,0,0,1-.266.266h-2v7.48a.275.275,0,0,1-.266.266H193.7a.275.275,0,0,1-.266-.266Zm8.959-1.793a.275.275,0,0,1,.266-.266h1.681a.275.275,0,0,1,.266.266v9.273a.275.275,0,0,1-.266.266h-1.681a.275.275,0,0,1-.266-.266Zm11.482-.406a4.7,4.7,0,0,1,3.39,1.3.26.26,0,0,1,.014.392l-1.092,1.134a.245.245,0,0,1-.351,0,2.863,2.863,0,0,0-1.891-.714,2.867,2.867,0,0,0,.014,5.729,2.961,2.961,0,0,0,1.877-.672.278.278,0,0,1,.364.013l1.093,1.164a.279.279,0,0,1-.014.377,4.8,4.8,0,0,1-3.4,1.359,5.043,5.043,0,1,1,0-10.085Zm7.319.476a.333.333,0,0,1,.337-.336h1.639a.341.341,0,0,1,.336.336v3.684l3.109-3.88a.416.416,0,0,1,.266-.14h1.766a.324.324,0,0,1,.252.518l-3.278,4.1,3.572,4.65a.329.329,0,0,1-.266.519H226.99a.388.388,0,0,1-.253-.1l-3.235-4.4v4.175a.341.341,0,0,1-.336.336h-1.639a.333.333,0,0,1-.337-.336Zm11.663-.07a.266.266,0,0,1,.266-.266h5.8a.266.266,0,0,1,.266.266v1.527a.266.266,0,0,1-.266.266h-3.88v1.737h3.193a.276.276,0,0,1,.267.266v1.527a.266.266,0,0,1-.267.266h-3.193v1.891h3.88a.266.266,0,0,1,.266.266v1.527a.266.266,0,0,1-.266.266h-5.8a.266.266,0,0,1-.266-.266Zm11.7,1.793h-2a.266.266,0,0,1-.266-.266v-1.527a.266.266,0,0,1,.266-.266h6.219a.266.266,0,0,1,.267.266v1.527a.266.266,0,0,1-.267.266h-2v7.48a.276.276,0,0,1-.267.266h-1.681a.275.275,0,0,1-.266-.266ZM92.738,174.64a2,2,0,0,0,2.725.756l7.922-4.479a2,2,0,0,0-1.969-3.482L97.764,169.5A59.7,59.7,0,0,1,120,136.683v-4.93a63.978,63.978,0,0,0-26.12,36.779l-2.139-3.783a2,2,0,1,0-3.482,1.969Zm47.444,29.574A32.156,32.156,0,0,0,136,201.647v-4.724a2,2,0,0,0-.837-1.627c-11.29-8.073-29.437-8.329-41.163-.768-11.726-7.562-29.873-7.306-41.163.768A2,2,0,0,0,52,196.923v4.725a32.04,32.04,0,0,0-4.182,2.566A2,2,0,0,0,47,205.827v43.184A4.006,4.006,0,0,0,50.991,253a3.99,3.99,0,0,0,1.978-.53c10.765-6.141,25.878-6.19,36.754-.121a1.99,1.99,0,0,0,.974.253H97.3a1.99,1.99,0,0,0,.974-.253c10.876-6.069,25.99-6.02,36.754.12A3.991,3.991,0,0,0,141,249.011V205.827A2,2,0,0,0,140.182,204.214ZM56,197.977c10.43-6.842,26.7-6.651,36.8.573a2.152,2.152,0,0,0,2.392,0c10.1-7.224,26.374-7.416,36.8-.573V238.4c-11.478-6.236-27.252-5.753-38,1.205a37.133,37.133,0,0,0-20.016-5.57A37.952,37.952,0,0,0,56,238.4Zm40.791,50.628H91.209c-12-6.461-28.456-6.32-40.209.406V206.863c.325-.22.664-.423,1-.628v33.909a2.992,2.992,0,0,0,4.563,2.551c10.5-6.5,26.418-6.091,36.241.932a2.211,2.211,0,0,0,1.229.373,2,2,0,0,0,1.163-.373c9.822-7.023,25.741-7.43,36.241-.932A2.992,2.992,0,0,0,136,240.144V206.235c.337.2.676.408,1,.628L137.014,249C125.246,242.285,108.79,242.146,96.791,248.605ZM65.927,206.772c4.495-2.353,12.089-2.353,16.584,0a2,2,0,0,0,1.855-3.544c-5.69-2.977-14.6-2.977-20.293,0a2,2,0,1,0,1.854,3.544Zm36.876,20.06c5.528-2.426,14.866-2.426,20.394,0a2,2,0,1,0,1.606-3.664c-6.618-2.9-16.988-2.9-23.606,0a2,2,0,1,0,1.606,3.664Zm-1.854-8.13a2,2,0,0,0,1.947.086c5.477-2.746,14.731-2.746,20.208,0A2,2,0,0,0,126,217V203.286a2,2,0,0,0-1.1-1.788c-6.67-3.344-17.122-3.344-23.792,0a2,2,0,0,0-1.1,1.788V217A2,2,0,0,0,100.949,218.7ZM104,204.577a26.717,26.717,0,0,1,18,0v9.461a31.027,31.027,0,0,0-18,0ZM65.927,216.772c4.495-2.353,12.089-2.353,16.584,0a2,2,0,0,0,1.855-3.544c-5.69-2.977-14.6-2.977-20.293,0a2,2,0,1,0,1.854,3.544Zm16.584,10a2,2,0,0,0,1.855-3.544c-5.69-2.977-14.6-2.977-20.293,0a2,2,0,1,0,1.854,3.544C70.422,224.419,78.016,224.419,82.511,226.772ZM222.32,170.706l-3.765-2.22a2,2,0,1,0-2.031,3.446l7.84,4.621a2,2,0,0,0,2.739-.707l4.62-7.84a2,2,0,0,0-3.446-2.031l-2.118,3.593A63.88,63.88,0,0,0,200,131.9v4.936A59.631,59.631,0,0,1,222.32,170.706Zm-88.384-88.23a2,2,0,0,0,3.29-2.276l-5.009-7.241a2,2,0,0,0-3.29,2.275ZM160,75.207a2,2,0,0,0,2-2V65a2,2,0,0,0-4,0v8.2A2,2,0,0,0,160,75.207Zm23.282,7.775a2,2,0,0,0,2.782-.506l5.009-7.242a2,2,0,0,0-3.29-2.275L182.774,80.2A2,2,0,0,0,183.282,82.982Zm3.7,62.381c.268-.218.527-.443.782-.673a18.942,18.942,0,0,0,4.247-5.5q.222-.436.417-.882a16.835,16.835,0,0,0,1.138-3.726c.058-.321.107-.642.146-.966a16.621,16.621,0,0,0,.118-1.969v-.222c0-.4-.013-.784-.037-1.171a18.206,18.206,0,0,0-1.672-6.559q-.236-.505-.5-.991a18.193,18.193,0,0,0-3.894-4.9v-5.021c0-11.02-7.434-19.192-18.684-21.329a5.711,5.711,0,0,0-8.834-5.491A5.633,5.633,0,0,0,157.065,85a5.751,5.751,0,0,0-5.72,5.769,5.689,5.689,0,0,0,.036.615c-11.457,2.026-19.053,10.257-19.053,21.4v4.945a18.2,18.2,0,0,0-6.157,13.7v.222a15.964,15.964,0,0,0,1.69,7.114,18.638,18.638,0,0,0,3.537,4.905,21.524,21.524,0,0,0,2.414,2.086,24.23,24.23,0,0,0,4.357,2.565A31.371,31.371,0,0,0,151.335,151h18.426c.864,0,1.727-.033,2.564-.1a29.851,29.851,0,0,0,5.955-1.064c.371-.108.738-.221,1.1-.342A23.927,23.927,0,0,0,186.981,145.363ZM163.364,89a1.747,1.747,0,0,1,1.72,1.769,1.794,1.794,0,0,1-.019.194c-.672-.041-1.351-.067-2.044-.067h-1.365c0-.043-.012-.084-.012-.127A1.746,1.746,0,0,1,163.364,89Zm-6.3,0a1.669,1.669,0,0,1,.8.21,5.811,5.811,0,0,0-.217,1.559c0,.043.008.084.009.127h-.62c-.565,0-1.12.018-1.671.045a1.669,1.669,0,0,1-.017-.172A1.746,1.746,0,0,1,157.065,89Zm-20.737,23.781c0-10.7,8.32-17.885,20.7-17.885h5.988c12.385,0,20.706,7.187,20.706,17.885V115a13.7,13.7,0,0,1-3.33-2.05c-.183-9.337-6.971-14.9-18.238-14.9H157.9c-11.256,0-18.042,5.549-18.237,14.895a13.724,13.724,0,0,1-3.33,2.051Zm41.78,32.921c-.31.1-.626.2-.941.293a25.792,25.792,0,0,1-5.153.918c-.735.058-1.493.087-2.253.087H151.335a27.437,27.437,0,0,1-11.5-2.32,20.353,20.353,0,0,1-3.637-2.14,17.659,17.659,0,0,1-1.965-1.7,14.672,14.672,0,0,1-2.785-3.854,12,12,0,0,1-1.278-5.345v-.222a14.419,14.419,0,0,1,7.837-12.77c.1-.048.182-.11.274-.163,2.357-1.171,4.848-2.526,5.325-4.7a2.254,2.254,0,0,0,.046-.456c0-9.82,8.923-11.286,14.242-11.286h4.264c5.319,0,14.242,1.466,14.242,11.313a2.057,2.057,0,0,0,.046.429c.453,2.061,2.717,3.388,4.96,4.517a5.839,5.839,0,0,0,.626.373,14.391,14.391,0,0,1,6.071,5.927q.207.381.391.775A14.2,14.2,0,0,1,189.8,130.5h0c.019.3.029.609.029.918v.222a12.421,12.421,0,0,1-.09,1.492c-.029.246-.066.491-.11.731a12.792,12.792,0,0,1-.867,2.835c-.1.23-.208.456-.321.68a14.964,14.964,0,0,1-3.359,4.339c-.206.186-.417.368-.635.547A19.942,19.942,0,0,1,178.108,145.7ZM170,121h-5v-5a2,2,0,0,0-2-2h-6a2,2,0,0,0-2,2v5h-5a2,2,0,0,0-2,2v6a2,2,0,0,0,2,2h5v5a2,2,0,0,0,2,2h6a2,2,0,0,0,2-2v-5h5a2,2,0,0,0,2-2v-6A2,2,0,0,0,170,121Zm-2,6h-5a2,2,0,0,0-2,2v5h-2v-5a2,2,0,0,0-2-2h-5v-2h5a2,2,0,0,0,2-2v-5h2v5a2,2,0,0,0,2,2h5Zm104.414,78.586-10-10A2,2,0,0,0,261,195H191a2,2,0,0,0-2,2v8h-8a2,2,0,0,0-2,2v44a2,2,0,0,0,2,2h80a2,2,0,0,0,2-2v-8h8a2,2,0,0,0,2-2V207A2,2,0,0,0,272.414,205.586ZM259,249H183V209h67.171L259,217.828Zm10-10h-6V217a2,2,0,0,0-.586-1.414l-10-10A2,2,0,0,0,251,205H193v-6h67.171L269,207.828Zm-33,0H204a1.5,1.5,0,0,0,0,3h32a1.5,1.5,0,0,0,0-3Z"/>
  </g>
</svg>
