<?xml version="1.0" encoding="utf-8"?>
<!-- Generator: Adobe Illustrator 22.1.0, SVG Export Plug-In . SVG Version: 6.00 Build 0)  -->
<svg version="1.1" id="event.svg" xmlns="http://www.w3.org/2000/svg" xmlns:xlink="http://www.w3.org/1999/xlink" x="0px" y="0px"
	 viewBox="0 0 109 60" style="enable-background:new 0 0 109 60;" xml:space="preserve">
<style type="text/css">
	.st0{fill:url(#シェイプ_1_1_);}
	.st1{fill:url(#E_1_);}
	.st2{fill:#FFFFFF;}
</style>
<linearGradient id="シェイプ_1_1_" gradientUnits="userSpaceOnUse" x1="0" y1="30" x2="60" y2="30">
	<stop  offset="0" style="stop-color:#5674AF"/>
	<stop  offset="0.3328" style="stop-color:#438DBC"/>
	<stop  offset="0.6764" style="stop-color:#339FB9"/>
	<stop  offset="1" style="stop-color:#24B1B4"/>
</linearGradient>
<path id="シェイプ_1" class="st0" d="M56,44v2.7L42.8,56H4V13.3L17.2,4H56v21h4V0H16L0,11.2V60h44l16-11.2V44H56z"/>
<linearGradient id="E_1_" gradientUnits="userSpaceOnUse" x1="38.8374" y1="36.4257" x2="24.878" y2="22.4663">
	<stop  offset="0" style="stop-color:#5674AF"/>
	<stop  offset="0.3328" style="stop-color:#438DBC"/>
	<stop  offset="0.6764" style="stop-color:#339FB9"/>
	<stop  offset="1" style="stop-color:#24B1B4"/>
</linearGradient>
<path id="E" class="st1" d="M31.2,20.4c-3.8,5.8-7,12-9.7,18.4c-0.4,0.7-0.4,1.6,0,2.4c0.2,0.5,0.5,1.1,0.9,1.6
	c0.4,0.6,1.2,0.7,1.8,0.4c2.4-0.6,6.9-1.7,9.3-1.7c0.5,0,0.5-0.3,0.4-0.6c-0.5-1.3-1.5-1.9-3.6-1.8c-2.2,0.2-4.4,0.6-6.5,1.3
	c0.9-2,2-4.3,3.2-6.6c2.5-0.7,5.1-1.1,7.8-1.2c0.5,0,0.5-0.3,0.4-0.6c-0.4-1.3-1.3-2-3.4-1.9c-1,0-2,0.2-3,0.3
	c2.1-3.7,4.1-7.4,5.8-9.9c2.8-0.6,5.7-1,8.5-1.1c0.5,0.1,0.6-0.2,0.5-0.5c-0.4-1.4-1.8-2.3-3.2-2.1c-2.4,0-7,1.3-10.5,1.1
	c-0.4,0-0.5,0.1-0.5,0.5C29.6,19.2,30.3,20,31.2,20.4z"/>
<path id="vent_info" class="st2" d="M40.7,40.8c0.3-2,0.7-3.9,1.2-5.8c0.3-1.5,0.2-2.4-0.6-3c-0.2-0.2-0.4-0.1-0.5,0.2
	c-0.8,2.5-1.3,5-1.6,7.6c-0.2,0.9,0.3,1.9,1.2,2.2c0.2,0.1,0.4,0,0.5-0.2c1.7-2.6,3.6-5.1,5.7-7.5c0.6-0.5,0.9-1.3,1-2.1
	c0-0.3-0.2-0.4-0.5-0.1C44.8,34.8,42.6,37.7,40.7,40.8z M49.2,37.4c1.7,1.4,3.3,0.7,4.5-0.7c1-1.2,1.2-2.7,0.8-3.3
	c-0.4-0.5-0.9-0.9-1.4-1.2c-1.2-0.7-3.6,0.6-5.2,3.6s-0.5,6.1,2.5,6c1.9-0.1,3.6-1,4.7-2.6c0.3-0.4,0.5-1,0.4-1.5
	c0-0.1-0.1-0.2-0.3-0.2c-0.1,0-0.1,0.1-0.2,0.1c-1,1.6-2.8,3.5-4.8,3.4C49,41.1,48.4,39.6,49.2,37.4z M49.4,36.8
	c0-0.1,0.1-0.3,0.2-0.4c1.1-2.3,3.1-3.7,3.6-3.3c0.3,0.3-0.2,1.5-1,2.5C51.6,36.5,50.6,37.6,49.4,36.8z M59.8,34.4
	c0.3-0.7,0.3-1.6-0.1-2.3c-0.1-0.2-0.3-0.3-0.5,0c-1.5,2.2-2.8,4.6-3.8,7.1c-0.4,1.2-0.2,2,0.2,2.5c0.2,0.2,0.4,0.1,0.5-0.1
	c0.9-2.2,2-4.3,3.5-6.1c1.5-1.7,2.9-2.4,3.2-2.3c0.4,0.2-1.7,2.7-2.5,5.1c-0.7,2.1-0.2,3.6,1.8,3.6c1.6-0.2,2.9-1.2,3.6-2.6
	c0.3-0.4,0.4-1,0.2-1.5c-0.1-0.2-0.3-0.2-0.4,0c-0.9,1.7-2.1,3.3-3.1,3.3c-0.9,0-1-1.1-0.4-2.5c0.6-1.2,1.7-3,2.2-4.1
	c0.5-0.8,0.2-1.9-0.6-2.4c-0.1-0.1-0.2-0.1-0.3-0.2C62.5,31.9,60.9,33.3,59.8,34.4L59.8,34.4z M68.9,32.1c-1,1.9-2,3.9-2.5,5.1
	c-1.2,2.8,0.1,4.5,1.7,4.6c1.9,0.1,3.5-2,3.8-2.7c0.2-0.4,0.3-0.9,0.2-1.4c-0.1-0.3-0.4-0.3-0.5,0c-0.9,1.8-2.3,3.5-3.3,3.5
	c-1,0-1.3-1.5-0.5-3.3c0.9-2,2.3-4.3,3.2-6c0.6-0.1,1.2-0.1,1.9-0.1c0.4,0,0.5-0.2,0.3-0.5c-0.3-0.5-0.9-0.8-1.5-0.7
	c0.5-0.8,0.6-1.8,0.3-2.7c-0.1-0.3-0.4-0.3-0.6,0c-0.7,1-1.3,2-1.8,3C69,31,68.3,31,67.6,31c-0.4,0-0.5,0.1-0.3,0.5
	C67.8,31.9,68.3,32.2,68.9,32.1z M83.4,30.5c-0.1-0.5-0.6-0.8-1.1-0.7c-0.1,0-0.2,0.1-0.3,0.1c-0.4,0.5-0.5,1.2-0.1,1.8
	c0.2,0.4,0.7,0.7,1.1,0.5c0.1,0,0.2-0.1,0.2-0.1C83.6,31.6,83.7,31,83.4,30.5L83.4,30.5z M79.5,41.8c1.6-0.1,2.9-1.1,3.6-2.5
	c0.3-0.4,0.3-1,0.2-1.5c-0.1-0.2-0.3-0.2-0.4,0c-0.7,1.7-2,3.2-3.1,3.3c-0.8,0-0.8-0.9-0.2-2.3c0.5-1.2,1.5-2.8,2-3.9
	c0.5-0.8,0.5-1.8,0-2.6c-0.2-0.2-0.4-0.1-0.6,0.1c-1.2,1.8-2.3,3.8-3.1,5.8C77.2,40.3,77.7,41.8,79.5,41.8z M87.6,34.4
	c0.3-0.7,0.3-1.6-0.1-2.3c-0.1-0.2-0.3-0.3-0.5,0c-1.5,2.2-2.8,4.6-3.8,7.1c-0.4,1.2-0.2,2,0.2,2.5c0.2,0.2,0.4,0.1,0.5-0.1
	c0.9-2.2,2-4.3,3.5-6.1c1.5-1.7,2.9-2.4,3.2-2.3c0.4,0.2-1.7,2.7-2.5,5.1c-0.7,2.1-0.2,3.6,1.8,3.6c1.6-0.2,2.9-1.2,3.6-2.6
	c0.3-0.4,0.4-1,0.2-1.5c-0.1-0.2-0.3-0.2-0.4,0c-0.9,1.7-2.1,3.3-3.1,3.3c-0.9,0-1-1.1-0.4-2.5c0.6-1.2,1.7-3,2.2-4.1
	c0.5-0.8,0.2-1.9-0.6-2.4c-0.1-0.1-0.2-0.1-0.3-0.2C90.4,31.9,88.7,33.3,87.6,34.4L87.6,34.4z M96.3,37.1c1.3-2.5,3-5.2,3.9-6.9
	c1-1.8,1.1-2.8,0.8-3.6c-0.1-0.3-0.4-0.3-0.6,0c-2.7,4-8.2,13.2-8.9,18.5c-0.3,2,0.5,3,1.1,3.5c0.7,0.6,1.3,0.5,2.1-0.5
	c1.4-1.9,2.2-4.2,2.6-6.5c1.2-0.5,2.2-1.4,2.9-2.5c0.2-0.4,0.3-0.9,0.2-1.4c-0.1-0.3-0.4-0.3-0.5,0c-0.6,1.2-1.4,2.2-2.5,3
	c0-0.3,0-0.6,0-0.8C97.6,38.3,97.2,37.3,96.3,37.1L96.3,37.1z M96.2,41c-0.5-0.2-0.8-0.8-0.6-1.4c0-0.7,0.2-1.3,0.5-1.9
	c0.2-0.1,0.4,0.7,0.4,1.6C96.4,39.9,96.3,40.5,96.2,41L96.2,41z M94.6,40.8c0.3,0.6,0.8,0.9,1.5,1c-0.8,3.3-2.6,6.6-3.1,5.9
	C92.4,46.9,93.2,44,94.6,40.8L94.6,40.8z M108.9,36.3c0.1-0.1,0.1-0.2-0.1-0.2c-0.2,0-0.3,0-0.5,0c0-0.2,0-0.4,0-0.6
	c0.1-1.7-0.6-1.9-1.1-2.6c-0.3-0.6-1-0.9-1.6-0.8c-1.4,0.1-2.9,1.5-3.8,3.1c-1.1,1.9-1.4,4-0.4,5.4c0.7,1,1.9,1.4,3,1.1
	c1.8-0.6,3.3-3,3.8-5.1C108.5,36.6,108.8,36.5,108.9,36.3L108.9,36.3z M106.9,35.7c-0.4-0.5-0.6-1.1-0.5-1.7
	c0.1-0.7,0.6-0.8,0.7-0.1C107.1,34.5,107,35.1,106.9,35.7L106.9,35.7z M106.7,36.3c-0.2,0.7-0.5,1.3-0.8,1.9c-1.2,2.2-2.6,3-3.3,2.5
	c-0.6-0.5-0.3-2.7,0.7-4.6c0.5-0.9,1.1-1.6,1.8-2.3c0.1,0.8,0.5,1.6,1.1,2.1C106.4,36.1,106.5,36.2,106.7,36.3L106.7,36.3z"/>
</svg>
