<?xml version="1.0" encoding="utf-8"?>
<!-- Generator: Adobe Illustrator 22.1.0, SVG Export Plug-In . SVG Version: 6.00 Build 0)  -->
<svg version="1.1" id="inter.svg" xmlns="http://www.w3.org/2000/svg" xmlns:xlink="http://www.w3.org/1999/xlink" x="0px" y="0px"
	 viewBox="0 0 65.4 77.2" style="enable-background:new 0 0 65.4 77.2;" xml:space="preserve">
<style type="text/css">
	.st0{fill:url(#シェイプ_3_1_);}
	.st1{fill:#FFFFFF;}
</style>
<linearGradient id="シェイプ_3_1_" gradientUnits="userSpaceOnUse" x1="54.9355" y1="46.4925" x2="10.9405" y2="2.4975">
	<stop  offset="0" style="stop-color:#5674AF"/>
	<stop  offset="0.3328" style="stop-color:#438DBC"/>
	<stop  offset="0.6764" style="stop-color:#339FB9"/>
	<stop  offset="1" style="stop-color:#24B1B4"/>
</linearGradient>
<path id="シェイプ_3" class="st0" d="M21.7,24.6l2.3-1.4l-1.9-2c-1.7-1.7-1.6-4.5,0.1-6.2c1.7-1.7,4.5-1.6,6.2,0.1
	c1.6,1.7,1.6,4.4,0,6.1l-1.8,1.9l2.3,1.4c1.3,0.8,2.3,1.9,3.1,3.1h2.5c-1-2-2.5-3.8-4.4-5c2.5-2.6,2.4-6.7-0.2-9.2s-6.7-2.4-9.2,0.2
	c-2.4,2.5-2.4,6.5,0,9.1c-1.9,1.2-3.5,2.9-4.5,5h2.5C19.3,26.4,20.4,25.3,21.7,24.6z M45.4,17h-10v-3h10V17z M49.4,22h-14v-3h14V22z
	 M50.4,32h-35v-2h35V32z M50.4,36h-35v-2h35V36z M34,2.1c-1.1,0-2,0.9-2,2.1c0,0,0,0,0,0c0,0.3,0.1,0.6,0.1,0.9h3.8
	C36,4.7,36,4.4,36,4.1C36,3,35.1,2.1,34,2.1C34,2.1,34,2.1,34,2.1z M39,5c0-2.8-2.4-5-5.2-5c-2.7,0-4.9,2.2-5,5L8.4,5v39h49V5L39,5z
	 M36,5h-4 M53.4,40h-41V9h41V40z"/>
<path id="Internship" class="st1" d="M0.2,70.1C0.1,70.6,0,71,0,71.4c0,0.4,0.1,0.8,0.4,1.1c0.3,0.4,0.5,0.3,0.7-0.1
	c1.4-3.2,3.8-7.3,5.1-9.6c0.5-0.7,0.7-1.6,0.8-2.4c0-0.3-0.1-0.6-0.2-0.8c-0.2-0.4-0.5-0.5-0.9,0C3.7,62.9,1.8,66.5,0.2,70.1z
	 M7.9,64.3c-0.2-0.4-0.5-0.4-0.8,0c-1.3,1.9-2.4,3.9-3.3,6.1c-0.1,0.4-0.2,0.7-0.2,1.1c0,0.4,0.2,0.9,0.5,1.2
	c0.1,0.2,0.4,0.3,0.6,0.1c0.1-0.1,0.2-0.2,0.2-0.3c0.7-1.9,1.7-3.6,3-5.2c0.6-0.8,1.4-1.5,2.4-1.9c-0.1,0.5-0.3,0.9-0.6,1.2
	C8.6,68,8,69.5,7.8,71c-0.1,0.9,0.7,1.8,1.6,1.8c0.1,0,0.3,0,0.4,0c1.4-0.2,2.7-1,3.4-2.3c0.3-0.4,0.3-1,0.1-1.5
	c-0.2-0.3-0.5-0.3-0.7,0.1C11.8,70.6,10.7,72,10,72c-0.3,0-0.4-0.3-0.4-0.7C9.8,70.1,10.3,69,11,68c0.5-0.7,0.9-1.5,1-2.3
	c0.1-0.7-0.5-1.4-1.2-1.5c-1,0.2-2,0.7-2.7,1.5c0-0.1,0-0.3,0-0.4C8.2,64.9,8.1,64.6,7.9,64.3L7.9,64.3z M12.3,70.4
	c-0.1,1.2,0.8,2.2,2,2.3c0,0,0.1,0,0.1,0c1.8,0,3.2-1.8,3.5-2.4c0.2-0.4,0.3-0.8,0.2-1.2c-0.1-0.6-0.6-0.5-0.9,0
	c-0.7,1.6-1.8,2.9-2.6,2.9c-0.4,0-0.6-0.4-0.6-1.1c0-0.5,0.1-1.1,0.4-1.6c0.7-1.6,1.9-3.7,2.7-5c0.5-0.1,0.9-0.1,1.4-0.1
	c0.5,0.1,0.7-0.2,0.4-0.6c-0.3-0.4-0.7-0.6-1.2-0.7c0.2-0.5,0.3-0.9,0.3-1.4c0-0.3-0.1-0.6-0.2-0.9c-0.2-0.4-0.5-0.4-0.8,0
	c-0.5,0.7-0.9,1.4-1.6,2.5c-0.5,0-1,0.1-1.5,0c-0.5,0-0.7,0.2-0.4,0.6c0.3,0.4,0.7,0.6,1.2,0.6c-0.8,1.4-1.4,2.8-2.1,4.2
	C12.5,69.2,12.3,69.8,12.3,70.4L12.3,70.4z M21.7,65.3c0.2,0.2-0.2,1.2-0.8,2c-0.4,0.6-0.9,1-1.6,1.2c-0.2,0-0.3-0.1-0.5-0.1
	C19.8,66.3,21.4,65.1,21.7,65.3L21.7,65.3z M23.3,66.1c0-0.3-0.1-0.5-0.2-0.8c-0.3-0.5-0.8-0.8-1.3-1.1c-0.2-0.1-0.5-0.2-0.7-0.2
	c-1.2,0-2.9,1.1-4,3.3c-0.4,0.7-0.6,1.6-0.7,2.4c-0.1,1.5,1.1,2.8,2.6,2.9c0.1,0,0.3,0,0.4,0c1.7-0.1,3.2-0.9,4.2-2.3
	c0.3-0.4,0.4-0.9,0.3-1.4c-0.2-0.4-0.4-0.4-0.7,0C22.4,70.4,21,72,19.4,72c-0.6,0-1-0.6-1-1.6c0-0.4,0.1-0.8,0.2-1.2
	c0.4,0.3,1,0.5,1.5,0.5C21.9,69.6,23.3,67.4,23.3,66.1L23.3,66.1z M26.9,63.3c-0.7,0-2,1.5-2,2.6c0,0.3,0.2,0.6,0.4,0.8
	c-1,1.2-1.8,2.5-2.6,3.8c-0.3,0.5-0.4,1-0.4,1.5c0,0.5,0.2,0.9,0.5,1.2c0.4,0.4,0.7,0.2,0.7-0.2c0.3-1.4,1.5-3.4,3.1-6.1
	c0.5,0,1-0.1,1.5-0.3c-1,1.3-2.2,2.9-2.2,4.2c-0.1,1,0.7,2,1.7,2c0.1,0,0.2,0,0.2,0c1.3-0.1,2.4-0.9,2.9-2.1
	c0.2-0.4,0.2-0.9,0.1-1.4c-0.2-0.4-0.5-0.4-0.7,0c-0.7,1.4-1.5,2.6-2.2,2.6c-0.3,0-0.5-0.3-0.5-0.9c0-1.2,1.2-2.9,2.3-4.2
	c0.2-0.2,0.3-0.5,0.3-0.8c0-0.5-0.3-1-0.6-1.3c-0.3-0.3-0.5-0.2-0.8,0c-0.5,0.4-1.1,0.7-1.7,0.9c0.2-0.5,0.3-1.1,0.4-1.7
	c0.1-0.3-0.1-0.7-0.5-0.7C27.1,63.3,27,63.3,26.9,63.3L26.9,63.3z M33.9,64.3c-0.2-0.4-0.5-0.4-0.8,0c-1.3,1.9-2.4,3.9-3.3,6.1
	c-0.1,0.4-0.2,0.7-0.2,1.1c0,0.4,0.2,0.9,0.5,1.2c0.1,0.2,0.4,0.3,0.6,0.1c0.1-0.1,0.2-0.2,0.2-0.3c0.7-1.9,1.7-3.6,3-5.2
	c0.6-0.8,1.4-1.5,2.4-1.9c-0.1,0.5-0.3,0.9-0.6,1.2C34.6,68,34,69.5,33.8,71c-0.1,0.9,0.7,1.8,1.6,1.8c0.1,0,0.3,0,0.4,0
	c1.4-0.2,2.7-1,3.4-2.3c0.3-0.4,0.3-1,0.1-1.5c-0.2-0.3-0.5-0.3-0.7,0.1C37.8,70.6,36.7,72,36,72c-0.3,0-0.4-0.3-0.4-0.7
	c0.2-1.2,0.7-2.3,1.4-3.2c0.5-0.7,0.9-1.5,1-2.3c0.1-0.7-0.5-1.4-1.2-1.5c-1,0.2-2,0.7-2.7,1.5c0-0.1,0-0.3,0-0.4
	C34.2,64.9,34.1,64.6,33.9,64.3L33.9,64.3z M40.9,71.8c-0.5,0-0.9-0.7-1.2-1.7c0.6-0.9,1.2-1.8,1.7-2.6c0,0.6,0.1,1.2,0.1,1.9
	C41.5,70.8,41.3,71.8,40.9,71.8L40.9,71.8z M38,69.8c0,0.5,0.1,1,0.4,1.4c0.6,1.1,1.9,1.8,3.2,1.6c1.6,0,3.1-0.9,3.8-2.3
	c0.3-0.4,0.4-1,0.2-1.4c-0.1-0.3-0.5-0.5-0.7,0c-0.3,0.9-1,1.8-1.8,2.3c0.2-0.5,0.3-1,0.4-1.6c0-1.1-0.2-2.5-0.2-4
	c0-0.3,0-0.6,0-0.9c0.7-1.1,0.5-1.5,0-1.5c-0.4,0-0.8,0.2-1,0.4c-0.5,0.4-0.8,1-0.8,1.6c-0.5,0.9-1.3,2-2,3
	c-0.1-0.5-0.4-0.6-0.8-0.3C38.2,68.6,38,69.2,38,69.8L38,69.8z M53,70.5c0.2-0.4,0.3-0.9,0.1-1.4c-0.1-0.2-0.2-0.3-0.4-0.2
	c-0.1,0-0.2,0.1-0.2,0.2c-0.6,1.3-1.7,2.8-2.5,2.8c-0.3,0-0.4-0.3-0.4-0.7c0-0.4,0.1-0.8,0.3-1.2c0.2-0.5,0.8-1.4,1.9-3.4
	c0.2-0.3,0.2-0.6,0.2-0.9c0-0.7-0.5-1.4-1.2-1.5c-0.6,0.1-1.3,0.3-1.8,0.7c0.2-0.3,1.5-2.2,1.9-2.9c0.4-0.7,0.7-1.4,0.8-2.2
	c0-0.3-0.1-0.5-0.2-0.8c-0.2-0.4-0.5-0.5-0.8-0.1c-2.6,3.6-4.8,7.4-6.7,11.4c-0.5,1.4-0.2,1.9,0.1,2.3c0.3,0.3,0.6,0.3,0.7-0.1
	c0.6-1.3,1.2-2.6,2-3.9c0.8-1.3,2-2.4,3.3-3.1c-0.1,0.4-0.3,0.9-0.6,1.2c-0.8,1.2-1.8,3.1-1.8,4.4c0,1.1,0.6,1.8,2,1.8
	C51.1,72.7,52.4,71.8,53,70.5L53,70.5z M55.7,63.2c0,0.7,0.6,1.2,1.2,1.3c0.5,0,0.9-0.5,0.8-1c0,0,0,0,0,0c0-0.7-0.5-1.2-1.2-1.4
	C56.1,62.2,55.7,62.7,55.7,63.2L55.7,63.2z M57.2,70.6c0.3-0.4,0.3-1,0.1-1.4c-0.2-0.4-0.5-0.4-0.6,0c-0.7,1.4-1.7,2.8-2.6,2.8
	c-0.2,0-0.3-0.2-0.3-0.5c0-0.4,0.1-0.9,0.3-1.3c0.4-0.8,1.3-2.4,1.7-3.3c0.5-0.7,0.5-1.7,0-2.4c-0.3-0.3-0.5-0.3-0.8,0.1
	c-1.1,1.6-1.9,3.2-2.6,5c-0.2,0.4-0.2,0.9-0.3,1.4c-0.1,0.9,0.6,1.7,1.5,1.8c0.1,0,0.2,0,0.4,0C55.4,72.7,56.6,71.9,57.2,70.6
	L57.2,70.6z M59.6,67.5c0.9-1.5,2.1-2.5,2.4-2.3c0.1,0.2,0.2,0.4,0.1,0.7c-0.1,1-0.3,1.9-0.8,2.8c-0.9,1.7-1.8,2.9-2.5,2.9
	c-0.5,0-0.7-1.5,0-2.9L59.6,67.5z M64,66.5c0.1-1.1-0.7-2.1-1.8-2.2c0,0-0.1,0-0.1,0c-0.6,0-1.2,0.3-1.7,0.6c0-0.3-0.1-0.5-0.2-0.8
	c-0.2-0.2-0.4-0.3-0.8,0.1c-2.1,3.2-3.9,6.7-5.4,10.3c-0.2,0.4-0.2,0.9-0.3,1.4c0,0.4,0.1,0.8,0.4,1.1c0.2,0.2,0.5,0.2,0.6-0.2
	c0.9-2.1,1.8-3.9,2.7-5.6C58,72.4,59,73,60.7,73c1.8,0.1,3.5-0.8,4.5-2.3c0.3-0.4,0.4-0.9,0.3-1.4c-0.1-0.4-0.5-0.5-0.8-0.1
	c-0.6,1.4-1.9,2.5-3.4,2.9c0.8-0.7,1.5-1.6,1.9-2.6C63.6,68.6,63.9,67.5,64,66.5L64,66.5z"/>
</svg>
