<svg xmlns="http://www.w3.org/2000/svg" width="59.6" height="19.35" viewBox="0 0 59.6 19.35"><defs><style>.cls-1{fill:#e14b3b;}</style></defs><title>ico_new</title><g id="レイヤー_2" data-name="レイヤー 2"><g id="レイヤー_1-2" data-name="レイヤー 1"><path class="cls-1" d="M17.36.44c-.18-.33-.45-.42-.69-.06A122.33,122.33,0,0,0,8.93,14.75,99.23,99.23,0,0,1,9.92,4C10.25,1.88,10,1,8.9.23,8.6,0,8.39.05,8.12.5c-2.37,4-6.3,11.1-7.77,15.15C-.25,17.27,0,18.44.5,19c.21.24.42.18.51-.12,1.2-3.6,4.26-9.18,6.51-13A58.7,58.7,0,0,0,7,16c.15,1.92.57,2.64,1.47,3.12.33.18.48.12.6-.18,1.77-4,5.58-11.19,7.35-14.13C17.78,2.54,17.81,1.34,17.36.44Zm5.12,9.39a17.05,17.05,0,0,0-2.13.24C21.82,7.4,23.29,4.79,24.49,3a34,34,0,0,1,6.09-.81c.36.06.42-.15.33-.39A2.07,2.07,0,0,0,28.63.32c-1.68,0-5,.9-7.47.75-.3,0-.39.09-.33.36A2.13,2.13,0,0,0,22.09,3a80.83,80.83,0,0,0-6.9,13.17,1.8,1.8,0,0,0,0,1.71A6.36,6.36,0,0,0,15.79,19c.36.45.69.45,1.26.3a32.12,32.12,0,0,1,6.63-1.2c.36,0,.39-.18.3-.45-.33-.9-1.08-1.38-2.55-1.32a22,22,0,0,0-4.65.93c.63-1.41,1.44-3.06,2.31-4.74a25.92,25.92,0,0,1,5.55-.84c.39,0,.39-.18.3-.45C24.64,10.25,24,9.77,22.48,9.83ZM50.94.53c-.06-.42-.36-.48-.72-.12A129,129,0,0,0,38.73,15.89c1.14-4.35,2.4-8,3.36-10.83.75-2.28.6-3,0-3.9-.24-.36-.54-.27-.75,0a150.7,150.7,0,0,0-10.5,14.61c1.29-4.26,2.76-8.16,3.75-10.86.87-2.31.81-3.39.3-4.26-.21-.36-.51-.33-.75.12a80.72,80.72,0,0,0-5,14.28c-.48,2.07-.24,3.21.81,4.14a.53.53,0,0,0,.9-.15c2.55-4.05,6-8.94,8.73-12.48a79.4,79.4,0,0,0-2.49,8.34C36.66,17,37,18.08,38,19c.39.36.66.21.9-.15,3.63-5.58,8.07-11.1,10.26-14C50.73,2.87,51.12,1.58,50.94.53Zm-.77,15.93A1.82,1.82,0,0,0,50,18.65c.42.69,1.29.87,1.65.42a1.93,1.93,0,0,0,.21-1.92C51.49,16.31,50.62,16,50.17,16.46ZM59.38.32c-.18-.42-.51-.42-.75-.06a73.66,73.66,0,0,0-6.45,12.45c-.66,1.8-.36,2.79.09,3.27.24.24.36.18.51-.12,1.53-3.33,4-8,5.7-11C59.71,2.63,59.77,1.16,59.38.32Z"/></g></g></svg>