<svg xmlns="http://www.w3.org/2000/svg" width="39.4" height="12.9" viewBox="0 0 39.4 12.9"><defs><style>.cls-1{fill:#24b1b4;}</style></defs><title>ico_new_g</title><g id="レイヤー_2" data-name="レイヤー 2"><g id="レイヤー_1-2" data-name="レイヤー 1"><path class="cls-1" d="M11.58.3c-.12-.22-.3-.28-.46,0A81.55,81.55,0,0,0,6,9.84a66.15,66.15,0,0,1,.66-7.2C6.84,1.26,6.68.7,5.94.16,5.74,0,5.6,0,5.42.34A77.87,77.87,0,0,0,.24,10.44a2.23,2.23,0,0,0,.1,2.24c.14.16.28.12.34-.08A57.73,57.73,0,0,1,5,3.9a39.14,39.14,0,0,0-.34,6.76c.1,1.28.38,1.76,1,2.08.22.12.32.08.4-.12C7.24,10,9.78,5.16,11,3.2,11.86,1.7,11.88.9,11.58.3Zm3.08,6.26a11.37,11.37,0,0,0-1.42.16c1-1.78,2-3.52,2.76-4.72a22.65,22.65,0,0,1,4.06-.54c.24,0,.28-.1.22-.26a1.38,1.38,0,0,0-1.52-1,47.9,47.9,0,0,1-5,.5c-.2,0-.26.06-.22.24a1.42,1.42,0,0,0,.84,1,53.89,53.89,0,0,0-4.6,8.78,1.2,1.2,0,0,0,0,1.14,4.24,4.24,0,0,0,.42.74c.24.3.46.3.84.2a21.42,21.42,0,0,1,4.42-.8c.24,0,.26-.12.2-.3-.22-.6-.72-.92-1.7-.88a14.66,14.66,0,0,0-3.1.62c.42-.94,1-2,1.54-3.16a17.28,17.28,0,0,1,3.7-.56c.26,0,.26-.12.2-.3C16.1,6.84,15.66,6.52,14.66,6.56ZM33.3.36c0-.28-.24-.32-.48-.08A86,86,0,0,0,25.16,10.6c.76-2.9,1.6-5.34,2.24-7.22.5-1.52.4-2,0-2.6-.16-.24-.36-.18-.5,0a100.47,100.47,0,0,0-7,9.74c.86-2.84,1.84-5.44,2.5-7.24C23,1.72,22.94,1,22.6.42c-.14-.24-.34-.22-.5.08A53.82,53.82,0,0,0,18.78,10c-.32,1.38-.16,2.14.54,2.76a.36.36,0,0,0,.6-.1c1.7-2.7,4-6,5.82-8.32a52.94,52.94,0,0,0-1.66,5.56c-.3,1.42-.06,2.14.62,2.76.26.24.44.14.6-.1,2.42-3.72,5.38-7.4,6.84-9.32C33.16,1.92,33.42,1.06,33.3.36Zm6-.14c-.12-.28-.34-.28-.5,0a49.11,49.11,0,0,0-4.3,8.3c-.44,1.2-.24,1.86.06,2.18.16.16.24.12.34-.08,1-2.22,2.7-5.36,3.8-7.34C39.48,1.76,39.52.78,39.26.22ZM33.12,11a1.21,1.21,0,0,0-.1,1.46c.28.46.86.58,1.1.28a1.29,1.29,0,0,0,.14-1.28C34,10.88,33.42,10.66,33.12,11Z"/></g></g></svg>