<svg xmlns="http://www.w3.org/2000/svg" xmlns:xlink="http://www.w3.org/1999/xlink" width="60" height="15.65" viewBox="0 0 60 15.65"><defs><style>.cls-1{fill:url(#名称未設定グラデーション_2);}</style><linearGradient id="名称未設定グラデーション_2" x1="41.3" y1="0.16" x2="14.69" y2="15.52" gradientTransform="translate(22.18 37.83) rotate(-90)" gradientUnits="userSpaceOnUse"><stop offset="0" stop-color="#5674af"/><stop offset="0.33" stop-color="#438dbc"/><stop offset="0.68" stop-color="#339fb9"/><stop offset="1" stop-color="#24b1b4"/></linearGradient></defs><title>flow-arrow10</title><g id="レイヤー_2" data-name="レイヤー 2"><g id="レイヤー_1-2" data-name="レイヤー 1"><path class="cls-1" d="M51,15.45a24.4,24.4,0,0,1,7.68-4.63,1,1,0,0,0,.54-.61,1.42,1.42,0,0,0,.67-1.87L54.38.27C54-.3,53.33.15,53.1.59a29.62,29.62,0,0,0-1.56,3.58,32.65,32.65,0,0,0-23-.5l-1,.38a44.13,44.13,0,0,0-27,5.06c-.56.3-.7,2.25-.34,2.05A43.82,43.82,0,0,1,21.47,5.73c.9,0,1.8,0,2.7.1a7.23,7.23,0,0,0-3.05,4.26c-.75,3.27,1.54,5.14,4.76,5,3.4-.18,7.91-2.6,9.29-5.94,1.26-3-1.11-3.73-3.77-4.35A32,32,0,0,1,39,3.88,32.37,32.37,0,0,1,50.89,6.19a28.86,28.86,0,0,0-1.08,8.46C49.82,15.24,50.32,16,51,15.45ZM27,6.12a38,38,0,0,1,4.88,1c.33.09,1.71.28,1.9.6.71,1.2-1.45,2.89-2.19,3.38a10.79,10.79,0,0,1-4.72,1.81,6.31,6.31,0,0,1-2.77-.11c-1.83-.6-1.86-2.82-.94-4.39C23.81,7.34,25.6,6.63,27,6.12ZM57.92,9s0,0,0-.05l0,0ZM53.8,2.83l2.5,3.69A33.47,33.47,0,0,0,53,4.79C53.23,4.13,53.5,3.48,53.8,2.83Zm-2.36,9.89a27.08,27.08,0,0,1,.92-5.9A32.62,32.62,0,0,1,57,9.38,25.6,25.6,0,0,0,51.44,12.72Z"/></g></g></svg>