<svg xmlns="http://www.w3.org/2000/svg" xmlns:xlink="http://www.w3.org/1999/xlink" width="60" height="15.65" viewBox="0 0 60 15.65"><defs><style>.cls-1{fill:url(#名称未設定グラデーション_2);}</style><linearGradient id="名称未設定グラデーション_2" x1="8.3" y1="-32.84" x2="-18.31" y2="-17.48" gradientTransform="matrix(0, 1, 1, 0, 55.18, 10.82)" gradientUnits="userSpaceOnUse"><stop offset="0" stop-color="#5674af"/><stop offset="0.33" stop-color="#438dbc"/><stop offset="0.68" stop-color="#339fb9"/><stop offset="1" stop-color="#24b1b4"/></linearGradient></defs><title>flow-arrow20</title><g id="レイヤー_2" data-name="レイヤー 2"><g id="レイヤー_1-2" data-name="レイヤー 1"><path class="cls-1" d="M49.81,1a28.86,28.86,0,0,0,1.08,8.46A32.37,32.37,0,0,1,39,11.77a32,32,0,0,1-7.61-.89c2.66-.62,5-1.31,3.77-4.35C33.79,3.19,29.28.77,25.88.59c-3.22-.17-5.51,1.7-4.76,5a7.23,7.23,0,0,0,3.05,4.26c-.9.06-1.8.1-2.7.1A43.82,43.82,0,0,1,.2,4.49C-.16,4.29,0,6.24.54,6.54a44.13,44.13,0,0,0,27,5.06l1,.38a32.65,32.65,0,0,0,23-.5,29.62,29.62,0,0,0,1.56,3.58c.23.44.9.89,1.28.32l5.47-8.07a1.42,1.42,0,0,0-.67-1.87,1,1,0,0,0-.54-.61A24.4,24.4,0,0,1,51,.2C50.32-.37,49.82.41,49.81,1ZM23.2,7.25c-.92-1.57-.89-3.79.94-4.39a6.31,6.31,0,0,1,2.77-.11,10.79,10.79,0,0,1,4.72,1.81c.74.49,2.9,2.18,2.19,3.38-.19.32-1.57.51-1.9.6a38,38,0,0,1-4.88,1C25.6,9,23.81,8.31,23.2,7.25ZM58,6.67l0,0s0,0,0,0Zm-5,4.19a33.47,33.47,0,0,0,3.3-1.73l-2.5,3.69C53.5,12.17,53.23,11.52,53,10.86Zm4-4.59a32.62,32.62,0,0,1-4.62,2.56,27.08,27.08,0,0,1-.92-5.9A25.6,25.6,0,0,0,57,6.27Z"/></g></g></svg>