<?xml version="1.0" encoding="utf-8"?>
<!-- Generator: Adobe Illustrator 22.1.0, SVG Export Plug-In . SVG Version: 6.00 Build 0)  -->
<svg version="1.1" id="レイヤー_1" xmlns="http://www.w3.org/2000/svg" xmlns:xlink="http://www.w3.org/1999/xlink" x="0px"
	 y="0px" viewBox="0 0 92.2 60" style="enable-background:new 0 0 92.2 60;" xml:space="preserve">
<style type="text/css">
	.st0{fill:url(#SVGID_1_);}
	.st1{fill:url(#SVGID_2_);}
	.st2{fill:#151519;}
</style>
<linearGradient id="SVGID_1_" gradientUnits="userSpaceOnUse" x1="54.4145" y1="7.5855" x2="5.5855" y2="56.4145" gradientTransform="matrix(1 0 0 -1 0 62)">
	<stop  offset="0" style="stop-color:#5674AF"/>
	<stop  offset="0.3328" style="stop-color:#438DBC"/>
	<stop  offset="0.6764" style="stop-color:#339FB9"/>
	<stop  offset="1" style="stop-color:#24B1B4"/>
</linearGradient>
<polygon class="st0" points="56,44 56,46.7 42.8,56 4,56 4,13.3 17.2,4 56,4 56,25 60,25 60,0 16,0 0,11.2 0,60 44,60 60,48.8 
	60,44 "/>
<g>
	<linearGradient id="SVGID_2_" gradientUnits="userSpaceOnUse" x1="21.1154" y1="30.5018" x2="41.2424" y2="30.5018">
		<stop  offset="0" style="stop-color:#5674AF"/>
		<stop  offset="0.3328" style="stop-color:#438DBC"/>
		<stop  offset="0.6764" style="stop-color:#339FB9"/>
		<stop  offset="1" style="stop-color:#24B1B4"/>
	</linearGradient>
	<path class="st1" d="M36.9,35c1.1,2.8-1.6,6-3.4,7.2c-3,2.1-6.5,2.1-8.8,0.9c-1.9-1-3.5-3.6-3.6-7.1c-0.2-8.9,7.3-16.5,12-18.3
		c2.3-0.9,4.3-1.1,5.7,0.1c0.9,0.8,1.9,2,2.2,3.1c0.4,1.2,0.3,2.4-0.4,3.7c-0.6,1.3-1.2,2.9-1.7,4.2c-0.1,0.3-0.4,0.6-0.9,0.3
		c-1-0.6-1.6-1.9-1-4c0.7-2.2,2.2-4.6,1.2-5.6c-1.2-1.3-7.6,2.1-11.3,8.4c-3.7,6.1-3.3,12.4-1.2,14c2.7,2.2,7.1-0.6,10.3-6.9
		C36.2,34.5,36.7,34.5,36.9,35z"/>
</g>
<g>
	<path class="st2" d="M41.8,42.9c-1.8-0.1-1.8-2-1.3-3.6c0.5-1.6,1.8-4.1,3.4-6.4c0.2-0.3,0.4-0.2,0.6,0c0.5,0.8,0.4,1.9-0.5,3.4
		c-0.9,1.5-1.4,2.5-1.9,3.7c-0.5,1.2-0.5,2.1,0.1,2.2c1,0.1,2.3-1.7,3.7-3.8c1.6-2.5,2.3-4.3,3.1-5.3c0.2-0.3,0.4-0.4,0.6-0.1
		c0.4,0.5,0.6,1.5,0,2.8c-0.5,1.1-1.8,3-2.4,4.3c-0.6,1.4-0.5,2.5,0.4,2.4c1-0.1,2.3-1.7,3.3-3.4c0.1-0.2,0.3-0.2,0.4,0
		c0.1,0.2,0.1,0.9-0.2,1.6c-0.7,1.4-2.3,2.7-3.7,2.7c-1.6,0-2.3-1-2.1-2.5C44.5,41.7,43.2,43,41.8,42.9z"/>
	<path class="st2" d="M53.9,42.2c1.2,0.1,2.9-1.7,3.9-3.6c0.2-0.3,0.5-0.4,0.5,0c0.1,0.4,0,0.9-0.2,1.5c-0.3,0.7-2.2,2.8-4.2,2.8
		c-1.7,0-2.6-1.2-2.1-3.9c0.9-4.3,3.8-8.9,6.3-11.5c0.4-0.4,0.7-0.4,1.1-0.1c0.7,0.6,0.9,1.6,0.6,2.7c-0.8,3.1-3.6,6.1-5.8,7.5
		C53,40,52.8,42.1,53.9,42.2z M59,29.5c-0.3-0.2-2.2,2.6-3.9,5.8c-0.2,0.4-0.4,0.8-0.6,1.2C57.9,33.7,59.3,29.7,59,29.5z"/>
	<path class="st2" d="M59.8,32.2c-0.2-0.3-0.1-0.5,0.3-0.5c0.7,0,1.4,0,2.1-0.1c0.8-1.4,1.5-2.5,1.9-3.1c0.2-0.3,0.5-0.3,0.6,0
		c0.3,0.7,0.3,1.5-0.3,2.8c1,0,1.3,0.4,1.5,0.7c0.2,0.3,0.1,0.5-0.3,0.5c-0.5-0.1-1.3,0-1.9,0.1c-1,1.7-2.4,4.1-3.3,6.2
		c-0.8,1.8-0.5,3.4,0.5,3.4c1.1,0,2.5-1.7,3.5-3.6c0.2-0.3,0.4-0.4,0.5,0c0.1,0.4,0,0.8-0.2,1.4c-0.3,0.7-2,2.9-4,2.8
		c-1.7-0.1-3-1.9-1.8-4.8c0.5-1.2,1.6-3.3,2.6-5.3C60.6,32.9,60,32.5,59.8,32.2z"/>
	<path class="st2" d="M79.4,43c-1.9-0.1-2.7-1.8-2.1-3.8c0.5-1.7,2.1-3.5,3.1-4.7c-1.1,0.7-2.2,0.9-3,0.9c-1.3,3.3-3.4,7.3-6.1,7.5
		c-1.5,0.1-2.2-0.9-2.1-2.3c-0.9,1.2-2.1,2.4-3.5,2.3c-1.8-0.1-1.8-2-1.3-3.6c0.5-1.6,1.8-4.1,3.4-6.3c0.2-0.2,0.4-0.3,0.6,0
		c0.6,0.8,0.5,1.8-0.4,3.3c-0.9,1.5-1.5,2.5-2,3.6c-0.5,1.2-0.4,2.1,0.1,2.1c1,0.1,2.4-1.6,3.7-3.8c1.6-2.6,2.3-4.2,3.1-5.3
		c0.2-0.3,0.4-0.4,0.6-0.1c0.4,0.4,0.6,1.5,0,2.7c-0.5,1.1-1.8,3-2.3,4.3c-0.6,1.4-0.5,2.4,0.3,2.3c1.6-0.1,3.7-3.3,5-6.9
		c-2-0.8,0.3-4.1,1.4-4.2c0.8-0.1,0.6,1.5,0.1,3.1c0.9-0.1,1.8-0.5,2.7-1.2c0.3-0.2,0.5-0.3,0.8-0.1c0.4,0.5,1.1,1.7,0.3,2.5
		c-1.2,1.3-2.4,3-2.8,4.3c-0.5,1.4-0.2,2.4,0.6,2.4c1,0,2.3-1.6,3.1-3.4c0.1-0.2,0.3-0.2,0.4,0c0.1,0.3,0.2,0.9-0.1,1.6
		C82.2,41.9,80.7,43,79.4,43z"/>
	<path class="st2" d="M86.7,42.3c2.1,0.1,3.9-1.9,5-3.5c0.1-0.2,0.3-0.2,0.4,0c0.1,0.2,0,0.9-0.4,1.5c-1,1.5-3,2.7-4.9,2.7
		c-3.2,0-4.3-3.1-2.6-6.3c1.6-3.2,4.2-4.5,5.4-3.8c0.6,0.4,1.1,0.8,1.5,1.3c0.5,0.6,0.2,2.1-0.8,3.4c-1.2,1.5-2.9,2.1-4.6,0.7
		C84.8,40.6,85.4,42.2,86.7,42.3z M88.8,36.5c0.8-1,1.3-2.3,1-2.6c-0.5-0.4-2.6,1.1-3.8,3.4c-0.1,0.1-0.2,0.3-0.2,0.4
		C87.1,38.5,88.1,37.5,88.8,36.5z"/>
</g>
</svg>
