<?xml version="1.0" encoding="utf-8"?>
<!-- Generator: Adobe Illustrator 22.1.0, SVG Export Plug-In . SVG Version: 6.00 Build 0)  -->
<svg version="1.1" id="レイヤー_1" xmlns="http://www.w3.org/2000/svg" xmlns:xlink="http://www.w3.org/1999/xlink" x="0px"
	 y="0px" viewBox="0 0 20 16.5" style="enable-background:new 0 0 20 16.5;" xml:space="preserve">
<style type="text/css">
	.st0{fill:url(#SVGID_1_);}
	.st1{fill:url(#SVGID_2_);}
</style>
<g>
	<linearGradient id="SVGID_1_" gradientUnits="userSpaceOnUse" x1="0" y1="8.5" x2="16" y2="8.5">
		<stop  offset="0" style="stop-color:#5674AF"/>
		<stop  offset="0.3328" style="stop-color:#438DBC"/>
		<stop  offset="0.6764" style="stop-color:#339FB9"/>
		<stop  offset="1" style="stop-color:#24B1B4"/>
	</linearGradient>
	<path class="st0" d="M12.6,15c-2.5,0-9.8,1.4-10.8-1.5C1.3,12,1.7,9.7,1.7,8c0-1.5-0.5-4,0.8-5.1c1.2-1,4.2-0.4,5.7-0.4
		c2.2,0,5.5-1.4,6.1,1.7c0.3,1.6,0,3.6,0,5.2C14.4,10.9,14.8,14.7,12.6,15c-0.8,0.1-2.1,1.6-0.6,1.4c4.9-0.7,3.9-5.5,3.9-9.6
		c0-1.8,0.4-4.2-1.1-5.5c-1.3-1.1-3.3-0.7-4.8-0.7c-2.7,0-8.2-1.1-9.6,2.5c-0.6,1.6-0.3,3.8-0.3,5.4c0,1.8-0.4,4.3,0.2,5.9
		c0.9,2.2,3.1,2,4.9,2c2.1,0,4.1,0,6.2,0C12,16.5,13.6,15,12.6,15z"/>
</g>
<g>
	<linearGradient id="SVGID_2_" gradientUnits="userSpaceOnUse" x1="4" y1="6.5" x2="20" y2="6.5">
		<stop  offset="0" style="stop-color:#5674AF"/>
		<stop  offset="0.3328" style="stop-color:#438DBC"/>
		<stop  offset="0.6764" style="stop-color:#339FB9"/>
		<stop  offset="1" style="stop-color:#24B1B4"/>
	</linearGradient>
	<path class="st1" d="M4,7.3c0.7,1.8,1.5,3.6,1.9,5.5c0.1,0.5,2.9-0.2,3.1-0.5c3.8-5,6.7-7.9,11-12.1c0.4-0.4-2.5-0.2-2.9,0.2
		C12.9,4.5,9.6,8.1,6,12.7c0.7-0.2,1.4-0.3,2.1-0.5c-0.4-1.9-1.3-3.7-1.9-5.5C6,6.2,3.9,6.9,4,7.3L4,7.3z"/>
</g>
</svg>
