<?xml version="1.0" encoding="utf-8"?>
<!-- Generator: Adobe Illustrator 22.1.0, SVG Export Plug-In . SVG Version: 6.00 Build 0)  -->
<svg version="1.1" id="レイヤー_1" xmlns="http://www.w3.org/2000/svg" xmlns:xlink="http://www.w3.org/1999/xlink" x="0px"
	 y="0px" viewBox="0 0 112.1 14.3" style="enable-background:new 0 0 112.1 14.3;" xml:space="preserve">
<style type="text/css">
	.st0{fill:url(#SVGID_1_);}
</style>
<linearGradient id="SVGID_1_" gradientUnits="userSpaceOnUse" x1="0" y1="7.1563" x2="112.1192" y2="7.1563">
	<stop  offset="0" style="stop-color:#5674AF"/>
	<stop  offset="0.3328" style="stop-color:#438DBC"/>
	<stop  offset="0.6764" style="stop-color:#339FB9"/>
	<stop  offset="1" style="stop-color:#24B1B4"/>
</linearGradient>
<path class="st0" d="M14.2,4.2c-1.5,2-4.6,5.9-7.2,9.8c-0.2,0.3-0.4,0.4-0.6,0.1c-0.7-0.7-1-1.4-0.7-2.9c0.3-1.6,1-3.9,1.7-5.8
	c-1.9,2.5-4.3,5.9-6.1,8.7c-0.1,0.2-0.4,0.3-0.6,0.1c-0.7-0.7-0.9-1.4-0.6-2.9c0.8-3.2,2.5-8,3.5-10C3.8,1,4,1,4.2,1.2
	c0.4,0.6,0.4,1.4-0.2,3c-0.7,1.9-1.7,4.6-2.6,7.6c2-3.2,5.2-7.6,7.3-10.2c0.1-0.2,0.4-0.2,0.5,0c0.4,0.6,0.5,1.1,0,2.7
	c-0.7,2-1.6,4.5-2.4,7.6C9,8.4,13.1,3,14.9,1.1c0.3-0.3,0.5-0.2,0.5,0.1C15.5,1.9,15.3,2.8,14.2,4.2z M35.3,5
	c0.1,0.3,0.1,0.4-0.3,0.4c-0.5-0.1-1.1,0-1.6,0.1c-0.8,1.4-2,3.4-2.8,5.2c-0.7,1.5-0.5,2.8,0.4,2.9c0.9,0,2.1-1.4,2.9-3
	c0.1-0.3,0.4-0.3,0.4,0c0.1,0.3,0,0.7-0.2,1.2c-0.3,0.6-1.7,2.5-3.3,2.4c-0.9,0-1.6-0.6-1.8-1.7c-0.6,1-1.8,1.8-2.8,1.8
	c-1.1-0.1-1.7-0.7-1.7-1.7c-0.7,0.9-1.6,1.6-2.6,1.6c-1,0-1.6-0.7-1.7-1.8c-0.7,1-1.8,1.8-2.9,1.8c-1.8,0-2.2-1.3-1.6-3.1
	c0.7-2,2.5-4.2,2.2-4.4c-0.3-0.2-2.6,1.3-3.8,3.3c-0.8,1.2-1.5,2.7-2,4c-0.1,0.2-0.2,0.2-0.4,0.1c-0.3-0.4-0.5-1-0.1-2.2
	c0.7-2.1,5.1-9.5,6.8-11.6c0.2-0.3,0.4-0.2,0.5,0c0.3,0.6,0.2,1.7-0.6,3c-0.5,0.8-1.6,2.5-2.5,3.9c0.9-0.8,2-1.5,2.5-1.5
	c0.7,0.1,1.4,1.1,0.8,2.2c-0.5,0.9-1.5,2.5-2,3.5c-0.5,1.2-0.4,2.2,0.4,2.2c0.9,0,2-1.6,2.7-2.9c0-0.1,0.1-0.1,0.2-0.1
	C20.7,10,21,9.5,21.3,9c1.7-2.5,3.4-3.4,4.4-3.4c0.9,0,1.3,0.7,1.3,1.5c0.3-0.5,0.5-0.9,0.8-1.3c0.2-0.3,0.4-0.3,0.5-0.1
	c0.3,0.4,0.5,1.3,0,2.3c-0.5,0.9-1.5,2.5-2,3.6c-0.5,1.2-0.5,2.1,0.2,2c0.9,0,2-1.5,2.8-2.9c0,0,0-0.1,0.1-0.1
	c0-0.2,0.1-0.3,0.2-0.5c0.4-1,1.3-2.8,2.2-4.5c-0.7,0-1.2-0.3-1.4-0.5c-0.2-0.3-0.1-0.4,0.2-0.4c0.6,0,1.2,0,1.7-0.1
	c0.7-1.2,1.2-2.1,1.6-2.6c0.2-0.3,0.4-0.3,0.5,0c0.2,0.6,0.2,1.3-0.3,2.4C34.9,4.4,35.2,4.8,35.3,5z M25.2,10.3
	c1.3-2.3,1.5-3.6,0.9-3.7c-0.7-0.1-2.2,1.3-3.4,3.2c-1.1,1.8-1.4,3.7-0.6,3.7C23,13.5,24.1,12.1,25.2,10.3z M37.4,4.6
	c0.6-0.7,1.6-2.1,2-2.8c0.2-0.4,0.4-0.9,0.3-1.3c-0.1-0.2-0.3-0.3-0.5,0c-0.7,0.8-1.9,3-2.4,4c-0.1,0.2,0,0.4,0.1,0.4
	C37,4.9,37.1,4.9,37.4,4.6z M43.3,10.5c0.1,0.2,0.1,0.7-0.3,1.4c-0.8,1.4-2.2,2.2-3.7,2.3c-1.2,0-2.4-0.3-3.1-1.6
	c-0.5-0.9-0.4-2.3,0.3-2.9c0.3-0.2,0.4-0.1,0.4,0.2c0,0.2,0,0.3,0,0.5c0.9-1.2,1.8-2.5,2.4-3.6c0.1-0.8,0.3-1.2,0.8-1.6
	c0.5-0.4,0.9-0.5,1.1-0.3c0.2,0.2,0.1,0.4-0.2,0.9c-0.1,0.1-0.1,0.3-0.2,0.4c-0.1,1.9,0.3,3.6,0.2,5c0,0.8-0.2,1.7-0.9,2.2
	c1.4-0.5,2.3-1.8,2.8-2.9C43,10.3,43.2,10.3,43.3,10.5z M39.3,8.2c-0.6,1.1-1.4,2.3-2.2,3.4c0.3,1.2,0.9,2.1,1.6,1.9
	C39.7,13.1,39.4,9.8,39.3,8.2z M52.3,7.6c-0.4,0-0.9,0.1-1.4,0.2c1-1.9,2-3.6,2.8-4.8C55,2.8,56.4,2.3,58,2.4c0.3,0,0.3-0.1,0.3-0.3
	C58,1.4,57.4,1,56.5,1c-1.2,0-3.4,0.6-5.1,0.5c-0.2,0-0.3,0.1-0.2,0.3c0.1,0.4,0.3,0.8,0.8,1.1c-1.8,3-4.1,7.1-4.7,9
	c-0.4,1.3-0.2,2,0.2,2.3c0.1,0.1,0.3,0.1,0.4-0.1c0.6-1.4,1.4-3,2.2-4.5c1.2-0.3,2.8-0.6,3.9-0.6c0.3,0,0.3-0.1,0.2-0.3
	C53.9,7.9,53.4,7.5,52.3,7.6z M60.9,1.1c-0.1-0.3-0.3-0.3-0.5,0c-1.3,1.8-4.7,8.1-5.8,10.8c-0.2,0.5-0.2,0.9-0.1,1.2
	c0.1,0.3,0.4,0.6,0.5,0.9c0.2,0.3,0.4,0.3,0.9,0.2c1.2-0.3,3.5-0.8,4.6-0.8c0.3,0,0.3-0.1,0.2-0.3c-0.2-0.6-0.8-1-1.8-0.9
	c-0.8,0.1-2,0.3-3.2,0.6c1.6-3.4,3.5-6.6,4.6-8.6C61.3,2.6,61.2,1.7,60.9,1.1z M71,9.5c-1.7,3.1-4.3,5.6-7.2,4.5
	c-1.7-0.6-2.4-2.2-2.4-3.9c0-4.5,3.9-8.4,6.3-9.2c1.2-0.4,2.3-0.2,2.9,0.4C73.2,2.5,72.6,6.6,71,9.5z M70.2,1.8
	c-1-0.4-3.7,1-5.7,4.1c-2,3.1-2.1,6.7-0.6,7.3c1.4,0.6,3.9-1.1,5.6-4.3C71.4,5.4,71.3,2.3,70.2,1.8z M87.5,1.1
	c0-0.3-0.3-0.3-0.5-0.1c-1.8,2-5.9,7.4-8,10.8c0.8-3,1.7-5.6,2.4-7.6c0.5-1.6,0.4-2.1,0-2.7c-0.2-0.3-0.4-0.2-0.5,0
	c-2.2,2.6-5.4,7-7.3,10.2c0.9-3,1.9-5.7,2.6-7.6c0.6-1.6,0.6-2.4,0.2-3C76.1,1,75.9,1,75.7,1.3c-1,2-2.7,6.8-3.5,10
	c-0.3,1.4-0.2,2.2,0.6,2.9c0.3,0.2,0.5,0.1,0.6-0.1c1.8-2.8,4.2-6.3,6.1-8.7c-0.7,2-1.4,4.3-1.7,5.8c-0.3,1.5-0.1,2.2,0.7,2.9
	c0.3,0.3,0.5,0.1,0.6-0.1c2.5-3.9,5.6-7.8,7.2-9.8C87.3,2.8,87.6,1.9,87.5,1.1z M89.5,7.7c-0.4,0-0.9,0.1-1.5,0.2
	c1-1.9,2.1-3.7,2.9-5c1.3-0.2,2.8-0.6,4.3-0.6c0.3,0,0.3-0.1,0.2-0.3c-0.3-0.7-0.7-1-1.6-1c-1.2,0-3.5,0.6-5.2,0.5
	c-0.2,0-0.3,0.1-0.2,0.3c0.1,0.4,0.4,0.9,0.9,1.1c-1.8,2.7-3.9,6.6-4.8,9.2c-0.2,0.6-0.2,0.8,0,1.2c0.1,0.3,0.3,0.6,0.4,0.8
	c0.3,0.3,0.5,0.3,0.9,0.2c1.2-0.3,3.5-0.9,4.6-0.8c0.3,0,0.3-0.1,0.2-0.3c-0.2-0.6-0.8-1-1.8-0.9c-0.9,0-2.2,0.3-3.3,0.7
	c0.4-1,1-2.1,1.6-3.3c1.2-0.3,2.8-0.6,3.9-0.6c0.3,0,0.3-0.1,0.2-0.3C91.1,7.9,90.6,7.6,89.5,7.7z M103,6.1
	c-1.1,1.5-3.4,2.8-5.7,3.4c0.8,1,1.6,2,2,2.9c0.3,0.6,0.4,1.3,0.1,1.7c-0.1,0.2-0.2,0.2-0.3,0c-1.4-1.9-2.5-3.3-3.5-4.3
	c-0.6,1.1-1.2,2.4-1.9,4.2c-0.1,0.2-0.2,0.2-0.3,0.1c-0.3-0.3-0.5-0.9-0.2-2.1c0.5-1.9,2.5-5.9,4.3-8.8c-0.7-0.1-1.1-0.4-1.3-0.8
	c-0.1-0.2,0-0.3,0.2-0.4c1.8-0.2,3.3-1.1,4.7-1.1c1.1,0,2,0.3,2.5,1.7C104.1,3.8,103.8,5,103,6.1z M102.7,2.7
	c-0.5-1.2-2.6-0.1-3.9,0.3c0,0.6-0.2,1.3-0.8,2.4c-0.6,1-1.1,1.9-1.7,2.9C101,7.3,103.3,4.2,102.7,2.7z M111,1.1
	c-1.5-1-3.5-0.1-4.7,1.7c-0.7,1.2-0.7,2.2-0.3,2.6c0.1,0.2,0.3,0.2,0.4-0.1c1.2-2.4,3-4.3,4.1-3.7c0.7,0.4,0.4,1.7,0,2.5
	c-0.6,1.3-1.7,2.4-3,3.2c-1.6,0.9-2.3,1.6-2.6,2.5c-0.4,1-0.1,1.7,0.1,2c0.2,0.2,0.3,0.2,0.4-0.1c0.3-1.1,0.9-2.2,2.4-3
	c1.6-0.9,3.1-1.8,3.9-3.5C112.5,3.4,112.2,1.8,111,1.1z M103.8,12.3c-0.3,0.4-0.4,1-0.1,1.5c0.3,0.5,0.9,0.6,1.2,0.3
	s0.3-0.8,0.1-1.3C104.7,12.2,104.1,11.9,103.8,12.3z"/>
</svg>
