<?xml version="1.0" encoding="utf-8"?>
<!-- Generator: Adobe Illustrator 22.0.0, SVG Export Plug-In . SVG Version: 6.00 Build 0)  -->
<svg version="1.1" id="レイヤー_1" xmlns="http://www.w3.org/2000/svg" xmlns:xlink="http://www.w3.org/1999/xlink" x="0px"
	 y="0px" viewBox="0 0 159.995 23.995" style="enable-background:new 0 0 159.995 23.995;" xml:space="preserve">
<style type="text/css">
	.st0{fill:url(#SVGID_1_);}
	.st1{fill:#FFFFFF;}
</style>
<linearGradient id="SVGID_1_" gradientUnits="userSpaceOnUse" x1="102.5775" y1="-23.1077" x2="57.4168" y2="55.1129" gradientTransform="matrix(1 0 0 -1 0 28)">
	<stop  offset="0" style="stop-color:#5674AF"/>
	<stop  offset="0.3328" style="stop-color:#438DBC"/>
	<stop  offset="0.6764" style="stop-color:#339FB9"/>
	<stop  offset="1" style="stop-color:#24B1B4"/>
</linearGradient>
<polygon class="st0" points="159.995,11.998 149.538,23.995 10.456,23.995 0,11.998 10.456,0 149.538,0 "/>
<g>
	<path class="st1" d="M105.401,14.266c-0.82,1.469-1.763,2.854-2.625,2.876c-0.755,0.02-1.049-0.946-0.462-2.142
		c0.526-1.051,1.555-2.436,1.933-3.38c0.42-1.051,0.251-2.289-0.504-2.311c-0.694-0.02-2.1,0.966-3.109,1.953
		c0.275-0.923-0.103-2.036-0.818-2.056c-0.757-0.022-2.331,1.216-3.255,2.287c0.315-0.84,0.378-1.658,0.022-2.245
		c-0.127-0.211-0.295-0.231-0.442,0c-1.321,1.972-2.854,4.932-3.296,6.256c-0.356,1.071-0.251,1.764,0.211,2.162
		c0.189,0.169,0.314,0.083,0.398-0.104c0.84-1.975,1.847-3.927,3.087-5.271c1.344-1.469,2.373-2.036,2.624-1.931
		c0.42,0.145-1.847,3.043-2.54,4.787c-0.609,1.51-0.314,2.329,0.042,2.645c0.189,0.21,0.357,0.146,0.484-0.105
		c0.882-1.975,1.909-3.989,3.653-5.733c1.363-1.364,2.078-1.595,2.245-1.533c0.316,0.105-1.553,2.456-2.329,4.2
		c-0.778,1.722-0.105,3.171,1.722,3.171c1.216,0,2.56-1.051,3.149-2.247c0.231-0.483,0.293-1.176,0.188-1.323
		C105.674,14.077,105.506,14.077,105.401,14.266z"/>
	<path class="st1" d="M78.682,9.395c0.272-0.482,0.378-0.713,0.167-0.924c-0.189-0.189-0.671-0.104-1.133,0.316
		c-0.441,0.398-0.651,0.796-0.756,1.616c-0.61,1.071-1.555,2.435-2.415,3.611c-0.022-0.168-0.022-0.337-0.042-0.504
		c-0.022-0.336-0.189-0.42-0.442-0.211c-0.713,0.589-0.777,1.974-0.273,2.918c0.714,1.301,1.891,1.618,3.107,1.576
		c1.477-0.063,2.891-0.849,3.691-2.273c0.008,1.381,0.861,2.219,1.869,2.25c1.424,0.053,2.629-1.262,3.131-2.035
		c0.284,1.234,1.236,2.082,2.758,2.058c1.618-0.022,3.234-0.987,4.116-2.269c0.378-0.546,0.44-1.133,0.356-1.302
		c-0.083-0.187-0.252-0.187-0.356-0.02c-0.903,1.386-2.436,3.066-4.178,2.982c-1.112-0.063-1.616-1.385-0.945-3.318
		c1.469,1.196,2.876,0.651,3.905-0.609c0.882-1.071,1.049-2.351,0.671-2.855C91.579,9.94,91.2,9.624,90.675,9.309
		c-1.049-0.609-3.191,0.484-4.556,3.193c-0.288,0.571-0.468,1.137-0.557,1.677c-0.776,1.575-1.973,3.066-2.918,3.024
		c-0.882-0.041-1.113-1.343-0.42-2.876c0.798-1.763,1.995-3.8,2.813-5.207c0.525-0.084,1.176-0.148,1.638-0.084
		c0.314,0,0.398-0.147,0.252-0.399c-0.169-0.273-0.484-0.651-1.302-0.631c0.504-1.091,0.504-1.784,0.273-2.373
		c-0.106-0.251-0.315-0.273-0.504,0c-0.358,0.462-0.945,1.449-1.596,2.604c-0.567,0.064-1.155,0.106-1.742,0.084
		c-0.316-0.02-0.442,0.127-0.231,0.42c0.168,0.231,0.649,0.547,1.364,0.547c-0.901,1.658-1.783,3.422-2.225,4.471
		c-0.042,0.102-0.06,0.193-0.095,0.291c-0.097-0.123-0.267-0.155-0.359,0.049c-0.526,1.134-1.408,2.394-2.815,2.918
		c0.756-0.504,0.903-1.386,0.945-2.204c0.062-1.449-0.336-3.087-0.189-5.018C78.535,9.648,78.598,9.522,78.682,9.395z
		 M87.693,13.048c0.987-1.994,2.731-3.254,3.171-2.898c0.295,0.23-0.167,1.323-0.84,2.205c-0.609,0.798-1.469,1.7-2.498,1.049
		C87.568,13.299,87.631,13.173,87.693,13.048z M76.348,17.014c-0.692,0.211-1.302-0.651-1.616-1.867
		c0.799-1.135,1.575-2.289,2.184-3.402C77,13.426,77.315,16.722,76.348,17.014z"/>
	<path class="st1" d="M60.105,16.849c-1.366,0-2.793-1.093-3.633-1.764c-0.567-0.462-1.427-0.651-2.12-0.442
		c-0.189,0.064-0.275,0.211-0.044,0.484c2.962,3.569,6.615,3.171,7.875,1.722c0.924-1.071,1.029-2.037,0.231-2.604
		c-1.176-0.84-3.864-1.953-3.8-3.318c0.106-2.624,5.269-5.837,5.984-5.102c0.503,0.525-1.071,2.267-1.513,3.276
		c-0.44,0.987-0.187,1.636,0.211,2.036c0.231,0.231,0.357,0.125,0.462-0.064c0.294-0.524,0.904-1.595,1.449-2.331
		c0.315-0.44,0.818-1.258,0.609-2.096c-0.147-0.589-0.526-1.282-1.051-1.764c-0.692-0.631-1.7-0.462-2.707-0.042
		c-1.869,0.796-5.124,3.253-5.124,6.131c0,2.162,3.316,3.464,4.431,4.409c0.293,0.251,0.398,0.693,0.042,1.091
		C61.134,16.702,60.692,16.849,60.105,16.849z"/>
	<path class="st1" d="M68.958,18.233c1.742-0.715,3.213-1.511,4.031-2.813c0.356-0.547,0.42-1.029,0.378-1.218
		c-0.041-0.211-0.231-0.189-0.336-0.042c-0.84,1.155-2.078,2.351-3.716,3.233c0.882-2.037,2.164-4.557,2.793-5.773
		c0.546-1.071,0.379-1.975,0.084-2.353c-0.189-0.168-0.335-0.126-0.524,0.147c-0.737,1.071-1.638,2.96-2.542,4.515
		c-1.071,1.825-2.12,3.169-2.938,3.107c-0.483-0.041-0.525-0.776-0.105-1.805c0.398-0.987,0.86-1.847,1.616-3.065
		c0.776-1.24,0.903-2.122,0.398-2.793c-0.146-0.211-0.357-0.231-0.524,0c-1.365,1.889-2.394,3.967-2.856,5.311
		c-0.482,1.387-0.44,2.92,1.071,3.045c0.84,0.063,1.638-0.484,2.289-1.155c-0.231,0.504-0.442,1.029-0.651,1.511
		c-2.078,0.82-3.864,2.078-4.493,3.969c-0.284,0.837-0.181,1.441,0.043,1.941h2.95C67.086,22.608,68.105,20.273,68.958,18.233z
		 M63.773,23.944c-0.378-0.526,0.565-3.402,3.296-4.976C65.768,22.055,64.046,24.344,63.773,23.944z"/>
</g>
</svg>
