<?xml version="1.0" encoding="utf-8"?>
<!-- Generator: Adobe Illustrator 22.1.0, SVG Export Plug-In . SVG Version: 6.00 Build 0)  -->
<svg version="1.1" id="program_x5F_04" xmlns="http://www.w3.org/2000/svg" xmlns:xlink="http://www.w3.org/1999/xlink" x="0px"
	 y="0px" viewBox="0 0 320 320" style="enable-background:new 0 0 320 320;" xml:space="preserve">
<style type="text/css">
	.st0{fill:url(#SVGID_1_);}
</style>
<linearGradient id="SVGID_1_" gradientUnits="userSpaceOnUse" x1="220.4842" y1="65.8151" x2="90.6467" y2="290.7012" gradientTransform="matrix(1 0 0 -1 0 322)">
	<stop  offset="0" style="stop-color:#5674AF"/>
	<stop  offset="0.159" style="stop-color:#4F7DB4"/>
	<stop  offset="0.33" style="stop-color:#438DBC"/>
	<stop  offset="0.66" style="stop-color:#339FB9"/>
	<stop  offset="0.994" style="stop-color:#24B1B4"/>
</linearGradient>
<path class="st0" d="M178.7,156.2c0-0.2,0.2-0.4,0.4-0.4h2.4c0.2,0,0.4,0.2,0.4,0.4v10.6h4.7c0.2,0,0.4,0.2,0.4,0.4v2.2
	c0,0.2-0.2,0.4-0.4,0.4H179c-0.2,0-0.4-0.2-0.4-0.4L178.7,156.2z M194.8,156.2c0-0.2,0.2-0.4,0.4-0.4h2.4c0.2,0,0.4,0.2,0.4,0.4
	v13.1c0,0.2-0.2,0.4-0.4,0.4h-2.4c-0.2,0-0.4-0.2-0.4-0.4V156.2z M205.5,156.3c-0.1-0.2,0-0.4,0.1-0.5c0.1,0,0.1,0,0.2,0h2.6
	c0.1,0,0.3,0.1,0.3,0.2l3.3,7.2h0.1l3.3-7.2c0.1-0.1,0.2-0.2,0.3-0.2h2.6c0.2,0,0.4,0.1,0.4,0.3c0,0.1,0,0.1,0,0.2l-6.2,13.4
	c-0.1,0.1-0.2,0.2-0.3,0.2H212c-0.1,0-0.3-0.1-0.3-0.2L205.5,156.3z M226.4,156.2c0-0.2,0.2-0.4,0.4-0.4c0,0,0,0,0,0h8.2
	c0.2,0,0.4,0.2,0.4,0.4v2.2c0,0.2-0.2,0.4-0.4,0.4c0,0,0,0,0,0h-5.5v2.5h4.5c0.2,0,0.4,0.2,0.4,0.4v2.2c0,0.2-0.2,0.4-0.4,0.4
	c0,0,0,0,0,0h-4.5v2.7h5.5c0.2,0,0.4,0.2,0.4,0.4v2.2c0,0.2-0.2,0.4-0.4,0.4h-8.2c-0.2,0-0.4-0.2-0.4-0.4c0,0,0,0,0,0L226.4,156.2z
	 M143.5,91h18c1.1,0,2-0.9,2-2v-3.8c0-3.8-2.1-7.2-5.4-9c2.3-3.1,1.7-7.5-1.4-9.8c-3.1-2.3-7.5-1.7-9.8,1.4c-1.9,2.5-1.9,5.9,0,8.4
	c-3.3,1.8-5.4,5.2-5.4,9V89C141.5,90.1,142.4,91,143.5,91z M152.5,69c1.7,0,3,1.3,3,3s-1.3,3-3,3s-3-1.3-3-3S150.8,69,152.5,69z
	 M145.5,85.2c0-3.4,2.8-6.2,6.2-6.2h1.6c3.4,0,6.2,2.8,6.2,6.2V87h-14L145.5,85.2z M67,127h18c1.1,0,2-0.9,2-2v-3.8
	c0-3.8-2.1-7.2-5.4-9c2.3-3.1,1.7-7.5-1.4-9.8s-7.5-1.7-9.8,1.4c-1.9,2.5-1.9,5.9,0,8.4c-3.3,1.8-5.4,5.2-5.4,9v3.8
	C65,126.1,65.9,127,67,127z M76,105c1.7,0,3,1.3,3,3s-1.3,3-3,3s-3-1.3-3-3S74.3,105,76,105z M69,121.2c0-3.4,2.8-6.2,6.2-6.2h1.6
	c3.4,0,6.2,2.8,6.2,6.2v1.8H69V121.2z M239,207c0,1.1,0.9,2,2,2s2-0.9,2-2v-8c0-1.1-0.9-2-2-2h-8c-1.1,0-2,0.9-2,2s0.9,2,2,2h3.2
	l-36.3,36.3c-0.8,0.8-0.8,2,0,2.8c0.8,0.8,2,0.8,2.8,0c0,0,0,0,0,0l36.3-36.3V207z M252.3,211.9L216,248.2V245c0-1.1-0.9-2-2-2
	s-2,0.9-2,2v8c0,1.1,0.9,2,2,2h8c1.1,0,2-0.9,2-2s-0.9-2-2-2h-3.2l36.3-36.3c0.8-0.8,0.8-2,0-2.8
	C254.4,211.1,253.1,211.1,252.3,211.9C252.3,211.8,252.3,211.9,252.3,211.9z M188,258h-5v-49c0-2.8-2.2-5-5-5h-76c-2.8,0-5,2.2-5,5
	v49h-5c-1.7,0-3,1.3-3,3v4c0,2.8,2.2,5,5,5h92c2.8,0,5-2.2,5-5v-4C191,259.3,189.7,258,188,258z M101,209c0-0.5,0.5-1,1-1h76
	c0.5,0,1,0.5,1,1v49h-78V209z M187,265c0,0.5-0.5,1-1,1H94c-0.5,0-1-0.5-1-1v-3h94V265z M172,212h-64c-1.7,0-3,1.3-3,3v36
	c0,1.7,1.3,3,3,3h64c1.7,0,3-1.3,3-3v-36C175,213.3,173.7,212,172,212z M171,250h-62v-34h62V250z M87,70h2c1.1,0,2-0.9,2-2
	s-0.9-2-2-2h-2c-1.1,0-2,0.9-2,2S85.9,70,87,70z M99,70h6c1.1,0,2-0.9,2-2s-0.9-2-2-2h-6c-1.1,0-2,0.9-2,2S97.9,70,99,70z M113,70
	h17c1.1,0,2-0.9,2-2s-0.9-2-2-2h-17c-1.1,0-2,0.9-2,2S111.9,70,113,70z M112,80c1.1,0,2-0.9,2-2s-0.9-2-2-2h-5c-1.1,0-2,0.9-2,2
	s0.9,2,2,2H112z M67,80h32c1.1,0,2-0.9,2-2s-0.9-2-2-2H67c-1.1,0-2,0.9-2,2S65.9,80,67,80z M130,80c1.1,0,2-0.9,2-2s-0.9-2-2-2h-8
	c-1.1,0-2,0.9-2,2s0.9,2,2,2H130z M109,109c0-1.1-0.9-2-2-2H95c-1.1,0-2,0.9-2,2s0.9,2,2,2h12C108.1,111,109,110.1,109,109z
	 M121,109c0-1.1-0.9-2-2-2h-6c-1.1,0-2,0.9-2,2s0.9,2,2,2h6C120.1,111,121,110.1,121,109z M127,107c-1.1,0-2,0.9-2,2s0.9,2,2,2h4
	c1.1,0,2-0.9,2-2s-0.9-2-2-2H127z M151,227h2c1.1,0,2-0.9,2-2s-0.9-2-2-2h-2c-1.1,0-2,0.9-2,2S149.9,227,151,227z M159,227h5
	c1.1,0,2-0.9,2-2s-0.9-2-2-2h-5c-1.1,0-2,0.9-2,2S157.9,227,159,227z M151,233h7c1.1,0,2-0.9,2-2s-0.9-2-2-2h-7c-1.1,0-2,0.9-2,2
	S149.9,233,151,233z M101,117c-1.1,0-2,0.9-2,2s0.9,2,2,2h1c1.1,0,2-0.9,2-2s-0.9-2-2-2H101z M121,121h10c1.1,0,2-0.9,2-2
	s-0.9-2-2-2h-10c-1.1,0-2,0.9-2,2S119.9,121,121,121z M110,121h3c1.1,0,2-0.9,2-2s-0.9-2-2-2h-3c-1.1,0-2,0.9-2,2S108.9,121,110,121
	z M96,90c1.1,0,2-0.9,2-2s-0.9-2-2-2h-2c-1.1,0-2,0.9-2,2s0.9,2,2,2H96z M116,88c0,1.1,0.9,2,2,2h12c1.1,0,2-0.9,2-2s-0.9-2-2-2h-12
	C116.9,86,116,86.9,116,88z M102,88c0,1.1,0.9,2,2,2h6c1.1,0,2-0.9,2-2s-0.9-2-2-2h-6C102.9,86,102,86.9,102,88z M133,136H67
	c-1.1,0-2,0.9-2,2v18c0,1.1,0.9,2,2,2h66c1.1,0,2-0.9,2-2v-18C135,136.9,134.1,136,133,136z M131,154H69v-14h62V154z M116,243h26
	c1.1,0,2-0.9,2-2v-18c0-1.1-0.9-2-2-2h-26c-1.1,0-2,0.9-2,2v18C114,242.1,114.9,243,116,243z M118,225h22v14h-22V225z M259,99h-79
	V64c0-7.7-6.3-14-14-14H62c-7.7,0-14,6.3-14,14v92c0,7.7,6.3,14,14,14h37.6l17.9,23.2c0.7,0.9,1.9,1,2.8,0.4c0.5-0.4,0.8-1,0.8-1.6
	v-22h20v4c0,7.7,6.3,14,14,14h42v10c0,1.1,0.9,2,2,2c0.6,0,1.2-0.3,1.6-0.8l8.9-11.2H259c7.7,0,14-6.3,14-14v-61
	C273,105.3,266.7,99,259,99z M119,166c-1.1,0-2,0.9-2,2v18.1l-14.9-19.3c-0.4-0.5-1-0.8-1.6-0.8H62c-5.5,0-10-4.5-10-10V64
	c0-5.5,4.5-10,10-10h104c5.5,0,10,4.5,10,10v35h-21c-7.7,0-14,6.3-14,14v53H119z M269,174c0,5.5-4.5,10-10,10h-50.5
	c-0.6,0-1.2,0.3-1.6,0.8l-5.9,7.5V186c0-1.1-0.9-2-2-2h-44c-5.5,0-10-4.5-10-10v-61c0-5.5,4.5-10,10-10h104c5.5,0,10,4.5,10,10V174z
	 M207,115.4c-8.6,0-15.6,7-15.6,15.6s7,15.6,15.6,15.6c8.6,0,15.6-7,15.6-15.6C222.6,122.3,215.6,115.4,207,115.4z M207,142.6
	c-6.4,0-11.6-5.2-11.6-11.6c0-6.4,5.2-11.6,11.6-11.6c6.4,0,11.6,5.2,11.6,11.6C218.6,137.4,213.4,142.5,207,142.6z M213.7,128.7
	l-9.6-4.8c-1.2-0.6-2.7-0.1-3.4,1.1c-0.2,0.3-0.3,0.7-0.3,1.1v9.6c0,0.9,0.4,1.7,1.2,2.1c0.7,0.5,1.7,0.5,2.5,0.1l9.6-4.8
	c1.2-0.6,1.7-2.1,1.1-3.3C214.5,129.4,214.1,129,213.7,128.7L213.7,128.7z M204.5,133.3v-4.7l4.7,2.4L204.5,133.3z"/>
</svg>
