<?xml version="1.0" encoding="utf-8"?>
<!-- Generator: Adobe Illustrator 22.1.0, SVG Export Plug-In . SVG Version: 6.00 Build 0)  -->
<svg version="1.1" id="program_x5F_02" xmlns="http://www.w3.org/2000/svg" xmlns:xlink="http://www.w3.org/1999/xlink" x="0px"
	 y="0px" viewBox="0 0 320 320" style="enable-background:new 0 0 320 320;" xml:space="preserve">
<style type="text/css">
	.st0{fill:url(#SVGID_1_);}
</style>
<linearGradient id="SVGID_1_" gradientUnits="userSpaceOnUse" x1="212.3053" y1="71.4058" x2="107.6923" y2="252.6003" gradientTransform="matrix(1 0 0 -1 0 322)">
	<stop  offset="0" style="stop-color:#5674AF"/>
	<stop  offset="0.159" style="stop-color:#4F7DB4"/>
	<stop  offset="0.33" style="stop-color:#438DBC"/>
	<stop  offset="0.66" style="stop-color:#339FB9"/>
	<stop  offset="0.994" style="stop-color:#24B1B4"/>
</linearGradient>
<path class="st0" d="M118.5,82.4c-0.5-1-0.1-2.2,0.9-2.7c0,0,0,0,0,0c0.6-0.3,1.2-0.6,1.8-0.9c1-0.5,2.2-0.1,2.7,0.9
	c0.5,1,0.1,2.2-0.9,2.7c-0.6,0.3-1.2,0.6-1.8,0.9C120.2,83.7,119,83.3,118.5,82.4z M137.1,75c-0.3-1.1,0.4-2.2,1.5-2.4c0,0,0,0,0,0
	c0.3-0.1,0.6-0.1,0.9-0.2c-2.4-11.3,4.8-22.5,16.2-24.9c11.3-2.4,22.5,4.8,24.9,16.2c0.6,2.9,0.6,5.9,0,8.8c0.3,0.1,0.7,0.2,1,0.2
	c1.1,0.3,1.7,1.3,1.5,2.4c-0.2,0.9-1,1.5-1.9,1.5c-0.2,0-0.3,0-0.5-0.1c-0.4-0.1-0.8-0.2-1.3-0.3c-4.5,10.7-16.8,15.7-27.5,11.2
	c-5-2.1-9-6.1-11.2-11.2c-0.4,0.1-0.7,0.2-1.1,0.3c-0.2,0-0.3,0.1-0.5,0.1C138.2,76.5,137.4,75.9,137.1,75z M143,68
	c0,9.4,7.6,17,17,17s17-7.6,17-17s-7.6-17-17-17C150.6,51,143,58.6,143,68z M103.5,94.5c0.5,0,0.9-0.2,1.3-0.5
	c0.5-0.4,1-0.8,1.5-1.2c0.9-0.7,1-1.9,0.3-2.8s-1.9-1-2.8-0.3l0,0c-0.5,0.4-1.1,0.9-1.6,1.3c-0.8,0.7-1,2-0.2,2.8
	C102.3,94.2,102.9,94.5,103.5,94.5L103.5,94.5z M213.8,92.9c0.5,0.4,1,0.8,1.5,1.2c0.8,0.7,2.1,0.6,2.8-0.2s0.6-2.1-0.2-2.8
	c0,0,0,0,0,0c-0.5-0.4-1.1-0.9-1.6-1.3c-0.8-0.7-2.1-0.6-2.8,0.2C212.8,90.8,212.9,92.1,213.8,92.9
	C213.8,92.8,213.8,92.9,213.8,92.9L213.8,92.9z M95.6,217c0.7,0.8,0.7,2.1-0.1,2.8c-0.8,0.7-1.9,0.7-2.7,0c-8.7,7.6-22,6.7-29.6-2
	c-7.6-8.7-6.7-22,2-29.6c2.3-2,5-3.5,8-4.3v0c-0.2-0.7-0.4-1.3-0.5-2c-0.3-1.1,0.4-2.2,1.5-2.4c1.1-0.3,2.2,0.4,2.4,1.5
	c0.2,0.6,0.3,1.3,0.5,1.9c0,0.1,0,0.2,0.1,0.3c0.6-0.1,1.3-0.1,1.9-0.1c11.6,0,21,9.4,21,20.9c0,4.7-1.6,9.3-4.5,13
	C95.5,217,95.6,217,95.6,217z M96,204c0-9.4-7.6-17-17-17.1c-9.4,0-17,7.6-17.1,17c0,9.4,7.6,17,17,17.1c4.5,0,8.8-1.8,12-4.9
	c0.2-0.4,0.5-0.8,0.9-1C94.5,212,96,208.1,96,204z M72.6,149.4c-1.1-0.1-2.1,0.7-2.2,1.8c0,0,0,0,0,0c-0.1,0.7-0.1,1.4-0.2,2
	c-0.1,1.1,0.7,2.1,1.8,2.1c0,0,0,0,0,0c0.1,0,0.1,0,0.2,0c1,0,1.9-0.8,2-1.9c0-0.7,0.1-1.3,0.2-2C74.5,150.5,73.7,149.5,72.6,149.4
	C72.6,149.4,72.6,149.4,72.6,149.4z M72.5,169.5c-1.1,0.1-1.9,1.1-1.7,2.2c0,0,0,0,0,0c0.1,0.7,0.2,1.4,0.3,2c0.1,1,1,1.7,2,1.7
	c0.1,0,0.2,0,0.3,0c1.1-0.2,1.8-1.2,1.7-2.3c0,0,0,0,0,0c-0.1-0.6-0.2-1.3-0.3-1.9C74.6,170.1,73.6,169.4,72.5,169.5
	C72.5,169.5,72.5,169.5,72.5,169.5z M79,193.8c-1.1,0-2,0.9-2,2v6.2h-4.3c-1.1,0-2,0.9-2,2s0.9,2,2,2H79c1.1,0,2-0.9,2-2v-8.2
	C81,194.6,80.1,193.8,79,193.8z M222.5,100.9c0.7,0.8,2,0.9,2.8,0.2c0.8-0.7,0.9-2,0.2-2.8c0,0-0.1-0.1-0.1-0.1
	c-0.5-0.5-0.9-1-1.4-1.5c-0.8-0.8-2-0.8-2.8,0c-0.8,0.8-0.8,2,0,2.8C221.6,99.9,222,100.4,222.5,100.9z M241,118h6.3
	c1.1,0,2-0.9,2-2s-0.9-2-2-2H243v-6.2c0-1.1-0.9-2-2-2s-2,0.9-2,2v8.2C239,117.1,239.9,118,241,118z M249.9,163.7
	c0-0.7,0-1.4,0.1-2.1c0-1.1-0.9-2-2-2s-2,0.9-2,2l0,0c0,0.7,0,1.3-0.1,2c0,1.1,0.8,2,1.9,2.1h0.1C249,165.7,249.9,164.8,249.9,163.7
	z M159.1,69.2c0.7,0.3,1.5,0.3,2.1-0.1l4.3-3c0.9-0.6,1.2-1.8,0.6-2.8s-1.8-1.2-2.8-0.6c0,0,0,0-0.1,0l-1.2,0.8v-4.4
	c0-1.1-0.9-2-2-2s-2,0.9-2,2v8.2C158,68.1,158.4,68.8,159.1,69.2z M205.8,87.2c0.6,0.3,1.1,0.7,1.6,1.1c0.9,0.6,2.2,0.4,2.8-0.6
	c0.6-0.9,0.4-2.2-0.6-2.8l0,0c-0.6-0.4-1.1-0.7-1.7-1.1c-0.9-0.6-2.2-0.3-2.8,0.6C204.6,85.3,204.8,86.5,205.8,87.2
	C205.8,87.2,205.8,87.2,205.8,87.2L205.8,87.2z M246.6,175.6c0.1,0,0.2,0,0.3,0c1,0,1.8-0.7,2-1.7c0.1-0.7,0.2-1.4,0.3-2
	c0.1-1.1-0.6-2.1-1.7-2.2c-1.1-0.1-2.1,0.6-2.2,1.7c-0.1,0.7-0.2,1.3-0.3,1.9C244.8,174.4,245.6,175.5,246.6,175.6
	C246.6,175.6,246.6,175.6,246.6,175.6z M197.2,82.4c0.6,0.3,1.2,0.6,1.8,0.9c1,0.5,2.2,0.1,2.7-0.9c0.5-1,0.1-2.1-0.9-2.6
	c-0.6-0.3-1.2-0.6-1.8-0.9c-1-0.5-2.2-0.2-2.7,0.8c-0.5,1-0.2,2.2,0.8,2.7C197.1,82.4,197.2,82.4,197.2,82.4L197.2,82.4z
	 M245.6,151.8c0.1,0.6,0.1,1.3,0.2,2c0.1,1,0.9,1.9,2,1.9c0,0,0.1,0,0.1,0c1.1-0.1,1.9-1,1.9-2.1c0-0.7-0.1-1.4-0.2-2.1
	c-0.1-1.1-1.1-1.9-2.2-1.8C246.3,149.7,245.5,150.7,245.6,151.8C245.6,151.8,245.6,151.8,245.6,151.8L245.6,151.8z M188.1,78.7
	c0.6,0.2,1.2,0.4,1.8,0.7c1,0.4,2.2-0.1,2.6-1.2c0.4-1-0.1-2.2-1.2-2.6c-0.6-0.2-1.3-0.5-1.9-0.7c-1-0.4-2.2,0.1-2.6,1.2
	c-0.4,1,0.1,2.2,1.2,2.6C188.1,78.7,188.1,78.7,188.1,78.7L188.1,78.7z M220,116c0-11.6,9.4-21,21-21s21,9.4,21,21s-9.4,21-21,21
	C229.4,137,220,127.6,220,116z M224,116c0,9.4,7.6,17,17,17s17-7.6,17-17s-7.6-17-17-17C231.6,99,224,106.6,224,116z M248.1,141.3
	c-0.2-1.1-1.3-1.8-2.4-1.5c-1.1,0.2-1.8,1.3-1.5,2.4c0.1,0.6,0.3,1.3,0.4,1.9c0.2,0.9,1,1.6,2,1.6c0.1,0,0.2,0,0.4,0
	c1.1-0.2,1.8-1.2,1.6-2.3c0,0,0,0,0,0C248.3,142.6,248.2,141.9,248.1,141.3z M129.5,79.4c0.2,0,0.5,0,0.7-0.1
	c0.6-0.2,1.2-0.4,1.9-0.7c1-0.4,1.6-1.5,1.2-2.5c-0.4-1-1.5-1.6-2.5-1.2l0,0c-0.7,0.2-1.3,0.5-1.9,0.7c-1,0.4-1.6,1.5-1.2,2.6
	C127.9,78.9,128.6,79.4,129.5,79.4L129.5,79.4z M215.5,177.4c1-0.5,1.3-1.8,0.8-2.7s-1.8-1.3-2.7-0.8l0,0l-1.9,1.1
	c8.3-28.5-8.1-58.4-36.7-66.7c-18.9-5.5-39.3-0.2-53.2,13.8l0-2.3c0-1.1-0.9-2-2-2h0c-1.1,0-2,0.9-2,2l-0.1,7.1c0,1.1,0.9,2,2,2
	l7.1,0.1h0c1.1,0,2-0.9,2-2c0-1.1-0.9-2-2-2l-2.4,0c19.3-19.6,50.8-19.8,70.4-0.5c13.1,12.9,18,32,12.8,49.6l-1.2-2.2
	c-0.6-1-1.8-1.3-2.7-0.7c-0.9,0.5-1.3,1.7-0.7,2.7l3.5,6.2c0.5,1,1.8,1.3,2.7,0.8L215.5,177.4z M203.1,234.5c-0.6,0.3-1.1,0.7-1.7,1
	c-1,0.5-1.4,1.7-0.9,2.7c0.5,1,1.7,1.4,2.7,0.9c0.1,0,0.1-0.1,0.2-0.1c0.6-0.3,1.2-0.7,1.8-1c0.9-0.6,1.2-1.8,0.7-2.7
	C205.2,234.3,204,233.9,203.1,234.5L203.1,234.5z M194.3,238.9c-0.6,0.3-1.2,0.5-1.8,0.8c-1,0.4-1.6,1.5-1.2,2.6
	c0.4,1,1.5,1.6,2.6,1.2c0.1,0,0.1,0,0.2-0.1c0.6-0.3,1.3-0.5,1.9-0.8c1-0.5,1.5-1.6,1-2.6C196.5,238.9,195.3,238.5,194.3,238.9
	L194.3,238.9z M70.1,163.6c0,1.1,0.9,1.9,2,1.9h0.1c1.1,0,2-1,1.9-2.1c0,0,0,0,0,0c0-0.7,0-1.3-0.1-2c0-1.1-0.9-2-2-2s-2,0.9-2,2
	C70,162.2,70,162.9,70.1,163.6z M185.1,242.3c-0.6,0.2-1.3,0.4-1.9,0.6c-1.1,0.3-1.7,1.4-1.4,2.5c0.2,0.9,1,1.5,1.9,1.5
	c0.2,0,0.4,0,0.5-0.1c0.7-0.2,1.3-0.4,2-0.6c1.1-0.3,1.7-1.4,1.3-2.5C187.3,242.6,186.1,242,185.1,242.3L185.1,242.3z M181.6,188.3
	c-0.4,0.4-0.9,0.7-1.5,0.7h-40.2c-1.1,0-2-0.9-2-2c0-0.1,0-0.2,0-0.2l1.6-13.6c0.9-7.7,6.3-14.1,13.8-16.3c-6.8-3.6-9.4-12.1-5.8-19
	c3.6-6.8,12.1-9.4,19-5.8c5.7,3,8.6,9.5,7,15.7c0.5,0.2,1.1,0.4,1.5,0.8c2.5,2,2.5,6.2,0,9.6c-0.6,0.8-1.3,1.4-2,2
	c4.1,3.2,6.8,7.9,7.4,13.1l1.6,13.6C182.1,187.3,182,187.9,181.6,188.3z M168,156c-0.1,0.5,0.1,1,0.4,1.4c0.2,0.2,0.5,0.2,0.8,0.2
	c1.1-0.2,2.1-0.9,2.7-1.8c1.3-1.7,1.3-3.5,0.7-4c-0.1-0.1-0.3-0.2-0.5-0.2C171.1,153.3,169.7,154.8,168,156L168,156z M150.8,144.7
	c6.2-0.3,9.8-6.7,9.8-6.7c0,0,0,0,0,0c0-0.1,0.1-0.1,0.1-0.2c0,0,0.1-0.1,0.1-0.1c0.1-0.1,0.1-0.1,0.2-0.2c0,0,0.1-0.1,0.1-0.1
	c0.1,0,0.1-0.1,0.2-0.1c0,0,0.1-0.1,0.1-0.1c0,0,0,0,0.1,0c0.1,0,0.1,0,0.2-0.1s0.1,0,0.1,0c0.1,0,0.2,0,0.2,0c0.1,0,0.1,0,0.2,0
	c0.1,0,0.1,0,0.2,0c0.1,0,0.1,0,0.2,0c0.1,0,0.1,0,0.2,0c0.1,0,0.1,0,0.2,0c0.1,0,0.2,0.1,0.2,0.1c0,0,0.1,0,0.1,0c0,0,0,0,0,0
	c0.1,0,0.2,0.1,0.2,0.2c0,0,0.1,0,0.1,0.1c0.1,0.1,0.1,0.1,0.2,0.2c0,0,0.1,0.1,0.1,0.1c0,0.1,0.1,0.1,0.1,0.2
	c0,0.1,0.1,0.1,0.1,0.1c0,0,0,0,0,0.1c2.2,4.9,4.7,5,4.7,5c0.4,0,0.7,0,1.1,0.2c-0.7-5.5-5.8-9.3-11.2-8.6c-4.9,0.7-8.6,4.9-8.7,9.8
	c0,0.1,0,0.3,0,0.4C150.3,144.8,150.5,144.7,150.8,144.7z M160,154.5c4.6,0,8.5-3.1,9.7-7.5c-0.1,0-0.2,0.1-0.3,0.1
	c-0.2,0-0.3,0-0.5,0c-1.2,0-4.1-0.5-6.8-4.4c-2.1,2.5-5.8,5.7-11.1,6h0C152.6,152.2,156.1,154.5,160,154.5z M151.4,162
	c0.2,0.2,0.3,0.3,0.4,0.5c1.1,2.2,5.3,4.9,8.3,6.4c2.9-1.5,7-4.3,8.2-6.4c0.1-0.2,0.3-0.4,0.4-0.6c-2.3-1.3-5-2-7.6-2h-2
	C156.3,160,153.7,160.7,151.4,162z M177.8,185l-1.4-11.4c-0.4-3.6-2.1-6.9-4.7-9.3c0,0,0,0,0,0.1c-2.2,4.3-9.9,8.2-10.8,8.7
	c-0.6,0.3-1.2,0.3-1.8,0c-0.9-0.4-8.8-4.3-11-8.7c0,0,0,0,0,0c-2.6,2.5-4.2,5.7-4.6,9.3l-1.4,11.4H177.8z M211.3,229.1
	c-0.5,0.4-1.1,0.8-1.6,1.2c-0.9,0.6-1.2,1.9-0.5,2.8c0.6,0.9,1.9,1.2,2.8,0.5c0,0,0,0,0.1-0.1c0.6-0.4,1.1-0.8,1.7-1.2
	c0.9-0.6,1.1-1.9,0.4-2.8C213.5,228.6,212.2,228.4,211.3,229.1C211.3,229,211.3,229.1,211.3,229.1L211.3,229.1z M260,204
	c0,10.5-8.5,19-19,19s-19-8.5-19-19s8.5-19,19-19l0,0C251.5,185,260,193.5,260,204z M256,204c0-8.3-6.7-15-15-15s-15,6.7-15,15
	s6.7,15,15,15C249.3,219,256,212.3,256,204z M267,204c0,14.4-11.6,26-26,26s-26-11.6-26-26s11.6-26,26-26
	C255.4,178,267,189.6,267,204z M263,204c0-12.2-9.8-22-22-22s-22,9.8-22,22s9.8,22,22,22l0,0C253.1,226,263,216.1,263,204z
	 M218.8,222.8c-0.5,0.4-1,0.9-1.4,1.3c-0.8,0.7-0.9,2-0.2,2.8c0.7,0.8,2,0.9,2.8,0.2c0,0,0,0,0,0c0.5-0.5,1-0.9,1.5-1.4
	c0.8-0.8,0.8-2,0.1-2.8C220.9,222.1,219.6,222,218.8,222.8z M246.2,204.2l-3.2-1.5v-7c0-1.1-0.9-2-2-2s-2,0.9-2,2v8.2
	c0,0.8,0.5,1.5,1.2,1.8l4.3,2c0.3,0.1,0.5,0.2,0.8,0.2c1.1,0,2-0.9,2-2C247.3,205.2,246.9,204.5,246.2,204.2L246.2,204.2z
	 M160.5,178h-1c-0.8,0-1.5,0.7-1.5,1.5v1c0,0.8,0.7,1.5,1.5,1.5h1c0.8,0,1.5-0.7,1.5-1.5v-1C162,178.7,161.3,178,160.5,178z
	 M110.2,230.1c-0.5-0.4-1.1-0.8-1.6-1.2c-0.9-0.6-2.2-0.4-2.8,0.5c-0.6,0.9-0.4,2,0.4,2.7c0.5,0.4,1.1,0.8,1.7,1.2
	c0.9,0.6,2.1,0.5,2.8-0.4C111.3,232.1,111.1,230.8,110.2,230.1C110.2,230.2,110.2,230.1,110.2,230.1L110.2,230.1z M98,116
	c0,10.5-8.5,19-19,19s-19-8.5-19-19s8.5-19,19-19l0,0C89.5,97,98,105.5,98,116z M94,116c0-8.3-6.7-15-15-15s-15,6.7-15,15
	s6.7,15,15,15C87.3,131,94,124.3,94,116z M181,252c0,11.6-9.4,21-21,21s-21-9.4-21-21c0-11.6,9.4-21,21-21
	C171.6,231,181,240.4,181,252z M177,252c0-9.4-7.6-17-17-17s-17,7.6-17,17c0,9.4,7.6,17,17,17C169.4,269,177,261.4,177,252z
	 M101.1,222.7c-0.8-0.8-2.1-0.7-2.8,0.1s-0.7,2.1,0.1,2.8c0.5,0.5,1,0.9,1.5,1.4c0.8,0.7,2.1,0.7,2.8-0.2c0.7-0.8,0.7-2.1-0.2-2.8
	C102,223.6,101.6,223.1,101.1,222.7z M75.9,110.1c-0.8-0.8-2.1-0.7-2.8,0c-0.7,0.8-0.7,2,0,2.8l3.9,3.9v7.2c0,1.1,0.9,2,2,2
	s2-0.9,2-2v-8c0-0.5-0.2-1-0.6-1.4L75.9,110.1z M99,99.4c9.2,11,7.7,27.4-3.3,36.6c-5.5,4.6-12.7,6.7-19.8,5.9c0,0,0,0.1,0,0.1
	c-0.1,0.6-0.3,1.3-0.4,1.9c-0.2,1.1-1.3,1.8-2.3,1.6c-1.1-0.2-1.8-1.3-1.6-2.3c0.1-0.7,0.3-1.3,0.4-2c0,0,0,0,0,0
	c-13.8-3.9-21.9-18.2-18.1-32s18.2-21.9,32-18.1c3.8,1.1,7.3,3,10.2,5.6c0.8-0.8,2.1-0.7,2.8,0.1C99.7,97.4,99.7,98.6,99,99.4
	L99,99.4z M95.2,101.1c-0.1-0.1-0.3-0.2-0.4-0.3c-0.1-0.1-0.3-0.3-0.4-0.5c-8.7-8.5-22.6-8.4-31.1,0.2s-8.4,22.6,0.2,31.1
	s22.6,8.4,31.1-0.2C102.9,123.1,103.1,109.7,95.2,101.1z M114.9,84.3c-0.6-0.9-1.8-1.2-2.8-0.6c0,0,0,0,0,0
	c-0.6,0.4-1.2,0.7-1.7,1.1c-0.9,0.6-1.1,1.9-0.5,2.8c0.6,0.9,1.8,1.1,2.7,0.6c0.5-0.4,1.1-0.7,1.7-1.1
	C115.3,86.5,115.5,85.3,114.9,84.3z M136.6,242.8c-0.6-0.2-1.3-0.4-1.9-0.6c-1.1-0.3-2.2,0.3-2.5,1.3c-0.3,1,0.3,2.1,1.3,2.5
	c0.7,0.2,1.3,0.4,2,0.6c0.2,0,0.4,0.1,0.5,0.1c1.1,0,2-0.9,2-2C138.1,243.8,137.5,243,136.6,242.8L136.6,242.8z M118.5,235.4
	c-0.6-0.3-1.1-0.6-1.7-1c-0.9-0.6-2.2-0.3-2.7,0.7c-0.6,0.9-0.3,2.2,0.7,2.7c0,0,0,0,0.1,0c0.6,0.3,1.2,0.7,1.8,1
	c1,0.5,2.2,0.1,2.7-0.9C119.7,237,119.4,235.9,118.5,235.4L118.5,235.4z M127.3,239.6c-0.6-0.2-1.2-0.5-1.8-0.8
	c-1-0.4-2.2,0.1-2.6,1.1c-0.4,1,0,2.1,1,2.6c0.6,0.3,1.3,0.5,1.9,0.8c1,0.4,2.2,0,2.6-1c0.4-1,0-2.2-1-2.6
	C127.4,239.6,127.4,239.6,127.3,239.6L127.3,239.6z M155.7,258.4c-1.1,0-2-0.9-2-2c0-0.5,0.2-1,0.6-1.4l3.7-3.8V244c0-1.1,0.9-2,2-2
	s2,0.9,2,2v8c0,0.5-0.2,1-0.6,1.4l-4.3,4.4C156.8,258.2,156.2,258.4,155.7,258.4z"/>
</svg>
