<?xml version="1.0" encoding="utf-8"?>
<!-- Generator: Adobe Illustrator 22.1.0, SVG Export Plug-In . SVG Version: 6.00 Build 0)  -->
<svg version="1.1" id="program_x5F_03" xmlns="http://www.w3.org/2000/svg" xmlns:xlink="http://www.w3.org/1999/xlink" x="0px"
	 y="0px" viewBox="0 0 320 320" style="enable-background:new 0 0 320 320;" xml:space="preserve">
<style type="text/css">
	.st0{fill:url(#SVGID_1_);}
</style>
<linearGradient id="SVGID_1_" gradientUnits="userSpaceOnUse" x1="214.5865" y1="25.1201" x2="97.763" y2="227.4657" gradientTransform="matrix(1 0 0 -1 0 322)">
	<stop  offset="0" style="stop-color:#5674AF"/>
	<stop  offset="0.159" style="stop-color:#4F7DB4"/>
	<stop  offset="0.33" style="stop-color:#438DBC"/>
	<stop  offset="0.66" style="stop-color:#339FB9"/>
	<stop  offset="0.994" style="stop-color:#24B1B4"/>
</linearGradient>
<path class="st0" d="M166.3,87.5c0.3-1,1.5-1.6,2.5-1.3c8,2.6,15.3-4.3,15.4-4.3c0,0,0,0,0.1-0.1c0.1-0.1,0.1-0.1,0.2-0.1
	c0,0,0.1-0.1,0.1-0.1c0.1,0,0.1-0.1,0.2-0.1c0,0,0.1,0,0.1-0.1c0.1,0,0.1,0,0.2-0.1c0.1,0,0.1,0,0.2,0s0.1,0,0.1,0s0.1,0,0.1,0
	s0.1,0,0.1,0c0.1,0,0.2,0,0.2,0c0,0,0.1,0,0.1,0c0.1,0,0.2,0,0.3,0.1c0,0,0.1,0,0.1,0c0.1,0,0.2,0.1,0.2,0.1c0,0,0.1,0,0.1,0.1
	c0.1,0.1,0.1,0.1,0.2,0.2c0,0,0,0,0,0s0,0,0,0.1c0.1,0.1,0.1,0.1,0.2,0.2c0,0,0.1,0.1,0.1,0.1c0,0.1,0.1,0.1,0.1,0.2
	c0,0,0,0.1,0.1,0.1c0,0.1,0,0.1,0.1,0.2c0,0.1,0,0.1,0,0.2c0,0,0,0.1,0,0.1c0.6,8.5,4.1,9.7,4.1,9.7c1.1,0.3,1.7,1.3,1.5,2.4
	c0,0,0,0,0,0c-0.2,0.9-1,1.5-2,1.5c-0.2,0-0.3,0-0.5-0.1c-0.6-0.1-5-1.5-6.7-9.7c-3.4,2.4-7.3,3.7-11.4,3.8c-1.7,0-3.4-0.3-5.1-0.8
	C166.5,89.7,165.9,88.5,166.3,87.5z M167.5,126.6c0.6,0.5,1.5,0.6,2.2,0.2c0.3-0.2,8-4.3,12.3-9.4c0.7-0.9,0.6-2.1-0.3-2.8
	c-0.8-0.7-2-0.6-2.8,0.2c-2.9,3.4-7.7,6.5-9.9,7.8c-3.2-2.7-9-8.3-10-12.3c-0.3-1.1-1.4-1.7-2.4-1.4c-1,0.3-1.7,1.3-1.4,2.4
	C156.8,117.8,166.4,125.7,167.5,126.6z M273,154v108c0,1.1-0.9,2-2,2h-15c-1.1,0-2-0.9-2-2v-27H79v27c0,1.1-0.9,2-2,2H62
	c-1.1,0-2-0.9-2-2v-61c0-2.2,1.8-4,4-4h9v-12.6c0-11.3,8.5-20.8,19.8-21.9l30.7-3.1l17.8-44.4c3.6-9,11.9-15.1,21.5-15.9
	c-0.2-0.4-0.4-0.8-0.6-1.2c-0.1,0-0.1,0-0.2,0c-1.3,0-2.6-0.4-3.7-1.1c-2.5-1.6-4.2-4-4.9-6.9c-1.4-5.3,0.9-10.6,5.2-11.7
	c1.5-0.4,3-0.2,4.4,0.4c0.4-0.7,0.8-1.3,1.3-1.9c6.7-8.7,19.3-10.4,28.1-3.6s10.4,19.3,3.6,28.1c-2.8,3.6-6.7,6.2-11.2,7.2
	c3.1,3.8,5,8.5,5.5,13.4l1.7,16.2h0.1c5,0,9,4,9,9c0,1.1-0.3,2.1-0.8,3c3,1.6,4.8,4.6,4.8,8v28h2.4c-0.2-0.6-0.3-1.3-0.4-2v-2.4
	c0-3,2.2-5.5,5.2-5.9c-7-7.1-6.9-18.5,0.2-25.4c2.2-2.1,4.8-3.7,7.7-4.5c0.2,0,0.4-0.1,0.6-0.1l0,0c0.6-1.6,2.1-2.6,3.7-2.6h7.8
	c2,0,3.7,1.5,4,3.5l0.3,2.7c0.1,0.1,0.3,0.2,0.4,0.3c6.6,5.8,8,15.7,3.3,23.1c2.8,0.6,4.8,3,4.8,5.9v5.5c0,0.7-0.1,1.4-0.4,2h0.4
	c3.3,0,6,2.7,6,6v3c0,0.7-0.1,1.4-0.4,2h3.4v-43c0-3.9,3.1-7,7-7h5C269.9,147,273,150.1,273,154z M222.9,151h9.9l-0.5-4h-7.8
	L222.9,151z M211,163c0,7.7,6.2,14,14,14c7.7,0,14-6.2,14-14c0-3.4-1.2-6.7-3.4-9.2c-0.7,0.7-1.8,1.2-2.8,1.2h-9.8c-2.2,0-4-1.8-4-4
	c0-0.2,0-0.4,0.1-0.6C214.1,152.7,211,157.6,211,163z M213,186h26c1.1,0,2-0.9,2-2v-5.5c0-1.1-0.9-2-2-2c-0.1,0-0.2,0-0.3,0
	l-2.2,0.3c-5.5,4.6-13.2,5.5-19.6,2.3l-4.2,0.5c-1,0.1-1.8,1-1.8,2v2.4C211,185.1,211.9,186,213,186z M205,190v7h40c1.1,0,2-0.9,2-2
	v-3c0-1.1-0.9-2-2-2H205z M201,158c0-2.8-2.2-5-5-5h-10c-0.6,0-1,0.4-1,1v43h16V158z M192,142h-5c-2.8,0-5,2.2-5,5c0,1.1,0.9,2,2,2
	h11c1.1,0,2-0.9,2-2C197,144.2,194.8,142,192,142z M164.1,91c1.1,8.8,9.1,15,17.9,13.8s15-9.1,13.8-17.9c-1-8-7.8-13.9-15.8-14
	c-0.7,0-1.4,0-2.1,0.1C169.2,74.3,163,82.3,164.1,91z M160.5,93.6c-0.2-0.7-0.3-1.4-0.4-2c-0.4-3.1-0.1-6.3,1-9.3
	c-0.3-0.1-0.7-0.2-1-0.2c-0.2,0-0.4,0-0.6,0.1c-2.1,0.5-3.1,3.7-2.3,6.8c0.4,1.8,1.5,3.4,3,4.4C160.3,93.5,160.4,93.5,160.5,93.6z
	 M128,158.9l5-0.5c0-0.1,0-0.3,0-0.4c0-5,4-9,9-9h7c4.2,0,7.8,2.9,8.7,6.9l23.3-2.4c0-0.4,0.1-0.8,0.3-1.2c-2-1-3.3-3.1-3.3-5.4
	c0-5,4-9,9-9h0.9l-1.7-15.8c-0.5-5-2.8-9.7-6.5-13.2c-4.3,0-8.5-1.5-12-4.2c-0.7-0.6-1.4-1.2-2-1.8c-0.3,0-0.6,0-0.9,0
	c-8.8,0-16.7,5.3-19.9,13.5L128,158.9z M140,161h11c1.7,0,3-1.3,3-3c0-2.8-2.2-5-5-5h-7c-2.8,0-5,2.2-5,5
	C137,159.7,138.3,161,140,161z M77,197h104v-39.5l-23.3,2.4c-0.9,3-3.6,5.1-6.7,5.1h-11c-2.2,0-4.2-1-5.5-2.7l-41.3,4.2
	C84,167.4,77,175.2,77,184.4V197z M269,154c0-1.7-1.3-3-3-3h-5c-1.7,0-3,1.3-3,3v45c0,1.1-0.9,2-2,2H75c-0.2,0-0.3,0-0.5-0.1
	c-0.2,0-0.3,0.1-0.5,0.1H64v59h11v-27c0-1.1,0.9-2,2-2h179c1.1,0,2,0.9,2,2v27h11V154z M220,171c1,0.5,2.2,0.1,2.7-0.8
	c0.5-0.9,2.7-1.4,4.1-1.4c1.1,0,2-0.9,2-2c0-0.2,0-0.5-0.1-0.7l-1.5-4c1.2-0.8,2.5-1.3,4-1.3c1.1-0.1,2-1,1.9-2.1
	c-0.1-1.1-1-2-2.1-1.9c-0.6,0-5.8,0.4-7.8,4.1c-0.3,0.5-0.3,1.1-0.1,1.6l1,2.7c-2,0.3-3.8,1.5-4.9,3.2
	C218.7,169.3,219,170.5,220,171C220,171,220,171,220,171z M222,135.5c0,1.1,0.9,2,2,2s2-0.9,2-2c0-1.5-0.4-2.9-1.3-4.1
	c-0.9-1.1-0.9-2.7,0-3.8c0.9-1.2,1.4-2.6,1.3-4.1c0-1.1-0.9-2-2-2s-2,0.9-2,2c0,0.7-0.2,1.4-0.7,1.9c-1.8,2.4-1.8,5.8,0,8.2
	C221.8,134.1,222,134.8,222,135.5z M230,135.5c0,1.1,0.9,2,2,2s2-0.9,2-2c0-1.5-0.4-2.9-1.3-4.1c-0.9-1.1-0.9-2.7,0-3.8
	c0.9-1.2,1.4-2.6,1.3-4.1c0-1.1-0.9-2-2-2s-2,0.9-2,2c0,0.7-0.2,1.4-0.7,1.9c-1.8,2.4-1.8,5.8,0,8.2
	C229.8,134.1,230,134.8,230,135.5z M64,145H52.9c-1.1,0-1.9,0.9-1.9,2v105c0,1.1-0.9,2-2,2s-2-0.9-2-2V147c0-3.3,2.6-6,5.9-6H56
	c-1.3-1.7-2-3.8-2-6v-5.1c-2.7-0.5-4.5-3.2-3.9-5.9c0.5-2.3,2.5-4,4.9-4h21c0-1.1,0.9-2,2-2h16c1.1,0,2,0.9,2,2h7c2.8,0,5,2.2,5,5
	c0,2.4-1.7,4.4-4,4.9v5.1c0,2.2-0.7,4.3-2,6h3.1c3.3,0,5.9,2.7,5.9,6v8c0,1.1-0.9,2-2,2s-2-0.9-2-2v-8c0-1.1-0.8-2-1.9-2H64z
	 M96,124v2h7c0.6,0,1-0.4,1-1s-0.4-1-1-1H96z M80,131.2c0.7-0.1,1.4-0.2,2.2-0.2c1.9,0,3.8,0.4,5.6,1.1c1.9,0.6,3,0.9,4.3,0.4V122
	H80V131.2z M54,125c0,0.6,0.4,1,1,1h21v-2H55C54.4,124,54,124.4,54,125z M64,141h30c3.3,0,6-2.7,6-6v-5h-4v3.8
	c0,0.7-0.4,1.3-0.9,1.7c-1.3,0.9-2.8,1.3-4.3,1.3c-1.5-0.1-2.9-0.4-4.2-0.9c-1.8-0.8-3.9-1-5.8-0.8c-2.2,0.4-4.2-1.1-4.6-3.3
	c0-0.2-0.1-0.4-0.1-0.7V130H58v5C58,138.3,60.7,141,64,141z M170,134c0,1.1-0.9,2-2,2s-2-0.9-2-2s0.9-2,2-2S170,132.9,170,134z
	 M169,144c0,1.1-0.9,2-2,2s-2-0.9-2-2s0.9-2,2-2S169,142.9,169,144z"/>
</svg>
