<?xml version="1.0" encoding="utf-8"?>
<!-- Generator: Adobe Illustrator 22.1.0, SVG Export Plug-In . SVG Version: 6.00 Build 0)  -->
<svg version="1.1" id="program_x5F_01" xmlns="http://www.w3.org/2000/svg" xmlns:xlink="http://www.w3.org/1999/xlink" x="0px"
	 y="0px" viewBox="0 0 320 320" style="enable-background:new 0 0 320 320;" xml:space="preserve">
<style type="text/css">
	.st0{fill:url(#SVGID_1_);}
</style>
<linearGradient id="SVGID_1_" gradientUnits="userSpaceOnUse" x1="235.9764" y1="38.9749" x2="111.6602" y2="254.2973" gradientTransform="matrix(1 0 0 -1 0 322)">
	<stop  offset="0" style="stop-color:#5674AF"/>
	<stop  offset="0.159" style="stop-color:#4F7DB4"/>
	<stop  offset="0.33" style="stop-color:#438DBC"/>
	<stop  offset="0.66" style="stop-color:#339FB9"/>
	<stop  offset="0.994" style="stop-color:#24B1B4"/>
</linearGradient>
<path class="st0" d="M258.4,255.1c0.4-0.8,0.6-1.7,0.6-2.7v-1.7c0-5.9-4.8-10.7-10.7-10.7h-1.8c-0.4,0-0.8,0-1.2,0.1
	c-3.3-5-8.9-8.1-14.9-8.1h-4.8c-5.2,0-10.2,2.2-13.8,6c-1.5-0.7-3.2-1-4.9-1l0,0v-20h13c1.1,0,2-0.9,2-2c0-0.4-0.1-0.9-0.4-1.2
	l-15-20c-0.4-0.5-1-0.8-1.6-0.8h-10v-18c0-1.1-0.9-2-2-2s-2,0.9-2,2v18H78v-33h47c1.1,0,2-0.9,2-2s-0.9-2-2-2H63.3l17.6-21H125
	c1.1,0,2-0.9,2-2s-0.9-2-2-2H80c-0.6,0-1.2,0.3-1.5,0.7l-21,25c-0.7,0.8-0.6,2.1,0.2,2.8c0.4,0.3,0.8,0.5,1.3,0.5h15v33H64
	c-0.6,0-1.2,0.3-1.6,0.8l-15,20c-0.7,0.9-0.5,2.1,0.4,2.8c0.3,0.3,0.8,0.4,1.2,0.4h13v51c0,1.1,0.9,2,2,2h194c1.1,0,2-0.9,2-2v-11
	C260,256.1,259.3,255.3,258.4,255.1z M207,241c1.5,0,3,0.4,4.3,1.2c0.9,0.5,2,0.3,2.6-0.5c2.8-3.6,7.1-5.7,11.7-5.7h4.8
	c5.1,0,9.8,2.8,12.2,7.3c0.4,0.8,1.4,1.2,2.3,1c0.5-0.1,1.1-0.2,1.6-0.2h1.8c3.7,0,6.7,3,6.7,6.7v1.7c0,1.4-1.2,2.6-2.6,2.6H207V241
	z M179,266h-21v-34h21V266z M203,266h-20v-36c0-1.1-0.9-2-2-2h-25c-1.1,0-2,0.9-2,2v36H66v-49h137V266z M64,213H53l12-16h139l12,16
	H64z M256,266h-49v-7h49V266z M170,168c-0.3,1.4-1.6,2.3-3,2s-2.3-1.6-2-3c0.2-1,1-1.8,2-2h1c1.1,0,2,0.9,2,2V168z M170,175.6v1.9
	c0,1.1-0.9,2-2,2s-2-0.9-2-2v-1.9c0-1.1,0.9-2,2-2S170,174.5,170,175.6z M166,186v-1c0.1-1.2,1.3-2.1,2.5-2c1.2,0.1,2.1,1.3,2,2.5
	c0,0.3-0.2,0.7-0.3,1l-0.6,0.8c-0.7,0.9-2,1-2.8,0.3C166.3,187.2,166,186.6,166,186z M180,171.2c0.9,0.7,1,2,0.3,2.8l-1,1.2
	c-0.7,0.9-1.9,1.1-2.8,0.4s-1.1-1.9-0.4-2.8c0,0,0.1-0.1,0.1-0.1l1-1.2C177.9,170.6,179.2,170.5,180,171.2z M175,177.4
	c0.9,0.7,1,2,0.3,2.8c0,0,0,0,0,0l-1,1.2c-0.7,0.8-2,0.9-2.8,0.2c-0.8-0.7-0.9-1.9-0.3-2.7l1-1.2C172.9,176.9,174.1,176.7,175,177.4
	z M184.5,165c1.1,0,2,0.9,2,2s-0.9,2-2,2l-0.1,0c-0.7,0.9-1.9,1-2.8,0.4c-0.9-0.7-1-1.9-0.4-2.8c0,0,0-0.1,0.1-0.1l0.6-0.8
	c0.4-0.5,0.9-0.7,1.6-0.7H184.5z M234.5,165c1.1,0,2,0.9,2,2s-0.9,2-2,2h-2c-1.1,0-2-0.9-2-2s0.9-2,2-2H234.5z M224.5,165
	c1.1,0,2,0.9,2,2s-0.9,2-2,2h-2c-1.1,0-2-0.9-2-2s0.9-2,2-2H224.5z M204.5,165c1.1,0,2,0.9,2,2s-0.9,2-2,2h-2c-1.1,0-2-0.9-2-2
	s0.9-2,2-2H204.5z M194.5,165c1.1,0,2,0.9,2,2s-0.9,2-2,2h-2c-1.1,0-2-0.9-2-2s0.9-2,2-2H194.5z M214.5,165c1.1,0,2,0.9,2,2
	s-0.9,2-2,2h-2c-1.1,0-2-0.9-2-2s0.9-2,2-2H214.5z M244.4,165c1.1,0,2,0.9,2,2s-0.9,2-2,2h-2c-1.1,0-2-0.9-2-2s0.9-2,2-2H244.4z
	 M190.3,52c0-1.1,0.9-2,2-2h2c1.1,0,2,0.9,2,2s-0.9,2-2,2h-2C191.2,54,190.3,53.1,190.3,52z M200.3,52c0-1.1,0.9-2,2-2h2
	c1.1,0,2,0.9,2,2s-0.9,2-2,2h-2C201.2,54,200.3,53.1,200.3,52z M254.4,165c1.1,0,2,0.9,2,2s-0.9,2-2,2h-2c-1.1,0-2-0.9-2-2
	s0.9-2,2-2H254.4z M160.3,52c0-1.1,0.9-2,2-2h2c1.1,0,2,0.9,2,2s-0.9,2-2,2h-2C161.2,54,160.3,53.1,160.3,52z M170.3,52
	c0-1.1,0.9-2,2-2h2c1.1,0,2,0.9,2,2s-0.9,2-2,2h-2C171.2,54,170.3,53.1,170.3,52C170.3,52,170.3,52,170.3,52L170.3,52z M180.3,52
	c0-1.1,0.9-2,2-2h2c1.1,0,2,0.9,2,2s-0.9,2-2,2h-2C181.2,54,180.3,53.1,180.3,52C180.3,52,180.3,52,180.3,52L180.3,52z M240.3,52
	c0-1.1,0.9-2,2-2h2c1.1,0,2,0.9,2,2s-0.9,2-2,2h-2C241.2,54,240.3,53.1,240.3,52C240.3,52,240.3,52,240.3,52L240.3,52z M250.3,52
	c0-1.1,0.9-2,2-2h2c1.1,0,2,0.9,2,2s-0.9,2-2,2h-2C251.2,54,250.3,53.1,250.3,52C250.3,52,250.3,52,250.3,52L250.3,52z M220.3,52
	c0-1.1,0.9-2,2-2h2c1.1,0,2,0.9,2,2s-0.9,2-2,2h-2C221.2,54,220.3,53.1,220.3,52C220.3,52,220.3,52,220.3,52L220.3,52z M230.3,52
	c0-1.1,0.9-2,2-2h2c1.1,0,2,0.9,2,2s-0.9,2-2,2h-2C231.2,54,230.3,53.1,230.3,52C230.3,52,230.3,52,230.3,52L230.3,52z M210.3,52
	c0-1.1,0.9-2,2-2h2c1.1,0,2,0.9,2,2s-0.9,2-2,2h-2C211.2,54,210.3,53.1,210.3,52C210.3,52,210.3,52,210.3,52L210.3,52z M272.4,158.9
	c-0.2,0.7-0.5,1.5-0.8,2.2c-0.5,1-1.7,1.4-2.7,0.9s-1.4-1.7-0.9-2.7c0.2-0.5,0.4-1,0.6-1.5c0.3-1.1,1.4-1.7,2.5-1.4
	C272.1,156.8,272.7,157.9,272.4,158.9L272.4,158.9z M273,138.4v2c0,1.1-0.9,2-2,2s-2-0.9-2-2v-2c0-1.1,0.9-2,2-2
	S273,137.3,273,138.4z M267.9,59.5c-0.5-1-0.1-2.2,0.9-2.7c1-0.5,2.2-0.1,2.7,0.9c0.3,0.7,0.6,1.4,0.9,2.2c0.3,1-0.2,2.2-1.3,2.5
	s-2.2-0.2-2.5-1.3c0,0,0,0,0-0.1C268.4,60.5,268.2,60,267.9,59.5z M131,137.8v-2c0-1.1,0.9-2,2-2s2,0.9,2,2v2c0,1.1-0.9,2-2,2
	S131,138.9,131,137.8z M266,164.9c0.5,1,0.1,2.2-0.9,2.7c0,0,0,0,0,0c-0.7,0.3-1.4,0.6-2.2,0.8c-1.1,0.3-2.2-0.3-2.5-1.3
	c0,0,0,0,0,0c-0.3-1.1,0.3-2.2,1.3-2.5c0.5-0.2,1.1-0.4,1.6-0.6C264.4,163.5,265.6,163.9,266,164.9z M131,147.8v-2c0-1.1,0.9-2,2-2
	s2,0.9,2,2v2c0,1.1-0.9,2-2,2S131,148.9,131,147.8z M260.3,51.9c0.3-1.1,1.4-1.7,2.5-1.4c0.7,0.2,1.5,0.5,2.2,0.8
	c1,0.5,1.4,1.7,0.9,2.7c-0.5,1-1.7,1.4-2.7,0.9c-0.5-0.2-1-0.4-1.6-0.6C260.6,54.1,260,53,260.3,51.9
	C260.3,51.9,260.3,51.9,260.3,51.9z M273,148.4v2c0,1.1-0.9,2-2,2s-2-0.9-2-2v-2c0-1.1,0.9-2,2-2S273,147.3,273,148.4z M273,78.4v2
	c0,1.1-0.9,2-2,2s-2-0.9-2-2v-2c0-1.1,0.9-2,2-2S273,77.3,273,78.4z M273,68.4v2c0,1.1-0.9,2-2,2s-2-0.9-2-2v-2c0-1.1,0.9-2,2-2
	S273,67.3,273,68.4z M273,88.4v2c0,1.1-0.9,2-2,2s-2-0.9-2-2v-2c0-1.1,0.9-2,2-2S273,87.3,273,88.4z M273,118.4v2c0,1.1-0.9,2-2,2
	s-2-0.9-2-2v-2c0-1.1,0.9-2,2-2S273,117.3,273,118.4z M273,128.4v2c0,1.1-0.9,2-2,2s-2-0.9-2-2v-2c0-1.1,0.9-2,2-2
	S273,127.3,273,128.4z M273,108.4v2c0,1.1-0.9,2-2,2s-2-0.9-2-2v-2c0-1.1,0.9-2,2-2S273,107.3,273,108.4z M273,98.4v2
	c0,1.1-0.9,2-2,2s-2-0.9-2-2v-2c0-1.1,0.9-2,2-2S273,97.3,273,98.4z M131,117.8v-2c0-1.1,0.9-2,2-2s2,0.9,2,2v2c0,1.1-0.9,2-2,2
	S131,118.9,131,117.8z M135,155.7c0,0.6,0.1,1.1,0.2,1.6c0.3,1.1-0.4,2.2-1.5,2.4c-1.1,0.3-2.2-0.4-2.4-1.5
	c-0.2-0.8-0.3-1.5-0.4-2.3c-0.1-1.1,0.8-2.1,1.9-2.1C134,153.7,134.9,154.6,135,155.7L135,155.7z M132.8,57.1
	c0.4-0.7,0.8-1.3,1.3-1.9c0.7-0.8,2-0.9,2.8-0.2c0.8,0.7,0.9,1.9,0.3,2.7c-0.4,0.4-0.7,0.9-0.9,1.4c-0.5,1-1.7,1.3-2.7,0.8
	C132.6,59.4,132.3,58.1,132.8,57.1C132.8,57.2,132.8,57.1,132.8,57.1L132.8,57.1z M131,67.8v-2c0-1.1,0.9-2,2-2s2,0.9,2,2v2
	c0,1.1-0.9,2-2,2S131,68.9,131,67.8z M131,77.8v-2c0-1.1,0.9-2,2-2s2,0.9,2,2v2c0,1.1-0.9,2-2,2S131,78.9,131,77.8z M131,87.8v-2
	c0-1.1,0.9-2,2-2s2,0.9,2,2v2c0,1.1-0.9,2-2,2S131,88.9,131,87.8z M131,97.8v-2c0-1.1,0.9-2,2-2s2,0.9,2,2v2c0,1.1-0.9,2-2,2
	S131,98.9,131,97.8z M138.8,162.8c0.4,0.3,0.9,0.7,1.4,0.9c1,0.5,1.3,1.8,0.8,2.7s-1.8,1.3-2.7,0.8l0,0c-0.7-0.4-1.3-0.8-1.9-1.3
	c-0.9-0.7-1-1.9-0.4-2.8S137.9,162.1,138.8,162.8C138.8,162.8,138.8,162.8,138.8,162.8L138.8,162.8z M150.3,52c0-1.1,0.9-2,2-2h2
	c1.1,0,2,0.9,2,2s-0.9,2-2,2h-2C151.2,54,150.3,53.1,150.3,52z M149,165c1.1,0,2,0.9,2,2s-0.9,2-2,2h-2c-1.1,0-2-0.9-2-2s0.9-2,2-2
	H149z M140.4,52.7c-0.2-1.1,0.4-2.1,1.5-2.4c0.8-0.2,1.5-0.3,2.3-0.3c1.1-0.1,2.1,0.8,2.1,1.9s-0.8,2.1-1.9,2.1
	c-0.6,0-1.1,0.1-1.6,0.2c-0.1,0-0.3,0.1-0.4,0.1C141.4,54.3,140.6,53.7,140.4,52.7z M131,127.8v-2c0-1.1,0.9-2,2-2s2,0.9,2,2v2
	c0,1.1-0.9,2-2,2S131,128.9,131,127.8z M159,165c1.1,0,2,0.9,2,2s-0.9,2-2,2h-2c-1.1,0-2-0.9-2-2s0.9-2,2-2H159z M131,107.8v-2
	c0-1.1,0.9-2,2-2s2,0.9,2,2v2c0,1.1-0.9,2-2,2S131,108.9,131,107.8z M222.5,99c0.8,0,1.5-0.1,2.3-0.2c1.8-0.3,3.6-0.9,5.1-1.9
	c0,0,0,0,0.1,0.1c1,1,2.4,1.5,3.8,1.5c0.4,0,0.8,0,1.2-0.1c1.8-0.4,3.5-1.3,4.8-2.6c3.1-3.1,3.6-7.4,1.2-9.8l0,0
	c-1.1-1-2.6-1.6-4.1-1.5c0-8-6.4-14.5-14.3-14.5c-0.8,0-1.6,0.1-2.4,0.2c-7.9,1.3-13.3,8.7-12,16.6C209.4,93.8,215.4,99,222.5,99z
	 M231,90.7c-3.4,4.7-10,5.7-14.7,2.3c-1.6-1.1-2.8-2.7-3.5-4.5c1.2-0.1,4.6-1,7-5.3c2.6,2.7,6.1,4.2,9.8,4.2c1,0,2-0.1,3-0.3h0
	C232.3,88.4,231.8,89.6,231,90.7L231,90.7z M234.2,93c1-1.3,1.7-2.8,2.2-4.4c0.1,0,0.2-0.1,0.3-0.1c0.2,0,0.3,0,0.5,0
	c0.4,0,0.7,0.1,1,0.3c0.7,0.7,0.3,2.7-1.2,4.2c-0.7,0.8-1.7,1.3-2.7,1.5c-0.4,0.1-0.8,0-1.2-0.1C233.5,93.9,233.9,93.5,234.2,93
	L234.2,93z M214,78.3c3.4-4.7,10-5.7,14.7-2.3c2.3,1.6,3.8,4.1,4.2,6.8c0,0.2,0,0.3,0.1,0.5c-0.3-0.1-0.7-0.2-1-0.1
	c-4.3,1-8.7-1.1-10.8-5c0,0,0,0,0-0.1c0-0.1-0.1-0.1-0.1-0.2c0-0.1-0.1-0.1-0.1-0.2s-0.1-0.1-0.1-0.1s-0.1-0.1-0.1-0.1
	s-0.1-0.1-0.1-0.1s-0.1-0.1-0.2-0.1c-0.1,0-0.1-0.1-0.2-0.1c-0.1,0-0.1-0.1-0.2-0.1c0,0,0,0-0.1,0s-0.1,0-0.1,0c-0.1,0-0.1,0-0.2,0
	s-0.1,0-0.2,0c-0.1,0-0.1,0-0.2,0c-0.1,0-0.2,0-0.2,0c0,0-0.1,0-0.1,0c-0.1,0-0.2,0.1-0.2,0.1c0,0-0.1,0-0.1,0s0,0-0.1,0
	c-0.1,0-0.1,0.1-0.2,0.1c0,0-0.1,0.1-0.1,0.1c-0.1,0-0.1,0.1-0.2,0.1c0,0-0.1,0.1-0.1,0.1c-0.1,0.1-0.2,0.2-0.2,0.3
	c0,0.1-0.1,0.1-0.1,0.2c0,0.1-0.1,0.1-0.1,0.2c0,0,0,0,0,0.1c-1.5,5.6-4.9,5.9-5.1,5.9c-0.1,0-0.2,0-0.3,0
	C212,82.3,212.7,80.1,214,78.3z M156.1,108.7l8.9,25c0,0,0,0.1,0,0.1v3.2h-19c-1.1,0-2,0.9-2,2v10c0,1.1,0.9,2,2,2h111
	c1.1,0,2-0.9,2-2v-10c0-1.1-0.9-2-2-2h-10.6l-4.4-22.4c-1.7-8.5-9.1-14.6-17.7-14.6h-3.1c-8.6,0-16.1,6.1-17.7,14.6L202,122h-3.4
	c-0.1,0-0.1,0-0.2,0l-5.2-14.7c-0.3-0.8-1-1.3-1.9-1.3h-33.3c-1.1,0-2,0.9-2,2C155.9,108.2,156,108.5,156.1,108.7z M255,141v6H148
	v-6H255z M220,133.8v-0.2c0-2,1.6-3.6,3.6-3.6h3.8c2,0,3.6,1.6,3.6,3.6c0,0.8-0.6,1.4-1.4,1.4h-8.5C220.5,135,220,134.5,220,133.8z
	 M221.2,104h3.1c2.2,0,4.3,0.5,6.2,1.5c-3.7,4.4-10.1,6.4-12.1,7c-2.4-1.4-3.9-3.9-4-6.7C216.5,104.6,218.8,104,221.2,104z
	 M207.4,115.4c0.5-2.5,1.7-4.9,3.4-6.8c0.9,3.5,3.3,6.4,6.6,7.8c0.2,0.1,0.5,0.1,0.7,0.1c0.1,0,0.3,0,0.4,0c0.4-0.1,10-2.3,15.2-8.8
	c2.2,2,3.7,4.7,4.3,7.6l4.2,21.6h-8.5c0.8-0.9,1.2-2.1,1.2-3.4c0-4.2-3.4-7.6-7.6-7.6h-3.8c-4.2,0-7.6,3.4-7.6,7.6v0.2
	c0,1.2,0.4,2.3,1.1,3.2H214v-4c0-1.1-0.9-2-2-2h-2.2c0.1-0.4,0.2-0.9,0.2-1.4c0-2.8-1.6-5.4-4.1-6.8L207.4,115.4z M202.4,126
	c2,0,3.6,1.6,3.6,3.6c0,0.8-0.6,1.4-1.4,1.4h-3l-1.8-5H202.4z M200.2,135h9.8v1h-41v-1H200.2z M189.9,110l7.5,21h-29.1l-7.5-21
	H189.9z M165.7,92.4l2,3.6c0.5,1,0.2,2.2-0.8,2.7c-1,0.5-2.2,0.2-2.7-0.8l0,0l-2-3.6c-0.5-1-0.2-2.2,0.8-2.7
	C164,91.1,165.2,91.4,165.7,92.4z M176,87c1.1,0,2,0.9,2,2v5.6c0,1.1-0.9,2-2,2s-2-0.9-2-2V89C174,87.9,174.9,87,176,87z
	 M186.3,92.4c0.5-1,1.8-1.3,2.7-0.8c1,0.5,1.3,1.8,0.8,2.7l0,0l-2,3.6c-0.5,1-1.8,1.3-2.7,0.8c-1-0.5-1.3-1.8-0.8-2.7L186.3,92.4z
	 M90,167c-1.1,0-2,0.9-2,2v15c0,1.1,0.9,2,2,2h15c1.1,0,2-0.9,2-2v-15c0-1.1-0.9-2-2-2H90z M103,182H92v-11h11V182z M78,248h15
	c1.1,0,2-0.9,2-2v-15c0-1.1-0.9-2-2-2H78c-1.1,0-2,0.9-2,2v15C76,247.1,76.9,248,78,248z M80,233h11v11H80V233z M102,248h15
	c1.1,0,2-0.9,2-2v-15c0-1.1-0.9-2-2-2h-15c-1.1,0-2,0.9-2,2v15C100,247.1,100.9,248,102,248z M104,233h11v11h-11V233z M113,169v15
	c0,1.1,0.9,2,2,2h15c1.1,0,2-0.9,2-2v-15c0-1.1-0.9-2-2-2h-15C113.9,167,113,167.9,113,169z M117,171h11v11h-11V171z M171,250
	c0-1.1,0.9-2,2-2s2,0.9,2,2s-0.9,2-2,2S171,251.1,171,250z M219,122c0,1.1-0.9,2-2,2s-2-0.9-2-2s0.9-2,2-2S219,120.9,219,122z"/>
</svg>
