<?xml version="1.0" encoding="utf-8"?>
<!-- Generator: Adobe Illustrator 22.1.0, SVG Export Plug-In . SVG Version: 6.00 Build 0)  -->
<svg version="1.1" id="program_x5F_06" xmlns="http://www.w3.org/2000/svg" xmlns:xlink="http://www.w3.org/1999/xlink" x="0px"
	 y="0px" viewBox="0 0 320 320" style="enable-background:new 0 0 320 320;" xml:space="preserve">
<style type="text/css">
	.st0{fill:url(#SVGID_1_);}
</style>
<linearGradient id="SVGID_1_" gradientUnits="userSpaceOnUse" x1="211.3256" y1="36.2374" x2="90.1563" y2="246.11" gradientTransform="matrix(1 0 0 -1 0 322)">
	<stop  offset="0" style="stop-color:#5674AF"/>
	<stop  offset="0.159" style="stop-color:#4F7DB4"/>
	<stop  offset="0.33" style="stop-color:#438DBC"/>
	<stop  offset="0.66" style="stop-color:#339FB9"/>
	<stop  offset="0.994" style="stop-color:#24B1B4"/>
</linearGradient>
<path class="st0" d="M189.4,235H271c1.1,0,2-0.9,2-2s-0.9-2-2-2h-2c1.3-1.7,2-3.8,2-6v-3c0-9.3-7.5-16.9-16.8-17h-2
	c-2.4,0-4.8,0.5-7,1.6c-4.8-5.5-11.8-8.6-19.1-8.6h-5.9c-8.9,0-17.2,4.6-21.9,12.2c-0.7-0.1-1.5-0.2-2.2-0.2h-1
	c-7.8,0-14.1,6.3-14,14.1v2.4c0,1.6,0.4,3.1,1.3,4.5H180c-1.1,0-2,0.9-2,2v16c0,1.1,0.9,2,2,2h91c1.1,0,2-0.9,2-2s-0.9-2-2-2h-89
	v-12H189.4z M185,226.5v-2.4c0-5.6,4.5-10.1,10-10.1h1c0.9,0,1.8,0.1,2.7,0.4c0.9,0.2,1.8-0.2,2.3-1c3.8-7,11.2-11.4,19.2-11.4h5.9
	c6.6,0,12.9,3.1,17,8.3c0.6,0.8,1.7,1,2.6,0.5c2-1.2,4.2-1.8,6.5-1.8h2c7.1,0.1,12.9,5.9,12.8,13v3c0,3.3-2.6,5.9-5.9,6h-71.7
	C187,231,185,229,185,226.5z M231,114.1V64.5c0-1-0.7-1.8-1.7-2l-90-14.5c-1.1-0.2-2.1,0.6-2.3,1.7c0,0.1,0,0.2,0,0.3v30.7
	l-64.6,19.5c-0.8,0.3-1.4,1-1.4,1.9V120c0,1.1,0.9,2,2,2s2-0.9,2-2v-16.4l62-18.7V125c0,1.1,0.9,2,2,2s2-0.9,2-2V52.3l86,13.8V183
	h-26v-17c0-1.1-0.9-2-2-2h-30c-1.1,0-2,0.9-2,2v17h-0.3c-1.1,0-2,0.9-2,2s0.9,2,2,2H271c1.1,0,2-0.9,2-2v-22
	C273,136.7,254.3,115.2,231,114.1z M171,183v-15h26v15H171z M269,183h-38v-64.9c21.1,1.2,38,20.9,38,45V183z M159,135
	c0-1.1,0.9-2,2-2h46c1.1,0,2,0.9,2,2s-0.9,2-2,2h-46C159.8,137,159,136.1,159,135z M159,118c0-1.1,0.9-2,2-2h46c1.1,0,2,0.9,2,2
	s-0.9,2-2,2h-46C159.8,120,159,119.1,159,118z M159,102c0-1.1,0.9-2,2-2h46c1.1,0,2,0.9,2,2s-0.9,2-2,2h-46
	C159.8,104,159,103.1,159,102z M159,87c0-1.1,0.9-2,2-2h46c1.1,0,2,0.9,2,2s-0.9,2-2,2h-46C159.8,89,159,88.1,159,87z M95,115v8
	c0,1.1-0.9,2-2,2s-2-0.9-2-2v-8c0-1.1,0.9-2,2-2S95,113.9,95,115z M105,123v-8c0-1.1,0.9-2,2-2s2,0.9,2,2v8c0,1.1-0.9,2-2,2
	S105,124.1,105,123z M118,123v-8c0-1.1,0.9-2,2-2s2,0.9,2,2v8c0,1.1-0.9,2-2,2S118,124.1,118,123z M91,135c0-1.1,0.9-2,2-2
	s2,0.9,2,2v8c0,1.1-0.9,2-2,2s-2-0.9-2-2V135z M105,135c0-1.1,0.9-2,2-2s2,0.9,2,2v8c0,1.1-0.9,2-2,2s-2-0.9-2-2V135z M118,135
	c0-1.1,0.9-2,2-2s2,0.9,2,2v8c0,1.1-0.9,2-2,2s-2-0.9-2-2V135z M143,179.8c-0.6,0.3-1.2,0.3-1.8,0c-0.8-0.4-8-3.9-10-7.9
	c-0.5-1-0.2-2.2,0.8-2.7s2.2-0.2,2.7,0.8c0,0,0,0.1,0,0.1c1,1.9,4.7,4.3,7.3,5.7c2.6-1.4,6.2-3.8,7.2-5.7c0.5-1,1.7-1.4,2.7-0.9
	c1,0.5,1.4,1.7,0.9,2.7c0,0,0,0,0,0.1C150.7,175.9,143.7,179.4,143,179.8z M142,131c-7.2,0-13,5.8-13.1,12.9c0,7.2,5.8,13,12.9,13.1
	c1.2,0,2.3-0.1,3.5-0.5c1.4,1.6,3.5,2.5,5.6,2.5c3.9,0,7-2.7,7-6c-0.1-2.3-1.5-4.3-3.6-5.2c2.1-6.9-1.8-14.1-8.6-16.2
	C144.6,131.2,143.3,131,142,131z M142,135c4.9,0,8.9,4,9,8.9c-0.1,0-0.2,0-0.2-0.1c-0.3,0-3-0.5-4-5.2c0,0,0,0,0,0
	c0-0.1,0-0.1-0.1-0.2c0-0.1,0-0.1-0.1-0.2c0-0.1-0.1-0.1-0.1-0.2c0-0.1-0.1-0.1-0.1-0.2c0,0-0.1-0.1-0.1-0.1c0-0.1-0.1-0.1-0.1-0.2
	c0,0,0,0,0,0c0,0-0.1,0-0.1-0.1c-0.1,0-0.1-0.1-0.2-0.1c-0.1,0-0.1-0.1-0.2-0.1c-0.1,0-0.1-0.1-0.2-0.1c-0.1,0-0.1,0-0.2,0
	c-0.1,0-0.1,0-0.2,0c-0.1,0-0.1,0-0.2,0c-0.1,0-0.1,0-0.2,0c-0.1,0-0.1,0-0.2,0c0,0-0.1,0-0.1,0c0,0,0,0,0,0c-0.1,0-0.1,0-0.2,0.1
	c-0.1,0-0.1,0-0.2,0.1s-0.1,0.1-0.2,0.1c-0.1,0-0.1,0.1-0.2,0.1c0,0-0.1,0.1-0.1,0.1c-0.1,0-0.1,0.1-0.2,0.2c0,0,0,0,0,0
	c0,0-4.3,4.8-9.7,3.9c-0.1,0-0.2,0-0.2,0C134.3,137.8,137.9,135,142,135z M133.2,145.7c0.6,0.1,1.2,0.1,1.8,0.1
	c3.3-0.1,6.4-1.2,8.9-3.2c1.1,2.7,3.4,4.6,6.3,5.2c-2.1,4.5-7.4,6.5-11.9,4.4C135.6,150.9,133.7,148.6,133.2,145.7z M154,153
	c0,1.1-1.4,2-3,2c-0.5,0-1.1-0.1-1.6-0.3c1.3-0.9,2.4-2,3.3-3.3C153.4,151.6,153.9,152.3,154,153z M69.5,153c7.5,0,13.5-6,13.5-13.5
	S77,126,69.5,126S56,132,56,139.5C56,147,62,153,69.5,153z M69.5,130c5.2,0,9.5,4.3,9.5,9.5c0,5.2-4.3,9.5-9.5,9.5
	c-4.9,0-9-3.7-9.5-8.6c0.2,0.9,1,1.6,2,1.6c2-0.2,3.9-1.2,5.1-2.8l1.9,2.1c0.4,0.4,0.9,0.7,1.5,0.7c4.2,0,6.9-4.5,7.2-5
	c0.6-1,0.2-2.2-0.7-2.7s-2.2-0.2-2.7,0.7c-0.7,1.2-1.8,2.2-3,2.9l-2.8-3.2c-0.7-0.8-2-0.9-2.8-0.2c-0.2,0.2-0.3,0.3-0.4,0.5
	c-0.5,1-2.1,3-3.2,3c-1,0-1.9,0.8-2,1.8c0-0.1,0-0.2,0-0.3C60,134.3,64.3,130,69.5,130z M77.8,160.7c1,0.5,1.3,1.8,0.8,2.7l-4.8,8.7
	c-0.9,1.6-2.6,2.6-4.4,2.6h-0.1c-1.8,0-3.5-1-4.4-2.7l-4.6-8.6c-0.5-1-0.1-2.2,0.9-2.7c1-0.5,2.1-0.1,2.6,0.8l4.6,8.6
	c0.2,0.3,0.5,0.5,0.9,0.5c0.4,0,0.7-0.2,0.9-0.5l4.8-8.7C75.6,160.5,76.9,160.2,77.8,160.7z M85.3,228.6l-1.6,42.5
	c0,1.1-0.9,1.9-2,1.9h-9c-1.1,0-2-0.8-2-1.9l-1.1-29.6l-1.1,29.5c0,1.1-0.9,1.9-2,1.9h-9c-1.1,0-2-0.8-2-1.9l-1.9-50.4
	c-2.4-0.8-4.1-3-4.3-5.6L47,171.4c-0.1-9.5,7.6-17.3,17.1-17.4c0,0,0,0,0,0h10.7c9.5,0.1,17.2,7.8,17.2,17.3l-0.7,14.4
	c0,1.1-1,2-2.1,1.9s-2-1-1.9-2.1c0,0,0-0.1,0-0.1l0.7-14.3c0-7.3-5.9-13.2-13.2-13.2H64.2c-7.3,0.1-13.2,6-13.2,13.3l2.2,43.6
	c0.1,1.2,1,2.1,2.2,2.1c1.1,0,2,0.8,2,1.9l1.9,50.1h5.2l1.9-50.1c0-1.1,0.9-1.9,2-1.9h2.3c1.1,0,2,0.8,2,1.9l1.9,50.1h5.2l1.6-40.6
	c0-1.1,0.9-1.9,2-1.9c0,0,0,0,0.1,0C84.5,226.5,85.3,227.5,85.3,228.6L85.3,228.6z M90.6,199.2l-0.3,5.6c-0.1,1.1-0.9,1.9-2,1.9
	c0,0-0.1,0-0.1,0c-1.1-0.1-2-1-1.9-2.1c0,0,0,0,0,0l0.3-5.6c0-1.1,1-2,2.1-1.9S90.7,198,90.6,199.2
	C90.6,199.2,90.6,199.2,90.6,199.2L90.6,199.2z M167,230.8c0.1,1.1-0.7,2.1-1.8,2.2c-0.1,0-0.2,0-0.2,0h-10.1l-2.9,38.1
	c-0.1,1-0.9,1.9-2,1.9h-5.5c-1.1,0-2-0.9-2-2v-38h-1v38c0,1.1-0.9,2-2,2H134c-1,0-1.9-0.8-2-1.9l-2.9-38.1h-5.3c-1.1,0-2-0.9-2-2
	s0.9-2,2-2h7.2c1,0,1.9,0.8,2,1.9l2.9,38.1h1.6v-38c0-1.1,0.9-2,2-2h5c1.1,0,2,0.9,2,2v38h1.6l2.9-38.1c0.1-1,0.9-1.9,2-1.9h9.7
	l-6.4-54c-0.8-6.8-6.5-12-13.4-12h-1.8c-6.9,0-12.7,5.2-13.4,12l-3.4,28.7c-0.1,1.1-1.1,1.9-2.2,1.7c-1.1-0.1-1.9-1.1-1.7-2.2l0,0
	l3.4-28.7c1-8.9,8.5-15.6,17.4-15.5h1.8c8.9,0,16.4,6.7,17.4,15.6L167,230.8z M129.6,213l-4.5-4.4c-0.4-0.4-0.9-0.6-1.4-0.6l0,0
	c-0.5,0-1,0.2-1.4,0.6l-13,13.1H98.4l-13-13.1c-0.4-0.4-0.9-0.6-1.4-0.6l0,0c-0.5,0-1,0.2-1.4,0.6l-4.5,4.4
	c-0.7,0.7-0.8,1.9-0.1,2.7l13,16V254c0,0.9,0.6,1.7,1.4,1.9l1.2,15.2c0.1,1,1,1.8,2,1.8h6.2c1,0,1.8-0.7,2-1.7c0.2,1,1,1.7,2,1.7
	h6.2c1,0,1.9-0.8,2-1.8l1.2-15.2c1-0.1,1.7-1,1.7-2v-22.3l12.8-16C130.4,214.9,130.4,213.8,129.6,213L129.6,213z M111.5,253.8
	l-1.2,15.2h-2.5l-1.2-15.2c-0.1-1-1-1.8-2-1.8h-1.2c-1,0-1.9,0.8-2,1.8l-1.2,15.2h-2.5l-1.2-15.2c-0.1-0.8-0.6-1.4-1.3-1.7V246h18
	v6.1C112.2,252.2,111.5,253,111.5,253.8z M113.4,229.7c-0.3,0.4-0.4,0.8-0.4,1.2v11H95v-11c0-0.5-0.2-0.9-0.4-1.3l-12.3-15.1
	l1.8-1.8l12.2,12.2c0.4,0.4,0.9,0.6,1.4,0.6h12.5c0.5,0,1-0.2,1.4-0.6l12.2-12.2l1.8,1.8L113.4,229.7z M93.5,210
	c0,5.8,4.7,10.5,10.5,10.5s10.5-4.7,10.5-10.5s-4.7-10.5-10.5-10.5C98.2,199.5,93.5,204.2,93.5,210z M104,216.5c-2.6,0-5-1.6-6-4
	c0.3,0.2,0.6,0.3,0.9,0.3c2,0.1,3.8-0.8,5.1-2.2c1.2,1.4,2.9,2.2,4.7,2.3c0.1,0,0.3,0,0.4,0c0.3,0,0.6-0.1,0.9-0.3
	C109,214.9,106.6,216.5,104,216.5z M104,203.5c3.5,0,6.3,2.7,6.5,6.2c-0.4-0.6-1.1-0.9-1.8-0.8c0,0-1.6,0-2.9-2.7
	c-0.5-1-1.6-1.4-2.7-1c-0.4,0.2-0.8,0.6-1,1c-1.2,2.6-2.7,2.7-2.9,2.7h0c-0.7-0.1-1.3,0.2-1.7,0.8C97.7,206.2,100.6,203.5,104,203.5
	z M104,186c1.1,0,2,0.9,2,2v4c0,1.1-0.9,2-2,2s-2-0.9-2-2v-4C102,186.9,102.9,186,104,186z M95.8,194c0.6,0.9,0.4,2.1-0.5,2.8
	c-0.9,0.6-2.1,0.4-2.8-0.5c0,0,0,0,0,0l-2.2-3.2c-0.6-0.9-0.4-2.1,0.5-2.8c0.9-0.6,2.1-0.4,2.8,0.5c0,0,0,0,0,0L95.8,194z
	 M117.8,193l-2.2,3.2c-0.6,0.9-1.9,1.2-2.8,0.5c-0.9-0.6-1.2-1.9-0.5-2.8c0,0,0,0,0,0l2.2-3.2c0.6-0.9,1.9-1.2,2.8-0.5
	C118.2,190.8,118.4,192.1,117.8,193C117.8,193,117.8,193,117.8,193z M243,156v4c0,1.1-0.9,2-2,2s-2-0.9-2-2v-4c0-1.1,0.9-2,2-2
	S243,154.9,243,156z M252,156v4c0,1.1-0.9,2-2,2s-2-0.9-2-2v-4c0-1.1,0.9-2,2-2S252,154.9,252,156z M243,169v4c0,1.1-0.9,2-2,2
	s-2-0.9-2-2v-4c0-1.1,0.9-2,2-2S243,167.9,243,169z M252,169v4c0,1.1-0.9,2-2,2s-2-0.9-2-2v-4c0-1.1,0.9-2,2-2S252,167.9,252,169z
	 M257,160v-4c0-1.1,0.9-2,2-2s2,0.9,2,2v4c0,1.1-0.9,2-2,2S257,161.1,257,160z M257,173v-4c0-1.1,0.9-2,2-2s2,0.9,2,2v4
	c0,1.1-0.9,2-2,2S257,174.1,257,173z M144,185c0,1.1-0.9,2-2,2s-2-0.9-2-2s0.9-2,2-2S144,183.9,144,185z M144,192c0,1.1-0.9,2-2,2
	s-2-0.9-2-2s0.9-2,2-2S144,190.9,144,192z M144,199c0,1.1-0.9,2-2,2s-2-0.9-2-2s0.9-2,2-2S144,197.9,144,199z"/>
</svg>
