<?xml version="1.0" encoding="utf-8"?>
<!-- Generator: Adobe Illustrator 22.1.0, SVG Export Plug-In . SVG Version: 6.00 Build 0)  -->
<svg version="1.1" id="program_x5F_05" xmlns="http://www.w3.org/2000/svg" xmlns:xlink="http://www.w3.org/1999/xlink" x="0px"
	 y="0px" viewBox="0 0 320 320" style="enable-background:new 0 0 320 320;" xml:space="preserve">
<style type="text/css">
	.st0{fill:url(#SVGID_1_);}
</style>
<linearGradient id="SVGID_1_" gradientUnits="userSpaceOnUse" x1="203.5801" y1="50.9514" x2="92.1216" y2="244.0036" gradientTransform="matrix(1 0 0 -1 0 322)">
	<stop  offset="0" style="stop-color:#5674AF"/>
	<stop  offset="0.159" style="stop-color:#4F7DB4"/>
	<stop  offset="0.33" style="stop-color:#438DBC"/>
	<stop  offset="0.66" style="stop-color:#339FB9"/>
	<stop  offset="0.994" style="stop-color:#24B1B4"/>
</linearGradient>
<path class="st0" d="M197.3,104.2c0.5-1,1.8-1.3,2.7-0.8c12.9,7.2,23.7,17.7,31.4,30.3l0.8-3c0.3-1.1,1.4-1.7,2.4-1.4
	c1.1,0.3,1.7,1.4,1.4,2.4l0,0l-2.1,7.7c-0.2,0.9-1,1.5-1.9,1.5c-0.2,0-0.3,0-0.5-0.1l-7.7-2.1c-1.1-0.2-1.8-1.3-1.5-2.4
	s1.3-1.8,2.4-1.5c0.1,0,0.1,0,0.2,0l3.1,0.8c-7.3-12.1-17.7-22-30-28.9C197.1,106.4,196.7,105.2,197.3,104.2
	C197.3,104.2,197.3,104.2,197.3,104.2z M86,139.5c0.2,0.9,1,1.5,1.9,1.5c0.2,0,0.3,0,0.5-0.1l7.7-2.1c1.1-0.2,1.8-1.3,1.5-2.4
	c-0.2-1.1-1.3-1.8-2.4-1.5c-0.1,0-0.1,0-0.2,0l-3.5,0.9c7.4-12.2,17.9-22.3,30.3-29.2c1-0.5,1.4-1.7,0.9-2.7c-0.5-1-1.7-1.4-2.7-0.9
	c0,0-0.1,0-0.1,0.1c-12.9,7.2-23.8,17.5-31.5,30.1l-0.7-2.6c-0.3-1.1-1.4-1.7-2.4-1.4c-1.1,0.3-1.7,1.4-1.4,2.4L86,139.5z
	 M133.9,66.5c0.6,0.9,1.9,1.1,2.8,0.5c0.9-0.6,1.1-1.9,0.5-2.8l-5-7.2c-0.6-0.9-1.9-1.1-2.8-0.5c-0.9,0.6-1.1,1.9-0.5,2.8
	L133.9,66.5z M160,59.2c1.1,0,2-0.9,2-2V49c0-1.1-0.9-2-2-2s-2,0.9-2,2v8.2C158,58.3,158.9,59.2,160,59.2
	C160,59.2,160,59.2,160,59.2z M183.3,67c0.9,0.6,2.2,0.4,2.8-0.5l5-7.2c0.6-0.9,0.4-2.2-0.5-2.8c-0.9-0.6-2.1-0.4-2.8,0.5l-5,7.2
	C182.1,65.1,182.4,66.4,183.3,67z M148,113v-6c0-1.1,0.9-2,2-2h5v-5c0-1.1,0.9-2,2-2h6c1.1,0,2,0.9,2,2v5h5c1.1,0,2,0.9,2,2v6
	c0,1.1-0.9,2-2,2h-5v5c0,1.1-0.9,2-2,2h-6c-1.1,0-2-0.9-2-2v-5h-5C148.9,115,148,114.1,148,113z M152,111h5c1.1,0,2,0.9,2,2v5h2v-5
	c0-1.1,0.9-2,2-2h5v-2h-5c-1.1,0-2-0.9-2-2v-5h-2v5c0,1.1-0.9,2-2,2h-5V111z M150.1,195.2c0.1,0,0.1,0,0.2,0c3.6-0.3,5.3-4.5,5.4-5
	c0.4-1-0.1-2.2-1.2-2.6s-2.2,0.1-2.6,1.2l0,0c-0.4,1-1.3,2.4-2,2.4c-1.1,0.1-1.9,1.1-1.8,2.2C148.2,194.4,149.1,195.2,150.1,195.2
	L150.1,195.2z M158.1,195.2c0.1,0,0.1,0,0.2,0c3.6-0.3,5.3-4.5,5.4-5c0.4-1-0.1-2.2-1.2-2.6s-2.2,0.1-2.6,1.2l0,0
	c-0.4,1-1.3,2.4-2,2.4c-1.1,0.1-1.9,1.1-1.8,2.2C156.2,194.4,157.1,195.2,158.1,195.2L158.1,195.2z M166.1,195.2c0.1,0,0.1,0,0.2,0
	c3.6-0.3,5.3-4.5,5.4-5c0.4-1-0.1-2.2-1.2-2.6s-2.2,0.1-2.6,1.2l0,0c-0.4,1-1.3,2.4-2,2.4c-1.1,0.1-1.9,1.1-1.8,2.2
	C164.2,194.4,165.1,195.2,166.1,195.2L166.1,195.2z M270,183v20c0,1.1-0.9,2-2,2h-8.5c-1.1,0-1.9-0.8-2-1.9
	c-0.3-6.3-5.8-11.2-12.5-11.2s-12.2,4.9-12.5,11.2c-0.1,1.1-0.9,1.9-2,1.9H222c-1.1,0-2-0.9-2-2v-20c0-3.3,2.7-6,6-6h7v-13h-5
	c-1.1,0-2-0.9-2-2c0-0.5,0.2-1.1,0.6-1.4l17-16.2c0.8-0.7,2-0.7,2.8,0l17,16.2c0.8,0.8,0.8,2,0.1,2.8c-0.4,0.4-0.9,0.6-1.4,0.6h-5
	v13h7C267.3,177,270,179.7,270,183z M233,160h24l-12-11.4L233,160z M237,177h16v-13h-16V177z M266,183c0-1.1-0.9-2-2-2h-38
	c-1.1,0-2,0.9-2,2v18h4.7c1.9-9,10.8-14.7,19.8-12.7c6.4,1.4,11.3,6.4,12.7,12.7h4.7V183z M65,177h6c1.1,0,2-0.9,2-2s-0.9-2-2-2h-6
	c-1.1,0-2,0.9-2,2S63.9,177,65,177z M65,186h6c1.1,0,2-0.9,2-2s-0.9-2-2-2h-6c-1.1,0-2,0.9-2,2S63.9,186,65,186z M65,195h6
	c1.1,0,2-0.9,2-2s-0.9-2-2-2h-6c-1.1,0-2,0.9-2,2S63.9,195,65,195z M124.1,237.9c0-1.1-0.9-2-2-2h-59c-1.1,0-2,0.9-2,2s0.9,2,2,2h59
	C123.2,239.9,124.1,239.1,124.1,237.9C124.1,237.9,124.1,237.9,124.1,237.9z M256.9,235.9h-59c-1.1,0-2,0.9-2,2s0.9,2,2,2h59
	c1.1,0,2-0.9,2-2S258,235.9,256.9,235.9z M204.3,258.3c1,2.6,1,5.6-0.3,8.1l-0.2,0.5c-1.8,3.7-5.6,6.1-9.7,6.1
	c-1.5,0-3.1-0.3-4.5-0.9c-18.9-8-40.2-8-59.1,0c-5.3,2.4-11.6,0.1-14.2-5.1l-0.3-0.6c-1.2-2.5-1.3-5.5-0.2-8.1
	c1.3-3.3,3.8-5.9,7-7.2c3.4-1.4,7-2.7,10.5-3.7l2.3-20c0.7-7.5,4.7-14.4,11-18.7c-8.2-7.4-8.8-20.1-1.4-28.3
	c7.4-8.2,20.1-8.8,28.3-1.4c8.2,7.4,8.8,20.1,1.4,28.3c-0.4,0.5-0.9,0.9-1.4,1.4c6.3,4.3,10.3,11.1,11,18.7l2.3,19.9
	c3.6,1,7.1,2.3,10.5,3.7C200.5,252.5,203,255.1,204.3,258.3L204.3,258.3z M160,210c8.8,0,16-7.2,16-16s-7.2-16-16-16s-16,7.2-16,16
	C144,202.8,151.2,210,160,210z M143.3,217.5c0.2,0.2,0.4,0.4,0.5,0.6c2.6,5.4,8.5,8.9,15.1,8.9h2.1c6.6,0,12.5-3.5,15.1-8.9
	c0.1-0.2,0.3-0.5,0.5-0.6c-1.7-2.6-4-4.7-6.7-6.2c-6.2,3.6-13.7,3.6-19.9,0C147.4,212.8,145.1,215,143.3,217.5L143.3,217.5z
	 M200.5,259.7c-0.9-2.2-2.6-4-4.8-4.9l0,0c-3.7-1.6-7.5-2.9-11.3-3.9c-0.8-0.2-1.4-0.9-1.5-1.7l-2.5-21.3c-0.2-2.2-0.8-4.3-1.6-6.3
	c-3.9,6-10.6,9.6-17.8,9.4h-2.1c-7.1,0.1-13.9-3.4-17.8-9.4c-0.8,2-1.3,4.1-1.6,6.3l-2.5,21.3c-0.1,0.8-0.7,1.5-1.5,1.7
	c-3.9,1.1-7.7,2.4-11.3,3.9c-2.2,0.9-4,2.7-4.8,4.9c-0.7,1.6-0.6,3.4,0.1,5l0.3,0.6c1.7,3.3,5.7,4.7,9.1,3.1
	c19.9-8.4,42.3-8.4,62.2,0c3.4,1.5,7.4,0.1,9.1-3.2l0.2-0.5C201.2,263.2,201.2,261.3,200.5,259.7L200.5,259.7z M127.9,122.8
	c-1.1-2.2-1.7-4.6-1.7-7.1v-0.2c0-5.2,2.2-10.2,6.2-13.7v-4.9c0-11.1,7.6-19.4,19.1-21.4c0-0.2,0-0.4,0-0.6c0-3.2,2.6-5.7,5.7-5.8
	c1.1,0,2.2,0.3,3.1,1c0.9-0.6,2-1,3.2-1c3.2,0,5.7,2.6,5.7,5.8c0,0.2,0,0.4,0,0.6c11.2,2.1,18.7,10.3,18.7,21.3v5
	c1.6,1.4,2.9,3.1,3.9,4.9c0.2,0.3,0.3,0.7,0.5,1c1,2.1,1.5,4.3,1.7,6.6c0,0.4,0,0.8,0,1.2v0.2c0,0.7,0,1.3-0.1,2
	c0,0.3-0.1,0.6-0.1,1c-0.2,1.3-0.6,2.5-1.1,3.7c-0.1,0.3-0.3,0.6-0.4,0.9c-1.1,2.1-2.5,3.9-4.2,5.5c-0.3,0.2-0.5,0.5-0.8,0.7
	c-2.3,1.8-4.8,3.2-7.6,4.1c-0.4,0.1-0.7,0.2-1.1,0.3c-1.9,0.6-3.9,0.9-6,1.1c-0.8,0.1-1.7,0.1-2.6,0.1h-18.4
	c-4.5,0.1-9-0.8-13.2-2.7c-1.5-0.7-3-1.6-4.4-2.6c-0.9-0.6-1.7-1.3-2.4-2.1C130,126.2,128.8,124.6,127.9,122.8z M161.6,74.8
	c0,0,0,0.1,0,0.1h1.4c0.7,0,1.4,0,2,0.1c0-0.1,0-0.1,0-0.2c0-0.9-0.7-1.7-1.7-1.8s-1.7,0.7-1.8,1.7
	C161.6,74.7,161.6,74.7,161.6,74.8z M155.4,74.9c0.6,0,1.1,0,1.7,0h0.6c0,0,0-0.1,0-0.1c0-0.5,0.1-1.1,0.2-1.6
	c-0.2-0.1-0.5-0.2-0.8-0.2c-1,0-1.7,0.8-1.7,1.8C155.3,74.8,155.4,74.9,155.4,74.9z M136.3,99c1.2-0.5,2.3-1.2,3.3-2.1
	c0.2-9.3,7-14.9,18.2-14.9h4.3c11.3,0,18.1,5.6,18.2,14.9c1,0.8,2.1,1.5,3.3,2.1v-2.2c0-10.7-8.3-17.9-20.7-17.9h-6
	c-12.4,0-20.7,7.2-20.7,17.9L136.3,99z M130.2,115.7c0,1.9,0.4,3.7,1.3,5.3c0.7,1.4,1.7,2.7,2.8,3.9c0.6,0.6,1.3,1.2,2,1.7
	c1.1,0.8,2.4,1.6,3.6,2.1c3.6,1.6,7.5,2.4,11.5,2.3h18.4c0.8,0,1.5,0,2.3-0.1c1.7-0.1,3.5-0.4,5.2-0.9c0.3-0.1,0.6-0.2,0.9-0.3
	c2.3-0.7,4.5-1.9,6.3-3.4c0.2-0.2,0.4-0.4,0.6-0.5c1.4-1.2,2.5-2.7,3.4-4.3c0.1-0.2,0.2-0.4,0.3-0.7c0.4-0.9,0.7-1.9,0.9-2.8
	c0-0.2,0.1-0.5,0.1-0.7c0.1-0.5,0.1-1,0.1-1.5v-0.2c0-0.3,0-0.6,0-0.9l0,0c-0.1-1.8-0.6-3.5-1.3-5.1c-0.1-0.3-0.3-0.5-0.4-0.8
	c-1.4-2.5-3.5-4.6-6.1-5.9c-0.2-0.1-0.4-0.2-0.6-0.4c-2.2-1.1-4.5-2.5-5-4.5c0-0.1,0-0.3,0-0.4c0-9.8-8.9-11.3-14.2-11.3h-4.3
	c-5.3,0-14.2,1.5-14.2,11.3c0,0.2,0,0.3,0,0.5c-0.5,2.2-3,3.5-5.3,4.7c-0.1,0.1-0.2,0.1-0.3,0.2c-4.8,2.5-7.8,7.4-7.8,12.8
	L130.2,115.7z M61.4,206c-2.5,0-4.5-2-4.5-4.5v-31.7c0-1.6,0.5-3.1,1.4-4.4c-1.9-2-1.8-5.1,0.2-7c0.8-0.7,1.7-1.2,2.7-1.3
	c0-0.1,0-0.1,0-0.2l0,0c0,0,0-0.1,0-0.1c0-4.1,2-7,6.2-9v-0.4c0-2.9,2.2-5.3,5.1-5.4c1.4-0.1,2.8,0.5,3.9,1.5c1.1,1.1,1.7,2.5,1.7,4
	v0.3c4,1.8,6,4.6,6.2,8.4c0.1,0.2,0.1,0.4,0.1,0.7c0,0.1,0,0.1,0,0.2c2.7,0.2,4.8,2.6,4.5,5.4c-0.1,1.1-0.6,2.2-1.4,3.1
	c0.8,1.3,1.3,2.8,1.3,4.3v31.7c0,2.5-2,4.5-4.5,4.5H61.4z M65.3,156.7c0,0,0,0.1,0,0.1s0,0.1,0,0.1h15.1c0-0.1,0-0.2,0-0.2
	c0-2.7-1.5-4.4-4.9-5.8c-0.8-0.3-1.3-1-1.3-1.9v-1.6c0-0.4-0.2-0.8-0.5-1.1c-0.2-0.2-0.6-0.4-0.9-0.4c-0.7,0.1-1.3,0.7-1.3,1.4v1.7
	c0,0.8-0.5,1.6-1.3,1.9C66.7,152.3,65.3,154,65.3,156.7L65.3,156.7z M61,162c0,0.6,0.4,1,1,1h22c0.6,0,1-0.4,1-1s-0.4-1-1-1H62
	C61.4,161,61,161.4,61,162z M61.4,202h22.9c0.3,0,0.5-0.2,0.5-0.5v-31.7c0-1-0.4-2-1.1-2.8H62.2c-0.8,0.7-1.3,1.7-1.3,2.8v31.7
	C60.9,201.8,61.1,202,61.4,202z M162,248c0,1.1-0.9,2-2,2s-2-0.9-2-2s0.9-2,2-2S162,246.9,162,248z M162,241c0,1.1-0.9,2-2,2
	s-2-0.9-2-2s0.9-2,2-2S162,239.9,162,241z"/>
</svg>
