<?xml version="1.0" encoding="utf-8"?>
<!-- Generator: Adobe Illustrator 22.1.0, SVG Export Plug-In . SVG Version: 6.00 Build 0)  -->
<svg version="1.1" id="stage_x5F_01" xmlns="http://www.w3.org/2000/svg" xmlns:xlink="http://www.w3.org/1999/xlink" x="0px"
	 y="0px" viewBox="0 0 200 200" style="enable-background:new 0 0 200 200;" xml:space="preserve">
<style type="text/css">
	.st0{fill:#FFFFFF;}
	.st1{fill:#24B1B4;}
	.st2{fill:url(#SVGID_1_);}
</style>
<circle class="st0" cx="100" cy="100" r="98.5"/>
<path class="st1" d="M102.3,200c-0.8,0-1.5-0.6-1.5-1.5l0,0c0-0.8,0.6-1.5,1.5-1.5l0,0c0.8,0,1.5,0.6,1.5,1.5l0,0
	C103.8,199.3,103.2,200,102.3,200L102.3,200L102.3,200z M96.2,199.9c-0.8,0-1.5-0.7-1.4-1.6l0,0c0-0.8,0.7-1.5,1.6-1.4l0,0
	c0.8,0,1.5,0.7,1.4,1.5l0,0C97.8,199.3,97.1,199.9,96.2,199.9L96.2,199.9C96.3,199.9,96.2,199.9,96.2,199.9z M106.8,198.3
	c-0.1-0.8,0.5-1.6,1.4-1.6l0,0c0.8-0.1,1.5,0.5,1.6,1.4l0,0c0.1,0.8-0.5,1.6-1.4,1.6l0,0c0,0-0.1,0-0.1,0l0,0
	C107.5,199.6,106.9,199.1,106.8,198.3z M90.1,199.5L90.1,199.5L90.1,199.5c-0.8-0.1-1.4-0.8-1.4-1.6l0,0c0.1-0.8,0.8-1.4,1.6-1.3
	l0,0c0.8,0.1,1.4,0.8,1.4,1.6l0,0c-0.1,0.8-0.7,1.3-1.5,1.3l0,0C90.2,199.5,90.2,199.5,90.1,199.5z M112.8,197.7
	c-0.1-0.8,0.4-1.6,1.3-1.7l0,0c0.8-0.1,1.6,0.5,1.7,1.3l0,0c0.1,0.8-0.5,1.6-1.3,1.7l0,0c-0.1,0-0.1,0-0.2,0l0,0
	C113.5,199,112.9,198.4,112.8,197.7z M84.1,198.7L84.1,198.7L84.1,198.7c-0.8-0.1-1.4-0.9-1.2-1.7l0,0c0.1-0.8,0.9-1.4,1.7-1.2l0,0
	c0.8,0.1,1.4,0.9,1.2,1.7l0,0c-0.1,0.7-0.8,1.3-1.5,1.3l0,0C84.3,198.8,84.2,198.8,84.1,198.7z M118.7,196.7
	c-0.2-0.8,0.3-1.6,1.2-1.8l0,0c0.8-0.2,1.6,0.3,1.8,1.2l0,0c0.2,0.8-0.3,1.6-1.2,1.8l0,0l0,0l0,0c-0.1,0-0.2,0-0.3,0l0,0
	C119.5,197.9,118.9,197.4,118.7,196.7z M78.1,197.6c-0.8-0.2-1.3-1-1.1-1.8l0,0c0.2-0.8,1-1.3,1.8-1.1l0,0c0.8,0.2,1.3,1,1.1,1.8
	l0,0c-0.1,0.7-0.8,1.2-1.5,1.2l0,0C78.3,197.6,78.2,197.6,78.1,197.6z M124.6,195.4c-0.2-0.8,0.2-1.6,1-1.8l0,0
	c0.8-0.2,1.6,0.2,1.8,1.1l0,0c0.2,0.8-0.2,1.6-1,1.8l0,0c-0.1,0-0.3,0.1-0.4,0.1l0,0C125.4,196.5,124.8,196.1,124.6,195.4z
	 M72.2,196.1c-0.8-0.2-1.3-1.1-1-1.9l0,0c0.2-0.8,1.1-1.3,1.9-1l0,0c0.8,0.2,1.2,1.1,1,1.9l0,0c-0.2,0.7-0.8,1.1-1.4,1.1l0,0
	C72.5,196.1,72.3,196.1,72.2,196.1z M130.3,193.7c-0.3-0.8,0.2-1.6,0.9-1.9l0,0c0.8-0.3,1.6,0.2,1.9,0.9l0,0
	c0.3,0.8-0.1,1.6-0.9,1.9l0,0l0,0l0,0c-0.2,0-0.3,0.1-0.5,0.1l0,0C131.1,194.8,130.6,194.4,130.3,193.7z M66.4,194.2
	c-0.8-0.3-1.2-1.1-0.9-1.9l0,0c0.3-0.8,1.1-1.2,1.9-0.9l0,0c0.8,0.3,1.2,1.1,0.9,1.9l0,0c-0.2,0.6-0.8,1-1.4,1l0,0
	C66.7,194.3,66.6,194.3,66.4,194.2z M136,191.7c-0.3-0.8,0-1.6,0.8-2l0,0c0.8-0.3,1.6,0,2,0.8l0,0c0.3,0.8-0.1,1.6-0.8,2l0,0l0,0
	l0,0c-0.2,0.1-0.4,0.1-0.6,0.1l0,0C136.8,192.6,136.2,192.3,136,191.7z M60.7,192c-0.8-0.3-1.1-1.2-0.8-2l0,0c0.3-0.8,1.2-1.1,2-0.8
	l0,0c0.8,0.3,1.1,1.2,0.8,2l0,0c-0.2,0.6-0.8,0.9-1.4,0.9l0,0C61.1,192.1,60.9,192.1,60.7,192z M141.5,189.4c-0.4-0.8,0-1.6,0.7-2
	l0,0c0.8-0.4,1.7,0,2,0.7l0,0c0.4,0.7,0,1.6-0.7,2l0,0l0,0l0,0c-0.2,0.1-0.4,0.2-0.7,0.2l0,0C142.3,190.2,141.8,189.9,141.5,189.4z
	 M55.2,189.4c-0.7-0.4-1-1.3-0.7-2l0,0c0.4-0.7,1.3-1,2-0.7l0,0c0.7,0.4,1,1.3,0.7,2l0,0c-0.3,0.5-0.8,0.8-1.3,0.8l0,0
	C55.6,189.6,55.4,189.5,55.2,189.4z M146.9,186.6c-0.4-0.7-0.1-1.6,0.6-2l0,0c0.7-0.4,1.6-0.1,2,0.6l0,0c0.4,0.7,0.2,1.6-0.6,2l0,0
	c-0.2,0.1-0.5,0.2-0.7,0.2l0,0C147.7,187.4,147.2,187.1,146.9,186.6z M49.8,186.5c-0.7-0.4-1-1.3-0.5-2.1l0,0c0.4-0.7,1.3-1,2-0.5
	l0,0c0.7,0.4,1,1.3,0.6,2l0,0c-0.3,0.5-0.8,0.8-1.3,0.8l0,0C50.3,186.7,50.1,186.7,49.8,186.5z M152.1,183.6
	c-0.5-0.7-0.2-1.6,0.5-2.1l0,0c0.7-0.5,1.6-0.2,2.1,0.4l0,0c0.4,0.7,0.2,1.6-0.5,2.1l0,0c-0.2,0.2-0.5,0.2-0.8,0.2l0,0
	C152.9,184.3,152.4,184.1,152.1,183.6z M44.6,183.3c-0.7-0.5-0.9-1.4-0.4-2.1l0,0c0.5-0.7,1.4-0.9,2.1-0.4l0,0
	c0.7,0.5,0.9,1.4,0.4,2.1l0,0c-0.3,0.4-0.8,0.7-1.2,0.7l0,0C45.2,183.6,44.9,183.5,44.6,183.3z M157.1,180.3
	c-0.5-0.7-0.3-1.6,0.3-2.1l0,0c0.7-0.5,1.6-0.4,2.1,0.3l0,0c0.5,0.7,0.3,1.6-0.3,2.1l0,0c-0.3,0.2-0.6,0.3-0.9,0.3l0,0
	C157.8,180.9,157.4,180.7,157.1,180.3z M39.7,179.8L39.7,179.8L39.7,179.8c-0.7-0.5-0.8-1.4-0.3-2.1l0,0c0.5-0.7,1.4-0.8,2.1-0.3
	l0,0c0.7,0.5,0.8,1.4,0.3,2.1l0,0c-0.3,0.4-0.7,0.6-1.2,0.6l0,0C40.3,180.1,39.9,180,39.7,179.8z M161.9,176.7
	c-0.5-0.6-0.5-1.6,0.2-2.1l0,0c0.6-0.5,1.6-0.4,2.1,0.2l0,0c0.5,0.6,0.4,1.6-0.2,2.1l0,0l0,0l0,0c-0.3,0.2-0.6,0.4-1,0.4l0,0
	C162.6,177.2,162.2,177,161.9,176.7z M34.9,175.9C34.9,175.9,34.9,175.9,34.9,175.9L34.9,175.9c-0.6-0.5-0.7-1.5-0.2-2.1l0,0
	c0.5-0.6,1.5-0.7,2.1-0.2l0,0c0.6,0.5,0.7,1.5,0.2,2.1l0,0c-0.3,0.3-0.7,0.5-1.1,0.5l0,0C35.6,176.3,35.2,176.2,34.9,175.9z
	 M166.4,172.7c-0.6-0.6-0.5-1.5,0.1-2.1h0c0.6-0.6,1.5-0.5,2.1,0.1l0,0c0.6,0.6,0.5,1.5-0.1,2.1l0,0l0,0l0,0c-0.3,0.3-0.7,0.4-1,0.4
	l0,0C167.1,173.2,166.7,173,166.4,172.7z M30.4,171.8c-0.6-0.6-0.6-1.5,0-2.1l0,0c0.6-0.6,1.5-0.6,2.1,0l0,0c0.6,0.6,0.6,1.5,0,2.1
	l0,0c-0.3,0.3-0.7,0.5-1.1,0.5l0,0C31.1,172.3,30.7,172.1,30.4,171.8z M170.8,168.5c-0.6-0.6-0.6-1.5-0.1-2.1l0,0
	c0.6-0.6,1.5-0.6,2.1-0.1l0,0c0.6,0.6,0.6,1.5,0.1,2.1l0,0c-0.3,0.3-0.7,0.5-1.1,0.5l0,0C171.4,169,171,168.8,170.8,168.5z
	 M26.2,167.5c-0.6-0.6-0.5-1.6,0.1-2.1l0,0c0.6-0.6,1.5-0.5,2.1,0.1l0,0c0.5,0.6,0.5,1.6-0.1,2.1l0,0c-0.3,0.3-0.6,0.4-1,0.4l0,0
	C26.9,168,26.5,167.8,26.2,167.5z M174.8,164.1c-0.6-0.5-0.7-1.5-0.2-2.1l0,0c0.5-0.6,1.5-0.7,2.1-0.2l0,0c0.6,0.5,0.7,1.5,0.2,2.1
	l0,0c-0.3,0.4-0.7,0.5-1.2,0.5l0,0C175.4,164.5,175.1,164.3,174.8,164.1z M22.2,162.8L22.2,162.8L22.2,162.8
	c-0.5-0.7-0.4-1.6,0.2-2.1l0,0c0.6-0.5,1.6-0.4,2.1,0.2l0,0c0.5,0.6,0.4,1.6-0.2,2.1l0,0c-0.3,0.2-0.6,0.3-0.9,0.3l0,0
	C22.9,163.4,22.5,163.2,22.2,162.8z M178.6,159.4c-0.7-0.5-0.8-1.4-0.3-2.1l0,0c0.5-0.7,1.4-0.8,2.1-0.3l0,0
	c0.7,0.5,0.8,1.4,0.3,2.1l0,0l0,0l0,0c-0.3,0.4-0.8,0.6-1.2,0.6l0,0C179.1,159.7,178.8,159.6,178.6,159.4z M18.5,158L18.5,158
	L18.5,158c-0.5-0.7-0.3-1.6,0.4-2.1l0,0c0.7-0.5,1.6-0.3,2.1,0.4l0,0c0.5,0.7,0.3,1.6-0.4,2.1l0,0c-0.3,0.2-0.6,0.3-0.9,0.3l0,0
	C19.3,158.6,18.8,158.4,18.5,158z M182,154.5c-0.7-0.4-0.9-1.4-0.5-2.1l0,0c0.5-0.7,1.4-0.9,2.1-0.5l0,0c0.7,0.5,0.9,1.4,0.5,2.1
	l0,0c-0.3,0.4-0.8,0.7-1.3,0.7l0,0C182.6,154.8,182.3,154.7,182,154.5z M15.1,152.9c-0.4-0.7-0.2-1.6,0.5-2.1l0,0
	c0.7-0.4,1.6-0.2,2.1,0.5l0,0c0.4,0.7,0.2,1.6-0.5,2.1l0,0c-0.2,0.2-0.5,0.2-0.8,0.2l0,0C15.9,153.6,15.4,153.4,15.1,152.9z
	 M185.2,149.5c-0.7-0.4-1-1.3-0.6-2l0,0c0.4-0.7,1.3-1,2-0.6l0,0c0.7,0.4,1,1.3,0.6,2l0,0l0,0l0,0c-0.3,0.5-0.8,0.8-1.3,0.8l0,0
	C185.7,149.6,185.5,149.6,185.2,149.5z M12,147.6c-0.4-0.7-0.1-1.6,0.6-2l0,0c0.7-0.4,1.6-0.1,2,0.6l0,0c0.4,0.7,0.1,1.6-0.6,2l0,0
	c-0.2,0.1-0.5,0.2-0.7,0.2l0,0C12.8,148.4,12.3,148.1,12,147.6z M188.1,144.2c-0.7-0.4-1-1.3-0.7-2l0,0c0.4-0.7,1.2-1.1,2-0.7l0,0
	c0.7,0.4,1.1,1.3,0.7,2l0,0c0,0,0,0,0,0l0,0c-0.3,0.5-0.8,0.8-1.4,0.8l0,0C188.5,144.3,188.3,144.3,188.1,144.2z M9.3,142.2
	c-0.4-0.8,0-1.6,0.7-2l0,0c0.8-0.3,1.6,0,2,0.7l0,0c0.3,0.8,0,1.6-0.7,2l0,0c-0.2,0.1-0.4,0.1-0.6,0.1l0,0
	C10.1,143,9.6,142.7,9.3,142.2z M190.6,138.7c-0.8-0.3-1.1-1.2-0.8-2l0,0c0.3-0.8,1.2-1.1,2-0.8l0,0c0.8,0.3,1.1,1.2,0.8,2l0,0l0,0
	l0,0c-0.2,0.6-0.8,0.9-1.4,0.9l0,0C191,138.8,190.8,138.8,190.6,138.7z M6.9,136.6c-0.3-0.8,0.1-1.7,0.9-2l0,0
	c0.8-0.3,1.6,0.1,1.9,0.8l0,0c0.3,0.8-0.1,1.6-0.8,1.9l0,0c-0.2,0.1-0.4,0.1-0.5,0.1l0,0C7.7,137.5,7.1,137.2,6.9,136.6z
	 M192.8,133.1c-0.8-0.3-1.2-1.1-0.9-1.9l0,0c0.3-0.8,1.1-1.2,1.9-0.9l0,0c0.8,0.3,1.2,1.1,0.9,1.9l0,0c-0.2,0.6-0.8,1-1.4,1l0,0
	C193.1,133.2,193,133.2,192.8,133.1z M4.8,130.8L4.8,130.8L4.8,130.8c-0.3-0.8,0.2-1.6,1-1.9l0,0c0.8-0.2,1.6,0.2,1.9,1h0
	c0.2,0.8-0.2,1.6-1,1.9l0,0c-0.2,0-0.3,0.1-0.5,0.1l0,0C5.6,131.9,5,131.5,4.8,130.8z M194.6,127.4c-0.8-0.2-1.3-1.1-1-1.9l0,0
	c0.2-0.8,1-1.3,1.8-1l0,0c0.8,0.2,1.3,1,1,1.8l0,0c-0.2,0.7-0.8,1.1-1.4,1.1l0,0C194.9,127.5,194.8,127.4,194.6,127.4z M3.1,125
	L3.1,125L3.1,125c-0.2-0.8,0.3-1.6,1.1-1.8l0,0c0.8-0.2,1.6,0.3,1.8,1.1l0,0c0.2,0.8-0.3,1.6-1.1,1.8l0,0c-0.1,0-0.2,0-0.4,0l0,0
	C3.9,126.1,3.3,125.6,3.1,125z M196.1,121.6c-0.8-0.2-1.3-1-1.2-1.8l0,0c0.2-0.8,1-1.3,1.8-1.2l0,0c0.8,0.2,1.3,1,1.2,1.8l0,0
	c-0.1,0.7-0.8,1.2-1.5,1.2l0,0C196.3,121.6,196.2,121.6,196.1,121.6z M1.8,119L1.8,119L1.8,119c-0.2-0.8,0.4-1.6,1.2-1.8l0,0
	c0.8-0.2,1.6,0.4,1.8,1.2l0,0c0.2,0.8-0.4,1.6-1.2,1.8l0,0c-0.1,0-0.2,0-0.3,0l0,0C2.6,120.2,1.9,119.7,1.8,119z M197.3,115.7
	c-0.8-0.1-1.4-0.9-1.3-1.7l0,0c0.1-0.8,0.9-1.4,1.7-1.3l0,0c0.8,0.1,1.4,0.9,1.3,1.7l0,0c-0.1,0.7-0.8,1.3-1.5,1.3l0,0
	C197.4,115.7,197.3,115.7,197.3,115.7z M0.8,113L0.8,113L0.8,113c-0.1-0.8,0.5-1.6,1.3-1.7l0,0c0.8-0.1,1.6,0.5,1.7,1.3l0,0
	c0.1,0.8-0.5,1.6-1.3,1.7l0,0c-0.1,0-0.1,0-0.2,0l0,0C1.6,114.3,0.9,113.8,0.8,113z M198,109.7c-0.8-0.1-1.4-0.8-1.4-1.6l0,0
	c0.1-0.8,0.8-1.4,1.6-1.4l0,0c0.8,0.1,1.4,0.8,1.4,1.6l0,0l0,0l0,0c-0.1,0.8-0.7,1.4-1.5,1.4l0,0C198.1,109.7,198.1,109.7,198,109.7
	z M0.2,106.9L0.2,106.9L0.2,106.9c-0.1-0.8,0.6-1.5,1.4-1.6l0,0c0.8-0.1,1.5,0.6,1.6,1.4l0,0c0.1,0.8-0.6,1.5-1.4,1.6l0,0
	c0,0-0.1,0-0.1,0l0,0C0.9,108.3,0.3,107.7,0.2,106.9z M198.4,103.7c-0.8,0-1.5-0.7-1.5-1.5h0c0-0.8,0.7-1.5,1.5-1.5l0,0
	c0.8,0,1.5,0.7,1.5,1.5l0,0l0,0l0,0C200,103.1,199.3,103.7,198.4,103.7L198.4,103.7C198.5,103.7,198.5,103.7,198.4,103.7z M0,100.8
	L0,100.8L0,100.8c0-0.8,0.7-1.5,1.5-1.5l0,0c0.8,0,1.5,0.7,1.5,1.5l0,0c0,0.8-0.7,1.5-1.5,1.5l0,0c0,0,0,0,0,0l0,0
	C0.7,102.3,0,101.7,0,100.8z M196.9,96.3c0-0.8,0.6-1.5,1.4-1.5l0,0c0.8,0,1.5,0.6,1.6,1.4l0,0c0,0.8-0.6,1.5-1.5,1.6l0,0
	c0,0,0,0,0,0l0,0C197.6,97.7,197,97.1,196.9,96.3z M1.6,96.3c-0.8,0-1.5-0.8-1.4-1.6l0,0c0-0.8,0.8-1.5,1.6-1.4l0,0
	c0.8,0,1.5,0.8,1.4,1.6l0,0C3.1,95.7,2.4,96.3,1.6,96.3L1.6,96.3C1.6,96.3,1.6,96.3,1.6,96.3z M196.5,90.4L196.5,90.4
	c-0.1-0.8,0.5-1.6,1.4-1.6l0,0c0.8-0.1,1.6,0.5,1.6,1.3l0,0c0.1,0.8-0.5,1.6-1.3,1.7l0,0c0,0-0.1,0-0.2,0l0,0
	C197.2,91.7,196.6,91.1,196.5,90.4z M2,90.3c-0.8-0.1-1.4-0.8-1.3-1.7l0,0c0.1-0.8,0.8-1.4,1.7-1.3l0,0c0.8,0.1,1.4,0.8,1.3,1.7l0,0
	c-0.1,0.8-0.7,1.3-1.5,1.3l0,0C2.1,90.3,2,90.3,2,90.3z M195.8,84.5c-0.1-0.8,0.4-1.6,1.2-1.7l0,0c0.8-0.1,1.6,0.4,1.7,1.2l0,0
	c0.1,0.8-0.4,1.6-1.2,1.7l0,0c-0.1,0-0.2,0-0.2,0l0,0C196.5,85.8,195.9,85.2,195.8,84.5z M2.7,84.4c-0.8-0.1-1.4-0.9-1.2-1.7l0,0
	c0.1-0.8,0.9-1.4,1.7-1.2l0,0c0.8,0.1,1.4,0.9,1.2,1.7l0,0c-0.1,0.7-0.8,1.2-1.5,1.2l0,0C2.9,84.4,2.8,84.4,2.7,84.4z M194.6,78.7
	L194.6,78.7c-0.2-0.8,0.3-1.6,1.1-1.8l0,0c0.8-0.2,1.6,0.3,1.8,1.1l0,0c0.2,0.8-0.3,1.6-1.1,1.8l0,0c-0.1,0-0.2,0-0.3,0l0,0
	C195.4,79.9,194.8,79.4,194.6,78.7z M3.9,78.5c-0.8-0.2-1.3-1-1.1-1.8l0,0l0,0l0,0c0.2-0.8,1-1.3,1.8-1.1l0,0c0.8,0.2,1.3,1,1.1,1.8
	l0,0c-0.2,0.7-0.8,1.2-1.5,1.2l0,0C4.1,78.5,4,78.5,3.9,78.5z M193.2,73L193.2,73c-0.2-0.8,0.2-1.6,1-1.9l0,0c0.8-0.2,1.6,0.2,1.9,1
	l0,0l0,0l0,0c0.2,0.8-0.2,1.6-1,1.9l0,0c-0.1,0.1-0.3,0.1-0.4,0.1l0,0C194,74,193.4,73.6,193.2,73z M5.3,72.6
	c-0.8-0.2-1.2-1.1-1-1.9l0,0c0.2-0.8,1.1-1.2,1.9-1l0,0c0.8,0.2,1.2,1.1,1,1.9l0,0c-0.2,0.7-0.8,1.1-1.4,1.1l0,0
	C5.6,72.7,5.5,72.7,5.3,72.6z M191.4,67.3L191.4,67.3c-0.3-0.8,0.1-1.6,0.9-1.9l0,0c0.8-0.3,1.6,0.1,1.9,0.9l0,0
	c0.3,0.8-0.1,1.6-0.9,1.9l0,0c-0.2,0.1-0.3,0.1-0.5,0.1l0,0C192.2,68.3,191.6,67.9,191.4,67.3z M7.2,66.9C6.4,66.6,6,65.8,6.3,65
	l0,0c0.3-0.8,1.2-1.2,1.9-0.9l0,0C9,64.4,9.4,65.3,9.1,66l0,0c-0.2,0.6-0.8,1-1.4,1l0,0C7.5,67,7.4,67,7.2,66.9z M189.2,61.8
	L189.2,61.8c-0.3-0.8,0-1.6,0.8-2l0,0c0.8-0.3,1.6,0,2,0.8l0,0c0.3,0.8,0,1.6-0.8,2l0,0c-0.2,0.1-0.4,0.1-0.6,0.1l0,0
	C190,62.7,189.4,62.4,189.2,61.8z M9.4,61.3c-0.8-0.3-1.1-1.2-0.8-2l0,0c0.3-0.8,1.2-1.1,2-0.8l0,0c0.8,0.3,1.1,1.2,0.8,2l0,0
	c-0.2,0.5-0.8,0.9-1.4,0.9l0,0C9.8,61.5,9.6,61.4,9.4,61.3z M186.7,56.5L186.7,56.5c-0.4-0.7-0.1-1.6,0.7-2l0,0
	c0.7-0.4,1.6-0.1,2,0.7l0,0c0.4,0.7,0.1,1.6-0.7,2l0,0c-0.2,0.1-0.4,0.2-0.7,0.2l0,0C187.5,57.3,187,57,186.7,56.5z M11.9,55.9
	c-0.7-0.4-1-1.3-0.6-2l0,0c0.4-0.7,1.3-1,2-0.6l0,0c0.7,0.4,1,1.3,0.6,2l0,0c-0.3,0.5-0.8,0.8-1.3,0.8l0,0
	C12.3,56,12.1,56,11.9,55.9z M183.9,51.3L183.9,51.3c-0.4-0.7-0.2-1.6,0.5-2l0,0c0.7-0.4,1.6-0.2,2,0.5l0,0c0,0,0,0,0,0l0,0
	c0.4,0.7,0.2,1.6-0.6,2l0,0c-0.2,0.1-0.5,0.2-0.8,0.2l0,0C184.7,52,184.2,51.7,183.9,51.3z M14.7,50.6c-0.7-0.4-0.9-1.3-0.5-2l0,0
	c0,0,0,0,0,0l0,0c0.4-0.7,1.3-0.9,2.1-0.5l0,0c0.7,0.4,0.9,1.3,0.5,2.1l0,0c-0.3,0.5-0.8,0.7-1.3,0.7l0,0
	C15.2,50.8,15,50.7,14.7,50.6z M180.8,46.2c-0.5-0.7-0.3-1.6,0.4-2.1l0,0c0.7-0.5,1.6-0.3,2.1,0.4l0,0c0.5,0.7,0.3,1.6-0.4,2.1l0,0
	c-0.3,0.2-0.5,0.2-0.8,0.2l0,0C181.5,46.9,181,46.7,180.8,46.2z M17.9,45.5c-0.7-0.5-0.9-1.4-0.4-2.1l0,0c0.5-0.7,1.4-0.9,2.1-0.4
	l0,0c0.7,0.5,0.9,1.4,0.4,2.1l0,0c-0.3,0.4-0.8,0.6-1.2,0.6l0,0C18.5,45.8,18.2,45.7,17.9,45.5z M177.3,41.4L177.3,41.4
	c-0.5-0.7-0.4-1.6,0.3-2.1l0,0c0.7-0.5,1.6-0.4,2.1,0.3l0,0c0.5,0.7,0.4,1.6-0.3,2.1l0,0c-0.3,0.2-0.6,0.3-0.9,0.3l0,0
	C178.1,42,177.6,41.8,177.3,41.4z M21.4,40.6c-0.7-0.5-0.8-1.4-0.3-2.1l0,0c0,0,0,0,0,0l0,0c0.5-0.7,1.5-0.8,2.1-0.3l0,0
	c0.7,0.5,0.8,1.5,0.3,2.1l0,0c-0.3,0.4-0.7,0.6-1.2,0.6l0,0C22,40.9,21.7,40.8,21.4,40.6z M173.6,36.8c-0.5-0.6-0.5-1.6,0.2-2.1l0,0
	c0.6-0.5,1.6-0.5,2.1,0.2l0,0l0,0l0,0c0.5,0.6,0.5,1.6-0.2,2.1l0,0c-0.3,0.2-0.6,0.4-1,0.4l0,0C174.3,37.3,173.9,37.2,173.6,36.8z
	 M25.2,35.9c-0.6-0.5-0.7-1.5-0.1-2.1l0,0l0,0l0,0c0.5-0.6,1.5-0.7,2.1-0.1l0,0c0.6,0.6,0.7,1.5,0.1,2.1l0,0
	c-0.3,0.3-0.7,0.5-1.1,0.5l0,0C25.8,36.3,25.4,36.2,25.2,35.9z M169.6,32.4c-0.6-0.6-0.6-1.5,0-2.1l0,0c0.6-0.6,1.5-0.6,2.1,0l0,0
	c0.6,0.6,0.6,1.6,0,2.1l0,0c-0.3,0.3-0.7,0.4-1,0.4l0,0C170.3,32.9,169.9,32.8,169.6,32.4z M29.2,31.5c-0.6-0.6-0.6-1.5,0-2.1l0,0
	c0,0,0,0,0,0l0,0c0,0,0,0,0,0l0,0c0.6-0.6,1.5-0.6,2.1,0l0,0c0.6,0.6,0.6,1.5,0,2.1l0,0c0,0,0,0,0,0.1l0,0c0,0,0,0,0,0l0,0
	c-0.3,0.3-0.7,0.4-1.1,0.4l0,0C29.9,31.9,29.5,31.8,29.2,31.5z M165.4,28.3c-0.6-0.6-0.6-1.5-0.1-2.1l0,0c0.6-0.6,1.5-0.7,2.1-0.1
	l0,0c0.6,0.6,0.7,1.5,0.1,2.1l0,0c-0.3,0.3-0.7,0.5-1.1,0.5l0,0C166,28.7,165.6,28.6,165.4,28.3z M33.6,27.2
	c-0.5-0.6-0.5-1.6,0.1-2.1l0,0c0.6-0.5,1.6-0.5,2.1,0.1l0,0c0.6,0.6,0.5,1.6-0.1,2.1l0,0c-0.3,0.3-0.6,0.4-1,0.4l0,0
	C34.3,27.7,33.9,27.6,33.6,27.2z M160.9,24.5c-0.6-0.5-0.7-1.5-0.2-2.1l0,0c0.5-0.6,1.5-0.8,2.1-0.2l0,0l0,0l0,0
	c0.6,0.5,0.7,1.5,0.2,2.1l0,0c-0.3,0.4-0.7,0.6-1.2,0.6l0,0C161.5,24.8,161.1,24.7,160.9,24.5z M38.2,23.3c-0.5-0.7-0.4-1.6,0.3-2.1
	l0,0c0.6-0.5,1.6-0.4,2.1,0.3l0,0c0.5,0.6,0.4,1.6-0.2,2.1l0,0c-0.3,0.2-0.6,0.3-0.9,0.3l0,0C38.9,23.9,38.5,23.7,38.2,23.3z
	 M156.2,20.9c-0.7-0.5-0.8-1.4-0.4-2.1l0,0c0.5-0.7,1.4-0.8,2.1-0.4l0,0c0.7,0.5,0.8,1.4,0.4,2.1l0,0c-0.3,0.4-0.8,0.6-1.2,0.6l0,0
	C156.7,21.2,156.4,21.1,156.2,20.9z M42.9,19.7c-0.5-0.7-0.3-1.6,0.4-2.1l0,0c0,0,0,0,0,0l0,0c0.7-0.5,1.6-0.3,2.1,0.4l0,0
	c0.5,0.7,0.3,1.6-0.4,2.1l0,0c-0.3,0.2-0.5,0.3-0.8,0.3l0,0C43.7,20.3,43.2,20.1,42.9,19.7z M151.2,17.6c-0.7-0.4-0.9-1.4-0.5-2.1
	l0,0c0.4-0.7,1.4-0.9,2.1-0.5l0,0l0,0l0,0c0.7,0.4,0.9,1.4,0.5,2.1l0,0c-0.3,0.5-0.8,0.7-1.3,0.7l0,0
	C151.8,17.8,151.5,17.8,151.2,17.6z M47.9,16.3c-0.4-0.7-0.2-1.6,0.5-2.1l0,0c0.7-0.4,1.6-0.2,2.1,0.5l0,0c0.4,0.7,0.2,1.6-0.5,2.1
	l0,0c-0.2,0.1-0.5,0.2-0.8,0.2l0,0C48.7,17.1,48.2,16.8,47.9,16.3z M146.1,14.6c-0.7-0.4-1-1.3-0.6-2l0,0c0.4-0.7,1.3-1,2-0.6l0,0
	c0.7,0.4,1,1.3,0.6,2l0,0c-0.3,0.5-0.8,0.8-1.3,0.8l0,0C146.6,14.8,146.4,14.8,146.1,14.6z M53.1,13.3c-0.4-0.7-0.1-1.6,0.6-2l0,0
	l0,0l0,0c0.7-0.4,1.6-0.1,2,0.6l0,0c0.4,0.7,0.1,1.6-0.6,2l0,0c-0.2,0.1-0.5,0.2-0.7,0.2l0,0C53.9,14.1,53.4,13.8,53.1,13.3z
	 M140.8,12c-0.8-0.4-1.1-1.2-0.7-2l0,0c0.3-0.8,1.2-1.1,2-0.7l0,0c0.8,0.3,1.1,1.2,0.7,2l0,0c-0.2,0.6-0.8,0.9-1.4,0.9l0,0
	C141.3,12.1,141,12.1,140.8,12z M58.5,10.6c-0.3-0.8,0-1.6,0.8-2l0,0c0.8-0.3,1.6,0,2,0.8l0,0c0.3,0.8,0,1.6-0.8,2l0,0
	c-0.2,0.1-0.4,0.1-0.6,0.1l0,0C59.3,11.5,58.8,11.2,58.5,10.6z M135.4,9.7L135.4,9.7c-0.8-0.3-1.2-1.2-0.9-1.9l0,0
	c0.3-0.8,1.2-1.2,1.9-0.9l0,0c0.8,0.3,1.2,1.2,0.8,1.9l0,0c-0.2,0.6-0.8,1-1.4,1l0,0C135.8,9.8,135.6,9.7,135.4,9.7z M64,8.3
	c-0.3-0.8,0.1-1.6,0.9-1.9l0,0c0.8-0.3,1.6,0.1,1.9,0.9l0,0C67.1,8,66.8,8.8,66,9.1l0,0c-0.2,0.1-0.4,0.1-0.5,0.1l0,0
	C64.8,9.2,64.3,8.9,64,8.3z M129.8,7.7c-0.8-0.2-1.2-1.1-1-1.9l0,0c0.3-0.8,1.1-1.2,1.9-1l0,0c0.8,0.2,1.2,1.1,1,1.9l0,0
	c-0.2,0.6-0.8,1-1.4,1l0,0C130.1,7.8,130,7.7,129.8,7.7z M69.7,6.2c-0.2-0.8,0.2-1.6,1-1.9l0,0l0,0l0,0c0.8-0.2,1.6,0.2,1.9,1l0,0
	c0.2,0.8-0.2,1.6-1,1.9l0,0c-0.1,0-0.3,0.1-0.4,0.1l0,0C70.5,7.3,69.9,6.9,69.7,6.2z M124.2,6c-0.8-0.2-1.3-1-1.1-1.8l0,0
	c0.2-0.8,1-1.3,1.8-1.1l0,0c0.8,0.2,1.3,1,1.1,1.8l0,0c-0.2,0.7-0.8,1.1-1.4,1.1l0,0C124.4,6.1,124.3,6.1,124.2,6z M75.5,4.6
	c-0.2-0.8,0.3-1.6,1.1-1.8l0,0c0.8-0.2,1.6,0.3,1.8,1.1l0,0c0.2,0.8-0.3,1.6-1.1,1.8h0c-0.1,0-0.2,0-0.3,0l0,0
	C76.3,5.7,75.6,5.3,75.5,4.6z M118.4,4.8c-0.8-0.2-1.3-0.9-1.2-1.8l0,0c0.2-0.8,1-1.3,1.8-1.2l0,0c0.8,0.2,1.3,1,1.2,1.8l0,0
	c-0.1,0.7-0.8,1.2-1.5,1.2l0,0C118.6,4.8,118.5,4.8,118.4,4.8z M81.3,3.3c-0.1-0.8,0.4-1.6,1.2-1.7l0,0c0.8-0.1,1.6,0.4,1.7,1.2l0,0
	c0.1,0.8-0.4,1.6-1.2,1.7l0,0c-0.1,0-0.2,0-0.3,0l0,0C82.1,4.5,81.5,4,81.3,3.3z M112.5,3.8L112.5,3.8c-0.8-0.1-1.4-0.9-1.3-1.7l0,0
	c0.1-0.8,0.9-1.4,1.7-1.3l0,0c0.8,0.1,1.4,0.9,1.3,1.7l0,0c-0.1,0.8-0.8,1.3-1.5,1.3l0,0C112.7,3.8,112.6,3.8,112.5,3.8z M87.3,2.3
	c-0.1-0.8,0.5-1.6,1.3-1.7l0,0c0.8-0.1,1.6,0.5,1.7,1.3l0,0c0.1,0.8-0.5,1.6-1.3,1.7l0,0c0,0-0.1,0-0.2,0l0,0
	C88,3.6,87.4,3.1,87.3,2.3z M106.7,3.2c-0.8-0.1-1.5-0.8-1.4-1.6l0,0c0.1-0.8,0.8-1.5,1.6-1.4l0,0c0,0,0,0,0,0l0,0
	c0.8,0.1,1.5,0.8,1.4,1.6l0,0C108.2,2.6,107.5,3.2,106.7,3.2L106.7,3.2C106.7,3.2,106.7,3.2,106.7,3.2z M93.2,1.7
	c0-0.8,0.6-1.5,1.4-1.6l0,0c0.8,0,1.5,0.6,1.6,1.4l0,0c0,0.8-0.6,1.5-1.4,1.6l0,0c0,0,0,0-0.1,0l0,0C94,3.1,93.3,2.5,93.2,1.7z
	 M100.7,3L100.7,3c-0.8,0-1.5-0.7-1.5-1.5l0,0c0-0.8,0.7-1.5,1.5-1.5l0,0c0.8,0,1.5,0.7,1.5,1.5l0,0C102.2,2.3,101.6,3,100.7,3
	L100.7,3C100.8,3,100.8,3,100.7,3z"/>
<linearGradient id="SVGID_1_" gradientUnits="userSpaceOnUse" x1="133.0683" y1="45.5723" x2="68.4679" y2="157.4629" gradientTransform="matrix(1 0 0 -1 0 202)">
	<stop  offset="0" style="stop-color:#5674AF"/>
	<stop  offset="0.159" style="stop-color:#4F7DB4"/>
	<stop  offset="0.33" style="stop-color:#438DBC"/>
	<stop  offset="0.66" style="stop-color:#339FB9"/>
	<stop  offset="0.994" style="stop-color:#24B1B4"/>
</linearGradient>
<path class="st2" d="M99,41.5v-5c0-0.8,0.7-1.5,1.5-1.5s1.5,0.7,1.5,1.5v5c0,0.8-0.7,1.5-1.5,1.5S99,42.3,99,41.5z M120,46.5
	c0.2,0.1,0.3,0.1,0.5,0.1c0.6,0,1.2-0.4,1.4-1l1.7-4.7c0.3-0.8-0.1-1.6-0.9-1.9c-0.8-0.3-1.6,0.1-1.9,0.9c0,0,0,0,0,0l-1.7,4.7
	C118.8,45.3,119.2,46.2,120,46.5C120,46.5,120,46.5,120,46.5L120,46.5z M138.1,56.7c0.4,0,0.9-0.2,1.1-0.5l3.2-3.8
	c0.5-0.6,0.4-1.6-0.2-2.1s-1.6-0.4-2.1,0.2l-3.2,3.8c-0.5,0.6-0.4,1.6,0.2,2.1C137.4,56.6,137.7,56.7,138.1,56.7z M49.1,128
	l-4.3,2.5c-0.7,0.4-1,1.3-0.6,2.1s1.3,1,2.1,0.6l4.3-2.5c0.7-0.4,1-1.3,0.5-2.1C50.7,127.8,49.8,127.6,49.1,128z M151.2,72.3
	c0.3,0,0.5-0.1,0.7-0.2l4.3-2.5c0.7-0.4,1-1.3,0.6-2c-0.4-0.7-1.3-1-2.1-0.6l0,0l-4.3,2.5c-0.7,0.4-1,1.3-0.6,2
	C150.1,72,150.6,72.3,151.2,72.3z M44.4,110.2c0-0.1,0-0.2,0-0.3c-0.1-0.8-0.9-1.4-1.7-1.2c0,0,0,0,0,0l-4.9,0.9
	c-0.8,0.1-1.4,0.9-1.2,1.7c0.1,0.7,0.7,1.2,1.5,1.2c0.1,0,0.2,0,0.3,0l4.9-0.9C43.9,111.5,44.4,110.9,44.4,110.2z M156.6,89.9
	c0,0.1,0,0.2,0,0.3c0.1,0.7,0.7,1.2,1.5,1.2c0.1,0,0.2,0,0.3,0l4.9-0.9c0.8-0.1,1.4-0.9,1.2-1.7s-0.9-1.4-1.7-1.2l-4.9,0.9
	C157.1,88.5,156.6,89.1,156.6,89.9z M37.7,90.5l4.9,0.9c0.1,0,0.2,0,0.3,0c0.7,0,1.3-0.5,1.5-1.2c0-0.1,0-0.2,0-0.3
	c0-0.7-0.5-1.3-1.2-1.5l-4.9-0.9c-0.8-0.1-1.6,0.4-1.7,1.2C36.3,89.5,36.9,90.3,37.7,90.5z M163.3,109.6l-4.9-0.9
	c-0.8-0.1-1.6,0.4-1.7,1.2c0,0.1,0,0.2,0,0.3c0,0.7,0.5,1.3,1.2,1.5l4.9,0.9c0.1,0,0.2,0,0.3,0c0.8,0,1.5-0.7,1.5-1.5
	C164.5,110.3,164,109.7,163.3,109.6L163.3,109.6z M50.6,69.5L46.3,67c-0.7-0.4-1.6-0.2-2,0.6c-0.4,0.7-0.2,1.6,0.5,2l0,0l4.3,2.5
	c0.7,0.4,1.6,0.2,2-0.6C51.6,70.8,51.3,69.9,50.6,69.5z M156.2,130.5l-4.3-2.5c-0.7-0.4-1.6-0.2-2.1,0.6s-0.2,1.6,0.6,2.1l4.3,2.5
	c0.7,0.4,1.6,0.2,2-0.5C157.2,131.8,157,130.9,156.2,130.5L156.2,130.5z M61.7,56.2c0.5,0.6,1.5,0.7,2.1,0.2s0.7-1.5,0.2-2.1
	l-3.2-3.8c-0.5-0.6-1.5-0.7-2.1-0.2c-0.6,0.5-0.7,1.5-0.2,2.1L61.7,56.2z M79.1,45.6c0.2,0.6,0.8,1,1.4,1c0.8,0,1.5-0.7,1.5-1.5
	c0-0.2,0-0.3-0.1-0.5l-1.7-4.7c-0.3-0.8-1.1-1.2-1.9-0.9c-0.8,0.3-1.2,1.1-0.9,1.9c0,0,0,0,0,0L79.1,45.6z M95,102.3l-2.1,40.3
	c0,0.8-0.7,1.4-1.5,1.4h-2.1l-0.7,16c0,0.8-0.7,1.4-1.5,1.4h-0.1c-0.8,0-1.5-0.7-1.4-1.6l0.7-17.4c0-0.8,0.7-1.4,1.5-1.4H90l2-38.8
	c0-5.1-3.2-9.6-8-11.2v4.5c0,0.8-0.7,1.5-1.5,1.5c-0.1,0-0.2,0-0.3,0l-1.1-0.2l-4.3,16.2c-0.2,0.7-0.8,1.1-1.4,1.1h0
	c-0.7,0-1.3-0.5-1.4-1.1l-4.1-16.2l-1,0.2c-0.8,0.2-1.6-0.3-1.8-1.1c0-0.1,0-0.2,0-0.3v-4.5c-4.8,1.7-8,6.2-8,11.3l2,38.8h2.2
	c0.8,0,1.5,0.6,1.5,1.4l0.4,10c0,0.8-0.6,1.5-1.4,1.6c-0.8,0-1.5-0.6-1.6-1.4l-0.3-8.5h-2.1c-0.8,0-1.5-0.6-1.5-1.4L56,102.3
	c-0.1-6.8,4.5-12.7,11-14.5v-0.3c0-0.8,0.7-1.5,1.5-1.5c0.1,0,0.2,0,0.3,0l6.7,1.5l6.7-1.5c0.8-0.2,1.6,0.3,1.8,1.1
	c0,0.1,0,0.2,0,0.3v0.3C90.5,89.6,95,95.5,95,102.3L95,102.3z M75.2,90.5L70,89.4v4.2l5.2-1.2c0.2-0.1,0.4-0.1,0.7,0l5.2,1.2v-4.2
	l-5.2,1.2C75.6,90.6,75.4,90.6,75.2,90.5z M78.2,96l-2.7-0.6L72.7,96l2.7,10.5L78.2,96z M76.6,124.6c-0.1-0.1-0.1-0.1-0.2-0.2
	c-0.1-0.1-0.2-0.1-0.3-0.1c-0.1,0-0.2-0.1-0.3-0.1c-0.5-0.1-1,0.1-1.3,0.4c-0.3,0.3-0.4,0.7-0.4,1.1c0,0.2,0,0.4,0.1,0.6
	c0.1,0.2,0.2,0.3,0.3,0.5c0.1,0.1,0.3,0.3,0.5,0.3c0.2,0.1,0.4,0.1,0.6,0.1c0.4,0,0.8-0.2,1.1-0.4c0.1-0.1,0.3-0.3,0.3-0.5
	c0.1-0.2,0.1-0.4,0.1-0.6C77,125.3,76.8,124.9,76.6,124.6z M76.3,129.7c-0.1-0.1-0.2-0.1-0.3-0.1c-0.1,0-0.2-0.1-0.3-0.1
	c-0.2,0-0.4,0-0.6,0c-0.1,0-0.2,0.1-0.3,0.1c-0.1,0-0.2,0.1-0.3,0.1c-0.1,0-0.2,0.1-0.2,0.2c-0.3,0.3-0.4,0.7-0.4,1.1
	c0,0.2,0,0.4,0.1,0.6c0.1,0.2,0.2,0.3,0.3,0.5c0.3,0.3,0.7,0.4,1.1,0.4c0.2,0,0.4,0,0.6-0.1c0.2-0.1,0.3-0.2,0.5-0.3
	c0.1-0.1,0.3-0.3,0.3-0.5c0.1-0.2,0.1-0.4,0.1-0.6c0-0.4-0.2-0.8-0.4-1.1C76.5,129.8,76.4,129.8,76.3,129.7z M86.6,107.6l-1.9-4.7
	l2.2-3.2c0.5-0.7,0.4-1.6-0.3-2.1c-0.7-0.5-1.6-0.4-2.1,0.3c0,0,0,0.1-0.1,0.1l-2.7,3.9c-0.3,0.4-0.3,0.9-0.2,1.4l1.9,4.7l-6.7,10.2
	c-0.5,0.7-0.3,1.6,0.4,2.1s1.6,0.3,2.1-0.4l7.2-10.9C86.7,108.6,86.7,108,86.6,107.6z M73.8,120.3c0.7-0.5,0.9-1.4,0.4-2.1
	c0,0,0,0,0,0L67.5,108l1.9-4.7c0.2-0.5,0.1-1-0.2-1.4L66.5,98c-0.5-0.7-1.4-0.9-2.1-0.4c-0.7,0.5-0.9,1.4-0.4,2.1c0,0,0,0,0,0.1
	l2.2,3.2l-1.9,4.7c-0.2,0.5-0.1,1,0.1,1.4l7.2,10.9C72.2,120.5,73.1,120.7,73.8,120.3C73.8,120.3,73.8,120.3,73.8,120.3L73.8,120.3z
	 M65.5,75c0-5.5,4.5-10,10-10s10,4.5,10,10s-4.5,10-10,10C70,85,65.5,80.5,65.5,75z M82,77.5c-1.9-0.2-3.6-1.2-4.7-2.7l-2.1,2.2
	c-0.3,0.3-0.7,0.5-1.1,0.5c-2.5,0-4.5-1.8-5.6-3c0,0.2,0,0.3,0,0.5c0,3.9,3.2,7,7,7C78.4,82,81,80.2,82,77.5L82,77.5z M69.6,71.2
	c0.2,0.1,0.4,0.3,0.5,0.5c0.8,1.3,2,2.2,3.4,2.7l2.8-3c0.3-0.3,0.8-0.5,1.3-0.5c0.5,0.1,0.9,0.3,1.1,0.7c0.5,0.9,2,2.8,3.3,2.8
	c0.1,0,0.3,0,0.4,0.1c-0.2-3.9-3.5-6.8-7.4-6.6C72.9,68.2,70.8,69.3,69.6,71.2L69.6,71.2z M76.5,141h-2c-0.8,0-1.5,0.6-1.5,1.4
	l-0.7,17.4c0,0.8,0.6,1.5,1.4,1.6c0.8,0,1.5-0.6,1.6-1.4l0.2-5.7l0.2,5.7c0,0.8,0.7,1.4,1.5,1.4h0.1c0.8,0,1.5-0.7,1.4-1.6L78,142.5
	C78,141.6,77.3,141,76.5,141z M117.5,79v-2c0-3.3,2.7-6,6-6s6,2.7,6,6v2c4.4,3.3,5.3,9.6,2,14s-9.6,5.3-14,2s-5.3-9.6-2-14
	C116.1,80.3,116.7,79.6,117.5,79z M130.1,89.2c-2-0.3-3.8-1.4-4.9-3.1c-2.1,2.2-4.9,3.7-7.9,4.1c1.8,3.4,6,4.8,9.4,3
	C128.3,92.4,129.6,90.9,130.1,89.2L130.1,89.2z M120.5,77.5c2-0.6,4-0.6,6,0V77c0-1.7-1.3-3-3-3s-3,1.3-3,3V77.5z M116.5,87
	c0,0.1,0,0.2,0,0.3c3-0.4,5.8-2,7.6-4.6c0,0,0,0,0-0.1c0,0,0.1-0.1,0.1-0.1c0,0,0.1-0.1,0.1-0.1c0,0,0.1-0.1,0.1-0.1
	c0,0,0.1,0,0.1-0.1s0.1,0,0.1-0.1s0,0,0.1,0s0.1,0,0.1,0c0.1,0,0.1,0,0.2-0.1c0,0,0.1,0,0.1,0c0.1,0,0.1,0,0.2,0c0,0,0.1,0,0.1,0
	c0.1,0,0.1,0,0.2,0c0,0,0.1,0,0.1,0c0.1,0,0.1,0,0.2,0.1c0,0,0.1,0,0.1,0c0.1,0,0.1,0.1,0.2,0.1c0,0,0,0,0,0s0,0,0,0
	c0.1,0,0.1,0.1,0.2,0.1c0,0,0,0,0.1,0.1c0,0,0.1,0.1,0.1,0.1c0,0,0,0.1,0.1,0.1c0,0,0,0.1,0.1,0.1c1.6,3,3.3,3.3,3.8,3.4
	c-0.4-3.8-3.9-6.6-7.7-6.2C119.2,80.5,116.5,83.5,116.5,87L116.5,87z M147.4,144.2c0.1,0.8-0.5,1.6-1.3,1.7c-0.1,0-0.1,0-0.2,0
	c-0.5,0-1,0.2-1.4,0.6c-0.8,0.7-1.9,1.1-2.9,1.1l0.7,2.2c0.2,0.8-0.2,1.6-1,1.9c-0.8,0.2-1.6-0.2-1.9-1c0,0,0,0,0-0.1l-10.2-34.8
	c-0.1-0.2-0.1-0.5,0-0.7l1-4.7c0.1-0.6-0.3-1.2-0.9-1.4c-0.1,0-0.2,0-0.2,0h-11c-0.6,0-1.1,0.5-1.1,1.1c0,0.1,0,0.2,0,0.2l1,4.7
	c0.1,0.2,0,0.5,0,0.7l-13,44.4c-0.2,0.6-0.8,1.1-1.4,1.1c-0.1,0-0.3,0-0.4-0.1c-0.8-0.2-1.2-1.1-1-1.9c0,0,0,0,0,0l3.5-11.8
	c-1.1,0-2.1-0.4-2.9-1.1c-0.4-0.4-0.9-0.6-1.4-0.6c-0.8,0-1.5-0.7-1.5-1.5c0-0.1,0-0.1,0-0.2l6.9-56.3c0-5.3,2.6-10.3,6.9-13.3
	c0.7-0.5,1.6-0.3,2.1,0.3c0.5,0.7,0.3,1.6-0.3,2.1c0,0,0,0,0,0c-3.5,2.5-5.6,6.6-5.6,11c0,0.1,0,0.1,0,0.2l-6.7,55
	c0.5,0.2,1.1,0.5,1.5,0.9c0.4,0.4,0.9,0.6,1.4,0.6c0.2,0,0.4,0,0.7-0.1l4.7-16.1c-1.4-2-2.1-4.4-2.1-6.9v-11
	c0-6.9,5.6-12.5,12.5-12.5h4c6.9,0,12.5,5.6,12.5,12.5v11c0,2.4-0.7,4.8-2.1,6.9l4.7,16.1c0.2,0.1,0.4,0.1,0.6,0.1
	c0.5,0,1-0.2,1.4-0.6c0.5-0.4,1-0.7,1.5-0.9l-6.7-55c0-0.1,0-0.1,0-0.2c0-4.4-2.1-8.4-5.6-11c-0.7-0.5-0.9-1.4-0.4-2.1
	c0.5-0.7,1.4-0.9,2.1-0.4c0,0,0,0,0,0c4.3,3.1,6.9,8,6.9,13.3L147.4,144.2z M133,111l-1,4.3l2.6,8.7c0.2-0.8,0.4-1.7,0.4-2.6v-11
	c0-5.2-4.3-9.5-9.5-9.5h-4c-5.2,0-9.5,4.3-9.5,9.5v11c0,0.9,0.1,1.7,0.4,2.6l2.6-8.7l-1-4.3c-0.5-2.2,0.9-4.4,3.1-4.9
	c0.3-0.1,0.6-0.1,0.9-0.1h11c2.3,0,4.1,1.8,4.1,4.1C133.1,110.5,133.1,110.8,133,111L133,111z M102.5,73h-5c-0.8,0-1.5-0.7-1.5-1.5
	V65h-3.5c-0.8,0-1.5-0.7-1.5-1.5v-5c0-0.8,0.7-1.5,1.5-1.5H96v-3.5c0-0.8,0.7-1.5,1.5-1.5h5c0.8,0,1.5,0.7,1.5,1.5V57h3.5
	c0.8,0,1.5,0.7,1.5,1.5v5c0,0.8-0.7,1.5-1.5,1.5H104v6.5C104,72.3,103.3,73,102.5,73z M102.5,62h3.5v-2h-3.5c-0.8,0-1.5-0.7-1.5-1.5
	V55h-2v3.5c0,0.8-0.7,1.5-1.5,1.5H94v2h3.5c0.8,0,1.5,0.7,1.5,1.5V70h2v-6.5C101,62.7,101.7,62,102.5,62z"/>
</svg>
