<svg height="320" viewBox="0 0 320 320" width="320" xmlns="http://www.w3.org/2000/svg" xmlns:xlink="http://www.w3.org/1999/xlink"><linearGradient id="a" gradientUnits="userSpaceOnUse" x1="86.097" x2="234.473" y1="88.82" y2="237.196"><stop offset="0" stop-color="#24b1b4"/><stop offset=".33" stop-color="#329fb9"/><stop offset=".66" stop-color="#438dbd"/><stop offset="1" stop-color="#5674b0"/></linearGradient><path d="m126.957 245.861c-1.306 2.325-4.649 6.688-6.566 9.381h7.178a.8.8 0 0 1 .775.775v3.67a.8.8 0 0 1 -.775.775h-16.315a.774.774 0 0 1 -.774-.775v-.815c2.365-3.1 8.4-11.3 10.808-14.969a6 6 0 0 0 1.061-3.1c0-1.55-1.3-2.937-3.589-2.937a5.827 5.827 0 0 0 -3.956 2.039.789.789 0 0 1 -1.143 0l-2.487-2.528a.76.76 0 0 1 -.041-1.061s3.3-4 8.157-4c5.832 0 9.259 3.711 9.259 8.238a10.327 10.327 0 0 1 -1.592 5.307zm30.343-13.133h-17.214a.8.8 0 0 0 -.774.775v3.671a.8.8 0 0 0 .774.774h9.463l-10.2 21.291v.448a.784.784 0 0 0 .816.775h4.037a1.678 1.678 0 0 0 1.673-1.183l12.2-25.492v-.287a.8.8 0 0 0 -.775-.772zm5.059 22.451a2.826 2.826 0 0 0 -2.759 2.821 2.8 2.8 0 0 0 2.76 2.76 2.827 2.827 0 0 0 2.818-2.76 2.858 2.858 0 0 0 -2.822-2.821zm21.341-12.459h-11.012a.513.513 0 0 0 -.5.5v2.349a.513.513 0 0 0 .5.5h6.053l-6.522 13.62v.287a.5.5 0 0 0 .521.5h2.583a1.074 1.074 0 0 0 1.07-.757l7.8-16.308v-.183a.514.514 0 0 0 -.493-.508zm-93.7-152.22a13.5 13.5 0 1 1 13.5 13.5 13.515 13.515 0 0 1 -13.5-13.5zm4 0a9.5 9.5 0 0 0 18.953.923 2 2 0 0 1 -1.953 1.577 7.1 7.1 0 0 1 -5.1-2.792l-1.88 2.119a2 2 0 0 1 -1.5.673c-4.176 0-6.941-4.472-7.243-4.981a2 2 0 0 1 3.441-2.04 7.624 7.624 0 0 0 3.036 2.87l2.818-3.176a2 2 0 0 1 3.254.374c.682 1.235 2.163 2.953 3.174 2.953a1.994 1.994 0 0 1 1.983 1.833c0-.111.017-.22.017-.333a9.5 9.5 0 0 0 -19 0zm67.85 37.729a2.317 2.317 0 0 0 -.189-.34 2.147 2.147 0 0 0 -.551-.55 1.493 1.493 0 0 0 -.35-.19 1.567 1.567 0 0 0 -.37-.109 2 2 0 0 0 -1.8.55 1.457 1.457 0 0 0 -.25.3 1.673 1.673 0 0 0 -.19.34 1.644 1.644 0 0 0 -.109.38 1.718 1.718 0 0 0 -.041.39 2 2 0 0 0 4 0 1.718 1.718 0 0 0 -.04-.391 2.432 2.432 0 0 0 -.11-.38zm0 7a2.317 2.317 0 0 0 -.189-.34 2.147 2.147 0 0 0 -.551-.55 1.964 1.964 0 0 0 -.35-.19 1.567 1.567 0 0 0 -.37-.109 2 2 0 0 0 -1.8.55 1.457 1.457 0 0 0 -.25.3 1.673 1.673 0 0 0 -.19.34 1.644 1.644 0 0 0 -.109.38 1.718 1.718 0 0 0 -.041.39 2.037 2.037 0 0 0 .149.77 1.889 1.889 0 0 0 .44.641 1.983 1.983 0 0 0 1.411.589 1.968 1.968 0 0 0 1.41-.59 1.887 1.887 0 0 0 .439-.641 2.019 2.019 0 0 0 .151-.769 1.718 1.718 0 0 0 -.04-.391 2.432 2.432 0 0 0 -.11-.38zm53.26 8.811a1.644 1.644 0 0 0 -.38.109 2.323 2.323 0 0 0 -.34.19 1.457 1.457 0 0 0 -.3.25 1.966 1.966 0 0 0 -.59 1.41 2.214 2.214 0 0 0 .149.77 2.22 2.22 0 0 0 .181.34 1.916 1.916 0 0 0 .26.3 1.883 1.883 0 0 0 .64.439 2.021 2.021 0 0 0 .771.15 1.983 1.983 0 0 0 1.41-.59 1.463 1.463 0 0 0 .25-.3 1.6 1.6 0 0 0 .189-.34 1.7 1.7 0 0 0 .11-.38 2.507 2.507 0 0 0 .04-.39 2.008 2.008 0 0 0 -2.391-1.96zm2.24 7.189a2.317 2.317 0 0 0 -.189-.34 1.829 1.829 0 0 0 -.25-.31 2.081 2.081 0 0 0 -2.83 0 2.394 2.394 0 0 0 -.24.31 1.673 1.673 0 0 0 -.19.34 1.644 1.644 0 0 0 -.109.38 1.718 1.718 0 0 0 -.04.391 2.037 2.037 0 0 0 .149.77 1.989 1.989 0 0 0 1.849 1.23 1.966 1.966 0 0 0 1.41-.59 1.887 1.887 0 0 0 .439-.641 2.019 2.019 0 0 0 .15-.77 2.662 2.662 0 0 0 -.04-.391 2.432 2.432 0 0 0 -.109-.379zm-112-10a2.317 2.317 0 0 0 -.189-.34 2.147 2.147 0 0 0 -.551-.55 1.964 1.964 0 0 0 -.35-.19 1.567 1.567 0 0 0 -.37-.109 2 2 0 0 0 -1.8.55 1.457 1.457 0 0 0 -.25.3 1.673 1.673 0 0 0 -.19.34 1.644 1.644 0 0 0 -.109.38 1.718 1.718 0 0 0 -.04.391 2.214 2.214 0 0 0 .149.77 2.22 2.22 0 0 0 .181.34 1.916 1.916 0 0 0 .26.3 1.983 1.983 0 0 0 1.41.59 2.186 2.186 0 0 0 .77-.15 1.878 1.878 0 0 0 .34-.189 1.463 1.463 0 0 0 .3-.25 1.95 1.95 0 0 0 .59-1.41 1.718 1.718 0 0 0 -.04-.391 2.432 2.432 0 0 0 -.111-.382zm0 7a2.317 2.317 0 0 0 -.189-.34 2.147 2.147 0 0 0 -.551-.55 1.493 1.493 0 0 0 -.35-.19 1.567 1.567 0 0 0 -.37-.109 2 2 0 0 0 -1.8.55 1.457 1.457 0 0 0 -.25.3 2.323 2.323 0 0 0 -.19.34 1.644 1.644 0 0 0 -.109.38 1.718 1.718 0 0 0 -.04.391 2.037 2.037 0 0 0 .149.77 1.889 1.889 0 0 0 .44.641 1.981 1.981 0 0 0 2.82 0 1.887 1.887 0 0 0 .439-.641 2.019 2.019 0 0 0 .15-.77 2.662 2.662 0 0 0 -.04-.391 2.432 2.432 0 0 0 -.109-.381zm56.5-6a2.317 2.317 0 0 0 -.189-.34 1.852 1.852 0 0 0 -.25-.3 1.463 1.463 0 0 0 -.3-.25 1.964 1.964 0 0 0 -.35-.19 1.567 1.567 0 0 0 -.37-.109 1.967 1.967 0 0 0 -1.8.55 1.457 1.457 0 0 0 -.25.3 1.673 1.673 0 0 0 -.19.34 1.644 1.644 0 0 0 -.109.38 1.718 1.718 0 0 0 -.042.39 1.85 1.85 0 0 0 .34 1.109 2.147 2.147 0 0 0 .55.551 1.623 1.623 0 0 0 .34.189 1.7 1.7 0 0 0 .38.11 1.658 1.658 0 0 0 .39.041 2.186 2.186 0 0 0 .77-.15 1.878 1.878 0 0 0 .34-.189 2.13 2.13 0 0 0 .551-.551 1.6 1.6 0 0 0 .189-.34 1.7 1.7 0 0 0 .11-.38 1.649 1.649 0 0 0 .04-.39 1.718 1.718 0 0 0 -.04-.391 2.432 2.432 0 0 0 -.11-.38zm0 7a2 2 0 0 0 -.189-.35 1.432 1.432 0 0 0 -.25-.3 1.4 1.4 0 0 0 -.3-.25 1.9 1.9 0 0 0 -.35-.19 2.217 2.217 0 0 0 -.37-.109 1.99 1.99 0 0 0 -1.8.55 1.432 1.432 0 0 0 -.25.3 2 2 0 0 0 -.19.35 1.567 1.567 0 0 0 -.109.37 1.707 1.707 0 0 0 -.04.391 1.983 1.983 0 0 0 .59 1.409 1.4 1.4 0 0 0 .3.25 1.628 1.628 0 0 0 .34.19 2.186 2.186 0 0 0 .771.15 2.016 2.016 0 0 0 2-2 1.707 1.707 0 0 0 -.04-.391 2.316 2.316 0 0 0 -.113-.37zm-14.85-58.229a13 13 0 0 1 6.58-11.289 4.562 4.562 0 0 1 -.58-2.211c0-3.084 3.075-5.5 7-5.5s7 2.416 7 5.5a4.562 4.562 0 0 1 -.58 2.211 12.995 12.995 0 1 1 -19.42 11.289zm4.014-.268a1.984 1.984 0 0 1 .661-.16c5.479-.3 8.639-5.9 8.67-5.956.007-.013.018-.024.026-.037a1.993 1.993 0 0 1 .139-.2c.029-.039.056-.08.087-.116a1.987 1.987 0 0 1 .185-.177c.033-.029.063-.061.1-.087a2 2 0 0 1 .216-.138c.039-.022.075-.047.115-.067.021-.01.038-.025.06-.035.06-.027.123-.041.184-.062.04-.014.079-.029.119-.04a1.975 1.975 0 0 1 .266-.05c.038-.005.075-.011.113-.014a1.984 1.984 0 0 1 .271 0c.039 0 .077 0 .116.008a1.985 1.985 0 0 1 .269.055c.037.01.073.018.109.029a2 2 0 0 1 .28.115c.021.01.042.015.062.026s.013.01.02.014a1.991 1.991 0 0 1 .261.179c.021.017.045.031.065.049a1.977 1.977 0 0 1 .2.208c.023.027.049.052.071.08a2.018 2.018 0 0 1 .134.208c.026.044.054.085.076.13.009.019.023.035.032.054 2 4.417 4.133 4.38 4.128 4.382-.044 0 .423-.024.745-.042a8.993 8.993 0 0 0 -17.778 1.64zm17.719 2.405h-.685c-1.063 0-3.707-.393-6.159-3.871a14.465 14.465 0 0 1 -9.993 5.3h-.112c-.015 0-.029 0-.043 0a8.991 8.991 0 0 0 16.993-1.428zm-11.243-14.889a12.812 12.812 0 0 1 5.02 0 1.084 1.084 0 0 0 .49-.748c0-.6-1.2-1.5-3-1.5s-3 .9-3 1.5a1.084 1.084 0 0 0 .49.748zm52.281 178.566 1.866 1.124c-.148.722-.721 3.818-2.163 3.818-.976 0-2.27-1.061-3.627-2.948a16.7 16.7 0 0 1 -3.627 2.842l-1.823-1.611a10.447 10.447 0 0 0 4.39-3.118 18.069 18.069 0 0 1 -1.187-5.43h-6.745c0 .255.021.4.021 1.654.043 4.857-1.506 7.529-2.142 8.463l-2.164-1.146c.679-1.018 2.1-3.139 2.1-8.1 0-.466-.021-1.718-.105-2.8h8.865c-.021-.53-.021-.552-.042-.934h-10.16v-1.994h3.372v-2.608l2.058.127c.7.043.806.128.806.318a.32.32 0 0 1 -.148.275c-.233.191-.275.233-.275.361v1.526h2.142v-3.478l1.951.084c.764.043 1 .085 1 .361 0 .105-.042.169-.275.339-.148.106-.148.106-.148.233h5.281v1.781h-5.281v.679h7.826v1.994h-2.4a6.373 6.373 0 0 1 .53.934h1.633v1.93h-5.6a14.378 14.378 0 0 0 .615 3.352 12.315 12.315 0 0 0 1.357-3.225l1.824.658c.552.19.657.3.657.424a.248.248 0 0 1 -.17.233c-.382.148-.424.148-.551.424a17.413 17.413 0 0 1 -2.079 3.712c.467.827 1.061 1.846 1.591 1.846.445.001.742-.976.827-2.1zm-4.136-7.253h1.824a8.2 8.2 0 0 0 -.509-.934h-1.294c0 .298-.021.637-.021.935zm-4.433 9.607v-5.111h1.761v-1.8h-5.363v1.8h1.7v1.251a.789.789 0 0 0 -.318-.19l-1.378-.573a9.284 9.284 0 0 1 -1.04 2.715l1.464.764a8.572 8.572 0 0 0 .934-2.418.724.724 0 0 0 .339-.169v2.27c0 .487-.318.572-.615.572a8.657 8.657 0 0 1 -1-.085l.721 2.058c.949-.023 2.793-.129 2.793-1.083zm.19-3.924a12.276 12.276 0 0 1 .976 2.461l1.464-.7a14.646 14.646 0 0 0 -1.082-2.248zm-85.757-35.244h-9a2 2 0 0 1 -2-1.917l-1.135-27.275-1.137 27.275a2 2 0 0 1 -2 1.917h-9a2 2 0 0 1 -2-1.917l-1.916-46.083h-2.082a2 2 0 0 1 -2-1.9l-2.365-47.675a17.286 17.286 0 0 1 17.17-17.425h10.66a17.268 17.268 0 0 1 17.17 17.326v.1l-2.368 47.674a2 2 0 0 1 -2 1.9h-2.082l-1.92 46.083a2 2 0 0 1 -1.995 1.917zm-16.935-111 4.669 15.951 4.9-15.951zm15.017 107 1.92-46.083a2 2 0 0 1 2-1.917h2.1l2.263-45.722a13.315 13.315 0 0 0 -9.694-12.792l-7.073 23.014a2 2 0 0 1 -1.912 1.412h-.014a2 2 0 0 1 -1.906-1.438l-6.727-22.981a13.315 13.315 0 0 0 -9.674 12.833l2.269 45.674h2.1a2 2 0 0 1 2 1.917l1.914 46.083h5.164l1.92-46.083a2 2 0 0 1 2-1.917h2.27a2 2 0 0 1 2 1.917l1.916 46.083zm124.283-93.674v.1l-2.368 47.674a2 2 0 0 1 -2 1.9h-2.082l-1.92 46.083a2 2 0 0 1 -2 1.917h-9a2 2 0 0 1 -2-1.917l-1.13-27.275-1.137 27.275a2 2 0 0 1 -2 1.917h-9a2 2 0 0 1 -2-1.917l-1.916-46.083h-2.082a2 2 0 0 1 -2-1.9l-2.365-47.675a17.286 17.286 0 0 1 17.17-17.425h10.66a17.268 17.268 0 0 1 17.17 17.326zm-14-12.919-.027.092c.017-.029.029-.059.047-.087zm-12.977-.407 4.353 15.3 4.572-15.3zm22.977 13.278a13.366 13.366 0 0 0 -5.787-10.98l1.768 4.124a2 2 0 0 1 -.424 2.2l-3.121 3.121 1.914 4.465a2 2 0 0 1 -.211 1.95l-8.156 11.419a2 2 0 1 1 -3.256-2.324l7.5-10.5-2-4.675a2 2 0 0 1 .425-2.2l3.12-3.121-1.913-4.464a1.978 1.978 0 0 1 -.151-.9l-6.461 21.625a2 2 0 0 1 -1.916 1.428h-.013a2 2 0 0 1 -1.911-1.453l-6.1-21.449a1.989 1.989 0 0 1 -.159.749l-1.913 4.464 3.12 3.121a2 2 0 0 1 .425 2.2l-2 4.675 7.5 10.5a2 2 0 0 1 -3.256 2.324l-8.156-11.419a2 2 0 0 1 -.211-1.95l1.914-4.465-3.121-3.121a2 2 0 0 1 -.424-2.2l1.768-4.125a13.365 13.365 0 0 0 -5.794 11.029l2.269 45.674h2.1a2 2 0 0 1 2 1.917l1.914 46.083h5.164l1.92-46.083a2 2 0 0 1 2-1.917h2.27a2 2 0 0 1 2 1.917l1.916 46.083h5.164l1.92-46.083a2 2 0 0 1 2-1.917h2.1zm-49.014 55.485a2 2 0 0 1 -1.986 2.237h-10.145l-2.861 38.149a2 2 0 0 1 -1.994 1.851h-5.5a2 2 0 0 1 -2-2v-38h-1v38a2 2 0 0 1 -2 2h-5.5a2 2 0 0 1 -1.994-1.851l-2.861-38.149h-10.145a2 2 0 0 1 -1.986-2.236l6.7-56.207a17.492 17.492 0 0 1 17.392-15.557h1.8a17.49 17.49 0 0 1 17.394 15.566zm-25.88-67.763a13.441 13.441 0 0 0 -8.531 3.053 1.994 1.994 0 0 1 2.207 1.04c.957 1.882 4.658 4.285 7.279 5.662 2.567-1.382 6.193-3.788 7.159-5.668a2 2 0 0 1 2.223-1.031 13.436 13.436 0 0 0 -8.534-3.056zm21.642 66-6.421-53.975a13.5 13.5 0 0 0 -3.408-7.571 1.986 1.986 0 0 1 -.14 1.459c-2.036 3.965-9.033 7.492-9.824 7.882a2 2 0 0 1 -1.75.008c-.809-.39-7.964-3.918-9.987-7.9a1.988 1.988 0 0 1 -.141-1.432 13.474 13.474 0 0 0 -3.387 7.532v.014l-6.437 53.983h9.747a2 2 0 0 1 1.994 1.851l2.861 38.149h1.645v-38a2 2 0 0 1 2-2h5a2 2 0 0 1 2 2v38h1.645l2.861-38.149a2 2 0 0 1 1.994-1.851zm21.252-85.5a13.5 13.5 0 1 1 13.5 13.5 13.515 13.515 0 0 1 -13.5-13.5zm23 0c0-.034 0-.067-.005-.1a2 2 0 0 1 -1.96 1.6c-3.546 0-6.634-2.038-8.529-3.659a11.889 11.889 0 0 1 -2.584 3.315 2 2 0 0 1 -1.122.344h-2.836a2 2 0 0 1 -1.96-1.6c0 .034-.005.067-.005.1a9.5 9.5 0 0 0 19 0zm-18.929-1.115a1.993 1.993 0 0 1 1.894-1.385h1.97a41.836 41.836 0 0 0 2.377-3.857 2 2 0 0 1 3.288-.316c.032.038 3.558 4.174 7.436 4.174a1.993 1.993 0 0 1 1.893 1.385 9.494 9.494 0 0 0 -18.857 0zm-88.071 37.615a2 2 0 0 0 -2-2h-4a2 2 0 0 0 0 4h4a2 2 0 0 0 2-2z" fill="url(#a)"/></svg>