<svg height="320" viewBox="0 0 320 320" width="320" xmlns="http://www.w3.org/2000/svg" xmlns:xlink="http://www.w3.org/1999/xlink"><linearGradient id="a" gradientUnits="userSpaceOnUse" x1="69.175" x2="222.825" y1="121.353" y2="275.003"><stop offset="0" stop-color="#24b1b4"/><stop offset=".33" stop-color="#329fb9"/><stop offset=".66" stop-color="#438dbd"/><stop offset="1" stop-color="#5674b0"/></linearGradient><path d="m158 100v136a2 2 0 0 1 -2 2h-36a2 2 0 0 1 0-4h34v-134a8.009 8.009 0 0 0 -8-8h-34a8.009 8.009 0 0 0 -8 8v76a2 2 0 0 1 -4 0v-76a12.013 12.013 0 0 1 12-12h34a12.013 12.013 0 0 1 12 12zm60 100v3a2 2 0 0 0 4 0v-3a12.013 12.013 0 0 0 -12-12h-34a12.013 12.013 0 0 0 -12 12v36a2 2 0 0 0 2 2h44a2 2 0 0 0 0-4h-42v-34a8.009 8.009 0 0 1 8-8h34a8.009 8.009 0 0 1 8 8zm-100.212-81.686 5.178-10.863v-.121a.341.341 0 0 0 -.329-.33h-7.309a.341.341 0 0 0 -.329.33v1.564a.341.341 0 0 0 .329.33h4.018l-4.33 9.072v.191a.334.334 0 0 0 .347.33h1.714a.713.713 0 0 0 .711-.503zm11.66-1.652a4.993 4.993 0 0 1 -2.061-.834.339.339 0 0 0 -.416.053l-1.091 1.077c-.208.209-.19.331.035.591a4.561 4.561 0 0 0 3.429 1.443 4.115 4.115 0 0 0 4.278-3.98 3.779 3.779 0 0 0 -3.949-3.963h-1.229v-1.859h3.567a.329.329 0 0 0 .329-.33v-1.53a.329.329 0 0 0 -.329-.33h-5.577a.329.329 0 0 0 -.329.33v5.388a.577.577 0 0 0 .537.608h2.667a1.65 1.65 0 0 1 1.784 1.686 1.6 1.6 0 0 1 -1.645 1.65zm14.422-6.635h-.951a.259.259 0 0 0 -.212.125l-4.292 8.326a.227.227 0 0 0 .212.34h.926a.376.376 0 0 0 .213-.126l4.317-8.326a.227.227 0 0 0 -.212-.339zm-.5 5.525a1.7 1.7 0 1 1 -1.689 1.7 1.7 1.7 0 0 1 1.689-1.699zm0 1.256a.434.434 0 1 0 .438.439.442.442 0 0 0 -.438-.438zm-2.5-5.225a1.689 1.689 0 1 1 -3.378 0 1.689 1.689 0 0 1 3.378 0zm-1.264 0a.432.432 0 0 0 -.863 0 .432.432 0 1 0 .863 0zm47.974 98.877c0-1.9-1.437-3.461-3.883-3.461a4.917 4.917 0 0 0 -3.421 1.679.32.32 0 0 0 .017.445l1.043 1.063a.329.329 0 0 0 .479 0 2.445 2.445 0 0 1 1.659-.856 1.333 1.333 0 0 1 1.505 1.233 2.525 2.525 0 0 1 -.445 1.3c-1.009 1.542-3.541 4.986-4.533 6.289v.343a.325.325 0 0 0 .325.325h6.842a.337.337 0 0 0 .325-.325v-1.543a.337.337 0 0 0 -.325-.325h-3.011c.8-1.131 2.207-2.965 2.754-3.941a4.34 4.34 0 0 0 .667-2.225zm6.914 6.237a4.939 4.939 0 0 1 -2.036-.822.332.332 0 0 0 -.41.052l-1.078 1.062c-.206.206-.188.326.034.583a4.509 4.509 0 0 0 3.387 1.422 4.06 4.06 0 0 0 4.225-3.924 3.73 3.73 0 0 0 -3.9-3.906h-1.216v-1.834h3.524a.325.325 0 0 0 .325-.325v-1.505a.325.325 0 0 0 -.325-.326h-5.508a.325.325 0 0 0 -.325.326v5.312a.569.569 0 0 0 .53.6h2.634a1.629 1.629 0 0 1 1.762 1.662 1.584 1.584 0 0 1 -1.626 1.626zm9.506-3.042a1.576 1.576 0 1 1 1.58-1.582 1.575 1.575 0 0 1 -1.58 1.582zm0-1.172a.4.4 0 1 0 -.41-.41.413.413 0 0 0 .41.41zm-.515 6.34h.866a.35.35 0 0 0 .2-.117l4.038-7.77a.212.212 0 0 0 -.2-.316h-.89a.245.245 0 0 0 -.2.117l-4.014 7.77a.212.212 0 0 0 .2.316zm2.855-1.465a1.586 1.586 0 1 1 1.58 1.582 1.582 1.582 0 0 1 -1.579-1.582zm1.182 0a.4.4 0 0 0 .808 0 .4.4 0 1 0 -.808 0zm-94.522 5.373v13.269a2 2 0 0 1 -2 2h-44a2 2 0 0 1 -2-2v-13.269a17.74 17.74 0 0 1 16.552-17.671 2.026 2.026 0 0 1 .285-.053 14 14 0 1 1 14.32 0 2.029 2.029 0 0 1 .283.049 17.74 17.74 0 0 1 16.56 17.675zm-28.32-13.731 4.2 14.131 4.402-14.131zm4.32-6a10 10 0 1 0 -8.374-15.449 1.986 1.986 0 0 1 3.093.427 7.625 7.625 0 0 0 3.037 2.87l2.818-3.176a2 2 0 0 1 3.254.374c.679 1.236 2.162 2.954 3.172 2.954a2 2 0 0 1 0 4 7.1 7.1 0 0 1 -5.1-2.792l-1.88 2.119a2 2 0 0 1 -1.5.673c-4.175 0-6.941-4.472-7.242-4.981a1.99 1.99 0 0 1 -.224-1.461 9.978 9.978 0 0 0 8.946 14.442zm20 19.731a13.741 13.741 0 0 0 -11.586-13.547l-6.676 21.416a2 2 0 0 1 -1.909 1.4h-.014a2 2 0 0 1 -1.9-1.431l-6.348-21.381a13.741 13.741 0 0 0 -11.567 13.543v11.269h40zm-7-3.731h-3a2 2 0 0 0 0 4h3a2 2 0 0 0 0-4zm159 5.877v11.123a2 2 0 0 1 -2 2h-40a2 2 0 0 1 -2-2v-11.123a19.9 19.9 0 0 1 17.515-19.723 12.474 12.474 0 0 1 -1.895-22.383 4.58 4.58 0 0 1 -.62-2.27c0-3.084 3.075-5.5 7-5.5s7 2.416 7 5.5a4.58 4.58 0 0 1 -.62 2.27 12.474 12.474 0 0 1 -1.895 22.383 19.9 19.9 0 0 1 17.515 19.723zm-13.756-33.41a8.488 8.488 0 0 0 -16.719 1.544 1.985 1.985 0 0 1 .492-.1c5.528-.307 8.636-5.894 8.667-5.95.008-.014.019-.025.027-.039a2 2 0 0 1 .13-.19c.033-.044.064-.091.1-.132a2 2 0 0 1 .152-.148c.045-.041.087-.084.135-.12s.107-.071.162-.1a1.987 1.987 0 0 1 .176-.1c.016-.008.03-.019.046-.027.042-.019.085-.027.127-.042a2 2 0 0 1 .2-.067c.058-.015.117-.024.175-.034a1.993 1.993 0 0 1 .213-.027h.166a1.957 1.957 0 0 1 .225.016c.053.008.105.02.158.032a1.961 1.961 0 0 1 .215.058c.06.021.116.047.174.073s.09.032.133.056c.016.009.029.021.044.03a1.985 1.985 0 0 1 .172.117c.051.037.1.072.149.113s.089.09.132.136a1.987 1.987 0 0 1 .135.152c.034.045.063.1.093.144a2 2 0 0 1 .113.195c.007.015.018.027.024.042 1.7 3.737 3.478 4.301 3.984 4.368zm-10.731-10.217a12.5 12.5 0 0 1 4.974 0 1.117 1.117 0 0 0 .513-.75c0-.6-1.2-1.5-3-1.5s-3 .9-3 1.5a1.117 1.117 0 0 0 .513.75zm2.487 20.75a8.509 8.509 0 0 0 8.26-6.529c-1.133-.031-3.667-.517-6.03-3.867a14.464 14.464 0 0 1 -9.992 5.3h-.02a8.509 8.509 0 0 0 7.782 5.096zm18 22.877a15.9 15.9 0 0 0 -15.877-15.877h-4.246a15.9 15.9 0 0 0 -15.877 15.877v9.123h36zm-16.89-1.037a2.323 2.323 0 0 0 -.34-.19 1.8 1.8 0 0 0 -.38-.109 2 2 0 0 0 -1.8.55 2 2 0 0 0 1.41 3.409 2 2 0 0 0 1.42-3.41 1.832 1.832 0 0 0 -.31-.25zm0 5a2.323 2.323 0 0 0 -.34-.19 1.8 1.8 0 0 0 -.38-.109 2 2 0 1 0 -.39 3.96 2 2 0 0 0 1.42-3.41 1.832 1.832 0 0 0 -.31-.251zm8.709-17.664a2 2 0 0 0 -2.644 1c-1.059 2.359-4.924 4.86-7.113 6.066-2.182-1.182-6.194-3.72-7.235-6.061a2 2 0 0 0 -3.654 1.627c2.015 4.529 9.217 8.1 10.032 8.489a2 2 0 0 0 1.75-.008c.8-.393 7.842-3.959 9.87-8.476a2 2 0 0 0 -1.006-2.637zm-130.53-131.2a2 2 0 1 0 3.492-1.951l-2.035-3.643a2 2 0 0 0 -3.492 1.951zm10.711-1.359a2 2 0 0 0 2-2v-5.617a2 2 0 0 0 -4 0v5.617a2 2 0 0 0 2 2zm7.989 2.129a2 2 0 0 0 2.722-.771l2.035-3.643a2 2 0 0 0 -3.492-1.951l-2.035 3.643a2 2 0 0 0 .77 2.722zm45.3 98.729a2 2 0 1 0 3.492-1.951l-2.035-3.643a2 2 0 0 0 -3.492 1.951zm10.711-1.358a2 2 0 0 0 2-2v-5.617a2 2 0 0 0 -4 0v5.617a2 2 0 0 0 2 2zm7.989 2.129a2 2 0 0 0 2.722-.771l2.035-3.643a2 2 0 0 0 -3.492-1.951l-2.035 3.643a2 2 0 0 0 .77 2.722z" fill="url(#a)"/></svg>