<?xml version="1.0" encoding="utf-8"?>
<!-- Generator: Adobe Illustrator 22.1.0, SVG Export Plug-In . SVG Version: 6.00 Build 0)  -->
<svg version="1.1" id="レイヤー_1" xmlns="http://www.w3.org/2000/svg" xmlns:xlink="http://www.w3.org/1999/xlink" x="0px"
	 y="0px" viewBox="0 0 320 320" style="enable-background:new 0 0 320 320;" xml:space="preserve">
<style type="text/css">
	.st0{fill:url(#SVGID_1_);}
	.st1{fill:url(#SVGID_2_);}
	.st2{fill:url(#SVGID_3_);}
	.st3{fill:url(#SVGID_4_);}
	.st4{fill:url(#SVGID_5_);}
	.st5{fill:url(#SVGID_6_);}
	.st6{fill:url(#SVGID_7_);}
	.st7{fill:url(#SVGID_8_);}
	.st8{fill:url(#SVGID_9_);}
	.st9{fill:url(#SVGID_10_);}
	.st10{fill:url(#SVGID_11_);}
	.st11{fill:url(#SVGID_12_);}
	.st12{fill:url(#SVGID_13_);}
	.st13{fill:url(#SVGID_14_);}
	.st14{fill:url(#SVGID_15_);}
	.st15{fill:url(#SVGID_16_);}
	.st16{fill:url(#SVGID_17_);}
	.st17{fill:url(#SVGID_18_);}
	.st18{fill:url(#SVGID_19_);}
	.st19{fill:url(#SVGID_20_);}
	.st20{fill:url(#SVGID_21_);}
	.st21{fill:url(#SVGID_22_);}
	.st22{fill:url(#SVGID_23_);}
	.st23{fill:url(#SVGID_24_);}
	.st24{fill:url(#SVGID_25_);}
	.st25{fill:url(#SVGID_26_);}
	.st26{fill:url(#SVGID_27_);}
	.st27{fill:url(#SVGID_28_);}
	.st28{fill:url(#SVGID_29_);}
	.st29{fill:url(#SVGID_30_);}
	.st30{fill:url(#SVGID_31_);}
	.st31{fill:url(#SVGID_32_);}
	.st32{fill:url(#SVGID_33_);}
	.st33{fill:url(#SVGID_34_);}
	.st34{fill:url(#SVGID_35_);}
	.st35{fill:url(#SVGID_36_);}
	.st36{fill:url(#SVGID_37_);}
	.st37{fill:url(#SVGID_38_);}
	.st38{fill:url(#SVGID_39_);}
	.st39{fill:url(#SVGID_40_);}
	.st40{fill:url(#SVGID_41_);}
	.st41{fill:url(#SVGID_42_);}
	.st42{fill:url(#SVGID_43_);}
	.st43{fill:url(#SVGID_44_);}
	.st44{fill:url(#SVGID_45_);}
	.st45{fill:url(#SVGID_46_);}
	.st46{fill:url(#SVGID_47_);}
	.st47{fill:url(#SVGID_48_);}
	.st48{fill:url(#SVGID_49_);}
	.st49{fill:url(#SVGID_50_);}
	.st50{fill:url(#SVGID_51_);}
	.st51{fill:url(#SVGID_52_);}
	.st52{fill:url(#SVGID_53_);}
	.st53{fill:url(#SVGID_54_);}
</style>
<title>icon03</title>
<linearGradient id="SVGID_1_" gradientUnits="userSpaceOnUse" x1="114.6084" y1="259.6084" x2="257.8583" y2="116.3484" gradientTransform="matrix(1 0 0 -1 0 322)">
	<stop  offset="0" style="stop-color:#24B1B4"/>
	<stop  offset="0.33" style="stop-color:#329FB9"/>
	<stop  offset="0.66" style="stop-color:#438DBD"/>
	<stop  offset="1" style="stop-color:#5674B0"/>
</linearGradient>
<path class="st0" d="M155.9,149.9c-0.6,0-1.2-0.3-1.6-0.8l-24.1-33.3c-0.6-0.9-0.4-2.1,0.4-2.8c0.9-0.6,2.1-0.4,2.8,0.4l20.5,28.3
	v-28.2c0-1.1,0.9-2,2-2s2,0.9,2,2v34.3c0,0.9-0.6,1.6-1.4,1.9C156.3,149.9,156.1,149.9,155.9,149.9z M114.3,92.5
	c-0.6,0-1.2-0.3-1.6-0.8l-10.2-14.1c-0.3-0.4-0.4-1-0.3-1.5c0.1-0.5,0.4-1,0.8-1.3c15.6-10.8,34-16.8,52.9-17.2h0.1
	c0.2,0,0.5,0,0.7,0.1l0,0c0.6,0.2,1,0.7,1.2,1.2c0.1,0.2,0.1,0.4,0.1,0.6v17.1c0,1.1-0.9,2-2,2s-2-0.9-2-2v-15
	c-16.8,0.7-33,6-47,15.3l9,12.4c0.7,0.9,0.5,2.1-0.4,2.8C115.1,92.4,114.7,92.5,114.3,92.5L114.3,92.5z"/>
<linearGradient id="SVGID_2_" gradientUnits="userSpaceOnUse" x1="49.982" y1="194.982" x2="193.242" y2="51.732" gradientTransform="matrix(1 0 0 -1 0 322)">
	<stop  offset="0" style="stop-color:#24B1B4"/>
	<stop  offset="0.33" style="stop-color:#329FB9"/>
	<stop  offset="0.66" style="stop-color:#438DBD"/>
	<stop  offset="1" style="stop-color:#5674B0"/>
</linearGradient>
<path class="st1" d="M155.9,263.5L155.9,263.5c-42.4-1.6-77.8-27.4-92.4-67.2c-0.2-0.5-0.2-1.1,0.1-1.6c0.2-0.5,0.7-0.8,1.2-1
	l90.5-29.5c1.1-0.3,2.2,0.2,2.5,1.3c0.1,0.2,0.1,0.4,0.1,0.6v95.4C157.9,262.6,157,263.5,155.9,263.5L155.9,263.5z M68,196.9
	c14.2,36.5,46.8,60.3,85.9,62.5v-90.5L68,196.9z"/>
<linearGradient id="SVGID_3_" gradientUnits="userSpaceOnUse" x1="78.9026" y1="223.9026" x2="222.1626" y2="80.6426" gradientTransform="matrix(1 0 0 -1 0 322)">
	<stop  offset="0" style="stop-color:#24B1B4"/>
	<stop  offset="0.33" style="stop-color:#329FB9"/>
	<stop  offset="0.66" style="stop-color:#438DBD"/>
	<stop  offset="1" style="stop-color:#5674B0"/>
</linearGradient>
<path class="st2" d="M164.1,263.5c-1.1,0-2-0.9-2-2v-95.4c0-1.1,0.9-2,2-2c0.2,0,0.4,0,0.6,0.1l90.5,29.5c0.5,0.2,0.9,0.5,1.2,1
	c0.2,0.5,0.3,1,0.1,1.6C241.9,236.1,206.5,261.9,164.1,263.5L164.1,263.5z M166.1,168.9v90.5c39.1-2.2,71.7-26,85.9-62.6
	L166.1,168.9z"/>
<linearGradient id="SVGID_4_" gradientUnits="userSpaceOnUse" x1="125.6852" y1="270.6852" x2="268.9452" y2="127.4352" gradientTransform="matrix(1 0 0 -1 0 322)">
	<stop  offset="0" style="stop-color:#24B1B4"/>
	<stop  offset="0.33" style="stop-color:#329FB9"/>
	<stop  offset="0.66" style="stop-color:#438DBD"/>
	<stop  offset="1" style="stop-color:#5674B0"/>
</linearGradient>
<path class="st3" d="M257.1,189.8c-0.2,0-0.4,0-0.6-0.1l-93.1-30.3c-0.8-0.3-1.4-1-1.4-1.9v-98c0-0.5,0.2-1.1,0.6-1.4
	c0.4-0.4,0.9-0.6,1.5-0.6c55.2,2.4,98.7,47.8,98.7,103c0.1,9.4-1.2,18.8-3.8,27.9c-0.2,0.5-0.5,1-1,1.2
	C257.8,189.8,257.5,189.8,257.1,189.8z M166.1,156.1l89.7,29.2c2.1-8.1,3.2-16.4,3.1-24.8c0-52.3-40.6-95.6-92.8-98.9L166.1,156.1z"
	/>
<linearGradient id="SVGID_5_" gradientUnits="userSpaceOnUse" x1="77.7644" y1="222.7644" x2="221.0244" y2="79.5144" gradientTransform="matrix(1 0 0 -1 0 322)">
	<stop  offset="0" style="stop-color:#24B1B4"/>
	<stop  offset="0.33" style="stop-color:#329FB9"/>
	<stop  offset="0.66" style="stop-color:#438DBD"/>
	<stop  offset="1" style="stop-color:#5674B0"/>
</linearGradient>
<path class="st4" d="M177.8,205.5l0.6-1.1c0.1-0.1,0.3-0.2,0.4-0.1c0.5,0.4,1.2,0.6,1.9,0.7c0.4,0,0.8-0.3,0.9-0.7c0,0,0,0,0-0.1
	c0-0.6-0.4-1-1.3-1.3c-1.1-0.4-2.5-1.3-2.5-2.9c0.1-1.5,1.3-2.7,2.8-2.6c0.1,0,0.1,0,0.2,0c1,0,2,0.4,2.8,1c0.1,0.1,0.2,0.3,0.1,0.4
	l-0.7,1c-0.1,0.1-0.3,0.3-0.4,0.2c-0.5-0.4-1.2-0.7-1.9-0.8c-0.4,0-0.8,0.3-0.8,0.7c0,0.5,0.4,0.9,1.4,1.3s2.6,1.2,2.6,3
	c-0.1,1.6-1.4,2.8-3,2.7c0,0,0,0-0.1,0c-1.1,0.1-2.1-0.3-2.9-1C177.7,205.7,177.7,205.6,177.8,205.5z"/>
<linearGradient id="SVGID_6_" gradientUnits="userSpaceOnUse" x1="81.7994" y1="226.7994" x2="225.0494" y2="83.5394" gradientTransform="matrix(1 0 0 -1 0 322)">
	<stop  offset="0" style="stop-color:#24B1B4"/>
	<stop  offset="0.33" style="stop-color:#329FB9"/>
	<stop  offset="0.66" style="stop-color:#438DBD"/>
	<stop  offset="1" style="stop-color:#5674B0"/>
</linearGradient>
<path class="st5" d="M195.1,206.4l-4.1-8.8c0-0.1-0.1-0.1-0.2-0.1h-0.1c-0.1,0-0.2,0.1-0.2,0.1l-4.1,8.8c-0.1,0.1,0,0.3,0.1,0.3
	c0,0,0.1,0,0.1,0h1.4c0.2,0,0.4-0.1,0.5-0.3l0.5-1h3.6l0.5,1c0.1,0.2,0.2,0.3,0.4,0.3h1.4c0.1,0,0.3,0,0.3-0.1
	C195.2,206.5,195.2,206.4,195.1,206.4z M189.8,203.6l1-2.1l0,0l1,2.1H189.8z"/>
<linearGradient id="SVGID_7_" gradientUnits="userSpaceOnUse" x1="87.0697" y1="232.0697" x2="230.3297" y2="88.8197" gradientTransform="matrix(1 0 0 -1 0 322)">
	<stop  offset="0" style="stop-color:#24B1B4"/>
	<stop  offset="0.33" style="stop-color:#329FB9"/>
	<stop  offset="0.66" style="stop-color:#438DBD"/>
	<stop  offset="1" style="stop-color:#5674B0"/>
</linearGradient>
<path class="st6" d="M198.3,197.8c0-0.1,0.1-0.2,0.2-0.2h1.6c0.1,0,0.2,0.1,0.2,0.2v7h3.1c0.1,0,0.2,0.1,0.2,0.2v1.4
	c0,0.1-0.1,0.2-0.2,0.2h-4.9c-0.1,0-0.2-0.1-0.2-0.2V197.8z"/>
<linearGradient id="SVGID_8_" gradientUnits="userSpaceOnUse" x1="92.4116" y1="237.4116" x2="235.6616" y2="94.1516" gradientTransform="matrix(1 0 0 -1 0 322)">
	<stop  offset="0" style="stop-color:#24B1B4"/>
	<stop  offset="0.33" style="stop-color:#329FB9"/>
	<stop  offset="0.66" style="stop-color:#438DBD"/>
	<stop  offset="1" style="stop-color:#5674B0"/>
</linearGradient>
<path class="st7" d="M207,197.8c0-0.1,0.1-0.2,0.2-0.2h5.4c0.1,0,0.2,0.1,0.2,0.2v1.4c0,0.1-0.1,0.2-0.2,0.2H209v1.6h3
	c0.1,0,0.2,0.1,0.2,0.2v1.4c0,0.1-0.1,0.2-0.2,0.2h-3v1.8h3.6c0.1,0,0.2,0.1,0.2,0.2v1.4c0,0.1-0.1,0.2-0.2,0.2h-5.4
	c-0.1,0-0.2-0.1-0.2-0.2V197.8z"/>
<linearGradient id="SVGID_9_" gradientUnits="userSpaceOnUse" x1="97.0001" y1="242.0001" x2="240.2501" y2="98.7401" gradientTransform="matrix(1 0 0 -1 0 322)">
	<stop  offset="0" style="stop-color:#24B1B4"/>
	<stop  offset="0.33" style="stop-color:#329FB9"/>
	<stop  offset="0.66" style="stop-color:#438DBD"/>
	<stop  offset="1" style="stop-color:#5674B0"/>
</linearGradient>
<path class="st8" d="M216.2,205.5l0.6-1.1c0.1-0.1,0.3-0.2,0.4-0.1c0.5,0.4,1.2,0.6,1.9,0.7c0.5,0,0.9-0.3,0.9-0.7c0,0,0,0,0,0
	c0-0.6-0.4-1-1.3-1.3c-1.1-0.4-2.5-1.3-2.5-2.9c0.1-1.5,1.3-2.7,2.8-2.6c0.1,0,0.1,0,0.2,0c1,0,2,0.4,2.8,1c0.1,0.1,0.2,0.3,0.1,0.4
	l-0.7,1c-0.1,0.1-0.3,0.3-0.4,0.2c-0.5-0.4-1.2-0.7-1.9-0.8c-0.4,0-0.8,0.3-0.8,0.7c0,0.5,0.4,0.9,1.4,1.3s2.6,1.2,2.6,3
	c-0.1,1.6-1.4,2.8-3,2.7c0,0,0,0-0.1,0c-1.1,0.1-2.1-0.3-2.9-1C216.2,205.7,216.1,205.6,216.2,205.5z"/>
<linearGradient id="SVGID_10_" gradientUnits="userSpaceOnUse" x1="115.734" y1="260.734" x2="258.994" y2="117.474" gradientTransform="matrix(1 0 0 -1 0 322)">
	<stop  offset="0" style="stop-color:#24B1B4"/>
	<stop  offset="0.33" style="stop-color:#329FB9"/>
	<stop  offset="0.66" style="stop-color:#438DBD"/>
	<stop  offset="1" style="stop-color:#5674B0"/>
</linearGradient>
<path class="st9" d="M172.7,117c0-0.1,0.1-0.2,0.2-0.2l0,0h4.7c0.1,0,0.2,0.1,0.2,0.2c0,0,0,0,0,0v1.2c0,0.1-0.1,0.2-0.2,0.2
	c0,0,0,0,0,0h-3.2v1.4h2.6c0.1,0,0.2,0.1,0.2,0.2v1.2c0,0.1-0.1,0.2-0.2,0.2c0,0,0,0,0,0h-2.6v1.5h3.2c0.1,0,0.2,0.1,0.2,0.2
	c0,0,0,0,0,0v1.2c0,0.1-0.1,0.2-0.2,0.2c0,0,0,0,0,0h-4.7c-0.1,0-0.2-0.1-0.2-0.2l0,0V117z"/>
<linearGradient id="SVGID_11_" gradientUnits="userSpaceOnUse" x1="120.4142" y1="265.4142" x2="263.6742" y2="122.1642" gradientTransform="matrix(1 0 0 -1 0 322)">
	<stop  offset="0" style="stop-color:#24B1B4"/>
	<stop  offset="0.33" style="stop-color:#329FB9"/>
	<stop  offset="0.66" style="stop-color:#438DBD"/>
	<stop  offset="1" style="stop-color:#5674B0"/>
</linearGradient>
<path class="st10" d="M181.2,116.9c0-0.1,0.1-0.2,0.2-0.2c0,0,0,0,0,0h0.3l4.6,4.4l0,0v-4c0-0.1,0.1-0.2,0.2-0.2l0,0h1.4
	c0.1,0,0.2,0.1,0.2,0.2v7.7c0,0.1-0.1,0.2-0.2,0.2h-0.2c-0.1,0-0.1,0-0.1-0.1l-4.5-4.5l0,0v4.3c0,0.1-0.1,0.2-0.2,0.2l0,0h-1.4
	c-0.1,0-0.2-0.1-0.2-0.2L181.2,116.9z"/>
<linearGradient id="SVGID_12_" gradientUnits="userSpaceOnUse" x1="125.8301" y1="270.8301" x2="269.0901" y2="127.5701" gradientTransform="matrix(1 0 0 -1 0 322)">
	<stop  offset="0" style="stop-color:#24B1B4"/>
	<stop  offset="0.33" style="stop-color:#329FB9"/>
	<stop  offset="0.66" style="stop-color:#438DBD"/>
	<stop  offset="1" style="stop-color:#5674B0"/>
</linearGradient>
<path class="st11" d="M195.4,116.7c1,0,2,0.4,2.8,1.1c0.1,0.1,0.1,0.2,0,0.3c0,0,0,0,0,0l-0.9,1c-0.1,0.1-0.2,0.1-0.3,0
	c-0.4-0.4-0.9-0.6-1.5-0.6c-1.3,0-2.3,1-2.3,2.3s1,2.3,2.3,2.3l0,0c0.3,0,0.7-0.1,1-0.2v-0.7h-0.7c-0.1,0-0.2-0.1-0.2-0.2
	c0,0,0,0,0,0v-1.1c0-0.1,0.1-0.2,0.2-0.2c0,0,0,0,0,0h2.3c0.1,0,0.2,0.1,0.2,0.2c0,0,0,0,0,0v3.1c0,0.1,0,0.1-0.1,0.2
	c-0.9,0.5-1.8,0.7-2.8,0.7c-2.3-0.1-4-2-3.9-4.3C191.5,118.5,193.2,116.8,195.4,116.7L195.4,116.7z"/>
<linearGradient id="SVGID_13_" gradientUnits="userSpaceOnUse" x1="129.4101" y1="274.4101" x2="272.6601" y2="131.15" gradientTransform="matrix(1 0 0 -1 0 322)">
	<stop  offset="0" style="stop-color:#24B1B4"/>
	<stop  offset="0.33" style="stop-color:#329FB9"/>
	<stop  offset="0.66" style="stop-color:#438DBD"/>
	<stop  offset="1" style="stop-color:#5674B0"/>
</linearGradient>
<path class="st12" d="M201.9,116.8h1.4c0.1,0,0.2,0.1,0.2,0.2v7.5c0,0.1-0.1,0.2-0.2,0.2h-1.4c-0.1,0-0.2-0.1-0.2-0.2V117
	C201.7,116.9,201.8,116.8,201.9,116.8z"/>
<linearGradient id="SVGID_14_" gradientUnits="userSpaceOnUse" x1="133.4614" y1="278.4614" x2="276.7214" y2="135.2014" gradientTransform="matrix(1 0 0 -1 0 322)">
	<stop  offset="0" style="stop-color:#24B1B4"/>
	<stop  offset="0.33" style="stop-color:#329FB9"/>
	<stop  offset="0.66" style="stop-color:#438DBD"/>
	<stop  offset="1" style="stop-color:#5674B0"/>
</linearGradient>
<path class="st13" d="M207.3,116.9c0-0.1,0.1-0.2,0.2-0.2h0.3l4.6,4.4l0,0v-4c0-0.1,0.1-0.2,0.2-0.2l0,0h1.4c0.1,0,0.2,0.1,0.2,0.2
	v7.7c0,0.1-0.1,0.2-0.2,0.2h-0.2c0,0-0.1,0-0.1-0.1l-4.5-4.5l0,0v4.3c0,0.1-0.1,0.2-0.2,0.2l0,0h-1.4c-0.1,0-0.2-0.1-0.2-0.2
	L207.3,116.9z"/>
<linearGradient id="SVGID_15_" gradientUnits="userSpaceOnUse" x1="138.3646" y1="283.3646" x2="281.6246" y2="140.1146" gradientTransform="matrix(1 0 0 -1 0 322)">
	<stop  offset="0" style="stop-color:#24B1B4"/>
	<stop  offset="0.33" style="stop-color:#329FB9"/>
	<stop  offset="0.66" style="stop-color:#438DBD"/>
	<stop  offset="1" style="stop-color:#5674B0"/>
</linearGradient>
<path class="st14" d="M217.9,117c0-0.1,0.1-0.2,0.2-0.2l0,0h4.7c0.1,0,0.2,0.1,0.2,0.2l0,0v1.2c0,0.1-0.1,0.2-0.2,0.2l0,0h-3.2v1.4
	h2.6c0.1,0,0.2,0.1,0.2,0.2v1.2c0,0.1-0.1,0.2-0.2,0.2l0,0h-2.6v1.5h3.2c0.1,0,0.2,0.1,0.2,0.2l0,0v1.2c0,0.1-0.1,0.2-0.2,0.2l0,0
	h-4.7c-0.1,0-0.2-0.1-0.2-0.2l0,0V117z"/>
<linearGradient id="SVGID_16_" gradientUnits="userSpaceOnUse" x1="142.623" y1="287.623" x2="285.883" y2="144.373" gradientTransform="matrix(1 0 0 -1 0 322)">
	<stop  offset="0" style="stop-color:#24B1B4"/>
	<stop  offset="0.33" style="stop-color:#329FB9"/>
	<stop  offset="0.66" style="stop-color:#438DBD"/>
	<stop  offset="1" style="stop-color:#5674B0"/>
</linearGradient>
<path class="st15" d="M226.4,117c0-0.1,0.1-0.2,0.2-0.2c0,0,0,0,0,0h4.7c0.1,0,0.2,0.1,0.2,0.2l0,0v1.2c0,0.1-0.1,0.2-0.2,0.2l0,0
	h-3.2v1.4h2.6c0.1,0,0.2,0.1,0.2,0.2v1.2c0,0.1-0.1,0.2-0.2,0.2l0,0h-2.6v1.5h3.2c0.1,0,0.2,0.1,0.2,0.2l0,0v1.2
	c0,0.1-0.1,0.2-0.2,0.2l0,0h-4.7c-0.1,0-0.2-0.1-0.2-0.2c0,0,0,0,0,0V117z"/>
<linearGradient id="SVGID_17_" gradientUnits="userSpaceOnUse" x1="146.8046" y1="291.8046" x2="290.0546" y2="148.5446" gradientTransform="matrix(1 0 0 -1 0 322)">
	<stop  offset="0" style="stop-color:#24B1B4"/>
	<stop  offset="0.33" style="stop-color:#329FB9"/>
	<stop  offset="0.66" style="stop-color:#438DBD"/>
	<stop  offset="1" style="stop-color:#5674B0"/>
</linearGradient>
<path class="st16" d="M239.4,121.5c1.3-0.4,2-1.8,1.6-3.1c-0.3-1-1.3-1.7-2.4-1.7h-3.4c-0.1,0-0.2,0.1-0.2,0.2l0,0v7.6
	c0,0.1,0.1,0.2,0.2,0.2l0,0h1.4c0.1,0,0.2-0.1,0.2-0.2v-2.9h0.8l1.5,3c0,0.1,0.1,0.1,0.2,0.1h1.5c0.1,0,0.2-0.1,0.2-0.2
	c0,0,0-0.1,0-0.1L239.4,121.5z M238.4,120.2h-1.7v-1.8h1.7c0.5,0,0.9,0.4,0.9,0.9C239.3,119.8,238.9,120.2,238.4,120.2z"/>
<linearGradient id="SVGID_18_" gradientUnits="userSpaceOnUse" x1="43.0019" y1="188.0019" x2="186.2519" y2="44.7419" gradientTransform="matrix(1 0 0 -1 0 322)">
	<stop  offset="0" style="stop-color:#24B1B4"/>
	<stop  offset="0.33" style="stop-color:#329FB9"/>
	<stop  offset="0.66" style="stop-color:#438DBD"/>
	<stop  offset="1" style="stop-color:#5674B0"/>
</linearGradient>
<path class="st17" d="M107.6,196.8c0.7-0.3,1.1-0.9,1.2-1.7c-0.1-1.2-1.1-2.1-2.3-2c0,0,0,0,0,0h-2.5c-0.1,0-0.2,0.1-0.2,0.2
	c0,0,0,0,0,0v7c0,0.1,0.1,0.2,0.2,0.2h2.6c1.2,0.1,2.2-0.8,2.3-2C108.9,197.7,108.4,197,107.6,196.8z M105.5,194.7h0.8
	c0.4,0,0.7,0.3,0.7,0.7c0,0,0,0,0,0c0,0.4-0.3,0.8-0.7,0.8c0,0,0,0,0,0h-0.8V194.7z M106.5,199h-1v-1.5h0.9c0.4,0,0.8,0.3,0.9,0.8
	C107.3,198.7,106.9,199,106.5,199L106.5,199z"/>
<linearGradient id="SVGID_19_" gradientUnits="userSpaceOnUse" x1="46.6101" y1="191.6101" x2="189.8701" y2="48.3501" gradientTransform="matrix(1 0 0 -1 0 322)">
	<stop  offset="0" style="stop-color:#24B1B4"/>
	<stop  offset="0.33" style="stop-color:#329FB9"/>
	<stop  offset="0.66" style="stop-color:#438DBD"/>
	<stop  offset="1" style="stop-color:#5674B0"/>
</linearGradient>
<path class="st18" d="M114.9,193.1c0-0.1-0.1-0.1-0.2-0.1h-0.1c-0.1,0-0.1,0-0.2,0.1l-3.3,7.1c0,0.1,0,0.2,0.1,0.3c0,0,0.1,0,0.1,0
	h1.2c0.2,0,0.3-0.1,0.4-0.3l0.4-0.9h2.9l0.4,0.8c0.1,0.2,0.2,0.3,0.4,0.3h1.1c0.1,0,0.2-0.1,0.2-0.2c0,0,0-0.1,0-0.1L114.9,193.1z
	 M113.9,198l0.8-1.8l0,0l0.8,1.8H113.9z"/>
<linearGradient id="SVGID_20_" gradientUnits="userSpaceOnUse" x1="52.0749" y1="197.0748" x2="195.3348" y2="53.8248" gradientTransform="matrix(1 0 0 -1 0 322)">
	<stop  offset="0" style="stop-color:#24B1B4"/>
	<stop  offset="0.33" style="stop-color:#329FB9"/>
	<stop  offset="0.66" style="stop-color:#438DBD"/>
	<stop  offset="1" style="stop-color:#5674B0"/>
</linearGradient>
<path class="st19" d="M124.1,193c1,0,1.9,0.3,2.6,1c0.1,0.1,0.1,0.2,0,0.3c0,0,0,0,0,0l-0.8,0.9c-0.1,0.1-0.2,0.1-0.3,0
	c-0.4-0.3-0.9-0.5-1.4-0.5c-1.2,0-2.2,1-2.2,2.2c0,1.2,1,2.2,2.2,2.2c0.5,0,1-0.2,1.4-0.5c0.1-0.1,0.2-0.1,0.3,0c0,0,0,0,0,0
	l0.8,0.9c0.1,0.1,0.1,0.2,0,0.3c0,0,0,0,0,0c-0.7,0.7-1.6,1-2.6,1c-2.1,0.1-3.9-1.5-4-3.6c-0.1-2.1,1.5-3.9,3.6-4
	C123.8,193,123.9,193,124.1,193L124.1,193z"/>
<linearGradient id="SVGID_21_" gradientUnits="userSpaceOnUse" x1="56.3574" y1="201.3574" x2="199.6174" y2="58.1074" gradientTransform="matrix(1 0 0 -1 0 322)">
	<stop  offset="0" style="stop-color:#24B1B4"/>
	<stop  offset="0.33" style="stop-color:#329FB9"/>
	<stop  offset="0.66" style="stop-color:#438DBD"/>
	<stop  offset="1" style="stop-color:#5674B0"/>
</linearGradient>
<path class="st20" d="M129.6,193.4c0-0.1,0.1-0.3,0.2-0.3c0,0,0,0,0,0h1.2c0.1,0,0.3,0.1,0.3,0.3v2.8l2.4-2.9
	c0.1-0.1,0.1-0.1,0.2-0.1h1.3c0.1,0,0.2,0.1,0.2,0.3c0,0.1,0,0.1,0,0.1l-2.5,3.1l2.7,3.5c0.1,0.1,0.1,0.3-0.1,0.3
	c0,0-0.1,0.1-0.1,0.1H134c-0.1,0-0.1,0-0.2-0.1l-2.4-3.3v3.2c0,0.1-0.1,0.3-0.3,0.3h-1.2c-0.1,0-0.3-0.1-0.3-0.2c0,0,0,0,0,0
	L129.6,193.4z"/>
<linearGradient id="SVGID_22_" gradientUnits="userSpaceOnUse" x1="35.1642" y1="180.1642" x2="178.4242" y2="36.9142" gradientTransform="matrix(1 0 0 -1 0 322)">
	<stop  offset="0" style="stop-color:#24B1B4"/>
	<stop  offset="0.33" style="stop-color:#329FB9"/>
	<stop  offset="0.66" style="stop-color:#438DBD"/>
	<stop  offset="1" style="stop-color:#5674B0"/>
</linearGradient>
<path class="st21" d="M100.8,203.6c-2.1,0-3.8,1.7-3.8,3.8s1.7,3.8,3.8,3.8c2.1,0,3.8-1.7,3.8-3.8
	C104.6,205.3,102.9,203.6,100.8,203.6C100.8,203.6,100.8,203.6,100.8,203.6z M100.8,209.6c-1.2,0-2.1-0.9-2.1-2.1s0.9-2.1,2.1-2.1
	s2.1,0.9,2.1,2.1c0,0,0,0,0,0C102.9,208.6,101.9,209.6,100.8,209.6z"/>
<linearGradient id="SVGID_23_" gradientUnits="userSpaceOnUse" x1="39.7464" y1="184.7464" x2="183.0065" y2="41.4965" gradientTransform="matrix(1 0 0 -1 0 322)">
	<stop  offset="0" style="stop-color:#24B1B4"/>
	<stop  offset="0.33" style="stop-color:#329FB9"/>
	<stop  offset="0.66" style="stop-color:#438DBD"/>
	<stop  offset="1" style="stop-color:#5674B0"/>
</linearGradient>
<path class="st22" d="M107.6,203.9c0-0.1,0.1-0.2,0.2-0.2c0,0,0,0,0,0h4.4c0.1,0,0.2,0.1,0.2,0.2v1.1c0,0.1-0.1,0.2-0.2,0.2h-2.9
	v1.5h2.4c0.1,0,0.2,0.1,0.2,0.2v1.2c0,0.1-0.1,0.2-0.2,0.2h-2.4v2.6c0,0.1-0.1,0.2-0.2,0.2h-1.2c-0.1,0-0.2-0.1-0.2-0.2V203.9z"/>
<linearGradient id="SVGID_24_" gradientUnits="userSpaceOnUse" x1="43.5804" y1="188.5804" x2="186.8404" y2="45.3304" gradientTransform="matrix(1 0 0 -1 0 322)">
	<stop  offset="0" style="stop-color:#24B1B4"/>
	<stop  offset="0.33" style="stop-color:#329FB9"/>
	<stop  offset="0.66" style="stop-color:#438DBD"/>
	<stop  offset="1" style="stop-color:#5674B0"/>
</linearGradient>
<path class="st23" d="M115.2,203.9c0-0.1,0.1-0.2,0.2-0.2h4.4c0.1,0,0.2,0.1,0.2,0.2c0,0,0,0,0,0v1.1c0,0.1-0.1,0.2-0.2,0.2
	c0,0,0,0,0,0h-2.9v1.5h2.4c0.1,0,0.2,0.1,0.2,0.2v1.2c0,0.1-0.1,0.2-0.2,0.2h-2.4v2.6c0,0.1-0.1,0.2-0.2,0.2h-1.2
	c-0.1,0-0.2-0.1-0.2-0.2V203.9z"/>
<linearGradient id="SVGID_25_" gradientUnits="userSpaceOnUse" x1="46.6527" y1="191.6527" x2="189.9027" y2="48.3927" gradientTransform="matrix(1 0 0 -1 0 322)">
	<stop  offset="0" style="stop-color:#24B1B4"/>
	<stop  offset="0.33" style="stop-color:#329FB9"/>
	<stop  offset="0.66" style="stop-color:#438DBD"/>
	<stop  offset="1" style="stop-color:#5674B0"/>
</linearGradient>
<path class="st24" d="M123.1,203.7h1.3c0.1,0,0.2,0.1,0.2,0.2v7c0,0.1-0.1,0.2-0.2,0.2h-1.3c-0.1,0-0.2-0.1-0.2-0.2v-7
	C122.9,203.8,123,203.7,123.1,203.7z"/>
<linearGradient id="SVGID_26_" gradientUnits="userSpaceOnUse" x1="50.4744" y1="195.4744" x2="193.7244" y2="52.2144" gradientTransform="matrix(1 0 0 -1 0 322)">
	<stop  offset="0" style="stop-color:#24B1B4"/>
	<stop  offset="0.33" style="stop-color:#329FB9"/>
	<stop  offset="0.66" style="stop-color:#438DBD"/>
	<stop  offset="1" style="stop-color:#5674B0"/>
</linearGradient>
<path class="st25" d="M131.4,203.6c1,0,1.9,0.3,2.6,1c0.1,0.1,0.1,0.2,0,0.3c0,0,0,0,0,0l-0.8,0.9c-0.1,0.1-0.2,0.1-0.3,0
	c0,0,0,0,0,0c-0.4-0.3-0.9-0.5-1.4-0.5c-1.2,0-2.2,1-2.2,2.2c0,1.2,1,2.2,2.2,2.2c0.5,0,1-0.2,1.4-0.5c0.1-0.1,0.2-0.1,0.3,0
	l0.8,0.9c0.1,0.1,0.1,0.2,0,0.3c-0.7,0.7-1.6,1-2.6,1c-2.1,0-3.8-1.7-3.8-3.8C127.5,205.3,129.3,203.6,131.4,203.6
	C131.4,203.6,131.4,203.6,131.4,203.6L131.4,203.6z"/>
<linearGradient id="SVGID_27_" gradientUnits="userSpaceOnUse" x1="54.4259" y1="199.4259" x2="197.6859" y2="56.1759" gradientTransform="matrix(1 0 0 -1 0 322)">
	<stop  offset="0" style="stop-color:#24B1B4"/>
	<stop  offset="0.33" style="stop-color:#329FB9"/>
	<stop  offset="0.66" style="stop-color:#438DBD"/>
	<stop  offset="1" style="stop-color:#5674B0"/>
</linearGradient>
<path class="st26" d="M136.9,203.9c0-0.1,0.1-0.2,0.2-0.2c0,0,0,0,0,0h4.4c0.1,0,0.2,0.1,0.2,0.2v1.1c0,0.1-0.1,0.2-0.2,0.2h-2.9
	v1.3h2.4c0.1,0,0.2,0.1,0.2,0.2v1.2c0,0.1-0.1,0.2-0.2,0.2h-2.4v1.4h2.9c0.1,0,0.2,0.1,0.2,0.2v1.2c0,0.1-0.1,0.2-0.2,0.2h-4.4
	c-0.1,0-0.2-0.1-0.2-0.2V203.9z"/>
<linearGradient id="SVGID_28_" gradientUnits="userSpaceOnUse" x1="106.5759" y1="251.5759" x2="249.8359" y2="108.3259" gradientTransform="matrix(1 0 0 -1 0 322)">
	<stop  offset="0" style="stop-color:#24B1B4"/>
	<stop  offset="0.33" style="stop-color:#329FB9"/>
	<stop  offset="0.66" style="stop-color:#438DBD"/>
	<stop  offset="1" style="stop-color:#5674B0"/>
</linearGradient>
<path class="st27" d="M122.6,82.9c-1.9,0-3.5,1.6-3.5,3.5c0,1.9,1.6,3.5,3.5,3.5c1.9,0,3.5-1.6,3.5-3.5
	C126.1,84.5,124.5,82.9,122.6,82.9C122.6,82.9,122.6,82.9,122.6,82.9z M122.6,88.4c-1.1,0-2-0.9-2-2s0.9-2,2-2s2,0.9,2,2
	S123.7,88.4,122.6,88.4z"/>
<linearGradient id="SVGID_29_" gradientUnits="userSpaceOnUse" x1="110.9369" y1="255.9369" x2="254.1869" y2="112.6769" gradientTransform="matrix(1 0 0 -1 0 322)">
	<stop  offset="0" style="stop-color:#24B1B4"/>
	<stop  offset="0.33" style="stop-color:#329FB9"/>
	<stop  offset="0.66" style="stop-color:#438DBD"/>
	<stop  offset="1" style="stop-color:#5674B0"/>
</linearGradient>
<path class="st28" d="M129.7,84.4h-1.4c-0.1,0-0.2-0.1-0.2-0.2c0,0,0,0,0,0v-1.1c0-0.1,0.1-0.2,0.2-0.2l0,0h4.3
	c0.1,0,0.2,0.1,0.2,0.2c0,0,0,0,0,0v1.1c0,0.1-0.1,0.2-0.2,0.2l0,0h-1.4v5.2c0,0.1-0.1,0.2-0.2,0.2h-1.2c-0.1,0-0.2-0.1-0.2-0.2
	V84.4z"/>
<linearGradient id="SVGID_30_" gradientUnits="userSpaceOnUse" x1="114.4572" y1="259.4572" x2="257.7072" y2="116.1972" gradientTransform="matrix(1 0 0 -1 0 322)">
	<stop  offset="0" style="stop-color:#24B1B4"/>
	<stop  offset="0.33" style="stop-color:#329FB9"/>
	<stop  offset="0.66" style="stop-color:#438DBD"/>
	<stop  offset="1" style="stop-color:#5674B0"/>
</linearGradient>
<path class="st29" d="M135.4,83.2c0-0.1,0.1-0.2,0.2-0.2h1.2c0.1,0,0.2,0.1,0.2,0.2c0,0,0,0,0,0v2.5h2.8v-2.5c0-0.1,0.1-0.2,0.2-0.2
	h1.2c0.1,0,0.2,0.1,0.2,0.2v6.5c0,0.1-0.1,0.2-0.2,0.2h-1.2c-0.1,0-0.2-0.1-0.2-0.2v-2.6h-2.8v2.6c0,0.1-0.1,0.2-0.2,0.2l0,0h-1.2
	c-0.1,0-0.2-0.1-0.2-0.2V83.2z"/>
<linearGradient id="SVGID_31_" gradientUnits="userSpaceOnUse" x1="118.657" y1="263.657" x2="261.907" y2="120.3969" gradientTransform="matrix(1 0 0 -1 0 322)">
	<stop  offset="0" style="stop-color:#24B1B4"/>
	<stop  offset="0.33" style="stop-color:#329FB9"/>
	<stop  offset="0.66" style="stop-color:#438DBD"/>
	<stop  offset="1" style="stop-color:#5674B0"/>
</linearGradient>
<path class="st30" d="M144.5,83.2c0-0.1,0.1-0.2,0.2-0.2c0,0,0,0,0,0h4.1c0.1,0,0.2,0.1,0.2,0.2c0,0,0,0,0,0v1.1
	c0,0.1-0.1,0.2-0.2,0.2l0,0H146v1.2h2.2c0.1,0,0.2,0.1,0.2,0.2v1.1c0,0.1-0.1,0.2-0.2,0.2l0,0H146v1.3h2.7c0.1,0,0.2,0.1,0.2,0.2
	v1.1c0,0.1-0.1,0.2-0.2,0.2l0,0h-4c-0.1,0-0.2-0.1-0.2-0.2c0,0,0,0,0,0V83.2z"/>
<linearGradient id="SVGID_32_" gradientUnits="userSpaceOnUse" x1="122.2247" y1="267.2246" x2="265.4746" y2="123.9647" gradientTransform="matrix(1 0 0 -1 0 322)">
	<stop  offset="0" style="stop-color:#24B1B4"/>
	<stop  offset="0.33" style="stop-color:#329FB9"/>
	<stop  offset="0.66" style="stop-color:#438DBD"/>
	<stop  offset="1" style="stop-color:#5674B0"/>
</linearGradient>
<path class="st31" d="M155.6,87.1c0.9-0.3,1.4-1.1,1.4-2c0-1.2-1-2.1-2.1-2.1H152c-0.1,0-0.2,0.1-0.2,0.2v6.5c0,0.1,0.1,0.2,0.2,0.2
	h1.2c0.1,0,0.2-0.1,0.2-0.2v-2.5h0.7l1.3,2.6c0,0.1,0.1,0.1,0.2,0.1h1.3c0.1,0,0.2-0.1,0.2-0.2c0,0,0-0.1,0-0.1L155.6,87.1z
	 M154.8,85.9h-1.4v-1.5h1.4c0.4,0,0.7,0.3,0.7,0.7l0,0C155.5,85.5,155.2,85.9,154.8,85.9z"/>
<linearGradient id="SVGID_33_" gradientUnits="userSpaceOnUse" x1="45.4641" y1="190.4641" x2="188.7141" y2="47.2041" gradientTransform="matrix(1 0 0 -1 0 322)">
	<stop  offset="0" style="stop-color:#24B1B4"/>
	<stop  offset="0.33" style="stop-color:#329FB9"/>
	<stop  offset="0.66" style="stop-color:#438DBD"/>
	<stop  offset="1" style="stop-color:#5674B0"/>
</linearGradient>
<path class="st32" d="M68.4,151.6c0.7,0,1.4,0.2,1.9,0.8c0.1,0.1,0.1,0.2,0,0.2c0,0,0,0,0,0l-0.6,0.6c-0.1,0.1-0.1,0.1-0.2,0
	c-0.7-0.6-1.7-0.5-2.3,0.2c-0.6,0.7-0.5,1.7,0.2,2.3c0.3,0.2,0.6,0.4,1,0.4c0.4,0,0.8-0.1,1.1-0.4c0.1,0,0.1,0,0.2,0l0.6,0.7
	c0.1,0.1,0.1,0.2,0,0.2c-0.5,0.5-1.3,0.8-2,0.8c-1.6,0-2.9-1.3-2.9-2.9S66.8,151.6,68.4,151.6C68.3,151.6,68.3,151.6,68.4,151.6
	L68.4,151.6z"/>
<linearGradient id="SVGID_34_" gradientUnits="userSpaceOnUse" x1="48.3491" y1="193.3491" x2="191.6091" y2="50.0991" gradientTransform="matrix(1 0 0 -1 0 322)">
	<stop  offset="0" style="stop-color:#24B1B4"/>
	<stop  offset="0.33" style="stop-color:#329FB9"/>
	<stop  offset="0.66" style="stop-color:#438DBD"/>
	<stop  offset="1" style="stop-color:#5674B0"/>
</linearGradient>
<path class="st33" d="M74.1,151.6c1.6,0,2.9,1.3,2.9,2.9c0,1.6-1.3,2.9-2.9,2.9c-1.6,0-2.9-1.3-2.9-2.9
	C71.3,152.9,72.5,151.6,74.1,151.6C74.1,151.6,74.1,151.6,74.1,151.6z M74.1,156.1c0.9,0,1.6-0.7,1.6-1.6s-0.7-1.6-1.6-1.6
	c-0.9,0-1.6,0.7-1.6,1.6c0,0,0,0,0,0C72.6,155.3,73.3,156,74.1,156.1z"/>
<linearGradient id="SVGID_35_" gradientUnits="userSpaceOnUse" x1="51.6921" y1="196.6921" x2="194.9421" y2="53.4321" gradientTransform="matrix(1 0 0 -1 0 322)">
	<stop  offset="0" style="stop-color:#24B1B4"/>
	<stop  offset="0.33" style="stop-color:#329FB9"/>
	<stop  offset="0.66" style="stop-color:#438DBD"/>
	<stop  offset="1" style="stop-color:#5674B0"/>
</linearGradient>
<path class="st34" d="M78.5,151.7c0-0.1,0.1-0.1,0.2-0.1h0.2l3.2,3.1l0,0v-2.8c0-0.1,0.1-0.1,0.2-0.1h1c0.1,0,0.2,0.1,0.2,0.1v5.4
	c0,0.1-0.1,0.1-0.2,0.1c0,0,0,0,0,0H83c0,0-0.1,0-0.1,0l-3.2-3.2l0,0v3c0,0.1-0.1,0.2-0.2,0.1h-1c-0.1,0-0.2-0.1-0.2-0.1L78.5,151.7
	z"/>
<linearGradient id="SVGID_36_" gradientUnits="userSpaceOnUse" x1="54.5977" y1="199.5977" x2="197.8577" y2="56.3477" gradientTransform="matrix(1 0 0 -1 0 322)">
	<stop  offset="0" style="stop-color:#24B1B4"/>
	<stop  offset="0.33" style="stop-color:#329FB9"/>
	<stop  offset="0.66" style="stop-color:#438DBD"/>
	<stop  offset="1" style="stop-color:#5674B0"/>
</linearGradient>
<path class="st35" d="M84.8,156.5l0.4-0.7c0.1-0.1,0.2-0.1,0.3-0.1c0.3,0.2,0.7,0.4,1.1,0.4c0.3,0,0.5-0.2,0.5-0.4c0,0,0,0,0,0
	c0-0.3-0.3-0.6-0.8-0.8s-1.6-0.8-1.6-1.8c0-0.9,0.8-1.6,1.7-1.6c0,0,0.1,0,0.1,0c0.6,0,1.2,0.2,1.7,0.6c0.1,0.1,0.1,0.2,0,0.3
	L88,153c-0.1,0.1-0.2,0.2-0.3,0.1c-0.3-0.3-0.7-0.4-1.1-0.5c-0.3,0-0.5,0.2-0.5,0.4c0,0.3,0.2,0.5,0.9,0.8s1.6,0.7,1.6,1.8
	c0,1-0.9,1.7-1.8,1.7c0,0,0,0,0,0c-0.7,0-1.3-0.2-1.8-0.6C84.8,156.6,84.8,156.6,84.8,156.5z"/>
<linearGradient id="SVGID_37_" gradientUnits="userSpaceOnUse" x1="57.3276" y1="202.3276" x2="200.5776" y2="59.0676" gradientTransform="matrix(1 0 0 -1 0 322)">
	<stop  offset="0" style="stop-color:#24B1B4"/>
	<stop  offset="0.33" style="stop-color:#329FB9"/>
	<stop  offset="0.66" style="stop-color:#438DBD"/>
	<stop  offset="1" style="stop-color:#5674B0"/>
</linearGradient>
<path class="st36" d="M90.8,152.8h-1.1c-0.1,0-0.2-0.1-0.2-0.1v-0.9c0-0.1,0.1-0.1,0.2-0.1h3.6c0.1,0,0.2,0.1,0.2,0.1v0.9
	c0,0.1-0.1,0.1-0.2,0.1h-1.1v4.3c0,0.1-0.1,0.2-0.2,0.1H91c-0.1,0-0.2-0.1-0.2-0.1L90.8,152.8z"/>
<linearGradient id="SVGID_38_" gradientUnits="userSpaceOnUse" x1="59.4117" y1="204.4117" x2="202.6617" y2="61.1517" gradientTransform="matrix(1 0 0 -1 0 322)">
	<stop  offset="0" style="stop-color:#24B1B4"/>
	<stop  offset="0.33" style="stop-color:#329FB9"/>
	<stop  offset="0.66" style="stop-color:#438DBD"/>
	<stop  offset="1" style="stop-color:#5674B0"/>
</linearGradient>
<path class="st37" d="M94.6,151.8c0-0.1,0.1-0.1,0.2-0.1h2.4c0.9,0,1.7,0.7,1.8,1.7c0,0.8-0.5,1.4-1.2,1.7l1.1,2c0,0.1,0,0.2,0,0.2
	c0,0-0.1,0-0.1,0h-1.1c-0.1,0-0.1,0-0.1-0.1l-1.1-2.1h-0.6v2c0,0.1-0.1,0.2-0.2,0.1h-1c-0.1,0-0.2-0.1-0.2-0.1L94.6,151.8z M97,154
	c0.3,0,0.6-0.3,0.6-0.6c0-0.3-0.3-0.6-0.6-0.6h-1.2v1.2H97z"/>
<linearGradient id="SVGID_39_" gradientUnits="userSpaceOnUse" x1="62.8589" y1="207.8589" x2="206.1089" y2="64.5989" gradientTransform="matrix(1 0 0 -1 0 322)">
	<stop  offset="0" style="stop-color:#24B1B4"/>
	<stop  offset="0.33" style="stop-color:#329FB9"/>
	<stop  offset="0.66" style="stop-color:#438DBD"/>
	<stop  offset="1" style="stop-color:#5674B0"/>
</linearGradient>
<path class="st38" d="M100.3,151.8c0-0.1,0.1-0.1,0.2-0.1h1c0.1,0,0.2,0.1,0.2,0.1v3.2c0,0.6,0.4,1,1,1s1-0.4,1-1v-3.2
	c0-0.1,0.1-0.1,0.2-0.1h1c0.1,0,0.2,0.1,0.2,0.1v3.3c0,1.3-1,2.3-2.3,2.3c-1.3,0-2.3-1-2.3-2.3L100.3,151.8z"/>
<linearGradient id="SVGID_40_" gradientUnits="userSpaceOnUse" x1="65.8326" y1="210.8326" x2="209.0826" y2="67.5726" gradientTransform="matrix(1 0 0 -1 0 322)">
	<stop  offset="0" style="stop-color:#24B1B4"/>
	<stop  offset="0.33" style="stop-color:#329FB9"/>
	<stop  offset="0.66" style="stop-color:#438DBD"/>
	<stop  offset="1" style="stop-color:#5674B0"/>
</linearGradient>
<path class="st39" d="M109.1,151.6c0.7,0,1.4,0.2,1.9,0.8c0.1,0,0.1,0.1,0,0.2c0,0,0,0,0,0l-0.6,0.6c-0.1,0.1-0.1,0.1-0.2,0
	c-0.3-0.3-0.7-0.4-1.1-0.4c-0.9,0-1.6,0.7-1.6,1.6c0,0,0,0,0,0c0,0.9,0.7,1.6,1.5,1.6c0,0,0,0,0,0c0.4,0,0.8-0.1,1.1-0.4
	c0.1,0,0.1,0,0.2,0l0.6,0.7c0.1,0.1,0.1,0.2,0,0.2c-0.5,0.5-1.2,0.8-1.9,0.8c-1.6,0-2.9-1.3-2.9-2.9S107.5,151.6,109.1,151.6
	C109.1,151.6,109.1,151.6,109.1,151.6L109.1,151.6z"/>
<linearGradient id="SVGID_41_" gradientUnits="userSpaceOnUse" x1="68.588" y1="213.588" x2="211.838" y2="70.328" gradientTransform="matrix(1 0 0 -1 0 322)">
	<stop  offset="0" style="stop-color:#24B1B4"/>
	<stop  offset="0.33" style="stop-color:#329FB9"/>
	<stop  offset="0.66" style="stop-color:#438DBD"/>
	<stop  offset="1" style="stop-color:#5674B0"/>
</linearGradient>
<path class="st40" d="M113.4,152.8h-1.1c-0.1,0-0.2-0.1-0.2-0.1v-0.9c0-0.1,0.1-0.1,0.2-0.1h3.6c0.1,0,0.2,0.1,0.2,0.1v0.9
	c0,0.1-0.1,0.1-0.2,0.1h-1.1v4.3c0,0.1-0.1,0.1-0.2,0.1h-1c-0.1,0-0.2-0.1-0.2-0.1L113.4,152.8z"/>
<linearGradient id="SVGID_42_" gradientUnits="userSpaceOnUse" x1="70.1705" y1="215.1705" x2="213.4205" y2="71.9105" gradientTransform="matrix(1 0 0 -1 0 322)">
	<stop  offset="0" style="stop-color:#24B1B4"/>
	<stop  offset="0.33" style="stop-color:#329FB9"/>
	<stop  offset="0.66" style="stop-color:#438DBD"/>
	<stop  offset="1" style="stop-color:#5674B0"/>
</linearGradient>
<path class="st41" d="M117.1,151.8c0-0.1,0.1-0.2,0.2-0.1h1c0.1,0,0.2,0.1,0.2,0.1v5.3c0,0.1-0.1,0.1-0.2,0.1h-1
	c-0.1,0-0.2-0.1-0.2-0.1V151.8z"/>
<linearGradient id="SVGID_43_" gradientUnits="userSpaceOnUse" x1="72.6367" y1="217.6367" x2="215.8867" y2="74.3767" gradientTransform="matrix(1 0 0 -1 0 322)">
	<stop  offset="0" style="stop-color:#24B1B4"/>
	<stop  offset="0.33" style="stop-color:#329FB9"/>
	<stop  offset="0.66" style="stop-color:#438DBD"/>
	<stop  offset="1" style="stop-color:#5674B0"/>
</linearGradient>
<path class="st42" d="M122.7,151.6c1.6,0,2.9,1.3,2.9,2.9c0,1.6-1.3,2.9-2.9,2.9c-1.6,0-2.9-1.3-2.9-2.9
	C119.8,152.9,121.1,151.6,122.7,151.6C122.7,151.6,122.7,151.6,122.7,151.6z M122.7,156.1c0.9,0,1.6-0.7,1.6-1.6s-0.7-1.6-1.6-1.6
	c-0.9,0-1.6,0.7-1.6,1.6c0,0,0,0,0,0C121.1,155.3,121.8,156,122.7,156.1z"/>
<linearGradient id="SVGID_44_" gradientUnits="userSpaceOnUse" x1="75.97" y1="220.97" x2="219.23" y2="77.71" gradientTransform="matrix(1 0 0 -1 0 322)">
	<stop  offset="0" style="stop-color:#24B1B4"/>
	<stop  offset="0.33" style="stop-color:#329FB9"/>
	<stop  offset="0.66" style="stop-color:#438DBD"/>
	<stop  offset="1" style="stop-color:#5674B0"/>
</linearGradient>
<path class="st43" d="M127,151.7c0-0.1,0.1-0.1,0.2-0.1h0.2l3.2,3.1l0,0v-2.8c0-0.1,0.1-0.1,0.1-0.1h1c0.1,0,0.1,0.1,0.1,0.1v5.4
	c0,0.1-0.1,0.1-0.1,0.1h-0.1c0,0-0.1,0-0.1,0l-3.2-3.2l0,0v3c0,0.1-0.1,0.1-0.1,0.1h-1c-0.1,0-0.2-0.1-0.2-0.1L127,151.7z"/>
<linearGradient id="SVGID_45_" gradientUnits="userSpaceOnUse" x1="72.6448" y1="217.6448" x2="215.8948" y2="74.3848" gradientTransform="matrix(1 0 0 -1 0 322)">
	<stop  offset="0" style="stop-color:#24B1B4"/>
	<stop  offset="0.33" style="stop-color:#329FB9"/>
	<stop  offset="0.66" style="stop-color:#438DBD"/>
	<stop  offset="1" style="stop-color:#5674B0"/>
</linearGradient>
<path class="st44" d="M79.8,110.1c0-0.1,0.1-0.2,0.2-0.2h2.2c1.1,0,2,0.9,2,2s-0.9,2-2,2h-0.9v2.1c0,0.1-0.1,0.2-0.2,0.2h-1.1
	c-0.1,0-0.2-0.1-0.2-0.2V110.1z M82,112.7c0.4,0,0.7-0.3,0.7-0.7c0-0.4-0.3-0.7-0.7-0.7c0,0,0,0,0,0h-0.8v1.4H82z"/>
<linearGradient id="SVGID_46_" gradientUnits="userSpaceOnUse" x1="75.0358" y1="220.0358" x2="218.2958" y2="76.7858" gradientTransform="matrix(1 0 0 -1 0 322)">
	<stop  offset="0" style="stop-color:#24B1B4"/>
	<stop  offset="0.33" style="stop-color:#329FB9"/>
	<stop  offset="0.66" style="stop-color:#438DBD"/>
	<stop  offset="1" style="stop-color:#5674B0"/>
</linearGradient>
<path class="st45" d="M85.5,110.1c0-0.1,0.1-0.2,0.2-0.2h1.1c0.1,0,0.2,0.1,0.2,0.2v4.8H89c0.1,0,0.2,0.1,0.2,0.2v1
	c0,0.1-0.1,0.2-0.2,0.2h-3.3c-0.1,0-0.2-0.1-0.2-0.2V110.1z"/>
<linearGradient id="SVGID_47_" gradientUnits="userSpaceOnUse" x1="77.8184" y1="222.8184" x2="221.0784" y2="79.5684" gradientTransform="matrix(1 0 0 -1 0 322)">
	<stop  offset="0" style="stop-color:#24B1B4"/>
	<stop  offset="0.33" style="stop-color:#329FB9"/>
	<stop  offset="0.66" style="stop-color:#438DBD"/>
	<stop  offset="1" style="stop-color:#5674B0"/>
</linearGradient>
<path class="st46" d="M90.1,116l2.8-6c0-0.1,0.1-0.1,0.2-0.1h0.1c0.1,0,0.1,0,0.2,0.1l2.8,6c0,0.1,0,0.2-0.1,0.2c0,0,0,0-0.1,0h-1
	c-0.1,0-0.3-0.1-0.3-0.2l-0.3-0.7h-2.5l-0.3,0.7c-0.1,0.1-0.2,0.2-0.3,0.2h-1C90.2,116.2,90.1,116.2,90.1,116
	C90.1,116,90.1,116,90.1,116z M93.8,114.1l-0.7-1.5l0,0l-0.7,1.5H93.8z"/>
<linearGradient id="SVGID_48_" gradientUnits="userSpaceOnUse" x1="81.9869" y1="226.9869" x2="225.2469" y2="83.7369" gradientTransform="matrix(1 0 0 -1 0 322)">
	<stop  offset="0" style="stop-color:#24B1B4"/>
	<stop  offset="0.33" style="stop-color:#329FB9"/>
	<stop  offset="0.66" style="stop-color:#438DBD"/>
	<stop  offset="1" style="stop-color:#5674B0"/>
</linearGradient>
<path class="st47" d="M97.4,110c0-0.1,0.1-0.2,0.2-0.2h0.2l3.6,3.5l0,0v-3.2c0-0.1,0.1-0.2,0.2-0.2h1.1c0.1,0,0.2,0.1,0.2,0.2v6.1
	c0,0.1-0.1,0.2-0.2,0.2h-0.2c0,0-0.1,0-0.1,0l-3.6-3.6l0,0v3.4c0,0.1-0.1,0.2-0.2,0.2h-1.1c-0.1,0-0.2-0.1-0.2-0.2L97.4,110z"/>
<linearGradient id="SVGID_49_" gradientUnits="userSpaceOnUse" x1="85.6801" y1="230.6801" x2="228.9401" y2="87.4201" gradientTransform="matrix(1 0 0 -1 0 322)">
	<stop  offset="0" style="stop-color:#24B1B4"/>
	<stop  offset="0.33" style="stop-color:#329FB9"/>
	<stop  offset="0.66" style="stop-color:#438DBD"/>
	<stop  offset="1" style="stop-color:#5674B0"/>
</linearGradient>
<path class="st48" d="M104.8,110c0-0.1,0.1-0.2,0.2-0.2h0.2l3.6,3.5l0,0v-3.2c0-0.1,0.1-0.1,0.2-0.1h1.1c0.1,0,0.2,0.1,0.2,0.2v6.1
	c0,0.1-0.1,0.2-0.2,0.2h-0.1c0,0-0.1,0-0.1,0l-3.6-3.6l0,0v3.4c0,0.1-0.1,0.2-0.2,0.2H105c-0.1,0-0.2-0.1-0.2-0.2L104.8,110z"/>
<linearGradient id="SVGID_50_" gradientUnits="userSpaceOnUse" x1="89.0766" y1="234.0766" x2="232.3366" y2="90.8266" gradientTransform="matrix(1 0 0 -1 0 322)">
	<stop  offset="0" style="stop-color:#24B1B4"/>
	<stop  offset="0.33" style="stop-color:#329FB9"/>
	<stop  offset="0.66" style="stop-color:#438DBD"/>
	<stop  offset="1" style="stop-color:#5674B0"/>
</linearGradient>
<path class="st49" d="M112.2,110.1c0-0.1,0.1-0.2,0.2-0.2h3.7c0.1,0,0.2,0.1,0.2,0.2v1c0,0.1-0.1,0.2-0.2,0.2h-2.5v1.1h2
	c0.1,0,0.2,0.1,0.2,0.2v1c0,0.1-0.1,0.2-0.2,0.2h-2v1.2h2.5c0.1,0,0.2,0.1,0.2,0.2v1c0,0.1-0.1,0.2-0.2,0.2h-3.7
	c-0.1,0-0.2-0.1-0.2-0.2V110.1z"/>
<linearGradient id="SVGID_51_" gradientUnits="userSpaceOnUse" x1="91.9727" y1="236.9727" x2="235.2227" y2="93.7127" gradientTransform="matrix(1 0 0 -1 0 322)">
	<stop  offset="0" style="stop-color:#24B1B4"/>
	<stop  offset="0.33" style="stop-color:#329FB9"/>
	<stop  offset="0.66" style="stop-color:#438DBD"/>
	<stop  offset="1" style="stop-color:#5674B0"/>
</linearGradient>
<path class="st50" d="M118.1,110.1c0-0.1,0.1-0.2,0.2-0.2h2.7c1.1,0,1.9,0.8,2,1.9c0,0.9-0.5,1.6-1.3,1.9l1.2,2.3
	c0,0.1,0,0.2-0.1,0.2c0,0-0.1,0-0.1,0h-1.2c-0.1,0-0.1,0-0.1-0.1l-1.2-2.4h-0.6v2.3c0,0.1-0.1,0.2-0.2,0.2h-1.1
	c-0.1,0-0.2-0.1-0.2-0.2L118.1,110.1z M120.8,112.6c0.4,0,0.7-0.3,0.7-0.7c0-0.4-0.3-0.7-0.7-0.7h-1.3v1.4H120.8z"/>
<linearGradient id="SVGID_52_" gradientUnits="userSpaceOnUse" x1="77.5315" y1="222.5315" x2="220.7815" y2="79.2715" gradientTransform="matrix(1 0 0 -1 0 322)">
	<stop  offset="0" style="stop-color:#24B1B4"/>
	<stop  offset="0.33" style="stop-color:#329FB9"/>
	<stop  offset="0.66" style="stop-color:#438DBD"/>
	<stop  offset="1" style="stop-color:#5674B0"/>
</linearGradient>
<path class="st51" d="M149.3,154.7c-0.2,0-0.4,0-0.6-0.1L107,141c-1.1-0.3-1.6-1.5-1.3-2.5c0.3-1.1,1.5-1.6,2.5-1.3l35.9,11.7
	l-18.2-25c-0.6-0.9-0.4-2.1,0.4-2.8c0.9-0.6,2.1-0.4,2.8,0.4l0,0l21.8,30c0.6,0.9,0.4,2.1-0.5,2.8
	C150.2,154.6,149.8,154.7,149.3,154.7L149.3,154.7z M78,131.5c-0.2,0-0.4,0-0.6-0.1l-12.6-4.1c-0.5-0.2-0.9-0.5-1.2-1
	c-0.2-0.5-0.3-1.1-0.1-1.6c6.2-17.9,17.6-33.6,32.7-45.1l0,0c0.2-0.1,0.4-0.2,0.6-0.3l0,0c0.3-0.1,0.6-0.1,0.9-0.1l0,0
	c0.3,0,0.6,0.1,0.8,0.3l0,0c0.2,0.1,0.4,0.3,0.5,0.5l0,0l15.5,21.4c0.6,0.9,0.4,2.1-0.4,2.8s-2.1,0.4-2.8-0.4L97.1,84.1
	C83.9,94.5,73.9,108.4,68,124.2l10.6,3.5c1,0.3,1.6,1.5,1.3,2.5C79.6,131,78.9,131.5,78,131.5L78,131.5z"/>
<linearGradient id="SVGID_53_" gradientUnits="userSpaceOnUse" x1="53.852" y1="198.852" x2="197.102" y2="55.592" gradientTransform="matrix(1 0 0 -1 0 322)">
	<stop  offset="0" style="stop-color:#24B1B4"/>
	<stop  offset="0.33" style="stop-color:#329FB9"/>
	<stop  offset="0.66" style="stop-color:#438DBD"/>
	<stop  offset="1" style="stop-color:#5674B0"/>
</linearGradient>
<path class="st52" d="M62.9,189.8c-0.3,0-0.7-0.1-0.9-0.2c-0.5-0.3-0.8-0.7-1-1.2c-5.5-18.2-5.5-37.6,0-55.8l0,0
	c0.1-0.2,0.2-0.4,0.3-0.6l0,0c0.2-0.2,0.4-0.4,0.6-0.5l0,0c0.3-0.2,0.6-0.3,0.9-0.3l0,0c0.2,0,0.5,0,0.7,0.1l0,0l43.4,14.1
	c1.1,0.3,1.7,1.4,1.4,2.4c-0.3,1.1-1.4,1.7-2.4,1.4c-0.1,0-0.1,0-0.2-0.1l-41.5-13.5c-4.5,16.2-4.5,33.3,0,49.6l20.6-6.7
	c1-0.4,2.2,0.1,2.6,1.1c0.4,1-0.1,2.2-1.1,2.6c-0.1,0-0.1,0-0.2,0.1l-22.6,7.4C63.2,189.8,63,189.8,62.9,189.8z M123.7,170
	c-1.1,0-2-0.9-2-2c0-0.9,0.6-1.6,1.4-1.9l17.2-5.6l-4-1.3c-1.1-0.3-1.7-1.4-1.4-2.4c0.3-1.1,1.4-1.7,2.4-1.4c0.1,0,0.1,0,0.2,0.1
	l9.9,3.2c1,0.3,1.6,1.5,1.3,2.5c-0.2,0.6-0.7,1.1-1.3,1.3l-23.1,7.5C124.2,170,124,170,123.7,170z"/>
<linearGradient id="SVGID_54_" gradientUnits="userSpaceOnUse" x1="99.5894" y1="112.8075" x2="215.4011" y2="228.6111">
	<stop  offset="0" style="stop-color:#24B1B4"/>
	<stop  offset="0.33" style="stop-color:#329FB9"/>
	<stop  offset="0.66" style="stop-color:#438DBD"/>
	<stop  offset="1" style="stop-color:#5674B0"/>
</linearGradient>
<path class="st53" d="M192.4,142.9l1.2-1.2c0.1-0.1,0.3-0.2,0.5,0c0,0,1.2,0.9,2.2,0.9c0.8,0,1.7-0.7,1.7-1.6s-0.9-1.6-2.3-1.6h-1.1
	c-0.2,0-0.4-0.2-0.4-0.4v-1.6c0-0.2,0.2-0.4,0.4-0.4h1.1c1.4,0,2.1-0.7,2.1-1.5c0-0.8-0.7-1.5-1.6-1.5c-0.9,0-1.4,0.5-1.7,0.8
	c-0.1,0.2-0.4,0.2-0.5,0l-1.2-1.2c-0.2-0.1-0.1-0.4,0-0.5c0,0,1.6-1.7,3.8-1.7c2.3,0,4.2,1.4,4.2,3.6c0,1.5-1.1,2.6-2,3v0.1
	c0.9,0.4,2.4,1.6,2.4,3.3c0,2.1-1.9,3.8-4.6,3.8c-2.5,0-3.7-1.2-4.2-1.8C192.3,143.2,192.3,143,192.4,142.9z M207.7,138.1
	L207.7,138.1c-0.8-0.5-2-1.6-2-3.1c0-2.2,2-3.6,4.4-3.6c2.5,0,4.5,1.4,4.5,3.6c0,1.5-1.3,2.5-2,3v0.1c0.9,0.5,2.4,1.6,2.4,3.3
	c0,2.1-1.9,3.8-4.8,3.8c-2.9,0-4.7-1.6-4.7-3.8C205.3,139.6,207.3,138.3,207.7,138.1z M210.1,142.7c0.8,0,1.6-0.6,1.6-1.5
	c0-0.7-0.6-1.5-1.6-1.8c-1,0.4-1.6,1.1-1.6,1.8C208.5,142.1,209.3,142.7,210.1,142.7z M211.5,135.1c0-0.7-0.6-1.3-1.4-1.3
	c-0.7,0-1.4,0.6-1.4,1.3c0,0.7,0.5,1.3,1.4,1.6C211,136.4,211.5,135.7,211.5,135.1z M219.5,137.2c0-1,0.8-1.8,1.8-1.8
	c1,0,1.8,0.8,1.8,1.8s-0.8,1.8-1.8,1.8C220.3,139,219.5,138.2,219.5,137.2z M225.1,135.6c0.1-0.1,0.2-0.1,0.2-0.1h1
	c0.2,0,0.3,0.2,0.2,0.4l-4.6,8.9c0,0.1-0.2,0.1-0.2,0.1h-1c-0.2,0-0.3-0.2-0.2-0.4L225.1,135.6z M221.7,137.2c0-0.2-0.2-0.5-0.5-0.5
	c-0.3,0-0.5,0.2-0.5,0.5c0,0.3,0.2,0.5,0.5,0.5C221.5,137.6,221.7,137.4,221.7,137.2z M225.8,141.4c1,0,1.8,0.8,1.8,1.8
	c0,1-0.8,1.8-1.8,1.8c-1,0-1.8-0.8-1.8-1.8C224,142.2,224.8,141.4,225.8,141.4z M225.8,143.7c0.3,0,0.5-0.2,0.5-0.5
	c0-0.3-0.2-0.5-0.5-0.5c-0.2,0-0.5,0.2-0.5,0.5C225.3,143.5,225.5,143.7,225.8,143.7z M188,216.4h-1.9c-0.2,0-0.4-0.2-0.4-0.4v-1.2
	c0-0.1,0.1-0.2,0.1-0.3l2.9-2.2h1.8c0.2,0,0.4,0.2,0.4,0.4v12.6c0,0.2-0.2,0.4-0.4,0.4h-2.2c-0.2,0-0.4-0.2-0.4-0.4V216.4z
	 M199.4,218.8L199.4,218.8c-0.8-0.5-2-1.6-2-3.1c0-2.2,2-3.6,4.4-3.6c2.5,0,4.5,1.4,4.5,3.6c0,1.5-1.3,2.5-2,3v0.1
	c0.9,0.5,2.4,1.6,2.4,3.3c0,2.1-1.9,3.8-4.8,3.8c-2.9,0-4.7-1.6-4.7-3.8C197,220.4,199,219,199.4,218.8z M201.8,223.4
	c0.8,0,1.6-0.6,1.6-1.5c0-0.7-0.6-1.5-1.6-1.8c-1,0.4-1.6,1.1-1.6,1.8C200.2,222.8,201,223.4,201.8,223.4z M203.2,215.8
	c0-0.7-0.6-1.3-1.4-1.3c-0.7,0-1.4,0.6-1.4,1.3c0,0.7,0.5,1.3,1.4,1.6C202.7,217.1,203.2,216.5,203.2,215.8z M211.1,217.9
	c0-1,0.8-1.8,1.8-1.8c1,0,1.8,0.8,1.8,1.8c0,1-0.8,1.8-1.8,1.8C212,219.7,211.1,218.9,211.1,217.9z M216.8,216.4
	c0.1-0.1,0.2-0.1,0.2-0.1h1c0.2,0,0.3,0.2,0.2,0.4l-4.6,8.9c0,0.1-0.2,0.1-0.2,0.1h-1c-0.2,0-0.3-0.2-0.2-0.4L216.8,216.4z
	 M213.4,217.9c0-0.2-0.2-0.5-0.5-0.5c-0.3,0-0.5,0.2-0.5,0.5c0,0.3,0.2,0.5,0.5,0.5C213.2,218.4,213.4,218.2,213.4,217.9z
	 M217.5,222.2c1,0,1.8,0.8,1.8,1.8c0,1-0.8,1.8-1.8,1.8c-1,0-1.8-0.8-1.8-1.8C215.7,223,216.5,222.2,217.5,222.2z M217.5,224.4
	c0.3,0,0.5-0.2,0.5-0.5c0-0.3-0.2-0.5-0.5-0.5c-0.2,0-0.5,0.2-0.5,0.5C217,224.2,217.2,224.4,217.5,224.4z M110.1,218.4h-1.9
	c-0.2,0-0.4-0.2-0.4-0.4v-1.2c0-0.1,0.1-0.2,0.1-0.3l2.9-2.2h1.8c0.2,0,0.4,0.2,0.4,0.4v12.6c0,0.2-0.2,0.4-0.4,0.4h-2.2
	c-0.2,0-0.4-0.2-0.4-0.4V218.4z M121.4,220.8L121.4,220.8c-0.8-0.5-2-1.6-2-3.1c0-2.2,2-3.6,4.4-3.6c2.5,0,4.5,1.4,4.5,3.6
	c0,1.5-1.3,2.5-2,3v0.1c0.9,0.5,2.4,1.6,2.4,3.3c0,2.1-1.9,3.8-4.8,3.8c-2.9,0-4.7-1.6-4.7-3.8C119,222.4,121,221,121.4,220.8z
	 M123.8,225.4c0.8,0,1.6-0.6,1.6-1.5c0-0.7-0.6-1.5-1.6-1.8c-1,0.4-1.6,1.1-1.6,1.8C122.2,224.8,123,225.4,123.8,225.4z
	 M125.2,217.8c0-0.7-0.6-1.3-1.4-1.3c-0.7,0-1.4,0.6-1.4,1.3c0,0.7,0.5,1.3,1.4,1.6C124.7,219.1,125.2,218.5,125.2,217.8z
	 M133.2,219.9c0-1,0.8-1.8,1.8-1.8c1,0,1.8,0.8,1.8,1.8c0,1-0.8,1.8-1.8,1.8C134,221.7,133.2,220.9,133.2,219.9z M138.8,218.4
	c0.1-0.1,0.2-0.1,0.2-0.1h1c0.2,0,0.3,0.2,0.2,0.4l-4.6,8.9c0,0.1-0.2,0.1-0.2,0.1h-1c-0.2,0-0.3-0.2-0.2-0.4L138.8,218.4z
	 M135.4,219.9c0-0.2-0.2-0.5-0.5-0.5c-0.3,0-0.5,0.2-0.5,0.5c0,0.3,0.2,0.5,0.5,0.5C135.2,220.4,135.4,220.2,135.4,219.9z
	 M139.5,224.2c1,0,1.8,0.8,1.8,1.8c0,1-0.8,1.8-1.8,1.8c-1,0-1.8-0.8-1.8-1.8C137.7,225,138.5,224.2,139.5,224.2z M139.5,226.4
	c0.3,0,0.5-0.2,0.5-0.5c0-0.3-0.2-0.5-0.5-0.5c-0.2,0-0.5,0.2-0.5,0.5C139,226.2,139.2,226.4,139.5,226.4z M94.5,172.9
	c0.9-0.3,3.5-1.2,4-3.2c-0.5,0.2-1.3,0.4-1.9,0.4c-1.8,0-3.9-1.4-3.9-4.3c0-2.5,2-4.5,4.5-4.5c3,0,4.7,2.3,4.7,5.4
	c0,5.8-4.8,8.1-6.6,8.7c-0.3,0.1-0.5,0-0.6-0.3l-0.6-1.5C94.1,173.3,94.1,173,94.5,172.9z M99.1,165.9c0-1-0.8-1.9-1.9-1.9
	c-1,0-1.9,0.9-1.9,1.9c0,1,0.8,1.9,1.9,1.9C98.3,167.8,99.1,167,99.1,165.9z M106.4,167.2c0-1,0.8-1.8,1.8-1.8c1,0,1.8,0.8,1.8,1.8
	c0,1-0.8,1.8-1.8,1.8C107.2,169.1,106.4,168.3,106.4,167.2z M112,165.7c0.1-0.1,0.2-0.1,0.2-0.1h1c0.2,0,0.3,0.2,0.2,0.4l-4.6,8.9
	c0,0.1-0.2,0.1-0.2,0.1h-1c-0.2,0-0.3-0.2-0.2-0.4L112,165.7z M108.7,167.2c0-0.2-0.2-0.5-0.5-0.5c-0.3,0-0.5,0.2-0.5,0.5
	c0,0.3,0.2,0.5,0.5,0.5C108.5,167.7,108.7,167.5,108.7,167.2z M112.8,171.5c1,0,1.8,0.8,1.8,1.8c0,1-0.8,1.8-1.8,1.8
	c-1,0-1.8-0.8-1.8-1.8C110.9,172.3,111.8,171.5,112.8,171.5z M112.8,173.8c0.3,0,0.5-0.2,0.5-0.5c0-0.3-0.2-0.5-0.5-0.5
	c-0.2,0-0.5,0.2-0.5,0.5C112.3,173.6,112.5,173.8,112.8,173.8z M90.5,132.7c0.9-0.3,3.5-1.2,4-3.2c-0.5,0.2-1.3,0.4-1.9,0.4
	c-1.8,0-3.9-1.4-3.9-4.3c0-2.5,2-4.5,4.5-4.5c3,0,4.7,2.3,4.7,5.4c0,5.8-4.8,8.1-6.6,8.7c-0.3,0.1-0.5,0-0.6-0.3l-0.6-1.5
	C90.1,133,90.1,132.8,90.5,132.7z M95.1,125.7c0-1-0.8-1.9-1.9-1.9c-1,0-1.9,0.9-1.9,1.9c0,1,0.8,1.9,1.9,1.9
	C94.3,127.6,95.1,126.7,95.1,125.7z M102.4,127c0-1,0.8-1.8,1.8-1.8c1,0,1.8,0.8,1.8,1.8s-0.8,1.8-1.8,1.8
	C103.2,128.8,102.4,128,102.4,127z M108,125.5c0.1-0.1,0.2-0.1,0.2-0.1h1c0.2,0,0.3,0.2,0.2,0.4l-4.6,8.9c0,0.1-0.2,0.1-0.2,0.1h-1
	c-0.2,0-0.3-0.2-0.2-0.4L108,125.5z M104.7,127c0-0.2-0.2-0.5-0.5-0.5c-0.3,0-0.5,0.2-0.5,0.5c0,0.3,0.2,0.5,0.5,0.5
	C104.5,127.5,104.7,127.3,104.7,127z M108.8,131.3c1,0,1.8,0.8,1.8,1.8c0,1-0.8,1.8-1.8,1.8c-1,0-1.8-0.8-1.8-1.8
	C106.9,132.1,107.8,131.3,108.8,131.3z M108.8,133.5c0.3,0,0.5-0.2,0.5-0.5c0-0.3-0.2-0.5-0.5-0.5c-0.2,0-0.5,0.2-0.5,0.5
	C108.3,133.3,108.5,133.5,108.8,133.5z M131.6,101L131.6,101c-0.8-0.5-2-1.6-2-3.1c0-2.2,2-3.6,4.4-3.6c2.5,0,4.5,1.4,4.5,3.6
	c0,1.5-1.3,2.5-2,3v0.1c0.9,0.5,2.4,1.6,2.4,3.3c0,2.1-1.9,3.8-4.8,3.8c-2.9,0-4.7-1.6-4.7-3.8C129.2,102.5,131.2,101.2,131.6,101z
	 M134,105.6c0.8,0,1.6-0.6,1.6-1.5c0-0.7-0.6-1.5-1.6-1.8c-1,0.4-1.6,1.1-1.6,1.8C132.4,105,133.2,105.6,134,105.6z M135.4,98
	c0-0.7-0.6-1.3-1.4-1.3c-0.7,0-1.4,0.6-1.4,1.3c0,0.7,0.5,1.3,1.4,1.6C134.9,99.3,135.4,98.7,135.4,98z M143.4,100.1
	c0-1,0.8-1.8,1.8-1.8c1,0,1.8,0.8,1.8,1.8s-0.8,1.8-1.8,1.8C144.2,101.9,143.4,101.1,143.4,100.1z M149,98.6
	c0.1-0.1,0.2-0.1,0.2-0.1h1c0.2,0,0.3,0.2,0.2,0.4l-4.6,8.9c0,0.1-0.2,0.1-0.2,0.1h-1c-0.2,0-0.3-0.2-0.2-0.4L149,98.6z
	 M145.6,100.1c0-0.2-0.2-0.5-0.5-0.5c-0.3,0-0.5,0.2-0.5,0.5c0,0.3,0.2,0.5,0.5,0.5C145.4,100.6,145.6,100.3,145.6,100.1z
	 M149.7,104.3c1,0,1.8,0.8,1.8,1.8c0,1-0.8,1.8-1.8,1.8c-1,0-1.8-0.8-1.8-1.8C147.9,105.1,148.7,104.3,149.7,104.3z M149.7,106.6
	c0.3,0,0.5-0.2,0.5-0.5c0-0.3-0.2-0.5-0.5-0.5c-0.2,0-0.5,0.2-0.5,0.5C149.2,106.4,149.4,106.6,149.7,106.6z"/>
</svg>
