<?xml version="1.0" encoding="utf-8"?>
<!-- Generator: Adobe Illustrator 22.0.0, SVG Export Plug-In . SVG Version: 6.00 Build 0)  -->
<svg version="1.1" id="レイヤー_1" xmlns="http://www.w3.org/2000/svg" xmlns:xlink="http://www.w3.org/1999/xlink" x="0px"
	 y="0px" viewBox="0 0 159.995 23.995" style="enable-background:new 0 0 159.995 23.995;" xml:space="preserve">
<style type="text/css">
	.st0{fill:url(#SVGID_1_);}
	.st1{fill:#FFFFFF;}
</style>
<linearGradient id="SVGID_1_" gradientUnits="userSpaceOnUse" x1="102.5771" y1="51.1076" x2="57.4167" y2="-27.1125">
	<stop  offset="0" style="stop-color:#5674AF"/>
	<stop  offset="0.3328" style="stop-color:#438DBC"/>
	<stop  offset="0.6764" style="stop-color:#339FB9"/>
	<stop  offset="1" style="stop-color:#24B1B4"/>
</linearGradient>
<polygon class="st0" points="159.995,11.998 149.538,23.995 10.456,23.995 0,11.998 10.456,0 149.538,0 159.995,11.998 "/>
<path class="st1" d="M61.9,18.624c-0.609,0.211-0.987,0.147-1.344-0.147c-0.251-0.209-0.587-0.482-0.882-0.902
	c-0.398-0.545-0.504-0.862-0.064-2.225c0.651-1.975,2.395-5.249,3.844-7.413c-0.82-0.042-1.24-0.565-1.365-0.882
	c-0.084-0.231-0.064-0.356,0.211-0.398c1.447-0.189,2.498-1.029,3.862-1.238c1.344-0.211,2.395,0.482,3.171,1.847
	C71.264,10.624,67.527,16.755,61.9,18.624L61.9,18.624z M68.304,7.307c-0.735-1.176-2.267-0.064-3.736,0.42
	c0.104,0.525-0.022,1.28-0.547,2.204c-1.049,1.869-2.749,4.662-3.358,6.593c-0.273,0.882-0.125,1.176,0.504,0.945
	C66.898,15.285,69.544,9.28,68.304,7.307L68.304,7.307z M78.976,16.587c-0.545,1.155-1.869,2.309-3.024,2.247
	c-1.135-0.064-1.722-0.736-1.722-1.722c-0.671,0.86-1.616,1.636-2.624,1.636c-1.953,0-2.353-2.665-0.609-5.205
	c1.7-2.478,3.358-3.424,4.409-3.424c0.902,0,1.322,0.693,1.28,1.513c0.273-0.504,0.525-0.945,0.756-1.282
	c0.189-0.273,0.356-0.315,0.504-0.125c0.315,0.378,0.484,1.28-0.022,2.331c-0.462,0.945-1.511,2.52-2.015,3.633
	c-0.525,1.175-0.545,2.078,0.167,2.036c0.862-0.042,2.016-1.471,2.751-2.918c0.105-0.189,0.253-0.211,0.336-0.022
	C79.249,15.475,79.249,16,78.976,16.587L78.976,16.587z M75.764,11.213c-0.671-0.064-2.204,1.302-3.36,3.171
	c-1.113,1.805-1.385,3.653-0.565,3.673c0.86,0.022,1.953-1.322,3.022-3.169C76.184,12.576,76.373,11.275,75.764,11.213
	L75.764,11.213z M85.835,10.036c-0.462-0.064-1.113,0-1.638,0.084c-0.818,1.407-2.015,3.444-2.813,5.207
	c-0.693,1.533-0.462,2.835,0.42,2.876c0.945,0.042,2.142-1.449,2.918-3.024c0.125-0.251,0.356-0.293,0.442,0
	c0.104,0.336,0,0.715-0.211,1.198c-0.273,0.607-1.658,2.456-3.338,2.393c-1.385-0.042-2.498-1.596-1.491-4.011
	c0.442-1.049,1.324-2.813,2.225-4.471c-0.715,0-1.196-0.316-1.364-0.547c-0.211-0.293-0.085-0.44,0.231-0.42
	c0.587,0.022,1.175-0.02,1.742-0.084c0.651-1.155,1.238-2.142,1.596-2.604c0.189-0.273,0.398-0.251,0.504,0
	c0.231,0.589,0.231,1.282-0.273,2.373c0.818-0.02,1.133,0.358,1.302,0.631C86.233,9.889,86.149,10.036,85.835,10.036L85.835,10.036z
	 M93.656,16.587c-0.546,1.155-1.869,2.309-3.024,2.247c-1.135-0.064-1.722-0.736-1.722-1.722c-0.671,0.86-1.616,1.636-2.624,1.636
	c-1.953,0-2.353-2.665-0.609-5.205c1.7-2.478,3.358-3.424,4.409-3.424c0.902,0,1.322,0.693,1.28,1.513
	c0.273-0.504,0.525-0.945,0.756-1.282c0.189-0.273,0.356-0.315,0.504-0.125c0.315,0.378,0.484,1.28-0.022,2.331
	c-0.462,0.945-1.511,2.52-2.015,3.633c-0.525,1.175-0.545,2.078,0.167,2.036c0.862-0.042,2.016-1.471,2.751-2.918
	c0.105-0.189,0.253-0.211,0.336-0.022C93.929,15.475,93.929,16,93.656,16.587L93.656,16.587z M90.444,11.213
	c-0.671-0.064-2.204,1.302-3.36,3.171c-1.113,1.805-1.385,3.653-0.565,3.673c0.86,0.022,1.953-1.322,3.022-3.169
	C90.864,12.576,91.053,11.275,90.444,11.213L90.444,11.213z"/>
</svg>
