<?xml version="1.0" encoding="utf-8"?>
<!-- Generator: Adobe Illustrator 22.1.0, SVG Export Plug-In . SVG Version: 6.00 Build 0)  -->
<svg version="1.1" id="レイヤー_1" xmlns="http://www.w3.org/2000/svg" xmlns:xlink="http://www.w3.org/1999/xlink" x="0px"
	 y="0px" viewBox="0 0 160 24" style="enable-background:new 0 0 160 24;" xml:space="preserve">
<style type="text/css">
	.st0{fill:url(#SVGID_1_);}
	.st1{fill:#FFFFFF;}
</style>
<linearGradient id="SVGID_1_" gradientUnits="userSpaceOnUse" x1="102.5712" y1="-255.0944" x2="57.4288" y2="-176.9056" gradientTransform="matrix(1 0 0 -1 0 -204)">
	<stop  offset="0" style="stop-color:#5674AF"/>
	<stop  offset="0.3328" style="stop-color:#438DBC"/>
	<stop  offset="0.6764" style="stop-color:#339FB9"/>
	<stop  offset="1" style="stop-color:#24B1B4"/>
</linearGradient>
<polygon class="st0" points="160,12 149.5,24 10.5,24 0,12 10.5,0 149.5,0 "/>
<g>
	<path class="st1" d="M65.6,5.7c0-0.2,0-0.3,0.2-0.3c1.7,0.1,4.1-0.5,5.2-0.5c0.9,0,1.3,0.3,1.6,1c0.1,0.2,0,0.3-0.2,0.3
		c-1.5,0-3,0.4-4.3,0.6c-0.8,1.3-1.9,3.1-2.9,5c0.6-0.1,1.1-0.1,1.5-0.2c1,0,1.5,0.3,1.7,0.9c0.1,0.2,0.1,0.3-0.2,0.3
		c-1.1,0-2.7,0.3-3.9,0.6c-0.6,1.2-1.2,2.3-1.6,3.3c1-0.3,2.4-0.6,3.3-0.7c1,0,1.6,0.3,1.8,0.9c0.1,0.2,0,0.3-0.2,0.3
		c-1.2,0-3.5,0.5-4.6,0.8c-0.4,0.1-0.6,0.1-0.9-0.2c-0.2-0.2-0.3-0.5-0.4-0.8c-0.2-0.4-0.2-0.6,0-1.2c1-2.6,3.1-6.5,4.8-9.2
		C65.9,6.6,65.7,6.1,65.6,5.7z"/>
	<path class="st1" d="M76.6,9.6C76.9,9.3,77,9.4,77,9.6c0.1,0.4-0.2,1-0.9,1.8c-1,1.3-3,3.3-5,6.5c-0.1,0.2-0.2,0.3-0.4,0.2
		c-0.8-0.4-1.1-0.8-1-1.9c0.1-1.5,0.7-4.5,1.4-6.7c0.1-0.2,0.3-0.3,0.4-0.2c0.7,0.6,0.8,1.4,0.5,2.6c-0.4,1.6-0.8,2.8-1.1,5.1
		C72.4,14.7,75.2,11,76.6,9.6z"/>
	<path class="st1" d="M79.1,17.5c1.7,0.1,3.3-1.6,4.2-3c0.1-0.2,0.3-0.2,0.4,0c0.1,0.2,0,0.8-0.4,1.3c-0.9,1.3-2.5,2.2-4.1,2.3
		c-2.7,0-3.6-2.6-2.2-5.3c1.4-2.7,3.5-3.8,4.6-3.2c0.5,0.3,0.9,0.6,1.2,1.1c0.4,0.5,0.2,1.8-0.7,2.9c-1,1.3-2.4,1.8-3.9,0.6
		C77.5,16.1,78,17.5,79.1,17.5z M80.9,12.7c0.7-0.9,1.1-2,0.8-2.2c-0.4-0.4-2.2,0.9-3.2,2.9c-0.1,0.1-0.1,0.3-0.2,0.4
		C79.4,14.4,80.3,13.5,80.9,12.7z"/>
	<path class="st1" d="M90,9.6c0.7,0.1,1.3,1.1,0.8,2.2c-0.4,0.9-1.5,2.5-2,3.6c-0.5,1.2-0.4,2.2,0.3,2.2c0.9,0,1.9-1.4,2.7-2.9
		c0.1-0.2,0.3-0.2,0.4,0c0.1,0.2,0.1,0.7-0.2,1.3c-0.6,1.2-1.9,2.2-3.1,2.2c-1.8,0-2.2-1.3-1.6-3.1c0.7-2.1,2.5-4.3,2.2-4.5
		c-0.2-0.1-1.4,0.5-2.8,2c-1.2,1.3-2.2,3.4-3.1,5.3c-0.1,0.2-0.2,0.3-0.4,0.1c-0.4-0.4-0.5-1.1-0.2-2.2c0.4-1.3,2-4.2,3.4-6.2
		c0.1-0.2,0.3-0.2,0.4,0c0.3,0.5,0.3,1.2,0.1,2C87.9,10.6,89.3,9.5,90,9.6z"/>
	<path class="st1" d="M93.4,9.1c-0.2-0.3-0.1-0.4,0.2-0.4c0.6,0,1.2,0,1.7-0.1C96,7.4,96.6,6.4,96.9,6c0.2-0.3,0.4-0.3,0.5,0
		c0.2,0.6,0.2,1.3-0.3,2.4c0.8,0,1.1,0.4,1.3,0.6c0.1,0.3,0.1,0.4-0.3,0.4c-0.5-0.1-1.1,0-1.6,0.1c-0.8,1.4-2,3.4-2.8,5.2
		c-0.7,1.5-0.5,2.8,0.4,2.9c0.9,0,2.1-1.4,2.9-3c0.1-0.3,0.4-0.3,0.4,0c0.1,0.3,0,0.7-0.2,1.2c-0.3,0.6-1.7,2.5-3.3,2.4
		c-1.4,0-2.5-1.6-1.5-4c0.4-1,1.3-2.8,2.2-4.5C94,9.6,93.5,9.3,93.4,9.1z"/>
</g>
</svg>
