<?xml version="1.0" encoding="utf-8"?>
<!-- Generator: Adobe Illustrator 22.0.0, SVG Export Plug-In . SVG Version: 6.00 Build 0)  -->
<svg version="1.1" id="レイヤー_1" xmlns="http://www.w3.org/2000/svg" xmlns:xlink="http://www.w3.org/1999/xlink" x="0px"
	 y="0px" viewBox="0 0 159.995 23.995" style="enable-background:new 0 0 159.995 23.995;" xml:space="preserve">
<style type="text/css">
	.st0{fill:url(#SVGID_1_);}
	.st1{fill:#FFFFFF;}
</style>
<linearGradient id="SVGID_1_" gradientUnits="userSpaceOnUse" x1="102.5775" y1="-23.1077" x2="57.4168" y2="55.1129" gradientTransform="matrix(1 0 0 -1 0 28)">
	<stop  offset="0" style="stop-color:#5674AF"/>
	<stop  offset="0.3328" style="stop-color:#438DBC"/>
	<stop  offset="0.6764" style="stop-color:#339FB9"/>
	<stop  offset="1" style="stop-color:#24B1B4"/>
</linearGradient>
<polygon class="st0" points="159.995,11.998 149.538,23.995 10.456,23.995 0,11.998 10.456,0 149.538,0 "/>
<g>
	<path class="st1" d="M74.233,23.995h1.639c0.909-1.31,1.716-3.424,2.023-5.371c1.26-0.442,2.311-1.68,2.52-2.184
		c0.019-0.048,0.033-0.094,0.051-0.142c-0.348,1.469,0.113,2.558,1.546,2.558c1.176,0,2.5-0.882,3.129-2.184
		c0.252-0.526,0.314-0.966,0.147-1.302c-0.083-0.167-0.231-0.189-0.336,0c-0.629,1.449-1.784,2.834-2.729,2.876
		c-0.673,0.041-0.715-0.777-0.211-1.995c0.442-1.049,1.324-2.478,1.764-3.402c0.506-1.049,0.337-1.953,0.022-2.285
		c-0.168-0.19-0.315-0.128-0.504,0.125c-0.765,1.076-2.121,3.497-2.661,5.034c0.038-0.205,0.043-0.391-0.007-0.543
		c-0.106-0.295-0.317-0.273-0.442-0.02c-0.546,1.09-1.386,2.14-2.184,2.665c0.022-0.251,0.042-0.482,0.042-0.713
		c0.022-1.387-0.293-2.183-1.091-2.436c1.133-2.205,2.582-4.576,3.444-6.005c0.901-1.533,0.965-2.435,0.712-3.149
		c-0.083-0.251-0.356-0.273-0.525-0.02c-1.498,2.241-4.025,6.366-5.798,10.271c0.047-0.225,0.056-0.429,0.002-0.593
		c-0.106-0.295-0.317-0.273-0.442-0.02c-0.546,1.09-1.386,2.14-2.184,2.665c0.022-0.251,0.042-0.482,0.042-0.713
		c0.022-1.387-0.293-2.183-1.091-2.436c1.133-2.205,2.582-4.576,3.444-6.005c0.901-1.533,0.965-2.435,0.712-3.149
		c-0.083-0.251-0.356-0.273-0.525-0.02c-2.329,3.485-7.158,11.525-7.747,16.209c-0.138,1.066,0.034,1.782,0.305,2.284h0.929
		c-0.029-0.013-0.057-0.029-0.08-0.059c-0.482-0.609,0.274-3.212,1.449-6.005c0.253,0.504,0.673,0.776,1.282,0.84
		c-0.6,2.489-1.859,4.989-2.487,5.224h1.639c0.909-1.31,1.716-3.424,2.023-5.371c0.962-0.337,1.799-1.137,2.236-1.721
		c-0.736,1.758-1.282,3.43-1.456,4.809c-0.138,1.066,0.034,1.782,0.305,2.284h0.929c-0.029-0.013-0.057-0.029-0.08-0.059
		c-0.482-0.609,0.274-3.212,1.449-6.005c0.253,0.504,0.673,0.776,1.282,0.84C76.12,21.26,74.861,23.76,74.233,23.995z
		 M71.005,18.161c-0.398-0.083-0.587-0.525-0.567-1.196c0.022-0.484,0.211-1.596,0.42-1.68c0.147-0.063,0.357,0.588,0.336,1.365
		C71.172,17.132,71.11,17.657,71.005,18.161z M76.278,16.965c0.022-0.484,0.211-1.596,0.42-1.68
		c0.147-0.063,0.357,0.588,0.336,1.365c-0.022,0.482-0.084,1.007-0.189,1.511C76.447,18.078,76.258,17.636,76.278,16.965z"/>
	<path class="st1" d="M90.487,14.885c0.273,0.148,0.358,0.086,0.442-0.167c0.42-1.133,1.26-2.247,0.818-3.129
		c-0.251-0.482-0.588-0.819-1.155-1.155c-1.05-0.629-3.171,0.504-4.515,3.151c-1.364,2.707-0.462,5.311,2.205,5.269
		c1.595-0.022,3.255-1.049,4.051-2.289c0.358-0.565,0.442-1.09,0.379-1.26c-0.083-0.209-0.273-0.187-0.378-0.02
		c-0.86,1.322-2.371,3.002-4.136,2.982c-1.239-0.021-1.679-1.763-0.524-4.136c0.943-1.911,2.52-3.255,2.876-2.96
		c0.295,0.231-0.336,1.133-0.567,1.889C89.689,14.003,89.983,14.634,90.487,14.885z"/>
	<path class="st1" d="M100.3,15.285c-0.903,1.386-2.436,3.066-4.178,2.982c-1.112-0.063-1.616-1.385-0.945-3.318
		c1.469,1.196,2.876,0.651,3.905-0.609c0.882-1.071,1.049-2.351,0.671-2.855c-0.334-0.462-0.713-0.778-1.238-1.093
		c-1.049-0.609-3.191,0.484-4.556,3.193c-1.364,2.707-0.44,5.333,2.225,5.291c1.618-0.022,3.234-0.987,4.116-2.269
		c0.378-0.545,0.44-1.132,0.356-1.302C100.573,15.118,100.404,15.118,100.3,15.285z M95.533,14.131
		c0.987-1.994,2.731-3.254,3.171-2.898c0.295,0.23-0.167,1.323-0.84,2.205c-0.609,0.798-1.469,1.7-2.498,1.049
		C95.408,14.382,95.471,14.256,95.533,14.131z"/>
	<path class="st1" d="M84.218,8.439c-0.336,0.359-0.441,0.988-0.105,1.555c0.314,0.546,0.903,0.61,1.176,0.315
		c0.273-0.294,0.42-0.86,0.147-1.408C85.163,8.335,84.554,8.083,84.218,8.439z"/>
	<path class="st1" d="M67.48,14.173c1.575-2.898,2.162-7.035-0.442-8.166c-0.588-0.609-1.637-0.84-2.855-0.42
		c-2.373,0.84-6.298,4.723-6.298,9.196c0,1.721,0.671,3.296,2.393,3.925C63.135,19.758,65.78,17.3,67.48,14.173z M60.951,10.624
		c1.972-3.066,4.64-4.493,5.667-4.115c1.157,0.42,1.24,3.569-0.671,7.077c-1.763,3.233-4.242,4.913-5.627,4.324
		C58.893,17.3,58.935,13.753,60.951,10.624z"/>
</g>
</svg>
