<?xml version="1.0" encoding="utf-8"?>
<!-- Generator: Adobe Illustrator 22.0.0, SVG Export Plug-In . SVG Version: 6.00 Build 0)  -->
<svg version="1.1" id="レイヤー_1" xmlns="http://www.w3.org/2000/svg" xmlns:xlink="http://www.w3.org/1999/xlink" x="0px"
	 y="0px" viewBox="0 0 113.985 60" style="enable-background:new 0 0 113.985 60;" xml:space="preserve">
<style type="text/css">
	.st0{fill:url(#SVGID_1_);}
	.st1{fill:url(#SVGID_2_);}
	.st2{fill:url(#SVGID_3_);}
	.st3{fill:#151519;}
</style>
<linearGradient id="SVGID_1_" gradientUnits="userSpaceOnUse" x1="38.2616" y1="24.2618" x2="22.9878" y2="39.5356" gradientTransform="matrix(1 0 0 -1 0 62)">
	<stop  offset="0" style="stop-color:#5674AF"/>
	<stop  offset="0.3328" style="stop-color:#438DBC"/>
	<stop  offset="0.6764" style="stop-color:#339FB9"/>
	<stop  offset="1" style="stop-color:#24B1B4"/>
</linearGradient>
<path class="st0" d="M25.45,34.285c1.975,2.184,4.158,4.915,6.931,8.695c0.253,0.378,0.462,0.253,0.673-0.084
	c0.545-0.84,0.378-2.269-0.211-3.404c-0.882-1.764-2.395-3.78-3.991-5.755c4.664-1.093,9.2-3.738,11.469-6.764
	c1.596-2.142,2.184-4.704,1.302-7.225c-1.007-2.856-2.856-3.485-4.998-3.402c-2.815,0.125-5.965,1.849-9.495,2.269
	c-0.545,0.084-0.671,0.293-0.462,0.713c0.504,0.925,1.26,1.555,2.689,1.682c-3.696,5.796-7.645,13.778-8.696,17.6
	c-0.629,2.269-0.209,3.529,0.378,4.16c0.295,0.293,0.504,0.251,0.673-0.169C23.097,39.158,24.316,36.51,25.45,34.285L25.45,34.285z
	 M31.919,20.758c2.773-0.756,6.973-2.94,7.898-0.587c1.218,2.982-3.529,9.115-12.813,11.173c1.135-2.058,2.184-3.822,3.318-5.838
	C31.457,23.405,31.919,21.934,31.919,20.758L31.919,20.758z"/>
<linearGradient id="SVGID_2_" gradientUnits="userSpaceOnUse" x1="54.4145" y1="7.5855" x2="5.5855" y2="56.4145" gradientTransform="matrix(1 0 0 -1 0 62)">
	<stop  offset="0" style="stop-color:#5674AF"/>
	<stop  offset="0.3328" style="stop-color:#438DBC"/>
	<stop  offset="0.6764" style="stop-color:#339FB9"/>
	<stop  offset="1" style="stop-color:#24B1B4"/>
</linearGradient>
<polygon class="st1" points="56,44 56,46.747 42.785,56 4,56 4,13.253 17.215,4 56,4 56,25 60,25 60,0 15.954,0 0,11.171 0,60 
	44.046,60 60,48.829 60,44 "/>
<linearGradient id="SVGID_3_" gradientUnits="userSpaceOnUse" x1="38.2611" y1="37.6924" x2="22.9879" y2="22.4191">
	<stop  offset="0" style="stop-color:#5674AF"/>
	<stop  offset="0.3328" style="stop-color:#438DBC"/>
	<stop  offset="0.6764" style="stop-color:#339FB9"/>
	<stop  offset="1" style="stop-color:#24B1B4"/>
</linearGradient>
<path class="st2" d="M25.45,34.239c1.975,2.184,4.158,4.915,6.931,8.695c0.253,0.378,0.462,0.253,0.673-0.084
	c0.545-0.84,0.378-2.269-0.211-3.404c-0.882-1.764-2.395-3.78-3.991-5.755c4.664-1.093,9.2-3.738,11.469-6.764
	c1.596-2.142,2.184-4.704,1.302-7.225c-1.007-2.856-2.856-3.485-4.998-3.402c-2.815,0.125-5.965,1.849-9.495,2.269
	c-0.545,0.084-0.671,0.293-0.462,0.713c0.504,0.925,1.26,1.555,2.689,1.682c-3.696,5.796-7.645,13.778-8.696,17.6
	c-0.629,2.269-0.209,3.529,0.378,4.16c0.295,0.293,0.504,0.251,0.673-0.169C23.097,39.112,24.316,36.465,25.45,34.239L25.45,34.239z
	 M31.919,20.712c2.773-0.756,6.973-2.94,7.898-0.587c1.218,2.982-3.529,9.115-12.813,11.173c1.135-2.058,2.184-3.822,3.318-5.838
	C31.457,23.359,31.919,21.888,31.919,20.712L31.919,20.712z"/>
<path class="st3" d="M44.096,39.221c-1.007,1.465-2.856,2.569-4.704,2.593c-3.049,0.047-4.105-2.953-2.545-6.049
	c1.562-3.096,4.009-4.344,5.209-3.647c0.6,0.36,1.033,0.72,1.416,1.247c0.433,0.576,0.24,2.04-0.767,3.265
	c-1.176,1.44-2.785,2.064-4.465,0.695c-0.767,2.209-0.191,3.722,1.08,3.793c1.993,0.096,3.745-1.824,4.776-3.407
	c0.12-0.193,0.313-0.193,0.409,0.024C44.599,37.925,44.528,38.597,44.096,39.221L44.096,39.221z M41.312,35.597
	c0.767-1.009,1.296-2.256,0.96-2.52c-0.504-0.409-2.496,1.031-3.624,3.313c-0.073,0.144-0.145,0.287-0.193,0.407
	C39.632,37.541,40.616,36.51,41.312,35.597L41.312,35.597z M60.928,39.366c-0.6,1.44-2.04,2.52-3.313,2.447
	c-1.847-0.096-2.591-1.704-1.991-3.649c0.504-1.631,1.991-3.407,3-4.536c-1.08,0.649-2.136,0.889-2.904,0.889
	c-1.753,3.936-4.465,7.273-7.465,7.273c-3.049,0-4.056-2.953-2.496-6c1.536-2.976,3.96-4.345,5.16-3.625
	c0.649,0.384,1.056,0.816,1.32,1.344c0.505,0.985-0.48,2.282-0.935,3.529c-0.12,0.336-0.169,0.407-0.505,0.24
	c-0.576-0.287-0.911-1.033-0.576-2.087c0.289-0.865,1.056-1.922,0.673-2.185c-0.433-0.311-2.207,1.153-3.313,3.385
	c-1.32,2.687-0.815,4.631,0.6,4.704c2.616,0.12,5.353-3.624,6.625-6.72c-1.873-0.72,0.48-3.962,1.487-3.985
	c0.745-0.024,0.505,1.44-0.095,3c0.84-0.12,1.704-0.504,2.615-1.151c0.265-0.193,0.529-0.289,0.722-0.049
	c0.431,0.505,1.031,1.633,0.311,2.449c-1.127,1.273-2.304,2.88-2.713,4.176c-0.431,1.32-0.167,2.256,0.6,2.304
	c0.96,0.073,2.185-1.511,2.953-3.287c0.096-0.216,0.264-0.24,0.36-0.025C61.168,38.07,61.217,38.67,60.928,39.366L60.928,39.366z
	 M71.248,39.294c-0.696,1.344-2.184,2.567-3.6,2.567c-1.56,0-2.185-0.984-1.993-2.375c-0.84,1.127-2.113,2.351-3.456,2.255
	c-1.704-0.12-1.753-1.895-1.224-3.48c0.527-1.584,1.753-3.936,3.313-6.12c0.191-0.264,0.431-0.24,0.624-0.024
	c0.527,0.791,0.407,1.871-0.456,3.24c-0.887,1.416-1.367,2.376-1.873,3.527c-0.504,1.176-0.431,2.042,0.12,2.089
	c0.936,0.073,2.256-1.607,3.553-3.696c1.513-2.449,2.209-4.104,2.976-5.136c0.24-0.336,0.407-0.384,0.6-0.144
	c0.36,0.431,0.553,1.487-0.024,2.687c-0.529,1.08-1.729,2.88-2.28,4.105c-0.624,1.367-0.529,2.376,0.336,2.327
	c1.007-0.047,2.231-1.631,3.167-3.313c0.12-0.215,0.336-0.24,0.433-0.024C71.561,37.974,71.585,38.621,71.248,39.294L71.248,39.294z
	 M77.312,32.021c-0.313,0.336-0.984,0.264-1.344-0.36c-0.385-0.647-0.265-1.369,0.12-1.776c0.384-0.407,1.08-0.12,1.391,0.527
	C77.792,31.037,77.625,31.685,77.312,32.021L77.312,32.021z M75.583,34.925c-0.504,1.056-1.511,2.689-2.015,3.889
	c-0.576,1.393-0.529,2.327,0.24,2.28c1.08-0.047,2.4-1.633,3.12-3.289c0.12-0.215,0.287-0.191,0.384,0
	c0.191,0.385,0.12,0.889-0.169,1.489c-0.72,1.487-2.231,2.496-3.575,2.496c-1.825,0-2.282-1.536-1.609-3.505
	c0.6-1.751,2.184-4.584,3.073-5.831c0.216-0.289,0.384-0.36,0.576-0.145C75.968,32.694,76.159,33.725,75.583,34.925L75.583,34.925z
	 M84.856,31.805c-0.527-0.071-1.271,0-1.873,0.096c-0.935,1.607-2.304,3.936-3.215,5.953c-0.793,1.753-0.529,3.24,0.48,3.287
	c1.08,0.049,2.447-1.655,3.336-3.456c0.144-0.287,0.407-0.335,0.504,0c0.12,0.385,0,0.816-0.24,1.369
	c-0.313,0.696-1.896,2.807-3.816,2.736c-1.585-0.049-2.856-1.824-1.705-4.585c0.505-1.2,1.513-3.216,2.545-5.111
	c-0.816,0-1.369-0.36-1.56-0.625c-0.24-0.335-0.096-0.504,0.264-0.48c0.673,0.025,1.344-0.024,1.993-0.095
	c0.744-1.322,1.415-2.449,1.824-2.976c0.216-0.313,0.456-0.289,0.576,0c0.264,0.671,0.264,1.464-0.313,2.711
	c0.936-0.024,1.296,0.409,1.489,0.72C85.312,31.637,85.216,31.805,84.856,31.805L84.856,31.805z M95.192,32.021
	c-0.313,0.336-0.984,0.264-1.344-0.36c-0.385-0.647-0.265-1.369,0.12-1.776c0.384-0.407,1.08-0.12,1.391,0.527
	C95.672,31.037,95.505,31.685,95.192,32.021L95.192,32.021z M93.463,34.925c-0.504,1.056-1.511,2.689-2.015,3.889
	c-0.576,1.393-0.529,2.327,0.24,2.28c1.08-0.047,2.4-1.633,3.12-3.289c0.12-0.215,0.287-0.191,0.384,0
	c0.191,0.385,0.12,0.889-0.169,1.489c-0.72,1.487-2.231,2.496-3.575,2.496c-1.825,0-2.282-1.536-1.609-3.505
	c0.6-1.751,2.184-4.584,3.073-5.831c0.216-0.289,0.384-0.36,0.576-0.145C93.848,32.694,94.039,33.725,93.463,34.925L93.463,34.925z
	 M105.448,39.294c-0.649,1.344-2.16,2.567-3.553,2.567c-2.04,0-2.52-1.487-1.824-3.576c0.791-2.351,2.904-4.896,2.473-5.087
	c-0.24-0.096-1.633,0.576-3.169,2.256c-1.416,1.536-2.473,3.84-3.504,6.096c-0.096,0.216-0.24,0.311-0.456,0.096
	c-0.48-0.48-0.624-1.273-0.24-2.473c0.48-1.513,2.327-4.849,3.84-7.08c0.167-0.265,0.36-0.24,0.504,0
	c0.36,0.6,0.336,1.415,0.073,2.28c1.08-1.153,2.713-2.473,3.504-2.353c0.793,0.12,1.536,1.296,0.936,2.544
	c-0.504,1.056-1.68,2.833-2.233,4.08c-0.624,1.393-0.48,2.522,0.385,2.473c0.984-0.047,2.16-1.631,3.071-3.313
	c0.12-0.215,0.289-0.215,0.409-0.024C105.832,38.045,105.785,38.597,105.448,39.294L105.448,39.294z M112.192,30.148
	c-0.984,1.633-2.64,4.345-3.936,6.865c0.913,0.287,1.273,1.2,1.247,2.784c0,0.264-0.024,0.529-0.047,0.816
	c0.913-0.6,1.873-1.8,2.496-3.049c0.144-0.287,0.384-0.311,0.504,0.025c0.12,0.36-0.024,0.887-0.24,1.44
	c-0.24,0.576-1.44,1.991-2.88,2.496c-0.384,2.424-1.44,5.087-2.593,6.527c-0.816,1.009-1.416,1.105-2.136,0.48
	c-0.6-0.504-1.32-1.44-1.055-3.48c0.671-5.353,6.191-14.545,8.856-18.529c0.191-0.289,0.504-0.264,0.6,0.024
	C113.296,27.365,113.225,28.397,112.192,30.148L112.192,30.148z M106.527,40.734c-1.344,3.193-2.207,6.169-1.655,6.865
	c0.527,0.695,2.327-2.616,3.12-5.905C107.296,41.621,106.816,41.31,106.527,40.734L106.527,40.734z M107.968,37.71
	c-0.24,0.095-0.456,1.367-0.48,1.92c-0.025,0.767,0.191,1.271,0.647,1.367c0.12-0.576,0.193-1.176,0.216-1.727
	C108.376,38.381,108.136,37.637,107.968,37.71L107.968,37.71z M120.879,36.27c-0.167,0.191-0.407,0.287-0.647,0.311
	c-0.504,2.04-2.016,4.465-3.793,5.065c-0.864,0.287-2.064,0.191-3.024-1.056c-1.056-1.393-0.696-3.48,0.384-5.4
	c0.913-1.633,2.376-3.025,3.816-3.122c0.744-0.047,1.153,0.169,1.633,0.816c0.551,0.744,1.271,0.913,1.127,2.64
	c-0.024,0.193-0.024,0.36-0.047,0.553c0.144,0,0.287-0.047,0.48-0.047C120.976,36.03,120.976,36.15,120.879,36.27L120.879,36.27z
	 M117.088,33.868c-0.649,0.553-1.345,1.345-1.849,2.256c-1.007,1.825-1.367,4.033-0.744,4.562c0.673,0.551,2.136-0.289,3.313-2.496
	c0.36-0.673,0.647-1.345,0.84-1.92c-0.169-0.073-0.313-0.169-0.456-0.289C117.688,35.597,117.112,34.757,117.088,33.868
	L117.088,33.868z M119.008,33.845c-0.12-0.767-0.6-0.624-0.72,0.073c-0.12,0.647,0.144,1.344,0.527,1.704
	C119.008,34.877,119.079,34.277,119.008,33.845L119.008,33.845z"/>
</svg>
