<?xml version="1.0" encoding="utf-8"?>
<!-- Generator: Adobe Illustrator 22.0.0, SVG Export Plug-In . SVG Version: 6.00 Build 0)  -->
<svg height="100px" width="110px" version="1.1" id="レイヤー_1" xmlns="http://www.w3.org/2000/svg" xmlns:xlink="http://www.w3.org/1999/xlink" x="0px"
	 y="0px" viewBox="0 0 129.462 97.687" style="enable-background:new 0 0 129.462 97.687;" xml:space="preserve">
<style type="text/css">
	.st0{fill:url(#SVGID_1_);}
</style>
<g>
	
		<linearGradient id="SVGID_1_" gradientUnits="userSpaceOnUse" x1="100.7433" y1="-9.9847" x2="38.063" y2="98.5808" gradientTransform="matrix(1 0 0 -1 0 100)">
		<stop  offset="0" style="stop-color:#5470A7"/>
		<stop  offset="0.3328" style="stop-color:#4486B2"/>
		<stop  offset="0.6764" style="stop-color:#3798AF"/>
		<stop  offset="1" style="stop-color:#2AA8AA"/>
	</linearGradient>
	<path class="st0" d="M62.234,2c0.551,0,1.097,0.142,1.579,0.411l0.05,0.028l0.051,0.025l58.248,28.314
		c0.997,0.578,1.615,1.646,1.615,2.801v31.124c0,1.785-1.452,3.237-3.237,3.237s-3.237-1.452-3.237-3.237V43.961
		c0.089-2.327,0.172-4.728-1.327-6.285c-0.859-0.893-2.094-1.345-3.671-1.345c-1.695,0-4.007,0.51-7.24,1.593l-45.684,14.33
		l-0.074,0.023l-0.072,0.029c-0.385,0.155-0.791,0.233-1.206,0.233c-0.537,0-1.07-0.135-1.542-0.391l-0.058-0.031l-0.06-0.028
		L4.999,28.498C3.157,27.7,1.98,26.565,2,25.605c0.016-0.747,0.887-1.873,3.261-2.785L60.797,2.329l0.061-0.023l0.06-0.027
		C61.335,2.094,61.777,2,62.234,2 M14.544,44.43c0.499,0,1.384,0.164,2.764,0.943l0.077,0.044l0.081,0.037l37.18,16.865
		c1.037,0.546,2.202,0.835,3.374,0.835c0.906,0,1.792-0.167,2.635-0.497l37.582-11.963l0.053-0.017l0.052-0.02
		c0.839-0.32,1.578-0.482,2.196-0.482c1.893,0,2.29,1.886,2.29,3.469v18.569c0,12.504-28.129,23.476-45.132,23.476
		c-7.914,0-19.45-2.939-28.705-7.312C18.553,83.44,12.565,77.549,12.565,72.211V48.239C12.565,47.346,12.708,44.43,14.544,44.43
		 M120.836,75.176c1.625,0,3.023,1.221,3.181,2.78c0.348,3.423,1.081,6.806,2.178,10.055c0.123,0.363,0.251,0.727,0.378,1.087
		c0.315,0.893,0.81,2.297,0.885,3.022c-0.04,0.002-0.085,0.003-0.134,0.003h-13.679c-0.017,0-0.033,0-0.048,0
		c0.105-0.677,0.525-1.855,0.822-2.688c0.182-0.512,0.368-1.033,0.537-1.552c1.02-3.142,1.72-6.431,2.079-9.773
		c0.18-1.673,1.556-2.934,3.201-2.934L120.836,75.176 M62.234,0c-0.724,0-1.45,0.15-2.13,0.453L4.569,20.944
		c-6.304,2.419-5.759,7.054-0.365,9.389l51.329,23.574c0.775,0.42,1.633,0.632,2.494,0.632c0.661,0,1.323-0.125,1.951-0.377
		l45.684-14.33c3.08-1.031,5.195-1.501,6.641-1.501c3.106,0,3.128,2.167,2.997,5.592v20.779c0,2.892,2.345,5.237,5.237,5.237
		s5.237-2.345,5.237-5.237V33.579c0-1.897-1.026-3.646-2.683-4.572L64.788,0.665C63.997,0.223,63.116,0,62.234,0L62.234,0z
		 M14.544,42.43c-2.879,0-3.978,2.879-3.978,5.81v23.972c0,13.956,31.149,25.476,47.132,25.476
		c16.816,0,47.132-11.053,47.132-25.476v-18.57c0-2.917-1.242-5.469-4.291-5.469c-0.831,0-1.797,0.19-2.908,0.614l-37.65,11.984
		c-0.631,0.255-1.297,0.381-1.962,0.381c-0.859,0-1.716-0.211-2.49-0.63l-37.237-16.89C16.8,42.789,15.561,42.43,14.544,42.43
		L14.544,42.43z M120.836,73.176h-0.601c-2.69,0-4.902,2.046-5.189,4.72c-0.353,3.284-1.053,6.474-1.993,9.369
		c-1.096,3.375-2.956,6.858,0.592,6.858h13.679c3.517,0,1.892-3.42,0.766-6.752c-1.016-3.008-1.738-6.219-2.083-9.617
		C125.74,75.134,123.469,73.176,120.836,73.176L120.836,73.176z"/>
</g>
</svg>
