<?xml version="1.0" encoding="utf-8"?>
<!-- Generator: Adobe Illustrator 22.0.0, SVG Export Plug-In . SVG Version: 6.00 Build 0)  -->
<svg version="1.1" id="レイヤー_1" xmlns="http://www.w3.org/2000/svg" xmlns:xlink="http://www.w3.org/1999/xlink" x="0px"
	 y="0px" viewBox="0 0 159.995 23.995" style="enable-background:new 0 0 159.995 23.995;" xml:space="preserve">
<style type="text/css">
	.st0{fill:url(#SVGID_1_);}
	.st1{fill:#FFFFFF;}
</style>
<linearGradient id="SVGID_1_" gradientUnits="userSpaceOnUse" x1="102.5771" y1="51.1076" x2="57.4167" y2="-27.1125">
	<stop  offset="0" style="stop-color:#5674AF"/>
	<stop  offset="0.3328" style="stop-color:#438DBC"/>
	<stop  offset="0.6764" style="stop-color:#339FB9"/>
	<stop  offset="1" style="stop-color:#24B1B4"/>
</linearGradient>
<polygon class="st0" points="159.995,11.998 149.538,23.995 10.456,23.995 0,11.998 10.456,0 149.538,0 159.995,11.998 "/>
<path class="st1" d="M63.649,14.007c-1.7,3.127-4.345,5.585-7.202,4.535c-1.722-0.629-2.393-2.204-2.393-3.925
	c0-4.473,3.925-8.356,6.298-9.196C61.571,5,62.62,5.231,63.209,5.84C65.811,6.973,65.223,11.109,63.649,14.007L63.649,14.007z
	 M62.789,6.343c-1.029-0.378-3.696,1.049-5.669,4.115c-2.016,3.129-2.058,6.676-0.631,7.285c1.385,0.589,3.864-1.091,5.627-4.324
	C64.027,9.913,63.943,6.763,62.789,6.343L62.789,6.343z M74.062,16.505c-0.609,1.176-1.911,2.247-3.149,2.247
	c-1.365,0-1.911-0.862-1.744-2.08c-0.735,0.987-1.847,2.058-3.024,1.975c-1.491-0.105-1.533-1.658-1.071-3.045
	c0.462-1.385,1.533-3.442,2.898-5.353c0.167-0.231,0.378-0.211,0.546-0.022c0.462,0.693,0.356,1.638-0.398,2.835
	c-0.778,1.24-1.196,2.078-1.638,3.087c-0.44,1.029-0.378,1.784,0.105,1.825c0.818,0.064,1.973-1.405,3.107-3.233
	c1.322-2.142,1.931-3.591,2.604-4.493c0.209-0.295,0.356-0.336,0.524-0.125c0.316,0.376,0.484,1.3-0.02,2.351
	c-0.462,0.945-1.513,2.52-1.995,3.591c-0.545,1.196-0.462,2.078,0.295,2.036c0.882-0.042,1.951-1.429,2.771-2.898
	c0.105-0.189,0.295-0.209,0.378-0.02C74.334,15.351,74.354,15.918,74.062,16.505L74.062,16.505z M80.003,9.954
	c-0.462-0.064-1.113,0-1.638,0.084c-0.818,1.407-2.015,3.444-2.813,5.207c-0.693,1.533-0.462,2.835,0.42,2.876
	c0.945,0.042,2.142-1.449,2.918-3.024c0.125-0.251,0.356-0.293,0.442,0c0.104,0.336,0,0.715-0.211,1.198
	c-0.273,0.607-1.658,2.456-3.338,2.393c-1.385-0.042-2.498-1.596-1.491-4.011c0.442-1.049,1.324-2.813,2.225-4.471
	c-0.713,0-1.196-0.316-1.364-0.547c-0.211-0.293-0.085-0.44,0.231-0.42c0.587,0.022,1.175-0.02,1.742-0.084
	c0.651-1.155,1.238-2.142,1.596-2.604c0.189-0.273,0.398-0.251,0.504,0c0.231,0.589,0.231,1.282-0.273,2.373
	c0.818-0.02,1.133,0.358,1.302,0.631C80.403,9.807,80.318,9.954,80.003,9.954L80.003,9.954z M85.663,7.854
	c-0.651,2.584-3.004,5.102-4.873,6.32c-0.838,2.058-1.069,3.8-0.125,3.885c1.007,0.084,2.478-1.429,3.296-3.045
	c0.147-0.273,0.378-0.295,0.462,0c0.105,0.336,0.022,0.798-0.209,1.302c-0.295,0.631-1.827,2.373-3.507,2.331
	c-1.449-0.042-2.225-1.049-1.742-3.318c0.776-3.653,3.171-7.453,5.311-9.678c0.316-0.336,0.609-0.378,0.904-0.105
	C85.789,6.091,85.914,6.869,85.663,7.854L85.663,7.854z M84.949,7.414c-0.273-0.169-1.827,2.162-3.276,4.849
	c-0.187,0.336-0.356,0.673-0.504,1.009C84.045,10.942,85.222,7.582,84.949,7.414L84.949,7.414z M89.298,10.143
	c-0.273,0.295-0.86,0.231-1.176-0.315c-0.335-0.567-0.231-1.196,0.105-1.555c0.336-0.356,0.945-0.104,1.218,0.462
	C89.718,9.283,89.571,9.849,89.298,10.143L89.298,10.143z M87.787,12.683c-0.442,0.924-1.324,2.353-1.764,3.402
	c-0.505,1.218-0.462,2.036,0.209,1.995c0.945-0.042,2.1-1.427,2.729-2.876c0.105-0.189,0.253-0.167,0.336,0
	c0.167,0.336,0.105,0.776-0.147,1.302c-0.629,1.302-1.953,2.184-3.127,2.184c-1.596,0-1.995-1.344-1.407-3.065
	c0.525-1.533,1.911-4.011,2.687-5.102c0.189-0.253,0.336-0.315,0.504-0.125C88.122,10.731,88.291,11.634,87.787,12.683
	L87.787,12.683z M97.896,16.505c-0.567,1.176-1.889,2.247-3.107,2.247c-1.785,0-2.205-1.302-1.596-3.129
	c0.693-2.058,2.542-4.284,2.164-4.451c-0.211-0.084-1.427,0.504-2.773,1.973c-1.238,1.344-2.162,3.36-3.065,5.335
	c-0.084,0.187-0.209,0.273-0.398,0.084c-0.42-0.42-0.545-1.113-0.209-2.164c0.42-1.322,2.036-4.24,3.358-6.193
	c0.147-0.231,0.315-0.211,0.442,0c0.315,0.524,0.293,1.238,0.062,1.995c0.945-1.009,2.373-2.164,3.065-2.058
	c0.693,0.105,1.344,1.135,0.82,2.225c-0.442,0.924-1.471,2.478-1.953,3.569c-0.545,1.218-0.42,2.205,0.336,2.164
	c0.86-0.042,1.889-1.429,2.687-2.898c0.104-0.189,0.251-0.189,0.356-0.02C98.232,15.414,98.191,15.896,97.896,16.505L97.896,16.505z
	 M105.309,16.442c-0.882,1.282-2.498,2.247-4.116,2.269c-2.665,0.042-3.589-2.584-2.225-5.291c1.365-2.709,3.507-3.802,4.556-3.193
	c0.525,0.315,0.904,0.631,1.24,1.093c0.376,0.504,0.209,1.784-0.673,2.855c-1.029,1.26-2.435,1.805-3.905,0.609
	c-0.671,1.933-0.167,3.255,0.945,3.318c1.742,0.084,3.275-1.596,4.178-2.982c0.105-0.167,0.273-0.167,0.356,0.02
	C105.749,15.309,105.687,15.896,105.309,16.442L105.309,16.442z M102.872,13.273c0.673-0.882,1.135-1.975,0.84-2.206
	c-0.44-0.356-2.184,0.904-3.171,2.898c-0.062,0.125-0.125,0.251-0.167,0.356C101.403,14.973,102.263,14.071,102.872,13.273
	L102.872,13.273z"/>
</svg>
