<?xml version="1.0" encoding="utf-8"?>
<!-- Generator: Adobe Illustrator 22.0.0, SVG Export Plug-In . SVG Version: 6.00 Build 0)  -->
<svg version="1.1" id="レイヤー_1" xmlns="http://www.w3.org/2000/svg" xmlns:xlink="http://www.w3.org/1999/xlink" x="0px"
	 y="0px" viewBox="0 0 159.995 23.995" style="enable-background:new 0 0 159.995 23.995;" xml:space="preserve">
<style type="text/css">
	.st0{fill:url(#SVGID_1_);}
	.st1{fill:#FFFFFF;}
</style>
<linearGradient id="SVGID_1_" gradientUnits="userSpaceOnUse" x1="102.5775" y1="-23.1077" x2="57.4168" y2="55.1129" gradientTransform="matrix(1 0 0 -1 0 28)">
	<stop  offset="0" style="stop-color:#5674AF"/>
	<stop  offset="0.3328" style="stop-color:#438DBC"/>
	<stop  offset="0.6764" style="stop-color:#339FB9"/>
	<stop  offset="1" style="stop-color:#24B1B4"/>
</linearGradient>
<polygon class="st0" points="159.995,11.998 149.538,23.995 10.456,23.995 0,11.998 10.456,0 149.538,0 "/>
<g>
	<path class="st1" d="M70.009,10.247c0.273-0.295,0.42-0.86,0.147-1.408c-0.273-0.566-0.882-0.818-1.218-0.462
		c-0.336,0.359-0.44,0.988-0.105,1.555C69.149,10.478,69.736,10.542,70.009,10.247z"/>
	<path class="st1" d="M103.79,15.181c-0.84,1.155-2.078,2.351-3.716,3.233c0.882-2.037,2.164-4.557,2.793-5.773
		c0.546-1.071,0.379-1.975,0.084-2.353c-0.189-0.168-0.335-0.126-0.524,0.147c-0.737,1.071-1.638,2.96-2.542,4.515
		c-1.071,1.825-2.12,3.169-2.938,3.107c-0.483-0.041-0.525-0.776-0.105-1.805c0.398-0.987,0.86-1.847,1.616-3.065
		c0.776-1.24,0.904-2.122,0.4-2.793c-0.147-0.211-0.358-0.231-0.525,0c-1.238,1.713-2.195,3.576-2.708,4.911
		c-0.086-0.154-0.219-0.114-0.298,0.065c-0.673,1.532-1.744,2.938-2.584,2.876c-0.67-0.041-0.923-0.861-0.525-2.016
		c0.378-1.113,1.388-2.54,2.373-3.653c0.631-0.715,0.105-1.702-0.273-2.142c-0.167-0.209-0.356-0.147-0.629,0.042
		c-0.798,0.545-1.532,0.903-2.267,1.007c0.42-1.113,0.797-2.646,0.062-2.624c-0.84,0.02-2.897,2.793-1.344,3.464
		c-0.44,0.798-1.049,1.198-1.638,1.302c0-0.125,0.044-0.231,0.044-0.336c0.104-1.533-0.505-1.658-1.009-2.309
		c-0.441-0.568-0.777-0.777-1.406-0.713c-1.26,0.104-2.584,1.28-3.382,2.729c-0.393,0.722-0.664,1.474-0.782,2.197
		c-0.001,0.003-0.003,0.004-0.005,0.007c-0.776,1.575-1.973,3.066-2.918,3.024c-0.882-0.041-1.113-1.343-0.42-2.876
		c0.798-1.763,1.995-3.8,2.813-5.207c0.525-0.084,1.176-0.148,1.638-0.084c0.314,0,0.4-0.148,0.252-0.399
		c-0.169-0.273-0.484-0.651-1.302-0.631c0.504-1.091,0.504-1.784,0.273-2.373c-0.106-0.251-0.315-0.273-0.504,0
		c-0.358,0.462-0.945,1.449-1.596,2.604c-0.567,0.064-1.155,0.106-1.742,0.084c-0.316-0.02-0.442,0.127-0.231,0.42
		c0.168,0.231,0.651,0.547,1.364,0.547c-0.901,1.658-1.783,3.422-2.225,4.471c-0.042,0.102-0.06,0.192-0.095,0.291
		c-0.097-0.124-0.267-0.156-0.359,0.048c-0.526,1.134-1.408,2.394-2.815,2.918c0.756-0.504,0.903-1.386,0.945-2.204
		c0.064-1.449-0.336-3.087-0.189-5.018c0.084-0.147,0.147-0.273,0.231-0.4c0.272-0.482,0.378-0.713,0.167-0.924
		c-0.189-0.189-0.671-0.104-1.133,0.316c-0.441,0.398-0.651,0.796-0.756,1.616c-0.609,1.071-1.553,2.435-2.415,3.611
		c-0.02-0.168-0.02-0.337-0.042-0.504c-0.022-0.336-0.189-0.42-0.442-0.211c-0.259,0.214-0.429,0.534-0.521,0.897
		c-0.082-0.073-0.188-0.054-0.268,0.091c-0.629,1.449-1.784,2.834-2.729,2.876c-0.673,0.041-0.714-0.777-0.209-1.995
		c0.44-1.049,1.322-2.478,1.764-3.402c0.504-1.049,0.335-1.953,0.02-2.285c-0.168-0.19-0.315-0.128-0.504,0.125
		c-0.776,1.091-2.162,3.569-2.687,5.102c-0.589,1.721-0.189,3.065,1.407,3.065c1.174,0,2.498-0.882,3.127-2.184
		c0.024-0.049,0.037-0.094,0.057-0.142c0.054,0.271,0.144,0.534,0.27,0.77c0.714,1.301,1.891,1.618,3.107,1.576
		c1.477-0.063,2.891-0.849,3.691-2.272c0.008,1.381,0.861,2.22,1.869,2.25c1.43,0.054,2.64-1.273,3.138-2.045
		c0.085,0.351,0.226,0.68,0.441,0.974c0.82,1.113,1.911,1.155,2.667,0.904c1.553-0.506,2.855-2.667,3.275-4.451
		c1.155-0.044,2.017-0.757,2.604-1.702c0.673,0,1.596-0.209,2.54-0.818c-0.882,1.029-2.204,2.582-2.624,3.989
		c-0.525,1.722,0.126,3.128,1.742,3.213c0.952,0.05,1.94-0.601,2.578-1.534c0.049,0.76,0.42,1.353,1.332,1.428
		c0.84,0.063,1.638-0.484,2.289-1.155c-0.231,0.504-0.442,1.029-0.651,1.511c-2.078,0.82-3.864,2.078-4.493,3.969
		c-0.117,0.344-0.164,0.645-0.169,0.92h1.039c0.302-1.123,1.325-2.887,3.266-4.006c-0.704,1.67-1.53,3.103-2.184,4.006h1.776
		c0.859-1.364,1.629-3.143,2.297-4.741c1.742-0.715,3.213-1.511,4.031-2.813c0.356-0.547,0.42-1.029,0.377-1.218
		C104.085,15.012,103.895,15.034,103.79,15.181z M72.748,18.036c-0.692,0.211-1.301-0.651-1.616-1.867
		c0.799-1.135,1.575-2.289,2.184-3.402C73.4,14.447,73.715,17.743,72.748,18.036z M86.276,15.621
		c-1.049,1.911-2.351,2.668-2.896,2.184c-0.545-0.482-0.253-2.393,0.651-3.989c0.461-0.798,1.049-1.491,1.616-1.973
		c0.022,0.755,0.546,1.595,1.365,2.056C86.865,14.425,86.612,14.992,86.276,15.621z M87.201,13.29
		c-0.4-0.334-0.589-0.86-0.525-1.385c0.084-0.609,0.545-0.777,0.629-0.084C87.347,12.178,87.327,12.683,87.201,13.29z"/>
	<path class="st1" d="M55.116,18.794c0.127,0.189,0.294,0.125,0.378-0.084c0.609-1.408,1.26-2.793,1.911-4.095
		c0.987,0,2.603-0.273,4.136-0.462c-0.42,0.86-0.735,1.596-0.882,2.016c-0.42,1.28-0.231,1.889,0.064,2.309
		c0.125,0.189,0.272,0.167,0.356-0.042c0.693-1.575,1.427-3.087,2.142-4.451c0.44-0.022,0.84,0,1.175,0.062
		c0.211,0.042,0.275-0.062,0.231-0.231c-0.083-0.357-0.334-0.713-0.818-0.924c0.904-1.638,1.722-3.043,2.351-4.178
		c0.882-1.574,0.945-2.562,0.651-3.17c-0.126-0.273-0.315-0.293-0.524-0.02c-0.84,1.113-2.688,4.451-4.053,7.16
		c-1.385,0.084-2.687,0.44-4.136,0.629c0.924-1.742,1.786-3.233,2.393-4.409c0.778-1.491,0.84-2.52,0.525-3.107
		c-0.126-0.231-0.315-0.273-0.504-0.022c-0.86,1.219-2.812,4.851-4.156,7.644c-0.275,0-0.567-0.042-0.882-0.064
		c-0.359-0.02-0.4,0.064-0.275,0.315c0.086,0.169,0.253,0.462,0.715,0.673c-0.42,0.946-0.777,1.7-0.902,2.142
		C54.654,17.765,54.801,18.354,55.116,18.794z"/>
</g>
</svg>
