<?xml version="1.0" encoding="utf-8"?>
<!-- Generator: Adobe Illustrator 22.0.0, SVG Export Plug-In . SVG Version: 6.00 Build 0)  -->
<svg version="1.1" id="レイヤー_1" xmlns="http://www.w3.org/2000/svg" xmlns:xlink="http://www.w3.org/1999/xlink" x="0px"
	 y="0px" viewBox="0 0 159.995 23.995" style="enable-background:new 0 0 159.995 23.995;" xml:space="preserve">
<style type="text/css">
	.st0{fill:url(#SVGID_1_);}
	.st1{fill:#FFFFFF;}
</style>
<linearGradient id="SVGID_1_" gradientUnits="userSpaceOnUse" x1="102.5775" y1="-23.1077" x2="57.4168" y2="55.1129" gradientTransform="matrix(1 0 0 -1 0 28)">
	<stop  offset="0" style="stop-color:#5674AF"/>
	<stop  offset="0.3328" style="stop-color:#438DBC"/>
	<stop  offset="0.6764" style="stop-color:#339FB9"/>
	<stop  offset="1" style="stop-color:#24B1B4"/>
</linearGradient>
<polygon class="st0" points="159.995,11.998 149.538,23.995 10.456,23.995 0,11.998 10.456,0 149.538,0 "/>
<g>
	<path class="st1" d="M62.381,10.119c-0.167-0.147-0.335-0.062-0.42,0.169c-0.713,2.184-1.28,5.186-1.364,6.655
		c-0.064,1.113,0.231,1.533,1.049,1.933c0.211,0.105,0.315-0.042,0.42-0.211c2.016-3.191,3.927-5.207,4.976-6.529
		c0.671-0.84,0.923-1.385,0.861-1.828c-0.042-0.273-0.167-0.315-0.398-0.084c-1.427,1.469-4.22,5.166-5.711,7.622
		c0.295-2.289,0.715-3.464,1.091-5.082C63.179,11.484,63.074,10.708,62.381,10.119z"/>
	<path class="st1" d="M42.106,18.562c0.103,0.145,0.293,0.145,0.378-0.044c0.419-0.924,0.966-1.951,1.595-3.022
		c0.987,0.02,2.687-0.231,4.178-0.336c-0.062,0.63-0.084,1.175-0.084,1.595c0.021,1.198,0.356,1.722,0.776,1.911
		c0.19,0.084,0.315,0.022,0.315-0.189c0.043-1.113,0.169-2.267,0.316-3.358c0.357,0.02,0.651,0.061,0.902,0.125
		c0.189,0.064,0.273,0,0.231-0.189c-0.084-0.44-0.315-0.86-0.944-1.071c0.398-2.309,0.986-4.451,1.533-6.109
		c0.189-0.568,0.209-1.03,0.001-1.533c-0.211-0.526-0.273-0.567-0.484-0.862c-0.209-0.293-0.42-0.293-0.756-0.02
		c-2.226,1.825-5.144,5.983-6.782,8.838c-0.335-0.02-0.651-0.062-0.944-0.104c-0.317-0.041-0.358,0.042-0.253,0.315
		c0.064,0.148,0.231,0.462,0.693,0.713c-0.251,0.462-0.44,0.882-0.567,1.198C41.77,17.595,41.853,18.226,42.106,18.562z
		 M49.978,7.413c-0.651,1.636-1.238,4.281-1.553,6.465c-0.987,0.022-2.269,0.253-3.549,0.358
		C46.473,11.736,48.382,9.196,49.978,7.413z"/>
	<path class="st1" d="M100.004,15.285c-0.083-0.189-0.231-0.167-0.336,0.022c-0.735,1.447-1.889,2.876-2.751,2.918
		c-0.712,0.042-0.692-0.861-0.167-2.036c0.503-1.113,1.552-2.688,2.016-3.633c0.504-1.051,0.335-1.953,0.02-2.331
		c-0.148-0.19-0.315-0.148-0.504,0.125c-0.231,0.337-0.483,0.778-0.756,1.282c0.042-0.82-0.378-1.513-1.28-1.513
		c-1.051,0-2.709,0.946-4.409,3.424c-0.334,0.487-0.588,0.978-0.769,1.455c-0.068,0.025-0.136,0.081-0.186,0.181
		c-0.776,1.575-1.973,3.066-2.918,3.024c-0.882-0.041-1.113-1.343-0.42-2.876c0.798-1.763,1.995-3.8,2.813-5.207
		c0.525-0.084,1.176-0.148,1.638-0.084c0.314,0,0.4-0.147,0.252-0.399c-0.169-0.273-0.484-0.651-1.302-0.631
		c0.504-1.091,0.504-1.784,0.273-2.373c-0.106-0.251-0.315-0.273-0.504,0c-0.358,0.462-0.945,1.449-1.596,2.604
		c-0.567,0.064-1.155,0.106-1.742,0.084c-0.316-0.02-0.442,0.127-0.231,0.42c0.168,0.231,0.651,0.547,1.364,0.547
		c-0.901,1.658-1.783,3.422-2.225,4.471c-1.007,2.415,0.106,3.969,1.491,4.011c1.289,0.048,2.399-1.025,2.971-1.803
		c0.09,1.054,0.681,1.781,1.7,1.781c1.008,0,1.953-0.776,2.624-1.636c0,0.986,0.587,1.658,1.722,1.722
		c1.155,0.062,2.479-1.092,3.024-2.247C100.089,16,100.089,15.475,100.004,15.285z M92.679,18.057
		c-0.82-0.02-0.548-1.868,0.565-3.673c1.156-1.869,2.689-3.235,3.36-3.171c0.609,0.062,0.42,1.363-0.901,3.675
		C94.632,16.735,93.539,18.079,92.679,18.057z"/>
	<path class="st1" d="M109.278,16.567c0.094-0.149,0.168-0.289,0.229-0.42c0.091,1.544,1.085,2.673,2.837,2.646
		c1.618-0.022,3.234-0.987,4.116-2.269c0.378-0.546,0.44-1.133,0.356-1.302c-0.083-0.187-0.251-0.187-0.356-0.02
		c-0.903,1.386-2.436,3.066-4.178,2.982c-1.112-0.063-1.616-1.385-0.945-3.318c1.469,1.196,2.876,0.651,3.905-0.609
		c0.882-1.071,1.049-2.351,0.673-2.855c-0.336-0.462-0.715-0.778-1.24-1.093c-1.049-0.609-3.191,0.484-4.556,3.193
		c-0.29,0.575-0.47,1.144-0.559,1.687c-0.071-0.011-0.154,0.028-0.219,0.117c-0.84,1.113-1.994,2.267-3.758,3.149
		c0.882-2.036,2.204-4.578,2.835-5.836c0.524-1.029,0.357-1.933,0.042-2.311c-0.147-0.189-0.358-0.168-0.525,0.127
		c-0.209,0.357-0.442,0.735-0.693,1.155c0.02-0.736-0.398-1.385-1.238-1.385c-1.071,0-2.773,0.944-4.409,3.38
		c-1.702,2.519-1.324,5.144,0.607,5.144c0.778,0,1.513-0.442,2.122-1.049c-0.211,0.482-0.4,0.985-0.609,1.447
		c-2.078,0.798-3.884,2.08-4.493,3.969c-0.108,0.335-0.156,0.63-0.164,0.899h1.046c0.308-1.117,1.32-2.876,3.254-4.006
		c-0.729,1.705-1.54,3.116-2.181,4.006h1.783c0.84-1.347,1.595-3.096,2.245-4.679C106.947,18.687,108.46,17.847,109.278,16.567z
		 M111.693,14.048c0.987-1.994,2.731-3.254,3.171-2.898c0.295,0.23-0.167,1.323-0.84,2.205c-0.609,0.798-1.469,1.7-2.498,1.049
		C111.568,14.299,111.631,14.173,111.693,14.048z M102.454,18.079c-0.84-0.022-0.609-1.87,0.526-3.675
		c1.154-1.827,2.687-3.171,3.338-3.129c0.609,0.043,0.42,1.345-0.904,3.655C104.343,16.777,103.272,18.099,102.454,18.079z"/>
	<path class="st1" d="M75.246,12.556c0.504-1.051,0.335-1.953,0.02-2.331c-0.148-0.19-0.315-0.148-0.504,0.125
		c-0.231,0.337-0.483,0.778-0.756,1.282c0.042-0.82-0.378-1.513-1.28-1.513c-1.051,0-2.709,0.946-4.409,3.424
		c-1.744,2.54-1.344,5.205,0.609,5.205c1.008,0,1.953-0.776,2.624-1.636c0,0.986,0.587,1.658,1.722,1.722
		c1.155,0.062,2.479-1.092,3.024-2.247c0.273-0.587,0.273-1.112,0.188-1.302c-0.083-0.189-0.231-0.167-0.336,0.022
		c-0.735,1.447-1.889,2.876-2.751,2.918c-0.712,0.042-0.692-0.861-0.167-2.036C73.733,15.076,74.782,13.501,75.246,12.556z
		 M72.183,14.888c-1.071,1.847-2.164,3.191-3.024,3.169c-0.82-0.02-0.548-1.868,0.565-3.673c1.156-1.869,2.689-3.235,3.36-3.171
		C73.693,11.275,73.504,12.576,72.183,14.888z"/>
	<path class="st1" d="M61.56,5.522c-0.756,1.071-2.352,3.927-3.485,6.089c0.02-0.776-0.4-1.427-1.26-1.427
		c-1.051,0-2.729,0.945-4.389,3.38c-1.722,2.52-1.344,5.185,0.609,5.185c0.988,0,1.933-0.776,2.604-1.616
		c0,0.987,0.567,1.616,1.7,1.68c1.157,0.063,2.459-1.049,3.024-2.204c0.273-0.567,0.253-1.113,0.169-1.302
		c-0.083-0.169-0.231-0.169-0.336,0.02c-0.734,1.449-1.869,2.856-2.729,2.898c-0.714,0.042-0.692-0.82-0.127-2.036
		c1.051-2.225,3.066-5.691,4.075-7.496c0.881-1.575,0.943-2.478,0.649-3.171C61.958,5.249,61.769,5.229,61.56,5.522z M56.228,14.93
		c-0.985,1.911-2.12,3.149-2.96,3.127c-0.819-0.02-0.588-1.848,0.545-3.653c1.156-1.847,2.689-3.171,3.34-3.149
		C57.76,11.275,57.445,12.598,56.228,14.93z"/>
	<path class="st1" d="M80.343,10.289c-0.127-0.211-0.295-0.231-0.442,0c-1.322,1.953-2.938,4.871-3.358,6.193
		c-0.336,1.051-0.211,1.744,0.209,2.164c0.189,0.189,0.314,0.103,0.398-0.084c0.903-1.975,1.827-3.991,3.065-5.335
		c1.344-1.469,2.562-2.057,2.773-1.973c0.378,0.167-1.471,2.393-2.164,4.451c-0.609,1.827-0.19,3.129,1.596,3.129
		c1.218,0,2.54-1.071,3.107-2.247c0.295-0.609,0.337-1.091,0.189-1.321c-0.105-0.169-0.252-0.169-0.356,0.02
		c-0.798,1.469-1.827,2.856-2.687,2.898c-0.756,0.041-0.882-0.946-0.336-2.164c0.482-1.091,1.511-2.645,1.953-3.569
		c0.524-1.09-0.127-2.12-0.82-2.225c-0.692-0.106-2.12,1.049-3.065,2.058C80.636,11.527,80.658,10.813,80.343,10.289z"/>
</g>
</svg>
