<?xml version="1.0" encoding="utf-8"?>
<!-- Generator: Adobe Illustrator 22.0.0, SVG Export Plug-In . SVG Version: 6.00 Build 0)  -->
<svg version="1.1" id="レイヤー_1" xmlns="http://www.w3.org/2000/svg" xmlns:xlink="http://www.w3.org/1999/xlink" x="0px"
	 y="0px" viewBox="0 0 100.438 60" style="enable-background:new 0 0 100.438 60;" xml:space="preserve">
<style type="text/css">
	.st0{fill:url(#SVGID_1_);}
	.st1{fill:#151519;}
	.st2{fill:url(#SVGID_2_);}
</style>
<linearGradient id="SVGID_1_" gradientUnits="userSpaceOnUse" x1="33.0833" y1="33.4746" x2="25.2566" y2="25.648">
	<stop  offset="0" style="stop-color:#5674AF"/>
	<stop  offset="0.3328" style="stop-color:#438DBC"/>
	<stop  offset="0.6764" style="stop-color:#339FB9"/>
	<stop  offset="1" style="stop-color:#24B1B4"/>
</linearGradient>
<path class="st0" d="M34.348,16.591c-3.404,4.915-9.325,15.753-11.385,21.465c-0.924,2.562-0.42,4.033,0.169,4.662
	c0.336,0.378,0.504,0.336,0.673-0.084c3.065-6.889,7.687-14.996,10.291-19.575c1.805-3.193,1.849-5.209,1.26-6.427
	C35.105,16.129,34.726,16.044,34.348,16.591L34.348,16.591z"/>
<path class="st1" d="M42.745,39.331c-0.649,1.344-2.16,2.567-3.553,2.567c-2.04,0-2.52-1.487-1.824-3.576
	c0.791-2.351,2.904-4.896,2.473-5.087c-0.24-0.096-1.633,0.576-3.169,2.256c-1.416,1.536-2.473,3.84-3.504,6.096
	c-0.096,0.216-0.24,0.311-0.456,0.096c-0.48-0.48-0.624-1.273-0.24-2.473c0.48-1.513,2.327-4.849,3.84-7.08
	c0.167-0.265,0.36-0.24,0.504,0c0.36,0.6,0.336,1.415,0.073,2.28c1.08-1.153,2.713-2.473,3.504-2.353
	c0.793,0.12,1.536,1.296,0.936,2.544c-0.504,1.056-1.68,2.833-2.233,4.08c-0.624,1.393-0.48,2.522,0.385,2.473
	c0.984-0.047,2.16-1.631,3.071-3.313c0.12-0.215,0.289-0.215,0.409-0.024C43.128,38.082,43.081,38.635,42.745,39.331L42.745,39.331z
	 M49.992,31.842c-0.527-0.071-1.271,0-1.873,0.096c-0.935,1.607-2.304,3.936-3.215,5.953c-0.793,1.753-0.529,3.24,0.48,3.287
	c1.08,0.049,2.447-1.655,3.336-3.456c0.144-0.287,0.407-0.335,0.504,0c0.12,0.385,0,0.816-0.24,1.369
	c-0.313,0.696-1.896,2.807-3.816,2.736c-1.585-0.049-2.856-1.824-1.705-4.585c0.505-1.2,1.513-3.216,2.545-5.111
	c-0.816,0-1.369-0.36-1.56-0.625c-0.24-0.335-0.096-0.504,0.264-0.48c0.673,0.025,1.344-0.024,1.993-0.095
	c0.744-1.322,1.415-2.449,1.824-2.976c0.216-0.313,0.456-0.289,0.576,0c0.264,0.671,0.264,1.464-0.313,2.711
	c0.936-0.024,1.296,0.409,1.489,0.72C50.448,31.675,50.352,31.842,49.992,31.842L49.992,31.842z M64.977,39.355
	c-0.6,1.44-2.04,2.544-3.36,2.473c-1.825-0.096-2.545-1.729-1.945-3.673c0.505-1.607,1.945-3.384,2.976-4.536
	c-1.056,0.673-2.136,0.913-2.88,0.913c-1.993,4.176-4.584,7.2-7.44,7.247c-3.049,0.049-4.08-2.927-2.52-6
	c1.511-2.976,3.96-4.32,5.16-3.624c0.6,0.36,1.033,0.696,1.416,1.224c0.407,0.576,0.167,1.993-0.793,3.216
	c-1.127,1.464-2.736,2.064-4.416,0.72c-0.767,2.184-0.167,3.744,1.056,3.793c2.64,0.12,5.28-3.673,6.6-6.722
	c-1.847-0.767,0.505-3.96,1.513-4.007c0.744-0.024,0.504,1.44-0.096,3c0.84-0.12,1.68-0.504,2.616-1.127
	c0.289-0.193,0.504-0.313,0.673-0.073c0.48,0.527,1.08,1.68,0.36,2.473c-1.129,1.247-2.353,2.88-2.76,4.176
	c-0.409,1.32-0.12,2.28,0.6,2.304c1.007,0.047,2.231-1.536,3-3.313c0.096-0.191,0.264-0.24,0.36-0.024
	C65.217,38.058,65.265,38.682,64.977,39.355L64.977,39.355z M54.225,35.611c0.767-0.985,1.271-2.233,0.96-2.496
	c-0.529-0.456-2.496,1.056-3.6,3.264c-0.073,0.12-0.12,0.289-0.193,0.409C52.568,37.508,53.505,36.522,54.225,35.611L54.225,35.611z
	 M72.561,34.242c-1.2,1.513-3.385,3.816-5.689,7.465c-0.12,0.191-0.24,0.36-0.48,0.24c-0.936-0.456-1.273-0.936-1.2-2.209
	c0.096-1.68,0.744-5.113,1.56-7.607c0.096-0.265,0.287-0.36,0.48-0.193c0.793,0.673,0.913,1.56,0.576,3.024
	c-0.433,1.849-0.913,3.193-1.249,5.809c1.705-2.809,4.896-7.033,6.529-8.713c0.264-0.264,0.407-0.216,0.456,0.096
	C73.615,32.658,73.328,33.282,72.561,34.242L72.561,34.242z M78.288,32.058c-0.313,0.336-0.984,0.264-1.344-0.36
	c-0.385-0.647-0.265-1.369,0.12-1.776c0.384-0.407,1.08-0.12,1.391,0.527C78.768,31.075,78.601,31.722,78.288,32.058L78.288,32.058z
	 M76.559,34.962c-0.504,1.056-1.511,2.689-2.015,3.889c-0.576,1.393-0.529,2.327,0.24,2.28c1.08-0.047,2.4-1.633,3.12-3.289
	c0.12-0.215,0.287-0.191,0.384,0c0.191,0.385,0.12,0.889-0.169,1.489c-0.72,1.487-2.231,2.496-3.575,2.496
	c-1.825,0-2.282-1.536-1.609-3.505c0.6-1.751,2.184-4.584,3.073-5.831c0.216-0.289,0.384-0.36,0.576-0.145
	C76.945,32.731,77.135,33.762,76.559,34.962L76.559,34.962z M86.912,39.258c-1.007,1.465-2.856,2.569-4.704,2.593
	c-3.049,0.047-4.105-2.953-2.545-6.049c1.562-3.096,4.009-4.344,5.209-3.647c0.6,0.36,1.033,0.72,1.416,1.247
	c0.433,0.576,0.24,2.04-0.767,3.265c-1.176,1.44-2.785,2.064-4.465,0.695c-0.767,2.209-0.191,3.722,1.08,3.793
	c1.993,0.096,3.745-1.824,4.776-3.407c0.12-0.193,0.313-0.193,0.409,0.024C87.415,37.962,87.344,38.635,86.912,39.258L86.912,39.258
	z M84.128,35.635c0.767-1.009,1.296-2.256,0.96-2.52c-0.504-0.409-2.496,1.031-3.624,3.313c-0.073,0.144-0.145,0.287-0.193,0.407
	C82.448,37.578,83.432,36.548,84.128,35.635L84.128,35.635z M100.408,32.755c-0.191,0.96-0.6,2.04-2.087,4.56
	c-1.633,2.736-3.336,4.584-4.945,4.536c-1.031-0.024-1.607-0.96-1.536-1.993c-0.767,0.985-1.775,1.945-2.927,1.873
	c-1.489-0.096-1.753-1.656-1.129-3.433c0.553-1.584,1.729-3.936,3.336-6.12c0.193-0.264,0.433-0.24,0.576-0.024
	c0.576,0.791,0.456,1.824-0.431,3.24c-0.865,1.367-1.489,2.496-1.969,3.647c-0.48,1.176-0.456,2.016,0.096,1.993
	c0.96-0.024,1.847-1.631,3.144-3.72c1.536-2.449,2.233-4.104,3.025-5.136c0.24-0.313,0.384-0.36,0.6-0.144
	c0.335,0.431,0.527,1.487-0.049,2.687c-0.527,1.08-1.727,2.905-2.327,4.176c-0.649,1.369-0.576,2.185,0.12,2.209
	c0.84,0.024,2.28-1.56,3.576-3.816c0.407-3.673,2.064-5.256,2.567-5.353C100.361,31.891,100.505,32.251,100.408,32.755
	L100.408,32.755z"/>
<linearGradient id="SVGID_2_" gradientUnits="userSpaceOnUse" x1="54.4144" y1="54.4144" x2="5.5856" y2="5.5856">
	<stop  offset="0" style="stop-color:#5674AF"/>
	<stop  offset="0.3328" style="stop-color:#438DBC"/>
	<stop  offset="0.6764" style="stop-color:#339FB9"/>
	<stop  offset="1" style="stop-color:#24B1B4"/>
</linearGradient>
<polygon class="st2" points="56,44 56,46.747 42.785,56 4,56 4,13.253 17.215,4 56,4 56,25 60,25 60,0 15.954,0 0,11.171 0,60 
	44.046,60 60,48.829 60,44 "/>
</svg>
